<svg width="125" height="52" viewBox="0 0 125 52" fill="none" xmlns="http://www.w3.org/2000/svg">
<rect x="0.5" y="0.5" width="124" height="51" rx="3.5" fill="white"/>
<rect x="0.5" y="0.5" width="124" height="51" rx="3.5" stroke="#6698FA"/>
<path fill-rule="evenodd" clip-rule="evenodd" d="M39.9853 15.3555C39.9875 15.3937 39.9887 15.4321 39.9887 15.4707V36.2169C39.9966 36.1446 40.0007 36.0711 40.0007 35.9966V15.6045C40.0007 15.5202 39.9954 15.4371 39.9853 15.3555ZM19.5283 35.2521V23.3086H23.056V35.2521H19.5283ZM23.2242 18.3792C23.3246 18.6408 23.3753 18.9207 23.3734 19.203V19.2702C23.367 19.5526 23.3081 19.8308 23.2 20.089C23.092 20.3473 22.9368 20.5805 22.7436 20.7753C22.5503 20.9701 22.3226 21.1226 22.0736 21.2243C21.8245 21.326 21.559 21.3747 21.2921 21.3678C20.7495 21.3678 20.2291 21.1397 19.8454 20.7337C19.4617 20.3278 19.2461 19.7772 19.2461 19.203C19.2461 18.6289 19.4617 18.0783 19.8454 17.6723C20.2291 17.2663 20.7495 17.0383 21.2921 17.0383H21.3556C21.6225 17.0402 21.8863 17.0978 22.1321 17.2076C22.378 17.3175 22.6009 17.4775 22.7883 17.6785C22.9757 17.8795 23.1238 18.1176 23.2242 18.3792ZM32.1573 23.01C34.3021 23.01 36.461 24.4059 36.461 27.9964L36.4328 35.2521H32.9051V28.8549C32.9051 26.9738 32.0726 26.2273 30.9508 26.2273H30.8168C30.2024 26.288 29.6355 26.6027 29.2392 27.1031C28.8429 27.6034 28.6492 28.2491 28.7002 28.8997V35.2521H25.1725V23.3086H28.4885V24.9359H28.5873C28.9713 24.3127 29.503 23.8069 30.1294 23.469C30.7558 23.1311 31.455 22.9728 32.1573 23.01Z" fill="#6698FA"/>
<path d="M48.966 21.004H51.164V29.152H56.036V31H48.966V21.004ZM59.5988 22.642H57.6108V21.004H59.5988V22.642ZM57.6108 23.762H59.5988V31H57.6108V23.762ZM61.6642 23.762H63.5542V24.77H63.5962C63.8482 24.35 64.1749 24.0467 64.5762 23.86C64.9775 23.664 65.3882 23.566 65.8082 23.566C66.3402 23.566 66.7742 23.6407 67.1102 23.79C67.4555 23.93 67.7262 24.1307 67.9222 24.392C68.1182 24.644 68.2535 24.9567 68.3282 25.33C68.4122 25.694 68.4542 26.1 68.4542 26.548V31H66.4662V26.912C66.4662 26.3147 66.3729 25.8713 66.1862 25.582C65.9995 25.2833 65.6682 25.134 65.1922 25.134C64.6509 25.134 64.2589 25.2973 64.0162 25.624C63.7735 25.9413 63.6522 26.4687 63.6522 27.206V31H61.6642V23.762ZM70.645 21.004H72.633V26.366L75.139 23.762H77.491L74.761 26.422L77.799 31H75.391L73.403 27.766L72.633 28.508V31H70.645V21.004ZM83.8741 26.604C83.7808 26.1 83.6128 25.7173 83.3701 25.456C83.1368 25.1947 82.7774 25.064 82.2921 25.064C81.9748 25.064 81.7088 25.12 81.4941 25.232C81.2888 25.3347 81.1208 25.4653 80.9901 25.624C80.8688 25.7827 80.7801 25.9507 80.7241 26.128C80.6774 26.3053 80.6494 26.464 80.6401 26.604H83.8741ZM80.6401 27.864C80.6681 28.508 80.8314 28.9747 81.1301 29.264C81.4288 29.5533 81.8581 29.698 82.4181 29.698C82.8194 29.698 83.1648 29.6 83.4541 29.404C83.7434 29.1987 83.9208 28.984 83.9861 28.76H85.7361C85.4561 29.628 85.0268 30.2487 84.4481 30.622C83.8694 30.9953 83.1694 31.182 82.3481 31.182C81.7788 31.182 81.2654 31.0933 80.8081 30.916C80.3508 30.7293 79.9634 30.468 79.6461 30.132C79.3288 29.796 79.0814 29.3947 78.9041 28.928C78.7361 28.4613 78.6521 27.948 78.6521 27.388C78.6521 26.8467 78.7408 26.3427 78.9181 25.876C79.0954 25.4093 79.3474 25.008 79.6741 24.672C80.0008 24.3267 80.3881 24.056 80.8361 23.86C81.2934 23.664 81.7974 23.566 82.3481 23.566C82.9641 23.566 83.5008 23.6873 83.9581 23.93C84.4154 24.1633 84.7888 24.4807 85.0781 24.882C85.3768 25.2833 85.5914 25.7407 85.7221 26.254C85.8528 26.7673 85.8994 27.304 85.8621 27.864H80.6401ZM92.6792 27.36C92.6792 27.0613 92.6512 26.7767 92.5952 26.506C92.5392 26.226 92.4412 25.9833 92.3012 25.778C92.1705 25.5633 91.9978 25.3907 91.7832 25.26C91.5685 25.1293 91.2978 25.064 90.9712 25.064C90.6445 25.064 90.3692 25.1293 90.1452 25.26C89.9212 25.3907 89.7392 25.5633 89.5992 25.778C89.4685 25.9927 89.3705 26.24 89.3052 26.52C89.2492 26.7907 89.2212 27.0753 89.2212 27.374C89.2212 27.654 89.2538 27.934 89.3192 28.214C89.3845 28.494 89.4872 28.746 89.6272 28.97C89.7765 29.1847 89.9585 29.362 90.1732 29.502C90.3972 29.6327 90.6632 29.698 90.9712 29.698C91.2978 29.698 91.5685 29.6327 91.7832 29.502C92.0072 29.3713 92.1845 29.1987 92.3152 28.984C92.4458 28.76 92.5392 28.508 92.5952 28.228C92.6512 27.948 92.6792 27.6587 92.6792 27.36ZM92.7072 30.076H92.6792C92.4458 30.468 92.1378 30.7527 91.7552 30.93C91.3818 31.098 90.9572 31.182 90.4812 31.182C89.9398 31.182 89.4638 31.0793 89.0532 30.874C88.6425 30.6593 88.3018 30.3747 88.0312 30.02C87.7698 29.656 87.5692 29.2407 87.4292 28.774C87.2985 28.3073 87.2332 27.822 87.2332 27.318C87.2332 26.8327 87.2985 26.366 87.4292 25.918C87.5692 25.4607 87.7698 25.0593 88.0312 24.714C88.3018 24.3687 88.6378 24.0933 89.0392 23.888C89.4405 23.6733 89.9072 23.566 90.4392 23.566C90.8685 23.566 91.2745 23.6593 91.6572 23.846C92.0492 24.0233 92.3572 24.2893 92.5812 24.644H92.6092V21.004H94.5972V31H92.7072V30.076ZM98.6438 22.642H96.6558V21.004H98.6438V22.642ZM96.6558 23.762H98.6438V31H96.6558V23.762ZM100.709 23.762H102.599V24.77H102.641C102.893 24.35 103.22 24.0467 103.621 23.86C104.022 23.664 104.433 23.566 104.853 23.566C105.385 23.566 105.819 23.6407 106.155 23.79C106.5 23.93 106.771 24.1307 106.967 24.392C107.163 24.644 107.298 24.9567 107.373 25.33C107.457 25.694 107.499 26.1 107.499 26.548V31H105.511V26.912C105.511 26.3147 105.418 25.8713 105.231 25.582C105.044 25.2833 104.713 25.134 104.237 25.134C103.696 25.134 103.304 25.2973 103.061 25.624C102.818 25.9413 102.697 26.4687 102.697 27.206V31H100.709V23.762Z" fill="#6698FA"/>
</svg>
