<svg width="430" height="433" viewBox="0 0 430 433" fill="none" xmlns="http://www.w3.org/2000/svg">
<g clip-path="url(#clip0_6589_3528)">
<path d="M0 342L94 335L184.5 342L255.5 339L325.5 337L351 340.5L395.5 339L430 342V433H0V342Z" fill="url(#paint0_linear_6589_3528)"/>
<path d="M92.5651 18L131.638 131.554L189.636 300.054L91.9546 330.579L-10 300.054L92.5651 18Z" fill="#6698FA"/>
<path d="M86.4617 237.782V219.467V209.088L70.5886 185.889L55.3259 162.079L62.0415 168.795L82.7987 190.773L87.6827 195.657L89.5143 144.375L91.3458 96.1445L92.5668 123.617L95.0088 198.71L105.998 186.5L113.324 179.784L124.438 167.972L115.156 182.836L94.3983 215.804L95.6193 246.329L96.8403 268.307L120.04 253.045L131.639 246.329L137.134 242.666L142.628 239.003L146.902 238.393L142.018 242.666L137.134 248.161L126.145 257.929L97.4508 280.518L98.0614 325.085L99.5095 342.789H82.1882L83.4092 279.907L75.4726 273.191L33.3477 235.951L58.3784 250.603L80.9672 265.255L84.0197 266.476L85.2407 267.086V257.318L86.4617 237.782Z" fill="#CCDDFF"/>
<path d="M150.433 88.6094L180.963 177.336L226.281 308.996L149.956 332.847L70.293 308.996L150.433 88.6094Z" fill="#6698FA"/>
<path d="M145.661 260.338V246.027V237.918L133.259 219.791L121.333 201.187L126.58 206.434L142.799 223.607L146.616 227.423L148.047 187.353L149.478 149.668L150.432 171.134L152.34 229.808L160.926 220.268L166.651 215.021L175.334 205.791L168.082 217.406L151.863 243.165L152.817 267.016L153.771 284.189L171.898 272.264L180.961 267.016L185.255 264.154L189.548 261.292L192.887 260.815L189.071 264.154L185.255 268.448L176.668 276.08L154.248 293.73L154.725 328.553L155.856 342.387H142.322L143.276 293.253L137.075 288.006L104.16 258.907L123.718 270.356L141.368 281.804L143.753 282.758L144.707 283.235V275.603L145.661 260.338Z" fill="#CCDDFF"/>
<g filter="url(#filter0_f_6589_3528)">
<rect x="15" y="342" width="193" height="21" fill="#6698FA"/>
</g>
</g>
<defs>
<filter id="filter0_f_6589_3528" x="-65.1" y="261.9" width="353.2" height="181.2" filterUnits="userSpaceOnUse" color-interpolation-filters="sRGB">
<feFlood flood-opacity="0" result="BackgroundImageFix"/>
<feBlend mode="normal" in="SourceGraphic" in2="BackgroundImageFix" result="shape"/>
<feGaussianBlur stdDeviation="40.05" result="effect1_foregroundBlur_6589_3528"/>
</filter>
<linearGradient id="paint0_linear_6589_3528" x1="215" y1="335" x2="215" y2="433" gradientUnits="userSpaceOnUse">
<stop stop-color="#CCDDFF"/>
<stop offset="1" stop-color="#F8FBFF"/>
</linearGradient>
<clipPath id="clip0_6589_3528">
<rect width="430" height="433" fill="white"/>
</clipPath>
</defs>
</svg>
