<svg width="152" height="44" viewBox="0 0 152 44" fill="none" xmlns="http://www.w3.org/2000/svg">
<g clip-path="url(#clip0_5235_3079)">
<path d="M1.60905 34.1464V17.3192H22.6185V16.3352H1.60905V0.984047H23.9469V0H0.625V35.1305H24.1437V34.1464H1.60905ZM43.0866 9.84047L34.3778 21.3046L25.8658 9.84047H24.5866L33.7874 22.0427L23.7009 35.1305H24.8818L34.3778 22.7807L43.9231 35.1305H45.1531L35.0175 22.0427L44.2675 9.84047H43.0866ZM48.1053 43.7901V28.0453H48.2037C48.7941 30.3415 49.9586 32.1865 51.6971 33.5806C53.4355 34.9747 55.6496 35.6717 58.3394 35.6717C60.0779 35.6717 61.6195 35.3191 62.9644 34.6139C64.3093 33.9086 65.4327 32.9492 66.3348 31.7355C67.2368 30.5219 67.9256 29.1114 68.4013 27.5041C68.8769 25.8968 69.1147 24.2076 69.1147 22.4363C69.1147 20.5338 68.8687 18.7789 68.3767 17.1716C67.8846 15.5643 67.1712 14.1703 66.2364 12.9894C65.3015 11.8086 64.1699 10.8901 62.8414 10.2341C61.5129 9.57806 60.0123 9.25004 58.3394 9.25004C57.0601 9.25004 55.8711 9.43865 54.7722 9.81587C53.6733 10.1931 52.6975 10.7261 51.8447 11.4149C50.9918 12.1038 50.2538 12.9156 49.6306 13.8505C49.0073 14.7853 48.5317 15.8104 48.2037 16.9256H48.1053V9.84047H47.1212V43.7901H48.1053ZM58.3394 34.7369C55.256 34.7369 52.7795 33.679 50.9098 31.5633C49.0401 29.4476 48.1053 26.4053 48.1053 22.4363C48.1053 20.7962 48.3349 19.2381 48.7941 17.7621C49.2533 16.286 49.9176 14.9903 50.7868 13.8751C51.6561 12.7598 52.7303 11.8742 54.0096 11.2181C55.2888 10.5621 56.7321 10.2341 58.3394 10.2341C59.9795 10.2341 61.4145 10.5621 62.6446 11.2181C63.8746 11.8742 64.8915 12.768 65.6951 13.8997C66.4988 15.0313 67.1056 16.327 67.5156 17.7867C67.9256 19.2463 68.1306 20.7962 68.1306 22.4363C68.1306 23.9124 67.942 25.3802 67.5648 26.8399C67.1876 28.2996 66.6054 29.6116 65.8181 30.7761C65.0309 31.9405 64.0223 32.8918 62.7922 33.6298C61.5621 34.3679 60.0779 34.7369 58.3394 34.7369ZM74.527 35.1305V20.8126C74.527 19.4349 74.7238 18.0901 75.1174 16.778C75.511 15.4659 76.1178 14.3097 76.9379 13.3092C77.7579 12.3088 78.7993 11.5216 80.0622 10.9475C81.3251 10.3735 82.8257 10.1357 84.5642 10.2341V9.25004C83.0554 9.21724 81.7351 9.38125 80.6034 9.74207C79.4718 10.1029 78.4959 10.5949 77.6759 11.2181C76.8559 11.8414 76.1998 12.5712 75.7078 13.4076C75.2158 14.2441 74.855 15.1379 74.6254 16.0892H74.527V9.84047H73.5429V35.1305H74.527ZM85.7943 22.6823H106.951C107.017 20.9438 106.845 19.2709 106.435 17.6636C106.025 16.0564 105.369 14.6295 104.467 13.383C103.565 12.1366 102.4 11.1361 100.973 10.3817C99.5464 9.62726 97.8489 9.25004 95.8808 9.25004C94.4703 9.25004 93.0927 9.54526 91.7478 10.1357C90.4029 10.7261 89.2221 11.5872 88.2052 12.7188C87.1884 13.8505 86.3683 15.2363 85.7451 16.8764C85.1219 18.5165 84.8103 20.3862 84.8103 22.4855C84.8103 24.3552 85.0235 26.1018 85.4499 27.7255C85.8763 29.3492 86.5323 30.7597 87.418 31.9569C88.3036 33.1542 89.4435 34.0808 90.8375 34.7369C92.2316 35.3929 93.9127 35.7045 95.8808 35.6717C98.7673 35.6717 101.195 34.8599 103.163 33.2362C105.131 31.6125 106.295 29.3246 106.656 26.3725H105.672C105.246 29.1606 104.155 31.2517 102.4 32.6458C100.645 34.0398 98.4393 34.7369 95.7824 34.7369C93.9783 34.7369 92.453 34.4253 91.2066 33.802C89.9601 33.1788 88.9432 32.326 88.156 31.2435C87.3688 30.161 86.7865 28.89 86.4093 27.4303C86.0321 25.9706 85.8271 24.388 85.7943 22.6823ZM105.967 21.6982H85.7943C85.8927 19.9269 86.2207 18.3361 86.7783 16.9256C87.336 15.5151 88.0658 14.3097 88.9678 13.3092C89.8699 12.3088 90.9195 11.5462 92.1168 11.0213C93.3141 10.4965 94.6015 10.2341 95.9792 10.2341C97.6193 10.2341 99.0625 10.5375 100.309 11.1443C101.555 11.7512 102.597 12.5794 103.433 13.6291C104.27 14.6787 104.901 15.9006 105.328 17.2946C105.754 18.6887 105.967 20.1566 105.967 21.6982ZM127.37 17.3192H128.354C128.354 14.4983 127.534 12.4482 125.894 11.1689C124.254 9.88967 122.024 9.25004 119.203 9.25004C117.628 9.25004 116.3 9.44685 115.217 9.84047C114.135 10.2341 113.249 10.7425 112.56 11.3657C111.872 11.989 111.38 12.6778 111.084 13.4322C110.789 14.1867 110.641 14.9083 110.641 15.5971C110.641 16.9748 110.887 18.0737 111.38 18.8937C111.872 19.7138 112.642 20.3534 113.692 20.8126C114.414 21.1406 115.234 21.4358 116.152 21.6982C117.071 21.9607 118.137 22.2395 119.35 22.5347C120.433 22.7971 121.499 23.0595 122.548 23.3219C123.598 23.5843 124.525 23.9369 125.328 24.3798C126.132 24.8226 126.788 25.3884 127.296 26.0773C127.805 26.7661 128.059 27.6681 128.059 28.7834C128.059 29.8658 127.805 30.7843 127.296 31.5387C126.788 32.2932 126.14 32.9082 125.353 33.3838C124.566 33.8594 123.688 34.2038 122.721 34.4171C121.753 34.6303 120.81 34.7369 119.892 34.7369C116.907 34.7369 114.619 34.0726 113.028 32.7442C111.437 31.4157 110.641 29.3246 110.641 26.4709H109.657C109.657 29.6526 110.518 31.9815 112.241 33.4576C113.963 34.9337 116.513 35.6717 119.892 35.6717C120.974 35.6717 122.065 35.5487 123.163 35.3027C124.262 35.0567 125.246 34.6549 126.116 34.0972C126.985 33.5396 127.69 32.818 128.231 31.9323C128.773 31.0467 129.043 29.9642 129.043 28.685C129.043 27.4713 128.805 26.4873 128.33 25.7328C127.854 24.9784 127.231 24.3552 126.46 23.8631C125.689 23.3711 124.82 22.9857 123.852 22.7069C122.885 22.4281 121.909 22.1575 120.925 21.8951C119.547 21.5342 118.342 21.2226 117.308 20.9602C116.275 20.6978 115.316 20.3862 114.43 20.0254C113.577 19.6645 112.897 19.1479 112.388 18.4755C111.88 17.8031 111.626 16.8436 111.626 15.5971C111.626 15.3675 111.691 14.9575 111.822 14.3671C111.954 13.7767 112.265 13.178 112.757 12.5712C113.249 11.9644 114.004 11.4232 115.02 10.9475C116.037 10.4719 117.431 10.2341 119.203 10.2341C120.416 10.2341 121.523 10.3653 122.524 10.6277C123.524 10.8901 124.385 11.3083 125.107 11.8824C125.829 12.4564 126.386 13.1862 126.78 14.0719C127.173 14.9575 127.37 16.04 127.37 17.3192ZM150.151 17.3192H151.135C151.135 14.4983 150.315 12.4482 148.675 11.1689C147.035 9.88967 144.804 9.25004 141.983 9.25004C140.409 9.25004 139.08 9.44685 137.998 9.84047C136.916 10.2341 136.03 10.7425 135.341 11.3657C134.652 11.989 134.16 12.6778 133.865 13.4322C133.57 14.1867 133.422 14.9083 133.422 15.5971C133.422 16.9748 133.668 18.0737 134.16 18.8937C134.652 19.7138 135.423 20.3534 136.473 20.8126C137.194 21.1406 138.014 21.4358 138.933 21.6982C139.851 21.9607 140.917 22.2395 142.131 22.5347C143.213 22.7971 144.28 23.0595 145.329 23.3219C146.379 23.5843 147.305 23.9369 148.109 24.3798C148.913 24.8226 149.569 25.3884 150.077 26.0773C150.586 26.7661 150.84 27.6681 150.84 28.7834C150.84 29.8658 150.586 30.7843 150.077 31.5387C149.569 32.2932 148.921 32.9082 148.134 33.3838C147.346 33.8594 146.469 34.2038 145.501 34.4171C144.534 34.6303 143.591 34.7369 142.672 34.7369C139.687 34.7369 137.399 34.0726 135.808 32.7442C134.218 31.4157 133.422 29.3246 133.422 26.4709H132.438C132.438 29.6526 133.299 31.9815 135.021 33.4576C136.743 34.9337 139.294 35.6717 142.672 35.6717C143.755 35.6717 144.845 35.5487 145.944 35.3027C147.043 35.0567 148.027 34.6549 148.896 34.0972C149.766 33.5396 150.471 32.818 151.012 31.9323C151.553 31.0467 151.824 29.9642 151.824 28.685C151.824 27.4713 151.586 26.4873 151.11 25.7328C150.635 24.9784 150.012 24.3552 149.241 23.8631C148.47 23.3711 147.601 22.9857 146.633 22.7069C145.665 22.4281 144.69 22.1575 143.705 21.8951C142.328 21.5342 141.122 21.2226 140.089 20.9602C139.056 20.6978 138.096 20.3862 137.211 20.0254C136.358 19.6645 135.677 19.1479 135.169 18.4755C134.66 17.8031 134.406 16.8436 134.406 15.5971C134.406 15.3675 134.472 14.9575 134.603 14.3671C134.734 13.7767 135.046 13.178 135.538 12.5712C136.03 11.9644 136.784 11.4232 137.801 10.9475C138.818 10.4719 140.212 10.2341 141.983 10.2341C143.197 10.2341 144.304 10.3653 145.305 10.6277C146.305 10.8901 147.166 11.3083 147.888 11.8824C148.609 12.4564 149.167 13.1862 149.561 14.0719C149.954 14.9575 150.151 16.04 150.151 17.3192Z" fill="#222222"/>
</g>
<defs>
<clipPath id="clip0_5235_3079">
<rect width="151.199" height="44.0012" fill="white" transform="translate(0.625)"/>
</clipPath>
</defs>
</svg>
