<svg width="105" height="44" viewBox="0 0 105 44" fill="none" xmlns="http://www.w3.org/2000/svg">
<path d="M62.3266 15.16C60.0463 15.16 58.3481 16.2796 58.3481 18.9742C58.3481 21.0044 59.4672 22.414 62.2037 22.414C64.523 22.414 66.0984 21.0472 66.0984 18.8903C66.0984 16.4458 64.6887 15.16 62.3266 15.16ZM57.7675 34.1867C57.228 34.8486 56.6903 35.5525 56.6903 36.3826C56.6903 38.0394 58.8029 38.538 61.7051 38.538C64.1091 38.538 67.3837 38.3695 67.3837 36.1345C67.3837 34.8058 65.8083 34.7239 63.8177 34.5991L57.7675 34.1867ZM70.0359 15.2852C70.7808 16.2386 71.5694 17.5654 71.5694 19.4718C71.5694 24.0723 67.9633 26.7659 62.7423 26.7659C61.4146 26.7659 60.2125 26.6006 59.4672 26.3935L58.099 28.5899L62.1604 28.838C69.3316 29.2952 73.5577 29.5028 73.5577 35.0129C73.5577 39.7806 69.3725 42.4732 62.1604 42.4732C54.6586 42.4732 51.7988 40.5668 51.7988 37.2927C51.7988 35.4273 52.628 34.4348 54.0786 33.0646C52.7104 32.4865 52.2551 31.4507 52.2551 30.331C52.2551 29.4185 52.7104 28.5899 53.4576 27.8017C54.2034 27.0154 55.032 26.2268 56.0269 25.3153C53.9962 24.3204 52.4622 22.165 52.4622 19.0975C52.4622 14.3318 55.6126 11.0586 61.9527 11.0586C63.7353 11.0586 64.8135 11.2224 65.7669 11.4729H73.8496V14.9947L70.0359 15.2852Z" fill="#2F2707"/>
<path d="M81.1407 7.75337C78.7776 7.75337 77.4103 6.38466 77.4103 4.02108C77.4103 1.66084 78.7776 0.375 81.1407 0.375C83.5447 0.375 84.9125 1.66084 84.9125 4.02108C84.9125 6.38466 83.5447 7.75337 81.1407 7.75337ZM75.793 32.6611V29.3884L77.9075 29.0993C78.488 29.0155 78.5704 28.8917 78.5704 28.2688V16.0833C78.5704 15.6285 78.4466 15.337 78.0308 15.2136L75.793 14.4255L76.2487 11.0694H84.8291V28.2688C84.8291 28.9331 84.8691 29.0155 85.4925 29.0993L87.6066 29.3884V32.6611H75.793Z" fill="#2F2707"/>
<path d="M103.996 31.0549C102.213 31.9245 99.6026 32.7122 97.2391 32.7122C92.3071 32.7122 90.4427 30.7249 90.4427 26.0392V15.1805C90.4427 14.9323 90.4426 14.7661 90.1098 14.7661H87.209V11.0772C90.8574 10.6619 92.3071 8.83791 92.7629 4.32031H96.7009V10.2076C96.7009 10.4967 96.7009 10.6219 97.0328 10.6219H102.876V14.7661H96.7009V24.6714C96.7009 27.1169 97.2819 28.0694 99.5188 28.0694C100.681 28.0694 101.881 27.7798 102.876 27.4069L103.996 31.0549Z" fill="#2F2707"/>
<path d="M42.5856 20.1784L23.6347 1.22881C22.5441 0.137271 20.7739 0.137271 19.6819 1.22881L15.7467 5.16397L20.7387 10.1559C21.8988 9.76396 23.2289 10.0268 24.1538 10.9517C25.0829 11.8823 25.3439 13.2238 24.9424 14.3878L29.7534 19.1987C30.9173 18.7977 32.2603 19.0573 33.1899 19.9883C34.4891 21.287 34.4891 23.392 33.1899 24.6917C31.8903 25.9913 29.7853 25.9913 28.4852 24.6917C27.5079 23.7135 27.2665 22.2781 27.7613 21.0742L23.2746 16.5875L23.2741 28.3944C23.5908 28.5516 23.8899 28.7607 24.1538 29.0235C25.4529 30.3222 25.4529 32.4272 24.1538 33.7278C22.8541 35.027 20.7482 35.027 19.4504 33.7278C18.1512 32.4272 18.1512 30.3222 19.4504 29.0235C19.7714 28.703 20.1429 28.4606 20.5391 28.2977V16.3808C20.1429 16.2189 19.7719 15.9779 19.4504 15.655C18.466 14.6721 18.2294 13.2276 18.7337 12.019L13.8132 7.0975L0.819012 20.0907C-0.273004 21.1832 -0.273004 22.9534 0.819012 24.0449L19.77 42.995C20.861 44.0865 22.6307 44.0865 23.7232 42.995L42.5856 24.133C43.6772 23.041 43.6772 21.2699 42.5856 20.1784Z" fill="#DE4C36"/>
</svg>
