<svg width="121" height="60" viewBox="0 0 121 60" fill="none" xmlns="http://www.w3.org/2000/svg">
<path d="M18.2234 42.5628C18.2234 42.5628 16.4564 43.6378 19.4534 43.9458C23.0534 44.4058 24.9834 44.3298 28.9774 43.5618C28.9774 43.5618 30.0524 44.2518 31.5124 44.7918C22.5254 48.6318 11.1584 44.5618 18.2244 42.5648L18.2234 42.5628ZM17.0714 37.5708C17.0714 37.5708 15.1514 39.0308 18.1464 39.3378C22.0634 39.7218 25.1464 39.7978 30.4364 38.7238C30.4364 38.7238 31.1264 39.4918 32.2794 39.8758C21.4494 43.1018 9.31337 40.1818 17.0714 37.5708ZM38.2714 46.3268C38.2714 46.3268 39.5774 47.4018 36.8114 48.2468C31.6654 49.7828 15.2284 50.2438 10.6194 48.2468C9.00637 47.5568 12.0794 46.5468 13.0774 46.4038C14.0774 46.1738 14.6134 46.1738 14.6134 46.1738C12.8474 44.9438 2.86137 48.7088 9.54337 49.7738C27.9004 52.7688 43.0314 48.4678 38.2694 46.3178L38.2714 46.3268ZM19.0674 32.3478C19.0674 32.3478 10.6954 34.3448 16.0714 35.0358C18.3754 35.3428 22.9074 35.2658 27.1314 34.9588C30.5874 34.6518 34.0444 34.0368 34.0444 34.0368C34.0444 34.0368 32.8144 34.5748 31.9704 35.1118C23.4444 37.3388 7.08437 36.3418 11.7704 34.0368C15.7644 32.1168 19.0674 32.3368 19.0674 32.3368V32.3478ZM34.0454 40.7198C42.6474 36.2648 38.6534 31.9638 35.8884 32.5018C35.1984 32.6558 34.8884 32.8088 34.8884 32.8088C34.8884 32.8088 35.1184 32.3488 35.6564 32.1948C41.1094 30.2748 45.4114 37.9548 33.8894 40.9508C33.8894 40.9508 33.9664 40.8738 34.0434 40.7208L34.0454 40.7198ZM19.9134 52.8548C28.2084 53.3928 40.8834 52.5478 41.1894 48.6308C41.1894 48.6308 40.5754 50.1668 34.3534 51.3188C27.2874 52.6248 18.5314 52.4708 13.3834 51.6258C13.3834 51.6258 14.4584 52.5468 19.9134 52.8548Z" fill="#4E7896"/>
<path d="M28.8227 7C28.8227 7 33.5847 11.84 24.2907 19.136C16.8407 25.05 22.5907 28.43 24.2907 32.27C19.9127 28.353 16.7637 24.897 18.9137 21.67C22.0637 16.908 30.7427 14.604 28.8227 7ZM26.3647 29.044C28.5917 31.579 25.7497 33.884 25.7497 33.884C25.7497 33.884 31.4337 30.964 28.8217 27.354C26.4417 23.898 24.5977 22.208 34.5817 16.447C34.5817 16.447 18.8357 20.364 26.3637 29.043L26.3647 29.044Z" fill="#F58219"/>
<path d="M75.5848 38.162V26.485C75.5848 23.505 73.9168 21.481 69.7468 21.481C67.3638 21.481 65.3368 22.077 63.5508 22.791L64.1468 24.936C65.4568 24.459 67.1268 23.983 68.9128 23.983C71.1768 23.983 72.2488 24.936 72.2488 26.843V28.393H71.0668C65.3468 28.393 62.7268 30.538 62.7268 33.993C62.7268 36.853 64.5138 38.521 67.7308 38.521C69.7568 38.521 71.3058 37.568 72.7348 36.376L72.9728 38.163H75.5928L75.5848 38.162ZM72.2468 34.35C71.0568 35.422 69.7448 36.018 68.5528 36.018C67.0028 36.018 66.0508 35.065 66.0508 33.398C66.0508 31.731 67.0038 30.538 70.8168 30.538H72.2468V34.351V34.35ZM86.7828 38.163H82.6128L77.6098 21.84H81.1848L84.2828 31.85L84.9978 34.83C86.5478 30.54 87.7378 26.132 88.2148 21.843H91.7888C90.8358 27.205 89.1688 33.043 86.7848 38.166L86.7828 38.163ZM106.085 38.163V26.485C106.085 23.505 104.417 21.481 100.245 21.481C97.8618 21.481 95.8368 22.077 94.0488 22.791L94.5258 24.936C95.9558 24.459 97.6238 23.983 99.4108 23.983C101.675 23.983 102.747 24.936 102.747 26.843V28.393H101.557C95.8368 28.393 93.2168 30.538 93.2168 33.993C93.2168 36.853 94.8848 38.521 98.1018 38.521C100.247 38.521 101.796 37.568 103.225 36.376L103.463 38.163H106.083H106.085ZM102.749 34.35C101.559 35.422 100.247 36.018 99.0548 36.018C97.5048 36.018 96.5528 35.065 96.5528 33.398C96.5528 31.731 97.5058 30.538 101.319 30.538H102.749V34.351V34.35ZM59.0208 40.903C58.0678 42.333 56.6378 43.405 54.8508 44.001L53.3008 42.095C54.4928 41.38 55.6838 40.308 56.1608 39.355C56.6378 38.521 56.7568 37.329 56.7568 34.589V16H60.3318V34.35C60.3318 38.044 59.9728 39.473 59.0208 40.903Z" fill="#4E7896"/>
</svg>
