<svg width="132" height="44" viewBox="0 0 132 44" fill="none" xmlns="http://www.w3.org/2000/svg">
<g clip-path="url(#clip0_5235_3052)">
<path d="M25.4143 11.7712L25.3705 0H18.8066L18.8504 11.7712L22.1323 16.2784L25.4143 11.7712Z" fill="white"/>
<path d="M18.8516 31.9447V43.7597H25.4154V31.9447L22.1335 27.4375L18.8516 31.9447Z" fill="white"/>
<path d="M25.4141 31.9441L32.328 41.4837L37.6229 37.6328L30.7089 28.0933L25.4141 26.3867V31.9441Z" fill="#00F2E6"/>
<path d="M18.8502 11.7719L11.8925 2.23242L6.59766 6.08323L13.5116 15.6227L18.8502 17.3294V11.7719Z" fill="#00F2E6"/>
<path d="M13.5122 15.6223L2.3098 11.9902L0.296875 18.204L11.4992 21.8798L16.7941 20.1295L13.5122 15.6223Z" fill="#00B9F1"/>
<path d="M27.4277 23.5855L30.7097 28.0927L41.912 31.7247L43.925 25.5109L32.7226 21.8789L27.4277 23.5855Z" fill="#00B9F1"/>
<path d="M32.7226 21.8798L43.925 18.204L41.912 11.9902L30.7097 15.6223L27.4277 20.1295L32.7226 21.8798Z" fill="#D63AFF"/>
<path d="M11.4992 21.8789L0.296875 25.5109L2.3098 31.7247L13.5122 28.0927L16.7941 23.5855L11.4992 21.8789Z" fill="#D63AFF"/>
<path d="M13.5116 28.0933L6.59766 37.6328L11.8925 41.4837L18.8502 31.9441V26.3867L13.5116 28.0933Z" fill="#FB015B"/>
<path d="M30.7089 15.6227L37.6229 6.08323L32.328 2.23242L25.4141 11.7719V17.3294L30.7089 15.6227Z" fill="#FB015B"/>
<path d="M68.431 11.1582V26.4739C68.431 29.8434 65.6741 32.6002 62.3047 32.6002V29.5371C64.0113 29.5371 65.3678 28.1805 65.3678 26.4739V11.1582H68.431ZM124.355 14.2213H131.269V11.1582H114.422V14.2213H121.292V32.6002H124.355V14.2213ZM105.189 11.1582V26.4739C105.189 28.1805 103.832 29.5371 102.126 29.5371C100.419 29.5371 99.0624 28.1805 99.0624 26.4739V17.2845C99.0624 13.915 96.3056 11.1582 92.9362 11.1582C89.5667 11.1582 86.8099 13.915 86.8099 17.2845V26.4739C86.8099 28.1805 85.4533 29.5371 83.7467 29.5371C82.0401 29.5371 80.6836 28.1805 80.6836 26.4739V11.1582H77.6204V26.4739C77.6204 29.8434 80.3773 32.6002 83.7467 32.6002C87.1162 32.6002 89.873 29.8434 89.873 26.4739V17.2845C89.873 15.5779 91.2295 14.2213 92.9362 14.2213C94.6428 14.2213 95.9993 15.5779 95.9993 17.2845V26.4739C95.9993 29.8434 98.7561 32.6002 102.126 32.6002C105.495 32.6002 108.252 29.8434 108.252 26.4739V11.1582H105.189Z" fill="black"/>
</g>
<defs>
<clipPath id="clip0_5235_3052">
<rect width="130.971" height="43.9982" fill="white" transform="translate(0.296875)"/>
</clipPath>
</defs>
</svg>
