<svg width="198" height="56" viewBox="0 0 198 56" fill="none" xmlns="http://www.w3.org/2000/svg">
<g clip-path="url(#clip0_5235_3074)">
<path fill-rule="evenodd" clip-rule="evenodd" d="M183.817 23.1908C183.64 23.2262 183.463 23.6157 183.463 23.8279C183.428 25.2437 183.393 28.9959 183.393 31.5442C183.393 31.6151 183.498 31.7565 183.605 31.7565C184.136 31.7919 185.41 31.8274 186.507 31.8274C188.029 31.8274 188.914 31.6151 189.41 31.4028C190.684 30.7656 191.286 29.385 191.286 27.8629C191.286 24.4297 188.879 23.1199 185.304 23.1199C185.056 23.0848 184.348 23.0848 183.817 23.1908ZM192.949 39.0128C192.949 35.5087 190.365 33.5617 185.693 33.5617C185.481 33.5617 183.994 33.5263 183.64 33.5972C183.534 33.6326 183.393 33.7035 183.393 33.8098C183.393 36.3227 183.357 40.3226 183.463 41.8798C183.534 42.5524 184.03 43.5081 184.631 43.7913C185.268 44.1453 186.72 44.2158 187.711 44.2158C190.507 44.2158 192.949 42.6587 192.949 39.0128ZM176.597 21.2441C176.95 21.2441 178.012 21.3501 180.738 21.3501C183.322 21.3501 185.375 21.2796 187.888 21.2796C190.967 21.2796 195.215 22.3767 195.215 26.978C195.215 29.2436 193.622 31.0488 191.533 31.9337C191.427 31.9691 191.427 32.0397 191.533 32.0751C194.507 32.8186 197.126 34.6592 197.126 38.1279C197.126 41.5261 195.002 43.685 191.923 45.0302C190.047 45.8442 187.711 46.1274 185.339 46.1274C183.534 46.1274 178.685 45.9151 175.995 45.986C175.712 45.8796 176.243 44.6053 176.49 44.393C177.127 44.3576 177.623 44.3221 178.295 44.1099C179.251 43.8621 179.357 43.579 179.499 42.1278C179.57 40.8889 179.57 36.4995 179.57 33.3849C179.57 29.1018 179.605 26.1995 179.57 24.7837C179.534 23.6865 179.145 23.3325 178.366 23.1199C177.765 23.0139 176.773 22.8722 175.959 22.7662C175.782 22.589 176.384 21.3856 176.597 21.2441ZM156.173 43.2604C157.023 43.9327 158.686 44.2158 160.173 44.2158C162.084 44.2158 163.995 43.8621 165.836 42.1983C167.712 40.4994 169.022 37.8802 169.022 33.7035C169.022 29.7036 167.5 26.4472 164.385 24.536C162.615 23.4385 160.35 22.9785 157.73 22.9785C156.952 22.9785 156.208 23.0139 155.748 23.2262C155.642 23.2971 155.394 23.6157 155.394 23.7925C155.323 24.5005 155.323 29.9513 155.323 33.1372C155.323 36.429 155.323 41.0303 155.394 41.5612C155.394 42.0924 155.642 42.9064 156.173 43.2604ZM148.138 21.2441C148.811 21.2441 151.394 21.3501 152.633 21.3501C154.863 21.3501 156.456 21.2441 160.668 21.2441C164.208 21.2441 167.181 22.1999 169.305 24.0048C171.889 26.2349 173.234 29.3145 173.234 33.0663C173.234 38.4111 170.791 41.4906 168.349 43.2604C165.907 45.0656 162.721 46.1274 158.191 46.1274C155.784 46.1274 151.642 46.0565 148.209 46.0211H148.173C147.997 45.7028 148.457 44.4639 148.74 44.4285C149.66 44.3221 149.908 44.2867 150.368 44.1099C151.111 43.8267 151.253 43.4373 151.359 42.1278C151.465 39.6854 151.43 36.7476 151.43 33.4203C151.43 31.0488 151.465 26.4117 151.394 24.9251C151.288 23.6865 150.758 23.3679 149.695 23.1553C149.165 23.0494 148.457 22.9076 147.466 22.8016C147.324 22.5536 147.961 21.4564 148.138 21.2441Z" fill="#8E714E"/>
<path fill-rule="evenodd" clip-rule="evenodd" d="M105.308 44.6419C104.423 44.5356 103.786 44.3942 103.007 44.0402C102.901 43.9693 102.724 43.6156 102.724 43.4739C102.653 42.2349 102.653 38.6954 102.653 36.3239C102.653 34.4123 102.335 32.7489 101.521 31.5808C100.565 30.2356 99.1845 29.457 97.4147 29.457C95.8573 29.457 93.7689 30.5191 92.0345 32.0057C91.9991 32.0408 91.716 32.2889 91.7514 31.8994C91.7514 31.51 91.8223 30.7314 91.8577 30.2005C91.8931 29.7047 91.61 29.457 91.61 29.457C90.477 30.0233 87.2915 30.7668 86.1235 30.8728C85.274 31.05 85.0617 31.864 85.9466 32.1471H85.9821C86.9375 32.4303 87.5747 32.7489 88.0701 33.0675C88.4241 33.3506 88.3887 33.7401 88.3887 34.0587C88.4241 36.7133 88.4241 40.7838 88.3181 43.0139C88.2827 43.8988 88.035 44.217 87.3978 44.3587L87.4684 44.3233C86.9729 44.4296 86.5835 44.5356 85.9817 44.6065C85.7694 44.8187 85.7694 45.9517 85.9817 46.1994C86.3712 46.1994 88.4241 46.0931 90.1234 46.0931C92.4594 46.0931 93.6629 46.1994 94.2646 46.1994C94.5124 45.9162 94.5832 44.8542 94.4415 44.6065C93.7689 44.571 93.2735 44.5005 92.8135 44.3587C92.1763 44.217 91.9991 43.8988 91.9637 43.1553C91.8931 41.2792 91.8931 37.3151 91.8931 34.625C91.8931 33.8815 92.1054 33.5275 92.3177 33.3152C93.1317 32.6075 94.4415 32.1117 95.6095 32.1117C96.7421 32.1117 97.4856 32.4657 98.0519 32.9261C98.8305 33.5629 99.0782 34.4832 99.1845 35.1558C99.3614 36.6779 99.2908 39.6866 99.2908 42.3058C99.2908 43.7216 99.1845 44.0756 98.6537 44.2524C98.4059 44.3587 97.7688 44.5005 97.0253 44.571C96.7776 44.8187 96.8484 45.9162 97.0253 46.164C98.0519 46.164 99.2554 46.0577 101.025 46.0577C103.22 46.0577 104.636 46.164 105.202 46.164C105.379 45.9517 105.45 44.925 105.308 44.6419H105.308ZM115.113 31.1208C113.237 31.1208 112.069 32.572 112.069 34.8372C112.069 37.1379 113.095 39.7926 115.998 39.7926C116.493 39.7926 117.414 39.5803 117.838 39.0848C118.511 38.4477 118.971 37.1733 118.971 35.8284C118.971 32.8906 117.519 31.1208 115.113 31.1208ZM114.865 46.7657C114.157 46.7657 113.661 46.978 113.343 47.1552C111.856 48.1106 111.184 49.0309 111.184 50.1284C111.184 51.1547 111.573 51.9687 112.423 52.6768C113.449 53.5617 114.865 53.9866 116.67 53.9866C120.28 53.9866 121.873 52.0396 121.873 50.1284C121.873 48.7832 121.201 47.8983 119.82 47.4029C118.829 46.978 117.024 46.7657 114.865 46.7657ZM115.113 55.9686C112.954 55.9686 111.396 55.5083 110.051 54.482C108.741 53.4908 108.175 52.0042 108.175 50.9779C108.175 50.6947 108.246 49.9158 108.883 49.2081C109.272 48.7832 110.122 47.9692 112.14 46.5889C112.21 46.5534 112.246 46.518 112.246 46.4471C112.246 46.3762 112.175 46.3054 112.104 46.2703C110.44 45.6331 109.945 44.6065 109.803 44.0402V43.9693C109.768 43.757 109.697 43.5447 110.016 43.3321C110.264 43.1553 110.618 42.943 111.007 42.6953C111.608 42.3413 112.246 41.9518 112.635 41.6332C112.706 41.5623 112.706 41.4918 112.706 41.4209C112.706 41.3501 112.635 41.2792 112.564 41.2441C110.087 40.4297 108.848 38.5891 108.848 35.8284C108.848 34.0232 109.662 32.3949 111.113 31.3686C112.104 30.5896 114.582 29.6342 116.21 29.6342H116.316C117.98 29.6693 118.9 30.0233 120.21 30.4837C120.918 30.7314 121.59 30.8374 122.511 30.8374C123.891 30.8374 124.493 30.4128 124.988 29.9174C125.024 29.9879 125.094 30.1651 125.13 30.6251C125.165 31.0854 125.024 31.7577 124.669 32.2534C124.386 32.6426 123.749 32.9261 123.112 32.9261H122.935C122.298 32.8552 122.015 32.7843 122.015 32.7843L121.873 32.8552C121.838 32.9261 121.873 32.9966 121.909 33.1029L121.944 33.1738C122.015 33.4924 122.157 34.4478 122.157 34.6958C122.157 37.5982 120.989 38.8722 119.75 39.828C118.546 40.7129 117.166 41.2792 115.608 41.4209C115.573 41.4209 115.431 41.4209 115.113 41.4564C114.936 41.4564 114.688 41.4918 114.653 41.4918H114.617C114.334 41.5623 113.626 41.9164 113.626 42.5181C113.626 43.049 113.945 43.6861 115.467 43.7924C115.785 43.8279 116.104 43.8279 116.458 43.8633C118.475 44.0047 120.989 44.1819 122.157 44.571C123.785 45.1728 124.811 46.624 124.811 48.3586C124.811 50.9779 122.935 53.4203 119.82 54.942C118.298 55.6146 116.776 55.9686 115.113 55.9686ZM135.289 31.2977C134.545 31.2977 133.872 31.4745 133.377 31.8285C131.997 32.678 131.289 34.3772 131.289 36.8547C131.289 41.4918 133.625 44.7482 136.952 44.7482C137.943 44.7482 138.722 44.4651 139.394 43.8988C140.421 43.049 140.952 41.3501 140.952 38.9785C140.952 34.3772 138.651 31.2977 135.289 31.2977ZM135.926 46.4471C129.908 46.4471 127.749 42.0227 127.749 37.8814C127.749 34.979 128.917 32.7489 131.253 31.1559C132.917 30.1296 134.899 29.5633 136.669 29.5633C141.27 29.5633 144.491 32.8552 144.491 37.5982C144.491 40.8192 143.217 43.3676 140.775 44.9251C139.607 45.7036 137.589 46.4471 135.925 46.4471H135.926ZM72.8501 31.2977C72.1066 31.2977 71.4344 31.4745 70.9386 31.8285C69.5583 32.678 68.8502 34.3772 68.8502 36.8547C68.8502 41.4918 71.1863 44.7482 74.5136 44.7482C75.5048 44.7482 76.2834 44.4651 76.956 43.8988C77.9823 43.049 78.5135 41.3501 78.5135 38.9785C78.5135 34.3772 76.2479 31.2977 72.8501 31.2977ZM73.4873 46.4471C67.4699 46.4471 65.3107 42.0227 65.3107 37.8814C65.3107 34.979 66.4787 32.7489 68.8148 31.1559C70.4786 30.1296 72.4607 29.5633 74.2304 29.5633C78.8321 29.5633 82.053 32.8552 82.053 37.5982C82.053 40.8192 80.7787 43.3676 78.3363 44.9251C77.2037 45.7036 75.1862 46.4471 73.4873 46.4471ZM33.0298 46.0931C32.9589 45.9871 32.888 45.6685 32.9234 45.2791C32.9234 44.9959 32.9943 44.8187 33.0298 44.7482C33.7729 44.6419 34.1624 44.5356 34.5869 44.4296C35.295 44.2524 35.5781 43.8633 35.6136 42.9784C35.7199 40.8546 35.7199 36.8193 35.6844 34.0232V33.9524C35.6844 33.6338 35.6844 33.2443 35.295 32.9612C34.7287 32.6075 34.0561 32.2889 33.1712 32.0408C32.8526 31.9349 32.6403 31.7577 32.6757 31.5454C32.6757 31.3331 32.888 31.0854 33.3483 31.0145C34.5164 30.9082 37.5602 30.1651 38.7636 29.6342C38.8345 29.7047 38.9408 29.9174 38.9408 30.2005L38.9054 30.5896C38.87 30.9791 38.8345 31.4394 38.8345 31.8994C38.8345 32.0408 38.9763 32.1471 39.1177 32.1471C39.1885 32.1471 39.2594 32.1117 39.3303 32.0763C41.5955 30.3065 43.6484 29.6693 44.7102 29.6693C46.4448 29.6693 47.7897 30.4837 48.8164 32.1826C48.8869 32.2889 48.9578 32.324 49.0641 32.324C49.1349 32.324 49.2409 32.2889 49.2764 32.218C51.3647 30.6251 53.4531 29.6693 54.8334 29.6693C58.1253 29.6693 60.0722 32.1117 60.0722 36.253C60.0722 37.421 60.0722 38.9431 60.0368 40.3238C60.0368 41.5623 60.0013 42.6953 60.0013 43.5093C60.0013 43.6861 60.2491 44.2524 60.6385 44.3587C61.1339 44.6065 61.8066 44.7128 62.6914 44.8542H62.7269C62.7977 45.1019 62.656 46.0222 62.5146 46.1994C62.302 46.1994 61.9834 46.1994 61.6297 46.164C60.9571 46.1285 60.0013 46.0931 58.9396 46.0931C56.7449 46.0931 55.6123 46.1285 54.5148 46.1994C54.4443 45.9162 54.4088 45.0668 54.5148 44.8542C55.152 44.7482 55.4706 44.6419 55.86 44.5356C56.5681 44.3233 56.7449 44.0047 56.7804 43.0844C56.7804 42.4121 56.9218 36.6779 56.7095 35.2972C56.4972 33.8815 55.4351 32.218 53.0991 32.218C52.2142 32.218 50.8339 32.572 49.4886 33.5983C49.4181 33.6692 49.3472 33.846 49.3472 33.9524V33.9878C49.4886 34.7309 49.4886 35.5807 49.4886 36.8902V39.1908C49.4886 40.7838 49.4532 42.2704 49.4886 43.403C49.4886 44.1819 49.949 44.3587 50.3384 44.5005C50.5507 44.5356 50.6921 44.571 50.8693 44.6065C51.1879 44.6773 51.5065 44.7482 52.0019 44.8542C52.0728 44.9959 52.0728 45.4559 51.9665 45.8454C51.931 46.0577 51.8602 46.164 51.825 46.1994C50.6216 46.164 49.3827 46.1285 47.5774 46.1285C47.0466 46.1285 46.1263 46.164 45.3473 46.164C44.7102 46.164 44.1084 46.1994 43.7547 46.1994C43.7193 46.1285 43.6484 45.8808 43.6484 45.4914C43.6484 45.1728 43.7193 44.9251 43.7902 44.8542C43.967 44.8187 44.1084 44.7836 44.2856 44.7836C44.7102 44.7128 45.0642 44.6419 45.4182 44.571C46.0199 44.3942 46.2322 44.0756 46.2677 43.297C46.374 41.5272 46.4799 36.4656 46.2322 35.1913C45.8077 33.1383 44.6396 32.1117 42.7635 32.1117C41.6664 32.1117 40.2857 32.6426 39.1531 33.4924C38.9763 33.6338 38.8345 33.9878 38.8345 34.3064V36.3947C38.8345 38.9431 38.8345 42.129 38.87 43.5093C38.9054 43.9339 39.0468 44.4296 39.8612 44.6065C40.038 44.6419 40.3212 44.7128 40.6752 44.7482L41.3123 44.8542C41.3832 45.0668 41.3478 45.9162 41.206 46.1994C40.852 46.1994 40.4275 46.164 39.9317 46.164C39.1885 46.1285 38.2328 46.0931 37.171 46.0931C35.9321 46.0931 35.0472 46.1285 34.3392 46.164C33.8438 46.0931 33.4543 46.0931 33.0298 46.0931Z" fill="#442D22"/>
<path fill-rule="evenodd" clip-rule="evenodd" d="M14.4122 54.5885L12.961 54.0928C12.961 54.0928 13.1382 46.695 10.4835 46.1642C8.71372 44.1112 10.7666 -40.9097 17.1377 45.881C17.1377 45.881 14.9434 46.9782 14.5539 48.8543C14.129 50.6949 14.4122 54.5885 14.4122 54.5885Z" fill="white"/>
<path fill-rule="evenodd" clip-rule="evenodd" d="M14.4122 54.5885L12.961 54.0928C12.961 54.0928 13.1382 46.695 10.4835 46.1642C8.71372 44.1112 10.7666 -40.9097 17.1377 45.881C17.1377 45.881 14.9434 46.9782 14.5539 48.8543C14.129 50.6949 14.4122 54.5885 14.4122 54.5885Z" fill="#A6A385"/>
<path fill-rule="evenodd" clip-rule="evenodd" d="M15.191 47.4368C15.191 47.4368 27.8981 39.0834 24.9248 21.7038C22.0579 9.06765 15.297 4.92635 14.5539 3.33342C13.7399 2.20081 12.9609 0.21875 12.9609 0.21875L13.4921 35.3666C13.4921 35.4021 12.3946 46.127 15.191 47.4368Z" fill="white"/>
<path fill-rule="evenodd" clip-rule="evenodd" d="M15.191 47.4368C15.191 47.4368 27.8981 39.0834 24.9248 21.7038C22.0579 9.06765 15.297 4.92635 14.5539 3.33342C13.7399 2.20081 12.9609 0.21875 12.9609 0.21875L13.4921 35.3666C13.4921 35.4021 12.3946 46.127 15.191 47.4368Z" fill="#499D4A"/>
<path fill-rule="evenodd" clip-rule="evenodd" d="M12.2175 47.8979C12.2175 47.8979 0.289071 39.7568 0.997115 25.4217C1.66939 11.0863 10.0937 4.04258 11.7218 2.76823C12.7838 1.63562 12.8193 1.21073 12.8901 0.078125C13.6333 1.67106 13.4919 23.8996 13.5979 26.5188C13.9164 36.6066 13.0315 45.9867 12.2175 47.8979Z" fill="white"/>
<path fill-rule="evenodd" clip-rule="evenodd" d="M12.2175 47.8979C12.2175 47.8979 0.289071 39.7568 0.997115 25.4217C1.66939 11.0863 10.0937 4.04258 11.7218 2.76823C12.7838 1.63562 12.8193 1.21073 12.8901 0.078125C13.6333 1.67106 13.4919 23.8996 13.5979 26.5188C13.9164 36.6066 13.0315 45.9867 12.2175 47.8979Z" fill="#58AA50"/>
</g>
<defs>
<clipPath id="clip0_5235_3074">
<rect width="196.385" height="56.0003" fill="white" transform="translate(0.966797)"/>
</clipPath>
</defs>
</svg>
