<svg width="92" height="56" viewBox="0 0 92 56" fill="none" xmlns="http://www.w3.org/2000/svg">
<g clip-path="url(#clip0_5235_3061)">
<path d="M45.153 55.8387C44.8438 55.8387 44.5552 55.7563 44.2872 55.612L41.5458 53.9836C41.1336 53.7569 41.3397 53.6744 41.4634 53.6332C42.0199 53.4477 42.123 53.4065 42.7001 53.0767C42.7619 53.0355 42.8444 53.0561 42.9062 53.0973L45.0087 54.3547C45.0911 54.3959 45.1942 54.3959 45.256 54.3547L53.4803 49.5932C53.5627 49.552 53.604 49.4696 53.604 49.3665V39.8643C53.604 39.7612 53.5627 39.6788 53.4803 39.6375L45.256 34.8967C45.1736 34.8555 45.0705 34.8555 45.0087 34.8967L36.7844 39.6375C36.702 39.6788 36.6607 39.7818 36.6607 39.8643V49.3665C36.6607 49.4489 36.702 49.552 36.7844 49.5932L39.0311 50.8918C40.2473 51.5102 41.0099 50.7887 41.0099 50.0673V40.6888C41.0099 40.5651 41.113 40.4414 41.2573 40.4414H42.3085C42.4322 40.4414 42.5558 40.5445 42.5558 40.6888V50.0673C42.5558 51.6957 41.6695 52.6438 40.1236 52.6438C39.6495 52.6438 39.2785 52.6438 38.2273 52.1285L36.063 50.8918C35.5271 50.5826 35.1973 50.0055 35.1973 49.3871V39.8849C35.1973 39.2665 35.5271 38.6894 36.063 38.3802L44.2872 33.6188C44.8026 33.3302 45.5034 33.3302 46.0187 33.6188L54.2429 38.3802C54.7789 38.6894 55.1087 39.2665 55.1087 39.8849V49.3871C55.1087 50.0055 54.7789 50.5826 54.2429 50.8918L46.0187 55.6532C45.7507 55.7769 45.4415 55.8387 45.153 55.8387ZM47.6883 49.3047C44.0811 49.3047 43.3391 47.6557 43.3391 46.2541C43.3391 46.1304 43.4421 46.0067 43.5864 46.0067H44.6583C44.7819 46.0067 44.885 46.0892 44.885 46.2128C45.0499 47.3053 45.524 47.8412 47.7089 47.8412C49.4403 47.8412 50.1823 47.4496 50.1823 46.522C50.1823 45.9861 49.9762 45.5945 47.276 45.3265C45.0293 45.0998 43.6277 44.6051 43.6277 42.8118C43.6277 41.1422 45.0293 40.1528 47.3791 40.1528C50.0174 40.1528 51.316 41.0598 51.4809 43.0386C51.4809 43.1004 51.4603 43.1622 51.4191 43.2241C51.3778 43.2653 51.316 43.3065 51.2542 43.3065H50.1823C50.0793 43.3065 49.9762 43.2241 49.9556 43.121C49.7083 41.9873 49.0693 41.6163 47.3791 41.6163C45.4828 41.6163 45.256 42.2759 45.256 42.7706C45.256 43.3683 45.524 43.5539 48.0799 43.8837C50.6152 44.2134 51.8107 44.6875 51.8107 46.4602C51.7901 48.2741 50.306 49.3047 47.6883 49.3047Z" fill="#539E43"/>
<path d="M19.6343 18.6743C19.6343 18.3033 19.4282 17.9529 19.0984 17.7674L10.3588 12.738C10.2146 12.6556 10.0497 12.6144 9.88476 12.5938H9.80231C9.63741 12.5938 9.47251 12.6556 9.32823 12.738L0.588652 17.7674C0.258856 17.9529 0.0527344 18.3033 0.0527344 18.6743L0.0733466 32.196C0.0733466 32.3815 0.176408 32.567 0.341305 32.6494C0.506203 32.7525 0.712325 32.7525 0.85661 32.6494L6.05089 29.6813C6.38068 29.4958 6.5868 29.1454 6.5868 28.7743V22.4464C6.5868 22.0754 6.79293 21.725 7.12272 21.5394L9.32823 20.2615C9.49312 20.1584 9.67863 20.1172 9.86414 20.1172C10.0497 20.1172 10.2352 20.1584 10.3794 20.2615L12.585 21.5394C12.9148 21.725 13.1209 22.0754 13.1209 22.4464V28.7743C13.1209 29.1454 13.327 29.4958 13.6568 29.6813L18.8511 32.6494C19.016 32.7525 19.2221 32.7525 19.387 32.6494C19.5519 32.567 19.6549 32.3815 19.6549 32.196L19.6343 18.6743Z" fill="#333333"/>
<path d="M61.6424 0.0618366C61.4775 -0.0206122 61.2714 -0.0206122 61.1271 0.0618366C60.9622 0.164898 60.8592 0.329795 60.8592 0.515305V13.9132C60.8592 14.0369 60.7973 14.1606 60.6736 14.243C60.55 14.3049 60.4263 14.3049 60.3026 14.243L58.1177 12.9857C57.7879 12.8002 57.3963 12.8002 57.0665 12.9857L48.3269 18.0357C47.9971 18.2212 47.791 18.5716 47.791 18.9426V29.022C47.791 29.393 47.9971 29.7434 48.3269 29.9289L57.0665 34.9789C57.3963 35.1644 57.7879 35.1644 58.1177 34.9789L66.8573 29.9289C67.1871 29.7434 67.3932 29.393 67.3932 29.022V3.89571C67.3932 3.50407 67.1871 3.15367 66.8573 2.96816L61.6424 0.0618366ZM60.8385 25.7034C60.8385 25.8065 60.7973 25.8889 60.7149 25.9302L57.7261 27.6616C57.6436 27.7028 57.5406 27.7028 57.4581 27.6616L54.4694 25.9302C54.3869 25.8889 54.3457 25.7859 54.3457 25.7034V22.2406C54.3457 22.1375 54.3869 22.0551 54.4694 22.0138L57.4581 20.2824C57.5406 20.2412 57.6436 20.2412 57.7261 20.2824L60.7149 22.0138C60.7973 22.0551 60.8385 22.1581 60.8385 22.2406V25.7034Z" fill="#333333"/>
<path d="M90.7271 22.1579C91.0569 21.9724 91.2424 21.622 91.2424 21.251V18.7981C91.2424 18.4271 91.0363 18.0767 90.7271 17.8912L82.0494 12.8618C81.7196 12.6763 81.3279 12.6763 80.9981 12.8618L72.2586 17.9118C71.9288 18.0973 71.7227 18.4477 71.7227 18.8187V28.8981C71.7227 29.2691 71.9288 29.6195 72.2586 29.805L80.9363 34.752C81.2661 34.9375 81.6577 34.9375 81.9669 34.752L87.223 31.825C87.3879 31.7426 87.491 31.5571 87.491 31.3716C87.491 31.186 87.3879 31.0005 87.223 30.9181L78.4422 25.8681C78.2773 25.765 78.1743 25.6001 78.1743 25.4146V22.261C78.1743 22.0754 78.2773 21.8899 78.4422 21.8075L81.1837 20.241C81.3486 20.1379 81.5547 20.1379 81.7196 20.241L84.461 21.8075C84.6259 21.9105 84.729 22.0754 84.729 22.261V24.7344C84.729 24.9199 84.832 25.1054 84.9969 25.1879C85.1618 25.2909 85.3679 25.2909 85.5328 25.1879L90.7271 22.1579Z" fill="#333333"/>
<path d="M81.3898 21.6833C81.4517 21.642 81.5341 21.642 81.596 21.6833L83.2655 22.652C83.3274 22.6933 83.3686 22.7551 83.3686 22.8375V24.7751C83.3686 24.8575 83.3274 24.9194 83.2655 24.9606L81.596 25.9294C81.5341 25.9706 81.4517 25.9706 81.3898 25.9294L79.7202 24.9606C79.6584 24.9194 79.6172 24.8575 79.6172 24.7751V22.8375C79.6172 22.7551 79.6584 22.6933 79.7202 22.652L81.3898 21.6833Z" fill="#539E43"/>
<mask id="mask0_5235_3061" style="mask-type:alpha" maskUnits="userSpaceOnUse" x="24" y="12" width="20" height="23">
<path d="M34.2482 12.9048C33.9184 12.7192 33.5267 12.7192 33.197 12.9048L24.5192 17.9135C24.1894 18.099 24.0039 18.4494 24.0039 18.8205V28.8586C24.0039 29.2296 24.21 29.58 24.5192 29.7655L33.197 34.7743C33.5267 34.9598 33.9184 34.9598 34.2482 34.7743L42.9259 29.7655C43.2557 29.58 43.4412 29.2296 43.4412 28.8586V18.8205C43.4412 18.4494 43.2351 18.099 42.9259 17.9135L34.2482 12.9048Z" fill="white"/>
</mask>
<g mask="url(#mask0_5235_3061)">
<path d="M34.2482 12.9048C33.9184 12.7192 33.5267 12.7192 33.197 12.9048L24.5192 17.9135C24.1894 18.099 24.0039 18.4494 24.0039 18.8205V28.8586C24.0039 29.2296 24.21 29.58 24.5192 29.7655L33.197 34.7743C33.5267 34.9598 33.9184 34.9598 34.2482 34.7743L42.9259 29.7655C43.2557 29.58 43.4412 29.2296 43.4412 28.8586V18.8205C43.4412 18.4494 43.2351 18.099 42.9259 17.9135L34.2482 12.9048Z" fill="url(#paint0_linear_5235_3061)"/>
<path d="M42.9446 17.9126L34.2256 12.9038C34.1432 12.8626 34.0401 12.8214 33.9577 12.8008L24.1875 29.5379C24.2699 29.641 24.373 29.7234 24.4761 29.7852L33.195 34.794C33.4424 34.9383 33.731 34.9795 33.9989 34.8971L43.1713 18.1187C43.1095 18.0363 43.0271 17.9744 42.9446 17.9126Z" fill="url(#paint1_linear_5235_3061)"/>
<path fill-rule="evenodd" clip-rule="evenodd" d="M42.9655 29.7649C43.2128 29.6206 43.3984 29.3733 43.4808 29.1053L33.9167 12.7805C33.6694 12.7393 33.4014 12.7599 33.1747 12.9041L24.5176 17.8923L33.8549 34.918C33.9786 34.8974 34.1229 34.8561 34.2465 34.7943L42.9655 29.7649Z" fill="url(#paint2_linear_5235_3061)"/>
<path fill-rule="evenodd" clip-rule="evenodd" d="M42.965 29.7661L34.2666 34.7749C34.143 34.8367 34.0193 34.878 33.875 34.8986L34.0399 35.2078L43.6864 29.6219V29.4982L43.4391 29.0859C43.3978 29.3745 43.2123 29.6219 42.965 29.7661Z" fill="url(#paint3_linear_5235_3061)"/>
<path fill-rule="evenodd" clip-rule="evenodd" d="M42.965 29.7661L34.2666 34.7749C34.143 34.8367 34.0193 34.878 33.875 34.8986L34.0399 35.2078L43.6864 29.6219V29.4982L43.4391 29.0859C43.3978 29.3745 43.2123 29.6219 42.965 29.7661Z" fill="url(#paint4_linear_5235_3061)"/>
</g>
</g>
<defs>
<linearGradient id="paint0_linear_5235_3061" x1="37.2579" y1="16.6386" x2="27.7459" y2="31.5841" gradientUnits="userSpaceOnUse">
<stop stop-color="#41873F"/>
<stop offset="0.3288" stop-color="#418B3D"/>
<stop offset="0.6352" stop-color="#419637"/>
<stop offset="0.9319" stop-color="#3FA92D"/>
<stop offset="1" stop-color="#3FAE2A"/>
</linearGradient>
<linearGradient id="paint1_linear_5235_3061" x1="32.4031" y1="25.0142" x2="56.2243" y2="12.0722" gradientUnits="userSpaceOnUse">
<stop offset="0.1376" stop-color="#41873F"/>
<stop offset="0.4032" stop-color="#54A044"/>
<stop offset="0.7136" stop-color="#66B848"/>
<stop offset="0.9081" stop-color="#6CC04A"/>
</linearGradient>
<linearGradient id="paint2_linear_5235_3061" x1="23.6853" y1="23.8392" x2="43.7651" y2="23.8392" gradientUnits="userSpaceOnUse">
<stop offset="0.0919165" stop-color="#6CC04A"/>
<stop offset="0.2864" stop-color="#66B848"/>
<stop offset="0.5968" stop-color="#54A044"/>
<stop offset="0.8624" stop-color="#41873F"/>
</linearGradient>
<linearGradient id="paint3_linear_5235_3061" x1="23.6848" y1="32.1637" x2="43.7646" y2="32.1637" gradientUnits="userSpaceOnUse">
<stop offset="0.0919165" stop-color="#6CC04A"/>
<stop offset="0.2864" stop-color="#66B848"/>
<stop offset="0.5968" stop-color="#54A044"/>
<stop offset="0.8624" stop-color="#41873F"/>
</linearGradient>
<linearGradient id="paint4_linear_5235_3061" x1="46.69" y1="16.1646" x2="41.603" y2="42.8204" gradientUnits="userSpaceOnUse">
<stop stop-color="#41873F"/>
<stop offset="0.3288" stop-color="#418B3D"/>
<stop offset="0.6352" stop-color="#419637"/>
<stop offset="0.9319" stop-color="#3FA92D"/>
<stop offset="1" stop-color="#3FAE2A"/>
</linearGradient>
<clipPath id="clip0_5235_3061">
<rect width="91.3121" height="56" fill="white" transform="translate(0.0117188)"/>
</clipPath>
</defs>
</svg>
