<svg width="231" height="959" viewBox="0 0 231 959" fill="none" xmlns="http://www.w3.org/2000/svg">
<path d="M0 0H231V959H0V0Z" fill="white"/>
<g clip-path="url(#clip0_4663_1660)">
<path d="M113.147 541.596L54.803 612.096L2.8724 722.285L-49.0582 832.474L38.8901 1062.59L57.1467 1054.05L78.5955 1045.51L71.8582 885.111L103.034 803.736L113.147 541.596Z" fill="url(#paint0_linear_4663_1660)"/>
<path d="M114.09 534L5.72397 828.456L78.6591 1044.7L38.4221 1062.74L-53.2695 829.704L-10.0061 652.244L114.09 534Z" fill="url(#paint1_linear_4663_1660)"/>
<path d="M172.83 719.396L218.309 758.534L264.795 820.516L311.281 882.498L285.316 1016L272.796 1011.49L258.278 1007.04L242.19 915.116L212.356 869.194L172.83 719.396Z" fill="url(#paint2_linear_4663_1660)"/>
<path d="M171.285 715.07L276.458 881.332L258.142 1006.58L285.635 1016.07L313.576 880.828L264.003 780.171L171.285 715.07Z" fill="url(#paint3_linear_4663_1660)"/>
<path d="M128.311 598.186L192.107 653.087L257.315 740.033L322.523 826.979L286.1 1014.24L268.538 1007.92L248.172 1001.68L225.606 872.734L183.756 808.316L128.311 598.186Z" fill="url(#paint4_linear_4663_1660)"/>
<path d="M126.145 592.12L273.676 825.344L247.983 1001.04L286.549 1014.35L325.743 824.637L256.204 683.441L126.145 592.12Z" fill="url(#paint5_linear_4663_1660)"/>
<path d="M118.921 734.101L96.9132 788.521L84.5235 863.538L72.1339 938.556L156.355 1045.01L165.293 1035.55L176.021 1025.29L147.904 937.135L153.031 883.569L118.921 734.101Z" fill="url(#paint6_linear_4663_1660)"/>
<path d="M118.293 729.606L102.23 922.301L175.929 1024.82L156.112 1045.21L69.3489 938.083L66.6719 827.588L118.293 729.606Z" fill="url(#paint7_linear_4663_1660)"/>
<path d="M77.1942 707.937L66.7328 796.153L58.4406 847.468L62.8874 866.734L117.47 993.506L124.316 986.264L132.534 978.4L110.997 910.878L114.924 869.849L77.1942 707.937Z" fill="url(#paint8_linear_4663_1660)"/>
<path d="M76.9062 707.805L60.9789 854.047L76.0166 899.518L132.468 978.042L117.288 993.666L23.9817 941.674L24.7108 840.848L45.6697 767.293L76.9062 707.805Z" fill="url(#paint9_linear_4663_1660)"/>
<path d="M139.746 743.927L185.225 783.065L231.71 845.047L278.196 907.029L251.887 1043.82L125.103 995.396L107.637 929.359L127.572 858.78L139.746 743.927Z" fill="url(#paint10_linear_4663_1660)"/>
<path d="M137.566 742.769L130.568 931.594L224.423 1034.28L251.916 1043.77L279.857 908.527L185.48 782.169L137.566 742.769Z" fill="url(#paint11_linear_4663_1660)"/>
</g>
<defs>
<linearGradient id="paint0_linear_4663_1660" x1="316.034" y1="1034.58" x2="-121.216" y2="1068.19" gradientUnits="userSpaceOnUse">
<stop stop-color="#BBCFF8"/>
<stop offset="1" stop-color="#0063F7"/>
</linearGradient>
<linearGradient id="paint1_linear_4663_1660" x1="-56.2139" y1="496.032" x2="-240.372" y2="901.203" gradientUnits="userSpaceOnUse">
<stop stop-color="#BBCFF8"/>
<stop offset="1" stop-color="#0063F7"/>
</linearGradient>
<linearGradient id="paint2_linear_4663_1660" x1="108.137" y1="1005.69" x2="379.858" y2="968.542" gradientUnits="userSpaceOnUse">
<stop stop-color="#BBCFF8"/>
<stop offset="1" stop-color="#0063F7"/>
</linearGradient>
<linearGradient id="paint3_linear_4663_1660" x1="273.174" y1="689.826" x2="396.307" y2="939.364" gradientUnits="userSpaceOnUse">
<stop stop-color="#BBCFF8"/>
<stop offset="1" stop-color="#0063F7"/>
</linearGradient>
<linearGradient id="paint4_linear_4663_1660" x1="37.5626" y1="999.787" x2="418.719" y2="947.676" gradientUnits="userSpaceOnUse">
<stop stop-color="#BBCFF8"/>
<stop offset="1" stop-color="#0063F7"/>
</linearGradient>
<linearGradient id="paint5_linear_4663_1660" x1="269.07" y1="556.708" x2="441.794" y2="906.748" gradientUnits="userSpaceOnUse">
<stop stop-color="#BBCFF8"/>
<stop offset="1" stop-color="#0063F7"/>
</linearGradient>
<linearGradient id="paint6_linear_4663_1660" x1="307.462" y1="958.456" x2="53.378" y2="1050.02" gradientUnits="userSpaceOnUse">
<stop stop-color="#BBCFF8"/>
<stop offset="1" stop-color="#0063F7"/>
</linearGradient>
<linearGradient id="paint7_linear_4663_1660" x1="17.0641" y1="751.873" x2="17.4959" y2="1025.91" gradientUnits="userSpaceOnUse">
<stop stop-color="#BBCFF8"/>
<stop offset="1" stop-color="#0063F7"/>
</linearGradient>
<linearGradient id="paint8_linear_4663_1660" x1="255.434" y1="916.227" x2="24.4915" y2="1003.94" gradientUnits="userSpaceOnUse">
<stop stop-color="#BBCFF8"/>
<stop offset="1" stop-color="#0063F7"/>
</linearGradient>
<linearGradient id="paint9_linear_4663_1660" x1="-17.3442" y1="729.157" x2="-15.4211" y2="985.039" gradientUnits="userSpaceOnUse">
<stop stop-color="#BBCFF8"/>
<stop offset="1" stop-color="#0063F7"/>
</linearGradient>
<linearGradient id="paint10_linear_4663_1660" x1="66.1488" y1="1047.87" x2="345.896" y2="1017.91" gradientUnits="userSpaceOnUse">
<stop stop-color="#BBCFF8"/>
<stop offset="1" stop-color="#0063F7"/>
</linearGradient>
<linearGradient id="paint11_linear_4663_1660" x1="239.455" y1="717.525" x2="362.588" y2="967.063" gradientUnits="userSpaceOnUse">
<stop stop-color="#BBCFF8"/>
<stop offset="1" stop-color="#0063F7"/>
</linearGradient>
<clipPath id="clip0_4663_1660">
<rect width="231" height="425" fill="white" transform="translate(0 534)"/>
</clipPath>
</defs>
</svg>
