<svg width="32" height="32" viewBox="0 0 32 32" fill="none" xmlns="http://www.w3.org/2000/svg">
<path opacity="0.4" d="M15.9993 25.3333C21.154 25.3333 25.3327 21.1546 25.3327 16C25.3327 10.8453 21.154 6.66663 15.9993 6.66663C10.8447 6.66663 6.66602 10.8453 6.66602 16C6.66602 21.1546 10.8447 25.3333 15.9993 25.3333Z" fill="white"/>
<path d="M16.0007 30.6134C15.2673 30.6134 14.6673 30.0667 14.6673 29.3334V29.2267C14.6673 28.4934 15.2673 27.8934 16.0007 27.8934C16.734 27.8934 17.334 28.4934 17.334 29.2267C17.334 29.96 16.734 30.6134 16.0007 30.6134ZM25.5207 26.8534C25.174 26.8534 24.8407 26.72 24.574 26.4667L24.4007 26.2934C23.8807 25.7734 23.8807 24.9334 24.4007 24.4134C24.9207 23.8934 25.7607 23.8934 26.2807 24.4134L26.454 24.5867C26.974 25.1067 26.974 25.9467 26.454 26.4667C26.2007 26.72 25.8673 26.8534 25.5207 26.8534ZM6.48065 26.8534C6.13398 26.8534 5.80065 26.72 5.53398 26.4667C5.01398 25.9467 5.01398 25.1067 5.53398 24.5867L5.70732 24.4134C6.22732 23.8934 7.06732 23.8934 7.58732 24.4134C8.10732 24.9334 8.10732 25.7734 7.58732 26.2934L7.41398 26.4667C7.16065 26.72 6.81398 26.8534 6.48065 26.8534ZM29.334 17.3334H29.2273C28.494 17.3334 27.894 16.7334 27.894 16C27.894 15.2667 28.494 14.6667 29.2273 14.6667C29.9607 14.6667 30.614 15.2667 30.614 16C30.614 16.7334 30.0673 17.3334 29.334 17.3334ZM2.77398 17.3334H2.66732C1.93398 17.3334 1.33398 16.7334 1.33398 16C1.33398 15.2667 1.93398 14.6667 2.66732 14.6667C3.40065 14.6667 4.05398 15.2667 4.05398 16C4.05398 16.7334 3.50732 17.3334 2.77398 17.3334ZM25.3473 7.98671C25.0007 7.98671 24.6673 7.85337 24.4007 7.60004C23.8807 7.08004 23.8807 6.24004 24.4007 5.72004L24.574 5.54671C25.094 5.02671 25.934 5.02671 26.454 5.54671C26.974 6.06671 26.974 6.90671 26.454 7.42671L26.2807 7.60004C26.0273 7.85337 25.694 7.98671 25.3473 7.98671ZM6.65398 7.98671C6.30732 7.98671 5.97398 7.85337 5.70732 7.60004L5.53398 7.41337C5.01398 6.89337 5.01398 6.05337 5.53398 5.53337C6.05398 5.01337 6.89398 5.01337 7.41398 5.53337L7.58732 5.70671C8.10732 6.22671 8.10732 7.06671 7.58732 7.58671C7.33398 7.85337 6.98732 7.98671 6.65398 7.98671ZM16.0007 4.05337C15.2673 4.05337 14.6673 3.50671 14.6673 2.77337V2.66671C14.6673 1.93337 15.2673 1.33337 16.0007 1.33337C16.734 1.33337 17.334 1.93337 17.334 2.66671C17.334 3.40004 16.734 4.05337 16.0007 4.05337Z" fill="white"/>
</svg>
