<svg width="19" height="20" viewBox="0 0 19 20" fill="none" xmlns="http://www.w3.org/2000/svg">
<path d="M3.28 12.08C3.28 12.08 3.28667 12.0933 3.3 12.12C3.28667 12.1733 3.30667 12.2133 3.36 12.24C3.36 12.2667 3.35333 12.2867 3.34 12.3C3.32667 12.3 3.33333 12.3067 3.36 12.32L3.36 12.34C3.36 12.3667 3.36667 12.3933 3.38 12.42C3.40667 12.4333 3.40667 12.4533 3.38 12.48L3.44 12.62C3.44 12.6467 3.46667 12.7 3.52 12.78C3.53333 12.7667 3.54 12.7467 3.54 12.72C3.56667 12.6 3.6 12.48 3.64 12.36C3.68 12.24 3.72 12.12 3.76 12C3.77333 11.9333 3.78667 11.8667 3.8 11.8C3.82667 11.7333 3.84667 11.6667 3.86 11.6C3.88667 11.4933 3.90667 11.4333 3.92 11.42L4 11.02C4.02667 10.9533 4.04667 10.8867 4.06 10.82C4.07333 10.74 4.09333 10.6667 4.12 10.6L4.22 10.24C4.23333 10.1733 4.24667 10.1067 4.26 10.04C4.28667 9.97333 4.31333 9.90667 4.34 9.84L4.46 9.52C4.48667 9.42667 4.51333 9.34 4.54 9.26C4.56667 9.16667 4.6 9.06667 4.64 8.96C4.69333 8.81333 4.74 8.67333 4.78 8.54C4.83333 8.40667 4.89333 8.28 4.96 8.16L5.16 7.62C5.28 7.35333 5.39333 7.08667 5.5 6.82C5.62 6.54 5.74667 6.26667 5.88 6C5.97333 5.85333 6.06667 5.67333 6.16 5.46L6.22 5.38C6.27333 5.39333 6.31333 5.42667 6.34 5.48L6.4 5.48C6.45333 5.50667 6.48 5.52 6.48 5.52L6.48 5.56L6.14 6.32C6.02 6.58667 5.90667 6.84667 5.8 7.1C5.69333 7.35333 5.59333 7.60667 5.5 7.86C5.47333 7.95333 5.44 8.04667 5.4 8.14C5.37333 8.23333 5.34667 8.32 5.32 8.4C5.29333 8.44 5.28 8.49333 5.28 8.56C5.28 8.56 5.29333 8.53333 5.32 8.48L5.6 7.84C5.68 7.61333 5.76667 7.39333 5.86 7.18C5.95333 6.95333 6.05333 6.72667 6.16 6.5C6.18667 6.43333 6.21333 6.36667 6.24 6.3C6.28 6.23333 6.31333 6.16 6.34 6.08C6.35333 6.05333 6.36667 6.03333 6.38 6.02C6.39333 6.00667 6.4 5.98667 6.4 5.96C6.42667 5.89333 6.48 5.80667 6.56 5.7L6.6 5.86C6.58667 5.92667 6.56667 5.99333 6.54 6.06C6.52667 6.11333 6.50667 6.17333 6.48 6.24C6.48 6.26667 6.47333 6.29333 6.46 6.32C6.44667 6.33333 6.44 6.35333 6.44 6.38C6.42667 6.43333 6.40667 6.48667 6.38 6.54C6.36667 6.58 6.34667 6.63333 6.32 6.7L6.32 6.74L6.2 7.06L6.14 7.2C6.11333 7.26667 6.09333 7.32667 6.08 7.38C6.06667 7.43333 6.04667 7.48667 6.02 7.54C6.00667 7.55333 6 7.57333 6 7.6C6 7.62667 5.98667 7.66667 5.96 7.72C5.93333 7.77333 5.92 7.80667 5.92 7.82C5.92 7.88667 5.9 7.94667 5.86 8C5.84667 8 5.84 8.02 5.84 8.06C5.84 8.11333 5.82667 8.15333 5.8 8.18C5.8 8.19333 5.79333 8.2 5.78 8.2C5.78 8.2 5.78 8.20667 5.78 8.22C5.76667 8.28667 5.73333 8.37333 5.68 8.48C5.68 8.53333 5.65333 8.61333 5.6 8.72C5.57333 8.82667 5.54667 8.90667 5.52 8.96C5.49333 9.02667 5.46667 9.08667 5.44 9.14C5.42667 9.19333 5.40667 9.24 5.38 9.28C5.36667 9.34667 5.33333 9.43333 5.28 9.54C5.28 9.58 5.27333 9.62667 5.26 9.68C5.24667 9.72 5.23333 9.76 5.22 9.8C5.16667 9.94667 5.12 10.1 5.08 10.26C5.04 10.4067 5 10.5533 4.96 10.7C4.96 10.7533 4.94667 10.8333 4.92 10.94L4.92 11.02C4.89333 11.1133 4.86667 11.2 4.84 11.28C4.82667 11.36 4.80667 11.4533 4.78 11.56C4.78 11.5867 4.77333 11.6 4.76 11.6C4.76 11.6 4.76 11.6133 4.76 11.64C4.73333 11.68 4.72 11.72 4.72 11.76C4.72 11.7867 4.71333 11.8133 4.7 11.84C4.7 11.88 4.69333 11.92 4.68 11.96C4.66667 12 4.65333 12.04 4.64 12.08C4.61333 12.2133 4.58667 12.3133 4.56 12.38C4.53333 12.4733 4.50667 12.56 4.48 12.64C4.46667 12.72 4.44 12.8 4.4 12.88C4.37333 12.92 4.35333 12.96 4.34 13C4.32667 13.04 4.30667 13.08 4.28 13.12C4.24 13.2 4.2 13.26 4.16 13.3C4.04 13.4467 3.88667 13.5067 3.7 13.48C3.66 13.48 3.62667 13.4667 3.6 13.44C3.52 13.4133 3.46667 13.4 3.44 13.4C3.37333 13.4133 3.3 13.3933 3.22 13.34C3.12667 13.2867 3.06 13.2067 3.02 13.1C2.99333 13.0333 2.96 12.98 2.92 12.94C2.89333 12.8867 2.86667 12.8333 2.84 12.78C2.84 12.78 2.83333 12.7667 2.82 12.74L2.82 12.72C2.82 12.6667 2.80667 12.6 2.78 12.52C2.72667 12.3867 2.68667 12.26 2.66 12.14C2.63333 12.0067 2.6 11.8733 2.56 11.74C2.53333 11.6333 2.51333 11.5267 2.5 11.42C2.48667 11.3 2.47333 11.1867 2.46 11.08C2.43333 11.0133 2.42 10.96 2.42 10.92C2.42 10.8667 2.42 10.8133 2.42 10.76C2.40667 10.6933 2.4 10.64 2.4 10.6C2.4 10.56 2.4 10.5067 2.4 10.44C2.4 10.4267 2.39333 10.42 2.38 10.42C2.38 10.42 2.38 10.4133 2.38 10.4C2.35333 10.44 2.34667 10.48 2.36 10.52C2.37333 10.5467 2.37333 10.5733 2.36 10.6C2.33333 10.56 2.32 10.52 2.32 10.48C2.33333 10.4267 2.32667 10.38 2.3 10.34C2.27333 10.3533 2.26 10.3667 2.26 10.38C2.26 10.38 2.25333 10.3867 2.24 10.4C2.24 10.4667 2.22667 10.5333 2.2 10.6C2.18667 10.6533 2.16667 10.7133 2.14 10.78C2.11333 10.8733 2.08 10.96 2.04 11.04C2.01333 11.12 1.98667 11.2 1.96 11.28C1.93333 11.32 1.92 11.3667 1.92 11.42C1.92 11.46 1.90667 11.5 1.88 11.54C1.85333 11.62 1.82667 11.68 1.8 11.72C1.77333 11.7733 1.75333 11.8267 1.74 11.88C1.74 11.92 1.72667 11.96 1.7 12L1.66 12.16C1.62 12.24 1.58667 12.32 1.56 12.4C1.54667 12.4667 1.52667 12.5333 1.5 12.6C1.5 12.6267 1.49333 12.64 1.48 12.64C1.44 12.72 1.40667 12.8067 1.38 12.9C1.35333 12.9933 1.32 13.08 1.28 13.16C1.25333 13.2133 1.23333 13.2667 1.22 13.32C1.20667 13.36 1.2 13.4133 1.2 13.48L1.16 13.54C1.10667 13.6467 1.06667 13.7533 1.04 13.86C1.01333 13.9533 0.986667 14.0533 0.96 14.16C0.96 14.2133 0.94 14.26 0.9 14.3C0.886667 14.2867 0.873333 14.28 0.86 14.28C0.86 14.2533 0.86 14.24 0.86 14.24C0.846667 14.24 0.84 14.2333 0.84 14.22C0.866667 14.18 0.88 14.14 0.88 14.1C0.88 14.0467 0.886667 13.9933 0.9 13.94L1.12 13.1C1.14667 13.0733 1.16 13.04 1.16 13C1.17333 12.96 1.18667 12.9267 1.2 12.9L1.62 11.72C1.7 11.4933 1.78 11.2733 1.86 11.06C1.94 10.8467 2.02667 10.6267 2.12 10.4L2.24 10.06C2.26667 9.99333 2.27333 9.93333 2.26 9.88C2.26 9.81333 2.26 9.74667 2.26 9.68C2.23333 9.73333 2.22 9.76 2.22 9.76L2.02 10.34C1.96667 10.46 1.92 10.5867 1.88 10.72C1.84 10.84 1.79333 10.9667 1.74 11.1C1.67333 11.2733 1.60667 11.44 1.54 11.6C1.47333 11.76 1.41333 11.9267 1.36 12.1L1.18 12.58C1.08667 12.8067 1.00667 13.0533 0.94 13.32L0.88 13.5C0.853333 13.54 0.84 13.5867 0.84 13.64C0.826667 13.68 0.813333 13.72 0.8 13.76L0.74 14C0.726667 14.04 0.706667 14.0933 0.68 14.16C0.653333 14.2133 0.626667 14.2667 0.6 14.32C0.573333 14.32 0.553333 14.3133 0.54 14.3C0.54 14.26 0.526667 14.24 0.5 14.24L0.4 14.24C0.373333 14.24 0.36 14.22 0.36 14.18C0.36 14.1533 0.36 14.1333 0.36 14.12C0.346667 14.1067 0.346667 14.0867 0.36 14.06L0.4 13.84C0.466667 13.56 0.546667 13.2867 0.64 13.02C0.72 12.7533 0.806667 12.4867 0.9 12.22C0.966667 12.0333 1.03333 11.8533 1.1 11.68C1.16667 11.5067 1.22667 11.3267 1.28 11.14C1.28 11.1133 1.30667 11.0467 1.36 10.94L1.36 10.9C1.32 10.9533 1.27333 11.0333 1.22 11.14C1.19333 11.22 1.16 11.3067 1.12 11.4C1.12 11.4133 1.10667 11.4333 1.08 11.46C1.10667 11.3533 1.13333 11.2667 1.16 11.2C1.18667 11.12 1.21333 11.04 1.24 10.96C1.28 10.8667 1.32 10.7733 1.36 10.68L1.56 10.12L1.82 9.44L1.96 9.04C1.97333 9 1.98 8.96667 1.98 8.94C1.99333 8.91333 2 8.88667 2 8.86C2.04 8.78 2.1 8.72 2.18 8.68C2.18 8.66667 2.19333 8.63333 2.22 8.58C2.23333 8.58 2.24 8.58 2.24 8.58C2.25333 8.56667 2.27333 8.56 2.3 8.56L2.36 8.62C2.4 8.64667 2.42 8.68667 2.42 8.74L2.42 8.92C2.48667 8.93333 2.52667 8.96 2.54 9C2.56667 9.04 2.59333 9.08 2.62 9.12C2.64667 9.18667 2.66667 9.26 2.68 9.34C2.69333 9.40667 2.70667 9.47333 2.72 9.54C2.73333 9.64667 2.74667 9.76 2.76 9.88C2.78667 10 2.80667 10.12 2.82 10.24L2.88 10.64C2.89333 10.68 2.9 10.7267 2.9 10.78C2.91333 10.82 2.93333 10.86 2.96 10.9C2.96 10.9667 2.98 11.04 3.02 11.12L3.08 11.32C3.10667 11.4267 3.12667 11.5267 3.14 11.62C3.16667 11.7133 3.19333 11.8133 3.22 11.92C3.22 11.9333 3.22 11.9467 3.22 11.96C3.23333 11.9733 3.24 11.9933 3.24 12.02C3.26667 12.0467 3.28 12.0667 3.28 12.08ZM3.86 12.48C3.88667 12.4533 3.9 12.4333 3.9 12.42C3.92667 12.3267 3.95333 12.24 3.98 12.16C4.02 12.08 4.05333 12 4.08 11.92C4.12 11.8133 4.16 11.7133 4.2 11.62C4.24 11.5133 4.27333 11.4067 4.3 11.3C4.31333 11.2467 4.32667 11.2 4.34 11.16C4.35333 11.12 4.37333 11.0733 4.4 11.02L4.64 10.16C4.66667 10.0933 4.69333 9.99333 4.72 9.86C4.72 9.84667 4.71333 9.84667 4.7 9.86L4.6 10.16C4.53333 10.3467 4.46667 10.5333 4.4 10.72C4.34667 10.8933 4.28667 11.0733 4.22 11.26C4.19333 11.3267 4.16667 11.4 4.14 11.48C4.12667 11.5467 4.10667 11.62 4.08 11.7L3.9 12.32C3.87333 12.3733 3.86 12.4267 3.86 12.48ZM2.94 12.24C2.95333 12.28 2.96 12.32 2.96 12.36C2.97333 12.3867 2.99333 12.4133 3.02 12.44C3.02 12.4 3.01333 12.36 3 12.32C2.96 12.1733 2.92 12.0333 2.88 11.9C2.85333 11.7533 2.82667 11.6067 2.8 11.46C2.76 11.2467 2.72 11.0333 2.68 10.82C2.65333 10.5933 2.62667 10.3667 2.6 10.14C2.6 10.1133 2.59333 10.1 2.58 10.1C2.58 10.0867 2.58 10.0667 2.58 10.04C2.58 10.0267 2.57333 10.02 2.56 10.02C2.56 10.0067 2.56 9.98667 2.56 9.96C2.56 10.0267 2.56 10.0867 2.56 10.14C2.56 10.1933 2.56667 10.2533 2.58 10.32C2.60667 10.5067 2.62667 10.6933 2.64 10.88C2.65333 11.0667 2.68 11.2533 2.72 11.44C2.74667 11.5733 2.77333 11.7067 2.8 11.84C2.84 11.9733 2.88667 12.1067 2.94 12.24ZM4.74 11.08C4.72667 11.12 4.71333 11.16 4.7 11.2C4.68667 11.2267 4.68667 11.2533 4.7 11.28C4.7 11.28 4.70667 11.2733 4.72 11.26L4.8 10.98C4.82667 10.9 4.85333 10.82 4.88 10.74C4.90667 10.66 4.93333 10.58 4.96 10.5L4.96 10.46C4.94667 10.4733 4.94 10.4867 4.94 10.5C4.87333 10.6733 4.80667 10.8667 4.74 11.08ZM2.36 9.36C2.32 9.44 2.3 9.50667 2.3 9.56C2.3 9.65333 2.31333 9.72 2.34 9.76C2.38 9.64 2.38667 9.50667 2.36 9.36ZM3.12 11.24C3.16 11.3067 3.18 11.3667 3.18 11.42C3.19333 11.4733 3.2 11.5333 3.2 11.6L3.12 11.24ZM2.52 9.06C2.49333 8.99333 2.46 8.96 2.42 8.96C2.42 8.96 2.41333 8.97333 2.4 9L2.52 9.06ZM3.28 11.76L3.28 11.94C3.26667 11.9133 3.26 11.8933 3.26 11.88C3.26 11.8667 3.25333 11.8533 3.24 11.84L3.24 11.72L3.28 11.76ZM4.64 11.44C4.68 11.4 4.69333 11.36 4.68 11.32C4.65333 11.3733 4.64 11.4133 4.64 11.44ZM1.08 11.46C1.08 11.4867 1.06667 11.5267 1.04 11.58C1.04 11.5267 1.05333 11.4867 1.08 11.46ZM2.36 10.3C2.36 10.3 2.36667 10.2867 2.38 10.26C2.38 10.2467 2.37333 10.2333 2.36 10.22L2.36 10.16C2.33333 10.2267 2.33333 10.28 2.36 10.32L2.36 10.3ZM1.04 11.58C1.04 11.5933 1.03333 11.6 1.02 11.6C1.02 11.6 1.02 11.6133 1.02 11.64C1.00667 11.6533 1 11.66 1 11.66L1 11.62C1.02667 11.5933 1.04 11.58 1.04 11.58ZM3.24 11.72C3.2 11.72 3.19333 11.7067 3.22 11.68C3.23333 11.6933 3.24 11.7067 3.24 11.72ZM1.5 10.56C1.48667 10.5733 1.48 10.5867 1.48 10.6L1.5 10.6L1.5 10.56ZM5.28 8.56C5.25333 8.56 5.25333 8.58 5.28 8.62L5.28 8.56ZM3.86 12.48C3.83333 12.48 3.83333 12.5 3.86 12.54L3.86 12.48ZM0.98 11.68C0.98 11.68 0.986667 11.6733 1 11.66C1 11.6867 0.993333 11.7 0.98 11.7L0.98 11.68ZM1.46 10.64L1.46 10.7L1.46 10.64ZM0.98 11.7C0.966667 11.7267 0.96 11.74 0.96 11.74C0.96 11.7133 0.966667 11.7 0.98 11.7ZM3.3 12.04C3.3 12.0533 3.29333 12.0667 3.28 12.08L3.3 12.06L3.3 12.04ZM3.04 12.48C3.04 12.48 3.03333 12.4733 3.02 12.46C3.02 12.4733 3.02667 12.48 3.04 12.48ZM1.4 10.78L1.4 10.8L1.38 10.8C1.39333 10.8 1.4 10.7933 1.4 10.78ZM1.2 12.72L1.22 12.72C1.20667 12.7333 1.2 12.74 1.2 12.74L1.2 12.72ZM6.4075 11.2L6.1075 11.9C6.08083 11.9533 6.08083 12 6.1075 12.04C6.1075 12.04 6.12083 12.0133 6.1475 11.96C6.17417 12.0267 6.17417 12.0733 6.1475 12.1C6.1075 12.1 6.0675 12.1067 6.0275 12.12C5.9875 12.1333 5.9475 12.1267 5.9075 12.1C5.9075 12.02 5.91417 11.96 5.9275 11.92L6.0075 11.64C6.06083 11.5333 6.1075 11.42 6.1475 11.3C6.1875 11.18 6.2275 11.0667 6.2675 10.96C6.3075 10.8267 6.35417 10.7 6.4075 10.58C6.47417 10.4467 6.54083 10.3133 6.6075 10.18C6.70083 9.96667 6.7875 9.76 6.8675 9.56C6.96083 9.34667 7.06083 9.13333 7.1675 8.92L7.5275 8.14L7.7675 7.6C7.78083 7.58667 7.78083 7.58 7.7675 7.58C7.7675 7.56667 7.77417 7.54667 7.7875 7.52C7.7075 7.50667 7.63417 7.50667 7.5675 7.52C7.50083 7.52 7.43417 7.52 7.3675 7.52L6.9475 7.52L6.8875 7.44L6.8275 7.36C6.81417 7.34667 6.8075 7.31333 6.8075 7.26C6.8075 7.23333 6.81417 7.22 6.8275 7.22C6.84083 7.19333 6.88083 7.18 6.9475 7.18L7.7275 7.12C7.75417 7.10667 7.78083 7.1 7.8075 7.1C7.8475 7.1 7.8875 7.08667 7.9275 7.06L7.5075 7.1L7.0875 7.1C7.3675 7.00667 7.6475 6.95333 7.9275 6.94L8.0075 6.94C8.07417 6.91333 8.14083 6.9 8.2075 6.9C8.27417 6.9 8.34083 6.89333 8.4075 6.88C8.50083 6.86667 8.5875 6.86 8.6675 6.86C8.76083 6.84667 8.85417 6.84 8.9475 6.84C9.05417 6.84 9.16083 6.84 9.2675 6.84C9.3875 6.84 9.50083 6.85333 9.6075 6.88L9.7275 6.92C9.7275 7 9.73417 7.06 9.7475 7.1C9.76083 7.11333 9.77417 7.12667 9.7875 7.14C9.80083 7.14 9.81417 7.15333 9.8275 7.18C9.8275 7.20667 9.82083 7.22667 9.8075 7.24C9.8075 7.25333 9.8075 7.27333 9.8075 7.3C9.8075 7.32667 9.82083 7.36667 9.8475 7.42L9.8075 7.48C9.74083 7.44 9.67417 7.42 9.6075 7.42C9.55417 7.40667 9.49417 7.4 9.4275 7.4C9.36083 7.41333 9.30083 7.42 9.2475 7.42C9.2075 7.42 9.16083 7.42 9.1075 7.42C9.00083 7.43333 8.90083 7.44667 8.8075 7.46C8.71417 7.46 8.61417 7.46 8.5075 7.46C8.49417 7.47333 8.47417 7.48 8.4475 7.48C8.4475 7.50667 8.44083 7.53333 8.4275 7.56C8.4275 7.58667 8.4275 7.61333 8.4275 7.64L8.3875 7.82C8.36083 7.91333 8.33417 8.00667 8.3075 8.1C8.28083 8.19333 8.24083 8.28667 8.1875 8.38C8.1475 8.47333 8.1075 8.56667 8.0675 8.66C8.04083 8.74 8.0075 8.82 7.9675 8.9L7.8475 9.16C7.82083 9.22667 7.79417 9.28667 7.7675 9.34C7.74083 9.39333 7.71417 9.45333 7.6875 9.52C7.62083 9.66667 7.5475 9.80667 7.4675 9.94C7.3875 10.0733 7.3075 10.2133 7.2275 10.36C7.16083 10.5333 7.09417 10.68 7.0275 10.8C6.96083 10.9467 6.89417 11.0733 6.8275 11.18C6.7875 11.26 6.74083 11.34 6.6875 11.42C6.6475 11.4867 6.61417 11.5667 6.5875 11.66L6.5075 11.86C6.48083 11.9133 6.4675 11.96 6.4675 12L6.5075 12C6.64083 12 6.7675 11.9933 6.8875 11.98C7.0075 11.9533 7.13417 11.9467 7.2675 11.96L7.7275 12.02C7.75417 12.02 7.79417 12.0333 7.8475 12.06L7.9075 12.2C7.97417 12.2267 8.0275 12.26 8.0675 12.3C8.12083 12.3267 8.1475 12.3867 8.1475 12.48C8.13417 12.48 8.12083 12.4867 8.1075 12.5C8.09417 12.5 8.07417 12.5 8.0475 12.5C8.02083 12.58 7.99417 12.6467 7.9675 12.7C7.9675 12.7133 7.9675 12.7267 7.9675 12.74C7.98083 12.74 7.9875 12.7467 7.9875 12.76C7.92083 12.7333 7.85417 12.7467 7.7875 12.8C7.69417 12.7733 7.6475 12.7533 7.6475 12.74C7.66083 12.7133 7.68083 12.6867 7.7075 12.66C7.6275 12.6867 7.55417 12.6867 7.4875 12.66L7.4475 12.66C7.35417 12.6733 7.26083 12.6867 7.1675 12.7C7.0875 12.7133 6.99417 12.72 6.8875 12.72L6.2875 12.82C6.19417 12.8467 6.11417 12.84 6.0475 12.8C5.95417 12.8 5.87417 12.8067 5.8075 12.82C5.74083 12.82 5.68083 12.82 5.6275 12.82L5.8275 12.76L5.9075 12.76C5.93417 12.7333 5.9675 12.72 6.0075 12.72C6.0475 12.7067 6.08083 12.6933 6.1075 12.68C6.0675 12.6667 6.02083 12.66 5.9675 12.66L5.2075 12.76L4.7875 12.88L4.4475 12.94L4.3875 12.94C4.3875 12.9133 4.39417 12.8933 4.4075 12.88C4.4075 12.8533 4.4075 12.8267 4.4075 12.8L4.3275 12.74C4.34083 12.7133 4.36083 12.7 4.3875 12.7C4.41417 12.7 4.43417 12.6867 4.4475 12.66L4.4475 12.6C4.4475 12.5867 4.45417 12.5733 4.4675 12.56C4.4675 12.5467 4.4675 12.5333 4.4675 12.52C4.53417 12.4933 4.6075 12.4667 4.6875 12.44L4.9275 12.38C5.18083 12.3133 5.45417 12.2667 5.7475 12.24C5.77417 12.24 5.80083 12.24 5.8275 12.24C5.8675 12.2267 5.9075 12.22 5.9475 12.22L6.1075 12.18C6.1475 12.18 6.18083 12.1733 6.2075 12.16C6.2475 12.1467 6.2875 12.14 6.3275 12.14L6.3275 12.1C6.30083 12.0733 6.27417 12.06 6.2475 12.06C6.26083 12.0333 6.28083 12.02 6.3075 12.02C6.33417 12.0067 6.36083 11.9867 6.3875 11.96C6.41417 11.92 6.45417 11.8333 6.5075 11.7C6.53417 11.62 6.56083 11.56 6.5875 11.52C6.61417 11.4533 6.63417 11.3933 6.6475 11.34C6.67417 11.2733 6.70083 11.2067 6.7275 11.14C6.7675 11.02 6.81417 10.9067 6.8675 10.8C6.92083 10.68 6.97417 10.56 7.0275 10.44C7.0675 10.3467 7.1075 10.26 7.1475 10.18C7.20083 10.0867 7.2475 9.98667 7.2875 9.88L7.5475 9.36L7.8675 8.64L8.1675 7.96L8.2875 7.6L8.2875 7.56L8.2675 7.54L8.2475 7.56L8.1875 7.66C8.0275 8.00667 7.86083 8.35333 7.6875 8.7C7.5275 9.03333 7.36083 9.36667 7.1875 9.7L6.8875 10.36L6.7275 10.68C6.67417 10.8133 6.62083 10.94 6.5675 11.06C6.51417 11.18 6.45417 11.3 6.3875 11.42C6.3875 11.4467 6.38083 11.4667 6.3675 11.48C6.35417 11.48 6.3475 11.4867 6.3475 11.5C6.3475 11.4467 6.35417 11.4067 6.3675 11.38C6.38083 11.34 6.40083 11.3 6.4275 11.26C6.45417 11.2067 6.4675 11.1667 6.4675 11.14L6.4075 11.2ZM7.4275 12.82C7.40083 12.8333 7.38083 12.84 7.3675 12.84C7.3275 12.8667 7.2875 12.88 7.2475 12.88C7.2075 12.88 7.1675 12.8933 7.1275 12.92C7.06083 12.92 7.0075 12.9267 6.9675 12.94L6.4875 13C6.4075 13.0267 6.35417 13.04 6.3275 13.04C6.2875 13.04 6.2475 13.0467 6.2075 13.06C6.1675 13.06 6.1275 13.06 6.0875 13.06C6.02083 13.06 5.97417 13.0667 5.9475 13.08L5.5275 13.14C5.46083 13.14 5.4075 13.1467 5.3675 13.16C5.30083 13.16 5.24083 13.1667 5.1875 13.18C5.12083 13.18 5.05417 13.1867 4.9875 13.2L4.7275 13.2C4.6875 13.1733 4.68083 13.1333 4.7075 13.08C4.84083 13.0533 4.94083 13.04 5.0075 13.04C5.0475 13.0533 5.0875 13.06 5.1275 13.06C5.1675 13.0467 5.2075 13.04 5.2475 13.04C5.35417 13.0267 5.45417 13.0133 5.5475 13C5.64083 12.9733 5.73417 12.9533 5.8275 12.94L6.2075 12.88C6.2875 12.88 6.3475 12.8733 6.3875 12.86C6.7075 12.82 7.0275 12.8 7.3475 12.8C7.37417 12.8 7.40083 12.8067 7.4275 12.82ZM7.8475 12.16C7.78083 12.1067 7.72083 12.0733 7.6675 12.06C7.61417 12.06 7.56083 12.06 7.5075 12.06C7.4675 12.0467 7.42083 12.04 7.3675 12.04C7.0875 12.0267 6.8075 12.0267 6.5275 12.04C6.50083 12.04 6.48083 12.0467 6.4675 12.06C6.4675 12.06 6.45417 12.06 6.4275 12.06C6.41417 12.0733 6.4075 12.1 6.4075 12.14C6.46083 12.1533 6.52083 12.1533 6.5875 12.14C6.68083 12.1267 6.79417 12.1267 6.9275 12.14C6.8875 12.1533 6.85417 12.1667 6.8275 12.18C6.80083 12.18 6.77417 12.18 6.7475 12.18C6.6275 12.18 6.52083 12.2 6.4275 12.24L6.5875 12.24C6.65417 12.2267 6.7075 12.22 6.7475 12.22C6.80083 12.22 6.86083 12.22 6.9275 12.22C7.02083 12.22 7.0875 12.2133 7.1275 12.2C7.31417 12.1733 7.50083 12.1733 7.6875 12.2L7.7875 12.2C7.77417 12.2 7.79417 12.1867 7.8475 12.16ZM8.3475 7.04C8.36083 7.06667 8.38083 7.08 8.4075 7.08C8.47417 7.08 8.54083 7.08 8.6075 7.08C8.6875 7.06667 8.76083 7.06 8.8275 7.06C8.92083 7.06 9.0075 7.06 9.0875 7.06C9.18083 7.06 9.27417 7.06667 9.3675 7.08L9.4675 7.08L9.4875 7.06C9.47417 7.04667 9.46083 7.04 9.4475 7.04C9.38083 7.02667 9.31417 7.02 9.2475 7.02C9.19417 7.00667 9.13417 7.00667 9.0675 7.02C8.97417 7.02 8.88083 7.02 8.7875 7.02C8.7075 7.02 8.61417 7.02667 8.5075 7.04L8.3475 7.04ZM9.4075 7.26C9.35417 7.26 9.30083 7.26667 9.2475 7.28C9.2075 7.28 9.16083 7.28 9.1075 7.28L9.0675 7.32C9.13417 7.32 9.18083 7.31333 9.2075 7.3L9.4875 7.3C9.54083 7.3 9.58083 7.28667 9.6075 7.26L9.4075 7.26ZM6.4675 11.14C6.49417 11.1133 6.5075 11.08 6.5075 11.04C6.48083 11.0533 6.4675 11.0867 6.4675 11.14ZM6.3475 11.52C6.3475 11.5467 6.33417 11.56 6.3075 11.56C6.3075 11.5333 6.32083 11.52 6.3475 11.52ZM9.7075 7.14C9.72083 7.18 9.7475 7.19333 9.7875 7.18C9.76083 7.18 9.73417 7.16667 9.7075 7.14ZM5.5875 12.82L5.6275 12.82C5.6275 12.8333 5.61417 12.84 5.5875 12.84L5.5675 12.84C5.58083 12.84 5.5875 12.8333 5.5875 12.82ZM5.5275 12.84L5.5675 12.84C5.55417 12.8533 5.54083 12.86 5.5275 12.86L5.5275 12.84ZM6.3075 11.58L6.2875 11.6C6.2875 11.5867 6.29417 11.5733 6.3075 11.56L6.3075 11.58ZM10.1191 9.62C10.1191 9.60667 10.1257 9.6 10.1391 9.6L10.1391 9.62C10.1524 9.60667 10.1591 9.59333 10.1591 9.58C10.1591 9.56667 10.1657 9.54667 10.1791 9.52C10.1791 9.48 10.1991 9.42667 10.2391 9.36C10.2657 9.28 10.2924 9.22 10.3191 9.18C10.3324 9.12667 10.3457 9.08 10.3591 9.04C10.3724 9 10.3924 8.95333 10.4191 8.9C10.4857 8.71333 10.5524 8.54 10.6191 8.38C10.6457 8.34 10.6657 8.3 10.6791 8.26C10.6924 8.22 10.7124 8.18 10.7391 8.14C10.7524 8.1 10.7657 8.06667 10.7791 8.04C10.7924 8 10.8124 7.96 10.8391 7.92C10.8791 7.88 10.8991 7.82667 10.8991 7.76C10.9124 7.73333 10.9457 7.70667 10.9991 7.68C11.0257 7.70667 11.0391 7.74667 11.0391 7.8C11.0257 7.82667 11.0191 7.86 11.0191 7.9C11.0191 7.92667 11.0057 7.96 10.9791 8L10.8991 8.34C10.8991 8.36667 10.8924 8.38667 10.8791 8.4C10.8524 8.44 10.8324 8.48667 10.8191 8.54C10.8191 8.59333 10.8057 8.65333 10.7791 8.72C10.7657 8.76 10.7524 8.80667 10.7391 8.86C10.7257 8.9 10.7057 8.94667 10.6791 9C10.6657 9.01333 10.6591 9.04 10.6591 9.08C10.6591 9.09333 10.6457 9.12667 10.6191 9.18C10.6191 9.20667 10.6124 9.22667 10.5991 9.24C10.5857 9.25333 10.5791 9.26667 10.5791 9.28C10.5791 9.30667 10.5657 9.36 10.5391 9.44L10.4191 9.74C10.3924 9.80667 10.3657 9.87333 10.3391 9.94C10.3257 9.99333 10.3057 10.0467 10.2791 10.1C10.2524 10.2067 10.2257 10.2867 10.1991 10.34C10.1457 10.5133 10.0857 10.66 10.0191 10.78L9.77906 11.48C9.7524 11.52 9.7324 11.56 9.71906 11.6C9.70573 11.6267 9.69906 11.66 9.69906 11.7C9.69906 11.7133 9.6924 11.7267 9.67906 11.74C9.67906 11.74 9.67906 11.7467 9.67906 11.76C9.6524 11.8 9.62573 11.8467 9.59906 11.9C9.58573 11.9533 9.56573 12.0133 9.53906 12.08C9.53906 12.0933 9.52573 12.14 9.49906 12.22C9.4724 12.2733 9.44573 12.3267 9.41906 12.38C9.40573 12.42 9.3924 12.4733 9.37906 12.54C9.3524 12.62 9.31906 12.7067 9.27906 12.8C9.2524 12.88 9.2324 12.96 9.21906 13.04C9.1924 13.12 9.16573 13.2 9.13906 13.28C9.12573 13.3467 9.10573 13.4133 9.07906 13.48L8.99906 13.74C8.9724 13.8067 8.94573 13.88 8.91906 13.96C8.90573 14.0267 8.8924 14.1 8.87906 14.18C8.8524 14.22 8.82573 14.2933 8.79906 14.4C8.7724 14.4533 8.74573 14.5467 8.71906 14.68C8.67906 14.7467 8.6524 14.82 8.63906 14.9C8.63906 14.9133 8.6324 14.9267 8.61906 14.94C8.61906 14.94 8.61906 14.9467 8.61906 14.96C8.6324 14.9733 8.64573 14.9733 8.65906 14.96L9.19906 14.68C9.38573 14.5867 9.57906 14.5067 9.77906 14.44C9.97906 14.3733 10.1791 14.3067 10.3791 14.24C10.5524 14.1733 10.7191 14.12 10.8791 14.08C11.0524 14.0267 11.2257 13.9733 11.3991 13.92L11.6391 13.86C11.6924 13.8467 11.7457 13.84 11.7991 13.84C11.8524 13.84 11.8991 13.8267 11.9391 13.8L12.0591 13.84C12.0991 13.84 12.1391 13.86 12.1791 13.9C12.1791 13.9267 12.1857 13.9533 12.1991 13.98C12.1724 14.0467 12.1524 14.08 12.1391 14.08C12.0991 14.08 12.0724 14.1 12.0591 14.14C12.0324 14.1533 12.0057 14.1667 11.9791 14.18C11.9524 14.1933 11.9257 14.2 11.8991 14.2C11.8724 14.2 11.8057 14.2133 11.6991 14.24C11.6724 14.24 11.6391 14.2467 11.5991 14.26C11.5591 14.26 11.5191 14.26 11.4791 14.26C11.4524 14.26 11.4257 14.2667 11.3991 14.28C11.3724 14.2933 11.3457 14.3067 11.3191 14.32L11.2191 14.32C11.2191 14.3333 11.2124 14.34 11.1991 14.34C11.1857 14.34 11.1791 14.3467 11.1791 14.36L11.1791 14.32L11.0991 14.36L11.1791 14.36C11.1524 14.3733 11.1257 14.3733 11.0991 14.36C10.9924 14.3867 10.8991 14.4133 10.8191 14.44C10.5791 14.52 10.3324 14.6067 10.0791 14.7C9.83906 14.7933 9.59906 14.8933 9.35906 15C9.2124 15.0667 9.0724 15.1333 8.93906 15.2C8.80573 15.2667 8.6724 15.3467 8.53906 15.44C8.5124 15.44 8.48573 15.4533 8.45906 15.48C8.4324 15.5067 8.42573 15.54 8.43906 15.58C8.46573 15.58 8.48573 15.5733 8.49906 15.56C8.5124 15.5467 8.5324 15.5333 8.55906 15.52L8.81906 15.36C8.88573 15.3067 8.9524 15.26 9.01906 15.22C9.09906 15.1933 9.1724 15.16 9.23906 15.12L9.67906 14.94C9.8124 14.8867 9.94573 14.84 10.0791 14.8C10.2124 14.7467 10.3524 14.7 10.4991 14.66C10.6191 14.6333 10.7324 14.6 10.8391 14.56C10.8657 14.56 10.8857 14.5533 10.8991 14.54C10.8991 14.5533 10.8924 14.5667 10.8791 14.58C10.8657 14.5933 10.8724 14.6067 10.8991 14.62L10.8191 14.66C10.8057 14.66 10.7791 14.68 10.7391 14.72L10.8191 14.72L10.7191 14.8C10.7057 14.7867 10.6857 14.78 10.6591 14.78C10.6591 14.8067 10.6391 14.82 10.5991 14.82L10.3991 14.9C10.3724 14.9133 10.3391 14.9267 10.2991 14.94C10.2591 14.94 10.2257 14.9533 10.1991 14.98C10.1857 15.0067 10.1657 15.02 10.1391 15.02C10.1257 15.02 10.1057 15.0267 10.0791 15.04C10.0124 15.08 9.93906 15.1133 9.85906 15.14C9.7924 15.18 9.72573 15.2133 9.65906 15.24L9.23906 15.46L8.93906 15.64L8.77906 15.74C8.72573 15.7667 8.6724 15.7933 8.61906 15.82C8.57906 15.86 8.5324 15.9 8.47906 15.94C8.42573 15.9667 8.3724 15.9933 8.31906 16.02C8.26573 16.06 8.21906 16.1067 8.17906 16.16C8.16573 16.1867 8.15906 16.22 8.15906 16.26C8.15906 16.3 8.14573 16.34 8.11906 16.38C8.10573 16.4067 8.09906 16.44 8.09906 16.48C8.09906 16.52 8.08573 16.5533 8.05906 16.58C8.04573 16.58 8.03906 16.5733 8.03906 16.56C8.03906 16.56 8.0324 16.56 8.01906 16.56L8.01906 16.54C7.97906 16.5533 7.95906 16.5733 7.95906 16.6C7.95906 16.6267 7.93906 16.64 7.89906 16.64C7.8724 16.5867 7.8724 16.5333 7.89906 16.48C7.9124 16.44 7.91906 16.3867 7.91906 16.32C7.8524 16.3467 7.8124 16.3733 7.79906 16.4C7.78573 16.44 7.7724 16.4867 7.75906 16.54L7.69906 16.54C7.69906 16.5533 7.68573 16.5733 7.65906 16.6C7.65906 16.6133 7.6524 16.62 7.63906 16.62L7.51906 16.56C7.51906 16.56 7.50573 16.5533 7.47906 16.54C7.46573 16.5267 7.44573 16.52 7.41906 16.52L7.37906 16.42C7.37906 16.42 7.3724 16.4133 7.35906 16.4C7.30573 16.4 7.26573 16.3933 7.23906 16.38C7.22573 16.3533 7.2324 16.3133 7.25906 16.26C7.29906 16.1667 7.35906 16.08 7.43906 16L7.67906 15.74C7.6924 15.7267 7.69906 15.7133 7.69906 15.7C7.72573 15.6467 7.74573 15.5933 7.75906 15.54C7.7724 15.5 7.78573 15.4467 7.79906 15.38L7.85906 15.14L8.01906 14.56L8.19906 13.92C8.22573 13.84 8.2524 13.76 8.27906 13.68C8.30573 13.6 8.3324 13.5133 8.35906 13.42C8.38573 13.3533 8.40573 13.2933 8.41906 13.24C8.4324 13.1867 8.4524 13.1267 8.47906 13.06L8.63906 12.54L8.67906 12.32C8.70573 12.2267 8.7324 12.14 8.75906 12.06C8.78573 11.9667 8.8124 11.8667 8.83906 11.76C8.8924 11.6267 8.93906 11.4933 8.97906 11.36C9.01906 11.2267 9.05906 11.0933 9.09906 10.96L9.23906 10.5L9.57906 9.6C9.77906 9.04 10.0057 8.50667 10.2591 8L10.5391 7.4L10.5991 7.28C10.6257 7.22667 10.6524 7.2 10.6791 7.2C10.7057 7.21333 10.7191 7.23333 10.7191 7.26C10.7324 7.27333 10.7457 7.29333 10.7591 7.32C10.7857 7.32 10.7991 7.32667 10.7991 7.34C10.8124 7.34 10.8324 7.34 10.8591 7.34C10.8857 7.35333 10.8991 7.36667 10.8991 7.38C10.8991 7.39333 10.9057 7.40667 10.9191 7.42L10.9191 7.44C10.9057 7.50667 10.8857 7.56667 10.8591 7.62C10.8457 7.67333 10.8257 7.72667 10.7991 7.78C10.7057 7.94 10.6191 8.10667 10.5391 8.28C10.4724 8.45333 10.4057 8.62667 10.3391 8.8C10.2457 9.01333 10.1524 9.22667 10.0591 9.44C9.97906 9.65333 9.89906 9.87333 9.81906 10.1L9.39906 11.2C9.34573 11.32 9.29906 11.44 9.25906 11.56C9.2324 11.68 9.19906 11.8067 9.15906 11.94L8.87906 12.8C8.8524 12.8667 8.8324 12.9333 8.81906 13C8.80573 13.0533 8.78573 13.1133 8.75906 13.18L8.09906 15.24L8.03906 15.44L8.13906 15.36C8.16573 15.3333 8.17906 15.3067 8.17906 15.28C8.20573 15.2267 8.21906 15.1933 8.21906 15.18C8.3124 14.9133 8.40573 14.6533 8.49906 14.4C8.57906 14.1333 8.65906 13.8667 8.73906 13.6C8.76573 13.5067 8.7924 13.4133 8.81906 13.32C8.85906 13.2267 8.89906 13.1333 8.93906 13.04C8.93906 13.0133 8.94573 12.9933 8.95906 12.98C8.9724 12.9533 8.97906 12.9267 8.97906 12.9C8.9924 12.8733 9.00573 12.8533 9.01906 12.84C9.0324 12.8267 9.03906 12.8067 9.03906 12.78C9.0524 12.7267 9.06573 12.6733 9.07906 12.62C9.0924 12.5667 9.1124 12.52 9.13906 12.48C9.16573 12.3467 9.1924 12.2467 9.21906 12.18C9.2324 12.1133 9.24573 12.0467 9.25906 11.98C9.28573 11.9 9.3124 11.8267 9.33906 11.76L9.45906 11.44C9.49906 11.2933 9.53906 11.1533 9.57906 11.02C9.61906 10.8867 9.6724 10.7467 9.73906 10.6C9.77906 10.4667 9.82573 10.34 9.87906 10.22C9.9324 10.0867 9.97906 9.96 10.0191 9.84C10.0191 9.81333 10.0324 9.78667 10.0591 9.76L10.0991 9.76C10.1124 9.72 10.1124 9.7 10.0991 9.7C10.0724 9.68667 10.0791 9.66 10.1191 9.62C10.1191 9.63333 10.1257 9.63333 10.1391 9.62L10.1191 9.62ZM9.43906 11.84C9.43906 11.8533 9.4324 11.86 9.41906 11.86C9.41906 11.86 9.41906 11.8667 9.41906 11.88L9.27906 12.26C9.26573 12.2867 9.2524 12.32 9.23906 12.36C9.22573 12.4 9.21906 12.44 9.21906 12.48L9.09906 12.84C9.09906 12.84 9.09906 12.8533 9.09906 12.88C9.12573 12.8267 9.13906 12.7933 9.13906 12.78L9.39906 12.02C9.4124 11.9933 9.41906 11.9667 9.41906 11.94C9.41906 11.9133 9.42573 11.88 9.43906 11.84ZM7.61906 16.08C7.57906 16.12 7.53906 16.1467 7.49906 16.16C7.45906 16.1867 7.42573 16.22 7.39906 16.26L7.39906 16.28C7.4524 16.3067 7.47906 16.32 7.47906 16.32C7.50573 16.28 7.53906 16.2467 7.57906 16.22C7.60573 16.1933 7.61906 16.1467 7.61906 16.08ZM11.5991 13.8C11.5324 13.8 11.4924 13.8067 11.4791 13.82C11.5991 13.7667 11.7324 13.7267 11.8791 13.7C11.9191 13.7 11.9457 13.7133 11.9591 13.74C11.8924 13.7533 11.8324 13.76 11.7791 13.76C11.7257 13.76 11.6657 13.7733 11.5991 13.8ZM7.91906 15.94C7.98573 15.8867 8.02573 15.8533 8.03906 15.84C8.0524 15.8267 8.05906 15.8 8.05906 15.76C7.97906 15.7867 7.9324 15.8267 7.91906 15.88C7.8924 15.9067 7.8924 15.9267 7.91906 15.94ZM10.9191 14.68C10.9457 14.6533 10.9924 14.64 11.0591 14.64C11.0191 14.6667 10.9724 14.68 10.9191 14.68ZM10.6991 14.7C10.6724 14.7133 10.6591 14.7267 10.6591 14.74L10.7191 14.74C10.7191 14.7267 10.7124 14.72 10.6991 14.72C10.6991 14.72 10.6991 14.7133 10.6991 14.7ZM10.8191 14.72C10.8324 14.72 10.8457 14.7133 10.8591 14.7L10.8591 14.72L10.8191 14.72ZM10.9191 14.68C10.9057 14.6933 10.8857 14.7 10.8591 14.7C10.8724 14.6867 10.8924 14.68 10.9191 14.68ZM10.9991 14.52L11.0191 14.5L11.0191 14.52L10.9991 14.52ZM10.0391 9.88L10.0391 9.92C10.0391 9.89333 10.0391 9.88 10.0391 9.88ZM10.8591 14.72L10.8591 14.7L10.8591 14.72ZM11.0191 7.66L10.9991 7.68L10.9991 7.66L11.0191 7.66ZM10.9991 7.66L11.0191 7.66L10.9991 7.66ZM13.32 14.5C13.32 14.5133 13.32 14.52 13.32 14.52C13.3333 14.52 13.34 14.5267 13.34 14.54C13.34 14.5267 13.3333 14.52 13.32 14.52C13.32 14.52 13.32 14.5133 13.32 14.5C13.24 14.4867 13.1867 14.4267 13.16 14.32L13.16 14C13.16 13.9733 13.16 13.9533 13.16 13.94C13.1733 13.9133 13.18 13.8867 13.18 13.86L13.22 13.4C13.22 13.32 13.22 13.24 13.22 13.16C13.2333 13.08 13.2467 13 13.26 12.92C13.26 12.88 13.26 12.84 13.26 12.8C13.2733 12.7467 13.28 12.6933 13.28 12.64L13.28 12.56L13.34 11.96C13.3533 11.8133 13.36 11.6733 13.36 11.54C13.3733 11.4067 13.3933 11.2667 13.42 11.12C13.42 11.1067 13.42 11.0933 13.42 11.08C13.4333 11.0533 13.44 11.0267 13.44 11L13.44 10.92C13.4133 10.8933 13.3867 10.8867 13.36 10.9C13.3467 10.9133 13.3267 10.92 13.3 10.92C13.2867 10.92 13.2533 10.9333 13.2 10.96C13.08 10.9867 12.96 11.0133 12.84 11.04C12.72 11.0667 12.6 11.0933 12.48 11.12L12.48 11.14C12.4 11.1667 12.3467 11.1867 12.32 11.2C12.3067 11.2133 12.2733 11.2533 12.22 11.32C12.0733 11.5067 11.9333 11.6933 11.8 11.88C11.68 12.0667 11.5533 12.2533 11.42 12.44C11.3933 12.48 11.3667 12.52 11.34 12.56C11.3133 12.5867 11.2933 12.6267 11.28 12.68C11.2533 12.7067 11.2333 12.7267 11.22 12.74C11.22 12.7533 11.1933 12.7733 11.14 12.8C11.14 12.8 11.1333 12.7867 11.12 12.76L11.1 12.76C11.0867 12.76 11.0733 12.7667 11.06 12.78C11.0467 12.7667 11.04 12.76 11.04 12.76C11.04 12.7467 11.0267 12.7333 11 12.72C10.9733 12.72 10.9533 12.7133 10.94 12.7C10.94 12.66 10.9533 12.6133 10.98 12.56L11.2 12.2C11.2933 12.0667 11.38 11.94 11.46 11.82C11.5533 11.6867 11.6533 11.56 11.76 11.44C11.76 11.4 11.7667 11.3733 11.78 11.36C11.7533 11.3467 11.7333 11.3467 11.72 11.36C11.7067 11.36 11.68 11.38 11.64 11.42L11.58 11.48C11.5933 11.4533 11.6 11.42 11.6 11.38C11.5733 11.38 11.52 11.3933 11.44 11.42L10.96 11.5L10.86 11.5C10.82 11.5 10.7933 11.48 10.78 11.44L10.84 11.36C10.8267 11.36 10.8133 11.3533 10.8 11.34L11.74 11.04C11.74 11.04 11.7467 11.0333 11.76 11.02C11.6267 11.0467 11.52 11.0733 11.44 11.1C11.3333 11.1267 11.2267 11.1533 11.12 11.18C11.0267 11.2067 10.9267 11.2333 10.82 11.26C10.7667 11.2733 10.6933 11.28 10.6 11.28L10.64 11.16C10.6133 11.16 10.5933 11.1533 10.58 11.14L10.58 11.1L10.6 11.08C10.6667 11.0533 10.74 11.0333 10.82 11.02C10.8867 10.9933 10.9533 10.9733 11.02 10.96C11.1533 10.9067 11.2533 10.8733 11.32 10.86C11.4267 10.8733 11.4933 10.8733 11.52 10.86C11.56 10.8333 11.6 10.82 11.64 10.82C11.6933 10.8067 11.7533 10.7867 11.82 10.76L12.02 10.7C12.0867 10.6733 12.1333 10.64 12.16 10.6C12.2133 10.5467 12.24 10.5 12.24 10.46L12.38 10.3C12.4733 10.1933 12.56 10.0667 12.64 9.92L13.14 9.28L13.32 9.02L13.46 8.8L13.76 8.38L13.84 8.2C13.8667 8.06667 13.8933 7.96667 13.92 7.9L14 7.6C14.0267 7.54667 14.0533 7.52 14.08 7.52C14.1333 7.52 14.1533 7.54 14.14 7.58C14.14 7.62 14.1267 7.66667 14.1 7.72C14.1 7.74667 14.0933 7.77333 14.08 7.8C14.12 7.76 14.14 7.72 14.14 7.68C14.1533 7.64 14.1733 7.60667 14.2 7.58C14.2267 7.59333 14.24 7.60667 14.24 7.62C14.24 7.64667 14.2333 7.67333 14.22 7.7C14.22 7.71333 14.22 7.73333 14.22 7.76C14.1933 7.84 14.1933 7.92 14.22 8C14.3133 8.05333 14.3333 8.13333 14.28 8.24C14.2533 8.34667 14.24 8.45333 14.24 8.56C14.24 8.65333 14.24 8.75333 14.24 8.86C14.2267 8.9 14.22 8.96 14.22 9.04L14.16 9.44L14.16 9.84C14.1333 9.92 14.12 9.98667 14.12 10.04L14.12 10.14C14.1467 10.14 14.16 10.1467 14.16 10.16C14.16 10.16 14.1733 10.16 14.2 10.16C14.24 10.16 14.2733 10.1667 14.3 10.18C14.34 10.18 14.38 10.1867 14.42 10.2C14.4467 10.2 14.4867 10.2267 14.54 10.28C14.54 10.2933 14.5333 10.3067 14.52 10.32L14.5 10.32C14.4333 10.2933 14.3667 10.28 14.3 10.28C14.2467 10.2667 14.1867 10.26 14.12 10.26L14.12 10.34C14.1467 10.34 14.16 10.3467 14.16 10.36C14.1733 10.36 14.1867 10.36 14.2 10.36C14.2533 10.36 14.3 10.3667 14.34 10.38C14.3933 10.38 14.44 10.38 14.48 10.38C14.52 10.3933 14.56 10.4 14.6 10.4C14.6533 10.4267 14.6867 10.4533 14.7 10.48L14.76 10.56L14.72 10.64L14.52 10.64C14.4267 10.64 14.36 10.6467 14.32 10.66C14.2133 10.66 14.1333 10.6667 14.08 10.68C14.0667 10.72 14.06 10.7867 14.06 10.88L14.06 11.02C14.0333 11.0867 14.02 11.1533 14.02 11.22C14.02 11.2733 14.02 11.3333 14.02 11.4C14.02 11.44 14.0133 11.4733 14 11.5L13.96 11.84L13.92 11.98C13.92 12.1 13.9133 12.1867 13.9 12.24L13.84 12.62C13.84 12.6733 13.8333 12.72 13.82 12.76C13.8067 12.8 13.8 12.8467 13.8 12.9C13.8 12.9667 13.7933 13.0267 13.78 13.08C13.7667 13.1333 13.76 13.1933 13.76 13.26C13.7467 13.3267 13.74 13.4133 13.74 13.52C13.74 13.64 13.72 13.7667 13.68 13.9L13.68 14.06L13.64 14.32C13.6133 14.44 13.6067 14.5267 13.62 14.58C13.6067 14.6067 13.58 14.6 13.54 14.56C13.5267 14.5333 13.52 14.48 13.52 14.4C13.52 14.3333 13.52 14.2733 13.52 14.22C13.5333 14.1533 13.5533 14.0867 13.58 14.02C13.5667 13.94 13.5667 13.8667 13.58 13.8C13.5933 13.72 13.6067 13.64 13.62 13.56C13.6333 13.5333 13.64 13.5 13.64 13.46C13.64 13.42 13.6533 13.3867 13.68 13.36L13.68 13.1C13.7067 13.0333 13.7133 12.9867 13.7 12.96C13.7267 12.9067 13.7333 12.8533 13.72 12.8C13.72 12.7467 13.7267 12.6933 13.74 12.64C13.7533 12.6 13.76 12.5533 13.76 12.5C13.76 12.4467 13.76 12.3933 13.76 12.34C13.76 12.2867 13.76 12.24 13.76 12.2C13.7733 12.1467 13.78 12.0933 13.78 12.04C13.8067 11.92 13.82 11.8 13.82 11.68C13.8333 11.56 13.8467 11.44 13.86 11.32C13.8733 11.2933 13.8733 11.2667 13.86 11.24C13.86 11.2 13.86 11.16 13.86 11.12L13.86 11.1C13.86 11.0867 13.8733 11.0667 13.9 11.04C13.9133 11.04 13.9067 11.0333 13.88 11.02C13.8667 11.0067 13.8733 10.9867 13.9 10.96L13.9 10.7L13.82 10.7C13.8067 10.7133 13.8 10.7333 13.8 10.76L13.7 11.38L13.66 11.84C13.6467 11.9467 13.64 12.0533 13.64 12.16C13.64 12.2667 13.6267 12.3733 13.6 12.48L13.6 12.64C13.5867 12.7467 13.5733 12.8533 13.56 12.96C13.56 13.0533 13.5467 13.1533 13.52 13.26C13.52 13.3133 13.52 13.3667 13.52 13.42C13.52 13.4733 13.5133 13.5333 13.5 13.6L13.46 13.98C13.4467 14.0467 13.44 14.14 13.44 14.26C13.44 14.34 13.4467 14.4 13.46 14.44C13.4467 14.4533 13.4333 14.46 13.42 14.46L13.36 14.46L13.32 14.5ZM12.44 10.36C12.52 10.36 12.5933 10.32 12.66 10.24C12.7 10.2 12.72 10.1733 12.72 10.16L12.96 9.86L13.2 9.58C13.28 9.48667 13.3533 9.39333 13.42 9.3C13.4867 9.20667 13.5533 9.12 13.62 9.04C13.6467 9 13.6667 8.96 13.68 8.92C13.6933 8.88 13.7067 8.84667 13.72 8.82C13.7467 8.71333 13.76 8.63333 13.76 8.58C13.76 8.56667 13.7533 8.56 13.74 8.56C13.7 8.6 13.68 8.62667 13.68 8.64C13.6133 8.72 13.5533 8.8 13.5 8.88C13.4467 8.96 13.3933 9.04 13.34 9.12L12.5 10.24L12.44 10.36ZM13.42 9.64C13.42 9.61333 13.4333 9.57333 13.46 9.52C13.5 9.46667 13.5467 9.38667 13.6 9.28C13.6133 9.28 13.6133 9.26 13.6 9.22L13.42 9.5C13.38 9.55333 13.34 9.60667 13.3 9.66C13.2733 9.71333 13.24 9.77333 13.2 9.84C13.16 9.89333 13.12 9.94667 13.08 10C13.0533 10.04 13.0267 10.0867 13 10.14C12.9733 10.1667 12.96 10.1867 12.96 10.2C13.0133 10.1867 13.04 10.1933 13.04 10.22C13.08 10.2333 13.12 10.2333 13.16 10.22C13.2 10.2067 13.24 10.1933 13.28 10.18C13.3067 10.18 13.34 10.18 13.38 10.18C13.42 10.1667 13.46 10.16 13.5 10.16C13.5267 10.04 13.5467 9.92 13.56 9.8C13.5733 9.68 13.5867 9.56667 13.6 9.46L13.6 9.4C13.5467 9.45333 13.5133 9.49333 13.5 9.52C13.4733 9.54667 13.4467 9.58667 13.42 9.64ZM13.44 10.7C13.4 10.7133 13.3467 10.72 13.28 10.72L13.1 10.78C12.9933 10.8067 12.9133 10.82 12.86 10.82L12.6 10.9L12.5 10.96C12.4867 10.96 12.48 10.9733 12.48 11C12.5067 11 12.52 11 12.52 11C12.6667 10.9733 12.8067 10.9467 12.94 10.92C13.0733 10.8933 13.2133 10.8733 13.36 10.86C13.3867 10.8333 13.4133 10.82 13.44 10.82L13.44 10.7ZM14.14 8.6C14.1133 8.62667 14.0933 8.66 14.08 8.7C14.08 8.72667 14.0733 8.76 14.06 8.8C14.0333 8.97333 14.0067 9.14667 13.98 9.32C13.9667 9.49333 13.9467 9.66667 13.92 9.84C13.8933 9.94667 13.88 10.0267 13.88 10.08C13.88 10.0933 13.88 10.1067 13.88 10.12C13.8933 10.12 13.9 10.1333 13.9 10.16L13.96 10.12L13.96 10.04C13.9867 9.93333 14 9.84 14 9.76C14 9.68 14.0067 9.58667 14.02 9.48L14.1 8.88C14.1133 8.84 14.1267 8.8 14.14 8.76C14.1533 8.70667 14.1533 8.65333 14.14 8.6ZM13.5 10.32C13.46 10.32 13.42 10.32 13.38 10.32C13.3533 10.3067 13.32 10.3067 13.28 10.32L12.96 10.32L12.96 10.38C12.9333 10.3933 12.9067 10.4 12.88 10.4C12.8667 10.4133 12.8533 10.4267 12.84 10.44C12.8267 10.44 12.82 10.4533 12.82 10.48L12.96 10.48C13.0133 10.48 13.0933 10.4667 13.2 10.44C13.3067 10.4133 13.3933 10.4 13.46 10.4L13.5 10.32ZM12.1 11.72C11.98 11.9067 11.8533 12.0933 11.72 12.28C11.6 12.4533 11.4667 12.6267 11.32 12.8C11.2933 12.7867 11.2933 12.7667 11.32 12.74C11.3867 12.66 11.4467 12.58 11.5 12.5C11.5533 12.42 11.6133 12.34 11.68 12.26C11.72 12.1933 11.7667 12.1267 11.82 12.06C11.8733 11.98 11.9333 11.9 12 11.82C12.0133 11.78 12.0467 11.7333 12.1 11.68L12.1 11.72ZM10.9 11.34C10.9533 11.3667 11.0133 11.3667 11.08 11.34C11.1867 11.3133 11.2867 11.2933 11.38 11.28C11.4733 11.2533 11.5733 11.2267 11.68 11.2C11.7067 11.2 11.7267 11.1933 11.74 11.18C11.7533 11.1667 11.76 11.1533 11.76 11.14C11.7067 11.14 11.5733 11.1667 11.36 11.22C11.1467 11.2733 10.9933 11.3133 10.9 11.34ZM12.24 10.64C12.3467 10.64 12.4267 10.5667 12.48 10.42C12.44 10.4067 12.4067 10.4133 12.38 10.44C12.3 10.52 12.2533 10.5867 12.24 10.64ZM13.34 14.04C13.3 14.1733 13.2933 14.2733 13.32 14.34L13.34 14.34C13.34 14.2867 13.34 14.24 13.34 14.2C13.3533 14.16 13.3533 14.1067 13.34 14.04ZM13.84 10.36C13.8933 10.36 13.92 10.3467 13.92 10.32C13.9467 10.32 13.94 10.3 13.9 10.26C13.86 10.2867 13.84 10.32 13.84 10.36ZM11.86 11.12C11.8867 11.1333 11.9267 11.1267 11.98 11.1C11.94 11.1 11.9 11.1067 11.86 11.12ZM11.52 11.58C11.52 11.54 11.5333 11.52 11.56 11.52C11.56 11.5333 11.5467 11.5533 11.52 11.58ZM13.36 13.92L13.36 13.98C13.36 13.98 13.36 13.96 13.36 13.92ZM12.1 11.68C12.1 11.68 12.1133 11.6667 12.14 11.64C12.14 11.6533 12.1333 11.6667 12.12 11.68L12.1 11.68ZM18.1058 8.96C18.1858 8.90667 18.2324 8.84667 18.2458 8.78L18.2458 8.76L18.2058 8.8C18.2458 8.74667 18.2791 8.69333 18.3058 8.64C18.3458 8.58667 18.3791 8.53333 18.4058 8.48C18.4324 8.42667 18.4591 8.4 18.4858 8.4C18.5124 8.4 18.5324 8.40667 18.5458 8.42L18.5658 8.44C18.5791 8.46667 18.5924 8.48667 18.6058 8.5C18.6191 8.51333 18.6191 8.53333 18.6058 8.56L18.6058 8.6C18.5791 8.72 18.5458 8.82 18.5058 8.9L18.2258 9.52L18.1058 9.76C18.0791 9.81333 18.0524 9.87333 18.0258 9.94C17.9991 9.99333 17.9724 10.0467 17.9458 10.1L17.8858 10.24L17.8458 10.24L17.8458 10.26C17.8458 10.2867 17.8324 10.3 17.8058 10.3C17.8058 10.3 17.8058 10.3133 17.8058 10.34C17.8191 10.3267 17.8324 10.32 17.8458 10.32C17.8458 10.3467 17.8391 10.3733 17.8258 10.4L17.8058 10.42C17.8058 10.4333 17.7991 10.44 17.7858 10.44C17.7858 10.4267 17.7858 10.42 17.7858 10.42C17.7991 10.4067 17.8058 10.3933 17.8058 10.38C17.7924 10.3667 17.7791 10.3667 17.7658 10.38L17.6858 10.54L17.6458 10.7L17.6458 10.78C17.6458 10.7533 17.6324 10.7533 17.6058 10.78C17.6058 10.7933 17.6124 10.8 17.6258 10.8C17.6124 10.8 17.6058 10.8133 17.6058 10.84L17.6058 10.94C17.6058 10.9667 17.5991 10.9933 17.5858 11.02C17.5724 11.0333 17.5591 11.0533 17.5458 11.08L17.1458 12.1L17.1058 12.22C17.1191 12.2333 17.1258 12.2333 17.1258 12.22C17.1258 12.2067 17.1324 12.2 17.1458 12.2C17.1458 12.2 17.1591 12.2067 17.1858 12.22C17.1991 12.22 17.2058 12.2133 17.2058 12.2C17.2058 12.1867 17.2191 12.1533 17.2458 12.1L17.3058 11.96C17.3058 11.9867 17.3124 12.0133 17.3258 12.04C17.3124 12.04 17.3058 12.0533 17.3058 12.08L17.2658 12.16L17.1658 12.4L17.1058 12.64C17.0524 12.72 17.0058 12.8267 16.9658 12.96C16.9524 13.0267 16.9324 13.0933 16.9058 13.16C16.8791 13.2133 16.8524 13.2733 16.8258 13.34C16.8124 13.3533 16.8058 13.38 16.8058 13.42C16.7658 13.4467 16.7458 13.48 16.7458 13.52L16.7058 13.68C16.6924 13.68 16.6791 13.7 16.6658 13.74C16.6658 13.7533 16.6591 13.7667 16.6458 13.78C16.6458 13.8067 16.6391 13.8333 16.6258 13.86C16.6258 13.8733 16.6191 13.8933 16.6058 13.92C16.6058 13.9333 16.5991 13.9467 16.5858 13.96C16.5858 13.9733 16.5858 13.9867 16.5858 14L16.4658 14.38C16.4524 14.4067 16.4391 14.4333 16.4258 14.46C16.4124 14.4867 16.4058 14.5133 16.4058 14.54L16.3258 14.76L16.2458 14.96L16.2458 15.02C16.2458 15.0467 16.2324 15.0733 16.2058 15.1C16.1791 15.1267 16.1658 15.1667 16.1658 15.22C16.1391 15.2867 16.1124 15.36 16.0858 15.44C16.0591 15.52 16.0324 15.6 16.0058 15.68L15.9458 15.76C15.9191 15.8 15.8858 15.82 15.8458 15.82C15.8191 15.7933 15.8058 15.7533 15.8058 15.7L15.6058 15.86C15.5524 15.8333 15.5258 15.8 15.5258 15.76C15.4991 15.72 15.4858 15.68 15.4858 15.64C15.4991 15.6 15.5124 15.5533 15.5258 15.5C15.5391 15.5 15.5458 15.4933 15.5458 15.48C15.5591 15.48 15.5724 15.48 15.5858 15.48C15.5991 15.4533 15.6058 15.42 15.6058 15.38L16.0058 13.98C16.0724 13.78 16.1324 13.58 16.1858 13.38C16.2524 13.18 16.3191 12.9867 16.3858 12.8L16.5258 12.34C16.5524 12.3133 16.5658 12.2533 16.5658 12.16L16.5658 12.08L16.6458 11.86L16.7058 11.7L16.7858 11.52C16.7991 11.48 16.8124 11.44 16.8258 11.4C16.8524 11.36 16.8724 11.3133 16.8858 11.26C16.9391 11.14 16.9858 11.02 17.0258 10.9L17.2058 10.4C17.2324 10.36 17.2591 10.3 17.2858 10.22C17.2858 10.2067 17.2791 10.2067 17.2658 10.22C17.2658 10.22 17.2658 10.2267 17.2658 10.24C17.2391 10.2667 17.2191 10.2933 17.2058 10.32C17.1924 10.3467 17.1724 10.3733 17.1458 10.4C17.1058 10.4533 17.0658 10.5133 17.0258 10.58C16.9991 10.6333 16.9591 10.6867 16.9058 10.74C16.8924 10.78 16.8591 10.8267 16.8058 10.88L16.3258 11.48L15.8058 12.16C15.6858 12.32 15.5591 12.48 15.4258 12.64C15.3058 12.8 15.1791 12.96 15.0458 13.12C15.0324 13.16 15.0058 13.2 14.9658 13.24L14.9658 13.34L14.9858 13.34C15.0258 13.2867 15.0591 13.2333 15.0858 13.18C15.1258 13.1267 15.1658 13.08 15.2058 13.04C15.4191 12.7333 15.6324 12.4667 15.8458 12.24C15.8991 12.16 15.9524 12.0933 16.0058 12.04C16.0591 11.9733 16.1124 11.9067 16.1658 11.84L16.2858 11.68C16.3124 11.68 16.3258 11.6667 16.3258 11.64C16.3258 11.6533 16.3324 11.6667 16.3458 11.68L16.3058 11.76L16.1058 12C16.0924 12.0267 16.0858 12.0467 16.0858 12.06C16.0858 12.0733 16.0791 12.0867 16.0658 12.1L15.9858 12.2C15.9591 12.2267 15.9324 12.26 15.9058 12.3C15.8924 12.34 15.8724 12.3733 15.8458 12.4C15.7658 12.4933 15.6924 12.5933 15.6258 12.7C15.5591 12.7933 15.4858 12.8933 15.4058 13C15.3524 13.0667 15.3058 13.1267 15.2658 13.18C15.2391 13.2333 15.2058 13.2933 15.1658 13.36C15.1391 13.4 15.1124 13.44 15.0858 13.48C15.0591 13.5067 15.0324 13.54 15.0058 13.58C14.9791 13.62 14.9191 13.64 14.8258 13.64L14.7458 13.64C14.7324 13.64 14.7258 13.6267 14.7258 13.6L14.6258 13.6C14.5991 13.6 14.5724 13.5867 14.5458 13.56C14.4924 13.56 14.4658 13.56 14.4658 13.56C14.4258 13.5333 14.3924 13.5 14.3658 13.46L14.3658 13.28C14.3924 13.1733 14.4124 13.0733 14.4258 12.98C14.4391 12.8867 14.4591 12.7933 14.4858 12.7C14.5258 12.5533 14.5658 12.4133 14.6058 12.28C14.6458 12.1333 14.6924 11.9867 14.7458 11.84C14.7858 11.6933 14.8324 11.5533 14.8858 11.42C14.9391 11.2867 14.9924 11.1533 15.0458 11.02L15.5258 9.94C15.5524 9.87333 15.5724 9.80667 15.5858 9.74C15.6124 9.67333 15.6458 9.60667 15.6858 9.54C15.6858 9.47333 15.6924 9.42 15.7058 9.38C15.7324 9.34 15.7591 9.29333 15.7858 9.24C15.8391 9.13333 15.8924 9.04 15.9458 8.96C15.9991 8.86667 16.0458 8.76667 16.0858 8.66C16.1258 8.60667 16.1791 8.56667 16.2458 8.54C16.2724 8.55333 16.2791 8.56667 16.2658 8.58C16.2524 8.59333 16.2524 8.61333 16.2658 8.64C16.2924 8.61333 16.3058 8.59333 16.3058 8.58C16.3191 8.56667 16.3324 8.54667 16.3458 8.52C16.3591 8.52 16.3658 8.52667 16.3658 8.54C16.3658 8.54 16.3724 8.54 16.3858 8.54L16.4058 8.56C16.4058 8.6 16.3991 8.64 16.3858 8.68C16.3724 8.70667 16.3591 8.73333 16.3458 8.76C16.3324 8.8 16.3191 8.83333 16.3058 8.86C16.2924 8.88667 16.2791 8.92 16.2658 8.96C16.3058 8.93333 16.3391 8.9 16.3658 8.86C16.4058 8.82 16.4458 8.78667 16.4858 8.76C16.5124 8.78667 16.5324 8.8 16.5458 8.8C16.5458 8.85333 16.5458 8.88 16.5458 8.88L16.4858 9.06L16.3658 9.4C16.3391 9.44 16.3258 9.48 16.3258 9.52C16.3258 9.54667 16.3124 9.58 16.2858 9.62C16.2591 9.66 16.2391 9.7 16.2258 9.74C16.2258 9.78 16.2058 9.81333 16.1658 9.84C16.1658 9.89333 16.1458 9.94667 16.1058 10C16.0791 10.0667 16.0524 10.1333 16.0258 10.2C16.0124 10.2533 15.9924 10.32 15.9658 10.4L15.9058 10.58L15.8258 10.8C15.7858 10.8667 15.7658 10.9333 15.7658 11C15.7124 11.04 15.6858 11.0933 15.6858 11.16C15.6858 11.2267 15.6658 11.2867 15.6258 11.34C15.6124 11.3667 15.5991 11.4 15.5858 11.44C15.5858 11.48 15.5724 11.52 15.5458 11.56C15.5324 11.6267 15.4991 11.7267 15.4458 11.86C15.4191 11.8867 15.4058 11.9133 15.4058 11.94C15.4058 11.9533 15.3991 11.9733 15.3858 12L15.3258 12.18C15.2991 12.22 15.2791 12.2667 15.2658 12.32C15.2658 12.36 15.2591 12.4 15.2458 12.44C15.2324 12.4533 15.2324 12.4667 15.2458 12.48C15.2724 12.4533 15.2858 12.4333 15.2858 12.42C15.4058 12.26 15.5258 12.1067 15.6458 11.96C15.7791 11.8133 15.9124 11.6667 16.0458 11.52C16.0991 11.4667 16.1458 11.4133 16.1858 11.36C16.2258 11.3067 16.2658 11.2533 16.3058 11.2L16.4058 11.12L16.4058 11.1L16.4258 11.1C16.4391 11.1 16.4591 11.0867 16.4858 11.06C16.5124 11.0467 16.5524 11 16.6058 10.92C16.7124 10.8133 16.8058 10.7 16.8858 10.58C16.9658 10.46 17.0524 10.34 17.1458 10.22C17.1458 10.2067 17.1658 10.2 17.2058 10.2C17.2324 10.16 17.2591 10.1267 17.2858 10.1C17.3124 10.06 17.3391 10.0067 17.3658 9.94L17.6058 9.44L17.6058 9.42C17.5924 9.42 17.5724 9.43333 17.5458 9.46C17.5324 9.51333 17.4991 9.54667 17.4458 9.56L17.5658 9.38L17.8258 8.98C17.8791 8.91333 17.9191 8.83333 17.9458 8.74C17.9991 8.62 18.0724 8.50667 18.1658 8.4C18.1924 8.37333 18.2124 8.34667 18.2258 8.32C18.2524 8.28 18.2791 8.25333 18.3058 8.24C18.3324 8.24 18.3591 8.24667 18.3858 8.26C18.3858 8.27333 18.3858 8.28 18.3858 8.28C18.3991 8.28 18.4058 8.28667 18.4058 8.3L18.4058 8.32C18.3791 8.4 18.3391 8.48 18.2858 8.56C18.2458 8.64 18.2058 8.72 18.1658 8.8L18.2058 8.8C18.1791 8.85333 18.1658 8.88 18.1658 8.88C18.1258 8.92 18.1058 8.94667 18.1058 8.96ZM15.6858 10.56C15.6858 10.5733 15.6791 10.5867 15.6658 10.6C15.6658 10.6 15.6658 10.6133 15.6658 10.64C15.6658 10.64 15.6724 10.6267 15.6858 10.6L15.9058 10.16C15.9058 10.1467 15.9058 10.1333 15.9058 10.12C15.9191 10.1067 15.9258 10.0933 15.9258 10.08C15.9524 10.0533 15.9658 10.0267 15.9658 10C15.9658 9.97333 15.9724 9.95333 15.9858 9.94C15.9991 9.92667 16.0058 9.91333 16.0058 9.9C16.0458 9.83333 16.0791 9.76 16.1058 9.68C16.1458 9.58667 16.1791 9.49333 16.2058 9.4C16.2191 9.37333 16.2258 9.34 16.2258 9.3C16.2391 9.26 16.2591 9.22 16.2858 9.18C16.3124 9.12667 16.3258 9.08 16.3258 9.04C16.3258 9.05333 16.3124 9.07333 16.2858 9.1C16.2458 9.12667 16.2124 9.16667 16.1858 9.22C16.1591 9.26 16.1324 9.30667 16.1058 9.36C16.0791 9.4 16.0524 9.44667 16.0258 9.5C16.0124 9.55333 15.9924 9.61333 15.9658 9.68C15.8991 9.8 15.8458 9.92 15.8058 10.04C15.7658 10.16 15.7124 10.28 15.6458 10.4C15.5391 10.6267 15.4391 10.86 15.3458 11.1C15.2391 11.38 15.1324 11.66 15.0258 11.94C14.9191 12.22 14.8258 12.5 14.7458 12.78C14.7324 12.8467 14.7191 12.9133 14.7058 12.98C14.6924 13.0467 14.6724 13.12 14.6458 13.2L14.6458 13.24C14.6991 13.2133 14.7391 13.1467 14.7658 13.04C14.7924 12.9333 14.8258 12.8267 14.8658 12.72C14.8924 12.6133 14.9258 12.5067 14.9658 12.4C15.0324 12.2 15.0924 12 15.1458 11.8C15.2124 11.6 15.2924 11.4 15.3858 11.2L15.7058 10.44C15.7191 10.44 15.7258 10.4333 15.7258 10.42C15.7258 10.42 15.7324 10.4133 15.7458 10.4C15.7324 10.4133 15.7124 10.4667 15.6858 10.56ZM17.0058 12.3C16.9924 12.3 16.9791 12.3067 16.9658 12.32L16.9658 12.24C16.9391 12.24 16.9124 12.2533 16.8858 12.28C16.8724 12.3067 16.8591 12.3333 16.8458 12.36C16.8458 12.3867 16.8324 12.4133 16.8058 12.44L16.8058 12.48C16.7791 12.52 16.7591 12.56 16.7458 12.6C16.7458 12.64 16.7391 12.6733 16.7258 12.7C16.6991 12.7533 16.6791 12.8 16.6658 12.84C16.6524 12.88 16.6391 12.92 16.6258 12.96C16.5591 13.1333 16.4991 13.3067 16.4458 13.48C16.4058 13.64 16.3591 13.8133 16.3058 14L15.9258 15.28C15.8991 15.3867 15.8724 15.46 15.8458 15.5C15.8858 15.54 15.9058 15.58 15.9058 15.62C15.9058 15.6067 15.9058 15.6 15.9058 15.6C15.9191 15.6 15.9258 15.5933 15.9258 15.58L16.0658 15.22C16.0791 15.18 16.0924 15.1333 16.1058 15.08C16.1191 15.04 16.1391 15 16.1658 14.96C16.1658 14.8933 16.1658 14.86 16.1658 14.86C16.1924 14.8333 16.2058 14.82 16.2058 14.82C16.2324 14.7533 16.2524 14.6933 16.2658 14.64C16.2924 14.5867 16.3124 14.5267 16.3258 14.46L16.3258 14.42C16.3124 14.42 16.3058 14.4333 16.3058 14.46C16.2658 14.5 16.2458 14.54 16.2458 14.58C16.2458 14.6067 16.2391 14.64 16.2258 14.68C16.2124 14.7067 16.1991 14.7333 16.1858 14.76L16.1858 14.72C16.2258 14.56 16.2658 14.4067 16.3058 14.26C16.3591 14.1 16.4124 13.9467 16.4658 13.8C16.4924 13.72 16.5191 13.6467 16.5458 13.58C16.5724 13.5 16.5991 13.4267 16.6258 13.36C16.6524 13.2533 16.6791 13.1533 16.7058 13.06C16.7458 12.9667 16.7858 12.8733 16.8258 12.78C16.8524 12.7533 16.8658 12.72 16.8658 12.68C16.8658 12.64 16.8724 12.6067 16.8858 12.58C16.8991 12.5667 16.9058 12.5467 16.9058 12.52C16.9458 12.48 16.9658 12.44 16.9658 12.4C16.9924 12.32 17.0058 12.2867 17.0058 12.3ZM17.6858 10.04C17.6991 10.04 17.7124 10.0333 17.7258 10.02C17.7524 9.99333 17.7658 9.96667 17.7658 9.94C17.7658 9.9 17.7791 9.86667 17.8058 9.84C17.8324 9.76 17.8591 9.69333 17.8858 9.64L18.0858 9.2L18.0858 9.12C18.0591 9.14667 18.0458 9.16 18.0458 9.16C17.9924 9.22667 17.9391 9.3 17.8858 9.38C17.8458 9.44667 17.8058 9.52667 17.7658 9.62C17.7258 9.71333 17.6858 9.80667 17.6458 9.9C17.6058 9.98 17.5724 10.0667 17.5458 10.16C17.5324 10.1867 17.5191 10.2133 17.5058 10.24C17.4924 10.2667 17.4724 10.2933 17.4458 10.32C17.4458 10.3333 17.4391 10.3467 17.4258 10.36C17.4124 10.36 17.4058 10.3667 17.4058 10.38L17.3458 10.56L17.0458 11.24C17.0058 11.3733 16.9591 11.5067 16.9058 11.64C16.8658 11.76 16.8191 11.88 16.7658 12C16.7524 12.0267 16.7458 12.0467 16.7458 12.06C16.7458 12.0733 16.7391 12.0867 16.7258 12.1L16.7258 12.14C16.7924 12.1 16.8391 12.0733 16.8658 12.06C16.8658 12.02 16.8791 11.9733 16.9058 11.92C16.9724 11.7733 17.0191 11.6467 17.0458 11.54L17.5858 10.28L17.6258 10.2L17.6258 10.18C17.6258 10.1533 17.6391 10.1267 17.6658 10.1C17.6658 10.1 17.6724 10.0867 17.6858 10.06L17.6858 10.04ZM16.3258 14.42C16.3258 14.4067 16.3258 14.4 16.3258 14.4C16.3391 14.4 16.3458 14.3933 16.3458 14.38C16.3591 14.3533 16.3724 14.3267 16.3858 14.3C16.3991 14.2733 16.4058 14.2467 16.4058 14.22C16.4324 14.1533 16.4591 14.08 16.4858 14C16.4858 13.9733 16.4791 13.9533 16.4658 13.94C16.4391 13.9933 16.4258 14.02 16.4258 14.02C16.4258 14.06 16.4191 14.08 16.4058 14.08C16.3791 14.1867 16.3524 14.2667 16.3258 14.32L16.3258 14.42ZM15.8258 14.32C15.8258 14.3733 15.8124 14.4267 15.7858 14.48C15.7724 14.5733 15.7391 14.68 15.6858 14.8C15.6858 14.8133 15.6791 14.8267 15.6658 14.84L15.6658 14.8C15.6924 14.72 15.7058 14.6667 15.7058 14.64C15.7458 14.5867 15.7658 14.5267 15.7658 14.46L15.8258 14.32ZM15.8258 14.32C15.8258 14.2933 15.8258 14.2667 15.8258 14.24C15.8391 14.2133 15.8458 14.1867 15.8458 14.16C15.8724 14.12 15.8858 14.08 15.8858 14.04C15.8991 13.9867 15.9124 13.94 15.9258 13.9C15.9258 13.86 15.9391 13.84 15.9658 13.84C15.9658 13.88 15.9591 13.9067 15.9458 13.92L15.8258 14.32ZM17.3858 11.78C17.3858 11.8067 17.3791 11.8267 17.3658 11.84C17.3658 11.84 17.3658 11.8533 17.3658 11.88C17.3658 11.92 17.3591 11.9467 17.3458 11.96L17.3058 11.96C17.3324 11.88 17.3591 11.82 17.3858 11.78ZM17.8858 10.24C17.8858 10.28 17.8724 10.3067 17.8458 10.32C17.8458 10.28 17.8591 10.2533 17.8858 10.24ZM16.8658 10.72C16.8258 10.72 16.8058 10.74 16.8058 10.78C16.8458 10.7667 16.8658 10.7467 16.8658 10.72ZM16.9058 10.64C16.8791 10.64 16.8658 10.66 16.8658 10.7C16.8924 10.7 16.9058 10.68 16.9058 10.64ZM16.5058 13.84C16.4924 13.8667 16.4858 13.8933 16.4858 13.92C16.4858 13.92 16.4924 13.9133 16.5058 13.9L16.5058 13.88L16.5058 13.84ZM14.7658 13.56C14.7924 13.5333 14.7924 13.52 14.7658 13.52L14.7658 13.56ZM18.1058 9.04C18.0924 9.04 18.0858 9.05333 18.0858 9.08L18.1058 9.04ZM15.6258 14.98L15.6058 14.98C15.6058 14.9667 15.6124 14.96 15.6258 14.96L15.6258 14.98ZM17.7458 10.58C17.7458 10.5933 17.7391 10.6 17.7258 10.6C17.7258 10.6 17.7258 10.6067 17.7258 10.62C17.7258 10.6067 17.7324 10.5933 17.7458 10.58ZM16.4058 11.56L16.4058 11.58C16.3924 11.5933 16.3791 11.6 16.3658 11.6C16.3791 11.6 16.3924 11.5867 16.4058 11.56ZM16.5658 13.74L16.5458 13.74L16.5458 13.76L16.5658 13.74ZM17.7658 10.52L17.7658 10.48L17.7658 10.52ZM16.0458 13.58L16.0258 13.58L16.0458 13.56L16.0458 13.58ZM16.0058 13.76C15.9924 13.76 15.9924 13.7533 16.0058 13.74L16.0058 13.76ZM16.3658 11.6C16.3658 11.6 16.3591 11.6067 16.3458 11.62L16.3658 11.6ZM17.6058 9.4C17.6058 9.41333 17.6058 9.42 17.6058 9.42L17.6058 9.4ZM15.6458 10.68L15.6458 10.7C15.6458 10.7 15.6458 10.6933 15.6458 10.68ZM16.3458 11.64L16.3258 11.64L16.3458 11.64ZM17.6658 10.1L17.6858 10.12L17.6858 10.1L17.6658 10.1ZM17.4658 10.24L17.4658 10.26C17.4658 10.2467 17.4658 10.24 17.4658 10.24Z" fill="#6698FA"/>
</svg>
