<svg width="44" height="20" viewBox="0 0 44 20" fill="none" xmlns="http://www.w3.org/2000/svg">
<path d="M0.62 15.04C0.6 15.04 0.6 15.02 0.6 15L0.6 14.66C0.6 14.64 0.6 14.62 0.62 14.62C1.08 14.62 1.46 14.26 1.46 13.8L1.46 5.72C1.18 5.52 0.88 5.4 0.62 5.4C0.6 5.4 0.6 5.4 0.6 5.38L0.6 5.02C0.6 5.02 0.6 5.02 0.6 5L0.62 5L1.26 5L1.48 5L1.84 5L3.34 5C3.36 5 3.36 5 3.36 5.02L8.76 13.78C8.78 13.84 8.82 13.9 8.88 13.96L8.88 6.24C8.88 5.78 8.5 5.4 8.04 5.4C8.02 5.4 8.02 5.4 8.02 5.38L8.02 5.02C8.02 5.02 8.02 5 8.04 5L8.9 5L9.26 5L10.12 5L10.14 5.02L10.14 5.38C10.14 5.4 10.12 5.4 10.12 5.4C9.66 5.4 9.28 5.78 9.28 6.24L9.28 14.32C9.56 14.52 9.86 14.62 10.12 14.62C10.14 14.62 10.14 14.64 10.14 14.66L10.14 15C10.14 15.02 10.14 15.04 10.12 15.04L9.46 15.04L7.38 15.04C7.38 15.04 7.36 15.04 7.36 15.02L1.98 6.26C1.94 6.2 1.9 6.14 1.86 6.1L1.86 13.8C1.86 14.26 2.24 14.62 2.7 14.62C2.7 14.62 2.72 14.64 2.72 14.66L2.72 15C2.72 15.02 2.7 15.04 2.7 15.04L0.62 15.04ZM14.0419 1.42C13.5819 1.42 13.2019 1.8 13.2019 2.26L13.2019 17.78C13.2019 18.24 13.5819 18.62 14.0419 18.62C14.0619 18.62 14.0619 18.62 14.0619 18.64L14.0619 19C14.0619 19.02 14.0619 19.02 14.0419 19.02L11.4019 19.02L10.5419 19.02C10.5219 19.02 10.5219 19.02 10.5219 19L10.5219 18.64C10.5219 18.64 10.5219 18.62 10.5419 18.62C11.0019 18.62 11.3819 18.24 11.3819 17.78L11.3819 2.26C11.3819 1.8 11.0019 1.42 10.5419 1.42C10.5219 1.42 10.5219 1.4 10.5219 1.4L10.5219 1.04C10.5219 1.02 10.5219 1.02 10.5419 1.02L11.4019 1.02L11.4019 0.999999L14.0419 0.999999C14.0619 0.999999 14.0619 1.02 14.0619 1.04L14.0619 1.4C14.0619 1.4 14.0619 1.42 14.0419 1.42ZM14.5067 15.04C14.4867 15.04 14.4867 15.02 14.4867 15L14.4867 14.66C14.4867 14.64 14.4867 14.62 14.5067 14.62C14.9667 14.62 15.3267 14.26 15.3467 13.8L15.3467 6.24C15.3267 5.78 14.9667 5.4 14.5067 5.4C14.4867 5.4 14.4867 5.4 14.4867 5.38L14.4867 5.02C14.4867 5.02 14.4867 5 14.5067 5L15.3667 5L17.1467 5L18.0067 5C18.0267 5 18.0267 5.02 18.0267 5.02L18.0267 5.38C18.0267 5.4 18.0267 5.4 18.0067 5.4C17.5467 5.4 17.1667 5.78 17.1667 6.24L17.1667 13.8C17.1667 13.82 17.1667 13.86 17.1667 13.88L17.1667 13.9C17.1667 13.92 17.1667 13.94 17.1667 13.96C17.1667 13.98 17.1667 13.98 17.1467 13.98C17.1467 14 17.1467 14.04 17.1467 14.06L17.1267 14.06C17.1267 14.1 17.1267 14.12 17.1067 14.14L17.1067 14.16C17.0867 14.18 17.0867 14.2 17.0667 14.22C17.0667 14.22 17.0667 14.22 17.0667 14.24C17.0467 14.26 17.0467 14.26 17.0267 14.28L17.0267 14.3C17.0067 14.32 16.9867 14.34 16.9667 14.36C16.9667 14.36 16.9667 14.36 16.9667 14.38C16.9467 14.38 16.9467 14.4 16.9267 14.42C16.9067 14.42 16.9067 14.44 16.9067 14.44C16.8867 14.44 16.8867 14.46 16.8667 14.48L16.8467 14.48C16.8267 14.5 16.8067 14.52 16.7867 14.54C16.7667 14.56 16.7467 14.56 16.7067 14.58C16.7067 14.58 16.7067 14.58 16.6867 14.58C16.6867 14.6 16.6667 14.6 16.6467 14.62L16.6267 14.62L16.6067 14.62L22.3667 14.62C22.8267 14.62 23.1867 14.26 23.1867 13.8C23.1867 13.78 23.2067 13.76 23.2267 13.76L23.5667 13.76C23.5867 13.76 23.6067 13.78 23.6067 13.8L23.6067 14.66L23.6067 15C23.6067 15.02 23.5867 15.04 23.5667 15.04L15.3667 15.04L14.5067 15.04ZM24.8192 15.04L24.7992 15.04C24.7992 15.02 24.7992 15.02 24.7992 15L24.7992 14.66C24.7992 14.64 24.7992 14.62 24.8192 14.62C25.2792 14.62 25.7992 14.26 25.9792 13.78L28.4992 7L29.2392 5.02C29.2392 5 29.2592 5 29.2592 5L29.6392 5L29.6592 5C29.6592 5 29.6592 5 29.6592 5.02C29.6592 5.02 29.6592 5.02 29.6792 5.02L33.2792 13.78C33.4792 14.26 33.9992 14.62 34.4592 14.62C34.4792 14.62 34.4992 14.64 34.4992 14.66L34.4992 15C34.4992 15.02 34.4992 15.02 34.4992 15.04C34.4792 15.04 34.4792 15.04 34.4592 15.04L33.7592 15.04L30.8192 15.04C30.7992 15.04 30.7992 15.02 30.7992 15L30.7992 14.66C30.7992 14.64 30.7992 14.62 30.8192 14.62C31.0192 14.62 31.1992 14.56 31.2792 14.42C31.3992 14.26 31.3992 14.04 31.2992 13.82L31.2992 13.8L30.7792 12.54L26.8792 12.54L26.3992 13.8C26.3192 14.04 26.3192 14.26 26.4392 14.4C26.5392 14.56 26.6992 14.62 26.9192 14.62L26.9392 14.64L26.9392 14.66L26.9392 15C26.9392 15.02 26.9392 15.04 26.9192 15.04L24.8192 15.04ZM30.6192 12.14L28.7192 7.56L27.0192 12.14L30.6192 12.14ZM32.9247 5.4C32.9047 5.4 32.9047 5.4 32.9047 5.38L32.9047 5.02C32.9047 5.02 32.9047 5 32.9247 5L35.0247 5C35.0447 5 35.0647 5.02 35.0647 5.02L35.0647 5.38C35.0647 5.4 35.0447 5.4 35.0247 5.4C34.8247 5.4 34.6447 5.48 34.5647 5.62C34.4647 5.78 34.4647 6 34.5447 6.22L36.9647 11.98L39.3647 6.22C39.4647 6 39.4647 5.78 39.3647 5.62C39.2647 5.48 39.1047 5.4 38.9047 5.4C38.8847 5.4 38.8647 5.4 38.8647 5.38L38.8647 5.02C38.8647 5.02 38.8847 5 38.9047 5L42.5447 5C42.5647 5 42.5847 5.02 42.5847 5.02L42.5847 5.38C42.5847 5.38 42.5847 5.4 42.5647 5.4C42.5647 5.4 42.5647 5.4 42.5447 5.4C42.0847 5.4 41.5447 5.78 41.3647 6.24L38.7247 12.52L38.7247 13.8C38.7247 14.26 39.1047 14.62 39.5647 14.62C39.5647 14.62 39.5847 14.64 39.5847 14.66L39.5847 15C39.5847 15.02 39.5647 15.04 39.5647 15.04L36.7647 15.04L35.9047 15.04C35.8847 15.04 35.8647 15.02 35.8647 15L35.8647 14.66C35.8647 14.64 35.8847 14.62 35.9047 14.62C36.3647 14.62 36.7247 14.26 36.7247 13.8L36.7247 12.52L34.1247 6.26C33.9247 5.78 33.3847 5.4 32.9247 5.4Z" fill="#6698FA"/>
</svg>
