<svg width="52" height="21" viewBox="0 0 52 21" fill="none" xmlns="http://www.w3.org/2000/svg">
<path d="M9.3 6.2L6.7 6.2L6.7 3.6L9.3 3.6L9.3 6.2ZM9.3 8.9L6.7 8.9L6.7 6.3L9.3 6.3L9.3 8.9ZM4.94 6.2L4 6.2L4 3.88L4.94 6.2ZM9.3 11.6L6.7 11.6L6.7 9L9.3 9L9.3 11.6ZM3.9 6.2L1.3 6.2L1.3 3.6L3.9 3.6L3.9 6.2ZM6.04 8.9L4 8.9L4 6.3L4.98 6.3L6.04 8.9ZM3.9 8.9L1.3 8.9L1.3 6.3L3.9 6.3L3.9 8.9ZM9.3 14.3L6.7 14.3L6.7 11.7L9.3 11.7L9.3 14.3ZM6.6 11.6L4.52 11.6L4 10.3L4 9L6.08 9L6.6 10.32L6.6 11.6ZM6.6 14.3L5.62 14.3L4.56 11.7L6.6 11.7L6.6 14.3ZM3.9 11.6L1.3 11.6L1.3 9L3.9 9L3.9 11.6ZM9.3 17L6.7 17L6.7 14.4L9.3 14.4L9.3 17ZM6.6 16.76L5.66 14.4L6.6 14.4L6.6 16.76ZM3.9 14.3L1.3 14.3L1.3 11.7L3.9 11.7L3.9 14.3ZM3.9 17L1.3 17L1.3 14.4L3.9 14.4L3.9 17ZM19.9055 6.2L17.3055 6.2L17.3055 3.6L19.9055 3.6L19.9055 6.2ZM17.2055 6.2L14.6055 6.2L14.6055 3.6L17.2055 3.6L17.2055 6.2ZM14.5055 6.2L11.9055 6.2L11.9055 3.6L14.5055 3.6L14.5055 6.2ZM17.2055 8.9L14.6055 8.9L14.6055 6.3L17.2055 6.3L17.2055 8.9ZM17.2055 11.6L14.6055 11.6L14.6055 9L17.2055 9L17.2055 11.6ZM17.2055 14.3L14.6055 14.3L14.6055 11.7L17.2055 11.7L17.2055 14.3ZM19.9055 17L17.3055 17L17.3055 14.4L19.9055 14.4L19.9055 17ZM17.2055 17L14.6055 17L14.6055 14.4L17.2055 14.4L17.2055 17ZM14.5055 17L11.9055 17L11.9055 14.4L14.5055 14.4L14.5055 17ZM25.1109 6.2L22.5109 6.2L22.5109 3.6L25.1109 3.6L25.1109 6.2ZM25.1109 8.9L22.5109 8.9L22.5109 6.3L25.1109 6.3L25.1109 8.9ZM25.1109 11.6L22.5109 11.6L22.5109 9L25.1109 9L25.1109 11.6ZM30.5109 17L27.9109 17L27.9109 14.4L30.5109 14.4L30.5109 17ZM25.1109 14.3L22.5109 14.3L22.5109 11.7L25.1109 11.7L25.1109 14.3ZM27.8109 17L25.2109 17L25.2109 14.4L27.8109 14.4L27.8109 17ZM25.1109 17L22.5109 17L22.5109 14.4L25.1109 14.4L25.1109 17ZM38.9364 6.2L38.5164 6.2L38.5164 4.12L38.9364 6.2ZM38.4164 6.2L35.8164 6.2L35.8164 3.6L38.4164 3.6L38.4164 6.2ZM39.4764 8.9L38.5164 8.9L38.5164 6.3L38.9564 6.3L39.4764 8.9ZM35.7164 6.2L35.2764 6.2L35.7164 3.98L35.7164 6.2ZM38.4164 8.9L35.8164 8.9L35.8164 6.3L38.4164 6.3L38.4164 8.9ZM40.0364 11.6L38.5164 11.6L38.5164 9L39.4964 9L40.0364 11.6ZM35.7164 8.9L34.7364 8.9L35.2564 6.3L35.7164 6.3L35.7164 8.9ZM38.4164 11.6L37.4364 11.6L37.1164 10.08L36.8164 11.6L35.8164 11.6L35.8164 9L38.4164 9L38.4164 11.6ZM40.5764 14.3L38.5164 14.3L38.5164 11.7L40.0564 11.7L40.5764 14.3ZM35.7164 11.6L34.1964 11.6L34.7164 9L35.7164 9L35.7164 11.6ZM38.4164 14.3L35.8164 14.3L35.8164 11.7L38.4164 11.7L38.4164 14.3ZM41.1164 17L38.5164 17L38.5164 14.4L40.5964 14.4L41.1164 17ZM38.4164 16.54L37.9964 14.4L38.4164 14.4L38.4164 16.54ZM35.7164 14.3L33.6564 14.3L34.1764 11.7L35.7164 11.7L35.7164 14.3ZM36.2564 14.4L35.8164 16.58L35.8164 14.4L36.2564 14.4ZM35.7164 17L33.1164 17L33.6364 14.4L35.7164 14.4L35.7164 17ZM49.8859 3.6L49.0059 6.2L47.2859 6.2L47.2859 3.6L49.8859 3.6ZM47.1859 6.2L46.4059 6.2L47.1859 3.9L47.1859 6.2ZM48.9859 6.3L48.0859 8.9L47.2859 8.9L47.2859 6.3L48.9859 6.3ZM45.3659 6.2L44.5859 6.2L44.5859 3.88L45.3659 6.2ZM44.4859 6.2L42.7659 6.2L41.8859 3.6L44.4859 3.6L44.4859 6.2ZM47.1859 8.9L44.5859 8.9L44.5859 6.3L45.4059 6.3L45.8859 7.74L46.3659 6.3L47.1859 6.3L47.1859 8.9ZM48.0659 9L47.2859 11.3L47.2859 9L48.0659 9ZM44.4859 8.9L43.6859 8.9L42.7859 6.3L44.4859 6.3L44.4859 8.9ZM47.1859 11.6L44.5859 11.6L44.5859 9L47.1859 9L47.1859 11.6ZM44.4859 9L44.4859 11.28L43.7059 9L44.4859 9ZM47.1859 14.3L44.5859 14.3L44.5859 11.7L47.1859 11.7L47.1859 14.3ZM47.1859 17L44.5859 17L44.5859 14.4L47.1859 14.4L47.1859 17Z" fill="#6698FA"/>
</svg>
