<svg width="46" height="21" viewBox="0 0 46 21" fill="none" xmlns="http://www.w3.org/2000/svg">
<path d="M2.24 5.52L3.98 5.02C3.98 6.36 3.98 7.56 4 8.64C4.94 6.84 6.2 5.28 7.52 5.28C9.2 5.28 10 6.4 10 6.48C10 8.64 10.1 11.72 10.26 13.82C10.36 15.2 10.5 16.14 10.66 16.14H9.56L8.02 14.54C8.18 14.54 8.26 13.46 8.26 7.34C8.26 7.34 8.08 6.6 6.84 6.6C5.84 6.6 4.82 7.82 4 9.3C4.1 14.12 4.36 16.14 4.64 16.14H3.52L1.98 14.54C2.12 14.54 2.2 13.48 2.22 9C2.22 8.64 1.24 7.86 1.14 7.86L1.04 7.54C1.22 7.54 2.24 6.78 2.24 5.52ZM15.8588 5.02C15.8588 12.96 16.1788 16.14 16.5188 16.14H15.3988L13.8788 14.52C13.9988 14.52 14.0788 13.46 14.1188 8.94C14.0188 8.56 13.1388 7.86 13.0387 7.86L12.9388 7.54C13.1188 7.54 14.1188 6.76 14.1188 5.52L15.8588 5.02ZM13.9588 1.66C13.9588 1.08 14.4188 0.599999 15.0188 0.599999C15.5988 0.599999 16.0788 1.08 16.0788 1.66C16.0788 2.24 15.5988 2.72 15.0188 2.72C14.4188 2.72 13.9588 2.24 13.9588 1.66ZM21.8748 0.0399992C21.8748 11.98 22.2148 16.18 22.5548 16.18H21.4348L19.8148 14.64C20.0348 14.64 20.1148 12.9 20.1348 3.98C20.0748 3.62 19.1548 2.88 19.0548 2.88L18.9348 2.56C19.1348 2.56 20.1348 1.78 20.1348 0.539999L21.8748 0.0399992ZM29.4202 6.12C27.6602 6.12 27.0602 7.46 27.0602 8.8L25.3802 7.76C25.3802 7.08 27.1802 5.22 29.0602 5.22C31.3202 5.22 31.8002 5.9 32.3802 6.48C32.4002 12.08 32.7002 16.12 33.0202 16.12H31.9002L30.9402 15.12C30.2802 15.72 29.5202 16.06 28.9602 16.06C28.3602 16.06 27.7002 15.92 27.6802 15.92L25.0402 13.26C25.0402 13.26 25.0402 13 25.0402 12.9C25.0402 11.14 28.3202 9.5 30.6402 9.5C30.6402 9.5 30.6802 7.5 30.6802 7.36C30.6802 6.84 30.2602 6.12 29.4202 6.12ZM30.6202 9.98C29.2602 9.98 27.0202 11.2 27.0202 13.08C27.0202 14.22 27.4402 15.04 28.1602 15.04C29.4402 15.04 30.1802 14.2 30.5602 13.1C30.5802 12.6 30.6202 9.98 30.6202 9.98ZM45.3202 5.06C42.0802 13.56 41.3602 15.74 41.2402 16.36C40.9002 17.98 39.6602 20.08 38.3802 20.08H37.8802L36.5802 18.78C36.6202 18.78 36.6402 18.78 36.6802 18.78C37.9602 18.7 39.2402 17.38 39.7202 16.38H39.6402L38.0602 14.86C38.0802 14.84 38.1002 14.8 38.1002 14.72C38.1002 14.2 37.6202 12.12 35.9602 6.9C35.7402 6.26 35.1402 5.96 34.8802 5.96L35.4602 5.36L37.0602 5.08C38.7202 10.22 39.9402 13.4 40.6202 15.02C42.8002 9.12 43.7002 6.5 43.7002 5.74C43.7002 5.6 43.6802 5.52 43.6202 5.5L45.3202 5.06Z" fill="#5B8DEF"/>
</svg>
