<svg width="30" height="22" viewBox="0 0 30 22" fill="none" xmlns="http://www.w3.org/2000/svg">
<path d="M2.13333 15L0 15.5333V9.13333C0.266667 9.59556 0.64 9.88889 1.12 10.0133C1.61778 10.1378 2.13333 10.2 2.66667 10.2C3.39556 10.2 4.01778 10.4311 4.53333 10.8933C5.06667 11.3556 5.33333 11.9244 5.33333 12.6V15L3.2 15.5333V12.6C3.2 12.4578 3.14667 12.3333 3.04 12.2267C2.93333 12.12 2.80889 12.0667 2.66667 12.0667C2.52444 12.0667 2.4 12.12 2.29333 12.2267C2.18667 12.3333 2.13333 12.4578 2.13333 12.6V15ZM8.53958 12.8667C8.53958 13.2044 8.66403 13.4533 8.91292 13.6133C9.17958 13.7733 9.47292 13.8533 9.79292 13.8533C10.0951 13.8533 10.3885 13.7911 10.6729 13.6667C10.3885 14.1111 10.0507 14.4489 9.65958 14.68C9.26847 14.8933 8.86847 15 8.45958 15C7.92625 15 7.44625 14.8133 7.01958 14.44C6.61069 14.0489 6.40625 13.5244 6.40625 12.8667V10.2L8.53958 9.66667V12.8667ZM8.53958 8.62667L6.40625 9.18667V8.65333L8.53958 8.09333V8.62667ZM13.8716 12.8667C13.8716 13.2222 13.9961 13.48 14.2449 13.64C14.5116 13.7822 14.8049 13.8533 15.1249 13.8533C15.4449 13.8533 15.7383 13.7911 16.0049 13.6667C15.7205 14.1289 15.3738 14.4667 14.9649 14.68C14.5738 14.8933 14.1827 15 13.7916 15C13.2583 15 12.7783 14.8133 12.3516 14.44C11.9427 14.0667 11.7383 13.5422 11.7383 12.8667V0.600001L13.8716 0.0666666V12.8667ZM20.2703 15V14.9733C20.1103 14.9911 19.9325 15 19.737 15C19.0081 15 18.377 14.8044 17.8436 14.4133C17.3281 14.0044 17.0703 13.4 17.0703 12.6C17.0703 11.9244 17.3281 11.3556 17.8436 10.8933C18.377 10.4311 19.0081 10.2 19.737 10.2C20.2703 10.2 20.777 10.1378 21.257 10.0133C21.7548 9.88889 22.137 9.59556 22.4036 9.13333V12.6V15H20.2703ZM19.737 13.1333C19.8792 13.1333 20.0036 13.08 20.1103 12.9733C20.217 12.8667 20.2703 12.7422 20.2703 12.6C20.2703 12.4578 20.217 12.3333 20.1103 12.2267C20.0036 12.12 19.8792 12.0667 19.737 12.0667C19.5948 12.0667 19.4703 12.12 19.3636 12.2267C19.257 12.3333 19.2036 12.4578 19.2036 12.6C19.2036 12.7422 19.257 12.8667 19.3636 12.9733C19.4703 13.08 19.5948 13.1333 19.737 13.1333ZM22.1432 21.6667L23.5299 19.2667C23.6721 19.4622 23.8499 19.5956 24.0632 19.6667C24.2943 19.7556 24.5432 19.8 24.8099 19.8H26.6766V15.0267C26.4988 15.0089 26.321 15 26.1432 15C25.4143 15 24.7832 14.7689 24.2499 14.3067C23.7343 13.8267 23.4766 13.2578 23.4766 12.6V10.2L25.6099 9.66667V12.6C25.6099 12.7422 25.6632 12.8667 25.7699 12.9733C25.8766 13.08 26.001 13.1333 26.1432 13.1333C26.2855 13.1333 26.4099 13.08 26.5166 12.9733C26.6232 12.8667 26.6766 12.7422 26.6766 12.6V10.2L28.8099 9.66667V20.6C28.8099 20.9378 28.7121 21.1956 28.5166 21.3733C28.3388 21.5689 28.0988 21.6667 27.7966 21.6667H22.1432Z" fill="#5B8DEF"/>
</svg>
