<svg width="40" height="39" viewBox="0 0 40 39" fill="none" xmlns="http://www.w3.org/2000/svg">
<rect x="0.667969" width="38.6667" height="38.6667" rx="12.8889" fill="#28293D"/>
<path d="M28.9529 14.6788H22.6875V12.8887H28.9529V14.6788ZM30.4977 23.6293C30.1021 24.7902 28.6817 26.3145 25.9321 26.3145C23.1807 26.3145 20.952 24.7669 20.952 21.235C20.952 17.7354 23.033 15.9363 25.8443 15.9363C28.6029 15.9363 30.2874 17.5313 30.6553 19.8978C30.7251 20.3507 30.7528 20.9611 30.7403 21.8132H23.5557C23.6721 24.6872 26.6732 24.7776 27.6622 23.6293H30.4977ZM23.6184 20.0491H28.0623C27.9683 18.6644 27.0455 18.063 25.8452 18.063C24.5331 18.063 23.8072 18.7504 23.6184 20.0491ZM15.0491 26.3037H9.26172V12.9075H15.485C20.3863 12.98 20.4794 17.7801 17.9196 19.0887C21.0173 20.2165 21.1212 26.3037 15.0491 26.3037V26.3037ZM11.9469 18.259H15.1547C17.3995 18.259 17.7558 15.5738 14.8755 15.5738H11.9469V18.259V18.259ZM14.982 20.9441H11.9469V23.6436H14.9372C17.6716 23.6436 17.5043 20.9441 14.982 20.9441V20.9441Z" fill="#FAFAFC"/>
</svg>
