<svg width="39" height="39" viewBox="0 0 39 39" fill="none" xmlns="http://www.w3.org/2000/svg">
<rect width="38.6667" height="38.6667" rx="12.8889" fill="#28293D"/>
<path fill-rule="evenodd" clip-rule="evenodd" d="M19.3306 8.5918C16.4134 8.5918 16.0482 8.60397 14.9025 8.65624C13.759 8.70851 12.9778 8.89039 12.2947 9.15604C11.5786 9.42528 10.9292 9.84775 10.3921 10.3948C9.84595 10.9312 9.42322 11.5802 9.15337 12.2966C8.88915 12.9797 8.70656 13.7617 8.65429 14.9052C8.60273 16.0502 8.58984 16.4146 8.58984 19.3325C8.58984 22.2504 8.60202 22.6149 8.65429 23.7606C8.70656 24.9041 8.88844 25.6853 9.15409 26.3684C9.42333 27.0845 9.84579 27.7339 10.3929 28.271C10.9293 28.8172 11.5783 29.2399 12.2947 29.5097C12.9778 29.7747 13.759 29.9566 14.9025 30.0088C16.0482 30.0611 16.4134 30.0733 19.3306 30.0733C22.2478 30.0733 22.613 30.0611 23.7586 30.0088C24.9022 29.9566 25.6834 29.7747 26.3665 29.509C27.0825 29.2398 27.732 28.8173 28.269 28.2703C28.8152 27.7339 29.2379 27.0848 29.5078 26.3684C29.7727 25.6853 29.9546 24.9041 30.0069 23.7606C30.0592 22.6149 30.0713 22.2497 30.0713 19.3325C30.0713 16.4154 30.0592 16.0502 30.0069 14.9045C29.9546 13.761 29.7727 12.9797 29.5071 12.2966C29.2374 11.5799 28.8147 10.9306 28.2683 10.3941C27.7319 9.84791 27.0829 9.42518 26.3665 9.15533C25.6834 8.89111 24.9014 8.70851 23.7579 8.65624C22.613 8.60469 22.2485 8.5918 19.3306 8.5918ZM19.3306 10.5273C22.1984 10.5273 22.5385 10.538 23.6713 10.5896C24.7181 10.6375 25.2867 10.8115 25.6655 10.9598C26.1667 11.1538 26.5247 11.3873 26.9007 11.7625C27.2766 12.1384 27.5093 12.4964 27.7033 12.9976C27.8509 13.3764 28.0256 13.945 28.0735 14.9918C28.1251 16.1246 28.1358 16.4648 28.1358 19.3325C28.1358 22.2003 28.1251 22.5404 28.0735 23.6732C28.0256 24.7201 27.8516 25.2886 27.7033 25.6674C27.5314 26.134 27.2572 26.556 26.9007 26.9026C26.5541 27.2592 26.1321 27.5335 25.6655 27.7053C25.2867 27.8528 24.7181 28.0275 23.6713 28.0755C22.5385 28.1271 22.1991 28.1378 19.3306 28.1378C16.4621 28.1378 16.1227 28.1271 14.9899 28.0755C13.943 28.0275 13.3745 27.8535 12.9957 27.7053C12.5292 27.5334 12.1071 27.2591 11.7605 26.9026C11.404 26.556 11.1298 26.1339 10.9578 25.6674C10.8103 25.2886 10.6356 24.7201 10.5876 23.6732C10.5361 22.5404 10.5253 22.2003 10.5253 19.3325C10.5253 16.4648 10.5361 16.1246 10.5876 14.9918C10.6356 13.945 10.8096 13.3764 10.9578 12.9976C11.1519 12.4964 11.3853 12.1384 11.7605 11.7625C12.107 11.4059 12.5291 11.1316 12.9957 10.9598C13.3745 10.8123 13.943 10.6375 14.9899 10.5896C16.1227 10.538 16.4628 10.5273 19.3306 10.5273Z" fill="#FAFAFC"/>
<path fill-rule="evenodd" clip-rule="evenodd" d="M19.3306 22.9164C18.86 22.9164 18.3939 22.8237 17.9591 22.6436C17.5243 22.4635 17.1292 22.1995 16.7965 21.8667C16.4637 21.5339 16.1997 21.1388 16.0196 20.704C15.8395 20.2692 15.7468 19.8032 15.7468 19.3325C15.7468 18.8619 15.8395 18.3959 16.0196 17.9611C16.1997 17.5263 16.4637 17.1312 16.7965 16.7984C17.1292 16.4656 17.5243 16.2016 17.9591 16.0215C18.3939 15.8414 18.86 15.7487 19.3306 15.7487C20.2811 15.7487 21.1927 16.1263 21.8647 16.7984C22.5368 17.4705 22.9144 18.382 22.9144 19.3325C22.9144 20.283 22.5368 21.1946 21.8647 21.8667C21.1927 22.5388 20.2811 22.9164 19.3306 22.9164ZM19.3306 13.8118C17.8664 13.8118 16.4622 14.3934 15.4268 15.4288C14.3915 16.4641 13.8099 17.8683 13.8099 19.3325C13.8099 20.7967 14.3915 22.201 15.4268 23.2363C16.4622 24.2716 17.8664 24.8533 19.3306 24.8533C20.7948 24.8533 22.199 24.2716 23.2344 23.2363C24.2697 22.201 24.8513 20.7967 24.8513 19.3325C24.8513 17.8683 24.2697 16.4641 23.2344 15.4288C22.199 14.3934 20.7948 13.8118 19.3306 13.8118ZM26.4574 13.7115C26.4574 14.0577 26.32 14.3896 26.0752 14.6343C25.8305 14.8791 25.4985 15.0165 25.1524 15.0165C24.8063 15.0165 24.4744 14.8791 24.2297 14.6343C23.9849 14.3896 23.8474 14.0577 23.8474 13.7115C23.8474 13.3654 23.9849 13.0335 24.2297 12.7888C24.4744 12.544 24.8063 12.4065 25.1524 12.4065C25.4985 12.4065 25.8305 12.544 26.0752 12.7888C26.32 13.0335 26.4574 13.3654 26.4574 13.7115Z" fill="#FAFAFC"/>
</svg>
