<svg width="39" height="39" viewBox="0 0 39 39" fill="none" xmlns="http://www.w3.org/2000/svg">
<rect width="38.6667" height="38.6667" rx="12.8889" fill="#28293D"/>
<path d="M20.848 19.5985C20.848 23.3043 17.8643 26.3086 14.1837 26.3086C10.503 26.3086 7.51953 23.3052 7.51953 19.5985C7.51953 15.8918 10.5032 12.8887 14.1837 12.8887C17.8641 12.8887 20.848 15.8927 20.848 19.5985ZM28.1589 19.5985C28.1589 23.0871 26.667 25.9148 24.8267 25.9148C22.9865 25.9148 21.4945 23.0862 21.4945 19.5985C21.4945 16.1109 22.9865 13.2822 24.8267 13.2822C26.667 13.2822 28.1589 16.1109 28.1589 19.5985ZM31.1492 19.5985C31.1492 22.7241 30.6244 25.2577 29.9772 25.2577C29.33 25.2577 28.8052 22.7232 28.8052 19.5985C28.8052 16.4738 29.33 13.9394 29.9774 13.9394C30.6248 13.9394 31.1492 16.4732 31.1492 19.5985Z" fill="#FAFAFC"/>
</svg>
