<svg width="39" height="39" viewBox="0 0 39 39" fill="none" xmlns="http://www.w3.org/2000/svg">
<rect x="0.332031" width="38.6667" height="38.6667" rx="12.8889" fill="#28293D"/>
<path d="M30.4073 10.1723V28.4947C30.4073 28.9136 30.2409 29.3154 29.9446 29.6116C29.6484 29.9078 29.2467 30.0743 28.8277 30.0743H10.5053C10.0864 30.0743 9.68463 29.9078 9.38841 29.6116C9.09219 29.3154 8.92578 28.9136 8.92578 28.4947V10.1723C8.92578 9.75338 9.09219 9.35162 9.38841 9.0554C9.68463 8.75919 10.0864 8.59277 10.5053 8.59277H28.8277C29.2467 8.59277 29.6484 8.75919 29.9446 9.0554C30.2409 9.35162 30.4073 9.75338 30.4073 10.1723V10.1723ZM15.2439 16.8063H12.0848V26.9152H15.2439V16.8063ZM15.5282 13.3313C15.5298 13.0924 15.4844 12.8554 15.3945 12.634C15.3046 12.4126 15.172 12.2111 15.0042 12.041C14.8364 11.8708 14.6367 11.7354 14.4166 11.6424C14.1965 11.5495 13.9602 11.5007 13.7212 11.4991H13.6643C13.1784 11.4991 12.7124 11.6921 12.3688 12.0357C12.0251 12.3794 11.8321 12.8454 11.8321 13.3313C11.8321 13.8173 12.0251 14.2833 12.3688 14.6269C12.7124 14.9705 13.1784 15.1636 13.6643 15.1636V15.1636C13.9033 15.1695 14.1411 15.1282 14.3641 15.0421C14.5871 14.9561 14.791 14.8269 14.9641 14.6621C15.1372 14.4972 15.2761 14.2998 15.3729 14.0813C15.4697 13.8627 15.5224 13.6272 15.5282 13.3882V13.3313ZM27.2482 20.774C27.2482 17.735 25.3149 16.5536 23.3942 16.5536C22.7653 16.5221 22.1392 16.656 21.5782 16.942C21.0173 17.2281 20.5411 17.6561 20.1972 18.1836H20.1088V16.8063H17.1393V26.9152H20.2983V21.5385C20.2527 20.9879 20.4261 20.4414 20.781 20.0179C21.1359 19.5944 21.6436 19.328 22.1938 19.2767H22.3138C23.3184 19.2767 24.0639 19.9085 24.0639 21.5006V26.9152H27.2229L27.2482 20.774Z" fill="white"/>
</svg>
