<svg width="56" height="16" viewBox="0 0 56 16" fill="none" xmlns="http://www.w3.org/2000/svg">
<path d="M8.16 2.06C8.14667 2.06 8.14 2.04667 8.14 2.02L8.16 2.06ZM10.54 12.42C10.54 12.4333 10.5267 12.4533 10.5 12.48C10.4867 12.4933 10.4667 12.5067 10.44 12.52H10.46V12.54C10.4067 12.58 10.38 12.6667 10.38 12.8V12.84C10.3533 12.9467 10.28 13.0467 10.16 13.14L10.12 13.16L10.02 13.28L9.9 13.34C9.86 13.38 9.81333 13.4067 9.76 13.42C9.69333 13.4867 9.60667 13.5333 9.5 13.56L9.38 13.6L8.9 13.68H8.88L8.84 13.7C8.82667 13.6867 8.78667 13.68 8.72 13.68C8.65333 13.7067 8.6 13.7067 8.56 13.68C8.54667 13.68 8.52667 13.6667 8.5 13.64C8.47333 13.6267 8.41333 13.62 8.32 13.62C8.29333 13.58 8.22667 13.5267 8.12 13.46L7.88 13.34V13.32C7.85333 13.3067 7.80667 13.2533 7.74 13.16C7.72667 13.16 7.70667 13.1467 7.68 13.12L7.66 13.1C7.64667 13.0867 7.64 13.0667 7.64 13.04L7.62 13L7.58 12.92C7.58 12.88 7.55333 12.8333 7.5 12.78C7.47333 12.7533 7.47333 12.72 7.5 12.68C7.52667 12.6533 7.52667 12.6267 7.5 12.6L7.48 12.54C7.46667 12.5133 7.47333 12.4867 7.5 12.46L7.56 12.4C7.52 12.36 7.52 12.3333 7.56 12.32C7.6 12.2933 7.62 12.28 7.62 12.28C7.67333 12.2533 7.66667 12.2133 7.6 12.16C7.57333 12.1467 7.56 12.1333 7.56 12.12C7.57333 12.1067 7.59333 12.0933 7.62 12.08C7.66 12.0533 7.68 12.0067 7.68 11.94L7.66 11.82L7.68 11.62V11.54C7.68 11.5 7.68667 11.4733 7.7 11.46C7.68667 11.42 7.68667 11.3733 7.7 11.32V11.26C7.7 11.1933 7.69333 11.1333 7.68 11.08C7.66667 11 7.66667 10.9333 7.68 10.88C7.66667 10.8267 7.66667 10.76 7.68 10.68L7.64 10.66C7.58667 10.6333 7.54 10.6 7.5 10.56C7.5 10.5467 7.49333 10.54 7.48 10.54C7.46667 10.5533 7.46 10.5533 7.46 10.54H7.44C7.41333 10.5133 7.39333 10.48 7.38 10.44C7.34 10.3867 7.29333 10.36 7.24 10.36C7.24 10.3467 7.24667 10.34 7.26 10.34C7.26 10.3533 7.26667 10.3533 7.28 10.34C7.28 10.34 7.26667 10.3267 7.24 10.3C7.22667 10.2733 7.20667 10.2733 7.18 10.3L7.14 10.22C7.12667 10.18 7.1 10.16 7.06 10.16V10.1C7.03333 10.1 7.01333 10.0933 7 10.08C6.98667 10.0533 6.98667 10.0333 7 10.02C6.85333 9.87333 6.70667 9.70667 6.56 9.52C6.46667 9.38667 6.4 9.3 6.36 9.26L6.24 9.14L6.12 9.04C6.09333 8.96 6.06 8.90667 6.02 8.88L5.9 8.8C5.9 8.74667 5.88 8.72 5.84 8.72C5.70667 8.53333 5.60667 8.43333 5.54 8.42C5.52667 8.38 5.5 8.34 5.46 8.3L5.36 8.2L5.28 8.12L5.24 8.08L5.14 7.94C5.1 7.92667 5.06667 7.90667 5.04 7.88L5 7.82C4.94667 7.76667 4.92 7.74 4.92 7.74C4.88 7.68667 4.83333 7.64 4.78 7.6L4.72 7.52C4.69333 7.52 4.67333 7.51333 4.66 7.5L4.64 7.48V7.58C4.64 7.68667 4.64667 7.76 4.66 7.8V7.84C4.64667 7.85333 4.64667 7.87333 4.66 7.9V8.14C4.64667 8.23333 4.64667 8.31333 4.66 8.38C4.64667 8.39333 4.64 8.42667 4.64 8.48L4.66 8.7C4.64667 8.71333 4.64 8.75333 4.64 8.82C4.64 8.84667 4.64667 8.86667 4.66 8.88C4.66 8.92 4.65333 8.95333 4.64 8.98C4.61333 9.03333 4.60667 9.06667 4.62 9.08L4.64 9.2L4.6 9.4V9.48C4.58667 9.52 4.58667 9.56667 4.6 9.62L4.58 9.72L4.6 9.78L4.58 10L4.56 10.1V10.16V10.24C4.56 10.28 4.55333 10.3067 4.54 10.32V10.38C4.54 10.4733 4.52 10.56 4.48 10.64H4.5V10.7V10.78C4.5 10.82 4.49333 10.8467 4.48 10.86L4.5 10.9C4.48667 10.9133 4.48667 10.9267 4.5 10.94V11C4.47333 11.0533 4.46 11.1133 4.46 11.18C4.43333 11.2867 4.42 11.34 4.42 11.34C4.43333 11.3667 4.44 11.4067 4.44 11.46C4.42667 11.4867 4.42 11.52 4.42 11.56L4.44 11.62L4.42 11.66V11.7C4.42 11.7133 4.40667 11.7333 4.38 11.76L4.4 11.82L4.38 11.84L4.36 11.88V11.9C4.36 11.9267 4.36667 11.9467 4.38 11.96C4.38 12 4.36 12.0333 4.32 12.06C4.33333 12.0733 4.34 12.0933 4.34 12.12C4.31333 12.1467 4.31333 12.1733 4.34 12.2L4.36 12.24C4.36 12.2667 4.35333 12.2867 4.34 12.3L4.32 12.34V12.38L4.34 12.46C4.34 12.5 4.32667 12.5333 4.3 12.56C4.31333 12.5733 4.30667 12.6267 4.28 12.72C4.25333 12.8 4.26 12.86 4.3 12.9C4.32667 12.9 4.34667 12.9067 4.36 12.92C4.38667 12.9333 4.4 12.9467 4.4 12.96C4.4 12.9733 4.39333 12.98 4.38 12.98L4.34 13.02L4.3 13.1V13.14C4.28667 13.1533 4.28667 13.1733 4.3 13.2L4.34 13.28C4.34 13.28 4.32667 13.2933 4.3 13.32L4.26 13.4L4.3 13.48C4.3 13.4933 4.28667 13.5067 4.26 13.52C4.23333 13.5333 4.20667 13.54 4.18 13.54V13.58C4.08667 13.6067 4.03333 13.68 4.02 13.8C4.02 13.8267 4.01333 13.84 4 13.84C3.97333 13.88 3.86667 13.9533 3.68 14.06H3.64L3.5 14.14C3.48667 14.1267 3.46667 14.1267 3.44 14.14C3.42667 14.1667 3.40667 14.1667 3.38 14.14L3.2 14.16C3.12 14.1867 3.06667 14.2 3.04 14.2L2.92 14.18C2.86667 14.1667 2.82 14.1667 2.78 14.18C2.62 14.1267 2.54 14.1 2.54 14.1L2.32 14.06L2.3 14.04C2.3 14.0533 2.29333 14.06 2.28 14.06C2.26667 14.06 2.24667 14.0467 2.22 14.02C2.20667 14.0067 2.18667 13.9933 2.16 13.98L2 13.92L1.96 13.86L1.8 13.78C1.78667 13.7267 1.74667 13.66 1.68 13.58C1.58667 13.4867 1.52667 13.42 1.5 13.38V13.36C1.48667 13.3467 1.48 13.3333 1.48 13.32C1.48 13.2933 1.47333 13.2733 1.46 13.26L1.42 13.18C1.39333 13.1533 1.38 13.1267 1.38 13.1V13C1.36667 12.9867 1.36 12.96 1.36 12.92L1.34 12.78C1.34 12.74 1.34667 12.7133 1.36 12.7C1.37333 12.6867 1.38 12.6667 1.38 12.64V12.6C1.36667 12.6 1.36667 12.5933 1.38 12.58C1.38 12.5533 1.4 12.5333 1.44 12.52L1.5 12.48C1.47333 12.4533 1.47333 12.4333 1.5 12.42C1.52667 12.4067 1.55333 12.4 1.58 12.4C1.62 12.4133 1.64667 12.4133 1.66 12.4C1.67333 12.3733 1.66 12.34 1.62 12.3C1.58 12.2467 1.58667 12.2267 1.64 12.24C1.68 12.2267 1.70667 12.1933 1.72 12.14C1.74667 12.06 1.76 12.02 1.76 12.02L1.84 11.86C1.84 11.7933 1.85333 11.7467 1.88 11.72C1.86667 11.6933 1.87333 11.6667 1.9 11.64L1.92 11.6L1.96 11.4C1.96 11.3333 1.97333 11.2733 2 11.22C2 11.14 2.02667 11.0667 2.08 11V10.96C2.08 10.9333 2.09333 10.8933 2.12 10.84L2.14 10.76V10.68C2.12667 10.6533 2.12667 10.6333 2.14 10.62L2.16 10.58V10.52C2.14667 10.4933 2.16 10.4533 2.2 10.4C2.22667 10.3733 2.22667 10.3533 2.2 10.34C2.21333 10.3 2.22 10.2267 2.22 10.12C2.22 10.0533 2.23333 9.98 2.26 9.9C2.26 9.88667 2.26667 9.88 2.28 9.88V9.8C2.28 9.72 2.29333 9.65333 2.32 9.6C2.32 9.48 2.34 9.36 2.38 9.24V9.08C2.42 9.01333 2.44 8.92 2.44 8.8C2.42667 8.77333 2.42 8.74 2.42 8.7L2.44 8.62V8.56C2.42667 8.53333 2.42667 8.51333 2.44 8.5L2.46 8.28L2.44 8.08C2.44 8.05333 2.44667 8.03333 2.46 8.02C2.47333 8.02 2.48 8.01333 2.48 8L2.46 7.94V7.82L2.48 7.66V7.26C2.49333 7.22 2.5 7.15333 2.5 7.06C2.47333 6.9 2.46667 6.77333 2.48 6.68C2.48 6.57333 2.47333 6.49333 2.46 6.44L2.44 6.1C2.44 6.00667 2.44667 5.94667 2.46 5.92L2.5 5.9C2.5 5.88667 2.49333 5.88 2.48 5.88C2.46667 5.88 2.46 5.87333 2.46 5.86C2.46 5.84667 2.46667 5.84 2.48 5.84C2.49333 5.85333 2.5 5.85333 2.5 5.84V5.74L2.46 5.76C2.44667 5.74667 2.44667 5.73333 2.46 5.72L2.44 5.68C2.42667 5.61333 2.38667 5.57333 2.32 5.56L2.24 5.58C2.22667 5.56667 2.22 5.54667 2.22 5.52L2.18 5.46H2.12C2.09333 5.46 2.08667 5.44 2.1 5.4C2.11333 5.38667 2.12 5.36667 2.12 5.34L2.08 5.32V5.28C2.08 5.2 2.04667 5.14 1.98 5.1L1.94 5.06C1.92667 5.03333 1.92 4.97333 1.92 4.88V4.72C1.93333 4.70667 1.94 4.68667 1.94 4.66V4.5L1.98 4.44L2 4.4L2.08 4.08L2.14 3.98C2.16667 3.95333 2.19333 3.91333 2.22 3.86C2.26 3.79333 2.31333 3.72 2.38 3.64L2.52 3.48C2.52 3.45333 2.52667 3.44 2.54 3.44L2.7 3.3L2.76 3.24C2.8 3.24 2.82667 3.23333 2.84 3.22L2.98 3.12H3.02C3.03333 3.12 3.10667 3.10667 3.24 3.08L3.48 3.02C3.48 3.03333 3.48667 3.04 3.5 3.04H3.58C3.60667 3.05333 3.64667 3.05333 3.7 3.04C3.74 3.01333 3.78 3.01333 3.82 3.04C3.84667 3.06667 3.86667 3.08 3.88 3.08L3.96 3.12L4.1 3.16L4.22 3.28L4.26 3.3C4.27333 3.3 4.28 3.30667 4.28 3.32C4.30667 3.34667 4.32 3.36667 4.32 3.38L4.3 3.46C4.35333 3.46 4.38 3.48 4.38 3.52C4.34 3.57333 4.32 3.62 4.32 3.66C4.32 3.68667 4.35333 3.68667 4.42 3.66C4.48667 3.63333 4.5 3.65333 4.46 3.72C4.46 3.78667 4.48 3.83333 4.52 3.86C4.58667 3.92667 4.62667 3.98 4.64 4.02L4.7 4.1L4.76 4.16C4.82667 4.22667 4.86 4.26 4.86 4.26L4.9 4.32C4.92667 4.36 4.98 4.40667 5.06 4.46C5.11333 4.5 5.14667 4.55333 5.16 4.62C5.17333 4.62 5.20667 4.64667 5.26 4.7L5.32 4.82C5.37333 4.84667 5.40667 4.87333 5.42 4.9C5.44667 4.98 5.48667 5.02667 5.54 5.04L5.6 5.08C5.6 5.10667 5.60667 5.12 5.62 5.12L5.72 5.22C5.72 5.23333 5.72667 5.25333 5.74 5.28C5.75333 5.30667 5.77333 5.32 5.8 5.32C5.82667 5.38667 5.88 5.44 5.96 5.48C6.05333 5.54667 6.10667 5.60667 6.12 5.66V5.7C6.22667 5.80667 6.28667 5.88 6.3 5.92C6.39333 6 6.47333 6.09333 6.54 6.2C6.59333 6.24 6.63333 6.28 6.66 6.32L6.76 6.44C6.77333 6.48 6.79333 6.52 6.82 6.56C6.86 6.58667 6.9 6.60667 6.94 6.62L6.98 6.7C7.00667 6.72667 7.02667 6.74 7.04 6.74L7.08 6.78L7.22 6.96L7.36 7.12L7.4 7.2H7.42C7.43333 7.2 7.44 7.20667 7.44 7.22C7.50667 7.28667 7.57333 7.36667 7.64 7.46L7.72 7.54C7.69333 7.44667 7.68667 7.39333 7.7 7.38L7.72 7.28L7.7 7.24V7.18L7.72 6.92C7.72 6.84 7.72667 6.77333 7.74 6.72C7.74 6.61333 7.73333 6.52667 7.72 6.46V6.38C7.73333 6.36667 7.74 6.33333 7.74 6.28L7.72 6.08C7.73333 6.04 7.74 5.95333 7.74 5.82L7.76 5.56C7.76 5.34667 7.77333 5.16 7.8 5L7.84 4.98C7.84 4.96667 7.83333 4.96 7.82 4.96C7.80667 4.96 7.8 4.95333 7.8 4.94C7.81333 4.92667 7.82667 4.92 7.84 4.92L7.94 4.44C7.94 4.42667 7.94667 4.42667 7.96 4.44C7.96 4.45333 7.96667 4.45333 7.98 4.44C7.98 4.37333 7.98667 4.32 8 4.28C8.01333 4.24 8.02 4.18667 8.02 4.12L8.06 3.98C8.04667 3.98 8.04 3.97333 8.04 3.96H8.08V3.92L8.12 3.76C8.12 3.69333 8.12667 3.64 8.14 3.6C8.15333 3.58667 8.16 3.56667 8.16 3.54V3.46L8.18 3.48V3.42C8.18 3.40667 8.19333 3.36 8.22 3.28C8.23333 3.26667 8.24 3.24 8.24 3.2C8.25333 3.21333 8.26 3.23333 8.26 3.26L8.28 3.22V3.26C8.29333 3.3 8.32667 3.32667 8.38 3.34C8.39333 3.32667 8.4 3.3 8.4 3.26V3.24C8.42667 3.17333 8.44667 3.14 8.46 3.14V3.02L8.5 2.72C8.5 2.70667 8.49333 2.7 8.48 2.7L8.54 2.48C8.54 2.36 8.54667 2.28 8.56 2.24L8.52 2.68L8.48 3.1V3.14L8.5 3.08V3.1C8.5 3.15333 8.49333 3.19333 8.48 3.22C8.48 3.23333 8.47333 3.24 8.46 3.24L8.42 3.42C8.42 3.44667 8.43333 3.47333 8.46 3.5C8.48667 3.51333 8.52 3.51333 8.56 3.5C8.58667 3.47333 8.6 3.44 8.6 3.4C8.6 3.36 8.60667 3.32667 8.62 3.3C8.64667 3.27333 8.68 3.27333 8.72 3.3L8.7 3.52C8.67333 3.6 8.67333 3.67333 8.7 3.74C8.68667 3.75333 8.68667 3.76 8.7 3.76V3.8C8.7 3.81333 8.70667 3.82 8.72 3.82C8.73333 3.82 8.74 3.82667 8.74 3.84H8.8C8.8 3.77333 8.82667 3.71333 8.88 3.66C8.93333 3.59333 8.96 3.52667 8.96 3.46L9.06 3.42V3.36L9.08 3.32V3.28C9.06667 3.26667 9.06667 3.24 9.08 3.2C9.10667 3.17333 9.10667 3.14667 9.08 3.12L9.1 3.04C9.1 3 9.09333 2.97333 9.08 2.96H9.1C9.1 2.92 9.11333 2.88667 9.14 2.86V2.9L9.16 2.86C9.16 2.92667 9.15333 2.98 9.14 3.02C9.12667 3.06 9.12 3.10667 9.12 3.16C9.12 3.18667 9.13333 3.2 9.16 3.2C9.14667 3.21333 9.14 3.26 9.14 3.34L9.1 3.52C9.11333 3.53333 9.13333 3.54 9.16 3.54C9.16 3.54 9.17333 3.52667 9.2 3.5V3.54H9.22L9.2 3.66C9.2 3.67333 9.22 3.68 9.26 3.68C9.23333 3.65333 9.23333 3.62667 9.26 3.6C9.27333 3.58667 9.28 3.56667 9.28 3.54L9.3 3.5C9.28667 3.5 9.28 3.49333 9.28 3.48C9.28 3.46667 9.28667 3.46 9.3 3.46L9.28 3.42L9.3 3.38C9.32667 3.35333 9.32667 3.32667 9.3 3.3C9.28667 3.26 9.3 3.21333 9.34 3.16C9.35333 3.14667 9.36 3.12 9.36 3.08L9.38 3.12C9.36667 3.13333 9.36 3.15333 9.36 3.18C9.36 3.24667 9.36667 3.3 9.38 3.34C9.40667 3.42 9.40667 3.47333 9.38 3.5C9.39333 3.51333 9.40667 3.51333 9.42 3.5H9.46V3.42V3.4L9.44 3.42V3.2L9.48 3.18L9.52 3.2V3.18V3.14C9.50667 3.14 9.50667 3.13333 9.52 3.12C9.52 3.06667 9.52667 3.02 9.54 2.98C9.54 2.92667 9.53333 2.88667 9.52 2.86C9.56 2.91333 9.56667 2.99333 9.54 3.1C9.54 3.11333 9.54667 3.11333 9.56 3.1C9.57333 3.1 9.58 3.10667 9.58 3.12C9.58 3.13333 9.57333 3.14 9.56 3.14L9.54 3.18L9.56 3.26V3.3C9.54667 3.31333 9.54 3.33333 9.54 3.36C9.55333 3.37333 9.56667 3.38667 9.58 3.4C9.59333 3.41333 9.59333 3.42667 9.58 3.44L9.62 3.48C9.63333 3.49333 9.64667 3.49333 9.66 3.48C9.66 3.46667 9.66667 3.46667 9.68 3.48C9.66667 3.48 9.66 3.48667 9.66 3.5L9.7 3.54C9.68667 3.55333 9.68 3.57333 9.68 3.6V3.66C9.68 3.67333 9.68667 3.67333 9.7 3.66L9.72 3.68C9.70667 3.68 9.7 3.68667 9.7 3.7C9.7 3.72667 9.70667 3.74667 9.72 3.76C9.69333 3.78667 9.69333 3.81333 9.72 3.84C9.72 3.86667 9.71333 3.88667 9.7 3.9C9.7 3.91333 9.70667 3.92 9.72 3.92H9.74C9.75333 3.93333 9.76 3.95333 9.76 3.98L9.74 4.02C9.75333 4.03333 9.76 4.06667 9.76 4.12C9.77333 4.13333 9.78 4.13333 9.78 4.12L9.8 4.08C9.81333 4.09333 9.81333 4.10667 9.8 4.12C9.78667 4.13333 9.78 4.14 9.78 4.14L9.82 4.32L9.86 4.5C9.86 4.51333 9.86667 4.52 9.88 4.52L9.86 4.54H9.88V4.58V4.68C9.88 4.74667 9.89333 4.79333 9.92 4.82H9.88L9.9 4.86C9.9 4.88667 9.90667 4.90667 9.92 4.92V5.02C9.89333 5.06 9.89333 5.09333 9.92 5.12C9.92 5.14667 9.90667 5.16 9.88 5.16C9.90667 5.21333 9.90667 5.25333 9.88 5.28C9.89333 5.33333 9.9 5.45333 9.9 5.64C9.9 5.73333 9.89333 5.79333 9.88 5.82V6.8C9.88 6.92 9.88667 7 9.9 7.04V7.08C9.88667 7.09333 9.88667 7.11333 9.9 7.14V7.38C9.9 7.5 9.90667 7.57333 9.92 7.6C9.90667 7.61333 9.9 7.64667 9.9 7.7L9.92 7.9V7.96C9.89333 7.98667 9.89333 8.01333 9.92 8.04L9.94 8.08C9.94 8.12 9.93333 8.15333 9.92 8.18C9.89333 8.22 9.89333 8.25333 9.92 8.28L9.94 8.4L9.92 8.62L9.96 8.8L9.94 8.9C9.96667 8.92667 9.98 8.94667 9.98 8.96V9.06C9.95333 9.1 9.95333 9.13333 9.98 9.16C9.99333 9.17333 9.99333 9.19333 9.98 9.22C9.98 9.23333 9.98 9.24667 9.98 9.26C9.98 9.3 9.98667 9.33333 10 9.36C10 9.42667 9.99333 9.46667 9.98 9.48C10.0067 9.50667 10.02 9.55333 10.02 9.62L9.98 9.78H10.02C9.99333 9.80667 9.99333 9.84 10.02 9.88C10.0467 9.93333 10.0467 9.97333 10.02 10L10.06 10.02C10.0467 10.0333 10.0467 10.0467 10.06 10.06V10.1C10.0467 10.1533 10.0467 10.2133 10.06 10.28C10.0867 10.36 10.0867 10.42 10.06 10.46C10.0867 10.4867 10.1 10.52 10.1 10.56V10.66C10.1 10.66 10.1067 10.6667 10.12 10.68C10.1333 10.68 10.14 10.6867 10.14 10.7L10.12 10.74L10.14 10.78L10.12 10.86L10.14 10.9L10.12 10.98C10.12 10.9933 10.1333 11.0133 10.16 11.04C10.1867 11.0667 10.18 11.1 10.14 11.14L10.18 11.26L10.22 11.36L10.2 11.4L10.24 11.5C10.2667 11.54 10.2667 11.5733 10.24 11.6C10.24 11.6 10.2533 11.6533 10.28 11.76C10.28 11.84 10.3067 11.8867 10.36 11.9C10.4267 11.9 10.46 11.9133 10.46 11.94C10.4733 11.9533 10.4733 11.96 10.46 11.96L10.42 12V12.1C10.42 12.14 10.4267 12.1667 10.44 12.18C10.44 12.1933 10.4533 12.2 10.48 12.2L10.5 12.24C10.5 12.2667 10.4933 12.2867 10.48 12.3C10.4667 12.3533 10.48 12.38 10.52 12.38L10.54 12.42ZM8.16 2.8C8.16 2.8 8.16 2.80667 8.16 2.82C8.17333 2.82 8.17333 2.82 8.16 2.82V2.8ZM8.28 2.84C8.26667 2.85333 8.25333 2.86 8.24 2.86C8.24 2.84667 8.24667 2.83333 8.26 2.82V2.8L8.28 2.84ZM8.22 2.84C8.20667 2.84 8.2 2.83333 8.2 2.82C8.2 2.80667 8.20667 2.80667 8.22 2.82V2.84ZM8 3.08C7.98667 3.08 7.98 3.07333 7.98 3.06L8 3.02C7.98667 3.00667 7.98667 3 8 3C8.01333 3.01333 8.01333 3.02667 8 3.04C7.98667 3.05333 7.98667 3.06667 8 3.08ZM8.3 3.1C8.3 3.15333 8.29333 3.18667 8.28 3.2C8.28 3.14667 8.28667 3.11333 8.3 3.1ZM9.08 3.1V3.12H9.06L9.08 3.1ZM9.04 3.14C9.04 3.12667 9.04667 3.12667 9.06 3.14H9.04ZM8.1 3.18V3.14L8.12 3.16L8.1 3.18ZM9.04 3.16C9.02667 3.16 9.02667 3.15333 9.04 3.14V3.16ZM8.94 3.2C8.92667 3.18667 8.92667 3.17333 8.94 3.16V3.2ZM8.1 3.18H8.12H8.1ZM8.84 3.18C8.85333 3.18 8.86 3.19333 8.86 3.22L8.84 3.18ZM9.08 3.24H9.1V3.2L9.08 3.24ZM2.7 3.3C2.68667 3.27333 2.68667 3.25333 2.7 3.24V3.3ZM8.48 3.28C8.46667 3.28 8.46 3.26667 8.46 3.24L8.48 3.28ZM2.26 3.28C2.24667 3.28 2.24 3.27333 2.24 3.26H2.26V3.28ZM2.6 3.28C2.58667 3.28 2.58 3.27333 2.58 3.26L2.6 3.28ZM2.66 3.3C2.64667 3.3 2.64 3.29333 2.64 3.28C2.64 3.26667 2.64667 3.26 2.66 3.26V3.3ZM8.84 3.26C8.86667 3.28667 8.86667 3.31333 8.84 3.34L8.82 3.38L8.84 3.3V3.26ZM9.18 3.26C9.19333 3.27333 9.19333 3.28667 9.18 3.3V3.26ZM8.48 3.3C8.46667 3.3 8.46667 3.29333 8.48 3.28V3.3ZM9.18 3.42C9.16667 3.40667 9.16667 3.39333 9.18 3.38V3.42ZM8.84 3.44C8.82667 3.42667 8.82 3.40667 8.82 3.38L8.84 3.44ZM9.6 3.54C9.58667 3.52667 9.58667 3.51333 9.6 3.5C9.58667 3.5 9.58 3.48667 9.58 3.46C9.56667 3.43333 9.55333 3.42667 9.54 3.44C9.52667 3.44 9.50667 3.45333 9.48 3.48H9.5L9.52 3.62C9.53333 3.63333 9.54667 3.63333 9.56 3.62L9.58 3.64C9.59333 3.62667 9.6 3.60667 9.6 3.58V3.54ZM9.18 3.44C9.19333 3.44 9.2 3.45333 9.2 3.48L9.18 3.44ZM7.86 4.3C7.84667 4.3 7.84 4.29333 7.84 4.28H7.88C7.88 4.29333 7.87333 4.3 7.86 4.3ZM19.7322 4.18L19.7522 4.26C19.7522 4.27333 19.7389 4.29333 19.7122 4.32L19.6522 4.38L19.6722 4.42C19.6722 4.44667 19.6655 4.46667 19.6522 4.48C19.5455 4.50667 19.4855 4.52667 19.4722 4.54C19.4589 4.55333 19.4855 4.58 19.5522 4.62C19.6055 4.64667 19.5989 4.67333 19.5322 4.7C19.4789 4.75333 19.4522 4.85333 19.4522 5C19.4255 5.10667 19.4122 5.17333 19.4122 5.2C19.3989 5.21333 19.3922 5.24 19.3922 5.28C19.3922 5.33333 19.3855 5.36667 19.3722 5.38C19.3989 5.39333 19.3989 5.41333 19.3722 5.44L19.3522 5.52L19.3322 5.62C19.3322 5.68667 19.3389 5.74 19.3522 5.78C19.3522 5.82 19.3389 5.88 19.3122 5.96C19.3255 5.97333 19.3322 6.00667 19.3322 6.06L19.2922 6.24L19.3122 6.3C19.3122 6.35333 19.3055 6.39333 19.2922 6.42L19.2522 6.52L19.2722 6.68L19.2522 6.72L19.2722 6.88C19.2722 6.90667 19.2655 6.92667 19.2522 6.94C19.2255 6.98 19.2255 7.01333 19.2522 7.04C19.2389 7.05333 19.2322 7.1 19.2322 7.18V7.36C19.2322 7.45333 19.2255 7.51333 19.2122 7.54L19.1922 7.58V7.64L19.2122 7.76C19.2122 7.8 19.1989 7.84667 19.1722 7.9C19.1722 8.07333 19.1589 8.21333 19.1322 8.32C19.1455 8.33333 19.1522 8.37333 19.1522 8.44L19.1122 8.68V8.74L19.1322 8.96L19.1122 9C19.0989 9.01333 19.0922 9.03333 19.0922 9.06C19.0922 9.1 19.0989 9.12667 19.1122 9.14C19.1389 9.15333 19.1389 9.17333 19.1122 9.2L19.0922 9.46L19.1122 9.7L19.0922 9.74C19.0789 9.75333 19.0722 9.77333 19.0722 9.8L19.0922 9.86V9.94C19.0922 10.06 19.0855 10.14 19.0722 10.18V10.38C19.0455 10.46 19.0455 10.5533 19.0722 10.66C19.0589 10.7533 19.0589 10.8333 19.0722 10.9V11.08C19.0589 11.16 19.0522 11.3467 19.0522 11.64C19.0389 11.6933 19.0322 11.7933 19.0322 11.94C19.0322 12.0867 19.0255 12.1867 19.0122 12.24L18.9722 12.26C18.9722 12.2733 18.9789 12.28 18.9922 12.28C19.0055 12.28 19.0055 12.2867 18.9922 12.3C18.9922 12.3133 18.9789 12.32 18.9522 12.32C18.9522 12.3467 18.9255 12.5133 18.8722 12.82L18.8322 12.84C18.8322 12.9067 18.8255 12.96 18.8122 13C18.7989 13.04 18.7922 13.1 18.7922 13.18L18.7722 13.32V13.34C18.7589 13.34 18.7522 13.3467 18.7522 13.36V13.4C18.7389 13.4267 18.7322 13.48 18.7322 13.56C18.7322 13.64 18.7255 13.7 18.7122 13.74L18.6722 13.8L18.6922 13.84V13.86C18.6789 13.86 18.6722 13.8667 18.6722 13.88C18.6589 13.8933 18.6589 13.9067 18.6722 13.92L18.6322 14.08C18.6189 14.0933 18.6122 14.12 18.6122 14.16C18.5989 14.1067 18.5455 14.0667 18.4522 14.04C18.4389 14.0533 18.4322 14.0867 18.4322 14.14C18.4322 14.18 18.4189 14.2133 18.3922 14.24V14.38C18.3922 14.5533 18.3855 14.66 18.3722 14.7C18.3722 14.7133 18.3789 14.72 18.3922 14.72C18.3655 14.8 18.3522 14.8733 18.3522 14.94C18.3522 15.0733 18.3455 15.16 18.3322 15.2L18.3522 14.74C18.3522 14.66 18.3589 14.5867 18.3722 14.52C18.3722 14.4 18.3655 14.32 18.3522 14.28C18.3789 14.1733 18.3922 14.06 18.3922 13.94C18.3922 13.86 18.3389 13.8333 18.2322 13.86C18.2055 13.9133 18.1922 13.9533 18.1922 13.98V14.08C18.1389 14.0933 18.0989 14.0933 18.0722 14.08V14L18.0922 13.78L18.0522 13.62C18.0789 13.5933 18.0655 13.5533 18.0122 13.5C17.9989 13.5133 17.9789 13.52 17.9522 13.52C17.9522 13.5733 17.9255 13.6333 17.8722 13.7C17.8055 13.7933 17.7789 13.8667 17.7922 13.92L17.6722 13.98C17.6722 14.0733 17.6789 14.14 17.6922 14.18H17.6522L17.6722 14.34C17.6722 14.4333 17.6522 14.52 17.6122 14.6C17.6122 14.52 17.6189 14.46 17.6322 14.42C17.6589 14.3533 17.6589 14.3 17.6322 14.26L17.5922 14.22L17.6322 13.88C17.5655 13.84 17.5322 13.8467 17.5322 13.9C17.5189 13.8867 17.5189 13.8733 17.5322 13.86H17.4922C17.4922 13.7933 17.4989 13.7533 17.5122 13.74C17.5122 13.7267 17.4922 13.72 17.4522 13.72C17.4522 13.7467 17.4455 13.7667 17.4322 13.78C17.4189 13.7933 17.4122 13.82 17.4122 13.86L17.4322 13.94C17.4189 13.94 17.4122 13.9467 17.4122 13.96L17.4322 14L17.4122 14.04C17.4122 14.08 17.4189 14.1133 17.4322 14.14C17.4455 14.1667 17.4455 14.1867 17.4322 14.2C17.4322 14.2267 17.4189 14.2533 17.3922 14.28C17.3655 14.32 17.3589 14.3467 17.3722 14.36C17.3455 14.3333 17.3389 14.3133 17.3522 14.3V14.26V14.2C17.3522 14.1333 17.3455 14.08 17.3322 14.04C17.3055 13.9733 17.3055 13.9267 17.3322 13.9H17.2722L17.2322 13.92V14C17.2322 14.0133 17.2389 14.0133 17.2522 14L17.2722 14.02C17.2589 14.06 17.2589 14.1 17.2722 14.14V14.24H17.2322C17.2189 14.2533 17.2055 14.2533 17.1922 14.24C17.1922 14.2533 17.1855 14.26 17.1722 14.26L17.1522 14.22C17.1389 14.22 17.1322 14.2133 17.1322 14.2C17.1055 14.1733 17.1055 14.1467 17.1322 14.12V14.08C17.0922 14.04 17.0789 14.0067 17.0922 13.98C17.0655 13.98 17.0522 13.9667 17.0522 13.94L17.0122 13.96C16.9989 13.9733 16.9855 13.9733 16.9722 13.96C16.9722 13.9467 16.9789 13.94 16.9922 13.94C17.0055 13.9533 17.0122 13.9533 17.0122 13.94C16.9855 13.9133 16.9655 13.9 16.9522 13.9C16.9655 13.8867 16.9722 13.86 16.9722 13.82V13.74C16.9589 13.7533 16.9455 13.7533 16.9322 13.74C16.9455 13.7267 16.9455 13.7133 16.9322 13.7C16.9322 13.6733 16.9255 13.6533 16.9122 13.64V13.56C16.9122 13.5333 16.9189 13.5133 16.9322 13.5C16.9322 13.4867 16.9255 13.48 16.9122 13.48H16.8922C16.8789 13.4533 16.8789 13.4333 16.8922 13.42V13.36C16.8655 13.3467 16.8455 13.3333 16.8322 13.32C16.8322 13.2933 16.8389 13.2733 16.8522 13.26C16.8255 13.2333 16.8122 13.2467 16.8122 13.3C16.7989 13.2733 16.8055 13.2467 16.8322 13.22L16.7722 13.04C16.7455 12.96 16.7322 12.8933 16.7322 12.84C16.7322 12.8267 16.7255 12.82 16.7122 12.82C16.6989 12.82 16.6989 12.8133 16.7122 12.8H16.6922V12.66C16.6922 12.5533 16.6722 12.4933 16.6322 12.48C16.6455 12.4667 16.6522 12.4667 16.6522 12.48C16.6522 12.4933 16.6589 12.4933 16.6722 12.48C16.6589 12.4533 16.6589 12.4333 16.6722 12.42C16.6722 12.42 16.6589 12.4067 16.6322 12.38L16.6522 12.26C16.6522 12.2067 16.6455 12.1733 16.6322 12.16C16.6322 12.1333 16.6389 12.1133 16.6522 12.1C16.6389 12.0867 16.6322 12.0667 16.6322 12.04C16.6322 12.0133 16.6389 11.9933 16.6522 11.98C16.6389 11.9133 16.6322 11.7667 16.6322 11.54C16.6322 11.34 16.6389 11.18 16.6522 11.06C16.6522 10.7933 16.6455 10.58 16.6322 10.42C16.6455 10.4067 16.6522 10.36 16.6522 10.28L16.6322 10.02C16.6322 9.99333 16.6389 9.97333 16.6522 9.96C16.6522 9.96 16.6389 9.94667 16.6122 9.92C16.6122 9.81333 16.6189 9.72667 16.6322 9.66C16.6322 9.52667 16.6255 9.44 16.6122 9.4C16.6255 9.38667 16.6322 9.35333 16.6322 9.3L16.6122 9.06L16.6322 8.92L16.6122 8.86V8.84C16.6122 8.8 16.6189 8.76667 16.6322 8.74C16.6589 8.7 16.6589 8.66667 16.6322 8.64L16.6122 8.52L16.6322 8.22C16.6322 8.14 16.6255 8.08667 16.6122 8.06L16.6322 7.96L16.6122 7.92C16.5989 7.92 16.5922 7.91333 16.5922 7.9L16.6122 7.66C16.5989 7.64667 16.6055 7.60667 16.6322 7.54L16.6122 7.42C16.5989 7.38 16.6055 7.34667 16.6322 7.32C16.6055 7.24 16.5922 7.18667 16.5922 7.16L16.6322 6.98L16.6122 6.96C16.6389 6.93333 16.6389 6.89333 16.6122 6.84C16.5989 6.77333 16.5989 6.73333 16.6122 6.72C16.5989 6.72 16.5922 6.71333 16.5922 6.7C16.6055 6.68667 16.5989 6.65333 16.5722 6.6C16.5855 6.58667 16.5922 6.54667 16.5922 6.48V6.36C16.5922 6.29333 16.5989 6.24667 16.6122 6.22C16.5855 6.16667 16.5789 6.12 16.5922 6.08V6C16.5655 5.97333 16.5522 5.95333 16.5522 5.94L16.5722 5.88L16.5522 5.84L16.5922 5.76L16.5722 5.7L16.5922 5.64L16.5722 5.56C16.5455 5.52 16.5522 5.48 16.5922 5.44L16.5522 5.3L16.5322 5.2L16.5522 5.16L16.5322 5.04C16.5189 5 16.5189 4.96 16.5322 4.92C16.5189 4.90667 16.5122 4.88 16.5122 4.84C16.5122 4.78667 16.5189 4.74 16.5322 4.7C16.5322 4.62 16.5055 4.57333 16.4522 4.56C16.3722 4.56 16.3322 4.54667 16.3322 4.52C16.3189 4.50667 16.3322 4.48 16.3722 4.44C16.4122 4.38667 16.4189 4.32 16.3922 4.24L16.3322 4.18C16.3322 4.16667 16.3455 4.14667 16.3722 4.12C16.3989 4.09333 16.3989 4.06667 16.3722 4.04L16.3522 4C16.3255 4 16.3122 3.99333 16.3122 3.98C16.3122 3.91333 16.3522 3.88 16.4322 3.88V3.84C16.4989 3.8 16.5322 3.70667 16.5322 3.56V3.54C16.5322 3.52667 16.5389 3.52 16.5522 3.52C16.5655 3.42667 16.6589 3.32667 16.8322 3.22L16.8922 3.2L17.0322 3.08C17.0589 3.08 17.0789 3.07333 17.0922 3.06C17.1055 3.04667 17.1255 3.04 17.1522 3.04L17.3322 2.98C17.3855 2.92667 17.4855 2.88667 17.6322 2.86C17.6989 2.86 17.7522 2.85333 17.7922 2.84C17.8989 2.85333 17.9989 2.85333 18.0922 2.84H18.3322L18.3722 2.82H18.3922C18.4189 2.84667 18.4655 2.86 18.5322 2.86L18.7122 2.9C18.7255 2.9 18.7455 2.91333 18.7722 2.94L18.9522 3C18.9922 3.05333 19.0722 3.11333 19.1922 3.18L19.4122 3.36C19.3989 3.37333 19.3989 3.38 19.4122 3.38L19.4922 3.46L19.5522 3.56C19.5922 3.57333 19.6189 3.6 19.6322 3.64C19.6322 3.70667 19.6389 3.74667 19.6522 3.76L19.6722 3.84L19.7522 4L19.7322 4.18ZM18.9922 13C18.9789 13 18.9722 12.9933 18.9722 12.98H18.9922V13ZM16.6122 13.26C16.6122 13.2867 16.6055 13.3 16.5922 13.3L16.6122 13.26ZM16.5322 13.34C16.5322 13.3267 16.5389 13.32 16.5522 13.32C16.5522 13.32 16.5455 13.3267 16.5322 13.34C16.5322 13.3533 16.5322 13.3533 16.5322 13.34ZM16.8922 13.5C16.9189 13.5267 16.9189 13.54 16.8922 13.54V13.5ZM16.5322 13.6C16.5189 13.6 16.5122 13.58 16.5122 13.54C16.5255 13.5533 16.5322 13.5733 16.5322 13.6ZM17.2122 13.94L17.1722 13.92C17.1589 13.9333 17.1522 13.9333 17.1522 13.92C17.1655 13.9067 17.1722 13.8867 17.1722 13.86C17.1589 13.8467 17.1522 13.82 17.1522 13.78H17.1322C17.1322 13.7667 17.1255 13.76 17.1122 13.76C17.0989 13.76 17.0989 13.7667 17.1122 13.78C17.0989 13.7933 17.0855 13.7933 17.0722 13.78C17.0589 13.7933 17.0589 13.8067 17.0722 13.82C17.0989 13.8333 17.0989 13.8533 17.0722 13.88C17.0989 13.8933 17.0989 13.9133 17.0722 13.94L17.1122 13.96L17.1722 14.02L17.2122 13.94ZM18.3522 13.96C18.3522 13.9733 18.3389 13.9933 18.3122 14.02C18.3255 14.0067 18.3322 13.9867 18.3322 13.96C18.3189 13.9333 18.3189 13.9133 18.3322 13.9C18.3322 13.9267 18.3389 13.9467 18.3522 13.96ZM17.5122 13.92L17.5322 13.96C17.5322 13.9867 17.5255 14.0067 17.5122 14.02C17.5122 14.0467 17.5189 14.0667 17.5322 14.08C17.5189 14.08 17.5122 14.06 17.5122 14.02C17.5122 13.9933 17.5055 13.98 17.4922 13.98C17.5055 13.98 17.5122 13.9733 17.5122 13.96V13.92ZM17.1522 14.34C17.1389 14.3533 17.1322 14.3533 17.1322 14.34L17.1722 14.26C17.1722 14.2733 17.1789 14.2733 17.1922 14.26L17.2122 14.28C17.1855 14.28 17.1789 14.2867 17.1922 14.3C17.1922 14.3267 17.1855 14.34 17.1722 14.34L17.1922 14.42V14.52C17.1922 14.5733 17.1989 14.6133 17.2122 14.64C17.1722 14.5867 17.1522 14.4933 17.1522 14.36V14.34ZM18.9322 14.3C18.9189 14.3133 18.9189 14.3267 18.9322 14.34L18.9122 14.38C18.8989 14.3667 18.8922 14.3467 18.8922 14.32C18.9055 14.3067 18.9122 14.3 18.9122 14.3H18.9322ZM17.3522 14.42C17.3789 14.42 17.3855 14.4267 17.3722 14.44H17.3522V14.42ZM17.1722 14.66C17.1722 14.6467 17.1789 14.64 17.1922 14.64H17.2122L17.1922 14.68C17.1789 14.68 17.1722 14.6733 17.1722 14.66ZM17.6122 14.66C17.6389 14.6867 17.6389 14.7333 17.6122 14.8V14.82V14.84C17.5855 14.8 17.5855 14.7667 17.6122 14.74V14.66ZM17.2322 14.74L17.2122 14.78C17.1989 14.7667 17.1989 14.7533 17.2122 14.74V14.7L17.2322 14.74ZM17.3322 14.7C17.3455 14.7 17.3522 14.7067 17.3522 14.72C17.3389 14.7333 17.3389 14.7467 17.3522 14.76C17.3255 14.76 17.3122 14.7467 17.3122 14.72C17.3255 14.7067 17.3322 14.7 17.3322 14.7ZM17.2122 14.78C17.2255 14.7933 17.2255 14.8067 17.2122 14.82V14.78ZM18.1122 14.82C18.1122 14.8067 18.1189 14.8067 18.1322 14.82C18.1189 14.82 18.1122 14.8267 18.1122 14.84H18.0922C18.0789 14.8533 18.0789 14.86 18.0922 14.86V14.9H18.0522C18.0789 14.9267 18.0855 14.9467 18.0722 14.96C18.0589 14.9733 18.0522 14.9933 18.0522 15.02C18.0389 15.0067 18.0322 14.98 18.0322 14.94L18.0522 14.78C18.0655 14.78 18.0722 14.7867 18.0722 14.8C18.0589 14.8133 18.0589 14.8267 18.0722 14.84L18.1122 14.82ZM18.2722 14.8C18.2855 14.8 18.2855 14.8067 18.2722 14.82C18.2722 14.8333 18.2722 14.84 18.2722 14.84C18.2722 14.84 18.2655 14.8333 18.2522 14.82C18.2522 14.8067 18.2589 14.8 18.2722 14.8ZM17.2122 14.88C17.1989 14.8667 17.1989 14.8467 17.2122 14.82V14.88ZM17.3522 15.1C17.3389 15.1267 17.3455 15.1667 17.3722 15.22L17.3522 15.2C17.3522 15.2533 17.3389 15.2933 17.3122 15.32C17.3122 15.28 17.3189 15.2467 17.3322 15.22C17.3322 15.1933 17.3255 15.1733 17.3122 15.16V15.14H17.3322C17.3189 15.1267 17.3122 15.1 17.3122 15.06L17.3322 14.94C17.3589 14.9 17.3589 14.8667 17.3322 14.84C17.3589 14.8667 17.3655 14.8933 17.3522 14.92C17.3389 14.9733 17.3455 15.0133 17.3722 15.04C17.3589 15.04 17.3522 15.0333 17.3522 15.02V15.1ZM18.2722 14.98C18.2455 14.9533 18.2455 14.92 18.2722 14.88L18.2922 14.92C18.2789 14.9333 18.2722 14.9533 18.2722 14.98ZM18.4722 14.88C18.4855 14.88 18.4922 14.8933 18.4922 14.92L18.4722 14.88ZM17.5122 14.98C17.4989 14.98 17.4922 14.9733 17.4922 14.96C17.5055 14.9467 17.5122 14.94 17.5122 14.94V14.98ZM17.4122 14.98C17.4255 14.98 17.4322 14.9867 17.4322 15C17.4189 15.0267 17.3989 15.0267 17.3722 15H17.4122V14.98ZM18.3322 15.24L18.3522 15.28L18.3322 15.32V15.24ZM18.3722 15.26C18.3855 15.26 18.3922 15.2667 18.3922 15.28C18.3922 15.2933 18.3855 15.3 18.3722 15.3V15.26ZM18.4722 15.32C18.4722 15.32 18.4655 15.3133 18.4522 15.3C18.4389 15.3 18.4389 15.2933 18.4522 15.28L18.4722 15.32ZM18.8122 15.36L18.8322 15.4C18.8189 15.4 18.8122 15.3933 18.8122 15.38V15.36ZM25.7114 2.16C25.6981 2.14667 25.6914 2.12 25.6914 2.08C25.6914 2.02667 25.6847 1.99333 25.6714 1.98H25.6914C25.6914 1.91333 25.6981 1.87333 25.7114 1.86C25.7247 1.87333 25.7314 1.9 25.7314 1.94C25.7181 1.98 25.7181 2.00667 25.7314 2.02L25.7114 2.06C25.7381 2.08667 25.7514 2.13333 25.7514 2.2C25.7247 2.28 25.7247 2.33333 25.7514 2.36C25.7247 2.33333 25.7181 2.3 25.7314 2.26C25.7314 2.20667 25.7247 2.17333 25.7114 2.16ZM24.2914 2C24.2781 2 24.2714 1.99333 24.2714 1.98C24.2847 1.96667 24.2981 1.96667 24.3114 1.98C24.3114 1.99333 24.3047 2 24.2914 2ZM24.6314 2C24.6314 2 24.6381 2.00667 24.6514 2.02C24.6647 2.02 24.6647 2.02667 24.6514 2.04L24.6314 2ZM24.7514 2C24.7647 2 24.7714 2.02 24.7714 2.06C24.7581 2.04667 24.7514 2.02667 24.7514 2ZM24.7114 2.04C24.6981 2.05333 24.6914 2.04667 24.6914 2.02C24.6914 2.00667 24.6981 2.00667 24.7114 2.02V2.04ZM31.9514 11.46C31.9781 11.4867 31.9781 11.5133 31.9514 11.54C31.9247 11.58 31.9247 11.6133 31.9514 11.64V11.7V11.88C31.9514 11.9333 31.9447 11.9733 31.9314 12C31.9047 12.08 31.8914 12.1333 31.8914 12.16L31.7114 12.64L31.6914 12.68C31.6647 12.7067 31.6381 12.7467 31.6114 12.8C31.5981 12.84 31.5847 12.8733 31.5714 12.9C31.5581 12.9133 31.5447 12.9267 31.5314 12.94C31.5314 12.9533 31.5247 12.96 31.5114 12.96L31.4914 13L31.3914 13.14C31.3114 13.18 31.2447 13.2267 31.1914 13.28L31.0914 13.38L31.0114 13.46H30.9914L30.8314 13.56C30.8047 13.5867 30.7847 13.6 30.7714 13.6H30.6914C30.6781 13.6133 30.6581 13.62 30.6314 13.62L30.5114 13.66L30.4514 13.64L30.4114 13.6L30.3514 13.62C30.3381 13.6067 30.3314 13.5867 30.3314 13.56C30.3314 13.5333 30.3247 13.5133 30.3114 13.5C30.2714 13.5133 30.2447 13.5133 30.2314 13.5C30.2581 13.4333 30.2581 13.38 30.2314 13.34C30.2181 13.3267 30.1981 13.34 30.1714 13.38C30.1581 13.4067 30.1447 13.42 30.1314 13.42C30.1181 13.4067 30.1181 13.3867 30.1314 13.36L30.0514 13.28C30.0114 13.28 29.9781 13.2733 29.9514 13.26C29.9381 13.2333 29.9247 13.22 29.9114 13.22C29.8581 13.1933 29.8114 13.18 29.7714 13.18C29.7447 13.18 29.7247 13.1733 29.7114 13.16C29.6981 13.1733 29.6714 13.16 29.6314 13.12H29.4714C29.4314 13.12 29.3847 13.1067 29.3314 13.08C29.2781 13.1067 29.2181 13.0933 29.1514 13.04C29.1247 13.0667 29.0981 13.0667 29.0714 13.04C29.0581 13.0267 29.0247 13.02 28.9714 13.02L28.8714 13.04L28.8314 13.02L28.7314 13.04L28.6914 13.02C28.6781 12.9933 28.6581 12.9933 28.6314 13.02C28.6181 13.0067 28.5914 13 28.5514 13C28.5381 13.0133 28.5114 13.02 28.4714 13.02C28.3781 13.0467 28.3114 13.0533 28.2714 13.04V13.02H28.2514C28.1981 13.02 28.1647 13.0267 28.1514 13.04H28.1114C28.0714 13.04 28.0447 13.0333 28.0314 13.02C27.8847 13.0467 27.7847 13.0533 27.7314 13.04C27.7047 13.0667 27.6647 13.08 27.6114 13.08H27.4914C27.4514 13.08 27.4114 13.0933 27.3714 13.12C27.3314 13.1333 27.3047 13.14 27.2914 13.14L27.2314 13.12L27.1314 13.16C27.1181 13.1733 27.0781 13.18 27.0114 13.18C26.9981 13.1933 27.0047 13.22 27.0314 13.26L27.0514 13.28C27.0514 13.3467 27.0181 13.38 26.9514 13.38V13.42C26.8714 13.46 26.8314 13.5533 26.8314 13.7L26.8114 13.74C26.7981 13.7933 26.7047 13.8933 26.5314 14.04H26.4714L26.3314 14.16L26.2914 14.18C26.2647 14.2067 26.2381 14.2067 26.2114 14.18L26.0514 14.26L25.8914 14.32L25.5914 14.36C25.5247 14.3467 25.3581 14.34 25.0914 14.34H25.0314C25.0181 14.3267 24.9714 14.3067 24.8914 14.28C24.8114 14.28 24.7581 14.2733 24.7314 14.26L24.6714 14.2L24.4914 14.14C24.4781 14.0867 24.4247 14.0267 24.3314 13.96L24.1714 13.84H24.0514H24.0314H24.0114L23.7314 13.92L23.6914 13.9L23.6514 13.92L23.6314 13.94C23.6314 13.9267 23.6247 13.92 23.6114 13.92C23.5981 13.9067 23.5847 13.9067 23.5714 13.92C23.5581 13.9333 23.5381 13.94 23.5114 13.94L23.4714 13.92C23.4314 13.92 23.3981 13.9267 23.3714 13.94C23.4381 13.8733 23.4581 13.8133 23.4314 13.76C23.4047 13.7333 23.3714 13.7333 23.3314 13.76C23.2914 13.7733 23.2647 13.7733 23.2514 13.76C23.1447 13.8267 23.0314 13.8667 22.9114 13.88C22.8981 13.88 22.8914 13.8867 22.8914 13.9C22.8247 13.9 22.7647 13.9067 22.7114 13.92L22.5114 13.98L22.8714 13.86C22.9514 13.8467 23.0647 13.8067 23.2114 13.74C23.3181 13.74 23.4114 13.72 23.4914 13.68C23.5314 13.6533 23.5314 13.6 23.4914 13.52C23.4514 13.4933 23.4181 13.4933 23.3914 13.52C23.3647 13.5333 23.3381 13.5333 23.3114 13.52C23.2847 13.5067 23.2781 13.48 23.2914 13.44C23.3847 13.3867 23.4447 13.36 23.4714 13.36C23.5647 13.3333 23.6181 13.3133 23.6314 13.3L23.6714 13.28C23.6847 13.2667 23.6914 13.2467 23.6914 13.22V13.18C23.6781 13.18 23.6714 13.1733 23.6714 13.16H23.6114C23.5981 13.16 23.5514 13.1467 23.4714 13.12C23.4181 13.1067 23.3647 13.1133 23.3114 13.14L23.2514 13.06C23.1981 13.06 23.1514 13.08 23.1114 13.12C23.0981 13.12 23.0914 13.1133 23.0914 13.1C23.0781 13.1 23.0314 13.12 22.9514 13.16C22.8847 13.1867 22.8247 13.1867 22.7714 13.16L22.9114 13.12L23.0314 13.08V13.04C23.0447 13.04 23.0914 13.0267 23.1714 13C23.1981 12.9867 23.2447 12.98 23.3114 12.98V12.9C23.2981 12.8867 23.2847 12.8867 23.2714 12.9C23.2714 12.8867 23.2781 12.88 23.2914 12.88C23.2914 12.8667 23.2847 12.86 23.2714 12.86L23.3714 12.82C23.3847 12.82 23.3914 12.8133 23.3914 12.8L23.3714 12.78C23.3581 12.7933 23.3381 12.7933 23.3114 12.78H23.2514C23.2381 12.78 23.2314 12.7867 23.2314 12.8C23.2314 12.8133 23.2247 12.82 23.2114 12.82H23.1714C23.1714 12.8333 23.1647 12.84 23.1514 12.84H23.1114C23.0847 12.84 23.0647 12.8467 23.0514 12.86C23.0247 12.8867 23.0047 12.9 22.9914 12.9C22.9647 12.9 22.9447 12.8933 22.9314 12.88C22.9181 12.8533 22.8981 12.8533 22.8714 12.88C22.8714 12.8533 22.8781 12.84 22.8914 12.84H22.9314C22.9714 12.84 23.0181 12.82 23.0714 12.78L23.1914 12.72C23.1914 12.6933 23.1781 12.6733 23.1514 12.66C23.1247 12.6467 23.1047 12.6467 23.0914 12.66H23.1114L23.0914 12.7C23.0514 12.7 23.0247 12.7067 23.0114 12.72L22.9314 12.76L22.9114 12.72C22.8981 12.72 22.8914 12.7067 22.8914 12.68H22.8714L22.8914 12.72L22.8514 12.7C22.8381 12.7133 22.8314 12.7133 22.8314 12.7C22.8047 12.7267 22.7714 12.74 22.7314 12.74L22.6514 12.78L22.8114 12.68C22.8247 12.68 22.8314 12.6733 22.8314 12.66H22.8114C22.8247 12.6467 22.8381 12.6467 22.8514 12.66C22.8514 12.6733 22.8581 12.6733 22.8714 12.66C22.8847 12.66 22.9047 12.6467 22.9314 12.62L22.9914 12.58C23.0314 12.54 23.0581 12.5267 23.0714 12.54V12.5C23.0581 12.5 23.0581 12.4933 23.0714 12.48V12.44C23.0847 12.4267 23.0914 12.4067 23.0914 12.38C23.1047 12.3933 23.1447 12.3867 23.2114 12.36C23.2114 12.3467 23.2047 12.34 23.1914 12.34C23.1781 12.34 23.1781 12.3333 23.1914 12.32C23.2314 12.32 23.2581 12.3 23.2714 12.26C23.2981 12.2733 23.3181 12.2733 23.3314 12.26L23.3714 12.24C23.3847 12.24 23.3914 12.2333 23.3914 12.22L23.3714 12.2C23.3847 12.1867 23.4114 12.18 23.4514 12.18C23.4647 12.1533 23.4781 12.1333 23.4914 12.12C23.5047 12.1067 23.5181 12.1067 23.5314 12.12C23.5314 12.0933 23.5181 12.08 23.4914 12.08C23.4914 12.0667 23.4981 12.06 23.5114 12.06L23.5514 12.08C23.5914 12.0533 23.6314 12.0133 23.6714 11.96C23.6981 11.9333 23.7381 11.9067 23.7914 11.88C23.8047 11.88 23.8114 11.8733 23.8114 11.86C23.8114 11.8467 23.8181 11.8467 23.8314 11.86V11.84L23.9514 11.78C24.0047 11.7667 24.0314 11.74 24.0314 11.7L24.0514 11.74L24.0914 11.7C24.1047 11.7 24.1114 11.6867 24.1114 11.66C24.2047 11.66 24.2514 11.6133 24.2514 11.52V11.38C24.2514 11.3 24.2581 11.24 24.2714 11.2V11.16C24.2714 11.12 24.2847 11.0467 24.3114 10.94V10.9C24.3114 10.8467 24.3181 10.8067 24.3314 10.78C24.3447 10.7533 24.3514 10.7133 24.3514 10.66L24.3314 10.5L24.3514 10.46V10.38C24.3381 10.3533 24.3447 10.3067 24.3714 10.24C24.3981 10.2133 24.3981 10.1867 24.3714 10.16C24.3847 10.12 24.3914 10.0533 24.3914 9.96C24.3781 9.92 24.3714 9.87333 24.3714 9.82C24.3714 9.74 24.3781 9.68667 24.3914 9.66L24.4114 9.62V9.58V9.44C24.3981 9.4 24.4047 9.35333 24.4314 9.3C24.4314 9.08667 24.4381 8.95333 24.4514 8.9V8.82L24.4714 8.54V8.48L24.4514 8.28L24.4714 8.18L24.4514 8.04L24.4714 7.78L24.4514 7.54L24.4714 7.46L24.4514 7.4C24.4381 7.34667 24.4381 7.29333 24.4514 7.24C24.4647 7.18667 24.4647 7.13333 24.4514 7.08V6.84C24.4514 6.72 24.4447 6.64 24.4314 6.6C24.4447 6.58667 24.4514 6.54667 24.4514 6.48L24.4314 6.2C24.4314 5.92 24.4247 5.74 24.4114 5.66L24.3914 5.26C24.3914 5.15333 24.3981 5.08667 24.4114 5.06L24.4514 5.04C24.4514 5.02667 24.4447 5.02 24.4314 5.02C24.4181 5.02 24.4114 5.01333 24.4114 5C24.4114 4.98667 24.4181 4.98 24.4314 4.98C24.4447 4.99333 24.4514 4.99333 24.4514 4.98L24.4914 4.48C24.4914 4.46667 24.4981 4.46 24.5114 4.46C24.5114 4.47333 24.5181 4.47333 24.5314 4.46C24.5047 4.42 24.5047 4.36667 24.5314 4.3C24.5581 4.23333 24.5581 4.17333 24.5314 4.12L24.5514 3.98C24.5381 3.98 24.5314 3.97333 24.5314 3.96H24.5514V3.92C24.5647 3.88 24.5714 3.82 24.5714 3.74C24.5581 3.68667 24.5581 3.63333 24.5714 3.58C24.5847 3.56667 24.5914 3.54667 24.5914 3.52L24.5714 3.48V3.44H24.5914C24.6047 3.42667 24.6114 3.4 24.6114 3.36C24.5981 3.34667 24.5914 3.32667 24.5914 3.3L24.6114 3.22L24.6314 3.18C24.6447 3.22 24.6914 3.24667 24.7714 3.26C24.7981 3.23333 24.8114 3.19333 24.8114 3.14C24.7981 3.08667 24.7981 3.05333 24.8114 3.04C24.7981 2.98667 24.7914 2.84 24.7914 2.6C24.7914 2.58667 24.7847 2.58 24.7714 2.58C24.7981 2.5 24.7981 2.42 24.7714 2.34C24.7581 2.26 24.7581 2.18 24.7714 2.1L24.8114 2.56C24.8114 2.69333 24.8247 2.84 24.8514 3L24.8314 3.16L24.8514 3.34C24.8514 3.40667 24.9047 3.42667 25.0114 3.4C25.0247 3.38667 25.0314 3.34667 25.0314 3.28C25.0181 3.2 25.0514 3.16 25.1314 3.16C25.1447 3.18667 25.1514 3.24 25.1514 3.32V3.46C25.1514 3.54 25.1647 3.59333 25.1914 3.62C25.1781 3.63333 25.1781 3.64667 25.1914 3.66V3.7L25.2514 3.74L25.2914 3.72C25.2914 3.66667 25.3181 3.59333 25.3714 3.5C25.4114 3.42 25.4247 3.35333 25.4114 3.3L25.5114 3.24C25.5114 3.14667 25.5047 3.08 25.4914 3.04H25.5114C25.4981 3 25.4914 2.91333 25.4914 2.78C25.4914 2.7 25.4981 2.64667 25.5114 2.62C25.5247 2.66 25.5314 2.71333 25.5314 2.78C25.5181 2.83333 25.5181 2.89333 25.5314 2.96C25.5314 2.97333 25.5447 2.98 25.5714 2.98C25.5581 3.03333 25.5581 3.08667 25.5714 3.14C25.5981 3.20667 25.5981 3.27333 25.5714 3.34H25.6314C25.6581 3.34 25.6714 3.32667 25.6714 3.3V3.34H25.6914V3.46C25.7047 3.47333 25.7247 3.48 25.7514 3.48L25.7714 3.32L25.7514 3.26C25.7514 3.24667 25.7581 3.24 25.7714 3.24L25.7514 3.2C25.7381 3.2 25.7314 3.19333 25.7314 3.18L25.7514 3.14C25.7781 3.11333 25.7781 3.08 25.7514 3.04L25.7314 2.96C25.7314 2.94667 25.7447 2.92667 25.7714 2.9C25.7981 2.87333 25.7981 2.84667 25.7714 2.82C25.7847 2.82 25.7914 2.83333 25.7914 2.86C25.7914 2.92667 25.8047 3 25.8314 3.08C25.8447 3.12 25.8514 3.18 25.8514 3.26C25.8647 3.27333 25.8981 3.26667 25.9514 3.24C25.9381 3.22667 25.9314 3.2 25.9314 3.16C25.9181 3.17333 25.9047 3.17333 25.8914 3.16L25.8714 2.94C25.9114 2.91333 25.9381 2.90667 25.9514 2.92V2.9H25.9314L25.9514 2.86C25.9381 2.84667 25.9381 2.84 25.9514 2.84C25.9381 2.81333 25.9314 2.76 25.9314 2.68C25.9314 2.61333 25.9181 2.56667 25.8914 2.54C25.9447 2.59333 25.9714 2.68 25.9714 2.8C25.9714 2.81333 25.9781 2.82 25.9914 2.82L25.9714 2.9C25.9714 2.91333 25.9847 2.93333 26.0114 2.96C26.0114 3.02667 26.0181 3.06667 26.0314 3.08L26.0514 3.12C26.0647 3.13333 26.0647 3.14667 26.0514 3.16L26.1114 3.2H26.1514C26.1514 3.21333 26.1581 3.22 26.1714 3.22L26.1914 3.24C26.1781 3.25333 26.1847 3.30667 26.2114 3.4L26.2514 3.38C26.2381 3.39333 26.2314 3.41333 26.2314 3.44C26.2447 3.46667 26.2581 3.48667 26.2714 3.5C26.2581 3.51333 26.2581 3.53333 26.2714 3.56C26.2981 3.58667 26.2981 3.61333 26.2714 3.64C26.2714 3.65333 26.2781 3.65333 26.2914 3.64C26.3047 3.64 26.3114 3.64667 26.3114 3.66C26.3247 3.67333 26.3314 3.69333 26.3314 3.72L26.3114 3.76C26.3514 3.8 26.3647 3.84 26.3514 3.88C26.3781 3.88 26.3914 3.86667 26.3914 3.84C26.4181 3.84 26.4114 3.86 26.3714 3.9L26.4514 4.06C26.4914 4.14 26.5114 4.21333 26.5114 4.28C26.5114 4.29333 26.5181 4.3 26.5314 4.3C26.5447 4.3 26.5447 4.30667 26.5314 4.32H26.5514C26.5514 4.49333 26.5781 4.6 26.6314 4.64C26.6181 4.65333 26.6114 4.65333 26.6114 4.64C26.6114 4.62667 26.6047 4.62667 26.5914 4.64C26.6047 4.64 26.6114 4.65333 26.6114 4.68C26.6114 4.69333 26.6247 4.71333 26.6514 4.74V4.84C26.6381 4.89333 26.6447 4.93333 26.6714 4.96L26.6314 5.02C26.6581 5.04667 26.6714 5.06667 26.6714 5.08C26.6714 5.12 26.6647 5.14667 26.6514 5.16C26.6914 5.41333 26.7114 5.67333 26.7114 5.94C26.7114 5.99333 26.7314 6.26 26.7714 6.74C26.7581 6.75333 26.7514 6.79333 26.7514 6.86L26.7914 7.12V7.18C26.7781 7.19333 26.7781 7.21333 26.7914 7.24C26.8047 7.28 26.8114 7.36667 26.8114 7.5C26.8114 7.63333 26.8181 7.72 26.8314 7.76C26.8181 7.77333 26.8114 7.80667 26.8114 7.86L26.8314 8.1V8.16C26.8181 8.22667 26.8247 8.27333 26.8514 8.3C26.8514 8.35333 26.8447 8.38667 26.8314 8.4C26.8181 8.42667 26.8114 8.46667 26.8114 8.52L26.8514 8.64L26.8314 8.88C26.8314 9 26.8381 9.07333 26.8514 9.1L26.8314 9.22C26.8581 9.24667 26.8714 9.26667 26.8714 9.28V9.4C26.8581 9.45333 26.8581 9.49333 26.8714 9.52L26.8514 9.64C26.8514 9.68 26.8581 9.71333 26.8714 9.74C26.8714 9.80667 26.8647 9.85333 26.8514 9.88C26.8647 9.89333 26.8714 9.93333 26.8714 10L26.8314 10.22H26.8514V10.24C26.8514 10.2933 26.8581 10.3333 26.8714 10.36C26.8714 10.4267 26.8647 10.4667 26.8514 10.48H26.8714V10.5C26.8714 10.5533 26.8781 10.5867 26.8914 10.6C26.8514 10.6533 26.8447 10.7133 26.8714 10.78C26.8847 10.7667 26.9181 10.76 26.9714 10.76C27.0114 10.7867 27.0447 10.7867 27.0714 10.76C27.0981 10.76 27.1181 10.7533 27.1314 10.74L27.1714 10.72C27.2247 10.72 27.2581 10.7133 27.2714 10.7H27.3714L27.5714 10.66C27.5847 10.6467 27.6047 10.64 27.6314 10.64C27.6447 10.6533 27.6581 10.6533 27.6714 10.64L27.7114 10.62L27.9114 10.58L28.0314 10.6C28.1381 10.56 28.2047 10.5533 28.2314 10.58C28.3247 10.5133 28.4247 10.5067 28.5314 10.56V10.54H28.5514H28.5714C28.6114 10.54 28.6447 10.5333 28.6714 10.52C28.7114 10.4933 28.7447 10.4933 28.7714 10.52V10.5H28.7914C28.8181 10.5133 28.8447 10.5067 28.8714 10.48C28.9247 10.5067 28.9647 10.5133 28.9914 10.5H29.0714L29.1514 10.48L29.2314 10.52C29.2581 10.4933 29.2981 10.48 29.3514 10.48C29.3781 10.4933 29.4114 10.5 29.4514 10.5C29.4781 10.4733 29.4981 10.46 29.5114 10.46L29.5514 10.48L29.5914 10.46L29.6314 10.48C29.6314 10.4933 29.6381 10.5 29.6514 10.5L29.7114 10.48L29.7514 10.5C29.7514 10.5133 29.7581 10.52 29.7714 10.52L29.8714 10.5C29.9114 10.46 29.9381 10.4733 29.9514 10.54C29.9647 10.5267 30.0114 10.52 30.0914 10.52L30.1914 10.5L30.2314 10.52H30.2714L30.3514 10.5C30.3914 10.5 30.4247 10.5133 30.4514 10.54C30.4781 10.5267 30.5381 10.5333 30.6314 10.56H30.7114L30.7914 10.52C30.8181 10.4533 30.8381 10.42 30.8514 10.42C30.8647 10.42 30.8781 10.4267 30.8914 10.44C30.9047 10.4533 30.9114 10.4667 30.9114 10.48C30.9914 10.52 31.0581 10.5333 31.1114 10.52L31.1514 10.5C31.1514 10.4867 31.1581 10.48 31.1714 10.48C31.1847 10.48 31.2047 10.4933 31.2314 10.52C31.2581 10.5467 31.2781 10.56 31.2914 10.56C31.3181 10.56 31.3381 10.5533 31.3514 10.54C31.3514 10.5267 31.3581 10.52 31.3714 10.52C31.4114 10.52 31.4314 10.56 31.4314 10.64L31.4714 10.66C31.4714 10.7133 31.4981 10.7467 31.5514 10.76L31.6314 10.8L31.6914 10.82L31.7314 10.84C31.7981 10.8933 31.8581 11.0133 31.9114 11.2L31.8914 11.24L31.9314 11.34C31.9314 11.3667 31.9381 11.3867 31.9514 11.4C31.9381 11.4133 31.9381 11.4333 31.9514 11.46ZM25.6914 2.16C25.6914 2.14667 25.6914 2.14667 25.6914 2.16C25.7047 2.16 25.7114 2.16 25.7114 2.16H25.6914ZM25.6714 2.22C25.6581 2.22 25.6514 2.21333 25.6514 2.2C25.6647 2.18667 25.6781 2.18 25.6914 2.18V2.2H25.6714V2.22ZM25.5714 2.28C25.5581 2.25333 25.5581 2.23333 25.5714 2.22L25.5914 2.24L25.5714 2.28ZM25.0914 2.28L25.0714 2.24L25.0914 2.28ZM25.0714 2.46C25.0714 2.44667 25.0647 2.44 25.0514 2.44L25.0314 2.36C25.0314 2.34667 25.0447 2.32667 25.0714 2.3L25.0914 2.28V2.36C25.0647 2.42667 25.0647 2.47333 25.0914 2.5L25.0714 2.46ZM25.4714 2.28C25.4847 2.28 25.4914 2.29333 25.4914 2.32L25.4714 2.28ZM24.8514 2.3C24.8647 2.31333 24.8714 2.35333 24.8714 2.42C24.8581 2.40667 24.8514 2.36667 24.8514 2.3ZM25.8714 2.34C25.8581 2.35333 25.8581 2.36667 25.8714 2.38C25.8447 2.35333 25.8381 2.33333 25.8514 2.32C25.8514 2.30667 25.8514 2.30667 25.8514 2.32C25.8647 2.32 25.8714 2.32667 25.8714 2.34ZM25.4914 2.36C25.5047 2.38667 25.5114 2.42 25.5114 2.46C25.4847 2.48667 25.4847 2.52 25.5114 2.56C25.4714 2.52 25.4647 2.46667 25.4914 2.4V2.36ZM25.7514 2.38C25.7381 2.38 25.7314 2.38 25.7314 2.38C25.7447 2.36667 25.7514 2.36 25.7514 2.36C25.7647 2.36 25.7714 2.36667 25.7714 2.38C25.7714 2.39333 25.7647 2.39333 25.7514 2.38ZM25.8914 2.42C25.8781 2.43333 25.8781 2.44667 25.8914 2.46C25.8781 2.46 25.8714 2.44 25.8714 2.4L25.8914 2.42ZM25.0514 2.44C25.0381 2.45333 25.0247 2.45333 25.0114 2.44C25.0114 2.42667 25.0114 2.42 25.0114 2.42L25.0514 2.44ZM25.7514 2.42C25.7647 2.42 25.7714 2.44667 25.7714 2.5C25.7581 2.48667 25.7514 2.46 25.7514 2.42ZM24.8714 2.46L24.8514 2.44L24.8714 2.46ZM24.8714 2.5C24.8581 2.48667 24.8581 2.47333 24.8714 2.46C24.8714 2.48667 24.8714 2.5 24.8714 2.5ZM25.9114 2.52C25.8981 2.52 25.8914 2.51333 25.8914 2.5H25.9114V2.52ZM25.7514 2.76C25.7514 2.74667 25.7647 2.74 25.7914 2.74V2.76C25.7781 2.77333 25.7714 2.77333 25.7714 2.76H25.7514ZM24.2914 3.04C24.3047 3.02667 24.3114 3.00667 24.3114 2.98L24.3314 3.02C24.3181 3.03333 24.3047 3.04 24.2914 3.04ZM25.6714 3.28C25.6581 3.26667 25.6581 3.24 25.6714 3.2C25.6714 3.16 25.6647 3.13333 25.6514 3.12C25.6647 3.10667 25.6714 3.11333 25.6714 3.14C25.6714 3.18 25.6781 3.2 25.6914 3.2L25.6714 3.24V3.28ZM24.6114 3.14L24.6314 3.18L24.6114 3.14ZM26.1114 3.32C26.0981 3.29333 26.0981 3.27333 26.1114 3.26C26.0714 3.26 26.0647 3.24667 26.0914 3.22C26.0914 3.22 26.0781 3.20667 26.0514 3.18C26.0247 3.15333 26.0047 3.14667 25.9914 3.16L25.9714 3.22C25.9714 3.23333 25.9781 3.23333 25.9914 3.22C26.0047 3.22 26.0114 3.22667 26.0114 3.24C25.9981 3.25333 25.9981 3.27333 26.0114 3.3C26.0247 3.31333 26.0314 3.34 26.0314 3.38H26.0914C26.1047 3.36667 26.1114 3.34667 26.1114 3.32ZM24.9114 3.26L24.8914 3.28L24.9114 3.26ZM24.8914 3.28L24.9114 3.3C24.9114 3.3 24.9114 3.30667 24.9114 3.32L24.8914 3.28ZM26.6314 3.5C26.6447 3.5 26.6514 3.52 26.6514 3.56C26.6381 3.54667 26.6314 3.52667 26.6314 3.5ZM26.6514 3.76C26.6514 3.77333 26.6447 3.78 26.6314 3.78C26.6314 3.78 26.6314 3.77333 26.6314 3.76C26.6447 3.74667 26.6514 3.74667 26.6514 3.76ZM26.5914 3.84C26.5647 3.81333 26.5647 3.8 26.5914 3.8V3.84ZM24.3714 4.32C24.3714 4.32 24.3714 4.32667 24.3714 4.34C24.3847 4.34 24.3847 4.34 24.3714 4.34V4.32ZM23.3914 11.86C23.3781 11.86 23.3714 11.8667 23.3714 11.88C23.3581 11.8667 23.3581 11.86 23.3714 11.86C23.3847 11.8467 23.3914 11.8467 23.3914 11.86ZM23.2114 11.9V11.88V11.9ZM23.1714 11.92C23.1714 11.9067 23.1781 11.9 23.1914 11.9H23.2114L23.1714 11.92ZM23.3514 12.22C23.3514 12.2333 23.3447 12.2333 23.3314 12.22H23.3514ZM23.0714 12.44C23.0714 12.44 23.0714 12.4333 23.0714 12.42V12.44ZM23.2314 12.48C23.2181 12.48 23.2114 12.4733 23.2114 12.46C23.2114 12.4467 23.2047 12.44 23.1914 12.44C23.1781 12.44 23.1647 12.4533 23.1514 12.48C23.1381 12.4933 23.1181 12.5 23.0914 12.5C23.1047 12.5133 23.1047 12.5267 23.0914 12.54C23.0781 12.5533 23.0714 12.5733 23.0714 12.6C23.0981 12.6 23.1181 12.6067 23.1314 12.62V12.58C23.1181 12.5667 23.1181 12.56 23.1314 12.56C23.1447 12.5733 23.1647 12.5667 23.1914 12.54L23.2314 12.52V12.48ZM22.6114 12.8L22.6514 12.78L22.6114 12.8ZM22.5914 12.82C22.5781 12.8067 22.5781 12.8 22.5914 12.8C22.6047 12.7867 22.6114 12.7867 22.6114 12.8L22.5914 12.82ZM22.5714 12.82C22.5447 12.8467 22.5247 12.86 22.5114 12.86L22.5714 12.82ZM22.4714 12.88C22.4581 12.88 22.4514 12.88 22.4514 12.88C22.4514 12.8667 22.4581 12.86 22.4714 12.86C22.4847 12.8733 22.4981 12.8733 22.5114 12.86C22.4981 12.8733 22.4847 12.88 22.4714 12.88ZM23.2514 12.88C23.2247 12.9067 23.2047 12.92 23.1914 12.92C23.1514 12.92 23.1247 12.9267 23.1114 12.94C23.1114 12.9267 23.1247 12.92 23.1514 12.92L23.1914 12.9H23.2114C23.2247 12.9 23.2314 12.8933 23.2314 12.88C23.2314 12.8667 23.2381 12.8667 23.2514 12.88ZM22.8314 12.88C22.8314 12.8933 22.8247 12.9 22.8114 12.9V12.88H22.8314ZM22.5714 12.96C22.5581 12.9467 22.5581 12.94 22.5714 12.94L22.6114 12.92C22.6114 12.9333 22.6047 12.9467 22.5914 12.96C22.5781 12.96 22.5714 12.96 22.5714 12.96ZM22.5314 12.98H22.5114C22.5114 12.9667 22.5181 12.96 22.5314 12.96V12.98ZM22.5114 12.98C22.5114 13.0067 22.4914 13.02 22.4514 13.02C22.4247 13.02 22.3981 13.0333 22.3714 13.06C22.3047 13.06 22.2581 13.08 22.2314 13.12V13.08L22.1914 13.1C22.1647 13.1 22.1447 13.0933 22.1314 13.08H22.2114C22.2381 13.08 22.2514 13.0667 22.2514 13.04C22.2647 13.04 22.2714 13.0467 22.2714 13.06L22.3914 13C22.4581 13 22.4981 12.9933 22.5114 12.98ZM22.3914 13.06C22.3914 13.06 22.3914 13.0667 22.3914 13.08C22.3914 13.08 22.3981 13.08 22.4114 13.08C22.3981 13.08 22.3914 13.0733 22.3914 13.06ZM22.4314 13.08C22.4314 13.0933 22.4247 13.1 22.4114 13.1C22.4114 13.0867 22.4114 13.08 22.4114 13.08H22.4314ZM22.4514 13.18C22.4514 13.1667 22.4581 13.16 22.4714 13.16L22.4514 13.18ZM22.4914 13.16C22.4781 13.1733 22.4714 13.1733 22.4714 13.16H22.4914ZM22.5914 13.24C22.5647 13.24 22.5581 13.2333 22.5714 13.22L22.7114 13.18C22.7114 13.1933 22.6981 13.2067 22.6714 13.22C22.6581 13.2333 22.6381 13.2333 22.6114 13.22C22.6114 13.2333 22.6047 13.24 22.5914 13.24ZM22.5114 13.26C22.4981 13.2467 22.4981 13.24 22.5114 13.24H22.5314L22.5114 13.26ZM22.7314 13.62C22.7181 13.62 22.7114 13.6267 22.7114 13.64C22.7247 13.6533 22.7381 13.66 22.7514 13.66L22.7314 13.68C22.7181 13.6667 22.7181 13.66 22.7314 13.66C22.7047 13.66 22.6847 13.6667 22.6714 13.68V13.64C22.6581 13.6533 22.6447 13.66 22.6314 13.66H22.5714C22.5847 13.6467 22.6181 13.6333 22.6714 13.62C22.7114 13.62 22.7381 13.6133 22.7514 13.6C22.7514 13.6133 22.7447 13.62 22.7314 13.62ZM22.7714 13.84C22.7714 13.8267 22.7714 13.82 22.7714 13.82C22.7847 13.8067 22.7981 13.8067 22.8114 13.82L22.7714 13.84ZM22.7514 13.82C22.7247 13.8467 22.6981 13.86 22.6714 13.86L22.7514 13.82ZM24.0514 13.86C24.0381 13.86 24.0381 13.8533 24.0514 13.84V13.86ZM22.4914 13.98C22.4781 13.9933 22.4581 14 22.4314 14L22.4914 13.98ZM22.7914 14.04C22.7914 14.0267 22.7981 14.02 22.8114 14.02V14.04H22.7914ZM22.4714 14.06C22.4581 14.06 22.4581 14.0533 22.4714 14.04H22.4914C22.4914 14.0533 22.4847 14.06 22.4714 14.06ZM22.4714 14.1C22.4714 14.0867 22.4781 14.0867 22.4914 14.1L22.4714 14.14V14.1ZM23.3514 14.24C23.3647 14.2533 23.3781 14.2533 23.3914 14.24L23.3714 14.26C23.3581 14.2467 23.3514 14.2467 23.3514 14.26C23.3381 14.2733 23.3247 14.2733 23.3114 14.26L23.3514 14.24ZM22.5114 14.48L22.5314 14.44V14.46V14.48H22.5114ZM44.9236 12.62C44.9103 12.6733 44.9103 12.72 44.9236 12.76C44.8969 12.8933 44.8836 13.0533 44.8836 13.24V13.28L44.8236 13.4L44.7836 13.54C44.7703 13.54 44.7569 13.5467 44.7436 13.56C44.7303 13.5733 44.7236 13.5867 44.7236 13.6C44.6836 13.64 44.6503 13.6867 44.6236 13.74C44.4236 13.8067 44.3236 13.84 44.3236 13.84C44.2436 13.92 44.1436 13.96 44.0236 13.96H43.7036C43.6903 13.9733 43.6436 13.98 43.5636 13.98L43.5036 13.94L43.4236 13.92L43.1836 13.84C43.1169 13.84 43.0436 13.8 42.9636 13.72L42.8836 13.66L42.8436 13.64C42.8169 13.64 42.7969 13.6333 42.7836 13.62C42.7436 13.58 42.7236 13.52 42.7236 13.44C42.6969 13.44 42.6636 13.4133 42.6236 13.36C42.6503 13.28 42.6569 13.2333 42.6436 13.22C42.6436 13.1933 42.6036 13.18 42.5236 13.18C42.4569 13.18 42.4436 13.1533 42.4836 13.1L42.4036 12.96L42.2836 12.84L42.2236 12.74L42.1636 12.66L42.1036 12.58C42.0636 12.5533 42.0436 12.5267 42.0436 12.5L41.9836 12.44L41.9436 12.38L41.8036 12.2C41.7103 12.1333 41.6569 12.0733 41.6436 12.02C41.5503 11.9533 41.4969 11.8733 41.4836 11.78C41.4303 11.7533 41.3969 11.7133 41.3836 11.66C41.3703 11.62 41.3436 11.58 41.3036 11.54L41.1836 11.42C41.1836 11.3933 41.1769 11.38 41.1636 11.38L41.1236 11.3L41.0636 11.24C41.0636 11.1733 41.0369 11.1333 40.9836 11.12C40.9703 11.0933 40.9169 11.02 40.8236 10.9C40.7303 10.78 40.6769 10.7067 40.6636 10.68V10.64L40.5636 10.5L40.4836 10.34L40.4236 10.26L40.3636 10.16L40.2636 9.96L40.2036 9.88L40.1636 9.8L40.0836 9.64L40.0036 9.52C39.9636 9.48 39.9369 9.44 39.9236 9.4L39.8836 9.28C39.8436 9.24 39.8169 9.2 39.8036 9.16L39.6836 8.92L39.5436 8.7V8.62L39.4836 8.56L39.3436 8.24L39.1436 7.78C39.1436 7.75333 39.1169 7.69333 39.0636 7.6V7.58L38.9836 7.72L38.9436 7.74L38.8836 7.9C38.8569 7.98 38.8236 8.03333 38.7836 8.06C38.7436 8.19333 38.6769 8.32667 38.5836 8.46C38.5569 8.54 38.4969 8.65333 38.4036 8.8L38.3436 8.94L38.3036 9.08L38.2436 9.16C38.2303 9.24 38.2103 9.29333 38.1836 9.32H38.2036V9.34L38.2436 9.32L38.2836 9.34C38.2969 9.34 38.3169 9.32667 38.3436 9.3C38.3569 9.28667 38.3703 9.3 38.3836 9.34L38.4436 9.3L38.5036 9.28H38.5236C38.5503 9.28 38.5703 9.27333 38.5836 9.26C38.6103 9.23333 38.6303 9.23333 38.6436 9.26L38.6636 9.24H38.7436C38.7836 9.25333 38.8103 9.23333 38.8236 9.18C38.8236 9.12667 38.8303 9.09333 38.8436 9.08L38.8636 9.1C38.8636 9.11333 38.8703 9.12 38.8836 9.12C38.9103 9.14667 38.9436 9.15333 38.9836 9.14L39.0036 9.08L39.0436 9.1C39.0569 9.11333 39.0703 9.12 39.0836 9.12C39.0969 9.10667 39.1036 9.09333 39.1036 9.08C39.1036 9.06667 39.1103 9.06 39.1236 9.06C39.1503 9.06 39.1636 9.09333 39.1636 9.16C39.1769 9.17333 39.1836 9.17333 39.1836 9.16C39.1969 9.21333 39.2436 9.24 39.3236 9.24L39.3436 9.26C39.3836 9.28667 39.4369 9.36667 39.5036 9.5V9.56L39.5636 9.66L39.5836 9.78L39.6236 9.92C39.6503 10 39.6636 10.0467 39.6636 10.06C39.6769 10.1 39.6836 10.1867 39.6836 10.32C39.6836 10.3867 39.6903 10.44 39.7036 10.48C39.7036 10.6 39.6969 10.7 39.6836 10.78L39.7036 10.82C39.6903 10.8333 39.6836 10.8733 39.6836 10.94C39.6836 11.02 39.6769 11.0733 39.6636 11.1L39.6436 11.16C39.6303 11.1867 39.6236 11.24 39.6236 11.32C39.5703 11.3733 39.5369 11.4333 39.5236 11.5C39.5103 11.54 39.4836 11.6067 39.4436 11.7H39.4236C39.4103 11.74 39.3836 11.78 39.3436 11.82C39.3303 11.86 39.3169 11.88 39.3036 11.88L39.2436 11.92L39.2036 11.94C39.1903 11.94 39.1636 11.96 39.1236 12C39.1103 12.0133 39.0969 12.0133 39.0836 12L39.0436 11.98C39.0303 11.98 39.0236 11.9867 39.0236 12L39.0036 12.02C38.9903 12.0067 38.9836 11.9867 38.9836 11.96L38.9436 11.92C38.9303 11.9333 38.9103 11.9333 38.8836 11.92C38.8836 11.7867 38.8636 11.76 38.8236 11.84C38.8236 11.8667 38.8169 11.88 38.8036 11.88C38.7903 11.8667 38.7836 11.8467 38.7836 11.82C38.7703 11.78 38.7236 11.76 38.6436 11.76L38.5436 11.74H38.5036C38.4769 11.74 38.4569 11.7333 38.4436 11.72C38.4303 11.7333 38.4236 11.7333 38.4236 11.72L38.3836 11.7H38.3436H38.2636C38.2236 11.7133 38.1903 11.7067 38.1636 11.68C38.1369 11.7067 38.1103 11.7067 38.0836 11.68C38.0703 11.6667 38.0503 11.66 38.0236 11.66C37.9969 11.6867 37.9703 11.6867 37.9436 11.66C37.9303 11.6467 37.9103 11.64 37.8836 11.64L37.8036 11.66L37.7836 11.64L37.7436 11.66C37.7303 11.6733 37.7169 11.6733 37.7036 11.66L37.6836 11.64C37.6569 11.64 37.6369 11.6467 37.6236 11.66C37.6103 11.6467 37.5769 11.6467 37.5236 11.66C37.4703 11.6733 37.4236 11.6667 37.3836 11.64H37.3636H37.2836C37.2569 11.6533 37.2303 11.6467 37.2036 11.62H37.1636C37.1369 11.6467 37.1103 11.6467 37.0836 11.62L37.0436 11.68C36.9369 11.9333 36.8369 12.1333 36.7436 12.28H36.6836C36.6836 12.2933 36.6903 12.3 36.7036 12.3L36.6836 12.34C36.6836 12.3533 36.6769 12.36 36.6636 12.36C36.6636 12.3467 36.6636 12.34 36.6636 12.34L36.3436 12.8C36.3303 12.8133 36.3236 12.8133 36.3236 12.8C36.3236 12.7867 36.3169 12.7867 36.3036 12.8C36.3036 12.8 36.2703 12.8533 36.2036 12.96L36.1436 13.04L36.1036 13.12L36.0036 13.26V13.28H35.9836L35.9436 13.32C35.8769 13.4133 35.8436 13.4667 35.8436 13.48C35.8436 13.4933 35.8103 13.5467 35.7436 13.64C35.7303 13.64 35.7103 13.6533 35.6836 13.68V13.72L35.6636 13.76H35.6436C35.6303 13.76 35.6036 13.8 35.5636 13.88L35.4436 14.02C35.4703 13.94 35.4569 13.8733 35.4036 13.82C35.3503 13.8733 35.3236 13.9 35.3236 13.9C35.3236 13.9 35.2903 13.9333 35.2236 14C35.1569 14.1333 35.0703 14.28 34.9636 14.44V14.46L34.8236 14.66C34.7436 14.7933 34.6903 14.8733 34.6636 14.9C34.7436 14.7133 34.8303 14.5667 34.9236 14.46L35.0636 14.26C35.0903 14.2067 35.1236 14.1267 35.1636 14.02C35.2303 13.98 35.3103 13.88 35.4036 13.72C35.4169 13.64 35.3836 13.5933 35.3036 13.58L35.2436 13.66C35.2303 13.7 35.2036 13.74 35.1636 13.78C35.1236 13.78 35.1036 13.76 35.1036 13.72C35.1036 13.68 35.1169 13.64 35.1436 13.6L35.2036 13.5L35.3036 13.28L35.3436 13.22L35.3236 13.16L35.3036 13.14C35.2903 13.1533 35.2769 13.1533 35.2636 13.14C35.2503 13.18 35.1969 13.2333 35.1036 13.3L35.0036 13.38L34.9436 13.48H34.8236C34.7703 13.5333 34.7369 13.5933 34.7236 13.66C34.7236 13.6733 34.7169 13.68 34.7036 13.68C34.7036 13.6667 34.7036 13.66 34.7036 13.66C34.6503 13.8333 34.5636 13.96 34.4436 14.04L34.6436 13.72L34.6236 13.66C34.6769 13.6067 34.7169 13.5533 34.7436 13.5C34.7836 13.4333 34.8169 13.3867 34.8436 13.36C34.8036 13.32 34.7703 13.3133 34.7436 13.34L34.7636 13.3H34.7436L34.8236 13.18C34.8236 13.1533 34.8103 13.14 34.7836 13.14C34.7836 13.1533 34.7503 13.1933 34.6836 13.26C34.6703 13.2733 34.6703 13.2867 34.6836 13.3L34.6636 13.34C34.6503 13.34 34.6436 13.3467 34.6436 13.36C34.6303 13.36 34.6236 13.3667 34.6236 13.38V13.4L34.5836 13.44L34.5436 13.52C34.5303 13.6 34.4969 13.6467 34.4436 13.66L34.3836 13.72C34.3703 13.7067 34.3769 13.6867 34.4036 13.66L34.4236 13.62L34.5036 13.44L34.5836 13.28L34.5036 13.24L34.4636 13.32L34.4836 13.36C34.4703 13.4133 34.4303 13.48 34.3636 13.56C34.3369 13.56 34.3169 13.5533 34.3036 13.54L34.2836 13.56V13.58C34.2836 13.6067 34.2769 13.62 34.2636 13.62C34.2503 13.6733 34.2236 13.72 34.1836 13.76L34.1636 13.8L34.2236 13.62C34.2369 13.6067 34.2369 13.6 34.2236 13.6C34.2103 13.6133 34.2036 13.6133 34.2036 13.6L34.2836 13.54L34.3036 13.5C34.2903 13.4733 34.2969 13.4467 34.3236 13.42C34.3503 13.3933 34.3636 13.3533 34.3636 13.3L34.3836 13.26C34.3569 13.2333 34.3436 13.2133 34.3436 13.2C34.3436 13.1867 34.3369 13.18 34.3236 13.18L34.3436 13.14C34.3303 13.14 34.3236 13.1333 34.3236 13.12L34.4036 13C34.4036 12.9867 34.3969 12.98 34.3836 12.98C34.3703 12.9933 34.3636 12.9933 34.3636 12.98C34.4169 12.9667 34.4303 12.9267 34.4036 12.86L34.4436 12.8L34.5036 12.74C34.5036 12.7267 34.4969 12.72 34.4836 12.72C34.4703 12.72 34.4636 12.7133 34.4636 12.7C34.4636 12.6733 34.4836 12.64 34.5236 12.6C34.5236 12.5467 34.5369 12.5067 34.5636 12.48C34.5503 12.4667 34.5436 12.4667 34.5436 12.48C34.5303 12.4933 34.5169 12.5 34.5036 12.5C34.5036 12.4867 34.5103 12.4733 34.5236 12.46H34.5636L34.6036 12.26C34.6036 12.18 34.6236 12.1133 34.6636 12.06V12.02C34.6503 12.0067 34.6503 12 34.6636 12V11.98L34.6436 12L34.7236 11.84C34.7636 11.7733 34.7769 11.7267 34.7636 11.7H34.7836V11.66C34.7703 11.66 34.7636 11.66 34.7636 11.66C34.7769 11.6467 34.7836 11.64 34.7836 11.64L34.6036 11.62C34.5769 11.62 34.5569 11.6133 34.5436 11.6H34.5236H34.5036C34.4769 11.5867 34.4436 11.58 34.4036 11.58C34.3903 11.5933 34.3636 11.6 34.3236 11.6C34.3236 11.5867 34.3169 11.58 34.3036 11.58H34.2836L34.2636 11.6V11.58C34.2636 11.5667 34.2569 11.56 34.2436 11.56L34.2036 11.58L34.1636 11.56C34.1503 11.5467 34.1369 11.5467 34.1236 11.56L34.1836 11.4C34.1703 11.3867 34.1503 11.38 34.1236 11.38C34.1103 11.3933 34.0903 11.3867 34.0636 11.36C34.0103 11.3867 33.9436 11.4 33.8636 11.4C33.8503 11.4 33.8436 11.4067 33.8436 11.42C33.8303 11.4067 33.7969 11.4 33.7436 11.4C33.7169 11.4133 33.6836 11.42 33.6436 11.42L33.7236 11.4L33.8236 11.38C33.8636 11.38 33.9369 11.3667 34.0436 11.34H34.1236C34.1636 11.3667 34.1969 11.3667 34.2236 11.34C34.2236 11.34 34.2369 11.3267 34.2636 11.3C34.2636 11.22 34.2369 11.18 34.1836 11.18C34.1703 11.1933 34.1503 11.1933 34.1236 11.18V11.1C34.1503 11.0867 34.1903 11.08 34.2436 11.08C34.2836 11.08 34.3169 11.0667 34.3436 11.04H34.3836C34.3969 11.0267 34.4036 11.0067 34.4036 10.98V10.94C34.3769 10.94 34.3436 10.92 34.3036 10.88C34.2369 10.84 34.1969 10.8267 34.1836 10.84L34.1436 10.74C34.1036 10.74 34.0769 10.7467 34.0636 10.76C34.0503 10.76 34.0503 10.7533 34.0636 10.74H34.0436C33.9503 10.7533 33.8836 10.7533 33.8436 10.74C33.8569 10.7267 33.8836 10.72 33.9236 10.72C33.9503 10.7467 33.9769 10.7467 34.0036 10.72C34.0169 10.72 34.0236 10.7067 34.0236 10.68C34.0636 10.7067 34.0969 10.7067 34.1236 10.68H34.2036C34.2036 10.6267 34.1969 10.6 34.1836 10.6C34.1836 10.5867 34.1836 10.5867 34.1836 10.6C34.1969 10.6 34.2036 10.6 34.2036 10.6V10.58H34.2636V10.52C34.2503 10.5333 34.2436 10.5333 34.2436 10.52L34.2036 10.5C34.1769 10.5 34.1636 10.5133 34.1636 10.54L34.1436 10.52L34.1236 10.54V10.52H34.1036L34.0236 10.56L33.9836 10.52C33.9703 10.5067 33.9569 10.5067 33.9436 10.52C33.9436 10.4933 33.9503 10.4867 33.9636 10.5C33.9769 10.5 33.9836 10.5 33.9836 10.5C34.0103 10.4867 34.0436 10.4733 34.0836 10.46C34.1236 10.4333 34.1503 10.4267 34.1636 10.44C34.1636 10.4 34.1569 10.3733 34.1436 10.36H34.1036V10.4L34.0036 10.42L33.9836 10.36V10.38L33.9636 10.34C33.9503 10.3533 33.9436 10.3533 33.9436 10.34C33.9303 10.3533 33.9103 10.36 33.8836 10.36C33.8569 10.36 33.8436 10.36 33.8436 10.36C33.8569 10.3467 33.8836 10.34 33.9236 10.34C33.9369 10.34 33.9436 10.3333 33.9436 10.32C33.9303 10.32 33.9303 10.3133 33.9436 10.3L33.9836 10.32L34.0036 10.3L34.0436 10.28C34.0436 10.2933 34.0503 10.2933 34.0636 10.28C34.0769 10.2667 34.0836 10.2533 34.0836 10.24C34.0836 10.2267 34.0903 10.2267 34.1036 10.24L34.1236 10.2V10.16C34.1369 10.16 34.1436 10.1467 34.1436 10.12C34.1569 10.1333 34.1703 10.1333 34.1836 10.12H34.2236V10.08C34.2236 10.0933 34.2303 10.1 34.2436 10.1C34.2569 10.0867 34.2636 10.0733 34.2636 10.06C34.2769 10.0733 34.2903 10.0733 34.3036 10.06C34.3169 10.0467 34.3303 10.0467 34.3436 10.06C34.3569 10.06 34.3636 10.0533 34.3636 10.04C34.3503 10.0267 34.3436 10.02 34.3436 10.02C34.3569 10.0067 34.3703 10 34.3836 10C34.3836 10.0133 34.3903 10.02 34.4036 10.02C34.4303 9.98 34.4503 9.96667 34.4636 9.98V9.94L34.4836 9.96C34.5636 9.88 34.6236 9.84 34.6636 9.84V9.82C34.6636 9.80667 34.6703 9.80667 34.6836 9.82V9.8C34.7769 9.8 34.8303 9.77333 34.8436 9.72V9.76L34.8836 9.74V9.72C34.8969 9.70667 34.9169 9.7 34.9436 9.7C34.9703 9.71333 34.9903 9.71333 35.0036 9.7H35.0236V9.72C35.0636 9.68 35.0903 9.67333 35.1036 9.7C35.3036 9.64667 35.5169 9.62 35.7436 9.62L35.8236 9.46L35.8636 9.3C35.9169 9.24667 35.9303 9.21333 35.9036 9.2C36.0103 8.97333 36.0769 8.80667 36.1036 8.7C36.1703 8.63333 36.2103 8.56667 36.2236 8.5C36.2369 8.47333 36.2436 8.44667 36.2436 8.42C36.2436 8.39333 36.2503 8.37333 36.2636 8.36L36.3436 8.24V8.18L36.4036 8.06L36.4636 7.96L36.5036 7.82L36.6036 7.62C36.6303 7.56667 36.6636 7.48667 36.7036 7.38C36.7036 7.35333 36.7236 7.32 36.7636 7.28V7.2L36.8636 6.98C36.9036 6.94 36.9236 6.9 36.9236 6.86C36.9236 6.86 36.9369 6.82 36.9636 6.74C36.9769 6.68667 37.0036 6.65333 37.0436 6.64C37.0436 6.52 37.0969 6.40667 37.2036 6.3C37.1903 6.3 37.1836 6.29333 37.1836 6.28L37.2436 6.16C37.2703 6.08 37.2836 6.04 37.2836 6.04V6.02L37.3236 5.9L37.4236 5.72C37.4369 5.65333 37.4703 5.59333 37.5236 5.54V5.5C37.5236 5.47333 37.5303 5.44 37.5436 5.4C37.5703 5.36 37.5903 5.32667 37.6036 5.3V5.22L37.6436 5.18V5.14L37.7036 5.08L37.7236 5.04C37.7103 5.02667 37.7103 5.01333 37.7236 5L37.7836 4.94C37.7836 4.83333 37.8103 4.77333 37.8636 4.76C37.8636 4.72 37.8703 4.69333 37.8836 4.68C37.9103 4.6 37.9236 4.53333 37.9236 4.48C37.9503 4.48 37.9636 4.46667 37.9636 4.44C37.9769 4.42667 37.9903 4.39333 38.0036 4.34L38.0636 4.22C38.0636 4.19333 38.0703 4.18 38.0836 4.18C38.0703 4.16667 38.0703 4.16 38.0836 4.16L38.1636 4C38.2036 3.94667 38.2103 3.88667 38.1836 3.82C38.1303 3.80667 38.1036 3.78 38.1036 3.74L38.1436 3.72C38.1436 3.72 38.1569 3.70667 38.1836 3.68C38.2103 3.65333 38.2369 3.61333 38.2636 3.56V3.54L38.2836 3.56L38.3036 3.48L38.2836 3.4C38.2836 3.37333 38.3036 3.35333 38.3436 3.34L38.4036 3.28L38.3836 3.18C38.3969 3.12667 38.4436 3.11333 38.5236 3.14L38.5436 3.1C38.5703 3.1 38.6103 3.06667 38.6636 3C38.7169 2.93333 38.7503 2.88667 38.7636 2.86L38.8036 2.82C38.8569 2.76667 38.9836 2.70667 39.1836 2.64L39.2236 2.66L39.4036 2.6H39.4636L39.5036 2.62H39.6836L39.8436 2.6C39.8569 2.6 39.8903 2.61333 39.9436 2.64C40.0103 2.66667 40.0636 2.68 40.1036 2.68C40.1569 2.72 40.2903 2.79333 40.5036 2.9L40.5436 2.92C40.5836 2.96 40.6169 2.98667 40.6436 3C40.6969 3.05333 40.7303 3.09333 40.7436 3.12L40.7836 3.18L40.8836 3.3C40.8836 3.38 40.9103 3.46667 40.9636 3.56L41.0436 3.82L41.0236 3.86C41.0369 3.88667 41.0436 3.96 41.0436 4.08C41.0569 4.09333 41.0636 4.11333 41.0636 4.14C41.0636 4.18 41.0569 4.21333 41.0436 4.24C41.0303 4.25333 41.0236 4.26667 41.0236 4.28C41.0236 4.33333 41.0169 4.36667 41.0036 4.38C40.9769 4.40667 40.9769 4.43333 41.0036 4.46C41.0036 4.51333 40.9836 4.57333 40.9436 4.64L40.8836 4.7C40.8703 4.71333 40.8703 4.72667 40.8836 4.74L40.8636 4.78C40.8369 4.80667 40.8169 4.82 40.8036 4.82L40.7236 4.86C40.7236 4.9 40.7103 4.93333 40.6836 4.96C40.5369 4.89333 40.4903 4.92 40.5436 5.04C40.5703 5.12 40.5503 5.14667 40.4836 5.12C40.4169 5.14667 40.3769 5.18 40.3636 5.22C40.3903 5.28667 40.4169 5.32 40.4436 5.32L40.4036 5.34L40.4436 5.38C40.4436 5.40667 40.4569 5.42 40.4836 5.42C40.4836 5.54 40.5036 5.60667 40.5436 5.62V5.66C40.5969 5.72667 40.6103 5.77333 40.5836 5.8L40.7036 6.12L40.8436 6.46L40.8636 6.54L40.9036 6.62L40.9636 6.8L41.1236 7.12L41.1436 7.2L41.1836 7.28L41.2836 7.42C41.2836 7.47333 41.3036 7.50667 41.3436 7.52L41.4436 7.74L41.5036 7.84L41.5636 7.92L41.6236 8.06C41.6636 8.1 41.6903 8.14667 41.7036 8.2L41.7636 8.3C41.7636 8.3 41.7703 8.30667 41.7836 8.32C41.8103 8.33333 41.8236 8.35333 41.8236 8.38C41.8236 8.44667 41.8369 8.48 41.8636 8.48L41.8836 8.54C41.9503 8.55333 41.9969 8.60667 42.0236 8.7L42.0636 8.78C42.0903 8.86 42.1303 8.92 42.1836 8.96L42.2036 9C42.2036 9 42.2169 9.01333 42.2436 9.04L42.2836 9.08L42.4036 9.26L42.4436 9.34C42.4969 9.39333 42.5236 9.42 42.5236 9.42L42.5636 9.52L42.6836 9.62C42.6836 9.63333 42.6969 9.65333 42.7236 9.68L42.7436 9.76H42.7636C42.8169 9.81333 42.8436 9.84 42.8436 9.84L42.9036 9.92L42.9436 9.94C42.9436 9.95333 42.9636 9.97333 43.0036 10C43.0303 10.0533 43.0636 10.1 43.1036 10.14C43.1436 10.18 43.1769 10.2267 43.2036 10.28L43.2836 10.34C43.2836 10.34 43.3103 10.3667 43.3636 10.42H43.3836L43.4236 10.44V10.48L43.4636 10.5C43.4769 10.5133 43.4836 10.5333 43.4836 10.56L43.5436 10.6H43.5636V10.62C43.5636 10.6333 43.5836 10.6533 43.6236 10.68C43.6636 10.6933 43.6836 10.7267 43.6836 10.78L43.8036 10.86L43.8836 10.9L43.9036 10.94L43.9836 11C43.9969 11 44.0103 11.0067 44.0236 11.02C44.0369 11.0333 44.0436 11.0467 44.0436 11.06L44.1236 11.1C44.1236 11.1133 44.1369 11.1333 44.1636 11.16C44.2169 11.2133 44.2636 11.2267 44.3036 11.2C44.3569 11.1467 44.3903 11.1333 44.4036 11.16C44.4169 11.16 44.4236 11.1667 44.4236 11.18L44.4036 11.22C44.4303 11.2467 44.4436 11.2667 44.4436 11.28C44.4569 11.28 44.4636 11.2867 44.4636 11.3H44.4836L44.5236 11.32L44.5836 11.3C44.5969 11.3 44.6036 11.3067 44.6036 11.32C44.6036 11.3467 44.6103 11.3667 44.6236 11.38L44.6836 11.36L44.7036 11.4C44.7036 11.4267 44.6969 11.4467 44.6836 11.46C44.6836 11.4733 44.6903 11.4733 44.7036 11.46V11.48V11.56H44.7236V11.58L44.7436 11.6L44.7836 11.62L44.8036 11.64L44.8236 11.7V11.76C44.8369 11.7867 44.8436 11.84 44.8436 11.92V11.98C44.8436 12.0467 44.8503 12.0867 44.8636 12.1L44.8836 12.14C44.8836 12.1667 44.8769 12.1867 44.8636 12.2C44.8636 12.28 44.8703 12.3333 44.8836 12.36L44.9036 12.44V12.5C44.9169 12.5267 44.9236 12.5667 44.9236 12.62ZM38.2836 3.14C38.2969 3.14 38.3036 3.16 38.3036 3.2C38.2903 3.18667 38.2836 3.16667 38.2836 3.14ZM38.2036 3.18C38.1903 3.18 38.1836 3.17333 38.1836 3.16L38.2036 3.18ZM38.2636 3.18C38.2503 3.19333 38.2436 3.19333 38.2436 3.18C38.2436 3.16667 38.2503 3.16 38.2636 3.16V3.18ZM37.8636 3.18C37.8769 3.18 37.8836 3.19333 37.8836 3.22L37.8636 3.18ZM38.3436 3.34C38.3303 3.32667 38.3236 3.29333 38.3236 3.24L38.3436 3.34ZM34.4436 9.94C34.4436 9.94 34.4503 9.94 34.4636 9.94H34.4436ZM34.1236 10.16C34.1103 10.16 34.1103 10.1533 34.1236 10.14V10.16ZM34.1836 10.28C34.2103 10.28 34.2236 10.2667 34.2236 10.24C34.2103 10.24 34.2036 10.2333 34.2036 10.22L34.1636 10.2V10.22C34.1503 10.2333 34.1436 10.2333 34.1436 10.22C34.1436 10.2333 34.1369 10.24 34.1236 10.24C34.1103 10.2533 34.1036 10.2733 34.1036 10.3L34.1436 10.34V10.28C34.1569 10.2933 34.1703 10.2933 34.1836 10.28ZM34.7636 11.68C34.7769 11.6667 34.7836 11.6667 34.7836 11.68L34.7636 11.7V11.68ZM34.3636 12.4C34.3636 12.4533 34.3503 12.4667 34.3236 12.44L34.3636 12.4ZM34.2836 12.48C34.2703 12.4667 34.2703 12.4533 34.2836 12.44V12.48ZM34.1436 12.62C34.1703 12.6333 34.1636 12.66 34.1236 12.7L34.1436 12.62ZM34.4436 12.78C34.4303 12.7667 34.4303 12.76 34.4436 12.76C34.4569 12.7467 34.4636 12.74 34.4636 12.74L34.4436 12.78ZM36.3436 13.02C36.3169 13.02 36.3169 13.0067 36.3436 12.98L36.3636 13L36.3436 13.02ZM34.5236 13.08C34.5503 13.0533 34.5503 13.04 34.5236 13.04C34.5103 13.04 34.4969 13.0467 34.4836 13.06C34.4836 13.06 34.4903 13.0667 34.5036 13.08H34.5236ZM34.4436 13.22C34.4703 13.22 34.4903 13.2067 34.5036 13.18C34.5169 13.14 34.5236 13.1133 34.5236 13.1C34.4836 13.0733 34.4636 13.06 34.4636 13.06L34.4436 13.1L34.4036 13.16C34.4169 13.16 34.4103 13.1733 34.3836 13.2C34.3969 13.2133 34.4036 13.2333 34.4036 13.26C34.3903 13.2733 34.3903 13.2933 34.4036 13.32C34.4303 13.28 34.4569 13.26 34.4836 13.26C34.4836 13.2467 34.4769 13.24 34.4636 13.24C34.4503 13.24 34.4436 13.2333 34.4436 13.22ZM34.3036 13.18C34.3036 13.1667 34.3103 13.1667 34.3236 13.18C34.3103 13.1933 34.3036 13.1933 34.3036 13.18ZM34.6436 13.52C34.6436 13.5067 34.6569 13.4867 34.6836 13.46C34.7103 13.4333 34.7103 13.42 34.6836 13.42C34.6836 13.4067 34.6903 13.4 34.7036 13.4C34.7036 13.3733 34.7169 13.36 34.7436 13.36L34.7036 13.44L34.6436 13.52ZM34.3036 13.58L34.2836 13.56H34.3036V13.58ZM35.3436 13.7C35.3436 13.6733 35.3503 13.6533 35.3636 13.64C35.3636 13.6533 35.3569 13.68 35.3436 13.72C35.3303 13.7467 35.3103 13.76 35.2836 13.76L35.3436 13.7ZM34.3636 13.76C34.3636 13.7733 34.3569 13.78 34.3436 13.78H34.3236L34.3436 13.76H34.3636ZM34.0836 13.92C34.0836 13.9067 34.0903 13.9 34.1036 13.9L34.0836 13.94V13.92ZM34.1636 14.08C34.1369 14.08 34.1369 14.0667 34.1636 14.04L34.1836 14L34.1636 14.08ZM34.0436 14.04V14.06V14.04ZM34.0436 14.06L33.9836 14.14C33.9836 14.1267 33.9969 14.1067 34.0236 14.08L34.0436 14.06ZM34.3636 14.18C34.3769 14.1667 34.3836 14.1467 34.3836 14.12C34.3836 14.1067 34.3903 14.0933 34.4036 14.08C34.4169 14.1333 34.3969 14.1733 34.3436 14.2L34.3636 14.18ZM34.1036 14.1C34.1036 14.1 34.1036 14.0933 34.1036 14.08C34.1169 14.08 34.1236 14.0867 34.1236 14.1C34.1369 14.1133 34.1369 14.12 34.1236 14.12C34.1103 14.1333 34.1036 14.14 34.1036 14.14V14.1ZM34.0236 14.28L34.1036 14.14V14.16L34.0636 14.24C34.0236 14.2933 34.0103 14.3267 34.0236 14.34C33.9569 14.4067 33.9236 14.46 33.9236 14.5H33.9036C33.9036 14.5133 33.8903 14.5267 33.8636 14.54C33.8503 14.5667 33.8369 14.58 33.8236 14.58C33.8236 14.5533 33.8436 14.5267 33.8836 14.5C33.9103 14.4733 33.9169 14.4533 33.9036 14.44L33.9436 14.42L34.0236 14.28ZM34.3236 14.22C34.3369 14.22 34.3436 14.2133 34.3436 14.2L34.3236 14.24V14.22ZM35.6036 14.22V14.26V14.22ZM34.3036 14.26L34.3236 14.24L34.3036 14.26ZM35.5836 14.28C35.5836 14.2667 35.5903 14.26 35.6036 14.26L35.5836 14.28ZM35.5436 14.32C35.5436 14.32 35.5569 14.3067 35.5836 14.28C35.5569 14.3067 35.5436 14.32 35.5436 14.32ZM34.0836 14.32V14.3V14.32ZM34.1636 14.32C34.1769 14.32 34.1836 14.3133 34.1836 14.3C34.1836 14.3267 34.1769 14.34 34.1636 14.34C34.1503 14.34 34.1503 14.3333 34.1636 14.32ZM34.2636 14.3L34.2836 14.32L34.2636 14.36C34.2503 14.3467 34.2503 14.3333 34.2636 14.32V14.3ZM34.0436 14.32C34.0436 14.3067 34.0436 14.3 34.0436 14.3C34.0569 14.3133 34.0636 14.32 34.0636 14.32H34.0836C34.0569 14.32 34.0436 14.32 34.0436 14.32ZM34.6636 14.44C34.6503 14.4533 34.6436 14.4733 34.6436 14.5C34.6303 14.5 34.6236 14.4933 34.6236 14.48C34.6236 14.4933 34.6103 14.5133 34.5836 14.54L34.5236 14.6L34.6036 14.46L34.6836 14.36C34.6969 14.3733 34.6969 14.3867 34.6836 14.4L34.6636 14.44ZM34.7036 14.44C34.6903 14.44 34.6836 14.4467 34.6836 14.46L34.6636 14.44C34.6769 14.4533 34.6836 14.4533 34.6836 14.44C34.6836 14.4267 34.6903 14.4267 34.7036 14.44ZM34.7836 14.56C34.7969 14.5733 34.7769 14.6067 34.7236 14.66L34.7836 14.56ZM34.9436 14.68C34.9303 14.6667 34.9303 14.6533 34.9436 14.64V14.68ZM34.5836 15L34.6236 14.92L34.5836 15ZM34.6636 14.96C34.6769 14.9733 34.6769 14.9867 34.6636 15C34.6503 15.0133 34.6436 15.0133 34.6436 15L34.6636 14.96ZM34.6836 15.06C34.6836 15.06 34.6769 15.0533 34.6636 15.04C34.6636 15.0267 34.6703 15.02 34.6836 15.02V15.06ZM34.9236 15.28C34.9103 15.2667 34.9103 15.2533 34.9236 15.24L34.9436 15.26L34.9236 15.28ZM52.4236 1.08C52.4103 1.05333 52.4103 1.03333 52.4236 1.02L52.4436 1.06L52.4236 1.08ZM52.7036 1.2C52.7036 1.2 52.7103 1.20667 52.7236 1.22C52.7369 1.23333 52.7369 1.24 52.7236 1.24L52.7036 1.2ZM52.8436 1.24C52.8436 1.25333 52.8369 1.27333 52.8236 1.3C52.8236 1.31333 52.8169 1.32 52.8036 1.32L52.8436 1.24ZM52.7836 1.28C52.7703 1.28 52.7636 1.27333 52.7636 1.26C52.7636 1.24667 52.7703 1.24667 52.7836 1.26V1.28ZM53.6036 2.38L53.5436 2.56C53.5436 2.57333 53.5503 2.58 53.5636 2.58H53.5836L53.5436 2.62C53.5169 2.64667 53.5103 2.67333 53.5236 2.7V2.74C53.5236 2.76667 53.5169 2.78667 53.5036 2.8C53.4903 2.81333 53.4836 2.83333 53.4836 2.86L53.5036 2.9C53.5036 2.92667 53.4969 2.94667 53.4836 2.96C53.4836 2.97333 53.4903 2.98 53.5036 2.98V3.02C53.5169 3.03333 53.5303 3.03333 53.5436 3.02L53.5836 3.04C53.5836 3.05333 53.5769 3.06 53.5636 3.06C53.5503 3.04667 53.5436 3.04 53.5436 3.04L53.5636 3.1C53.5503 3.11333 53.5369 3.14 53.5236 3.18C53.5103 3.20667 53.5036 3.23333 53.5036 3.26C53.5036 3.27333 53.5103 3.27333 53.5236 3.26C53.5369 3.24667 53.5436 3.24667 53.5436 3.26C53.5303 3.27333 53.5169 3.29333 53.5036 3.32C53.5036 3.34667 53.5103 3.36667 53.5236 3.38C53.5103 3.39333 53.5036 3.42 53.5036 3.46L53.4636 3.54C53.4503 3.55333 53.4503 3.56 53.4636 3.56H53.4836C53.5103 3.57333 53.5103 3.59333 53.4836 3.62C53.4569 3.64667 53.4436 3.66667 53.4436 3.68C53.4703 3.73333 53.4636 3.78 53.4236 3.82C53.4369 3.83333 53.4503 3.83333 53.4636 3.82C53.4769 3.80667 53.4836 3.79333 53.4836 3.78C53.4969 3.79333 53.4969 3.80667 53.4836 3.82C53.4703 3.83333 53.4569 3.84 53.4436 3.84V3.94C53.4436 4.06 53.4303 4.17333 53.4036 4.28C53.4036 4.29333 53.4103 4.3 53.4236 4.3L53.4036 4.34H53.4236C53.4236 4.35333 53.4036 4.40667 53.3636 4.5C53.3236 4.58 53.3236 4.64667 53.3636 4.7C53.3503 4.71333 53.3436 4.71333 53.3436 4.7C53.3436 4.68667 53.3369 4.68 53.3236 4.68V4.74C53.3103 4.75333 53.3103 4.77333 53.3236 4.8L53.2636 4.92C53.2369 4.98667 53.2303 5.02667 53.2436 5.04L53.2036 5.08C53.2036 5.16 53.1836 5.21333 53.1436 5.24C53.0636 5.53333 52.9636 5.83333 52.8436 6.14C52.7636 6.31333 52.6769 6.56667 52.5836 6.9C52.5436 6.95333 52.5169 7.02667 52.5036 7.12L52.4436 7.32L52.4236 7.36C52.3969 7.38667 52.3969 7.41333 52.4236 7.44C52.3169 7.65333 52.2503 7.83333 52.2236 7.98L52.1636 8.14C52.1503 8.18 52.1369 8.22 52.1236 8.26C52.1103 8.28667 52.0969 8.31333 52.0836 8.34L52.0236 8.48V8.54L51.9636 8.66L51.9036 8.78V8.84C51.9169 8.85333 51.9436 8.86 51.9836 8.86C52.0503 8.82 52.0903 8.80667 52.1036 8.82C52.1169 8.82 52.1169 8.82667 52.1036 8.84C52.0903 8.85333 52.0903 8.86667 52.1036 8.88C52.1036 8.96 52.1303 9.00667 52.1836 9.02C52.2103 9.03333 52.2303 9.03333 52.2436 9.02C52.2703 9.02 52.2836 9.04 52.2836 9.08C52.2836 9.14667 52.3103 9.16667 52.3636 9.14C52.3769 9.14 52.3836 9.14667 52.3836 9.16C52.3969 9.17333 52.3969 9.19333 52.3836 9.22C52.3703 9.24667 52.3569 9.26667 52.3436 9.28C52.3436 9.29333 52.3503 9.29333 52.3636 9.28V9.3L52.3436 9.36C52.3436 9.42667 52.3703 9.48667 52.4236 9.54L52.4436 9.58V9.64C52.4436 9.73333 52.4236 9.83333 52.3836 9.94L52.3436 9.98C52.3436 10.02 52.3369 10.0467 52.3236 10.06C52.3103 10.0733 52.3036 10.1 52.3036 10.14L52.2836 10.18L52.2236 10.22L52.1436 10.38L52.0636 10.52L51.8636 10.72L51.7036 10.86C51.6769 10.8867 51.5969 10.94 51.4636 11.02L51.4236 11.06C51.3969 11.06 51.3503 11.08 51.2836 11.12L51.1636 11.2H51.0836C51.0703 11.2133 51.0503 11.22 51.0236 11.22C51.0236 11.26 51.0036 11.3 50.9636 11.34V11.38L50.9036 11.6C50.9036 11.6 50.9036 11.6133 50.9036 11.64C50.9169 11.6533 50.9169 11.6667 50.9036 11.68L50.8636 11.72V11.76L50.8036 11.82V11.9L50.7436 11.96V12V12.06C50.7436 12.1 50.7236 12.1333 50.6836 12.16L50.6436 12.34C50.6303 12.3533 50.6303 12.3667 50.6436 12.38C50.6436 12.42 50.6236 12.46 50.5836 12.5C50.5703 12.5133 50.5636 12.5533 50.5636 12.62L50.5036 12.74V12.76C50.5036 12.8 50.4836 12.86 50.4436 12.94C50.4036 13.02 50.4036 13.0867 50.4436 13.14C50.4969 13.1533 50.5236 13.18 50.5236 13.22C50.5236 13.2333 50.5103 13.2467 50.4836 13.26C50.4703 13.2733 50.4569 13.28 50.4436 13.28L50.4036 13.38L50.3436 13.5L50.3836 13.58L50.3236 13.64C50.2703 13.68 50.2569 13.72 50.2836 13.76L50.3036 13.8C50.2903 13.8533 50.2436 13.88 50.1636 13.88C50.1636 13.8933 50.1569 13.9 50.1436 13.9C50.0636 13.9267 49.9969 14.0133 49.9436 14.16L49.9036 14.22C49.8503 14.2867 49.7236 14.3533 49.5236 14.42H49.4836L49.4036 14.46C49.3903 14.4733 49.3703 14.48 49.3436 14.48C49.3303 14.48 49.3169 14.4867 49.3036 14.5C49.2903 14.4867 49.2769 14.4867 49.2636 14.5C49.2369 14.5267 49.2103 14.5267 49.1836 14.5L48.8236 14.54C48.8103 14.54 48.7636 14.5267 48.6836 14.5C48.6303 14.4867 48.5836 14.4867 48.5436 14.5C48.4636 14.4467 48.3903 14.4067 48.3236 14.38C48.3236 14.38 48.2436 14.3533 48.0836 14.3C48.0569 14.3 48.0369 14.2933 48.0236 14.28C47.9569 14.2133 47.9236 14.18 47.9236 14.18C47.8836 14.1667 47.8503 14.1533 47.8236 14.14C47.8103 14.1267 47.7969 14.1133 47.7836 14.1L47.7436 14.04C47.7436 14.04 47.7169 14.0133 47.6636 13.96L47.6036 13.92C47.5636 13.7867 47.5303 13.7 47.5036 13.66C47.4369 13.5533 47.3969 13.4667 47.3836 13.4V13.36L47.3436 13.14C47.3169 13.0867 47.3103 13.04 47.3236 13V12.9L47.3436 12.86C47.3303 12.8467 47.3303 12.8333 47.3436 12.82C47.3569 12.8067 47.3636 12.7733 47.3636 12.72C47.3503 12.6667 47.3636 12.6067 47.4036 12.54C47.4169 12.5267 47.4236 12.5133 47.4236 12.5C47.4236 12.4733 47.4303 12.4533 47.4436 12.44V12.36L47.5236 12.3L47.5836 12.26C47.6103 12.1933 47.6303 12.16 47.6436 12.16H47.7236C47.8169 12.1867 47.8369 12.1467 47.7836 12.04C47.7703 12.0133 47.7636 11.9933 47.7636 11.98C47.7769 11.9533 47.7969 11.9467 47.8236 11.96C47.8903 11.9333 47.9369 11.8867 47.9636 11.82C47.9903 11.7533 48.0169 11.6933 48.0436 11.64C48.0836 11.5733 48.1103 11.5333 48.1236 11.52C48.1369 11.5067 48.1436 11.4933 48.1436 11.48C48.1436 11.4533 48.1503 11.4333 48.1636 11.42L48.2236 11.34L48.2636 11.26L48.3036 11.18L48.4036 10.96C48.4436 10.8533 48.4836 10.78 48.5236 10.74C48.5236 10.66 48.5703 10.5667 48.6636 10.46C48.6636 10.42 48.6836 10.3733 48.7236 10.32L48.7836 10.18C48.7836 10.1533 48.7903 10.1267 48.8036 10.1C48.8169 10.06 48.8303 10.0333 48.8436 10.02C48.8436 9.99333 48.8569 9.98 48.8836 9.98L48.9236 9.8C49.0036 9.72 49.0303 9.67333 49.0036 9.66C49.0569 9.56667 49.0836 9.50667 49.0836 9.48C49.0836 9.45333 49.0769 9.43333 49.0636 9.42C49.0369 9.39333 49.0169 9.36 49.0036 9.32C48.9903 9.30667 48.9836 9.29333 48.9836 9.28C48.9836 9.25333 48.9769 9.23333 48.9636 9.22C48.9503 9.22 48.9169 9.19333 48.8636 9.14C48.8503 9.12667 48.8503 9.11333 48.8636 9.1H48.8436L48.7636 9C48.7636 8.94667 48.7436 8.91333 48.7036 8.9C48.6769 8.84667 48.6369 8.79333 48.5836 8.74C48.5303 8.67333 48.4903 8.61333 48.4636 8.56V8.54C48.3569 8.43333 48.3036 8.36 48.3036 8.32C48.1969 8.17333 48.1369 8.08 48.1236 8.04C48.0436 7.98667 47.9836 7.90667 47.9436 7.8L47.8836 7.72C47.8836 7.72 47.8569 7.69333 47.8036 7.64L47.7636 7.58L47.6836 7.5L47.5636 7.32L47.4236 7.18C47.4103 7.16667 47.4103 7.15333 47.4236 7.14L47.4036 7.12L47.3636 7.08L47.2036 6.88C47.1369 6.78667 47.0503 6.68667 46.9436 6.58L46.8636 6.44L46.7436 6.34L46.4636 5.98C46.3036 5.82 46.2036 5.69333 46.1636 5.6V5.56C46.1503 5.57333 46.1369 5.57333 46.1236 5.56L46.1436 5.52L45.9436 5.18C45.9303 5.16667 45.9303 5.16 45.9436 5.16C45.9569 5.16 45.9636 5.15333 45.9636 5.14C45.9236 5.1 45.8969 5.06 45.8836 5.02L45.8036 4.92L45.7436 4.8V4.78L45.7236 4.76L45.6636 4.64C45.6103 4.61333 45.5769 4.57333 45.5636 4.52L45.5436 4.48C45.5436 4.46667 45.5369 4.46 45.5236 4.46L45.5036 4.44L45.5236 4.42L45.4436 4.34L45.4036 4.22C45.4569 4.23333 45.5103 4.22667 45.5636 4.2C45.5769 4.18667 45.5703 4.15333 45.5436 4.1C45.5169 4.07333 45.5036 4.05333 45.5036 4.04L45.2636 3.76C45.2636 3.74667 45.2569 3.74667 45.2436 3.76C45.2036 3.68 45.1703 3.62667 45.1436 3.6C45.0769 3.53333 45.0369 3.48 45.0236 3.44L45.2836 3.72C45.3369 3.8 45.4103 3.88667 45.5036 3.98C45.5169 4.02 45.5703 4.1 45.6636 4.22C45.7036 4.26 45.7569 4.24 45.8236 4.16L45.7836 4.08L45.7236 4L45.8036 3.94C45.8036 3.94 45.8503 3.98667 45.9436 4.08C46.0103 4.14667 46.0569 4.18667 46.0836 4.2L46.1036 4.26L46.1836 4.24L46.2036 4.2C46.2036 4.2 46.1903 4.14 46.1636 4.02C46.1369 3.92667 46.1169 3.87333 46.1036 3.86L46.1436 3.76L46.0436 3.66V3.62C45.9369 3.5 45.8703 3.41333 45.8436 3.36L45.9436 3.46L46.0236 3.56C46.0369 3.57333 46.0503 3.57333 46.0636 3.56H46.0836L46.1636 3.66L46.2436 3.78C46.2569 3.78 46.2703 3.77333 46.2836 3.76C46.3103 3.74667 46.3169 3.73333 46.3036 3.72C46.3169 3.72 46.3236 3.72667 46.3236 3.74C46.3369 3.74 46.3436 3.73333 46.3436 3.72L46.4036 3.8L46.4436 3.78C46.4303 3.76667 46.4236 3.74667 46.4236 3.72L46.4036 3.68L46.3436 3.64V3.62C46.3436 3.60667 46.3369 3.6 46.3236 3.6H46.3036V3.56L46.2436 3.5C46.1903 3.5 46.1636 3.46667 46.1636 3.4C46.1636 3.37333 46.1569 3.35333 46.1436 3.34C46.1703 3.32667 46.1903 3.33333 46.2036 3.36C46.2169 3.37333 46.2236 3.38667 46.2236 3.4L46.4436 3.58L46.5036 3.52L46.4836 3.48C46.4703 3.48 46.4569 3.48 46.4436 3.48C46.4303 3.46667 46.4236 3.46667 46.4236 3.48L46.2836 3.36L46.3436 3.3V3.28C46.3569 3.29333 46.3703 3.29333 46.3836 3.28L46.4236 3.3L46.4636 3.36C46.4769 3.36 46.4903 3.36667 46.5036 3.38C46.5303 3.38 46.5436 3.38667 46.5436 3.4L46.5836 3.38L46.6036 3.4L46.6236 3.36C46.6236 3.36 46.6303 3.36 46.6436 3.36C46.6303 3.36 46.6303 3.36667 46.6436 3.38H46.7036C46.7036 3.39333 46.7236 3.42 46.7636 3.46C46.7769 3.47333 46.7836 3.47333 46.7836 3.46C46.7836 3.44667 46.7903 3.44 46.8036 3.44C46.7903 3.45333 46.7903 3.46667 46.8036 3.48C46.8169 3.49333 46.8369 3.5 46.8636 3.5C46.9169 3.54 46.9436 3.57333 46.9436 3.6L46.9836 3.58L47.0236 3.6L47.0436 3.64C47.0836 3.64 47.1103 3.66 47.1236 3.7C47.1503 3.67333 47.1503 3.65333 47.1236 3.64C47.1503 3.62667 47.1569 3.63333 47.1436 3.66C47.1436 3.67333 47.1436 3.68667 47.1436 3.7C47.2769 3.72667 47.3703 3.78 47.4236 3.86C47.4369 3.87333 47.4503 3.87333 47.4636 3.86C47.4769 3.86 47.4836 3.86667 47.4836 3.88V3.86C47.5503 3.92667 47.5836 3.96 47.5836 3.96C47.6236 4 47.6569 4.02 47.6836 4.02L47.6636 4.04L47.7036 4.06C47.7303 4.08667 47.7503 4.09333 47.7636 4.08L47.8036 4.14C47.8169 4.18 47.8436 4.20667 47.8836 4.22V4.26C47.9369 4.27333 47.9636 4.3 47.9636 4.34L48.3636 4.78C48.5236 4.99333 48.6769 5.16 48.8236 5.28C48.8503 5.34667 48.8836 5.39333 48.9236 5.42L49.0236 5.52C49.0236 5.53333 49.0303 5.54667 49.0436 5.56C49.0569 5.57333 49.0703 5.58 49.0836 5.58L49.2236 5.74C49.2903 5.83333 49.3369 5.88667 49.3636 5.9C49.3769 5.94 49.4369 6.01333 49.5436 6.12L49.6036 6.2L49.6436 6.22L49.7036 6.3L49.7436 6.38L49.8236 6.44L49.9436 6.6C49.9969 6.68 50.0369 6.72667 50.0636 6.74L50.1036 6.76L50.1236 6.8C50.1236 6.81333 50.1303 6.82 50.1436 6.82C50.1703 6.82 50.1836 6.83333 50.1836 6.86C50.1969 6.86 50.2036 6.85333 50.2036 6.84V6.78L50.3436 6.42C50.4369 6.23333 50.4969 6.07333 50.5236 5.94C50.5369 5.91333 50.5503 5.88667 50.5636 5.86C50.5769 5.82 50.5903 5.77333 50.6036 5.72C50.6169 5.68 50.6303 5.64667 50.6436 5.62C50.6569 5.58 50.6703 5.54667 50.6836 5.52L50.9036 4.94C50.9436 4.71333 51.0303 4.5 51.1636 4.3H51.2036C51.2169 4.28667 51.2169 4.27333 51.2036 4.26C51.1903 4.26 51.1903 4.25333 51.2036 4.24C51.2036 4.22667 51.2103 4.22 51.2236 4.22C51.2236 4.23333 51.2303 4.23333 51.2436 4.22L51.4836 3.74C51.4836 3.72667 51.4903 3.72 51.5036 3.72H51.5236L51.6036 3.56L51.6836 3.38C51.6969 3.32667 51.7236 3.28 51.7636 3.24V3.22L51.7836 3.2L51.8036 3.16C51.8169 3.13333 51.8303 3.10667 51.8436 3.08C51.8569 3.04 51.8703 3 51.8836 2.96L51.9636 2.8C51.9903 2.8 52.0036 2.77333 52.0036 2.72L52.0236 2.68H52.0436C52.0569 2.66667 52.0636 2.64667 52.0636 2.62L52.1036 2.54L52.1836 2.38C52.1836 2.46 52.2169 2.52 52.2836 2.56C52.3369 2.50667 52.3636 2.47333 52.3636 2.46C52.3769 2.42 52.3969 2.38667 52.4236 2.36C52.4503 2.25333 52.5103 2.09333 52.6036 1.88V1.86H52.5836L52.7036 1.62C52.7169 1.58 52.7436 1.49333 52.7836 1.36C52.7703 1.44 52.7169 1.60667 52.6236 1.86C52.5969 1.91333 52.5436 2.06667 52.4636 2.32C52.4369 2.36 52.3836 2.48 52.3036 2.68C52.2903 2.70667 52.2903 2.73333 52.3036 2.76C52.3303 2.78667 52.3703 2.8 52.4236 2.8C52.4636 2.76 52.4903 2.72 52.5036 2.68C52.5303 2.6 52.5769 2.57333 52.6436 2.6L52.5636 2.86C52.5103 2.96667 52.4903 3.04667 52.5036 3.1C52.4769 3.12667 52.4636 3.15333 52.4636 3.18C52.4636 3.19333 52.4769 3.21333 52.5036 3.24H52.5636C52.5903 3.17333 52.6369 3.10667 52.7036 3.04C52.7703 2.98667 52.8169 2.92667 52.8436 2.86L52.9636 2.82L53.0236 2.62C53.0236 2.60667 53.0236 2.60667 53.0236 2.62C53.0369 2.62 53.0436 2.62 53.0436 2.62L53.1036 2.42C53.1169 2.34 53.1569 2.26667 53.2236 2.2L53.1636 2.36L53.1036 2.54L53.1236 2.6C53.0836 2.64 53.0569 2.69333 53.0436 2.76C53.0303 2.8 53.0169 2.84 53.0036 2.88C52.9903 2.90667 52.9769 2.93333 52.9636 2.96C52.9769 2.97333 52.9969 2.98 53.0236 2.98L53.0636 2.96C53.0769 2.96 53.0703 2.97333 53.0436 3H53.0836L53.0236 3.14C53.0236 3.15333 53.0303 3.16 53.0436 3.16H53.0636L53.1036 3.08L53.1436 3.02L53.1636 2.98C53.1503 2.96667 53.1503 2.95333 53.1636 2.94C53.1636 2.92667 53.1703 2.92 53.1836 2.92V2.86C53.1836 2.84667 53.1969 2.84 53.2236 2.84C53.2369 2.82667 53.2436 2.79333 53.2436 2.74C53.2436 2.66 53.2703 2.6 53.3236 2.56C53.3503 2.53333 53.3636 2.51333 53.3636 2.5C53.3769 2.51333 53.3769 2.52667 53.3636 2.54C53.3503 2.55333 53.3436 2.57333 53.3436 2.6L53.3036 2.8L53.2436 3C53.2703 3.01333 53.2903 3.01333 53.3036 3H53.3436L53.3636 2.92V2.9C53.3503 2.91333 53.3436 2.91333 53.3436 2.9C53.3436 2.9 53.3703 2.82 53.4236 2.66C53.4636 2.66 53.4836 2.66667 53.4836 2.68C53.4836 2.66667 53.4903 2.66 53.5036 2.66C53.5169 2.64667 53.5103 2.64 53.4836 2.64C53.4969 2.64 53.5036 2.62667 53.5036 2.6C53.5036 2.58667 53.5103 2.58 53.5236 2.58C53.5236 2.52667 53.5436 2.47333 53.5836 2.42L53.6036 2.38ZM53.7236 1.58C53.6969 1.62 53.6903 1.64667 53.7036 1.66L53.6636 1.7V1.72C53.6636 1.73333 53.6503 1.78 53.6236 1.86L53.5636 2.02L53.5436 1.98L53.5836 1.88C53.6236 1.84 53.6303 1.81333 53.6036 1.8C53.6169 1.78667 53.6303 1.76 53.6436 1.72C53.6703 1.68 53.6769 1.64 53.6636 1.6H53.6836L53.7436 1.5L53.7236 1.58ZM52.5436 1.62C52.5569 1.63333 52.5636 1.65333 52.5636 1.68C52.5503 1.66667 52.5436 1.64667 52.5436 1.62ZM52.7436 1.72C52.7303 1.69333 52.7436 1.66 52.7836 1.62L52.7436 1.72ZM52.9036 1.8L52.8836 1.82L52.9236 1.74C52.9236 1.75333 52.9303 1.76 52.9436 1.76C52.9303 1.74667 52.9369 1.72667 52.9636 1.7L53.0036 1.62C53.0036 1.66 52.9903 1.71333 52.9636 1.78C52.9369 1.83333 52.9169 1.87333 52.9036 1.9C52.8903 1.88667 52.8903 1.87333 52.9036 1.86C52.9169 1.84667 52.9169 1.83333 52.9036 1.82V1.8ZM52.7236 1.78C52.7236 1.79333 52.7169 1.8 52.7036 1.8L52.7236 1.76V1.78ZM52.8836 1.82H52.8636L52.8836 1.8V1.82ZM53.4436 1.86C53.4303 1.84667 53.4369 1.82667 53.4636 1.8L53.4436 1.86ZM53.5436 1.84C53.5303 1.84 53.5303 1.83333 53.5436 1.82C53.5569 1.80667 53.5703 1.80667 53.5836 1.82H53.5636C53.5636 1.83333 53.5569 1.84 53.5436 1.84ZM53.3636 1.84L53.3436 1.88V1.82L53.3636 1.84ZM53.3036 2.02C53.2769 2.07333 53.2636 2.11333 53.2636 2.14C53.2369 2.07333 53.2503 2.01333 53.3036 1.96V1.94L53.3236 1.9C53.3236 1.88667 53.3236 1.88667 53.3236 1.9C53.3369 1.9 53.3369 1.90667 53.3236 1.92C53.3236 1.97333 53.3169 2.00667 53.3036 2.02ZM53.6436 2.1C53.6303 2.07333 53.6436 2.04 53.6836 2C53.6969 2 53.7036 2.00667 53.7036 2.02C53.7036 2.03333 53.6903 2.04667 53.6636 2.06C53.6503 2.07333 53.6436 2.08667 53.6436 2.1ZM53.5436 2.04L53.5636 2.02V2.04H53.5436ZM53.5436 2.1C53.5303 2.11333 53.5236 2.13333 53.5236 2.16C53.5103 2.14667 53.5103 2.13333 53.5236 2.12V2.08C53.5369 2.08 53.5436 2.08667 53.5436 2.1ZM52.0036 2.1C52.0169 2.1 52.0236 2.10667 52.0236 2.12C52.0236 2.13333 52.0103 2.14667 51.9836 2.16C51.9703 2.17333 51.9636 2.18667 51.9636 2.2V2.16C51.9769 2.16 51.9836 2.14667 51.9836 2.12C51.9836 2.10667 51.9903 2.1 52.0036 2.1ZM53.6436 2.18C53.6303 2.16667 53.6303 2.15333 53.6436 2.14V2.1L53.6636 2.14L53.6436 2.18ZM53.6236 2.2L53.6436 2.24C53.6436 2.25333 53.6369 2.26 53.6236 2.26V2.2ZM53.6036 2.26C53.6169 2.28667 53.6169 2.31333 53.6036 2.34C53.6036 2.35333 53.6036 2.36667 53.6036 2.38V2.3V2.26ZM53.4036 2.46L53.3836 2.42L53.4236 2.44L53.4036 2.46ZM52.3836 2.68C52.3836 2.70667 52.3769 2.72667 52.3636 2.74C52.3636 2.66 52.3769 2.62 52.4036 2.62C52.3903 2.63333 52.3836 2.65333 52.3836 2.68ZM45.7036 2.82C45.6636 2.78 45.6503 2.75333 45.6636 2.74L45.7036 2.8C45.7303 2.82667 45.7503 2.84 45.7636 2.84V2.86C45.8169 2.91333 45.8436 2.94 45.8436 2.94L45.8636 2.98L45.7836 2.94C45.7836 2.92667 45.7703 2.91333 45.7436 2.9C45.7303 2.87333 45.7103 2.85333 45.6836 2.84H45.7036V2.82ZM53.1236 2.76C53.1369 2.76 53.1436 2.77333 53.1436 2.8L53.1236 2.76ZM53.1436 2.8L53.1236 2.84L53.1436 2.8ZM53.1236 2.86L53.0836 2.9L53.1236 2.84V2.86ZM53.0836 2.92V2.9C53.0836 2.92667 53.0836 2.94 53.0836 2.94V2.92ZM53.4836 3.08C53.4703 3.05333 53.4703 3.03333 53.4836 3.02C53.4703 3.00667 53.4636 2.98667 53.4636 2.96C53.4636 2.93333 53.4503 2.92 53.4236 2.92C53.4236 2.93333 53.4036 2.96 53.3636 3C53.3636 3.01333 53.3769 3.02 53.4036 3.02C53.3903 3.03333 53.3836 3.05333 53.3836 3.08C53.3836 3.13333 53.3769 3.16667 53.3636 3.18C53.3636 3.19333 53.3769 3.2 53.4036 3.2C53.4036 3.2 53.3969 3.19333 53.3836 3.18L53.4236 3.2C53.4369 3.18667 53.4436 3.16667 53.4436 3.14C53.4436 3.12667 53.4569 3.10667 53.4836 3.08ZM46.0236 3C45.9969 3 45.9836 2.98 45.9836 2.94C45.9969 2.94 46.0036 2.94667 46.0036 2.96C46.0036 2.98667 46.0103 3 46.0236 3ZM45.7836 2.98V3C45.7703 2.98667 45.7703 2.97333 45.7836 2.96L45.8036 2.98H45.7836ZM45.9036 3.04C45.9036 3.04 45.8903 3.02 45.8636 2.98C45.8636 2.98 45.8836 3 45.9236 3.04H45.9036ZM46.1236 3.06C46.1236 3.07333 46.1169 3.08 46.1036 3.08C46.1036 3.06667 46.1036 3.06 46.1036 3.06L46.1236 3.04V3.06ZM46.3236 3.22C46.3236 3.20667 46.3303 3.2 46.3436 3.2V3.28C46.3303 3.26667 46.3236 3.26667 46.3236 3.28C46.3236 3.29333 46.3169 3.3 46.3036 3.3L46.3236 3.26C46.3103 3.26 46.3036 3.25333 46.3036 3.24C46.2503 3.21333 46.2169 3.18667 46.2036 3.16C46.2036 3.16 46.1769 3.13333 46.1236 3.08C46.1769 3.10667 46.2369 3.15333 46.3036 3.22C46.3169 3.23333 46.3236 3.23333 46.3236 3.22ZM45.9436 3.1C45.9569 3.08667 45.9769 3.09333 46.0036 3.12L45.9436 3.1ZM45.7036 3.16C45.6903 3.17333 45.6836 3.17333 45.6836 3.16H45.7036ZM45.7436 3.22C45.7436 3.22 45.7369 3.22667 45.7236 3.24C45.7236 3.24 45.7236 3.23333 45.7236 3.22L45.7036 3.18L45.7236 3.2L45.7436 3.22ZM53.3836 3.18C53.3836 3.19333 53.3769 3.19333 53.3636 3.18H53.3836ZM45.8236 3.32C45.7703 3.32 45.7436 3.28667 45.7436 3.22L45.7836 3.26L45.8236 3.32ZM46.1436 3.3C46.1169 3.32667 46.1036 3.32667 46.1036 3.3H46.1236V3.28H46.1436V3.3ZM45.3836 3.46C45.3569 3.46 45.3436 3.44667 45.3436 3.42C45.3436 3.39333 45.3369 3.37333 45.3236 3.36C45.3769 3.41333 45.4036 3.44 45.4036 3.44L45.4636 3.52C45.4503 3.52 45.4436 3.51333 45.4436 3.5C45.4303 3.48667 45.4169 3.48667 45.4036 3.5L45.3636 3.46H45.3836ZM44.9636 3.38C44.9903 3.38 45.0036 3.39333 45.0036 3.42L44.9636 3.38ZM46.6636 3.54C46.6636 3.52667 46.6569 3.52667 46.6436 3.54L46.6836 3.5L46.6636 3.46L46.6236 3.44L46.5836 3.42C46.5703 3.43333 46.5569 3.43333 46.5436 3.42C46.5303 3.39333 46.5103 3.39333 46.4836 3.42C46.4969 3.43333 46.5036 3.46 46.5036 3.5L46.5436 3.46C46.5436 3.46 46.5569 3.47333 46.5836 3.5L46.6236 3.56H46.6436C46.6569 3.57333 46.6636 3.56667 46.6636 3.54ZM47.3036 3.46L47.2636 3.44L47.3036 3.46ZM44.8636 3.46C44.8636 3.46 44.8703 3.46 44.8836 3.46C44.8969 3.44667 44.9036 3.44667 44.9036 3.46H44.8636ZM45.3636 3.52L45.4036 3.5L45.3836 3.54L45.3636 3.52ZM47.2836 3.54C47.2703 3.54 47.2569 3.54 47.2436 3.54C47.2436 3.52667 47.2503 3.51333 47.2636 3.5L47.2836 3.54ZM51.4436 3.5C51.4703 3.52667 51.4703 3.54 51.4436 3.54V3.5ZM53.4836 3.54C53.4836 3.51333 53.4903 3.5 53.5036 3.5L53.4836 3.54ZM45.1836 3.52L45.2236 3.56L45.1836 3.52ZM53.8636 3.56L53.8436 3.6C53.8303 3.58667 53.8303 3.56 53.8436 3.52L53.8636 3.56ZM46.9636 3.56C46.9369 3.56 46.9236 3.55333 46.9236 3.54L46.9636 3.56ZM45.2436 3.6L45.2236 3.56L45.2436 3.6ZM46.2036 3.6C46.2169 3.58667 46.2303 3.59333 46.2436 3.62C46.2569 3.63333 46.2636 3.64 46.2636 3.64V3.68C46.2503 3.68 46.2436 3.67333 46.2436 3.66L46.2036 3.6ZM44.6036 3.64C44.5769 3.64 44.5636 3.63333 44.5636 3.62L44.6036 3.64ZM45.2836 3.64C45.2703 3.64 45.2636 3.63333 45.2636 3.62H45.2836V3.64ZM45.1036 3.72H45.0636L45.1036 3.7V3.72ZM53.7436 3.78C53.7569 3.79333 53.7569 3.80667 53.7436 3.82C53.7436 3.82 53.7369 3.82 53.7236 3.82L53.7436 3.78ZM53.6636 3.86C53.6636 3.82 53.6703 3.80667 53.6836 3.82L53.6636 3.86ZM47.7036 4.02H47.6836H47.7036ZM45.7436 4.2C45.7303 4.2 45.7103 4.19333 45.6836 4.18C45.6703 4.15333 45.6703 4.13333 45.6836 4.12C45.6836 4.12 45.6969 4.13333 45.7236 4.16L45.7436 4.2ZM45.1236 4.3L45.1436 4.34H45.1036C45.1169 4.32667 45.1169 4.31333 45.1036 4.3C45.0903 4.3 45.0836 4.29333 45.0836 4.28L45.1236 4.3ZM45.7436 4.8C45.7436 4.8 45.7369 4.80667 45.7236 4.82C45.7236 4.82 45.7236 4.81333 45.7236 4.8H45.7436ZM45.7636 5.14C45.7636 5.12667 45.7636 5.12667 45.7636 5.14C45.7769 5.14 45.7836 5.14 45.7836 5.14H45.7636Z" fill="#5B8DEF"/>
</svg>
