<svg width="26" height="20" viewBox="0 0 26 20" fill="none" xmlns="http://www.w3.org/2000/svg">
<path d="M2.64 0.359999L4.1 0.359999L4.1 15L2.58 15L1.46 8.28L1.46 15L-9.6e-09 15L-2.30399e-10 0.359999L1.62 0.359999L2.64 6.4L2.64 0.359999ZM7.16313 15L5.70312 15L5.70312 0.359999L7.16313 0.359999L7.16313 15ZM12.8695 15L8.76953 15L8.76953 0.339999L10.2295 0.339999L10.2295 13.52L12.8695 13.52L12.8695 15ZM14.4727 0.359999L18.5727 0.359999L18.5727 15L17.1127 15L17.1127 9.72L15.9327 9.72L15.9327 15L14.4727 15L14.4727 0.359999ZM15.9327 8.26L17.1127 8.26L17.1127 1.82L15.9327 1.82L15.9327 8.26ZM22.8158 0.38L24.2758 0.38L24.2758 8.88L24.2758 10.36L22.9558 10.36L22.9558 15L21.4958 15L21.4958 10.36L20.1758 10.36L20.1758 8.88L20.1758 0.38L21.6358 0.38L21.6358 8.88L22.8158 8.88L22.8158 0.38Z" fill="#6698FA"/>
</svg>
