<svg width="34" height="34" viewBox="0 0 34 34" fill="none" xmlns="http://www.w3.org/2000/svg">
<path d="M18.1459 25.854C18.0994 25.8076 18.0625 25.7524 18.0373 25.6917C18.0122 25.6311 17.9992 25.566 17.9992 25.5003C17.9992 25.4346 18.0122 25.3695 18.0373 25.3088C18.0625 25.2481 18.0994 25.193 18.1459 25.1465L26.2921 17.0003H5.49961C5.367 17.0003 5.23982 16.9476 5.14605 16.8538C5.05229 16.7601 4.99961 16.6329 4.99961 16.5003C4.99961 16.3677 5.05229 16.2405 5.14605 16.1467C5.23982 16.053 5.367 16.0003 5.49961 16.0003H26.2921L18.1459 7.85403C18.0994 7.80757 18.0626 7.75242 18.0374 7.69173C18.0123 7.63103 17.9993 7.56598 17.9993 7.50028C17.9993 7.43458 18.0123 7.36953 18.0374 7.30883C18.0626 7.24813 18.0994 7.19298 18.1459 7.14653C18.1923 7.10007 18.2475 7.06322 18.3082 7.03808C18.3689 7.01294 18.4339 7 18.4996 7C18.5653 7 18.6304 7.01294 18.6911 7.03808C18.7518 7.06322 18.8069 7.10007 18.8534 7.14653L27.8534 16.1465C27.8998 16.193 27.9367 16.2481 27.9619 16.3088C27.987 16.3695 28 16.4346 28 16.5003C28 16.566 27.987 16.6311 27.9619 16.6917C27.9367 16.7524 27.8998 16.8076 27.8534 16.854L18.8534 25.854C18.8069 25.9005 18.7518 25.9374 18.6911 25.9626C18.6304 25.9877 18.5653 26.0007 18.4996 26.0007C18.4339 26.0007 18.3688 25.9877 18.3081 25.9626C18.2474 25.9374 18.1923 25.9005 18.1459 25.854Z" fill="#6698fa"/>
</svg>
