<svg width="382" height="547" viewBox="0 0 382 547" fill="none" xmlns="http://www.w3.org/2000/svg">
<path d="M0.5 354C0.5 351.515 2.51472 349.5 5 349.5H377C379.485 349.5 381.5 351.515 381.5 354V542C381.5 544.485 379.485 546.5 377 546.5H5C2.51472 546.5 0.5 544.485 0.5 542V354Z" fill="white" stroke="url(#paint0_linear_6399_6200)"/>
<path d="M29.58 401.126C28.704 401.126 27.912 400.976 27.204 400.676C26.508 400.376 25.956 399.944 25.548 399.38C25.14 398.816 24.93 398.15 24.918 397.382H27.618C27.654 397.898 27.834 398.306 28.158 398.606C28.494 398.906 28.95 399.056 29.526 399.056C30.114 399.056 30.576 398.918 30.912 398.642C31.248 398.354 31.416 397.982 31.416 397.526C31.416 397.154 31.302 396.848 31.074 396.608C30.846 396.368 30.558 396.182 30.21 396.05C29.874 395.906 29.406 395.75 28.806 395.582C27.99 395.342 27.324 395.108 26.808 394.88C26.304 394.64 25.866 394.286 25.494 393.818C25.134 393.338 24.954 392.702 24.954 391.91C24.954 391.166 25.14 390.518 25.512 389.966C25.884 389.414 26.406 388.994 27.078 388.706C27.75 388.406 28.518 388.256 29.382 388.256C30.678 388.256 31.728 388.574 32.532 389.21C33.348 389.834 33.798 390.71 33.882 391.838H31.11C31.086 391.406 30.9 391.052 30.552 390.776C30.216 390.488 29.766 390.344 29.202 390.344C28.71 390.344 28.314 390.47 28.014 390.722C27.726 390.974 27.582 391.34 27.582 391.82C27.582 392.156 27.69 392.438 27.906 392.666C28.134 392.882 28.41 393.062 28.734 393.206C29.07 393.338 29.538 393.494 30.138 393.674C30.954 393.914 31.62 394.154 32.136 394.394C32.652 394.634 33.096 394.994 33.468 395.474C33.84 395.954 34.026 396.584 34.026 397.364C34.026 398.036 33.852 398.66 33.504 399.236C33.156 399.812 32.646 400.274 31.974 400.622C31.302 400.958 30.504 401.126 29.58 401.126ZM39.1448 393.098V397.922C39.1448 398.258 39.2228 398.504 39.3788 398.66C39.5468 398.804 39.8228 398.876 40.2068 398.876H41.3768V401H39.7928C37.6688 401 36.6068 399.968 36.6068 397.904V393.098H35.4188V391.028H36.6068V388.562H39.1448V391.028H41.3768V393.098H39.1448ZM52.6033 391.028V401H50.0653V399.74C49.7413 400.172 49.3153 400.514 48.7873 400.766C48.2713 401.006 47.7073 401.126 47.0953 401.126C46.3153 401.126 45.6253 400.964 45.0253 400.64C44.4253 400.304 43.9513 399.818 43.6033 399.182C43.2673 398.534 43.0993 397.766 43.0993 396.878V391.028H45.6193V396.518C45.6193 397.31 45.8173 397.922 46.2133 398.354C46.6093 398.774 47.1493 398.984 47.8333 398.984C48.5293 398.984 49.0753 398.774 49.4713 398.354C49.8673 397.922 50.0653 397.31 50.0653 396.518V391.028H52.6033ZM54.4417 395.978C54.4417 394.97 54.6397 394.076 55.0357 393.296C55.4437 392.516 55.9957 391.916 56.6917 391.496C57.3877 391.076 58.1617 390.866 59.0137 390.866C59.6617 390.866 60.2797 391.01 60.8677 391.298C61.4557 391.574 61.9237 391.946 62.2717 392.414V387.68H64.8277V401H62.2717V399.524C61.9597 400.016 61.5217 400.412 60.9577 400.712C60.3937 401.012 59.7397 401.162 58.9957 401.162C58.1557 401.162 57.3877 400.946 56.6917 400.514C55.9957 400.082 55.4437 399.476 55.0357 398.696C54.6397 397.904 54.4417 396.998 54.4417 395.978ZM62.2897 396.014C62.2897 395.402 62.1697 394.88 61.9297 394.448C61.6897 394.004 61.3657 393.668 60.9577 393.44C60.5497 393.2 60.1117 393.08 59.6437 393.08C59.1757 393.08 58.7437 393.194 58.3477 393.422C57.9517 393.65 57.6277 393.986 57.3757 394.43C57.1357 394.862 57.0157 395.378 57.0157 395.978C57.0157 396.578 57.1357 397.106 57.3757 397.562C57.6277 398.006 57.9517 398.348 58.3477 398.588C58.7557 398.828 59.1877 398.948 59.6437 398.948C60.1117 398.948 60.5497 398.834 60.9577 398.606C61.3657 398.366 61.6897 398.03 61.9297 397.598C62.1697 397.154 62.2897 396.626 62.2897 396.014ZM76.8289 391.028L70.6549 405.716H67.9729L70.1329 400.748L66.1369 391.028H68.9629L71.5369 397.994L74.1469 391.028H76.8289ZM88.9333 401H86.4133L80.7073 392.378V401H78.1873V388.418H80.7073L86.4133 397.058V388.418H88.9333V401ZM95.8516 401.162C94.8916 401.162 94.0276 400.952 93.2596 400.532C92.4916 400.1 91.8856 399.494 91.4416 398.714C91.0096 397.934 90.7936 397.034 90.7936 396.014C90.7936 394.994 91.0156 394.094 91.4596 393.314C91.9156 392.534 92.5336 391.934 93.3136 391.514C94.0936 391.082 94.9636 390.866 95.9236 390.866C96.8836 390.866 97.7536 391.082 98.5336 391.514C99.3136 391.934 99.9256 392.534 100.37 393.314C100.826 394.094 101.054 394.994 101.054 396.014C101.054 397.034 100.82 397.934 100.352 398.714C99.8956 399.494 99.2716 400.1 98.4796 400.532C97.6996 400.952 96.8236 401.162 95.8516 401.162ZM95.8516 398.966C96.3076 398.966 96.7336 398.858 97.1296 398.642C97.5376 398.414 97.8616 398.078 98.1016 397.634C98.3416 397.19 98.4616 396.65 98.4616 396.014C98.4616 395.066 98.2096 394.34 97.7056 393.836C97.2136 393.32 96.6076 393.062 95.8876 393.062C95.1676 393.062 94.5616 393.32 94.0696 393.836C93.5896 394.34 93.3496 395.066 93.3496 396.014C93.3496 396.962 93.5836 397.694 94.0516 398.21C94.5316 398.714 95.1316 398.966 95.8516 398.966ZM105.836 393.098V397.922C105.836 398.258 105.914 398.504 106.07 398.66C106.238 398.804 106.514 398.876 106.898 398.876H108.068V401H106.484C104.36 401 103.298 399.968 103.298 397.904V393.098H102.11V391.028H103.298V388.562H105.836V391.028H108.068V393.098H105.836ZM111.159 389.84C110.715 389.84 110.343 389.702 110.043 389.426C109.755 389.138 109.611 388.784 109.611 388.364C109.611 387.944 109.755 387.596 110.043 387.32C110.343 387.032 110.715 386.888 111.159 386.888C111.603 386.888 111.969 387.032 112.257 387.32C112.557 387.596 112.707 387.944 112.707 388.364C112.707 388.784 112.557 389.138 112.257 389.426C111.969 389.702 111.603 389.84 111.159 389.84ZM112.401 391.028V401H109.881V391.028H112.401ZM119.318 401.162C118.358 401.162 117.494 400.952 116.726 400.532C115.958 400.1 115.352 399.494 114.908 398.714C114.476 397.934 114.26 397.034 114.26 396.014C114.26 394.994 114.482 394.094 114.926 393.314C115.382 392.534 116 391.934 116.78 391.514C117.56 391.082 118.43 390.866 119.39 390.866C120.35 390.866 121.22 391.082 122 391.514C122.78 391.934 123.392 392.534 123.836 393.314C124.292 394.094 124.52 394.994 124.52 396.014C124.52 397.034 124.286 397.934 123.818 398.714C123.362 399.494 122.738 400.1 121.946 400.532C121.166 400.952 120.29 401.162 119.318 401.162ZM119.318 398.966C119.774 398.966 120.2 398.858 120.596 398.642C121.004 398.414 121.328 398.078 121.568 397.634C121.808 397.19 121.928 396.65 121.928 396.014C121.928 395.066 121.676 394.34 121.172 393.836C120.68 393.32 120.074 393.062 119.354 393.062C118.634 393.062 118.028 393.32 117.536 393.836C117.056 394.34 116.816 395.066 116.816 396.014C116.816 396.962 117.05 397.694 117.518 398.21C117.998 398.714 118.598 398.966 119.318 398.966ZM131.895 390.884C133.083 390.884 134.043 391.262 134.775 392.018C135.507 392.762 135.873 393.806 135.873 395.15V401H133.353V395.492C133.353 394.7 133.155 394.094 132.759 393.674C132.363 393.242 131.823 393.026 131.139 393.026C130.443 393.026 129.891 393.242 129.483 393.674C129.087 394.094 128.889 394.7 128.889 395.492V401H126.369V391.028H128.889V392.27C129.225 391.838 129.651 391.502 130.167 391.262C130.695 391.01 131.271 390.884 131.895 390.884Z" fill="url(#paint1_linear_6399_6200)"/>
<path d="M150.226 393.512V395.636H142.594V393.512H150.226ZM167.332 388.436L163.084 396.626V401H160.564V396.626L156.298 388.436H159.142L161.842 394.178L164.524 388.436H167.332ZM173.213 401.162C172.253 401.162 171.389 400.952 170.621 400.532C169.853 400.1 169.247 399.494 168.803 398.714C168.371 397.934 168.155 397.034 168.155 396.014C168.155 394.994 168.377 394.094 168.821 393.314C169.277 392.534 169.895 391.934 170.675 391.514C171.455 391.082 172.325 390.866 173.285 390.866C174.245 390.866 175.115 391.082 175.895 391.514C176.675 391.934 177.287 392.534 177.731 393.314C178.187 394.094 178.415 394.994 178.415 396.014C178.415 397.034 178.181 397.934 177.713 398.714C177.257 399.494 176.633 400.1 175.841 400.532C175.061 400.952 174.185 401.162 173.213 401.162ZM173.213 398.966C173.669 398.966 174.095 398.858 174.491 398.642C174.899 398.414 175.223 398.078 175.463 397.634C175.703 397.19 175.823 396.65 175.823 396.014C175.823 395.066 175.571 394.34 175.067 393.836C174.575 393.32 173.969 393.062 173.249 393.062C172.529 393.062 171.923 393.32 171.431 393.836C170.951 394.34 170.711 395.066 170.711 396.014C170.711 396.962 170.945 397.694 171.413 398.21C171.893 398.714 172.493 398.966 173.213 398.966ZM189.677 391.028V401H187.139V399.74C186.815 400.172 186.389 400.514 185.861 400.766C185.345 401.006 184.781 401.126 184.169 401.126C183.389 401.126 182.699 400.964 182.099 400.64C181.499 400.304 181.025 399.818 180.677 399.182C180.341 398.534 180.173 397.766 180.173 396.878V391.028H182.693V396.518C182.693 397.31 182.891 397.922 183.287 398.354C183.683 398.774 184.223 398.984 184.907 398.984C185.603 398.984 186.149 398.774 186.545 398.354C186.941 397.922 187.139 397.31 187.139 396.518V391.028H189.677ZM194.684 392.576C195.008 392.048 195.428 391.634 195.944 391.334C196.472 391.034 197.072 390.884 197.744 390.884V393.53H197.078C196.286 393.53 195.686 393.716 195.278 394.088C194.882 394.46 194.684 395.108 194.684 396.032V401H192.164V391.028H194.684V392.576ZM206.214 388.436V396.212C206.214 397.064 206.436 397.718 206.88 398.174C207.324 398.618 207.948 398.84 208.752 398.84C209.568 398.84 210.198 398.618 210.642 398.174C211.086 397.718 211.308 397.064 211.308 396.212V388.436H213.846V396.194C213.846 397.262 213.612 398.168 213.144 398.912C212.688 399.644 212.07 400.196 211.29 400.568C210.522 400.94 209.664 401.126 208.716 401.126C207.78 401.126 206.928 400.94 206.16 400.568C205.404 400.196 204.804 399.644 204.36 398.912C203.916 398.168 203.694 397.262 203.694 396.194V388.436H206.214ZM218.801 387.68V401H216.281V387.68H218.801ZM224.225 393.098V397.922C224.225 398.258 224.303 398.504 224.459 398.66C224.627 398.804 224.903 398.876 225.287 398.876H226.457V401H224.873C222.749 401 221.687 399.968 221.687 397.904V393.098H220.499V391.028H221.687V388.562H224.225V391.028H226.457V393.098H224.225ZM229.547 389.84C229.103 389.84 228.731 389.702 228.431 389.426C228.143 389.138 227.999 388.784 227.999 388.364C227.999 387.944 228.143 387.596 228.431 387.32C228.731 387.032 229.103 386.888 229.547 386.888C229.991 386.888 230.357 387.032 230.645 387.32C230.945 387.596 231.095 387.944 231.095 388.364C231.095 388.784 230.945 389.138 230.645 389.426C230.357 389.702 229.991 389.84 229.547 389.84ZM230.789 391.028V401H228.269V391.028H230.789ZM245.663 390.884C246.887 390.884 247.871 391.262 248.615 392.018C249.371 392.762 249.749 393.806 249.749 395.15V401H247.229V395.492C247.229 394.712 247.031 394.118 246.635 393.71C246.239 393.29 245.699 393.08 245.015 393.08C244.331 393.08 243.785 393.29 243.377 393.71C242.981 394.118 242.783 394.712 242.783 395.492V401H240.263V395.492C240.263 394.712 240.065 394.118 239.669 393.71C239.273 393.29 238.733 393.08 238.049 393.08C237.353 393.08 236.801 393.29 236.393 393.71C235.997 394.118 235.799 394.712 235.799 395.492V401H233.279V391.028H235.799V392.234C236.123 391.814 236.537 391.484 237.041 391.244C237.557 391.004 238.121 390.884 238.733 390.884C239.513 390.884 240.209 391.052 240.821 391.388C241.433 391.712 241.907 392.18 242.243 392.792C242.567 392.216 243.035 391.754 243.647 391.406C244.271 391.058 244.943 390.884 245.663 390.884ZM251.492 395.978C251.492 394.97 251.69 394.076 252.086 393.296C252.494 392.516 253.04 391.916 253.724 391.496C254.42 391.076 255.194 390.866 256.046 390.866C256.79 390.866 257.438 391.016 257.99 391.316C258.554 391.616 259.004 391.994 259.34 392.45V391.028H261.878V401H259.34V399.542C259.016 400.01 258.566 400.4 257.99 400.712C257.426 401.012 256.772 401.162 256.028 401.162C255.188 401.162 254.42 400.946 253.724 400.514C253.04 400.082 252.494 399.476 252.086 398.696C251.69 397.904 251.492 396.998 251.492 395.978ZM259.34 396.014C259.34 395.402 259.22 394.88 258.98 394.448C258.74 394.004 258.416 393.668 258.008 393.44C257.6 393.2 257.162 393.08 256.694 393.08C256.226 393.08 255.794 393.194 255.398 393.422C255.002 393.65 254.678 393.986 254.426 394.43C254.186 394.862 254.066 395.378 254.066 395.978C254.066 396.578 254.186 397.106 254.426 397.562C254.678 398.006 255.002 398.348 255.398 398.588C255.806 398.828 256.238 398.948 256.694 398.948C257.162 398.948 257.6 398.834 258.008 398.606C258.416 398.366 258.74 398.03 258.98 397.598C259.22 397.154 259.34 396.626 259.34 396.014ZM267.274 393.098V397.922C267.274 398.258 267.352 398.504 267.508 398.66C267.676 398.804 267.952 398.876 268.336 398.876H269.506V401H267.922C265.798 401 264.736 399.968 264.736 397.904V393.098H263.548V391.028H264.736V388.562H267.274V391.028H269.506V393.098H267.274ZM280.588 395.798C280.588 396.158 280.564 396.482 280.516 396.77H273.226C273.286 397.49 273.538 398.054 273.982 398.462C274.426 398.87 274.972 399.074 275.62 399.074C276.556 399.074 277.222 398.672 277.618 397.868H280.336C280.048 398.828 279.496 399.62 278.68 400.244C277.864 400.856 276.862 401.162 275.674 401.162C274.714 401.162 273.85 400.952 273.082 400.532C272.326 400.1 271.732 399.494 271.3 398.714C270.88 397.934 270.67 397.034 270.67 396.014C270.67 394.982 270.88 394.076 271.3 393.296C271.72 392.516 272.308 391.916 273.064 391.496C273.82 391.076 274.69 390.866 275.674 390.866C276.622 390.866 277.468 391.07 278.212 391.478C278.968 391.886 279.55 392.468 279.958 393.224C280.378 393.968 280.588 394.826 280.588 395.798ZM277.978 395.078C277.966 394.43 277.732 393.914 277.276 393.53C276.82 393.134 276.262 392.936 275.602 392.936C274.978 392.936 274.45 393.128 274.018 393.512C273.598 393.884 273.34 394.406 273.244 395.078H277.978ZM27.762 426.002H31.902V428H25.242V415.436H27.762V426.002ZM42.7737 422.798C42.7737 423.158 42.7497 423.482 42.7017 423.77H35.4117C35.4717 424.49 35.7237 425.054 36.1677 425.462C36.6117 425.87 37.1577 426.074 37.8057 426.074C38.7417 426.074 39.4077 425.672 39.8037 424.868H42.5217C42.2337 425.828 41.6817 426.62 40.8657 427.244C40.0497 427.856 39.0477 428.162 37.8597 428.162C36.8997 428.162 36.0357 427.952 35.2677 427.532C34.5117 427.1 33.9177 426.494 33.4857 425.714C33.0657 424.934 32.8557 424.034 32.8557 423.014C32.8557 421.982 33.0657 421.076 33.4857 420.296C33.9057 419.516 34.4937 418.916 35.2497 418.496C36.0057 418.076 36.8757 417.866 37.8597 417.866C38.8077 417.866 39.6537 418.07 40.3977 418.478C41.1537 418.886 41.7357 419.468 42.1437 420.224C42.5637 420.968 42.7737 421.826 42.7737 422.798ZM40.1637 422.078C40.1517 421.43 39.9177 420.914 39.4617 420.53C39.0057 420.134 38.4477 419.936 37.7877 419.936C37.1637 419.936 36.6357 420.128 36.2037 420.512C35.7837 420.884 35.5257 421.406 35.4297 422.078H40.1637ZM43.9651 422.978C43.9651 421.97 44.1631 421.076 44.5591 420.296C44.9671 419.516 45.5131 418.916 46.1971 418.496C46.8931 418.076 47.6671 417.866 48.5191 417.866C49.2631 417.866 49.9111 418.016 50.4631 418.316C51.0271 418.616 51.4771 418.994 51.8131 419.45V418.028H54.3511V428H51.8131V426.542C51.4891 427.01 51.0391 427.4 50.4631 427.712C49.8991 428.012 49.2451 428.162 48.5011 428.162C47.6611 428.162 46.8931 427.946 46.1971 427.514C45.5131 427.082 44.9671 426.476 44.5591 425.696C44.1631 424.904 43.9651 423.998 43.9651 422.978ZM51.8131 423.014C51.8131 422.402 51.6931 421.88 51.4531 421.448C51.2131 421.004 50.8891 420.668 50.4811 420.44C50.0731 420.2 49.6351 420.08 49.1671 420.08C48.6991 420.08 48.2671 420.194 47.8711 420.422C47.4751 420.65 47.1511 420.986 46.8991 421.43C46.6591 421.862 46.5391 422.378 46.5391 422.978C46.5391 423.578 46.6591 424.106 46.8991 424.562C47.1511 425.006 47.4751 425.348 47.8711 425.588C48.2791 425.828 48.7111 425.948 49.1671 425.948C49.6351 425.948 50.0731 425.834 50.4811 425.606C50.8891 425.366 51.2131 425.03 51.4531 424.598C51.6931 424.154 51.8131 423.626 51.8131 423.014ZM59.3323 419.576C59.6563 419.048 60.0763 418.634 60.5923 418.334C61.1203 418.034 61.7203 417.884 62.3923 417.884V420.53H61.7263C60.9343 420.53 60.3343 420.716 59.9263 421.088C59.5303 421.46 59.3323 422.108 59.3323 423.032V428H56.8123V418.028H59.3323V419.576ZM69.6157 417.884C70.8037 417.884 71.7637 418.262 72.4957 419.018C73.2277 419.762 73.5937 420.806 73.5937 422.15V428H71.0737V422.492C71.0737 421.7 70.8757 421.094 70.4797 420.674C70.0837 420.242 69.5437 420.026 68.8597 420.026C68.1637 420.026 67.6117 420.242 67.2037 420.674C66.8077 421.094 66.6097 421.7 66.6097 422.492V428H64.0897V418.028H66.6097V419.27C66.9457 418.838 67.3717 418.502 67.8877 418.262C68.4157 418.01 68.9917 417.884 69.6157 417.884ZM77.268 416.84C76.824 416.84 76.452 416.702 76.152 416.426C75.864 416.138 75.72 415.784 75.72 415.364C75.72 414.944 75.864 414.596 76.152 414.32C76.452 414.032 76.824 413.888 77.268 413.888C77.712 413.888 78.078 414.032 78.366 414.32C78.666 414.596 78.816 414.944 78.816 415.364C78.816 415.784 78.666 416.138 78.366 416.426C78.078 416.702 77.712 416.84 77.268 416.84ZM78.51 418.028V428H75.99V418.028H78.51ZM86.5258 417.884C87.7138 417.884 88.6738 418.262 89.4058 419.018C90.1378 419.762 90.5038 420.806 90.5038 422.15V428H87.9838V422.492C87.9838 421.7 87.7858 421.094 87.3898 420.674C86.9938 420.242 86.4538 420.026 85.7698 420.026C85.0738 420.026 84.5218 420.242 84.1138 420.674C83.7178 421.094 83.5198 421.7 83.5198 422.492V428H80.9998V418.028H83.5198V419.27C83.8558 418.838 84.2818 418.502 84.7978 418.262C85.3258 418.01 85.9018 417.884 86.5258 417.884ZM96.8062 417.866C97.5502 417.866 98.2042 418.016 98.7682 418.316C99.3322 418.604 99.7762 418.982 100.1 419.45V418.028H102.638V428.072C102.638 428.996 102.452 429.818 102.08 430.538C101.708 431.27 101.15 431.846 100.406 432.266C99.6622 432.698 98.7622 432.914 97.7062 432.914C96.2902 432.914 95.1262 432.584 94.2142 431.924C93.3142 431.264 92.8042 430.364 92.6842 429.224H95.1862C95.3182 429.68 95.6002 430.04 96.0322 430.304C96.4762 430.58 97.0102 430.718 97.6342 430.718C98.3662 430.718 98.9602 430.496 99.4162 430.052C99.8722 429.62 100.1 428.96 100.1 428.072V426.524C99.7762 426.992 99.3262 427.382 98.7502 427.694C98.1862 428.006 97.5382 428.162 96.8062 428.162C95.9662 428.162 95.1982 427.946 94.5022 427.514C93.8062 427.082 93.2542 426.476 92.8462 425.696C92.4502 424.904 92.2522 423.998 92.2522 422.978C92.2522 421.97 92.4502 421.076 92.8462 420.296C93.2542 419.516 93.8002 418.916 94.4842 418.496C95.1802 418.076 95.9542 417.866 96.8062 417.866ZM100.1 423.014C100.1 422.402 99.9802 421.88 99.7402 421.448C99.5002 421.004 99.1762 420.668 98.7682 420.44C98.3602 420.2 97.9222 420.08 97.4542 420.08C96.9862 420.08 96.5542 420.194 96.1582 420.422C95.7622 420.65 95.4382 420.986 95.1862 421.43C94.9462 421.862 94.8262 422.378 94.8262 422.978C94.8262 423.578 94.9462 424.106 95.1862 424.562C95.4382 425.006 95.7622 425.348 96.1582 425.588C96.5662 425.828 96.9982 425.948 97.4542 425.948C97.9222 425.948 98.3602 425.834 98.7682 425.606C99.1762 425.366 99.5002 425.03 99.7402 424.598C99.9802 424.154 100.1 423.626 100.1 423.014ZM118.55 419.324C118.55 419.996 118.388 420.626 118.064 421.214C117.752 421.802 117.254 422.276 116.57 422.636C115.898 422.996 115.046 423.176 114.014 423.176H111.908V428H109.388V415.436H114.014C114.986 415.436 115.814 415.604 116.498 415.94C117.182 416.276 117.692 416.738 118.028 417.326C118.376 417.914 118.55 418.58 118.55 419.324ZM113.906 421.142C114.602 421.142 115.118 420.986 115.454 420.674C115.79 420.35 115.958 419.9 115.958 419.324C115.958 418.1 115.274 417.488 113.906 417.488H111.908V421.142H113.906ZM122.86 414.68V428H120.34V414.68H122.86ZM124.701 422.978C124.701 421.97 124.899 421.076 125.295 420.296C125.703 419.516 126.249 418.916 126.933 418.496C127.629 418.076 128.403 417.866 129.255 417.866C129.999 417.866 130.647 418.016 131.199 418.316C131.763 418.616 132.213 418.994 132.549 419.45V418.028H135.087V428H132.549V426.542C132.225 427.01 131.775 427.4 131.199 427.712C130.635 428.012 129.981 428.162 129.237 428.162C128.397 428.162 127.629 427.946 126.933 427.514C126.249 427.082 125.703 426.476 125.295 425.696C124.899 424.904 124.701 423.998 124.701 422.978ZM132.549 423.014C132.549 422.402 132.429 421.88 132.189 421.448C131.949 421.004 131.625 420.668 131.217 420.44C130.809 420.2 130.371 420.08 129.903 420.08C129.435 420.08 129.003 420.194 128.607 420.422C128.211 420.65 127.887 420.986 127.635 421.43C127.395 421.862 127.275 422.378 127.275 422.978C127.275 423.578 127.395 424.106 127.635 424.562C127.887 425.006 128.211 425.348 128.607 425.588C129.015 425.828 129.447 425.948 129.903 425.948C130.371 425.948 130.809 425.834 131.217 425.606C131.625 425.366 131.949 425.03 132.189 424.598C132.429 424.154 132.549 423.626 132.549 423.014ZM140.483 420.098V424.922C140.483 425.258 140.561 425.504 140.717 425.66C140.885 425.804 141.161 425.876 141.545 425.876H142.715V428H141.131C139.007 428 137.945 426.968 137.945 424.904V420.098H136.757V418.028H137.945V415.562H140.483V418.028H142.715V420.098H140.483ZM149.099 420.098H147.353V428H144.797V420.098H143.663V418.028H144.797V417.524C144.797 416.3 145.145 415.4 145.841 414.824C146.537 414.248 147.587 413.978 148.991 414.014V416.138C148.379 416.126 147.953 416.228 147.713 416.444C147.473 416.66 147.353 417.05 147.353 417.614V418.028H149.099V420.098ZM155.16 428.162C154.2 428.162 153.336 427.952 152.568 427.532C151.8 427.1 151.194 426.494 150.75 425.714C150.318 424.934 150.102 424.034 150.102 423.014C150.102 421.994 150.324 421.094 150.768 420.314C151.224 419.534 151.842 418.934 152.622 418.514C153.402 418.082 154.272 417.866 155.232 417.866C156.192 417.866 157.062 418.082 157.842 418.514C158.622 418.934 159.234 419.534 159.678 420.314C160.134 421.094 160.362 421.994 160.362 423.014C160.362 424.034 160.128 424.934 159.66 425.714C159.204 426.494 158.58 427.1 157.788 427.532C157.008 427.952 156.132 428.162 155.16 428.162ZM155.16 425.966C155.616 425.966 156.042 425.858 156.438 425.642C156.846 425.414 157.17 425.078 157.41 424.634C157.65 424.19 157.77 423.65 157.77 423.014C157.77 422.066 157.518 421.34 157.014 420.836C156.522 420.32 155.916 420.062 155.196 420.062C154.476 420.062 153.87 420.32 153.378 420.836C152.898 421.34 152.658 422.066 152.658 423.014C152.658 423.962 152.892 424.694 153.36 425.21C153.84 425.714 154.44 425.966 155.16 425.966ZM164.731 419.576C165.055 419.048 165.475 418.634 165.991 418.334C166.519 418.034 167.119 417.884 167.791 417.884V420.53H167.125C166.333 420.53 165.733 420.716 165.325 421.088C164.929 421.46 164.731 422.108 164.731 423.032V428H162.211V418.028H164.731V419.576ZM181.872 417.884C183.096 417.884 184.08 418.262 184.824 419.018C185.58 419.762 185.958 420.806 185.958 422.15V428H183.438V422.492C183.438 421.712 183.24 421.118 182.844 420.71C182.448 420.29 181.908 420.08 181.224 420.08C180.54 420.08 179.994 420.29 179.586 420.71C179.19 421.118 178.992 421.712 178.992 422.492V428H176.472V422.492C176.472 421.712 176.274 421.118 175.878 420.71C175.482 420.29 174.942 420.08 174.258 420.08C173.562 420.08 173.01 420.29 172.602 420.71C172.206 421.118 172.008 421.712 172.008 422.492V428H169.488V418.028H172.008V419.234C172.332 418.814 172.746 418.484 173.25 418.244C173.766 418.004 174.33 417.884 174.942 417.884C175.722 417.884 176.418 418.052 177.03 418.388C177.642 418.712 178.116 419.18 178.452 419.792C178.776 419.216 179.244 418.754 179.856 418.406C180.48 418.058 181.152 417.884 181.872 417.884Z" fill="#464646"/>
<path d="M25.84 450.616C25.616 450.616 25.424 450.536 25.264 450.376C25.104 450.216 25.024 450.019 25.024 449.784C25.024 449.549 25.104 449.357 25.264 449.208C25.424 449.048 25.616 448.968 25.84 448.968C26.064 448.968 26.256 449.048 26.416 449.208C26.576 449.357 26.656 449.549 26.656 449.784C26.656 450.019 26.576 450.216 26.416 450.376C26.256 450.536 26.064 450.616 25.84 450.616ZM26.4 452.264V461H25.28V452.264H26.4ZM31.9443 461.128C30.9416 461.128 30.1203 460.899 29.4803 460.44C28.8509 459.971 28.4989 459.336 28.4243 458.536H29.5763C29.6296 459.027 29.8589 459.427 30.2643 459.736C30.6803 460.035 31.2349 460.184 31.9283 460.184C32.5363 460.184 33.0109 460.04 33.3523 459.752C33.7043 459.464 33.8803 459.107 33.8803 458.68C33.8803 458.381 33.7843 458.136 33.5923 457.944C33.4003 457.752 33.1549 457.603 32.8563 457.496C32.5683 457.379 32.1736 457.256 31.6723 457.128C31.0216 456.957 30.4936 456.787 30.0883 456.616C29.6829 456.445 29.3363 456.195 29.0483 455.864C28.7709 455.523 28.6323 455.069 28.6323 454.504C28.6323 454.077 28.7603 453.683 29.0163 453.32C29.2723 452.957 29.6349 452.669 30.1043 452.456C30.5736 452.243 31.1069 452.136 31.7043 452.136C32.6429 452.136 33.4003 452.376 33.9763 452.856C34.5523 453.325 34.8616 453.976 34.9043 454.808H33.7843C33.7523 454.296 33.5496 453.885 33.1763 453.576C32.8136 453.256 32.3123 453.096 31.6723 453.096C31.1069 453.096 30.6483 453.229 30.2963 453.496C29.9443 453.763 29.7682 454.093 29.7682 454.488C29.7682 454.829 29.8696 455.112 30.0723 455.336C30.2856 455.549 30.5469 455.72 30.8563 455.848C31.1656 455.965 31.5816 456.099 32.1043 456.248C32.7336 456.419 33.2349 456.584 33.6083 456.744C33.9816 456.904 34.3016 457.139 34.5683 457.448C34.8349 457.757 34.9736 458.168 34.9843 458.68C34.9843 459.149 34.8563 459.571 34.6003 459.944C34.3443 460.307 33.9869 460.595 33.5283 460.808C33.0696 461.021 32.5416 461.128 31.9443 461.128ZM40.9711 456.616C40.9711 455.72 41.1471 454.936 41.4991 454.264C41.8618 453.581 42.3578 453.059 42.9871 452.696C43.6271 452.323 44.3471 452.136 45.1471 452.136C45.9791 452.136 46.6938 452.328 47.2911 452.712C47.8991 453.096 48.3365 453.587 48.6031 454.184V452.264H49.7231V461H48.6031V459.064C48.3258 459.661 47.8831 460.157 47.2751 460.552C46.6778 460.936 45.9631 461.128 45.1311 461.128C44.3418 461.128 43.6271 460.941 42.9871 460.568C42.3578 460.195 41.8618 459.667 41.4991 458.984C41.1471 458.301 40.9711 457.512 40.9711 456.616ZM48.6031 456.632C48.6031 455.928 48.4591 455.309 48.1711 454.776C47.8831 454.243 47.4885 453.832 46.9871 453.544C46.4965 453.256 45.9525 453.112 45.3551 453.112C44.7365 453.112 44.1818 453.251 43.6911 453.528C43.2005 453.805 42.8111 454.211 42.5231 454.744C42.2458 455.267 42.1071 455.891 42.1071 456.616C42.1071 457.331 42.2458 457.96 42.5231 458.504C42.8111 459.037 43.2005 459.448 43.6911 459.736C44.1818 460.013 44.7365 460.152 45.3551 460.152C45.9525 460.152 46.4965 460.008 46.9871 459.72C47.4885 459.432 47.8831 459.021 48.1711 458.488C48.4591 457.955 48.6031 457.336 48.6031 456.632ZM56.376 452.104C57.4213 452.104 58.2747 452.429 58.936 453.08C59.5973 453.72 59.928 454.653 59.928 455.88V461H58.824V456.008C58.824 455.059 58.584 454.333 58.104 453.832C57.6347 453.331 56.9893 453.08 56.168 453.08C55.3253 453.08 54.6533 453.347 54.152 453.88C53.6507 454.413 53.4 455.197 53.4 456.232V461H52.28V452.264H53.4V453.752C53.6773 453.219 54.0773 452.813 54.6 452.536C55.1227 452.248 55.7147 452.104 56.376 452.104ZM66.2836 456.616C66.2836 455.72 66.4596 454.936 66.8116 454.264C67.1743 453.581 67.6703 453.059 68.2996 452.696C68.9396 452.323 69.6596 452.136 70.4596 452.136C71.2916 452.136 72.0063 452.328 72.6036 452.712C73.2116 453.096 73.649 453.587 73.9156 454.184V452.264H75.0356V461H73.9156V459.064C73.6383 459.661 73.1956 460.157 72.5876 460.552C71.9903 460.936 71.2756 461.128 70.4436 461.128C69.6543 461.128 68.9396 460.941 68.2996 460.568C67.6703 460.195 67.1743 459.667 66.8116 458.984C66.4596 458.301 66.2836 457.512 66.2836 456.616ZM73.9156 456.632C73.9156 455.928 73.7716 455.309 73.4836 454.776C73.1956 454.243 72.801 453.832 72.2996 453.544C71.809 453.256 71.265 453.112 70.6676 453.112C70.049 453.112 69.4943 453.251 69.0036 453.528C68.513 453.805 68.1236 454.211 67.8356 454.744C67.5583 455.267 67.4196 455.891 67.4196 456.616C67.4196 457.331 67.5583 457.96 67.8356 458.504C68.1236 459.037 68.513 459.448 69.0036 459.736C69.4943 460.013 70.049 460.152 70.6676 460.152C71.265 460.152 71.809 460.008 72.2996 459.72C72.801 459.432 73.1956 459.021 73.4836 458.488C73.7716 457.955 73.9156 457.336 73.9156 456.632ZM87.9925 452.104C89.0165 452.104 89.8485 452.429 90.4885 453.08C91.1392 453.72 91.4645 454.653 91.4645 455.88V461H90.3605V456.008C90.3605 455.059 90.1312 454.333 89.6725 453.832C89.2138 453.331 88.5898 453.08 87.8005 453.08C86.9792 453.08 86.3232 453.352 85.8325 453.896C85.3418 454.44 85.0965 455.229 85.0965 456.264V461H83.9925V456.008C83.9925 455.059 83.7632 454.333 83.3045 453.832C82.8458 453.331 82.2165 453.08 81.4165 453.08C80.5952 453.08 79.9392 453.352 79.4485 453.896C78.9578 454.44 78.7125 455.229 78.7125 456.264V461H77.5925V452.264H78.7125V453.768C78.9898 453.224 79.3845 452.813 79.8965 452.536C80.4085 452.248 80.9792 452.104 81.6085 452.104C82.3658 452.104 83.0272 452.285 83.5925 452.648C84.1685 453.011 84.5845 453.544 84.8405 454.248C85.0752 453.555 85.4752 453.027 86.0405 452.664C86.6165 452.291 87.2672 452.104 87.9925 452.104ZM95.0559 454.2C95.3439 453.592 95.7865 453.096 96.3839 452.712C96.9919 452.328 97.7065 452.136 98.5279 452.136C99.3279 452.136 100.043 452.323 100.672 452.696C101.301 453.059 101.792 453.581 102.144 454.264C102.507 454.936 102.688 455.72 102.688 456.616C102.688 457.512 102.507 458.301 102.144 458.984C101.792 459.667 101.296 460.195 100.656 460.568C100.027 460.941 99.3172 461.128 98.5279 461.128C97.6959 461.128 96.9759 460.941 96.3679 460.568C95.7705 460.184 95.3332 459.688 95.0559 459.08V461H93.9519V449.16H95.0559V454.2ZM101.552 456.616C101.552 455.891 101.408 455.267 101.12 454.744C100.843 454.211 100.459 453.805 99.9679 453.528C99.4772 453.251 98.9225 453.112 98.3039 453.112C97.7065 453.112 97.1572 453.256 96.6559 453.544C96.1652 453.832 95.7759 454.243 95.4879 454.776C95.1999 455.309 95.0559 455.928 95.0559 456.632C95.0559 457.336 95.1999 457.955 95.4879 458.488C95.7759 459.021 96.1652 459.432 96.6559 459.72C97.1572 460.008 97.7065 460.152 98.3039 460.152C98.9225 460.152 99.4772 460.013 99.9679 459.736C100.459 459.448 100.843 459.037 101.12 458.504C101.408 457.96 101.552 457.331 101.552 456.616ZM105.309 450.616C105.085 450.616 104.893 450.536 104.733 450.376C104.573 450.216 104.493 450.019 104.493 449.784C104.493 449.549 104.573 449.357 104.733 449.208C104.893 449.048 105.085 448.968 105.309 448.968C105.533 448.968 105.725 449.048 105.885 449.208C106.045 449.357 106.125 449.549 106.125 449.784C106.125 450.019 106.045 450.216 105.885 450.376C105.725 450.536 105.533 450.616 105.309 450.616ZM105.869 452.264V461H104.749V452.264H105.869ZM109.861 453.208V458.632C109.861 459.165 109.962 459.533 110.165 459.736C110.368 459.939 110.725 460.04 111.237 460.04H112.261V461H111.061C110.272 461 109.685 460.819 109.301 460.456C108.917 460.083 108.725 459.475 108.725 458.632V453.208H107.509V452.264H108.725V450.072H109.861V452.264H112.261V453.208H109.861ZM114.668 450.616C114.444 450.616 114.252 450.536 114.092 450.376C113.932 450.216 113.852 450.019 113.852 449.784C113.852 449.549 113.932 449.357 114.092 449.208C114.252 449.048 114.444 448.968 114.668 448.968C114.892 448.968 115.084 449.048 115.244 449.208C115.404 449.357 115.484 449.549 115.484 449.784C115.484 450.019 115.404 450.216 115.244 450.376C115.084 450.536 114.892 450.616 114.668 450.616ZM115.228 452.264V461H114.108V452.264H115.228ZM121.588 461.128C120.767 461.128 120.026 460.947 119.364 460.584C118.714 460.211 118.196 459.688 117.812 459.016C117.439 458.333 117.252 457.539 117.252 456.632C117.252 455.725 117.444 454.936 117.828 454.264C118.212 453.581 118.735 453.059 119.396 452.696C120.058 452.323 120.799 452.136 121.62 452.136C122.442 452.136 123.183 452.323 123.844 452.696C124.516 453.059 125.039 453.581 125.412 454.264C125.796 454.936 125.988 455.725 125.988 456.632C125.988 457.528 125.796 458.317 125.412 459C125.028 459.683 124.5 460.211 123.828 460.584C123.156 460.947 122.41 461.128 121.588 461.128ZM121.588 460.152C122.164 460.152 122.698 460.024 123.188 459.768C123.679 459.501 124.074 459.107 124.372 458.584C124.682 458.051 124.836 457.4 124.836 456.632C124.836 455.864 124.687 455.219 124.388 454.696C124.09 454.163 123.695 453.768 123.204 453.512C122.714 453.245 122.18 453.112 121.604 453.112C121.028 453.112 120.495 453.245 120.004 453.512C119.514 453.768 119.119 454.163 118.82 454.696C118.532 455.219 118.388 455.864 118.388 456.632C118.388 457.4 118.532 458.051 118.82 458.584C119.119 459.107 119.508 459.501 119.988 459.768C120.479 460.024 121.012 460.152 121.588 460.152ZM135.598 452.264V461H134.478V459.464C134.222 460.008 133.827 460.424 133.294 460.712C132.761 461 132.163 461.144 131.502 461.144C130.457 461.144 129.603 460.824 128.942 460.184C128.281 459.533 127.95 458.595 127.95 457.368V452.264H129.054V457.24C129.054 458.189 129.289 458.915 129.758 459.416C130.238 459.917 130.889 460.168 131.71 460.168C132.553 460.168 133.225 459.901 133.726 459.368C134.227 458.835 134.478 458.051 134.478 457.016V452.264H135.598ZM141.163 461.128C140.16 461.128 139.339 460.899 138.699 460.44C138.07 459.971 137.718 459.336 137.643 458.536H138.795C138.848 459.027 139.078 459.427 139.483 459.736C139.899 460.035 140.454 460.184 141.147 460.184C141.755 460.184 142.23 460.04 142.571 459.752C142.923 459.464 143.099 459.107 143.099 458.68C143.099 458.381 143.003 458.136 142.811 457.944C142.619 457.752 142.374 457.603 142.075 457.496C141.787 457.379 141.392 457.256 140.891 457.128C140.24 456.957 139.712 456.787 139.307 456.616C138.902 456.445 138.555 456.195 138.267 455.864C137.99 455.523 137.851 455.069 137.851 454.504C137.851 454.077 137.979 453.683 138.235 453.32C138.491 452.957 138.854 452.669 139.323 452.456C139.792 452.243 140.326 452.136 140.923 452.136C141.862 452.136 142.619 452.376 143.195 452.856C143.771 453.325 144.08 453.976 144.123 454.808H143.003C142.971 454.296 142.768 453.885 142.395 453.576C142.032 453.256 141.531 453.096 140.891 453.096C140.326 453.096 139.867 453.229 139.515 453.496C139.163 453.763 138.987 454.093 138.987 454.488C138.987 454.829 139.088 455.112 139.291 455.336C139.504 455.549 139.766 455.72 140.075 455.848C140.384 455.965 140.8 456.099 141.323 456.248C141.952 456.419 142.454 456.584 142.827 456.744C143.2 456.904 143.52 457.139 143.787 457.448C144.054 457.757 144.192 458.168 144.203 458.68C144.203 459.149 144.075 459.571 143.819 459.944C143.563 460.307 143.206 460.595 142.747 460.808C142.288 461.021 141.76 461.128 141.163 461.128ZM151.806 454.184C152.083 453.597 152.521 453.112 153.118 452.728C153.726 452.333 154.446 452.136 155.278 452.136C156.067 452.136 156.777 452.323 157.406 452.696C158.046 453.059 158.542 453.581 158.894 454.264C159.257 454.936 159.438 455.72 159.438 456.616C159.438 457.512 159.257 458.301 158.894 458.984C158.542 459.667 158.046 460.195 157.406 460.568C156.777 460.941 156.067 461.128 155.278 461.128C154.457 461.128 153.742 460.936 153.134 460.552C152.526 460.157 152.083 459.667 151.806 459.08V465.128H150.702V452.264H151.806V454.184ZM158.302 456.616C158.302 455.891 158.158 455.267 157.87 454.744C157.593 454.211 157.209 453.805 156.718 453.528C156.227 453.251 155.673 453.112 155.054 453.112C154.457 453.112 153.907 453.256 153.406 453.544C152.915 453.832 152.526 454.243 152.238 454.776C151.95 455.309 151.806 455.928 151.806 456.632C151.806 457.336 151.95 457.955 152.238 458.488C152.526 459.021 152.915 459.432 153.406 459.72C153.907 460.008 154.457 460.152 155.054 460.152C155.673 460.152 156.227 460.013 156.718 459.736C157.209 459.448 157.593 459.037 157.87 458.504C158.158 457.96 158.302 457.331 158.302 456.616ZM162.619 453.816C162.864 453.272 163.237 452.851 163.739 452.552C164.251 452.253 164.875 452.104 165.611 452.104V453.272H165.307C164.496 453.272 163.845 453.491 163.355 453.928C162.864 454.365 162.619 455.096 162.619 456.12V461H161.499V452.264H162.619V453.816ZM171.12 461.128C170.298 461.128 169.557 460.947 168.896 460.584C168.245 460.211 167.728 459.688 167.344 459.016C166.97 458.333 166.784 457.539 166.784 456.632C166.784 455.725 166.976 454.936 167.36 454.264C167.744 453.581 168.266 453.059 168.928 452.696C169.589 452.323 170.33 452.136 171.152 452.136C171.973 452.136 172.714 452.323 173.376 452.696C174.048 453.059 174.57 453.581 174.944 454.264C175.328 454.936 175.52 455.725 175.52 456.632C175.52 457.528 175.328 458.317 174.944 459C174.56 459.683 174.032 460.211 173.36 460.584C172.688 460.947 171.941 461.128 171.12 461.128ZM171.12 460.152C171.696 460.152 172.229 460.024 172.72 459.768C173.21 459.501 173.605 459.107 173.904 458.584C174.213 458.051 174.368 457.4 174.368 456.632C174.368 455.864 174.218 455.219 173.92 454.696C173.621 454.163 173.226 453.768 172.736 453.512C172.245 453.245 171.712 453.112 171.136 453.112C170.56 453.112 170.026 453.245 169.536 453.512C169.045 453.768 168.65 454.163 168.352 454.696C168.064 455.219 167.92 455.864 167.92 456.632C167.92 457.4 168.064 458.051 168.352 458.584C168.65 459.107 169.04 459.501 169.52 459.768C170.01 460.024 170.544 460.152 171.12 460.152ZM178.201 450.616C177.977 450.616 177.785 450.536 177.625 450.376C177.465 450.216 177.385 450.019 177.385 449.784C177.385 449.549 177.465 449.357 177.625 449.208C177.785 449.048 177.977 448.968 178.201 448.968C178.425 448.968 178.612 449.048 178.761 449.208C178.921 449.357 179.001 449.549 179.001 449.784C179.001 450.019 178.921 450.216 178.761 450.376C178.612 450.536 178.425 450.616 178.201 450.616ZM178.745 463.064C178.745 463.768 178.569 464.285 178.217 464.616C177.865 464.957 177.337 465.128 176.633 465.128H175.849V464.168H176.457C176.873 464.168 177.172 464.077 177.353 463.896C177.535 463.725 177.625 463.432 177.625 463.016V452.264H178.745V463.064ZM189.215 456.184C189.215 456.568 189.205 456.861 189.183 457.064H181.935C181.967 457.725 182.127 458.291 182.415 458.76C182.703 459.229 183.082 459.587 183.551 459.832C184.021 460.067 184.533 460.184 185.087 460.184C185.813 460.184 186.421 460.008 186.911 459.656C187.413 459.304 187.743 458.829 187.903 458.232H189.087C188.874 459.085 188.415 459.784 187.711 460.328C187.018 460.861 186.143 461.128 185.087 461.128C184.266 461.128 183.53 460.947 182.879 460.584C182.229 460.211 181.717 459.688 181.343 459.016C180.981 458.333 180.799 457.539 180.799 456.632C180.799 455.725 180.981 454.931 181.343 454.248C181.706 453.565 182.213 453.043 182.863 452.68C183.514 452.317 184.255 452.136 185.087 452.136C185.919 452.136 186.645 452.317 187.263 452.68C187.893 453.043 188.373 453.533 188.703 454.152C189.045 454.76 189.215 455.437 189.215 456.184ZM188.079 456.152C188.09 455.501 187.957 454.947 187.679 454.488C187.413 454.029 187.045 453.683 186.575 453.448C186.106 453.213 185.594 453.096 185.039 453.096C184.207 453.096 183.498 453.363 182.911 453.896C182.325 454.429 181.999 455.181 181.935 456.152H188.079ZM190.752 456.632C190.752 455.725 190.934 454.936 191.296 454.264C191.659 453.581 192.16 453.059 192.8 452.696C193.44 452.323 194.171 452.136 194.992 452.136C196.07 452.136 196.955 452.403 197.648 452.936C198.352 453.469 198.806 454.195 199.008 455.112H197.808C197.659 454.483 197.334 453.992 196.832 453.64C196.342 453.277 195.728 453.096 194.992 453.096C194.406 453.096 193.878 453.229 193.408 453.496C192.939 453.763 192.566 454.163 192.288 454.696C192.022 455.219 191.888 455.864 191.888 456.632C191.888 457.4 192.022 458.051 192.288 458.584C192.566 459.117 192.939 459.517 193.408 459.784C193.878 460.051 194.406 460.184 194.992 460.184C195.728 460.184 196.342 460.008 196.832 459.656C197.334 459.293 197.659 458.792 197.808 458.152H199.008C198.806 459.048 198.352 459.768 197.648 460.312C196.944 460.856 196.059 461.128 194.992 461.128C194.171 461.128 193.44 460.947 192.8 460.584C192.16 460.211 191.659 459.688 191.296 459.016C190.934 458.333 190.752 457.539 190.752 456.632ZM202.533 453.208V458.632C202.533 459.165 202.634 459.533 202.837 459.736C203.04 459.939 203.397 460.04 203.909 460.04H204.933V461H203.733C202.944 461 202.357 460.819 201.973 460.456C201.589 460.083 201.397 459.475 201.397 458.632V453.208H200.181V452.264H201.397V450.072H202.533V452.264H204.933V453.208H202.533ZM212.627 453.208V458.632C212.627 459.165 212.728 459.533 212.931 459.736C213.133 459.939 213.491 460.04 214.003 460.04H215.027V461H213.827C213.037 461 212.451 460.819 212.067 460.456C211.683 460.083 211.491 459.475 211.491 458.632V453.208H210.275V452.264H211.491V450.072H212.627V452.264H215.027V453.208H212.627ZM221.034 452.104C221.695 452.104 222.287 452.243 222.81 452.52C223.343 452.797 223.759 453.224 224.058 453.8C224.367 454.365 224.522 455.059 224.522 455.88V461H223.418V456.008C223.418 455.059 223.178 454.333 222.698 453.832C222.228 453.331 221.583 453.08 220.762 453.08C219.919 453.08 219.247 453.347 218.746 453.88C218.244 454.413 217.994 455.197 217.994 456.232V461H216.874V449.16H217.994V453.752C218.271 453.229 218.676 452.824 219.21 452.536C219.754 452.248 220.362 452.104 221.034 452.104ZM226.487 456.616C226.487 455.72 226.663 454.936 227.015 454.264C227.377 453.581 227.873 453.059 228.503 452.696C229.143 452.323 229.863 452.136 230.663 452.136C231.495 452.136 232.209 452.328 232.807 452.712C233.415 453.096 233.852 453.587 234.119 454.184V452.264H235.239V461H234.119V459.064C233.841 459.661 233.399 460.157 232.791 460.552C232.193 460.936 231.479 461.128 230.647 461.128C229.857 461.128 229.143 460.941 228.503 460.568C227.873 460.195 227.377 459.667 227.015 458.984C226.663 458.301 226.487 457.512 226.487 456.616ZM234.119 456.632C234.119 455.928 233.975 455.309 233.687 454.776C233.399 454.243 233.004 453.832 232.503 453.544C232.012 453.256 231.468 453.112 230.871 453.112C230.252 453.112 229.697 453.251 229.207 453.528C228.716 453.805 228.327 454.211 228.039 454.744C227.761 455.267 227.623 455.891 227.623 456.616C227.623 457.331 227.761 457.96 228.039 458.504C228.327 459.037 228.716 459.448 229.207 459.736C229.697 460.013 230.252 460.152 230.871 460.152C231.468 460.152 232.012 460.008 232.503 459.72C233.004 459.432 233.399 459.021 233.687 458.488C233.975 457.955 234.119 457.336 234.119 456.632ZM239.252 453.208V458.632C239.252 459.165 239.353 459.533 239.556 459.736C239.758 459.939 240.116 460.04 240.628 460.04H241.652V461H240.452C239.662 461 239.076 460.819 238.692 460.456C238.308 460.083 238.116 459.475 238.116 458.632V453.208H236.9V452.264H238.116V450.072H239.252V452.264H241.652V453.208H239.252ZM247.377 456.616C247.377 455.72 247.553 454.936 247.905 454.264C248.268 453.581 248.764 453.059 249.393 452.696C250.033 452.323 250.753 452.136 251.553 452.136C252.385 452.136 253.1 452.328 253.697 452.712C254.305 453.096 254.743 453.587 255.009 454.184V452.264H256.129V461H255.009V459.064C254.732 459.661 254.289 460.157 253.681 460.552C253.084 460.936 252.369 461.128 251.537 461.128C250.748 461.128 250.033 460.941 249.393 460.568C248.764 460.195 248.268 459.667 247.905 458.984C247.553 458.301 247.377 457.512 247.377 456.616ZM255.009 456.632C255.009 455.928 254.865 455.309 254.577 454.776C254.289 454.243 253.895 453.832 253.393 453.544C252.903 453.256 252.359 453.112 251.761 453.112C251.143 453.112 250.588 453.251 250.097 453.528C249.607 453.805 249.217 454.211 248.929 454.744C248.652 455.267 248.513 455.891 248.513 456.616C248.513 457.331 248.652 457.96 248.929 458.504C249.217 459.037 249.607 459.448 250.097 459.736C250.588 460.013 251.143 460.152 251.761 460.152C252.359 460.152 252.903 460.008 253.393 459.72C253.895 459.432 254.289 459.021 254.577 458.488C254.865 457.955 255.009 457.336 255.009 456.632ZM261.694 461.128C260.692 461.128 259.87 460.899 259.23 460.44C258.601 459.971 258.249 459.336 258.174 458.536H259.326C259.38 459.027 259.609 459.427 260.014 459.736C260.43 460.035 260.985 460.184 261.678 460.184C262.286 460.184 262.761 460.04 263.102 459.752C263.454 459.464 263.63 459.107 263.63 458.68C263.63 458.381 263.534 458.136 263.342 457.944C263.15 457.752 262.905 457.603 262.606 457.496C262.318 457.379 261.924 457.256 261.422 457.128C260.772 456.957 260.244 456.787 259.838 456.616C259.433 456.445 259.086 456.195 258.798 455.864C258.521 455.523 258.382 455.069 258.382 454.504C258.382 454.077 258.51 453.683 258.766 453.32C259.022 452.957 259.385 452.669 259.854 452.456C260.324 452.243 260.857 452.136 261.454 452.136C262.393 452.136 263.15 452.376 263.726 452.856C264.302 453.325 264.612 453.976 264.654 454.808H263.534C263.502 454.296 263.3 453.885 262.926 453.576C262.564 453.256 262.062 453.096 261.422 453.096C260.857 453.096 260.398 453.229 260.046 453.496C259.694 453.763 259.518 454.093 259.518 454.488C259.518 454.829 259.62 455.112 259.822 455.336C260.036 455.549 260.297 455.72 260.606 455.848C260.916 455.965 261.332 456.099 261.854 456.248C262.484 456.419 262.985 456.584 263.358 456.744C263.732 456.904 264.052 457.139 264.318 457.448C264.585 457.757 264.724 458.168 264.734 458.68C264.734 459.149 264.606 459.571 264.35 459.944C264.094 460.307 263.737 460.595 263.278 460.808C262.82 461.021 262.292 461.128 261.694 461.128ZM267.947 454.184C268.224 453.597 268.661 453.112 269.259 452.728C269.867 452.333 270.587 452.136 271.419 452.136C272.208 452.136 272.917 452.323 273.547 452.696C274.187 453.059 274.683 453.581 275.035 454.264C275.397 454.936 275.579 455.72 275.579 456.616C275.579 457.512 275.397 458.301 275.035 458.984C274.683 459.667 274.187 460.195 273.547 460.568C272.917 460.941 272.208 461.128 271.419 461.128C270.597 461.128 269.883 460.936 269.275 460.552C268.667 460.157 268.224 459.667 267.947 459.08V465.128H266.843V452.264H267.947V454.184ZM274.443 456.616C274.443 455.891 274.299 455.267 274.01 454.744C273.733 454.211 273.349 453.805 272.859 453.528C272.368 453.251 271.813 453.112 271.195 453.112C270.597 453.112 270.048 453.256 269.547 453.544C269.056 453.832 268.667 454.243 268.379 454.776C268.091 455.309 267.947 455.928 267.947 456.632C267.947 457.336 268.091 457.955 268.379 458.488C268.667 459.021 269.056 459.432 269.547 459.72C270.048 460.008 270.597 460.152 271.195 460.152C271.813 460.152 272.368 460.013 272.859 459.736C273.349 459.448 273.733 459.037 274.01 458.504C274.299 457.96 274.443 457.331 274.443 456.616ZM278.199 450.616C277.975 450.616 277.783 450.536 277.623 450.376C277.463 450.216 277.383 450.019 277.383 449.784C277.383 449.549 277.463 449.357 277.623 449.208C277.783 449.048 277.975 448.968 278.199 448.968C278.423 448.968 278.615 449.048 278.775 449.208C278.935 449.357 279.015 449.549 279.015 449.784C279.015 450.019 278.935 450.216 278.775 450.376C278.615 450.536 278.423 450.616 278.199 450.616ZM278.759 452.264V461H277.639V452.264H278.759ZM282.416 453.816C282.661 453.272 283.034 452.851 283.536 452.552C284.048 452.253 284.672 452.104 285.408 452.104V453.272H285.104C284.293 453.272 283.642 453.491 283.152 453.928C282.661 454.365 282.416 455.096 282.416 456.12V461H281.296V452.264H282.416V453.816ZM294.997 456.184C294.997 456.568 294.986 456.861 294.965 457.064H287.717C287.749 457.725 287.909 458.291 288.197 458.76C288.485 459.229 288.863 459.587 289.333 459.832C289.802 460.067 290.314 460.184 290.869 460.184C291.594 460.184 292.202 460.008 292.693 459.656C293.194 459.304 293.525 458.829 293.685 458.232H294.869C294.655 459.085 294.197 459.784 293.493 460.328C292.799 460.861 291.925 461.128 290.869 461.128C290.047 461.128 289.311 460.947 288.661 460.584C288.01 460.211 287.498 459.688 287.125 459.016C286.762 458.333 286.581 457.539 286.581 456.632C286.581 455.725 286.762 454.931 287.125 454.248C287.487 453.565 287.994 453.043 288.645 452.68C289.295 452.317 290.037 452.136 290.869 452.136C291.701 452.136 292.426 452.317 293.045 452.68C293.674 453.043 294.154 453.533 294.485 454.152C294.826 454.76 294.997 455.437 294.997 456.184ZM293.861 456.152C293.871 455.501 293.738 454.947 293.461 454.488C293.194 454.029 292.826 453.683 292.357 453.448C291.887 453.213 291.375 453.096 290.821 453.096C289.989 453.096 289.279 453.363 288.693 453.896C288.106 454.429 287.781 455.181 287.717 456.152H293.861ZM300.054 461.128C299.051 461.128 298.23 460.899 297.59 460.44C296.96 459.971 296.608 459.336 296.534 458.536H297.686C297.739 459.027 297.968 459.427 298.374 459.736C298.79 460.035 299.344 460.184 300.038 460.184C300.646 460.184 301.12 460.04 301.462 459.752C301.814 459.464 301.99 459.107 301.99 458.68C301.99 458.381 301.894 458.136 301.702 457.944C301.51 457.752 301.264 457.603 300.966 457.496C300.678 457.379 300.283 457.256 299.782 457.128C299.131 456.957 298.603 456.787 298.198 456.616C297.792 456.445 297.446 456.195 297.158 455.864C296.88 455.523 296.742 455.069 296.742 454.504C296.742 454.077 296.87 453.683 297.126 453.32C297.382 452.957 297.744 452.669 298.214 452.456C298.683 452.243 299.216 452.136 299.814 452.136C300.752 452.136 301.51 452.376 302.086 452.856C302.662 453.325 302.971 453.976 303.014 454.808H301.894C301.862 454.296 301.659 453.885 301.286 453.576C300.923 453.256 300.422 453.096 299.782 453.096C299.216 453.096 298.758 453.229 298.406 453.496C298.054 453.763 297.878 454.093 297.878 454.488C297.878 454.829 297.979 455.112 298.182 455.336C298.395 455.549 298.656 455.72 298.966 455.848C299.275 455.965 299.691 456.099 300.214 456.248C300.843 456.419 301.344 456.584 301.718 456.744C302.091 456.904 302.411 457.139 302.678 457.448C302.944 457.757 303.083 458.168 303.094 458.68C303.094 459.149 302.966 459.571 302.71 459.944C302.454 460.307 302.096 460.595 301.638 460.808C301.179 461.021 300.651 461.128 300.054 461.128ZM311.049 453.208V458.632C311.049 459.165 311.15 459.533 311.353 459.736C311.555 459.939 311.913 460.04 312.424 460.04H313.449V461H312.249C311.459 461 310.873 460.819 310.489 460.456C310.105 460.083 309.913 459.475 309.913 458.632V453.208H308.697V452.264H309.913V450.072H311.049V452.264H313.449V453.208H311.049ZM319.12 461.128C318.298 461.128 317.557 460.947 316.896 460.584C316.245 460.211 315.728 459.688 315.344 459.016C314.97 458.333 314.784 457.539 314.784 456.632C314.784 455.725 314.976 454.936 315.36 454.264C315.744 453.581 316.266 453.059 316.928 452.696C317.589 452.323 318.33 452.136 319.152 452.136C319.973 452.136 320.714 452.323 321.376 452.696C322.048 453.059 322.57 453.581 322.944 454.264C323.328 454.936 323.52 455.725 323.52 456.632C323.52 457.528 323.328 458.317 322.944 459C322.56 459.683 322.032 460.211 321.36 460.584C320.688 460.947 319.941 461.128 319.12 461.128ZM319.12 460.152C319.696 460.152 320.229 460.024 320.72 459.768C321.21 459.501 321.605 459.107 321.904 458.584C322.213 458.051 322.368 457.4 322.368 456.632C322.368 455.864 322.218 455.219 321.92 454.696C321.621 454.163 321.226 453.768 320.736 453.512C320.245 453.245 319.712 453.112 319.136 453.112C318.56 453.112 318.026 453.245 317.536 453.512C317.045 453.768 316.65 454.163 316.352 454.696C316.064 455.219 315.92 455.864 315.92 456.632C315.92 457.4 316.064 458.051 316.352 458.584C316.65 459.107 317.04 459.501 317.52 459.768C318.01 460.024 318.544 460.152 319.12 460.152ZM331.056 454.2C331.344 453.592 331.787 453.096 332.384 452.712C332.992 452.328 333.707 452.136 334.528 452.136C335.328 452.136 336.043 452.323 336.672 452.696C337.301 453.059 337.792 453.581 338.144 454.264C338.507 454.936 338.688 455.72 338.688 456.616C338.688 457.512 338.507 458.301 338.144 458.984C337.792 459.667 337.296 460.195 336.656 460.568C336.027 460.941 335.317 461.128 334.528 461.128C333.696 461.128 332.976 460.941 332.368 460.568C331.771 460.184 331.333 459.688 331.056 459.08V461H329.952V449.16H331.056V454.2ZM337.552 456.616C337.552 455.891 337.408 455.267 337.12 454.744C336.843 454.211 336.459 453.805 335.968 453.528C335.477 453.251 334.923 453.112 334.304 453.112C333.707 453.112 333.157 453.256 332.656 453.544C332.165 453.832 331.776 454.243 331.488 454.776C331.2 455.309 331.056 455.928 331.056 456.632C331.056 457.336 331.2 457.955 331.488 458.488C331.776 459.021 332.165 459.432 332.656 459.72C333.157 460.008 333.707 460.152 334.304 460.152C334.923 460.152 335.477 460.013 335.968 459.736C336.459 459.448 336.843 459.037 337.12 458.504C337.408 457.96 337.552 457.331 337.552 456.616ZM348.653 456.184C348.653 456.568 348.642 456.861 348.621 457.064H341.373C341.405 457.725 341.565 458.291 341.853 458.76C342.141 459.229 342.519 459.587 342.989 459.832C343.458 460.067 343.97 460.184 344.525 460.184C345.25 460.184 345.858 460.008 346.349 459.656C346.85 459.304 347.181 458.829 347.341 458.232H348.525C348.311 459.085 347.853 459.784 347.149 460.328C346.455 460.861 345.581 461.128 344.525 461.128C343.703 461.128 342.967 460.947 342.317 460.584C341.666 460.211 341.154 459.688 340.781 459.016C340.418 458.333 340.237 457.539 340.237 456.632C340.237 455.725 340.418 454.931 340.781 454.248C341.143 453.565 341.65 453.043 342.301 452.68C342.951 452.317 343.693 452.136 344.525 452.136C345.357 452.136 346.082 452.317 346.701 452.68C347.33 453.043 347.81 453.533 348.141 454.152C348.482 454.76 348.653 455.437 348.653 456.184ZM347.517 456.152C347.527 455.501 347.394 454.947 347.117 454.488C346.85 454.029 346.482 453.683 346.013 453.448C345.543 453.213 345.031 453.096 344.477 453.096C343.645 453.096 342.935 453.363 342.349 453.896C341.762 454.429 341.437 455.181 341.373 456.152H347.517ZM26.736 477.208V482.632C26.736 483.165 26.8373 483.533 27.04 483.736C27.2427 483.939 27.6 484.04 28.112 484.04H29.136V485H27.936C27.1467 485 26.56 484.819 26.176 484.456C25.792 484.083 25.6 483.475 25.6 482.632V477.208H24.384V476.264H25.6V474.072H26.736V476.264H29.136V477.208H26.736ZM35.1431 476.104C35.8045 476.104 36.3965 476.243 36.9191 476.52C37.4525 476.797 37.8685 477.224 38.1671 477.8C38.4765 478.365 38.6311 479.059 38.6311 479.88V485H37.5271V480.008C37.5271 479.059 37.2871 478.333 36.8071 477.832C36.3378 477.331 35.6925 477.08 34.8711 477.08C34.0285 477.08 33.3565 477.347 32.8551 477.88C32.3538 478.413 32.1031 479.197 32.1031 480.232V485H30.9831V473.16H32.1031V477.752C32.3805 477.229 32.7858 476.824 33.3191 476.536C33.8631 476.248 34.4711 476.104 35.1431 476.104ZM49.0121 480.184C49.0121 480.568 49.0015 480.861 48.9801 481.064H41.7321C41.7641 481.725 41.9241 482.291 42.2121 482.76C42.5001 483.229 42.8788 483.587 43.3481 483.832C43.8175 484.067 44.3295 484.184 44.8841 484.184C45.6095 484.184 46.2175 484.008 46.7081 483.656C47.2095 483.304 47.5401 482.829 47.7001 482.232H48.8841C48.6708 483.085 48.2121 483.784 47.5081 484.328C46.8148 484.861 45.9401 485.128 44.8841 485.128C44.0628 485.128 43.3268 484.947 42.6761 484.584C42.0255 484.211 41.5135 483.688 41.1401 483.016C40.7775 482.333 40.5961 481.539 40.5961 480.632C40.5961 479.725 40.7775 478.931 41.1401 478.248C41.5028 477.565 42.0095 477.043 42.6601 476.68C43.3108 476.317 44.0521 476.136 44.8841 476.136C45.7161 476.136 46.4415 476.317 47.0601 476.68C47.6895 477.043 48.1695 477.533 48.5001 478.152C48.8415 478.76 49.0121 479.437 49.0121 480.184ZM47.8761 480.152C47.8868 479.501 47.7535 478.947 47.4761 478.488C47.2095 478.029 46.8415 477.683 46.3721 477.448C45.9028 477.213 45.3908 477.096 44.8361 477.096C44.0041 477.096 43.2948 477.363 42.7081 477.896C42.1215 478.429 41.7961 479.181 41.7321 480.152H47.8761ZM59.1159 476.136C59.9372 476.136 60.6519 476.328 61.2599 476.712C61.8679 477.096 62.3052 477.581 62.5719 478.168V476.264H63.6919V485.224C63.6919 486.024 63.5159 486.733 63.1639 487.352C62.8225 487.971 62.3425 488.445 61.7239 488.776C61.1052 489.117 60.4012 489.288 59.6119 489.288C58.4919 489.288 57.5585 489.021 56.8119 488.488C56.0759 487.955 55.6172 487.229 55.4359 486.312H56.5399C56.7319 486.92 57.0945 487.405 57.6279 487.768C58.1719 488.131 58.8332 488.312 59.6119 488.312C60.1772 488.312 60.6839 488.189 61.1319 487.944C61.5799 487.709 61.9319 487.357 62.1879 486.888C62.4439 486.419 62.5719 485.864 62.5719 485.224V483.064C62.2945 483.661 61.8519 484.157 61.2439 484.552C60.6465 484.936 59.9372 485.128 59.1159 485.128C58.3159 485.128 57.5959 484.941 56.9559 484.568C56.3265 484.195 55.8305 483.667 55.4679 482.984C55.1159 482.301 54.9399 481.512 54.9399 480.616C54.9399 479.72 55.1159 478.936 55.4679 478.264C55.8305 477.581 56.3265 477.059 56.9559 476.696C57.5959 476.323 58.3159 476.136 59.1159 476.136ZM62.5719 480.632C62.5719 479.928 62.4279 479.309 62.1399 478.776C61.8519 478.243 61.4572 477.832 60.9559 477.544C60.4652 477.256 59.9212 477.112 59.3239 477.112C58.7052 477.112 58.1505 477.251 57.6599 477.528C57.1692 477.805 56.7799 478.211 56.4919 478.744C56.2145 479.267 56.0759 479.891 56.0759 480.616C56.0759 481.331 56.2145 481.96 56.4919 482.504C56.7799 483.037 57.1692 483.448 57.6599 483.736C58.1505 484.013 58.7052 484.152 59.3239 484.152C59.9212 484.152 60.4652 484.008 60.9559 483.72C61.4572 483.432 61.8519 483.021 62.1399 482.488C62.4279 481.955 62.5719 481.336 62.5719 480.632ZM70.0728 485.128C69.2514 485.128 68.5101 484.947 67.8488 484.584C67.1981 484.211 66.6808 483.688 66.2968 483.016C65.9234 482.333 65.7368 481.539 65.7368 480.632C65.7368 479.725 65.9288 478.936 66.3128 478.264C66.6968 477.581 67.2194 477.059 67.8808 476.696C68.5421 476.323 69.2834 476.136 70.1048 476.136C70.9261 476.136 71.6674 476.323 72.3288 476.696C73.0008 477.059 73.5234 477.581 73.8968 478.264C74.2808 478.936 74.4728 479.725 74.4728 480.632C74.4728 481.528 74.2808 482.317 73.8968 483C73.5128 483.683 72.9848 484.211 72.3128 484.584C71.6408 484.947 70.8941 485.128 70.0728 485.128ZM70.0728 484.152C70.6488 484.152 71.1821 484.024 71.6728 483.768C72.1634 483.501 72.5581 483.107 72.8568 482.584C73.1661 482.051 73.3208 481.4 73.3208 480.632C73.3208 479.864 73.1714 479.219 72.8728 478.696C72.5741 478.163 72.1794 477.768 71.6888 477.512C71.1981 477.245 70.6648 477.112 70.0888 477.112C69.5128 477.112 68.9794 477.245 68.4888 477.512C67.9981 477.768 67.6034 478.163 67.3048 478.696C67.0168 479.219 66.8728 479.864 66.8728 480.632C66.8728 481.4 67.0168 482.051 67.3048 482.584C67.6034 483.107 67.9928 483.501 68.4728 483.768C68.9634 484.024 69.4968 484.152 70.0728 484.152ZM81.9384 478.6V479.544H75.7144V478.6H81.9384ZM86.2673 477.208V482.632C86.2673 483.165 86.3686 483.533 86.5713 483.736C86.7739 483.939 87.1313 484.04 87.6432 484.04H88.6673V485H87.4673C86.6779 485 86.0913 484.819 85.7073 484.456C85.3233 484.083 85.1313 483.475 85.1313 482.632V477.208H83.9153V476.264H85.1313V474.072H86.2673V476.264H88.6673V477.208H86.2673ZM94.3384 485.128C93.517 485.128 92.7757 484.947 92.1144 484.584C91.4637 484.211 90.9464 483.688 90.5624 483.016C90.189 482.333 90.0024 481.539 90.0024 480.632C90.0024 479.725 90.1944 478.936 90.5784 478.264C90.9624 477.581 91.485 477.059 92.1464 476.696C92.8077 476.323 93.549 476.136 94.3704 476.136C95.1917 476.136 95.933 476.323 96.5944 476.696C97.2664 477.059 97.789 477.581 98.1624 478.264C98.5464 478.936 98.7384 479.725 98.7384 480.632C98.7384 481.528 98.5464 482.317 98.1624 483C97.7784 483.683 97.2504 484.211 96.5784 484.584C95.9064 484.947 95.1597 485.128 94.3384 485.128ZM94.3384 484.152C94.9144 484.152 95.4477 484.024 95.9384 483.768C96.429 483.501 96.8237 483.107 97.1224 482.584C97.4317 482.051 97.5864 481.4 97.5864 480.632C97.5864 479.864 97.437 479.219 97.1384 478.696C96.8397 478.163 96.445 477.768 95.9544 477.512C95.4637 477.245 94.9304 477.112 94.3544 477.112C93.7784 477.112 93.245 477.245 92.7544 477.512C92.2637 477.768 91.869 478.163 91.5704 478.696C91.2824 479.219 91.1384 479.864 91.1384 480.632C91.1384 481.4 91.2824 482.051 91.5704 482.584C91.869 483.107 92.2584 483.501 92.7384 483.768C93.229 484.024 93.7624 484.152 94.3384 484.152ZM104.659 480.616C104.659 479.72 104.84 478.936 105.203 478.264C105.565 477.581 106.061 477.059 106.691 476.696C107.331 476.323 108.051 476.136 108.851 476.136C109.619 476.136 110.312 476.323 110.931 476.696C111.549 477.069 112.003 477.555 112.291 478.152V473.16H113.411V485H112.291V483.048C112.024 483.656 111.587 484.157 110.979 484.552C110.371 484.936 109.656 485.128 108.835 485.128C108.035 485.128 107.315 484.941 106.675 484.568C106.045 484.195 105.549 483.667 105.187 482.984C104.835 482.301 104.659 481.512 104.659 480.616ZM112.291 480.632C112.291 479.928 112.147 479.309 111.859 478.776C111.571 478.243 111.176 477.832 110.675 477.544C110.184 477.256 109.64 477.112 109.043 477.112C108.424 477.112 107.869 477.251 107.379 477.528C106.888 477.805 106.499 478.211 106.211 478.744C105.933 479.267 105.795 479.891 105.795 480.616C105.795 481.331 105.933 481.96 106.211 482.504C106.499 483.037 106.888 483.448 107.379 483.736C107.869 484.013 108.424 484.152 109.043 484.152C109.64 484.152 110.184 484.008 110.675 483.72C111.176 483.432 111.571 483.021 111.859 482.488C112.147 481.955 112.291 481.336 112.291 480.632ZM123.872 480.184C123.872 480.568 123.861 480.861 123.84 481.064H116.592C116.624 481.725 116.784 482.291 117.072 482.76C117.36 483.229 117.738 483.587 118.208 483.832C118.677 484.067 119.189 484.184 119.744 484.184C120.469 484.184 121.077 484.008 121.568 483.656C122.069 483.304 122.4 482.829 122.56 482.232H123.744C123.53 483.085 123.072 483.784 122.368 484.328C121.674 484.861 120.8 485.128 119.744 485.128C118.922 485.128 118.186 484.947 117.536 484.584C116.885 484.211 116.373 483.688 116 483.016C115.637 482.333 115.456 481.539 115.456 480.632C115.456 479.725 115.637 478.931 116 478.248C116.362 477.565 116.869 477.043 117.52 476.68C118.17 476.317 118.912 476.136 119.744 476.136C120.576 476.136 121.301 476.317 121.92 476.68C122.549 477.043 123.029 477.533 123.36 478.152C123.701 478.76 123.872 479.437 123.872 480.184ZM122.736 480.152C122.746 479.501 122.613 478.947 122.336 478.488C122.069 478.029 121.701 477.683 121.232 477.448C120.762 477.213 120.25 477.096 119.696 477.096C118.864 477.096 118.154 477.363 117.568 477.896C116.981 478.429 116.656 479.181 116.592 480.152H122.736ZM128.929 485.128C127.926 485.128 127.105 484.899 126.465 484.44C125.835 483.971 125.483 483.336 125.409 482.536H126.561C126.614 483.027 126.843 483.427 127.249 483.736C127.665 484.035 128.219 484.184 128.913 484.184C129.521 484.184 129.995 484.04 130.337 483.752C130.689 483.464 130.865 483.107 130.865 482.68C130.865 482.381 130.769 482.136 130.577 481.944C130.385 481.752 130.139 481.603 129.841 481.496C129.553 481.379 129.158 481.256 128.657 481.128C128.006 480.957 127.478 480.787 127.073 480.616C126.667 480.445 126.321 480.195 126.033 479.864C125.755 479.523 125.617 479.069 125.617 478.504C125.617 478.077 125.745 477.683 126.001 477.32C126.257 476.957 126.619 476.669 127.089 476.456C127.558 476.243 128.091 476.136 128.689 476.136C129.627 476.136 130.385 476.376 130.961 476.856C131.537 477.325 131.846 477.976 131.889 478.808H130.769C130.737 478.296 130.534 477.885 130.161 477.576C129.798 477.256 129.297 477.096 128.657 477.096C128.091 477.096 127.633 477.229 127.281 477.496C126.929 477.763 126.753 478.093 126.753 478.488C126.753 478.829 126.854 479.112 127.057 479.336C127.27 479.549 127.531 479.72 127.841 479.848C128.15 479.965 128.566 480.099 129.089 480.248C129.718 480.419 130.219 480.584 130.593 480.744C130.966 480.904 131.286 481.139 131.553 481.448C131.819 481.757 131.958 482.168 131.969 482.68C131.969 483.149 131.841 483.571 131.585 483.944C131.329 484.307 130.971 484.595 130.513 484.808C130.054 485.021 129.526 485.128 128.929 485.128ZM135.533 477.208V482.632C135.533 483.165 135.634 483.533 135.837 483.736C136.04 483.939 136.397 484.04 136.909 484.04H137.933V485H136.733C135.944 485 135.357 484.819 134.973 484.456C134.589 484.083 134.397 483.475 134.397 482.632V477.208H133.181V476.264H134.397V474.072H135.533V476.264H137.933V477.208H135.533ZM140.34 474.616C140.116 474.616 139.924 474.536 139.764 474.376C139.604 474.216 139.524 474.019 139.524 473.784C139.524 473.549 139.604 473.357 139.764 473.208C139.924 473.048 140.116 472.968 140.34 472.968C140.564 472.968 140.756 473.048 140.916 473.208C141.076 473.357 141.156 473.549 141.156 473.784C141.156 474.019 141.076 474.216 140.916 474.376C140.756 474.536 140.564 474.616 140.34 474.616ZM140.9 476.264V485H139.78V476.264H140.9ZM147.532 476.104C148.578 476.104 149.431 476.429 150.092 477.08C150.754 477.72 151.084 478.653 151.084 479.88V485H149.98V480.008C149.98 479.059 149.74 478.333 149.26 477.832C148.791 477.331 148.146 477.08 147.324 477.08C146.482 477.08 145.81 477.347 145.308 477.88C144.807 478.413 144.556 479.197 144.556 480.232V485H143.436V476.264H144.556V477.752C144.834 477.219 145.234 476.813 145.756 476.536C146.279 476.248 146.871 476.104 147.532 476.104ZM153.049 480.616C153.049 479.72 153.225 478.936 153.577 478.264C153.94 477.581 154.436 477.059 155.065 476.696C155.705 476.323 156.425 476.136 157.225 476.136C158.057 476.136 158.772 476.328 159.369 476.712C159.977 477.096 160.415 477.587 160.681 478.184V476.264H161.801V485H160.681V483.064C160.404 483.661 159.961 484.157 159.353 484.552C158.756 484.936 158.041 485.128 157.209 485.128C156.42 485.128 155.705 484.941 155.065 484.568C154.436 484.195 153.94 483.667 153.577 482.984C153.225 482.301 153.049 481.512 153.049 480.616ZM160.681 480.632C160.681 479.928 160.537 479.309 160.249 478.776C159.961 478.243 159.567 477.832 159.065 477.544C158.575 477.256 158.031 477.112 157.433 477.112C156.815 477.112 156.26 477.251 155.769 477.528C155.279 477.805 154.889 478.211 154.601 478.744C154.324 479.267 154.185 479.891 154.185 480.616C154.185 481.331 154.324 481.96 154.601 482.504C154.889 483.037 155.279 483.448 155.769 483.736C156.26 484.013 156.815 484.152 157.433 484.152C158.031 484.152 158.575 484.008 159.065 483.72C159.567 483.432 159.961 483.021 160.249 482.488C160.537 481.955 160.681 481.336 160.681 480.632ZM165.814 477.208V482.632C165.814 483.165 165.915 483.533 166.118 483.736C166.321 483.939 166.678 484.04 167.19 484.04H168.214V485H167.014C166.225 485 165.638 484.819 165.254 484.456C164.87 484.083 164.678 483.475 164.678 482.632V477.208H163.462V476.264H164.678V474.072H165.814V476.264H168.214V477.208H165.814ZM170.621 474.616C170.397 474.616 170.205 474.536 170.045 474.376C169.885 474.216 169.805 474.019 169.805 473.784C169.805 473.549 169.885 473.357 170.045 473.208C170.205 473.048 170.397 472.968 170.621 472.968C170.845 472.968 171.037 473.048 171.197 473.208C171.357 473.357 171.437 473.549 171.437 473.784C171.437 474.019 171.357 474.216 171.197 474.376C171.037 474.536 170.845 474.616 170.621 474.616ZM171.181 476.264V485H170.061V476.264H171.181ZM177.542 485.128C176.72 485.128 175.979 484.947 175.318 484.584C174.667 484.211 174.15 483.688 173.766 483.016C173.392 482.333 173.206 481.539 173.206 480.632C173.206 479.725 173.398 478.936 173.782 478.264C174.166 477.581 174.688 477.059 175.35 476.696C176.011 476.323 176.752 476.136 177.574 476.136C178.395 476.136 179.136 476.323 179.798 476.696C180.47 477.059 180.992 477.581 181.366 478.264C181.75 478.936 181.942 479.725 181.942 480.632C181.942 481.528 181.75 482.317 181.366 483C180.982 483.683 180.454 484.211 179.782 484.584C179.11 484.947 178.363 485.128 177.542 485.128ZM177.542 484.152C178.118 484.152 178.651 484.024 179.142 483.768C179.632 483.501 180.027 483.107 180.326 482.584C180.635 482.051 180.79 481.4 180.79 480.632C180.79 479.864 180.64 479.219 180.342 478.696C180.043 478.163 179.648 477.768 179.158 477.512C178.667 477.245 178.134 477.112 177.558 477.112C176.982 477.112 176.448 477.245 175.958 477.512C175.467 477.768 175.072 478.163 174.774 478.696C174.486 479.219 174.342 479.864 174.342 480.632C174.342 481.4 174.486 482.051 174.774 482.584C175.072 483.107 175.462 483.501 175.942 483.768C176.432 484.024 176.966 484.152 177.542 484.152ZM188.079 476.104C189.124 476.104 189.978 476.429 190.639 477.08C191.3 477.72 191.631 478.653 191.631 479.88V485H190.527V480.008C190.527 479.059 190.287 478.333 189.807 477.832C189.338 477.331 188.692 477.08 187.871 477.08C187.028 477.08 186.356 477.347 185.855 477.88C185.354 478.413 185.103 479.197 185.103 480.232V485H183.983V476.264H185.103V477.752C185.38 477.219 185.78 476.813 186.303 476.536C186.826 476.248 187.418 476.104 188.079 476.104ZM201.939 477.208H199.907V485H198.787V477.208H197.571V476.264H198.787V475.656C198.787 474.707 199.027 474.008 199.507 473.56C199.997 473.112 200.787 472.888 201.875 472.888V473.848C201.149 473.848 200.637 473.987 200.339 474.264C200.051 474.541 199.907 475.005 199.907 475.656V476.264H201.939V477.208ZM207.526 485.128C206.705 485.128 205.963 484.947 205.302 484.584C204.651 484.211 204.134 483.688 203.75 483.016C203.377 482.333 203.19 481.539 203.19 480.632C203.19 479.725 203.382 478.936 203.766 478.264C204.15 477.581 204.673 477.059 205.334 476.696C205.995 476.323 206.737 476.136 207.558 476.136C208.379 476.136 209.121 476.323 209.782 476.696C210.454 477.059 210.977 477.581 211.35 478.264C211.734 478.936 211.926 479.725 211.926 480.632C211.926 481.528 211.734 482.317 211.35 483C210.966 483.683 210.438 484.211 209.766 484.584C209.094 484.947 208.347 485.128 207.526 485.128ZM207.526 484.152C208.102 484.152 208.635 484.024 209.126 483.768C209.617 483.501 210.011 483.107 210.31 482.584C210.619 482.051 210.774 481.4 210.774 480.632C210.774 479.864 210.625 479.219 210.326 478.696C210.027 478.163 209.633 477.768 209.142 477.512C208.651 477.245 208.118 477.112 207.542 477.112C206.966 477.112 206.433 477.245 205.942 477.512C205.451 477.768 205.057 478.163 204.758 478.696C204.47 479.219 204.326 479.864 204.326 480.632C204.326 481.4 204.47 482.051 204.758 482.584C205.057 483.107 205.446 483.501 205.926 483.768C206.417 484.024 206.95 484.152 207.526 484.152ZM215.088 477.816C215.333 477.272 215.706 476.851 216.208 476.552C216.72 476.253 217.344 476.104 218.08 476.104V477.272H217.776C216.965 477.272 216.314 477.491 215.824 477.928C215.333 478.365 215.088 479.096 215.088 480.12V485H213.968V476.264H215.088V477.816ZM227.979 485.128C227.158 485.128 226.416 484.947 225.755 484.584C225.104 484.211 224.587 483.688 224.203 483.016C223.83 482.333 223.643 481.539 223.643 480.632C223.643 479.725 223.835 478.936 224.219 478.264C224.603 477.581 225.126 477.059 225.787 476.696C226.448 476.323 227.19 476.136 228.011 476.136C228.832 476.136 229.574 476.323 230.235 476.696C230.907 477.059 231.43 477.581 231.803 478.264C232.187 478.936 232.379 479.725 232.379 480.632C232.379 481.528 232.187 482.317 231.803 483C231.419 483.683 230.891 484.211 230.219 484.584C229.547 484.947 228.8 485.128 227.979 485.128ZM227.979 484.152C228.555 484.152 229.088 484.024 229.579 483.768C230.07 483.501 230.464 483.107 230.763 482.584C231.072 482.051 231.227 481.4 231.227 480.632C231.227 479.864 231.078 479.219 230.779 478.696C230.48 478.163 230.086 477.768 229.595 477.512C229.104 477.245 228.571 477.112 227.995 477.112C227.419 477.112 226.886 477.245 226.395 477.512C225.904 477.768 225.51 478.163 225.211 478.696C224.923 479.219 224.779 479.864 224.779 480.632C224.779 481.4 224.923 482.051 225.211 482.584C225.51 483.107 225.899 483.501 226.379 483.768C226.87 484.024 227.403 484.152 227.979 484.152ZM238.517 476.104C239.562 476.104 240.415 476.429 241.077 477.08C241.738 477.72 242.069 478.653 242.069 479.88V485H240.965V480.008C240.965 479.059 240.725 478.333 240.245 477.832C239.775 477.331 239.13 477.08 238.309 477.08C237.466 477.08 236.794 477.347 236.293 477.88C235.791 478.413 235.541 479.197 235.541 480.232V485H234.421V476.264H235.541V477.752C235.818 477.219 236.218 476.813 236.741 476.536C237.263 476.248 237.855 476.104 238.517 476.104ZM245.666 473.16V485H244.546V473.16H245.666ZM248.762 474.616C248.538 474.616 248.346 474.536 248.186 474.376C248.026 474.216 247.946 474.019 247.946 473.784C247.946 473.549 248.026 473.357 248.186 473.208C248.346 473.048 248.538 472.968 248.762 472.968C248.986 472.968 249.178 473.048 249.338 473.208C249.498 473.357 249.578 473.549 249.578 473.784C249.578 474.019 249.498 474.216 249.338 474.376C249.178 474.536 248.986 474.616 248.762 474.616ZM249.322 476.264V485H248.202V476.264H249.322ZM255.954 476.104C256.999 476.104 257.853 476.429 258.514 477.08C259.175 477.72 259.506 478.653 259.506 479.88V485H258.402V480.008C258.402 479.059 258.162 478.333 257.682 477.832C257.213 477.331 256.567 477.08 255.746 477.08C254.903 477.08 254.231 477.347 253.73 477.88C253.229 478.413 252.978 479.197 252.978 480.232V485H251.858V476.264H252.978V477.752C253.255 477.219 253.655 476.813 254.178 476.536C254.701 476.248 255.293 476.104 255.954 476.104ZM269.887 480.184C269.887 480.568 269.876 480.861 269.855 481.064H262.607C262.639 481.725 262.799 482.291 263.087 482.76C263.375 483.229 263.754 483.587 264.223 483.832C264.692 484.067 265.204 484.184 265.759 484.184C266.484 484.184 267.092 484.008 267.583 483.656C268.084 483.304 268.415 482.829 268.575 482.232H269.759C269.546 483.085 269.087 483.784 268.383 484.328C267.69 484.861 266.815 485.128 265.759 485.128C264.938 485.128 264.202 484.947 263.551 484.584C262.9 484.211 262.388 483.688 262.015 483.016C261.652 482.333 261.471 481.539 261.471 480.632C261.471 479.725 261.652 478.931 262.015 478.248C262.378 477.565 262.884 477.043 263.535 476.68C264.186 476.317 264.927 476.136 265.759 476.136C266.591 476.136 267.316 476.317 267.935 476.68C268.564 477.043 269.044 477.533 269.375 478.152C269.716 478.76 269.887 479.437 269.887 480.184ZM268.751 480.152C268.762 479.501 268.628 478.947 268.351 478.488C268.084 478.029 267.716 477.683 267.247 477.448C266.778 477.213 266.266 477.096 265.711 477.096C264.879 477.096 264.17 477.363 263.583 477.896C262.996 478.429 262.671 479.181 262.607 480.152H268.751ZM277.447 473.16V485H276.327V473.16H277.447ZM287.887 480.184C287.887 480.568 287.876 480.861 287.855 481.064H280.607C280.639 481.725 280.799 482.291 281.087 482.76C281.375 483.229 281.754 483.587 282.223 483.832C282.692 484.067 283.204 484.184 283.759 484.184C284.484 484.184 285.092 484.008 285.583 483.656C286.084 483.304 286.415 482.829 286.575 482.232H287.759C287.546 483.085 287.087 483.784 286.383 484.328C285.69 484.861 284.815 485.128 283.759 485.128C282.938 485.128 282.202 484.947 281.551 484.584C280.9 484.211 280.388 483.688 280.015 483.016C279.652 482.333 279.471 481.539 279.471 480.632C279.471 479.725 279.652 478.931 280.015 478.248C280.378 477.565 280.884 477.043 281.535 476.68C282.186 476.317 282.927 476.136 283.759 476.136C284.591 476.136 285.316 476.317 285.935 476.68C286.564 477.043 287.044 477.533 287.375 478.152C287.716 478.76 287.887 479.437 287.887 480.184ZM286.751 480.152C286.762 479.501 286.628 478.947 286.351 478.488C286.084 478.029 285.716 477.683 285.247 477.448C284.778 477.213 284.266 477.096 283.711 477.096C282.879 477.096 282.17 477.363 281.583 477.896C280.996 478.429 280.671 479.181 280.607 480.152H286.751ZM289.424 480.616C289.424 479.72 289.6 478.936 289.952 478.264C290.315 477.581 290.811 477.059 291.44 476.696C292.08 476.323 292.8 476.136 293.6 476.136C294.432 476.136 295.147 476.328 295.744 476.712C296.352 477.096 296.79 477.587 297.056 478.184V476.264H298.176V485H297.056V483.064C296.779 483.661 296.336 484.157 295.728 484.552C295.131 484.936 294.416 485.128 293.584 485.128C292.795 485.128 292.08 484.941 291.44 484.568C290.811 484.195 290.315 483.667 289.952 482.984C289.6 482.301 289.424 481.512 289.424 480.616ZM297.056 480.632C297.056 479.928 296.912 479.309 296.624 478.776C296.336 478.243 295.942 477.832 295.44 477.544C294.95 477.256 294.406 477.112 293.808 477.112C293.19 477.112 292.635 477.251 292.144 477.528C291.654 477.805 291.264 478.211 290.976 478.744C290.699 479.267 290.56 479.891 290.56 480.616C290.56 481.331 290.699 481.96 290.976 482.504C291.264 483.037 291.654 483.448 292.144 483.736C292.635 484.013 293.19 484.152 293.808 484.152C294.406 484.152 294.95 484.008 295.44 483.72C295.942 483.432 296.336 483.021 296.624 482.488C296.912 481.955 297.056 481.336 297.056 480.632ZM301.853 477.816C302.098 477.272 302.472 476.851 302.973 476.552C303.485 476.253 304.109 476.104 304.845 476.104V477.272H304.541C303.73 477.272 303.08 477.491 302.589 477.928C302.098 478.365 301.853 479.096 301.853 480.12V485H300.733V476.264H301.853V477.816ZM310.626 476.104C311.671 476.104 312.525 476.429 313.186 477.08C313.847 477.72 314.178 478.653 314.178 479.88V485H313.074V480.008C313.074 479.059 312.834 478.333 312.354 477.832C311.885 477.331 311.239 477.08 310.418 477.08C309.575 477.08 308.903 477.347 308.402 477.88C307.901 478.413 307.65 479.197 307.65 480.232V485H306.53V476.264H307.65V477.752C307.927 477.219 308.327 476.813 308.85 476.536C309.373 476.248 309.965 476.104 310.626 476.104ZM317.215 474.616C316.991 474.616 316.799 474.536 316.639 474.376C316.479 474.216 316.399 474.019 316.399 473.784C316.399 473.549 316.479 473.357 316.639 473.208C316.799 473.048 316.991 472.968 317.215 472.968C317.439 472.968 317.631 473.048 317.791 473.208C317.951 473.357 318.031 473.549 318.031 473.784C318.031 474.019 317.951 474.216 317.791 474.376C317.631 474.536 317.439 474.616 317.215 474.616ZM317.775 476.264V485H316.655V476.264H317.775ZM324.407 476.104C325.453 476.104 326.306 476.429 326.967 477.08C327.629 477.72 327.959 478.653 327.959 479.88V485H326.855V480.008C326.855 479.059 326.615 478.333 326.135 477.832C325.666 477.331 325.021 477.08 324.199 477.08C323.357 477.08 322.685 477.347 322.183 477.88C321.682 478.413 321.431 479.197 321.431 480.232V485H320.311V476.264H321.431V477.752C321.709 477.219 322.109 476.813 322.631 476.536C323.154 476.248 323.746 476.104 324.407 476.104ZM334.1 476.136C334.922 476.136 335.636 476.328 336.244 476.712C336.852 477.096 337.29 477.581 337.556 478.168V476.264H338.676V485.224C338.676 486.024 338.5 486.733 338.148 487.352C337.807 487.971 337.327 488.445 336.708 488.776C336.09 489.117 335.386 489.288 334.596 489.288C333.476 489.288 332.543 489.021 331.796 488.488C331.06 487.955 330.602 487.229 330.42 486.312H331.524C331.716 486.92 332.079 487.405 332.612 487.768C333.156 488.131 333.818 488.312 334.596 488.312C335.162 488.312 335.668 488.189 336.116 487.944C336.564 487.709 336.916 487.357 337.172 486.888C337.428 486.419 337.556 485.864 337.556 485.224V483.064C337.279 483.661 336.836 484.157 336.228 484.552C335.631 484.936 334.922 485.128 334.1 485.128C333.3 485.128 332.58 484.941 331.94 484.568C331.311 484.195 330.815 483.667 330.452 482.984C330.1 482.301 329.924 481.512 329.924 480.616C329.924 479.72 330.1 478.936 330.452 478.264C330.815 477.581 331.311 477.059 331.94 476.696C332.58 476.323 333.3 476.136 334.1 476.136ZM337.556 480.632C337.556 479.928 337.412 479.309 337.124 478.776C336.836 478.243 336.442 477.832 335.94 477.544C335.45 477.256 334.906 477.112 334.308 477.112C333.69 477.112 333.135 477.251 332.644 477.528C332.154 477.805 331.764 478.211 331.476 478.744C331.199 479.267 331.06 479.891 331.06 480.616C331.06 481.331 331.199 481.96 331.476 482.504C331.764 483.037 332.154 483.448 332.644 483.736C333.135 484.013 333.69 484.152 334.308 484.152C334.906 484.152 335.45 484.008 335.94 483.72C336.442 483.432 336.836 483.021 337.124 482.488C337.412 481.955 337.556 481.336 337.556 480.632ZM342.257 483.144L340.593 487.336H339.825L341.009 483.144H342.257ZM25.92 498.616C25.696 498.616 25.504 498.536 25.344 498.376C25.184 498.216 25.104 498.019 25.104 497.784C25.104 497.549 25.184 497.357 25.344 497.208C25.504 497.048 25.696 496.968 25.92 496.968C26.144 496.968 26.3307 497.048 26.48 497.208C26.64 497.357 26.72 497.549 26.72 497.784C26.72 498.019 26.64 498.216 26.48 498.376C26.3307 498.536 26.144 498.616 25.92 498.616ZM26.464 511.064C26.464 511.768 26.288 512.285 25.936 512.616C25.584 512.957 25.056 513.128 24.352 513.128H23.568V512.168H24.176C24.592 512.168 24.8907 512.077 25.072 511.896C25.2533 511.725 25.344 511.432 25.344 511.016V500.264H26.464V511.064ZM36.598 500.264V509H35.478V507.464C35.222 508.008 34.8273 508.424 34.294 508.712C33.7607 509 33.1633 509.144 32.502 509.144C31.4567 509.144 30.6033 508.824 29.942 508.184C29.2807 507.533 28.95 506.595 28.95 505.368V500.264H30.054V505.24C30.054 506.189 30.2887 506.915 30.758 507.416C31.238 507.917 31.8887 508.168 32.71 508.168C33.5527 508.168 34.2247 507.901 34.726 507.368C35.2273 506.835 35.478 506.051 35.478 505.016V500.264H36.598ZM42.163 509.128C41.1603 509.128 40.339 508.899 39.699 508.44C39.0697 507.971 38.7177 507.336 38.643 506.536H39.795C39.8483 507.027 40.0777 507.427 40.483 507.736C40.899 508.035 41.4537 508.184 42.147 508.184C42.755 508.184 43.2297 508.04 43.571 507.752C43.923 507.464 44.099 507.107 44.099 506.68C44.099 506.381 44.003 506.136 43.811 505.944C43.619 505.752 43.3737 505.603 43.075 505.496C42.787 505.379 42.3923 505.256 41.891 505.128C41.2403 504.957 40.7123 504.787 40.307 504.616C39.9017 504.445 39.555 504.195 39.267 503.864C38.9897 503.523 38.851 503.069 38.851 502.504C38.851 502.077 38.979 501.683 39.235 501.32C39.491 500.957 39.8537 500.669 40.323 500.456C40.7923 500.243 41.3257 500.136 41.923 500.136C42.8617 500.136 43.619 500.376 44.195 500.856C44.771 501.325 45.0803 501.976 45.123 502.808H44.003C43.971 502.296 43.7683 501.885 43.395 501.576C43.0323 501.256 42.531 501.096 41.891 501.096C41.3257 501.096 40.867 501.229 40.515 501.496C40.163 501.763 39.987 502.093 39.987 502.488C39.987 502.829 40.0883 503.112 40.291 503.336C40.5043 503.549 40.7657 503.72 41.075 503.848C41.3843 503.965 41.8003 504.099 42.323 504.248C42.9523 504.419 43.4537 504.584 43.827 504.744C44.2003 504.904 44.5203 505.139 44.787 505.448C45.0537 505.757 45.1923 506.168 45.203 506.68C45.203 507.149 45.075 507.571 44.819 507.944C44.563 508.307 44.2057 508.595 43.747 508.808C43.2883 509.021 42.7603 509.128 42.163 509.128ZM48.7673 501.208V506.632C48.7673 507.165 48.8686 507.533 49.0713 507.736C49.2739 507.939 49.6313 508.04 50.1432 508.04H51.1673V509H49.9673C49.1779 509 48.5913 508.819 48.2073 508.456C47.8233 508.083 47.6313 507.475 47.6313 506.632V501.208H46.4153V500.264H47.6313V498.072H48.7673V500.264H51.1673V501.208H48.7673ZM58.525 497.16V509H57.405V497.16H58.525ZM61.6213 498.616C61.3973 498.616 61.2053 498.536 61.0453 498.376C60.8853 498.216 60.8053 498.019 60.8053 497.784C60.8053 497.549 60.8853 497.357 61.0453 497.208C61.2053 497.048 61.3973 496.968 61.6213 496.968C61.8453 496.968 62.0373 497.048 62.1973 497.208C62.3573 497.357 62.4373 497.549 62.4373 497.784C62.4373 498.019 62.3573 498.216 62.1973 498.376C62.0373 498.536 61.8453 498.616 61.6213 498.616ZM62.1813 500.264V509H61.0613V500.264H62.1813ZM69.4375 509L65.8375 505.08V509H64.7175V497.16H65.8375V504.168L69.3575 500.264H70.9255L66.7815 504.616L70.9575 509H69.4375ZM80.309 504.184C80.309 504.568 80.2983 504.861 80.277 505.064H73.029C73.061 505.725 73.221 506.291 73.509 506.76C73.797 507.229 74.1757 507.587 74.645 507.832C75.1143 508.067 75.6263 508.184 76.181 508.184C76.9063 508.184 77.5143 508.008 78.005 507.656C78.5063 507.304 78.837 506.829 78.997 506.232H80.181C79.9677 507.085 79.509 507.784 78.805 508.328C78.1117 508.861 77.237 509.128 76.181 509.128C75.3597 509.128 74.6237 508.947 73.973 508.584C73.3223 508.211 72.8103 507.688 72.437 507.016C72.0743 506.333 71.893 505.539 71.893 504.632C71.893 503.725 72.0743 502.931 72.437 502.248C72.7997 501.565 73.3063 501.043 73.957 500.68C74.6077 500.317 75.349 500.136 76.181 500.136C77.013 500.136 77.7383 500.317 78.357 500.68C78.9863 501.043 79.4663 501.533 79.797 502.152C80.1383 502.76 80.309 503.437 80.309 504.184ZM79.173 504.152C79.1837 503.501 79.0503 502.947 78.773 502.488C78.5063 502.029 78.1383 501.683 77.669 501.448C77.1997 501.213 76.6877 501.096 76.133 501.096C75.301 501.096 74.5917 501.363 74.005 501.896C73.4183 502.429 73.093 503.181 73.029 504.152H79.173ZM87.8207 497.816V504.856C87.8207 505.965 88.0821 506.787 88.6048 507.32C89.1381 507.853 89.8634 508.12 90.7808 508.12C91.6981 508.12 92.4128 507.859 92.9248 507.336C93.4474 506.803 93.7088 505.976 93.7088 504.856V497.816H94.8288V504.84C94.8288 506.259 94.4501 507.325 93.6927 508.04C92.9461 508.755 91.9701 509.112 90.7648 509.112C89.5594 509.112 88.5781 508.755 87.8207 508.04C87.0741 507.325 86.7008 506.259 86.7008 504.84V497.816H87.8207ZM96.8149 504.616C96.8149 503.72 96.9962 502.936 97.3589 502.264C97.7215 501.581 98.2175 501.059 98.8469 500.696C99.4869 500.323 100.207 500.136 101.007 500.136C101.775 500.136 102.468 500.323 103.087 500.696C103.706 501.069 104.159 501.555 104.447 502.152V497.16H105.567V509H104.447V507.048C104.18 507.656 103.743 508.157 103.135 508.552C102.527 508.936 101.812 509.128 100.991 509.128C100.191 509.128 99.4709 508.941 98.8309 508.568C98.2015 508.195 97.7055 507.667 97.3429 506.984C96.9909 506.301 96.8149 505.512 96.8149 504.616ZM104.447 504.632C104.447 503.928 104.303 503.309 104.015 502.776C103.727 502.243 103.332 501.832 102.831 501.544C102.34 501.256 101.796 501.112 101.199 501.112C100.58 501.112 100.026 501.251 99.5349 501.528C99.0442 501.805 98.6549 502.211 98.3669 502.744C98.0895 503.267 97.9509 503.891 97.9509 504.616C97.9509 505.331 98.0895 505.96 98.3669 506.504C98.6549 507.037 99.0442 507.448 99.5349 507.736C100.026 508.013 100.58 508.152 101.199 508.152C101.796 508.152 102.34 508.008 102.831 507.72C103.332 507.432 103.727 507.021 104.015 506.488C104.303 505.955 104.447 505.336 104.447 504.632ZM116.028 504.184C116.028 504.568 116.017 504.861 115.996 505.064H108.748C108.78 505.725 108.94 506.291 109.228 506.76C109.516 507.229 109.894 507.587 110.364 507.832C110.833 508.067 111.345 508.184 111.9 508.184C112.625 508.184 113.233 508.008 113.724 507.656C114.225 507.304 114.556 506.829 114.716 506.232H115.9C115.686 507.085 115.228 507.784 114.524 508.328C113.83 508.861 112.956 509.128 111.9 509.128C111.078 509.128 110.342 508.947 109.692 508.584C109.041 508.211 108.529 507.688 108.156 507.016C107.793 506.333 107.612 505.539 107.612 504.632C107.612 503.725 107.793 502.931 108.156 502.248C108.518 501.565 109.025 501.043 109.676 500.68C110.326 500.317 111.068 500.136 111.9 500.136C112.732 500.136 113.457 500.317 114.076 500.68C114.705 501.043 115.185 501.533 115.516 502.152C115.857 502.76 116.028 503.437 116.028 504.184ZM114.892 504.152C114.902 503.501 114.769 502.947 114.492 502.488C114.225 502.029 113.857 501.683 113.388 501.448C112.918 501.213 112.406 501.096 111.852 501.096C111.02 501.096 110.31 501.363 109.724 501.896C109.137 502.429 108.812 503.181 108.748 504.152H114.892ZM128.477 500.104C129.501 500.104 130.333 500.429 130.973 501.08C131.624 501.72 131.949 502.653 131.949 503.88V509H130.845V504.008C130.845 503.059 130.616 502.333 130.157 501.832C129.698 501.331 129.074 501.08 128.285 501.08C127.464 501.08 126.808 501.352 126.317 501.896C125.826 502.44 125.581 503.229 125.581 504.264V509H124.477V504.008C124.477 503.059 124.248 502.333 123.789 501.832C123.33 501.331 122.701 501.08 121.901 501.08C121.08 501.08 120.424 501.352 119.933 501.896C119.442 502.44 119.197 503.229 119.197 504.264V509H118.077V500.264H119.197V501.768C119.474 501.224 119.869 500.813 120.381 500.536C120.893 500.248 121.464 500.104 122.093 500.104C122.85 500.104 123.512 500.285 124.077 500.648C124.653 501.011 125.069 501.544 125.325 502.248C125.56 501.555 125.96 501.027 126.525 500.664C127.101 500.291 127.752 500.104 128.477 500.104ZM141.636 500.264L136.452 513.112H135.284L136.98 508.952L133.396 500.264H134.628L137.604 507.72L140.484 500.264H141.636ZM143.347 509.08C143.112 509.08 142.915 509 142.755 508.84C142.606 508.68 142.531 508.483 142.531 508.248C142.531 508.013 142.606 507.821 142.755 507.672C142.915 507.512 143.112 507.432 143.347 507.432C143.571 507.432 143.758 507.512 143.907 507.672C144.067 507.821 144.147 508.013 144.147 508.248C144.147 508.483 144.067 508.68 143.907 508.84C143.758 509 143.571 509.08 143.347 509.08Z" fill="#464646"/>
<defs>
<linearGradient id="paint0_linear_6399_6200" x1="0" y1="349" x2="382" y2="547" gradientUnits="userSpaceOnUse">
<stop stop-color="#A30404"/>
<stop offset="1" stop-color="#FE6161"/>
</linearGradient>
<linearGradient id="paint1_linear_6399_6200" x1="24" y1="397.5" x2="135.5" y2="395.5" gradientUnits="userSpaceOnUse">
<stop stop-color="#A40505"/>
<stop offset="1" stop-color="#FE6161"/>
</linearGradient>
</defs>
</svg>
