<svg width="45" height="44" viewBox="0 0 45 44" fill="none" xmlns="http://www.w3.org/2000/svg">
<g clip-path="url(#clip0_5536_3572)">
<path d="M12.5323 11.3222C12.074 10.1525 12.0923 8.81602 12.2958 7.59319C13.6969 8.01298 15.0127 8.67708 16.1825 9.55486C16.6958 9.94719 17.3687 10.0737 17.9957 9.88486C19.6046 9.40349 21.2755 9.16135 22.9548 9.16619C24.7167 9.16619 26.3905 9.42286 27.9103 9.88302C28.5373 10.0737 29.2102 9.94536 29.7217 9.55302C30.891 8.67544 32.2061 8.01134 33.6065 7.59136C33.81 8.81419 33.8265 10.1507 33.3718 11.3185C33.0968 12.0225 33.2343 12.8329 33.7532 13.4085C35.0805 14.8807 35.7882 16.5729 35.7882 18.3329C35.7882 22.2085 32.1765 26.009 26.3758 27.1659C24.9238 27.4555 24.3573 29.2834 25.4683 30.3302C26.1815 31.0012 26.6215 31.9472 26.6215 32.9995V38.4995C26.6215 38.9858 26.8147 39.4521 27.1585 39.7959C27.5023 40.1397 27.9686 40.3329 28.4548 40.3329C28.9411 40.3329 29.4074 40.1397 29.7512 39.7959C30.095 39.4521 30.2882 38.9858 30.2882 38.4995V32.9995C30.2882 31.9545 30.0682 30.9609 29.6758 30.0607C35.207 28.1412 39.4548 23.82 39.4548 18.3329C39.4548 15.8634 38.5675 13.5937 37.0953 11.6925C37.4803 10.1892 37.4455 8.67486 37.2988 7.51252C37.1687 6.47119 36.9872 5.10719 36.2538 4.29319C35.163 3.08502 33.3572 3.79636 32.0739 4.23452C30.6972 4.70035 29.3874 5.34444 28.178 6.15036C26.4712 5.71478 24.7163 5.49611 22.9548 5.49952C21.1325 5.49952 19.3743 5.72869 17.728 6.15219C16.5186 5.34625 15.2089 4.70217 13.8322 4.23636C12.5488 3.79636 10.7412 3.08502 9.65035 4.29319C8.90235 5.12186 8.74651 6.37769 8.61268 7.44469L8.60351 7.51436C8.45685 8.67852 8.42385 10.1947 8.80885 11.6999C7.34218 13.5992 6.45485 15.8652 6.45485 18.3329C6.45485 23.8182 10.7027 28.1412 16.2338 30.0607C15.8335 30.9761 15.6251 31.9638 15.6215 32.9629L15.3135 33.0252C13.999 33.2067 13.1575 33.0435 12.5855 32.8015C11.1922 32.2112 10.4735 30.7244 9.59718 29.5877C9.05085 28.8819 8.25518 28 7.03418 27.593C6.8057 27.5169 6.56448 27.4866 6.32428 27.5038C6.08408 27.5209 5.8496 27.5852 5.63425 27.693C5.19932 27.9106 4.86866 28.2921 4.71501 28.7535C4.56137 29.215 4.59731 29.7185 4.81495 30.1535C5.03259 30.5884 5.41408 30.919 5.87551 31.0727C6.89851 31.4137 7.60618 33.1664 8.25518 33.9437C8.93901 34.765 9.84835 35.623 11.1518 36.1767C12.4022 36.7084 13.8707 36.8972 15.6215 36.6827V38.4995C15.6215 38.9858 15.8147 39.4521 16.1585 39.7959C16.5023 40.1397 16.9686 40.3329 17.4548 40.3329C17.9411 40.3329 18.4074 40.1397 18.7512 39.7959C19.095 39.4521 19.2882 38.9858 19.2882 38.4995V32.9995C19.2882 31.9472 19.7282 31.0012 20.4413 30.3302C21.5542 29.2815 20.9858 27.4555 19.5338 27.1659C13.7313 26.009 10.1215 22.2085 10.1215 18.3329C10.1215 16.5765 10.8273 14.8844 12.1528 13.4122C12.6717 12.8365 12.8073 12.0262 12.5323 11.3222Z" fill="#6698fa"/>
</g>
<defs>
<clipPath id="clip0_5536_3572">
<rect width="44" height="44" fill="#6698fa" transform="translate(0.953125)"/>
</clipPath>
</defs>
</svg>
