<svg width="81" height="80" viewBox="0 0 81 80" fill="none" xmlns="http://www.w3.org/2000/svg">
<g clip-path="url(#clip0_5235_3166)">
<path d="M0.824219 0H80.8242V80H0.824219V0Z" fill="#F7DF1E"/>
<path d="M21.8595 66.8546L27.9817 63.1496C29.1627 65.2437 30.2372 67.0155 32.8143 67.0155C35.2846 67.0155 36.8421 66.0492 36.8421 62.2904V36.7285H44.3601V62.3967C44.3601 70.1834 39.7958 73.7276 33.1366 73.7276C27.1225 73.7276 23.6314 70.6128 21.8594 66.854" fill="black"/>
<path d="M48.4414 66.0492L54.5628 62.5049C56.1742 65.1365 58.2686 67.0696 61.9737 67.0696C65.0888 67.0696 67.0752 65.5122 67.0752 63.3641C67.0752 60.7864 65.0347 59.8734 61.5977 58.3703L59.7187 57.5642C54.2946 55.2555 50.6965 52.3557 50.6965 46.2337C50.6965 40.5951 54.9925 36.2988 61.7054 36.2988C66.4848 36.2988 69.9217 37.9637 72.3916 42.3136L66.5382 46.0724C65.2493 43.7635 63.8535 42.8507 61.7055 42.8507C59.5038 42.8507 58.1074 44.2469 58.1074 46.0724C58.1074 48.3279 59.5038 49.241 62.7255 50.6374L64.6048 51.4428C70.9953 54.1817 74.5934 56.9739 74.5934 63.2567C74.5934 70.0234 69.2771 73.7284 62.135 73.7284C55.1539 73.7284 50.6429 70.3991 48.4415 66.0492" fill="black"/>
</g>
<defs>
<clipPath id="clip0_5235_3166">
<rect width="80" height="80" fill="white" transform="translate(0.824219)"/>
</clipPath>
</defs>
</svg>
