<svg width="130" height="52" viewBox="0 0 130 52" fill="none" xmlns="http://www.w3.org/2000/svg">
<rect x="0.5" y="0.5" width="129" height="51" rx="3.5" fill="white"/>
<rect x="0.5" y="0.5" width="129" height="51" rx="3.5" stroke="#5B8DEF"/>
<g clip-path="url(#clip0_6401_6256)">
<path d="M29.4837 14.0005C29.3025 14.0065 29.1243 14.0483 28.9594 14.1235C28.7945 14.1987 28.6461 14.3058 28.5227 14.4385L23.1167 20.2265L19.2627 24.3525C18.7014 24.9502 18.2874 25.6706 18.0537 26.4565C18.0036 26.6254 17.9619 26.7966 17.9287 26.9695C17.7788 27.7521 17.8 28.5579 17.9907 29.3315C18.0754 29.6806 18.1923 30.021 18.3397 30.3485C18.6454 31.029 19.0766 31.6458 19.6107 32.1665L23.8877 36.3595L23.9267 36.3975C26.1747 38.5625 29.7787 38.5305 31.9897 36.3235L34.3857 33.9315C34.9257 33.3915 34.9257 32.5175 34.3887 31.9765C34.2609 31.848 34.109 31.746 33.9417 31.6763C33.7744 31.6066 33.595 31.5706 33.4138 31.5703C33.2326 31.57 33.0531 31.6055 32.8856 31.6747C32.7181 31.7439 32.5659 31.8454 32.4377 31.9735L30.0417 34.3655C29.483 34.9169 28.7317 35.2292 27.9469 35.2363C27.162 35.2434 26.4052 34.9447 25.8367 34.4035L25.8167 34.3845L21.5407 30.1915C20.8887 29.5515 20.5687 28.7225 20.5927 27.9285C20.5974 27.7525 20.6195 27.5773 20.6587 27.4055C20.7592 26.9699 20.9727 26.5684 21.2777 26.2415L25.1307 22.1145C26.1887 20.9805 28.3347 20.8445 29.5607 21.8365L33.0617 24.6675C33.6547 25.1475 34.5227 25.0545 35.0017 24.4605C35.2313 24.1752 35.3384 23.8105 35.2996 23.4463C35.2608 23.0821 35.0793 22.7481 34.7947 22.5175L31.2947 19.6865C30.4947 19.0395 29.5287 18.6415 28.5207 18.4845L30.5357 16.3265C30.7214 16.1268 30.844 15.8767 30.8881 15.6075C30.9321 15.3383 30.8956 15.0622 30.7832 14.8137C30.6709 14.5652 30.4875 14.3554 30.2563 14.2107C30.0251 14.0661 29.7563 13.9929 29.4837 14.0005ZM26.6177 26.8155C26.4363 26.8155 26.2567 26.8513 26.0891 26.9208C25.9216 26.9903 25.7693 27.0921 25.6412 27.2204C25.513 27.3488 25.4114 27.5012 25.3421 27.6688C25.2729 27.8365 25.2374 28.0161 25.2377 28.1975C25.2374 28.3789 25.2729 28.5586 25.3421 28.7263C25.4114 28.8939 25.513 29.0463 25.6412 29.1746C25.7693 29.303 25.9216 29.4048 26.0891 29.4743C26.2567 29.5438 26.4363 29.5795 26.6177 29.5795H36.7907C36.9721 29.5795 37.1517 29.5438 37.3192 29.4743C37.4868 29.4048 37.639 29.303 37.7672 29.1746C37.8954 29.0463 37.997 28.8939 38.0662 28.7263C38.1354 28.5586 38.1709 28.3789 38.1707 28.1975C38.1709 28.0161 38.1354 27.8365 38.0662 27.6688C37.997 27.5012 37.8954 27.3488 37.7672 27.2204C37.639 27.0921 37.4868 26.9903 37.3192 26.9208C37.1517 26.8513 36.9721 26.8155 36.7907 26.8155H26.6177Z" fill="#5B8DEF"/>
</g>
<path d="M48.966 21.004H51.164V29.152H56.036V31H48.966V21.004ZM62.4268 26.604C62.3335 26.1 62.1655 25.7173 61.9228 25.456C61.6895 25.1947 61.3302 25.064 60.8448 25.064C60.5275 25.064 60.2615 25.12 60.0468 25.232C59.8415 25.3347 59.6735 25.4653 59.5428 25.624C59.4215 25.7827 59.3328 25.9507 59.2768 26.128C59.2302 26.3053 59.2022 26.464 59.1928 26.604H62.4268ZM59.1928 27.864C59.2208 28.508 59.3842 28.9747 59.6828 29.264C59.9815 29.5533 60.4108 29.698 60.9708 29.698C61.3722 29.698 61.7175 29.6 62.0068 29.404C62.2962 29.1987 62.4735 28.984 62.5388 28.76H64.2888C64.0088 29.628 63.5795 30.2487 63.0008 30.622C62.4222 30.9953 61.7222 31.182 60.9008 31.182C60.3315 31.182 59.8182 31.0933 59.3608 30.916C58.9035 30.7293 58.5162 30.468 58.1988 30.132C57.8815 29.796 57.6342 29.3947 57.4568 28.928C57.2888 28.4613 57.2048 27.948 57.2048 27.388C57.2048 26.8467 57.2935 26.3427 57.4708 25.876C57.6482 25.4093 57.9002 25.008 58.2268 24.672C58.5535 24.3267 58.9408 24.056 59.3888 23.86C59.8462 23.664 60.3502 23.566 60.9008 23.566C61.5168 23.566 62.0535 23.6873 62.5108 23.93C62.9682 24.1633 63.3415 24.4807 63.6308 24.882C63.9295 25.2833 64.1442 25.7407 64.2748 26.254C64.4055 26.7673 64.4522 27.304 64.4148 27.864H59.1928ZM70.9659 26.604C70.8726 26.1 70.7046 25.7173 70.4619 25.456C70.2286 25.1947 69.8692 25.064 69.3839 25.064C69.0666 25.064 68.8006 25.12 68.5859 25.232C68.3806 25.3347 68.2126 25.4653 68.0819 25.624C67.9606 25.7827 67.8719 25.9507 67.8159 26.128C67.7692 26.3053 67.7412 26.464 67.7319 26.604H70.9659ZM67.7319 27.864C67.7599 28.508 67.9232 28.9747 68.2219 29.264C68.5206 29.5533 68.9499 29.698 69.5099 29.698C69.9112 29.698 70.2566 29.6 70.5459 29.404C70.8352 29.1987 71.0126 28.984 71.0779 28.76H72.8279C72.5479 29.628 72.1186 30.2487 71.5399 30.622C70.9612 30.9953 70.2612 31.182 69.4399 31.182C68.8706 31.182 68.3572 31.0933 67.8999 30.916C67.4426 30.7293 67.0552 30.468 66.7379 30.132C66.4206 29.796 66.1732 29.3947 65.9959 28.928C65.8279 28.4613 65.7439 27.948 65.7439 27.388C65.7439 26.8467 65.8326 26.3427 66.0099 25.876C66.1872 25.4093 66.4392 25.008 66.7659 24.672C67.0926 24.3267 67.4799 24.056 67.9279 23.86C68.3852 23.664 68.8892 23.566 69.4399 23.566C70.0559 23.566 70.5926 23.6873 71.0499 23.93C71.5072 24.1633 71.8806 24.4807 72.1699 24.882C72.4686 25.2833 72.6832 25.7407 72.8139 26.254C72.9446 26.7673 72.9912 27.304 72.9539 27.864H67.7319ZM77.153 23.762H78.609V25.092H77.153V28.676C77.153 29.012 77.209 29.236 77.321 29.348C77.433 29.46 77.657 29.516 77.993 29.516C78.105 29.516 78.2123 29.5113 78.315 29.502C78.4176 29.4927 78.5156 29.4787 78.609 29.46V31C78.441 31.028 78.2543 31.0467 78.049 31.056C77.8436 31.0653 77.643 31.07 77.447 31.07C77.139 31.07 76.845 31.0467 76.565 31C76.2943 30.9627 76.0516 30.8833 75.837 30.762C75.6316 30.6407 75.4683 30.468 75.347 30.244C75.2256 30.02 75.165 29.726 75.165 29.362V25.092H73.961V23.762H75.165V21.592H77.153V23.762ZM84.9828 26.31C84.8522 25.4793 84.3622 25.064 83.5128 25.064C83.1955 25.064 82.9295 25.1387 82.7148 25.288C82.5002 25.428 82.3228 25.6147 82.1828 25.848C82.0522 26.072 81.9588 26.324 81.9028 26.604C81.8468 26.8747 81.8188 27.1453 81.8188 27.416C81.8188 27.6773 81.8468 27.9433 81.9028 28.214C81.9588 28.4847 82.0475 28.732 82.1688 28.956C82.2995 29.1707 82.4722 29.348 82.6868 29.488C82.9015 29.628 83.1628 29.698 83.4708 29.698C83.9468 29.698 84.3108 29.5673 84.5628 29.306C84.8242 29.0353 84.9875 28.676 85.0528 28.228H86.9708C86.8402 29.1893 86.4668 29.922 85.8508 30.426C85.2348 30.93 84.4462 31.182 83.4848 31.182C82.9435 31.182 82.4442 31.0933 81.9868 30.916C81.5388 30.7293 81.1562 30.4727 80.8388 30.146C80.5215 29.8193 80.2742 29.432 80.0968 28.984C79.9195 28.5267 79.8308 28.0273 79.8308 27.486C79.8308 26.926 79.9102 26.408 80.0688 25.932C80.2368 25.4467 80.4795 25.0313 80.7968 24.686C81.1142 24.3313 81.5015 24.056 81.9588 23.86C82.4162 23.664 82.9388 23.566 83.5268 23.566C83.9562 23.566 84.3668 23.622 84.7588 23.734C85.1602 23.846 85.5148 24.0187 85.8228 24.252C86.1402 24.476 86.3968 24.7607 86.5928 25.106C86.7888 25.442 86.9008 25.8433 86.9288 26.31H84.9828ZM90.3579 27.388C90.3579 27.6773 90.3859 27.962 90.4419 28.242C90.4979 28.5127 90.5912 28.76 90.7219 28.984C90.8619 29.1987 91.0439 29.3713 91.2679 29.502C91.4919 29.6327 91.7719 29.698 92.1079 29.698C92.4439 29.698 92.7239 29.6327 92.9479 29.502C93.1812 29.3713 93.3632 29.1987 93.4939 28.984C93.6339 28.76 93.7319 28.5127 93.7879 28.242C93.8439 27.962 93.8719 27.6773 93.8719 27.388C93.8719 27.0987 93.8439 26.814 93.7879 26.534C93.7319 26.254 93.6339 26.0067 93.4939 25.792C93.3632 25.5773 93.1812 25.4047 92.9479 25.274C92.7239 25.134 92.4439 25.064 92.1079 25.064C91.7719 25.064 91.4919 25.134 91.2679 25.274C91.0439 25.4047 90.8619 25.5773 90.7219 25.792C90.5912 26.0067 90.4979 26.254 90.4419 26.534C90.3859 26.814 90.3579 27.0987 90.3579 27.388ZM88.3699 27.388C88.3699 26.8093 88.4586 26.2867 88.6359 25.82C88.8132 25.344 89.0652 24.9427 89.3919 24.616C89.7186 24.28 90.1106 24.0233 90.5679 23.846C91.0252 23.6593 91.5386 23.566 92.1079 23.566C92.6772 23.566 93.1906 23.6593 93.6479 23.846C94.1146 24.0233 94.5112 24.28 94.8379 24.616C95.1646 24.9427 95.4166 25.344 95.5939 25.82C95.7712 26.2867 95.8599 26.8093 95.8599 27.388C95.8599 27.9667 95.7712 28.4893 95.5939 28.956C95.4166 29.4227 95.1646 29.824 94.8379 30.16C94.5112 30.4867 94.1146 30.7387 93.6479 30.916C93.1906 31.0933 92.6772 31.182 92.1079 31.182C91.5386 31.182 91.0252 31.0933 90.5679 30.916C90.1106 30.7387 89.7186 30.4867 89.3919 30.16C89.0652 29.824 88.8132 29.4227 88.6359 28.956C88.4586 28.4893 88.3699 27.9667 88.3699 27.388ZM102.79 27.36C102.79 27.0613 102.762 26.7767 102.706 26.506C102.65 26.226 102.552 25.9833 102.412 25.778C102.282 25.5633 102.109 25.3907 101.894 25.26C101.68 25.1293 101.409 25.064 101.082 25.064C100.756 25.064 100.48 25.1293 100.256 25.26C100.032 25.3907 99.8505 25.5633 99.7105 25.778C99.5798 25.9927 99.4818 26.24 99.4165 26.52C99.3605 26.7907 99.3325 27.0753 99.3325 27.374C99.3325 27.654 99.3652 27.934 99.4305 28.214C99.4958 28.494 99.5985 28.746 99.7385 28.97C99.8878 29.1847 100.07 29.362 100.284 29.502C100.508 29.6327 100.774 29.698 101.082 29.698C101.409 29.698 101.68 29.6327 101.894 29.502C102.118 29.3713 102.296 29.1987 102.426 28.984C102.557 28.76 102.65 28.508 102.706 28.228C102.762 27.948 102.79 27.6587 102.79 27.36ZM102.818 30.076H102.79C102.557 30.468 102.249 30.7527 101.866 30.93C101.493 31.098 101.068 31.182 100.592 31.182C100.051 31.182 99.5752 31.0793 99.1645 30.874C98.7538 30.6593 98.4132 30.3747 98.1425 30.02C97.8812 29.656 97.6805 29.2407 97.5405 28.774C97.4098 28.3073 97.3445 27.822 97.3445 27.318C97.3445 26.8327 97.4098 26.366 97.5405 25.918C97.6805 25.4607 97.8812 25.0593 98.1425 24.714C98.4132 24.3687 98.7492 24.0933 99.1505 23.888C99.5518 23.6733 100.018 23.566 100.55 23.566C100.98 23.566 101.386 23.6593 101.768 23.846C102.16 24.0233 102.468 24.2893 102.692 24.644H102.72V21.004H104.708V31H102.818V30.076ZM111.583 26.604C111.49 26.1 111.322 25.7173 111.079 25.456C110.846 25.1947 110.486 25.064 110.001 25.064C109.684 25.064 109.418 25.12 109.203 25.232C108.998 25.3347 108.83 25.4653 108.699 25.624C108.578 25.7827 108.489 25.9507 108.433 26.128C108.386 26.3053 108.358 26.464 108.349 26.604H111.583ZM108.349 27.864C108.377 28.508 108.54 28.9747 108.839 29.264C109.138 29.5533 109.567 29.698 110.127 29.698C110.528 29.698 110.874 29.6 111.163 29.404C111.452 29.1987 111.63 28.984 111.695 28.76H113.445C113.165 29.628 112.736 30.2487 112.157 30.622C111.578 30.9953 110.878 31.182 110.057 31.182C109.488 31.182 108.974 31.0933 108.517 30.916C108.06 30.7293 107.672 30.468 107.355 30.132C107.038 29.796 106.79 29.3947 106.613 28.928C106.445 28.4613 106.361 27.948 106.361 27.388C106.361 26.8467 106.45 26.3427 106.627 25.876C106.804 25.4093 107.056 25.008 107.383 24.672C107.71 24.3267 108.097 24.056 108.545 23.86C109.002 23.664 109.506 23.566 110.057 23.566C110.673 23.566 111.21 23.6873 111.667 23.93C112.124 24.1633 112.498 24.4807 112.787 24.882C113.086 25.2833 113.3 25.7407 113.431 26.254C113.562 26.7673 113.608 27.304 113.571 27.864H108.349Z" fill="#6698FA"/>
<defs>
<clipPath id="clip0_6401_6256">
<rect width="24" height="24" fill="white" transform="translate(16 14)"/>
</clipPath>
</defs>
</svg>
