<svg width="45" height="44" viewBox="0 0 45 44" fill="none" xmlns="http://www.w3.org/2000/svg">
<g clip-path="url(#clip0_5536_3576)">
<path d="M25.5759 8.2795e-06C25.2438 0.0110308 24.9171 0.0876567 24.6147 0.225472C24.3123 0.363287 24.0402 0.559568 23.814 0.803008L13.903 11.4143L6.83737 18.9787C5.80832 20.0744 5.04934 21.3952 4.62087 22.836C4.52905 23.1455 4.45257 23.4594 4.3917 23.7765C4.117 25.2113 4.15578 26.6885 4.50537 28.1068C4.66076 28.7467 4.87495 29.3709 5.1452 29.9713C5.70567 31.2188 6.49618 32.3496 7.47537 33.3043L15.3165 40.9915L15.388 41.0612C19.5094 45.0303 26.1167 44.9717 30.1702 40.9255L34.5629 36.5402C35.5529 35.5502 35.5529 33.9478 34.5684 32.956C34.3341 32.7204 34.0556 32.5334 33.7489 32.4056C33.4422 32.2778 33.1133 32.2118 32.7811 32.2113C32.4488 32.2108 32.1198 32.2758 31.8127 32.4026C31.5056 32.5295 31.2266 32.7157 30.9915 32.9505L26.5989 37.3358C25.5747 38.3467 24.1973 38.9192 22.7584 38.9322C21.3195 38.9452 19.932 38.3976 18.8897 37.4055L18.853 37.3707L11.0137 29.6835C9.81837 28.5102 9.2317 26.9903 9.2757 25.5347C9.28443 25.2119 9.32496 24.8907 9.3967 24.5758C9.58097 23.7772 9.97239 23.0411 10.5315 22.4418L17.5954 14.8757C19.535 12.7967 23.4694 12.5473 25.717 14.366L32.1355 19.5562C33.2227 20.4362 34.814 20.2657 35.6922 19.1767C36.1132 18.6535 36.3096 17.9849 36.2385 17.3172C36.1673 16.6495 35.8344 16.0372 35.3127 15.6145L28.896 10.4243C27.4294 9.23817 25.6584 8.50851 23.8104 8.22068L27.5045 4.26434C27.8451 3.89819 28.0698 3.43959 28.1506 2.94613C28.2313 2.45266 28.1645 1.94634 27.9584 1.49075C27.7524 1.03515 27.4163 0.650594 26.9924 0.38537C26.5685 0.120147 26.0757 -0.0139196 25.5759 8.2795e-06ZM20.3215 23.4942C19.989 23.4942 19.6597 23.5597 19.3525 23.6871C19.0453 23.8145 18.7662 24.0012 18.5313 24.2365C18.2963 24.4718 18.11 24.7511 17.9831 25.0585C17.8561 25.3659 17.7911 25.6953 17.7915 26.0278C17.7911 26.3604 17.8561 26.6898 17.9831 26.9972C18.11 27.3045 18.2963 27.5839 18.5313 27.8192C18.7662 28.0545 19.0453 28.2412 19.3525 28.3686C19.6597 28.4959 19.989 28.5615 20.3215 28.5615H38.972C39.3046 28.5615 39.6339 28.4959 39.9411 28.3686C40.2483 28.2412 40.5273 28.0545 40.7623 27.8192C40.9973 27.5839 41.1836 27.3045 41.3105 26.9972C41.4374 26.6898 41.5025 26.3604 41.502 26.0278C41.5025 25.6953 41.4374 25.3659 41.3105 25.0585C41.1836 24.7511 40.9973 24.4718 40.7623 24.2365C40.5273 24.0012 40.2483 23.8145 39.9411 23.6871C39.6339 23.5597 39.3046 23.4942 38.972 23.4942H20.3215Z" fill="#6698fa"/>
</g>
<defs>
<clipPath id="clip0_5536_3576">
<rect width="44" height="44" fill="#6698fa" transform="translate(0.855469)"/>
</clipPath>
</defs>
</svg>
