<svg width="44" height="44" viewBox="0 0 44 44" fill="none" xmlns="http://www.w3.org/2000/svg">
<path d="M14.2235 38.5017C12.4967 38.5063 10.8076 37.9973 9.3707 37.0396C7.93383 36.0819 6.81412 34.7186 6.15388 33.123C5.49364 31.5275 5.32266 29.7716 5.66269 28.0786C6.00272 26.3856 6.83839 24.832 8.06351 23.615L10.6485 21.03C10.9063 20.7725 11.2558 20.6279 11.6202 20.6279C11.9846 20.6279 12.334 20.7725 12.5918 21.03C12.7216 21.1564 12.8247 21.3075 12.8951 21.4744C12.9655 21.6413 13.0017 21.8206 13.0017 22.0017C13.0017 22.1828 12.9655 22.3621 12.8951 22.529C12.8247 22.6959 12.7216 22.847 12.5918 22.9734L10.0068 25.5584C8.89179 26.6784 8.26578 28.1946 8.26578 29.775C8.26578 31.3555 8.89179 32.8716 10.0068 33.9917C11.1427 35.0765 12.6529 35.6819 14.2235 35.6819C15.7942 35.6819 17.3044 35.0765 18.4402 33.9917L23.6102 28.8034C24.1639 28.2515 24.6033 27.5958 24.9031 26.8738C25.2029 26.1518 25.3573 25.3777 25.3573 24.5959C25.3573 23.8141 25.2029 23.04 24.9031 22.318C24.6033 21.5959 24.1639 20.9402 23.6102 20.3884C23.3527 20.1306 23.2081 19.7811 23.2081 19.4167C23.2081 19.0523 23.3527 18.7028 23.6102 18.445C23.7366 18.3153 23.8877 18.2122 24.0546 18.1418C24.2214 18.0714 24.4007 18.0352 24.5818 18.0352C24.763 18.0352 24.9423 18.0714 25.1091 18.1418C25.276 18.2122 25.4271 18.3153 25.5535 18.445C26.3645 19.251 27.0081 20.2093 27.4472 21.2649C27.8864 22.3205 28.1125 23.4526 28.1125 24.5959C28.1125 25.7392 27.8864 26.8712 27.4472 27.9268C27.0081 28.9824 26.3645 29.9408 25.5535 30.7467L20.3835 35.935C19.5784 36.7501 18.6191 37.3968 17.5615 37.8375C16.5039 38.2781 15.3692 38.5039 14.2235 38.5017V38.5017Z" fill="#5B8DEF"/>
<path d="M19.4172 25.9605C19.2361 25.9646 19.0562 25.9308 18.8888 25.8614C18.7215 25.7919 18.5706 25.6883 18.4456 25.5572C17.6324 24.7525 16.9869 23.7946 16.5463 22.7388C16.1057 21.683 15.8789 20.5504 15.8789 19.4063C15.8789 18.2623 16.1057 17.1297 16.5463 16.0739C16.9869 15.0181 17.6324 14.0602 18.4456 13.2555L23.6156 8.06718C25.2493 6.43345 27.4651 5.51562 29.7756 5.51563C32.086 5.51563 34.3018 6.43345 35.9356 8.06718C37.5693 9.70091 38.4871 11.9167 38.4871 14.2272C38.4871 16.5376 37.5693 18.7534 35.9356 20.3872L33.3506 22.9722C33.0928 23.2297 32.7433 23.3743 32.3789 23.3743C32.0145 23.3743 31.6651 23.2297 31.4072 22.9722C31.2775 22.8458 31.1744 22.6947 31.104 22.5278C31.0336 22.3609 30.9974 22.1816 30.9974 22.0005C30.9974 21.8194 31.0336 21.6401 31.104 21.4732C31.1744 21.3063 31.2775 21.1552 31.4072 21.0288L33.9922 18.4438C35.1073 17.3238 35.7333 15.8077 35.7333 14.2272C35.7333 12.6467 35.1073 11.1306 33.9922 10.0105C32.8564 8.92569 31.3462 8.32035 29.7756 8.32035C28.2049 8.32035 26.6947 8.92569 25.5589 10.0105L20.3889 15.1988C19.8307 15.7482 19.3874 16.4031 19.0848 17.1255C18.7822 17.8478 18.6264 18.6232 18.6264 19.4063C18.6264 20.1895 18.7822 20.9649 19.0848 21.6872C19.3874 22.4096 19.8307 23.0645 20.3889 23.6138C20.6464 23.8717 20.791 24.2211 20.791 24.5855C20.791 24.9499 20.6464 25.2994 20.3889 25.5572C20.262 25.6857 20.1106 25.7876 19.9438 25.8569C19.7769 25.9261 19.5979 25.9614 19.4172 25.9605V25.9605Z" fill="#3568D4"/>
</svg>
