<svg width="33" height="35" viewBox="0 0 33 35" fill="none" xmlns="http://www.w3.org/2000/svg">
<g id="Frame 8">
<path id="Rectangle 43" d="M2.3103 13.7075C0.840053 11.8697 0.221073 9.49323 0.607994 7.17171L1.31809 2.91113C1.39451 2.45264 1.72172 2.0758 2.16496 1.93583L3.67534 1.45887C4.65352 1.14997 5.33948 2.41822 4.54555 3.0678C4.4036 3.18394 4.29909 3.33942 4.24515 3.51472L3.39861 6.266C3.0888 7.27287 3.42573 8.36682 4.24834 9.02491C4.53834 9.2569 4.77454 9.54907 4.94062 9.88124L7.57377 15.1475L12.0032 25.7782C12.5969 27.203 13.9891 28.1311 15.5327 28.1311L18.3577 28.1311C19.3091 28.1311 20.0226 29.0015 19.8361 29.9344C19.6264 30.983 18.7057 31.7377 17.6364 31.7377L14.8531 31.7377C12.6206 31.7377 10.5982 30.4204 9.69591 28.3782L4.95951 17.659C4.54018 16.71 3.99971 15.8193 3.35158 15.0091L2.3103 13.7075Z" fill="#555770"/>
<path id="Rectangle 44" d="M29.7874 13.7075C31.2576 11.8697 31.8766 9.49323 31.4897 7.17171L30.7796 2.91113C30.7032 2.45264 30.3759 2.0758 29.9327 1.93583L28.4223 1.45887C27.4441 1.14997 26.7582 2.41822 27.5521 3.0678C27.6941 3.18394 27.7986 3.33942 27.8525 3.51472L28.699 6.266C29.0089 7.27287 28.6719 8.36682 27.8493 9.02491C27.5593 9.2569 27.3231 9.54907 27.157 9.88124L24.5239 15.1475L20.0945 25.7782C19.5008 27.203 18.1086 28.1311 16.565 28.1311L13.7399 28.1311C12.7886 28.1311 12.075 29.0015 12.2616 29.9344C12.4713 30.983 13.3919 31.7377 14.4612 31.7377L17.2445 31.7377C19.4771 31.7377 21.4994 30.4204 22.4017 28.3782L27.1381 17.659C27.5575 16.71 28.0979 15.8193 28.7461 15.0091L29.7874 13.7075Z" fill="#555770"/>
<path id="Rectangle 42" d="M5.7367 13.9849C5.272 11.9402 7.19838 10.161 9.19976 10.7864C9.99548 11.0351 10.6332 11.635 10.93 12.414L11.4073 13.6669C13.1613 18.2712 19.6266 18.4035 21.5674 13.8748L22.3108 12.1403C22.5738 11.5265 23.0738 11.045 23.6972 10.8053C25.4086 10.147 27.2166 11.5133 27.0505 13.3394L26.7652 16.4779C26.7152 17.0287 26.5625 17.5653 26.3152 18.0599L20.4482 29.7939C19.828 31.0343 18.7232 31.9636 17.3949 32.362L17.2216 32.414C16.3419 32.6779 15.4022 32.6637 14.5308 32.3733C13.3183 31.9691 12.3376 31.0639 11.8376 29.8877L6.64852 17.6779C6.54487 17.4341 6.46319 17.1814 6.40446 16.923L5.7367 13.9849Z" fill="#6698FA"/>
<path id="Rectangle 45" d="M11.0258 32.3583C11.117 31.9936 11.4447 31.7378 11.8206 31.7378L12.2641 31.7378C12.4999 31.7378 12.7317 31.7979 12.9378 31.9124L13.6929 32.3318C15.055 33.0886 16.7028 33.1244 18.0966 32.4275L19.1765 31.8876C19.3735 31.7891 19.5907 31.7378 19.811 31.7378L20.2841 31.7378C20.657 31.7378 20.9821 31.9916 21.0726 32.3535C21.1851 32.8037 20.8985 33.2566 20.4435 33.3476L19.476 33.5411L16.7142 34.0934C16.157 34.2049 15.5828 34.201 15.0272 34.0819L11.6489 33.358C11.1959 33.2609 10.9135 32.8078 11.0258 32.3583Z" fill="#CCDDFF"/>
</g>
</svg>
