<svg width="62" height="56" viewBox="0 0 62 56" fill="none" xmlns="http://www.w3.org/2000/svg">
<g clip-path="url(#clip0_5235_3059)">
<path d="M30.6575 56.0164L41.8346 21.6172H19.4805L30.6575 56.0164Z" fill="#E24329"/>
<path d="M30.6578 56.0164L19.4808 21.6172H3.81641L30.6578 56.0164Z" fill="#FC6D26"/>
<path d="M3.81658 21.6172L0.42007 32.0708C0.110271 33.0242 0.449575 34.0687 1.26066 34.658L30.658 56.0164L3.81658 21.6172Z" fill="#FCA326"/>
<path d="M3.81641 21.6175H19.4808L12.7488 0.899164C12.4026 -0.167054 10.8943 -0.166764 10.5481 0.899164L3.81641 21.6175Z" fill="#E24329"/>
<path d="M30.6582 56.0164L41.8353 21.6172H57.4996L30.6582 56.0164Z" fill="#FC6D26"/>
<path d="M57.4996 21.6172L60.8962 32.0708C61.2059 33.0242 60.8666 34.0687 60.0556 34.658L30.6582 56.0164L57.4996 21.6172Z" fill="#FCA326"/>
<path d="M57.5003 21.6175H41.8359L48.5679 0.899164C48.9142 -0.167054 50.4224 -0.166764 50.7686 0.899164L57.5003 21.6175Z" fill="#E24329"/>
</g>
<defs>
<clipPath id="clip0_5235_3059">
<rect width="60.7449" height="55.9992" fill="white" transform="translate(0.267578)"/>
</clipPath>
</defs>
</svg>
