<svg width="1280" height="322" viewBox="0 0 1280 322" fill="none" xmlns="http://www.w3.org/2000/svg">
<path d="M156.335 0.257876L34.3643 34.4646C33.7379 34.6402 33.4247 34.7281 33.2435 34.9669C33.0622 35.2058 33.062 35.5311 33.0616 36.1816L32.8547 343.214C32.8542 344.056 32.8539 344.477 33.1152 344.738C33.3766 345 33.7975 345 34.6393 345H182.998H333.143H533.643H607.643H675.143H916.643H1062.34H1244.5C1245.34 345 1245.77 345 1246.03 344.739C1246.29 344.477 1246.29 344.057 1246.29 343.215V131.006C1246.29 130.644 1246.29 130.464 1246.22 130.301C1246.15 130.138 1246.03 130.01 1245.77 129.752L1184.6 67.7335C1184.23 67.3583 1184.04 67.1707 1183.8 67.1097C1183.56 67.0487 1183.31 67.126 1182.81 67.2807L1108.69 90.0421C1108.56 90.0813 1108.49 90.101 1108.43 90.1109C1108.36 90.1207 1108.3 90.1207 1108.16 90.1207H1062.56C1062.45 90.1207 1062.39 90.1207 1062.34 90.1277C1062.28 90.1346 1062.23 90.1485 1062.12 90.1761L1001.58 105.624L885.114 119.62C884.857 119.651 884.729 119.666 884.603 119.645C884.478 119.625 884.361 119.569 884.129 119.457L811.497 84.6133C810.915 84.3344 810.625 84.1949 810.333 84.253C810.041 84.3112 809.826 84.5515 809.395 85.032L773.179 125.484C772.84 125.862 772.671 126.05 772.442 126.125C772.213 126.199 771.965 126.145 771.469 126.037L627.6 94.7035C627.324 94.6433 627.185 94.6132 627.047 94.6264C626.909 94.6396 626.779 94.6952 626.518 94.8064L553.63 125.982C553.31 126.118 553.151 126.187 552.981 126.191C552.812 126.196 552.648 126.137 552.322 126.019L465.713 94.7108C465.536 94.6467 465.447 94.6147 465.368 94.5653C465.288 94.516 465.22 94.4508 465.085 94.3206L465.084 94.3201L403.96 35.6568C403.543 35.256 403.334 35.0555 403.067 35.0083C402.8 34.9612 402.535 35.0778 402.005 35.3112L268.481 94.129C267.981 94.3493 267.731 94.4594 267.476 94.4217C267.221 94.3839 267.014 94.2059 266.599 93.85L157.98 0.621979C157.625 0.317507 157.448 0.165271 157.229 0.116897C157.011 0.0685222 156.786 0.13164 156.335 0.257876Z" fill="url(#paint0_linear_4802_1752)"/>
<defs>
<linearGradient id="paint0_linear_4802_1752" x1="639.675" y1="0" x2="639.675" y2="233.779" gradientUnits="userSpaceOnUse">
<stop stop-color="#6698FA"/>
<stop offset="1" stop-color="#A1C1FF"/>
</linearGradient>
</defs>
</svg>
