<svg width="1280" height="369" viewBox="0 0 1280 369" fill="none" xmlns="http://www.w3.org/2000/svg">
<path d="M244.649 62.4116L144.582 89.1244C143.822 89.3273 143.682 90.3453 144.359 90.7462L217.529 134.087C217.705 134.191 217.913 134.231 218.115 134.2L350.286 114.083C351.064 113.964 351.314 112.967 350.685 112.494L314.808 85.587C314.559 85.4004 314.231 85.3576 313.943 85.4741L291.375 94.5971C291.095 94.7104 290.776 94.6733 290.529 94.4986L245.391 62.5447C245.176 62.3923 244.904 62.3435 244.649 62.4116Z" fill="url(#paint0_linear_4156_1752)"/>
<path d="M604.646 104.548L584.717 92.5904C584.16 92.2566 583.882 92.0897 583.585 92.1222C583.288 92.1548 583.052 92.378 582.581 92.8245L530.596 142.108C530.448 142.248 530.375 142.318 530.288 142.369C530.201 142.42 530.104 142.451 529.909 142.512L474.585 159.983C473.986 160.172 473.687 160.267 473.515 160.501C473.344 160.735 473.344 161.049 473.344 161.677V367.224C473.344 368.061 473.344 368.48 473.604 368.74C473.864 369 474.282 369 475.119 369H1279.29C1279.88 369 1280.17 369 1280.39 368.846C1280.62 368.691 1280.73 368.418 1280.94 367.872L1361.67 161.908C1361.73 161.752 1361.76 161.675 1361.78 161.593C1361.79 161.511 1361.79 161.428 1361.79 161.26V7.64703C1361.79 4.6278 1361.79 3.11818 1361.11 2.95864C1360.42 2.79909 1359.76 4.15422 1358.43 6.86449L1326.57 71.7607C1326.22 72.4671 1326.05 72.8203 1325.72 72.9446C1325.39 73.069 1325.03 72.9198 1324.3 72.6214L1299.91 62.6239C1299.35 62.3959 1299.07 62.2819 1298.8 62.3435C1298.52 62.4052 1298.32 62.6276 1297.92 63.0725L1223.77 144.633C1223.53 144.898 1223.41 145.031 1223.25 145.106C1223.1 145.181 1222.92 145.191 1222.56 145.212L1083.78 153.218C1083.57 153.23 1083.47 153.236 1083.37 153.219C1083.27 153.202 1083.18 153.162 1082.99 153.083L960.075 101.538C959.794 101.42 959.654 101.362 959.505 101.352C959.356 101.342 959.209 101.383 958.916 101.464L793.381 147.19C793.024 147.288 792.846 147.338 792.668 147.314C792.49 147.291 792.33 147.198 792.011 147.011L738.469 115.669C738.262 115.548 738.159 115.487 738.045 115.457C737.93 115.426 737.811 115.426 737.571 115.426H713.788C713.493 115.426 713.345 115.426 713.208 115.379C713.07 115.333 712.952 115.244 712.717 115.066L712.717 115.066L650.419 67.9096C649.866 67.4911 649.589 67.2818 649.273 67.2932C648.957 67.3047 648.697 67.5334 648.176 67.9908L606.731 104.36C606.262 104.772 606.027 104.978 605.739 105.004C605.45 105.03 605.182 104.87 604.646 104.548Z" fill="url(#paint1_linear_4156_1752)"/>
<defs>
<linearGradient id="paint0_linear_4156_1752" x1="247.459" y1="62.3042" x2="247.459" y2="134.248" gradientUnits="userSpaceOnUse">
<stop stop-color="#A9C5FF"/>
<stop offset="1" stop-color="white"/>
</linearGradient>
<linearGradient id="paint1_linear_4156_1752" x1="917.569" y1="0" x2="917.569" y2="196.667" gradientUnits="userSpaceOnUse">
<stop stop-color="#568DFF"/>
<stop offset="1" stop-color="white"/>
</linearGradient>
</defs>
</svg>
