<svg width="141" height="70" viewBox="0 0 141 70" fill="none" xmlns="http://www.w3.org/2000/svg">
<path d="M30.7033 39.0179C32.9427 39.0179 34.7581 37.2025 34.7581 34.963C34.7581 32.7236 32.9427 30.9082 30.7033 30.9082C28.4638 30.9082 26.6484 32.7236 26.6484 34.963C26.6484 37.2025 28.4638 39.0179 30.7033 39.0179Z" fill="#00D8FF"/>
<path fill-rule="evenodd" clip-rule="evenodd" d="M30.6999 26.7207C36.1441 26.7207 41.2016 27.5019 45.0149 28.8147C49.6094 30.3965 52.4343 32.794 52.4343 34.965C52.4343 37.2274 49.4405 39.7745 44.5066 41.4092C40.7764 42.645 35.8678 43.2902 30.6999 43.2902C25.4014 43.2902 20.384 42.6846 16.6119 41.3956C11.8394 39.7643 8.96484 37.1843 8.96484 34.965C8.96484 32.8116 11.662 30.4326 16.192 28.8532C20.0195 27.5188 25.2019 26.7207 30.6992 26.7207H30.6999Z" stroke="#00D8FF" stroke-width="1.93984"/>
<path fill-rule="evenodd" clip-rule="evenodd" d="M23.5223 30.8657C26.2421 26.1496 29.4453 22.1587 32.4876 19.5112C36.1531 16.3213 39.6413 15.072 41.5219 16.1565C43.4818 17.2867 44.1926 21.1527 43.1439 26.2433C42.3518 30.0921 40.4577 34.6664 37.8759 39.1432C35.2289 43.7332 32.1979 47.7772 29.197 50.4001C25.3998 53.7195 21.7286 54.9208 19.8062 53.8121C17.9407 52.7371 17.2273 49.2114 18.1222 44.4982C18.8783 40.5158 20.7759 35.6279 23.5214 30.8656L23.5223 30.8657Z" stroke="#00D8FF" stroke-width="1.93984"/>
<path fill-rule="evenodd" clip-rule="evenodd" d="M23.5295 39.1543C20.802 34.4435 18.945 29.6743 18.1699 25.7164C17.2368 20.9476 17.8965 17.3016 19.7754 16.2139C21.7333 15.0804 25.4377 16.3953 29.3243 19.8463C32.2628 22.4554 35.2802 26.3801 37.8695 30.8527C40.5242 35.4382 42.5138 40.0839 43.2878 43.9937C44.2672 48.9413 43.4745 52.7217 41.5538 53.8335C39.6902 54.9124 36.2799 53.7701 32.6435 50.6409C29.571 47.997 26.2839 43.9118 23.5295 39.1542V39.1543Z" stroke="#00D8FF" stroke-width="1.93984"/>
<path fill-rule="evenodd" clip-rule="evenodd" d="M75.7161 45.3224L70.7461 37.8138C73.258 37.5921 75.5213 35.7721 75.5213 32.4471C75.5213 29.0638 73.1203 26.8984 69.7521 26.8984H62.3555V45.3084H64.6468V37.9934H68.3183L73.0106 45.3084L75.7161 45.3224ZM69.478 35.9926H64.648V28.9541H69.478C71.6596 28.9541 73.1495 30.3891 73.1495 32.4599C73.1495 34.5308 71.6585 35.9949 69.478 35.9949V35.9926ZM84.2456 45.6526C86.4273 45.6526 88.2205 44.9351 89.5458 43.6109L88.5518 42.2576C87.5018 43.3344 85.9571 43.9411 84.4393 43.9411C81.5693 43.9411 79.8018 41.8434 79.6361 39.3328H90.4278V38.8078C90.4278 34.8061 88.0536 31.6584 84.0228 31.6584C80.2136 31.6584 77.4545 34.7781 77.4545 38.6421C77.4545 42.8106 80.2976 45.6421 84.2445 45.6421L84.2456 45.6526ZM88.3873 37.8126H79.6373C79.7481 35.7709 81.154 33.3676 83.9983 33.3676C87.0351 33.3676 88.3593 35.8246 88.3873 37.8126ZM104.177 45.3213V36.1571C104.177 32.9278 101.832 31.6573 99.0156 31.6573C96.834 31.6573 95.1236 32.3748 93.6886 33.8658L94.6546 35.3008C95.8411 34.0314 97.1396 33.4516 98.7403 33.4516C100.672 33.4516 102.108 34.4724 102.108 36.2668V38.6678C101.032 37.4253 99.5138 36.8454 97.6915 36.8454C95.4281 36.8454 93.0248 38.2536 93.0248 41.2344C93.0248 44.1324 95.4258 45.6514 97.6915 45.6514C99.4858 45.6514 101.005 45.0168 102.108 43.8023V45.3189L104.177 45.3213ZM98.437 44.1616C96.505 44.1616 95.1516 42.9483 95.1516 41.2636C95.1516 39.5521 96.505 38.3376 98.437 38.3376C99.9 38.3376 101.307 38.8894 102.108 39.9943V42.5061C101.308 43.6098 99.9 44.1616 98.437 44.1616ZM114.187 45.6526C116.616 45.6526 118.051 44.6586 119.073 43.3344L117.693 42.0651C116.81 43.2516 115.678 43.8034 114.309 43.8034C111.466 43.8034 109.701 41.5949 109.701 38.6421C109.701 35.6893 111.467 33.5088 114.309 33.5088C115.69 33.5088 116.821 34.0338 117.693 35.2471L119.073 33.9778C118.052 32.6524 116.616 31.6596 114.187 31.6596C110.212 31.6596 107.535 34.6964 107.535 38.6433C107.535 42.6181 110.212 45.6433 114.187 45.6433V45.6526ZM125.34 45.6526C126.554 45.6526 127.3 45.2933 127.825 44.7974L127.219 43.2516C126.942 43.5549 126.402 43.8034 125.81 43.8034C124.9 43.8034 124.457 43.0859 124.457 42.0919V33.8109H127.164V31.9898H124.457V28.3463H122.386V31.9898H120.178V33.8121H122.386V42.5353C122.386 44.5233 123.38 45.6549 125.34 45.6549V45.6526Z" fill="#00D8FF"/>
</svg>
