<svg width="65" height="56" viewBox="0 0 65 56" fill="none" xmlns="http://www.w3.org/2000/svg">
<g clip-path="url(#clip0_5235_3076)">
<path d="M64.2934 44.152L53.6832 55.2373C53.4525 55.4781 53.1734 55.6701 52.8633 55.8013C52.5532 55.9325 52.2187 56.0002 51.8807 56H1.58333C1.34333 56 1.10856 55.9317 0.907873 55.8035C0.707181 55.6753 0.549306 55.4928 0.453645 55.2783C0.357985 55.0639 0.328706 54.8269 0.369405 54.5965C0.410104 54.3661 0.519009 54.1523 0.68274 53.9813L11.3009 42.896C11.5309 42.6558 11.8091 42.4642 12.1182 42.3331C12.4273 42.2019 12.7608 42.1339 13.098 42.1333H63.3925C63.6325 42.1333 63.8673 42.2017 64.0681 42.3298C64.2686 42.4581 64.4264 42.6406 64.5225 42.855C64.6179 43.0695 64.6472 43.3064 64.6065 43.5368C64.5657 43.7672 64.4569 43.9811 64.2934 44.152ZM53.6832 21.8293C53.4525 21.5885 53.1734 21.3965 52.8633 21.2653C52.5532 21.1341 52.2187 21.0665 51.8807 21.0667H1.58333C1.34333 21.0667 1.10856 21.135 0.907873 21.2632C0.707181 21.3914 0.549306 21.5739 0.453645 21.7883C0.357985 22.0028 0.328706 22.2398 0.369405 22.4702C0.410104 22.7006 0.519009 22.9144 0.68274 23.0854L11.3009 34.1707C11.5309 34.4109 11.8091 34.6024 12.1182 34.7336C12.4273 34.8648 12.7608 34.9328 13.098 34.9333H63.3925C63.6325 34.9333 63.8673 34.865 64.0681 34.7368C64.2686 34.6086 64.4264 34.4261 64.5225 34.2117C64.6179 33.9972 64.6472 33.7602 64.6065 33.5298C64.5657 33.2994 64.4569 33.0856 64.2934 32.9146L53.6832 21.8293ZM1.58333 13.8667H51.8807C52.2187 13.8668 52.5532 13.7992 52.8633 13.668C53.1734 13.5368 53.4525 13.3448 53.6832 13.104L64.2934 2.01867C64.4569 1.84773 64.5657 1.63391 64.6065 1.4035C64.6472 1.17309 64.6179 0.93611 64.5225 0.721687C64.4264 0.507265 64.2686 0.324734 64.0681 0.196524C63.8673 0.068313 63.6325 7.89562e-06 63.3925 0H13.098C12.7608 0.00055898 12.4273 0.0685357 12.1182 0.199721C11.8091 0.330908 11.5309 0.52251 11.3009 0.762669L0.685477 11.848C0.521905 12.0187 0.413048 12.2324 0.372256 12.4625C0.331464 12.6927 0.360511 12.9294 0.455834 13.1438C0.551158 13.3581 0.708614 13.5406 0.908892 13.669C1.10917 13.7974 1.34356 13.8661 1.58333 13.8667Z" fill="url(#paint0_linear_5235_3076)"/>
</g>
<defs>
<linearGradient id="paint0_linear_5235_3076" x1="5.77693" y1="57.3346" x2="56.9837" y2="-1.91941" gradientUnits="userSpaceOnUse">
<stop offset="0.08" stop-color="#9945FF"/>
<stop offset="0.3" stop-color="#8752F3"/>
<stop offset="0.5" stop-color="#5497D5"/>
<stop offset="0.6" stop-color="#43B4CA"/>
<stop offset="0.72" stop-color="#28E0B9"/>
<stop offset="0.97" stop-color="#19FB9B"/>
</linearGradient>
<clipPath id="clip0_5235_3076">
<rect width="64.2727" height="56" fill="white" transform="translate(0.351562)"/>
</clipPath>
</defs>
</svg>
