<svg width="80" height="56" viewBox="0 0 80 56" fill="none" xmlns="http://www.w3.org/2000/svg">
<g clip-path="url(#clip0_5235_3072)">
<path d="M33.4747 6.11248C36.0407 3.43884 39.6131 1.7807 43.5641 1.7807C48.8161 1.7807 53.3984 4.70936 55.8386 9.05701C57.9591 8.1095 60.3064 7.58248 62.776 7.58248C72.2488 7.58248 79.9286 15.3291 79.9286 24.8847C79.9286 34.4413 72.2488 42.188 62.776 42.188C61.62 42.188 60.49 42.0724 59.3974 41.8514C57.2485 45.6845 53.1536 48.2743 48.4535 48.2743C46.4859 48.2743 44.6249 47.8198 42.9679 47.0117C40.7895 52.1357 35.7143 55.7285 29.7991 55.7285C23.6392 55.7285 18.3894 51.8308 16.3742 46.3645C15.4936 46.5515 14.5812 46.649 13.6451 46.649C6.31095 46.649 0.365234 40.6421 0.365234 33.2309C0.365234 28.2644 3.03661 23.9281 7.00572 21.6081C6.18855 19.7278 5.73406 17.6526 5.73406 15.4708C5.73406 6.94779 12.6534 0.0386908 21.1877 0.0386908C26.1984 0.0386908 30.6514 2.42106 33.4747 6.11248Z" fill="#00A1E0"/>
<path d="M11.8891 28.9187C11.8392 29.049 11.9072 29.0763 11.9231 29.0989C12.0727 29.2077 12.2246 29.2859 12.3776 29.3732C13.1891 29.8039 13.9552 29.9297 14.7565 29.9297C16.3886 29.9297 17.4018 29.0615 17.4018 27.6641V27.6369C17.4018 26.3448 16.2583 25.8756 15.1849 25.5367L15.0455 25.4914C14.2363 25.2284 13.5381 25.0017 13.5381 24.4691V24.4407C13.5381 23.9851 13.9462 23.6496 14.5786 23.6496C15.2813 23.6496 16.1155 23.8831 16.6527 24.18C16.6527 24.18 16.8102 24.282 16.868 24.129C16.8998 24.0474 17.1718 23.3153 17.2001 23.2359C17.2307 23.1498 17.1763 23.0863 17.1208 23.0523C16.5076 22.6794 15.6598 22.4244 14.7826 22.4244L14.6194 22.4256C13.1256 22.4256 12.0829 23.3277 12.0829 24.6209V24.6481C12.0829 26.0116 13.2333 26.4536 14.3111 26.7619L14.4845 26.8152C15.27 27.0566 15.9466 27.264 15.9466 27.8171V27.8443C15.9466 28.3498 15.5068 28.726 14.7973 28.726C14.5219 28.726 13.6435 28.7204 12.6949 28.1208C12.5804 28.0539 12.5136 28.0052 12.4252 27.9519C12.3787 27.9225 12.262 27.8715 12.211 28.0256L11.8891 28.9187Z" fill="white"/>
<path d="M35.7817 28.9187C35.7318 29.049 35.7998 29.0763 35.8157 29.0989C35.9653 29.2077 36.1171 29.2859 36.2701 29.3732C37.0816 29.8039 37.8478 29.9297 38.6491 29.9297C40.2812 29.9297 41.2944 29.0615 41.2944 27.6641V27.6369C41.2944 26.3448 40.1508 25.8756 39.0775 25.5367L38.9381 25.4914C38.1289 25.2284 37.4307 25.0017 37.4307 24.4691V24.4407C37.4307 23.9851 37.8387 23.6496 38.4712 23.6496C39.1739 23.6496 40.008 23.8831 40.5453 24.18C40.5453 24.18 40.7028 24.282 40.7606 24.129C40.7923 24.0474 41.0643 23.3153 41.0927 23.2359C41.1233 23.1498 41.0689 23.0863 41.0133 23.0523C40.4002 22.6794 39.5524 22.4244 38.6752 22.4244L38.512 22.4256C37.0182 22.4256 35.9755 23.3277 35.9755 24.6209V24.6481C35.9755 26.0116 37.1258 26.4536 38.2037 26.7619L38.3771 26.8152C39.1625 27.0566 39.8403 27.264 39.8403 27.8171V27.8443C39.8403 28.3498 39.3994 28.726 38.6899 28.726C38.4145 28.726 37.5361 28.7204 36.5875 28.1208C36.473 28.0539 36.405 28.0075 36.3189 27.9519C36.2894 27.9327 36.1511 27.8794 36.1035 28.0256L35.7817 28.9187Z" fill="white"/>
<path d="M52.0931 26.1823C52.0931 26.9722 51.9458 27.5945 51.6556 28.0342C51.3689 28.4694 50.9348 28.6814 50.3296 28.6814C49.7232 28.6814 49.2914 28.4706 49.0092 28.0342C48.7236 27.5956 48.5785 26.9722 48.5785 26.1823C48.5785 25.3934 48.7236 24.7723 49.0092 24.3371C49.2914 23.9064 49.7232 23.6968 50.3296 23.6968C50.9348 23.6968 51.3689 23.9064 51.6567 24.3371C51.9458 24.7723 52.0931 25.3934 52.0931 26.1823ZM53.4554 24.7179C53.3217 24.2657 53.1131 23.8668 52.8355 23.5347C52.5578 23.2015 52.2064 22.934 51.7894 22.7391C51.3734 22.5453 50.8815 22.4466 50.3296 22.4466C49.7765 22.4466 49.2846 22.5453 48.8686 22.7391C48.4515 22.934 48.1002 23.2015 47.8214 23.5347C47.5448 23.8679 47.3363 24.2669 47.2014 24.7179C47.0688 25.1679 47.002 25.6598 47.002 26.1823C47.002 26.7048 47.0688 27.1978 47.2014 27.6466C47.3363 28.0977 47.5437 28.4966 47.8225 28.8299C48.1002 29.1631 48.4527 29.4294 48.8686 29.6187C49.2857 29.808 49.7765 29.9043 50.3296 29.9043C50.8815 29.9043 51.3723 29.808 51.7894 29.6187C52.2053 29.4294 52.5578 29.1631 52.8355 28.8299C53.1131 28.4978 53.3217 28.0988 53.4554 27.6466C53.5892 27.1966 53.656 26.7036 53.656 26.1823C53.656 25.6609 53.5892 25.1679 53.4554 24.7179Z" fill="white"/>
<path d="M64.6429 28.4701C64.5976 28.3375 64.4695 28.3873 64.4695 28.3873C64.2712 28.4633 64.0604 28.5335 63.8359 28.5687C63.6081 28.6038 63.3577 28.6219 63.089 28.6219C62.4294 28.6219 61.9058 28.4259 61.5306 28.0382C61.1544 27.6506 60.9435 27.0239 60.9458 26.1761C60.9481 25.4043 61.134 24.824 61.4683 24.382C61.8004 23.9422 62.3059 23.7167 62.9802 23.7167C63.5424 23.7167 63.9708 23.7813 64.4196 23.9229C64.4196 23.9229 64.5273 23.9694 64.5783 23.8289C64.6973 23.4979 64.7857 23.261 64.9127 22.8972C64.9489 22.7941 64.8605 22.7499 64.8288 22.7374C64.652 22.6683 64.2349 22.5561 63.9198 22.5085C63.6251 22.4631 63.2806 22.4393 62.8975 22.4393C62.3251 22.4393 61.8151 22.5368 61.3788 22.7318C60.9436 22.9256 60.5741 23.193 60.2817 23.5263C59.9892 23.8595 59.7671 24.2584 59.6186 24.7095C59.4713 25.1595 59.3965 25.6536 59.3965 26.1761C59.3965 27.3061 59.7014 28.2196 60.3032 28.8883C60.9062 29.5592 61.8117 29.9004 62.9927 29.9004C63.6909 29.9004 64.4072 29.7587 64.9217 29.5558C64.9217 29.5558 65.0203 29.5082 64.9773 29.3938L64.6429 28.4701Z" fill="white"/>
<path d="M67.0257 25.424C67.0903 24.9854 67.2116 24.6205 67.3986 24.336C67.6808 23.9042 68.1115 23.6673 68.7167 23.6673C69.322 23.6673 69.722 23.9053 70.0088 24.336C70.1992 24.6205 70.2819 25.0013 70.3148 25.424H67.0257ZM71.6125 24.4595C71.4969 24.0232 71.2102 23.5823 71.022 23.3805C70.7251 23.0609 70.4349 22.8377 70.1471 22.713C69.7708 22.552 69.3197 22.4455 68.8255 22.4455C68.2498 22.4455 67.7273 22.5418 67.3034 22.7413C66.8784 22.9408 66.5214 23.2128 66.2414 23.5517C65.9615 23.8894 65.7507 24.2918 65.6169 24.7485C65.4821 25.203 65.4141 25.6983 65.4141 26.2208C65.4141 26.7524 65.4843 27.2476 65.6237 27.6931C65.7643 28.1419 65.9887 28.5374 66.2924 28.865C66.595 29.1948 66.9849 29.4532 67.4519 29.6334C67.9154 29.8125 68.4787 29.9054 69.1259 29.9043C70.4576 29.8998 71.1592 29.6028 71.4482 29.443C71.4992 29.4147 71.5479 29.3648 71.4867 29.222L71.1852 28.3776C71.1399 28.2518 71.0118 28.2983 71.0118 28.2983C70.682 28.4207 70.2128 28.6406 69.1191 28.6383C68.4039 28.6372 67.8735 28.4264 67.5414 28.0965C67.2003 27.7588 67.0337 27.2624 67.0042 26.5619L71.6159 26.5665C71.6159 26.5665 71.7372 26.5642 71.7497 26.4463C71.7542 26.3965 71.9083 25.4988 71.6125 24.4595Z" fill="white"/>
<path d="M30.0921 25.424C30.1579 24.9854 30.278 24.6205 30.465 24.336C30.7472 23.9042 31.1779 23.6673 31.7831 23.6673C32.3884 23.6673 32.7885 23.9053 33.0763 24.336C33.2656 24.6205 33.3483 25.0013 33.3812 25.424H30.0921ZM34.6778 24.4595C34.5622 24.0232 34.2766 23.5823 34.0884 23.3805C33.7915 23.0609 33.5013 22.8377 33.2135 22.713C32.8372 22.552 32.3861 22.4455 31.8919 22.4455C31.3173 22.4455 30.7937 22.5418 30.3698 22.7413C29.9448 22.9408 29.5878 23.2128 29.3078 23.5517C29.0279 23.8894 28.8171 24.2918 28.6833 24.7485C28.5496 25.203 28.4805 25.6983 28.4805 26.2208C28.4805 26.7524 28.5507 27.2476 28.6901 27.6931C28.8307 28.1419 29.0551 28.5374 29.3588 28.865C29.6615 29.1948 30.0513 29.4532 30.5183 29.6334C30.9818 29.8125 31.5451 29.9054 32.1923 29.9043C33.524 29.8998 34.2256 29.6028 34.5146 29.443C34.5656 29.4147 34.6143 29.3648 34.5531 29.222L34.2528 28.3776C34.2063 28.2518 34.0782 28.2983 34.0782 28.2983C33.7484 28.4207 33.2803 28.6406 32.1844 28.6383C31.4703 28.6372 30.9399 28.4264 30.6078 28.0965C30.2667 27.7588 30.1001 27.2624 30.0706 26.5619L34.6823 26.5665C34.6823 26.5665 34.8036 26.5642 34.8161 26.4463C34.8206 26.3965 34.9747 25.4988 34.6778 24.4595Z" fill="white"/>
<path d="M20.125 28.4445C19.9448 28.3006 19.9198 28.2643 19.8586 28.1714C19.768 28.0297 19.7215 27.8279 19.7215 27.5718C19.7215 27.166 19.8552 26.8748 20.1329 26.6787C20.1295 26.6798 20.5296 26.333 21.4703 26.3455C22.1311 26.3545 22.7216 26.452 22.7216 26.452V28.5488H22.7227C22.7227 28.5488 22.1367 28.6746 21.4771 28.7142C20.5387 28.7709 20.1216 28.4434 20.125 28.4445ZM21.9599 25.2042C21.7729 25.1906 21.5304 25.1826 21.2402 25.1826C20.8447 25.1826 20.4627 25.2325 20.1046 25.3288C19.7442 25.4252 19.42 25.5759 19.1412 25.7754C18.8613 25.976 18.6357 26.2321 18.4725 26.5359C18.3093 26.8396 18.2266 27.1978 18.2266 27.599C18.2266 28.007 18.2968 28.3618 18.4374 28.6519C18.5779 28.9432 18.7808 29.1857 19.0392 29.3727C19.2953 29.5597 19.6116 29.6969 19.9788 29.7796C20.3403 29.8624 20.7506 29.9043 21.1994 29.9043C21.672 29.9043 22.1435 29.8658 22.6003 29.7876C23.0525 29.7105 23.6079 29.5983 23.762 29.5631C23.915 29.5269 24.085 29.4804 24.085 29.4804C24.1995 29.4521 24.1904 29.3297 24.1904 29.3297L24.1881 25.1124C24.1881 24.1875 23.9411 23.5018 23.4548 23.0768C22.9709 22.6529 22.258 22.4387 21.3366 22.4387C20.9909 22.4387 20.4344 22.4863 20.1012 22.5532C20.1012 22.5532 19.0936 22.7481 18.6788 23.0723C18.6788 23.0723 18.5881 23.1289 18.638 23.2559L18.9644 24.1331C19.0052 24.2465 19.1151 24.2079 19.1151 24.2079C19.1151 24.2079 19.1503 24.1943 19.1911 24.1705C20.0785 23.6877 21.2006 23.7024 21.2006 23.7024C21.6992 23.7024 22.0823 23.8022 22.3407 24.0005C22.5923 24.1932 22.7204 24.4845 22.7204 25.0988V25.2937C22.3237 25.237 21.9599 25.2042 21.9599 25.2042Z" fill="white"/>
<path d="M59.1546 22.8278C59.1897 22.7235 59.1161 22.6737 59.0855 22.6623C59.0073 22.6317 58.6151 22.549 58.3125 22.5297C57.7333 22.4946 57.4115 22.5921 57.1236 22.7213C56.838 22.8505 56.5206 23.059 56.3438 23.2959V22.7349C56.3438 22.6567 56.2883 22.5943 56.2112 22.5943H55.0291C54.952 22.5943 54.8965 22.6567 54.8965 22.7349V29.6134C54.8965 29.6904 54.96 29.7539 55.037 29.7539H56.2486C56.3257 29.7539 56.388 29.6904 56.388 29.6134V26.177C56.388 25.7157 56.439 25.2555 56.541 24.9665C56.6408 24.6809 56.7768 24.4519 56.9445 24.2876C57.1134 24.1244 57.3049 24.0099 57.5146 23.9453C57.7288 23.8796 57.9657 23.8581 58.1334 23.8581C58.3748 23.8581 58.64 23.9204 58.64 23.9204C58.7284 23.9306 58.7783 23.8762 58.8078 23.7957C58.8871 23.5849 59.1115 22.9536 59.1546 22.8278Z" fill="white"/>
<path d="M47.7819 19.6394C47.6346 19.594 47.5009 19.5634 47.3263 19.5306C47.1495 19.4988 46.9387 19.483 46.6996 19.483C45.8654 19.483 45.208 19.7187 44.7467 20.1834C44.2877 20.6458 43.976 21.3496 43.8196 22.2756L43.763 22.5873H42.7157C42.7157 22.5873 42.5888 22.5828 42.5616 22.721L42.3904 23.681C42.378 23.7717 42.4176 23.8295 42.5401 23.8295H43.559L42.5253 29.6006C42.4448 30.0653 42.3519 30.4473 42.2488 30.7374C42.1479 31.023 42.0493 31.2372 41.9269 31.3937C41.809 31.5433 41.698 31.6543 41.5053 31.7189C41.3466 31.7722 41.163 31.7971 40.9624 31.7971C40.8513 31.7971 40.7028 31.779 40.5929 31.7563C40.4841 31.7348 40.4263 31.711 40.3436 31.6759C40.3436 31.6759 40.2246 31.6305 40.177 31.7495C40.1396 31.8481 39.8675 32.595 39.8347 32.6868C39.8029 32.7786 39.8483 32.8501 39.9061 32.8716C40.0421 32.9192 40.143 32.9509 40.3277 32.9951C40.5838 33.0552 40.8003 33.0586 41.0032 33.0586C41.4271 33.0586 41.8147 32.9985 42.1354 32.8829C42.4573 32.7662 42.7384 32.5633 42.9877 32.289C43.2563 31.9921 43.4252 31.6815 43.5862 31.2565C43.746 30.8372 43.8831 30.3158 43.9919 29.7083L45.0312 23.8295H46.55C46.55 23.8295 46.678 23.834 46.7041 23.6946L46.8764 22.7358C46.8877 22.644 46.8492 22.5873 46.7256 22.5873H45.2511C45.259 22.5544 45.3259 22.0353 45.4948 21.5468C45.5673 21.3394 45.7033 21.1706 45.8178 21.055C45.9311 20.9416 46.0615 20.8611 46.2043 20.8147C46.3505 20.7671 46.5171 20.7444 46.6996 20.7444C46.8378 20.7444 46.975 20.7603 47.0781 20.7818C47.2209 20.8124 47.2765 20.8283 47.3139 20.8396C47.4646 20.8849 47.485 20.8407 47.5145 20.7682L47.8669 19.8003C47.9032 19.696 47.8137 19.6518 47.7819 19.6394Z" fill="white"/>
<path d="M27.1804 29.6125C27.1804 29.6896 27.1248 29.752 27.0478 29.752H25.8248C25.7478 29.752 25.6934 29.6896 25.6934 29.6125V19.7703C25.6934 19.6932 25.7478 19.6309 25.8248 19.6309H27.0478C27.1248 19.6309 27.1804 19.6932 27.1804 19.7703V29.6125Z" fill="white"/>
</g>
<defs>
<clipPath id="clip0_5235_3072">
<rect width="79.643" height="55.999" fill="white" transform="translate(0.324219)"/>
</clipPath>
</defs>
</svg>
