<svg width="2000" height="550" viewBox="0 0 2000 550" fill="none" xmlns="http://www.w3.org/2000/svg">
<path d="M501.176 187.007L324.507 229.881C323.736 230.068 323.351 230.162 322.99 230.053C322.629 229.945 322.359 229.655 321.819 229.073L205.277 103.704L205.277 103.704C205.022 103.43 204.895 103.293 204.738 103.195C204.581 103.097 204.402 103.044 204.044 102.936L83.3604 66.623L83.3602 66.6229C83.1028 66.5455 82.974 66.5067 82.8558 66.4445C82.7375 66.3823 82.6327 66.2982 82.423 66.1299L82.4229 66.1299L4.51381 3.62154C2.5549 2.04986 1.57545 1.26402 0.787723 1.64193C0 2.01984 0 3.27558 0 5.78704V547.224C0 548.532 0 549.187 0.406589 549.593C0.813178 550 1.46758 550 2.77637 550H793.265C794.184 550 794.643 550 794.997 549.758C795.351 549.516 795.518 549.088 795.852 548.233L918.22 234.515C918.962 232.614 919.332 231.663 918.859 231.043C918.385 230.423 917.371 230.53 915.341 230.745L678.666 255.791C678.331 255.826 678.163 255.844 677.997 255.822C677.831 255.799 677.674 255.738 677.36 255.614L502.845 187.121C502.44 186.962 502.237 186.882 502.023 186.868C501.81 186.853 501.598 186.905 501.176 187.007Z" fill="#3568D4"/>
<path d="M943.876 199.014L499.29 545.028L499.29 545.028C496.639 547.091 495.314 548.123 495.636 549.061C495.958 549.998 497.638 549.997 500.997 549.996H500.997L1997.23 549.193C1998.53 549.193 1999.19 549.192 1999.59 548.786C2000 548.379 2000 547.725 2000 546.417V55.3624C2000 54.2499 2000 53.6936 1999.68 53.3067C1999.35 52.9197 1998.8 52.8227 1997.71 52.6286L1820.22 21.1854C1819.18 21.0013 1818.66 20.9093 1818.24 21.1387C1817.81 21.3681 1817.6 21.8528 1817.19 22.8222L1737.07 209.082C1736.59 210.191 1736.35 210.745 1735.86 210.967C1735.37 211.188 1734.79 210.999 1733.65 210.622L1611.42 170.351C1610.89 170.175 1610.62 170.088 1610.35 170.107C1610.08 170.126 1609.82 170.25 1609.32 170.499L1443.81 252.341C1443.52 252.484 1443.38 252.556 1443.22 252.592C1443.07 252.629 1442.91 252.629 1442.58 252.629H1116.47C1116.26 252.629 1116.15 252.629 1116.05 252.612C1115.94 252.596 1115.84 252.563 1115.63 252.498L1115.63 252.498L946.424 198.56C945.741 198.342 945.4 198.233 945.062 198.294C944.724 198.354 944.441 198.574 943.876 199.014Z" fill="#3E7BFA"/>
<path d="M859.486 465.633L623.687 544.581C617.546 546.637 614.476 547.665 614.666 548.831C614.856 549.996 618.094 549.994 624.57 549.991L1997.22 549.241C1998.53 549.241 1999.19 549.24 1999.59 548.834C2000 548.427 2000 547.773 2000 546.465V213.416C2000 211.982 2000 211.265 1999.54 210.852C1999.08 210.439 1998.37 210.51 1996.95 210.653L1898.79 220.48C1898.62 220.498 1898.53 220.506 1898.44 220.504C1898.35 220.502 1898.27 220.489 1898.09 220.462L1780.88 202.588C1780.68 202.557 1780.58 202.541 1780.48 202.511C1780.39 202.482 1780.29 202.437 1780.11 202.349L1684.31 156.674C1683.23 156.162 1682.69 155.906 1682.18 156.058C1681.67 156.21 1681.36 156.717 1680.74 157.732L1603.58 283.94C1603.36 284.293 1603.26 284.469 1603.1 284.605C1602.95 284.741 1602.77 284.829 1602.39 285.005L1453.9 354.695C1453.53 354.868 1453.34 354.955 1453.14 354.985C1452.95 355.015 1452.74 354.988 1452.34 354.933L1217.95 323.074C1217.59 323.025 1217.41 323.001 1217.24 323.023C1217.06 323.044 1216.89 323.112 1216.55 323.246L859.486 465.633Z" fill="#3568D4"/>
</svg>
