<svg width="3000" height="945" viewBox="0 0 3000 945" fill="none" xmlns="http://www.w3.org/2000/svg">
<g clip-path="url(#clip0_5184_2248)">
<rect width="3000" height="775.781" fill="url(#paint0_linear_5184_2248)"/>
<path d="M3000 271.875L2608.73 562.003L2283.54 653.622H1968.78L1678.37 690.035L1106.25 775.781H1951.39H2664.38H3000V349.219V271.875Z" fill="#3E7BFA"/>
<path d="M0 358.594L99.6094 562.5L318.75 653.906H530.859L726.562 690.234L1112.11 775.781H542.578H62.1094H0V358.594Z" fill="#3E7BFA"/>
<path d="M0 752.594L63.2812 749.197L230.859 752.594H323.438L418.359 743.535L588.281 752.594L792.188 742.969L1023.05 752.594L1605.47 743.535L2036.72 748.631L2312.11 766.182L2664.84 748.631L2876.95 743.535L3000 748.631V944.531H1572.66H0V752.594Z" fill="url(#paint1_linear_5184_2248)"/>
<g filter="url(#filter0_f_5184_2248)">
<rect x="2653.12" y="780.469" width="290.625" height="39.8438" fill="#6698FA"/>
</g>
<path d="M2766.7 330.469L2822.47 492.544L2905.25 733.042L2765.83 776.61L2620.31 733.042L2766.7 330.469Z" fill="#6698FA"/>
<path d="M2757.99 644.161V618.02V603.206L2735.34 570.094L2713.55 536.111L2723.14 545.696L2752.76 577.065L2759.74 584.036L2762.35 510.841L2764.96 442.003L2766.71 481.215L2770.19 588.393L2785.88 570.966L2796.33 561.381L2812.2 544.522L2798.95 565.737L2769.32 612.791L2771.06 656.36L2772.81 687.729L2805.92 665.945L2822.47 656.36L2830.32 651.132L2838.16 645.903L2844.26 645.032L2837.29 651.132L2830.32 658.974L2814.63 672.916L2773.68 705.157L2774.55 768.767L2776.62 794.036H2751.89L2753.64 704.285L2742.31 694.7L2682.18 641.547L2717.91 662.46L2750.15 683.372L2754.51 685.115L2756.25 685.986V672.045L2757.99 644.161Z" fill="#CCDDFF"/>
<path d="M2863.56 431.25L2907.14 557.889L2971.82 745.805L2862.88 779.848L2749.18 745.805L2863.56 431.25Z" fill="#6698FA"/>
<path d="M2856.75 676.357V655.932V644.357L2839.05 618.485L2822.03 591.931L2829.52 599.421L2852.67 623.931L2858.12 629.378L2860.16 572.186L2862.2 518.399L2863.56 549.037L2866.29 632.783L2878.54 619.165L2886.71 611.676L2899.11 598.503L2888.75 615.08L2865.61 651.847L2866.97 685.889L2868.33 710.4L2894.2 693.379L2907.14 685.889L2913.26 681.804L2919.39 677.719L2924.16 677.038L2918.71 681.804L2913.26 687.932L2901.01 698.826L2869.01 724.017L2869.69 773.72L2871.31 793.464H2851.99L2853.35 723.336L2844.5 715.847L2797.52 674.315L2825.43 690.655L2850.63 706.996L2854.03 708.357L2855.39 709.038V698.145L2856.75 676.357Z" fill="#CCDDFF"/>
<path d="M222.828 398.438L265.686 522.991L329.302 707.813L222.159 741.296L110.328 707.813L222.828 398.438Z" fill="#6698FA"/>
<path d="M216.13 639.509V619.42V608.036L198.719 582.589L181.978 556.473L189.344 563.839L212.112 587.946L217.469 593.303L219.478 537.053L221.487 484.151L222.827 514.285L225.505 596.652L237.559 583.259L245.595 575.893L257.785 562.937L247.603 579.241L224.836 615.402L226.175 648.884L227.514 672.991L252.961 656.25L265.684 648.884L271.711 644.866L277.737 640.848L282.425 640.179L277.068 644.866L271.711 650.893L259.657 661.607L228.184 686.384L228.853 735.268L230.442 754.688H211.443L212.782 685.714L204.077 678.348L157.871 637.5L185.327 653.571L210.103 669.643L213.452 670.982L214.791 671.652V660.938L216.13 639.509Z" fill="#CCDDFF"/>
<path d="M284.607 529.953L311.598 608.394L351.661 724.79L284.186 745.876L213.758 724.79L284.607 529.953Z" fill="#6698FA"/>
<path d="M280.385 681.775V669.123V661.954L269.42 645.928L258.877 629.481L263.516 634.12L277.855 649.302L281.229 652.676L282.494 617.251L283.759 583.935L284.603 602.913L286.289 654.785L293.88 646.35L298.941 641.711L306.618 633.552L300.206 643.82L285.868 666.593L286.711 687.679L287.555 702.861L303.58 692.318L311.593 687.679L315.388 685.149L319.184 682.618L322.136 682.197L318.762 685.149L315.388 688.944L307.797 695.692L287.976 711.296L288.398 742.081L289.398 754.311H277.433L278.277 710.874L272.794 706.235L243.695 680.51L260.986 690.631L276.59 700.753L278.698 701.596L279.542 702.018V695.27L280.385 681.775Z" fill="#CCDDFF"/>
<path d="M167.591 476.326L201.078 573.648L250.785 718.061L167.068 744.222L79.6875 718.061L167.591 476.326Z" fill="#6698FA"/>
<path d="M162.361 664.69V648.993V640.098L148.757 620.215L135.676 599.809L141.432 605.564L159.222 624.401L163.408 628.587L164.977 584.635L166.547 543.299L167.594 566.845L169.687 631.203L179.105 620.738L185.384 614.982L194.908 604.859L186.953 617.599L169.163 645.853L170.21 672.015L171.256 690.852L191.139 677.771L201.081 672.015L205.79 668.876L210.499 665.736L214.161 665.213L209.976 668.876L205.79 673.585L196.372 681.957L171.779 701.316L172.303 739.512L173.544 754.686H158.699L159.745 700.793L152.943 695.037L116.84 663.12L138.292 675.678L157.652 688.235L160.268 689.282L161.315 689.805V681.433L162.361 664.69Z" fill="#CCDDFF"/>
<g filter="url(#filter1_f_5184_2248)">
<rect x="152.344" y="750" width="135.938" height="18.75" fill="#0053F7"/>
</g>
</g>
<defs>
<filter id="filter0_f_5184_2248" x="2534.77" y="662.109" width="527.344" height="276.562" filterUnits="userSpaceOnUse" color-interpolation-filters="sRGB">
<feFlood flood-opacity="0" result="BackgroundImageFix"/>
<feBlend mode="normal" in="SourceGraphic" in2="BackgroundImageFix" result="shape"/>
<feGaussianBlur stdDeviation="59.1797" result="effect1_foregroundBlur_5184_2248"/>
</filter>
<filter id="filter1_f_5184_2248" x="19.4531" y="617.109" width="401.719" height="284.531" filterUnits="userSpaceOnUse" color-interpolation-filters="sRGB">
<feFlood flood-opacity="0" result="BackgroundImageFix"/>
<feBlend mode="normal" in="SourceGraphic" in2="BackgroundImageFix" result="shape"/>
<feGaussianBlur stdDeviation="66.4453" result="effect1_foregroundBlur_5184_2248"/>
</filter>
<linearGradient id="paint0_linear_5184_2248" x1="1378.12" y1="738.281" x2="1453.12" y2="-33.9844" gradientUnits="userSpaceOnUse">
<stop stop-color="#3568D4"/>
<stop offset="1" stop-color="#3568D4" stop-opacity="0.92"/>
</linearGradient>
<linearGradient id="paint1_linear_5184_2248" x1="1500" y1="772.977" x2="1500" y2="852.243" gradientUnits="userSpaceOnUse">
<stop stop-color="#CCDDFF"/>
<stop offset="1" stop-color="#F5F8FF"/>
</linearGradient>
<clipPath id="clip0_5184_2248">
<rect width="3000" height="944.531" fill="white"/>
</clipPath>
</defs>
</svg>
