<svg width="32" height="32" viewBox="0 0 32 32" fill="none" xmlns="http://www.w3.org/2000/svg">
<g id="Dribbble Fill">
<path id="Vector" fill-rule="evenodd" clip-rule="evenodd" d="M16.0013 2.66602C8.64049 2.66602 2.66797 8.63854 2.66797 15.9993C2.66797 23.3602 8.64049 29.3327 16.0013 29.3327C23.3476 29.3327 29.3346 23.3602 29.3346 15.9993C29.3346 8.63854 23.3476 2.66602 16.0013 2.66602ZM24.8082 8.81207C26.399 10.7499 27.3535 13.2228 27.3824 15.8981C27.0064 15.8258 23.2464 15.0594 19.4576 15.5366C19.3708 15.3486 19.2985 15.1461 19.2117 14.9437C18.9803 14.3942 18.7201 13.8302 18.4597 13.2951C22.6535 11.5887 24.5624 9.13022 24.8082 8.81207ZM16.0013 4.63276C18.8936 4.63276 21.54 5.71736 23.5501 7.4961C23.3476 7.78532 21.6267 10.0847 17.5776 11.6031C15.7121 8.17577 13.6441 5.37028 13.326 4.93644C14.1791 4.73398 15.0758 4.63276 16.0013 4.63276ZM11.1568 5.70289C11.4605 6.10781 13.4851 8.92777 15.3795 12.2828C10.0577 13.7 5.35778 13.6711 4.85163 13.6711C5.58915 10.1425 7.97527 7.20687 11.1568 5.70289ZM4.60579 16.0139C4.60579 15.8981 4.60579 15.7824 4.60579 15.6668C5.09747 15.6812 10.6217 15.7535 16.305 14.0471C16.6376 14.6833 16.9413 15.3341 17.2306 15.9848C17.0859 16.0283 16.9268 16.0717 16.7822 16.115C10.9109 18.0094 7.78728 23.1866 7.52697 23.6204C5.7193 21.6103 4.60579 18.935 4.60579 16.0139ZM16.0013 27.3948C13.3693 27.3948 10.9398 26.4983 9.01649 24.9943C9.21894 24.5749 11.5327 20.1208 17.9536 17.8793C17.9825 17.8649 17.997 17.8649 18.0259 17.8504C19.6311 22.0008 20.2819 25.4859 20.4554 26.4838C19.0816 27.0767 17.5776 27.3948 16.0013 27.3948ZM22.3498 25.4426C22.2341 24.7484 21.6267 21.4223 20.1372 17.3298C23.7092 16.7658 26.8328 17.6913 27.2233 17.8215C26.7316 20.9885 24.9095 23.7217 22.3498 25.4426Z" fill="#6698FA"/>
</g>
</svg>
