<svg width="1280" height="403" viewBox="0 0 1280 403" fill="none" xmlns="http://www.w3.org/2000/svg">
<g clip-path="url(#clip0_5010_2714)">
<rect width="1280" height="331" fill="url(#paint0_linear_5010_2714)"/>
<path d="M1280 116L1113.06 239.788L974.31 278.879H840.015L716.107 294.415L472 331H832.595H1136.8H1280V149V116Z" fill="#3E7BFA"/>
<path d="M0 153L42.5 240L136 279H226.5L310 294.5L474.5 331H231.5H26.5H0V153Z" fill="#3E7BFA"/>
<path d="M0 321.107L27 319.657L98.5 321.107H138L178.5 317.242L251 321.107L338 317L436.5 321.107L685 317.242L869 319.416L986.5 326.904L1137 319.416L1227.5 317.242L1280 319.416V403H671H0V321.107Z" fill="url(#paint1_linear_5010_2714)"/>
<g filter="url(#filter0_f_5010_2714)">
<rect x="1082" y="333" width="124" height="17" fill="#6698FA"/>
</g>
<path d="M1130.46 141L1154.25 210.152L1189.57 312.764L1130.09 331.354L1068 312.764L1130.46 141Z" fill="#6698FA"/>
<path d="M1126.74 274.842V263.688V257.368L1117.08 243.24L1107.78 228.741L1111.87 232.83L1124.51 246.214L1127.49 249.189L1128.6 217.959L1129.72 188.588L1130.46 205.318L1131.95 251.048L1138.64 243.612L1143.1 239.522L1149.87 232.329L1144.22 241.381L1131.58 261.458L1132.32 280.047L1133.06 293.431L1147.19 284.137L1154.26 280.047L1157.6 277.816L1160.95 275.585L1163.55 275.214L1160.58 277.816L1157.6 281.162L1150.91 287.111L1133.44 300.867L1133.81 328.007L1134.69 338.789H1124.14L1124.88 300.495L1120.05 296.405L1094.4 273.727L1109.64 282.649L1123.4 291.572L1125.26 292.316L1126 292.688V286.739L1126.74 274.842Z" fill="#CCDDFF"/>
<path d="M1171.79 184L1190.38 238.033L1217.98 318.21L1171.5 332.735L1122.98 318.21L1171.79 184Z" fill="#6698FA"/>
<path d="M1168.88 288.579V279.864V274.926L1161.33 263.887L1154.07 252.557L1157.26 255.753L1167.14 266.211L1169.46 268.535L1170.34 244.133L1171.21 221.184L1171.79 234.256L1172.95 269.987L1178.18 264.177L1181.66 260.982L1186.95 255.361L1182.54 262.434L1172.66 278.121L1173.24 292.646L1173.82 303.104L1184.86 295.842L1190.38 292.646L1192.99 290.903L1195.61 289.16L1197.64 288.87L1195.32 290.903L1192.99 293.518L1187.77 298.166L1174.11 308.914L1174.4 330.12L1175.09 338.545H1166.85L1167.43 308.624L1163.65 305.428L1143.61 287.708L1155.52 294.68L1166.27 301.652L1167.72 302.233L1168.3 302.523V297.875L1168.88 288.579Z" fill="#CCDDFF"/>
<path d="M95.0743 170L113.36 223.143L140.503 302L94.7886 316.286L47.0742 302L95.0743 170Z" fill="#6698FA"/>
<path d="M92.2166 272.857V264.286V259.429L84.788 248.571L77.6451 237.429L80.788 240.571L90.5023 250.857L92.788 253.143L93.6452 229.143L94.5023 206.571L95.0737 219.428L96.2166 254.571L101.359 248.857L104.788 245.714L109.989 240.186L105.645 247.143L95.9309 262.571L96.5023 276.857L97.0737 287.143L107.931 280L113.359 276.857L115.931 275.143L118.502 273.429L120.502 273.143L118.217 275.143L115.931 277.714L110.788 282.286L97.3595 292.857L97.6452 313.714L98.3229 322H90.2166L90.788 292.572L87.0737 289.429L67.3594 272L79.0737 278.857L89.6451 285.714L91.0737 286.286L91.6452 286.572V282L92.2166 272.857Z" fill="#CCDDFF"/>
<path d="M121.432 226.113L132.948 259.581L150.042 309.243L121.252 318.24L91.2031 309.243L121.432 226.113Z" fill="#6698FA"/>
<path d="M119.631 290.891V285.492V282.434L114.953 275.596L110.454 268.579L112.434 270.558L118.551 277.036L119.991 278.475L120.531 263.36L121.07 249.146L121.43 257.243L122.15 279.375L125.389 275.776L127.548 273.797L130.824 270.315L128.088 274.696L121.97 284.413L122.33 293.41L122.69 299.887L129.527 295.389L132.946 293.41L134.566 292.33L136.185 291.25L137.445 291.07L136.005 292.33L134.566 293.949L131.327 296.828L122.87 303.486L123.05 316.621L123.477 321.839H118.371L118.731 303.306L116.392 301.327L103.977 290.351L111.354 294.669L118.012 298.988L118.911 299.348L119.271 299.527V296.648L119.631 290.891Z" fill="#CCDDFF"/>
<path d="M71.5055 203.232L85.7933 244.756L107.002 306.372L71.2822 317.535L34 306.372L71.5055 203.232Z" fill="#6698FA"/>
<path d="M69.274 283.601V276.903V273.108L63.4696 264.625L57.8884 255.918L60.3442 258.374L67.9346 266.411L69.7205 268.197L70.3903 249.444L71.06 231.808L71.5065 241.854L72.3995 269.313L76.4179 264.848L79.0969 262.392L83.1608 258.073L79.7666 263.509L72.1762 275.564L72.6227 286.726L73.0692 294.763L81.5526 289.182L85.7943 286.726L87.8035 285.387L89.8127 284.047L91.3755 283.824L89.5895 285.387L87.8035 287.396L83.7851 290.968L73.2925 299.228L73.5157 315.525L74.0453 321.999H67.7113L68.1578 299.005L65.2556 296.549L49.8516 282.931L59.0047 288.289L67.2648 293.647L68.381 294.093L68.8275 294.317V290.745L69.274 283.601Z" fill="#CCDDFF"/>
<g filter="url(#filter1_f_5010_2714)">
<rect x="65" y="320" width="58" height="8" fill="#0053F7"/>
</g>
<path d="M1238.23 265.511L1235.85 263.138L1234.51 261.794L1229.45 260.845L1224.39 259.738L1226.13 259.738L1231.66 259.896L1232.93 259.896L1226.52 253.016L1220.51 246.531L1224.23 249.932L1234.27 259.342L1234.11 256.337L1234.19 254.518L1234.1 251.549L1234.83 254.677L1236.41 261.636L1240.52 265.432L1243.53 268.12L1244.55 263.138L1245.19 260.766L1245.42 259.58L1245.66 258.393L1246.14 257.761L1246.06 258.947L1246.14 260.291L1245.98 262.98L1245.19 269.623L1251.04 275.317L1253.31 277.247C1253.42 277.342 1253.43 277.511 1253.33 277.615L1251.46 279.486C1251.36 279.585 1251.2 279.583 1251.1 279.483L1243.29 271.363L1241.39 271.521L1231.11 272.154L1236.25 270.809L1241.07 269.781L1241.63 269.544L1241.86 269.465L1240.6 268.2L1238.23 265.511Z" fill="#6698FA"/>
<path d="M1303.03 297.472C1300 334.116 1278.8 330.777 1269.02 330.777C1243.33 334.116 1236.34 316.486 1236.34 306.71C1236.34 278.994 1254.44 278.994 1264.21 278.994C1273.99 278.994 1296.04 265.796 1303.03 297.472Z" fill="url(#paint2_linear_5010_2714)"/>
<path d="M1293.09 271.466C1293.09 285.984 1275.86 290.642 1266.08 290.642C1241.47 291.496 1242.84 283.924 1241.47 275.658C1238.28 256.482 1254.44 251.679 1264.22 251.679C1273.99 251.679 1293.09 251.679 1293.09 271.466Z" fill="url(#paint3_linear_5010_2714)"/>
<path d="M1281.83 257.34C1278.18 267.587 1273.99 266.034 1264.21 266.034C1245.73 265.18 1248.5 258.348 1247.6 252.914C1246.22 244.648 1251.57 236 1261.34 236C1271.12 236 1288.24 239.347 1281.83 257.34Z" fill="url(#paint4_linear_5010_2714)"/>
<circle cx="1265.1" cy="244.753" r="2.08403" fill="url(#paint5_linear_5010_2714)"/>
<circle cx="1265.1" cy="244.753" r="2.08403" fill="url(#paint6_linear_5010_2714)"/>
<circle cx="1265.1" cy="244.753" r="2.08403" fill="url(#paint7_linear_5010_2714)"/>
<circle cx="1259.06" cy="278.186" r="1.33974" fill="url(#paint8_linear_5010_2714)"/>
<circle cx="1259.06" cy="278.186" r="1.33974" fill="url(#paint9_linear_5010_2714)"/>
<circle cx="1259.06" cy="278.186" r="1.33974" fill="url(#paint10_linear_5010_2714)"/>
<circle cx="1260.19" cy="272.351" r="1.33974" fill="url(#paint11_linear_5010_2714)"/>
<circle cx="1260.19" cy="272.351" r="1.33974" fill="url(#paint12_linear_5010_2714)"/>
<circle cx="1260.19" cy="272.351" r="1.33974" fill="url(#paint13_linear_5010_2714)"/>
<circle cx="1260.19" cy="283.011" r="1.33974" fill="url(#paint14_linear_5010_2714)"/>
<circle cx="1260.19" cy="283.011" r="1.33974" fill="url(#paint15_linear_5010_2714)"/>
<circle cx="1260.19" cy="283.011" r="1.33974" fill="url(#paint16_linear_5010_2714)"/>
<circle cx="1261.77" cy="297.271" r="2.08403" fill="url(#paint17_linear_5010_2714)"/>
<circle cx="1261.77" cy="297.271" r="2.08403" fill="url(#paint18_linear_5010_2714)"/>
<circle cx="1261.77" cy="297.271" r="2.08403" fill="url(#paint19_linear_5010_2714)"/>
<ellipse cx="1255.93" cy="242.669" rx="1.25042" ry="1.66723" fill="url(#paint20_linear_5010_2714)"/>
<ellipse cx="1255.93" cy="242.669" rx="1.25042" ry="1.66723" fill="url(#paint21_linear_5010_2714)"/>
<ellipse cx="1255.93" cy="242.669" rx="1.25042" ry="1.66723" fill="url(#paint22_linear_5010_2714)"/>
<g filter="url(#filter2_d_5010_2714)">
<path d="M1246.1 249.127C1245.51 249.233 1245.52 250.076 1246.11 250.168L1258.22 252.064C1258.4 252.091 1258.57 251.994 1258.64 251.83L1258.78 251.478C1259.36 250.067 1259.3 248.479 1258.63 247.111V247.111C1258.57 246.979 1258.42 246.905 1258.28 246.931L1246.1 249.127Z" fill="url(#paint23_linear_5010_2714)"/>
</g>
</g>
<defs>
<filter id="filter0_f_5010_2714" x="1031.5" y="282.5" width="225" height="118" filterUnits="userSpaceOnUse" color-interpolation-filters="sRGB">
<feFlood flood-opacity="0" result="BackgroundImageFix"/>
<feBlend mode="normal" in="SourceGraphic" in2="BackgroundImageFix" result="shape"/>
<feGaussianBlur stdDeviation="25.25" result="effect1_foregroundBlur_5010_2714"/>
</filter>
<filter id="filter1_f_5010_2714" x="8.3" y="263.3" width="171.4" height="121.4" filterUnits="userSpaceOnUse" color-interpolation-filters="sRGB">
<feFlood flood-opacity="0" result="BackgroundImageFix"/>
<feBlend mode="normal" in="SourceGraphic" in2="BackgroundImageFix" result="shape"/>
<feGaussianBlur stdDeviation="28.35" result="effect1_foregroundBlur_5010_2714"/>
</filter>
<filter id="filter2_d_5010_2714" x="1244.91" y="245.342" width="16.6834" height="8.31031" filterUnits="userSpaceOnUse" color-interpolation-filters="sRGB">
<feFlood flood-opacity="0" result="BackgroundImageFix"/>
<feColorMatrix in="SourceAlpha" type="matrix" values="0 0 0 0 0 0 0 0 0 0 0 0 0 0 0 0 0 0 127 0" result="hardAlpha"/>
<feOffset dx="0.833613"/>
<feGaussianBlur stdDeviation="0.791933"/>
<feComposite in2="hardAlpha" operator="out"/>
<feColorMatrix type="matrix" values="0 0 0 0 0 0 0 0 0 0 0 0 0 0 0 0 0 0 0.25 0"/>
<feBlend mode="normal" in2="BackgroundImageFix" result="effect1_dropShadow_5010_2714"/>
<feBlend mode="normal" in="SourceGraphic" in2="effect1_dropShadow_5010_2714" result="shape"/>
</filter>
<linearGradient id="paint0_linear_5010_2714" x1="588" y1="315" x2="620" y2="-14.5" gradientUnits="userSpaceOnUse">
<stop stop-color="#3568D4"/>
<stop offset="1" stop-color="#3568D4" stop-opacity="0.92"/>
</linearGradient>
<linearGradient id="paint1_linear_5010_2714" x1="640" y1="329.803" x2="640" y2="363.624" gradientUnits="userSpaceOnUse">
<stop stop-color="#CCDDFF"/>
<stop offset="1" stop-color="#F5F8FF"/>
</linearGradient>
<linearGradient id="paint2_linear_5010_2714" x1="1269.68" y1="276.268" x2="1269.68" y2="331.192" gradientUnits="userSpaceOnUse">
<stop stop-color="#9FBBFF"/>
<stop offset="1" stop-color="#F5F8FF"/>
</linearGradient>
<linearGradient id="paint3_linear_5010_2714" x1="1267.08" y1="251.679" x2="1264.08" y2="286.173" gradientUnits="userSpaceOnUse">
<stop stop-color="#F5F8FF"/>
<stop offset="1" stop-color="#BACFFF"/>
</linearGradient>
<linearGradient id="paint4_linear_5010_2714" x1="1265.31" y1="236" x2="1267.18" y2="269.345" gradientUnits="userSpaceOnUse">
<stop stop-color="#EBF0F9"/>
<stop offset="1" stop-color="#AFC7FF"/>
</linearGradient>
<linearGradient id="paint5_linear_5010_2714" x1="1265.1" y1="242.669" x2="1265.1" y2="246.837" gradientUnits="userSpaceOnUse">
<stop/>
<stop offset="1" stop-color="#515151"/>
</linearGradient>
<linearGradient id="paint6_linear_5010_2714" x1="1265.1" y1="242.669" x2="1265.1" y2="246.837" gradientUnits="userSpaceOnUse">
<stop/>
<stop offset="1" stop-color="#515151"/>
</linearGradient>
<linearGradient id="paint7_linear_5010_2714" x1="1265.1" y1="242.669" x2="1265.1" y2="246.837" gradientUnits="userSpaceOnUse">
<stop/>
<stop offset="1" stop-color="#515151"/>
</linearGradient>
<linearGradient id="paint8_linear_5010_2714" x1="1259.06" y1="276.847" x2="1259.06" y2="279.526" gradientUnits="userSpaceOnUse">
<stop/>
<stop offset="1" stop-color="#515151"/>
</linearGradient>
<linearGradient id="paint9_linear_5010_2714" x1="1259.06" y1="276.847" x2="1259.06" y2="279.526" gradientUnits="userSpaceOnUse">
<stop/>
<stop offset="1" stop-color="#515151"/>
</linearGradient>
<linearGradient id="paint10_linear_5010_2714" x1="1259.06" y1="276.847" x2="1259.06" y2="279.526" gradientUnits="userSpaceOnUse">
<stop/>
<stop offset="1" stop-color="#515151"/>
</linearGradient>
<linearGradient id="paint11_linear_5010_2714" x1="1260.19" y1="271.012" x2="1260.19" y2="273.691" gradientUnits="userSpaceOnUse">
<stop/>
<stop offset="1" stop-color="#515151"/>
</linearGradient>
<linearGradient id="paint12_linear_5010_2714" x1="1260.19" y1="271.012" x2="1260.19" y2="273.691" gradientUnits="userSpaceOnUse">
<stop/>
<stop offset="1" stop-color="#515151"/>
</linearGradient>
<linearGradient id="paint13_linear_5010_2714" x1="1260.19" y1="271.012" x2="1260.19" y2="273.691" gradientUnits="userSpaceOnUse">
<stop/>
<stop offset="1" stop-color="#515151"/>
</linearGradient>
<linearGradient id="paint14_linear_5010_2714" x1="1260.19" y1="281.671" x2="1260.19" y2="284.35" gradientUnits="userSpaceOnUse">
<stop/>
<stop offset="1" stop-color="#515151"/>
</linearGradient>
<linearGradient id="paint15_linear_5010_2714" x1="1260.19" y1="281.671" x2="1260.19" y2="284.35" gradientUnits="userSpaceOnUse">
<stop/>
<stop offset="1" stop-color="#515151"/>
</linearGradient>
<linearGradient id="paint16_linear_5010_2714" x1="1260.19" y1="281.671" x2="1260.19" y2="284.35" gradientUnits="userSpaceOnUse">
<stop/>
<stop offset="1" stop-color="#515151"/>
</linearGradient>
<linearGradient id="paint17_linear_5010_2714" x1="1261.77" y1="295.187" x2="1261.77" y2="299.355" gradientUnits="userSpaceOnUse">
<stop/>
<stop offset="1" stop-color="#515151"/>
</linearGradient>
<linearGradient id="paint18_linear_5010_2714" x1="1261.77" y1="295.187" x2="1261.77" y2="299.355" gradientUnits="userSpaceOnUse">
<stop/>
<stop offset="1" stop-color="#515151"/>
</linearGradient>
<linearGradient id="paint19_linear_5010_2714" x1="1261.77" y1="295.187" x2="1261.77" y2="299.355" gradientUnits="userSpaceOnUse">
<stop/>
<stop offset="1" stop-color="#515151"/>
</linearGradient>
<linearGradient id="paint20_linear_5010_2714" x1="1255.93" y1="241.002" x2="1255.93" y2="244.336" gradientUnits="userSpaceOnUse">
<stop/>
<stop offset="1" stop-color="#515151"/>
</linearGradient>
<linearGradient id="paint21_linear_5010_2714" x1="1255.93" y1="241.002" x2="1255.93" y2="244.336" gradientUnits="userSpaceOnUse">
<stop/>
<stop offset="1" stop-color="#515151"/>
</linearGradient>
<linearGradient id="paint22_linear_5010_2714" x1="1255.93" y1="241.002" x2="1255.93" y2="244.336" gradientUnits="userSpaceOnUse">
<stop/>
<stop offset="1" stop-color="#515151"/>
</linearGradient>
<linearGradient id="paint23_linear_5010_2714" x1="1251.35" y1="252.11" x2="1251.35" y2="246.887" gradientUnits="userSpaceOnUse">
<stop stop-color="#E67D12"/>
<stop offset="1" stop-color="#F38B78"/>
</linearGradient>
<clipPath id="clip0_5010_2714">
<rect width="1280" height="403" fill="white"/>
</clipPath>
</defs>
</svg>
