<svg width="32" height="32" viewBox="0 0 32 32" fill="none" xmlns="http://www.w3.org/2000/svg">
<g id="Instagram Fill">
<g id="Vector">
<path fill-rule="evenodd" clip-rule="evenodd" d="M15.9974 2.66797C12.3761 2.66797 11.9227 2.68308 10.5005 2.74797C9.08095 2.81286 8.11117 3.03864 7.26317 3.36841C6.37428 3.70264 5.56806 4.22708 4.9014 4.90619C4.22337 5.57209 3.6986 6.37774 3.36362 7.26708C3.03562 8.11508 2.80895 9.08575 2.74406 10.5053C2.68006 11.9266 2.66406 12.3791 2.66406 16.0013C2.66406 19.6235 2.67917 20.076 2.74406 21.4982C2.80895 22.9177 3.03473 23.8875 3.36451 24.7355C3.69873 25.6244 4.22317 26.4306 4.90228 27.0973C5.5682 27.7753 6.37385 28.3001 7.26317 28.6351C8.11117 28.964 9.08095 29.1897 10.5005 29.2546C11.9227 29.3195 12.3761 29.3346 15.9974 29.3346C19.6187 29.3346 20.0721 29.3195 21.4943 29.2546C22.9138 29.1897 23.8836 28.964 24.7316 28.6342C25.6205 28.3 26.4267 27.7755 27.0934 27.0964C27.7714 26.4305 28.2962 25.6249 28.6312 24.7355C28.9601 23.8875 29.1858 22.9177 29.2507 21.4982C29.3156 20.076 29.3307 19.6226 29.3307 16.0013C29.3307 12.38 29.3156 11.9266 29.2507 10.5044C29.1858 9.08486 28.9601 8.11508 28.6303 7.26708C28.2955 6.37736 27.7708 5.57137 27.0925 4.9053C26.4266 4.22728 25.621 3.70251 24.7316 3.36752C23.8836 3.03952 22.913 2.81286 21.4934 2.74797C20.0721 2.68397 19.6196 2.66797 15.9974 2.66797ZM15.9974 5.07064C19.5574 5.07064 19.9796 5.08397 21.3858 5.14797C22.6854 5.20752 23.3912 5.42352 23.8614 5.60752C24.4836 5.84841 24.9281 6.13819 25.3947 6.60397C25.8614 7.07064 26.1503 7.51508 26.3912 8.1373C26.5743 8.60752 26.7912 9.3133 26.8507 10.6129C26.9147 12.0191 26.9281 12.4413 26.9281 16.0013C26.9281 19.5613 26.9147 19.9835 26.8507 21.3897C26.7912 22.6893 26.5752 23.3951 26.3912 23.8653C26.1778 24.4445 25.8373 24.9684 25.3947 25.3986C24.9646 25.8413 24.4406 26.1818 23.8614 26.3951C23.3912 26.5782 22.6854 26.7951 21.3858 26.8546C19.9796 26.9186 19.5583 26.932 15.9974 26.932C12.4365 26.932 12.0152 26.9186 10.609 26.8546C9.3094 26.7951 8.60362 26.5791 8.1334 26.3951C7.55425 26.1817 7.03029 25.8412 6.60006 25.3986C6.15755 24.9684 5.81707 24.4444 5.60362 23.8653C5.42051 23.3951 5.20362 22.6893 5.14406 21.3897C5.08006 19.9835 5.06673 19.5613 5.06673 16.0013C5.06673 12.4413 5.08006 12.0191 5.14406 10.6129C5.20362 9.3133 5.41962 8.60752 5.60362 8.1373C5.84451 7.51508 6.13428 7.07064 6.60006 6.60397C7.03023 6.16134 7.5542 5.82084 8.1334 5.60752C8.60362 5.42441 9.3094 5.20752 10.609 5.14797C12.0152 5.08397 12.4374 5.07064 15.9974 5.07064Z" fill="#6698FA"/>
<path fill-rule="evenodd" clip-rule="evenodd" d="M15.9974 20.4502C15.4132 20.4502 14.8347 20.3351 14.2949 20.1115C13.7551 19.888 13.2647 19.5603 12.8516 19.1471C12.4385 18.734 12.1108 18.2436 11.8872 17.7038C11.6636 17.1641 11.5485 16.5855 11.5485 16.0013C11.5485 15.4171 11.6636 14.8385 11.8872 14.2988C12.1108 13.759 12.4385 13.2686 12.8516 12.8555C13.2647 12.4423 13.7551 12.1146 14.2949 11.8911C14.8347 11.6675 15.4132 11.5524 15.9974 11.5524C17.1773 11.5524 18.3089 12.0211 19.1433 12.8555C19.9776 13.6898 20.4463 14.8214 20.4463 16.0013C20.4463 17.1812 19.9776 18.3128 19.1433 19.1471C18.3089 19.9815 17.1773 20.4502 15.9974 20.4502ZM15.9974 9.14797C14.1798 9.14797 12.4366 9.87001 11.1514 11.1553C9.86613 12.4405 9.14408 14.1837 9.14408 16.0013C9.14408 17.8189 9.86613 19.5621 11.1514 20.8473C12.4366 22.1326 14.1798 22.8546 15.9974 22.8546C17.815 22.8546 19.5582 22.1326 20.8435 20.8473C22.1287 19.5621 22.8507 17.8189 22.8507 16.0013C22.8507 14.1837 22.1287 12.4405 20.8435 11.1553C19.5582 9.87001 17.815 9.14797 15.9974 9.14797ZM24.8445 9.02352C24.8445 9.45318 24.6739 9.86523 24.37 10.169C24.0662 10.4728 23.6542 10.6435 23.2245 10.6435C22.7949 10.6435 22.3828 10.4728 22.079 10.169C21.7752 9.86523 21.6045 9.45318 21.6045 9.02352C21.6045 8.59387 21.7752 8.18182 22.079 7.87801C22.3828 7.5742 22.7949 7.40352 23.2245 7.40352C23.6542 7.40352 24.0662 7.5742 24.37 7.87801C24.6739 8.18182 24.8445 8.59387 24.8445 9.02352Z" fill="#6698FA"/>
</g>
</g>
</svg>
