<svg width="48" height="48" viewBox="0 0 48 48" fill="none" xmlns="http://www.w3.org/2000/svg">
<rect x="0.564103" y="0.564103" width="46.8718" height="46.8718" rx="4.4359" fill="white"/>
<rect x="0.564103" y="0.564103" width="46.8718" height="46.8718" rx="4.4359" stroke="#6698FA" stroke-width="1.12821"/>
<path d="M37.3346 12.6278V35.3729C37.3346 35.8929 37.1281 36.3916 36.7603 36.7594C36.3926 37.1271 35.8939 37.3337 35.3739 37.3337H12.6288C12.1087 37.3337 11.61 37.1271 11.2423 36.7594C10.8746 36.3916 10.668 35.8929 10.668 35.3729V12.6278C10.668 12.1077 10.8746 11.609 11.2423 11.2413C11.61 10.8736 12.1087 10.667 12.6288 10.667H35.3739C35.8939 10.667 36.3926 10.8736 36.7603 11.2413C37.1281 11.609 37.3346 12.1077 37.3346 12.6278V12.6278ZM18.5111 20.8631H14.5895V33.4121H18.5111V20.8631ZM18.864 16.5493C18.8661 16.2527 18.8097 15.9586 18.6981 15.6837C18.5865 15.4089 18.4219 15.1587 18.2136 14.9475C18.0053 14.7363 17.7574 14.5682 17.4841 14.4528C17.2109 14.3373 16.9175 14.2769 16.6209 14.2748H16.5503C15.9471 14.2748 15.3686 14.5145 14.942 14.941C14.5154 15.3676 14.2758 15.9461 14.2758 16.5493C14.2758 17.1526 14.5154 17.7311 14.942 18.1577C15.3686 18.5842 15.9471 18.8239 16.5503 18.8239V18.8239C16.847 18.8312 17.1422 18.7799 17.419 18.6731C17.6959 18.5663 17.949 18.406 18.1638 18.2013C18.3787 17.9966 18.5511 17.7516 18.6713 17.4803C18.7914 17.2089 18.8569 16.9166 18.864 16.6199V16.5493ZM33.4131 25.7886C33.4131 22.016 31.0131 20.5493 28.6288 20.5493C27.8481 20.5103 27.0708 20.6765 26.3744 21.0316C25.6781 21.3866 25.087 21.9181 24.6601 22.5729H24.5503V20.8631H20.864V33.4121H24.7856V26.7376C24.7289 26.054 24.9443 25.3757 25.3848 24.8499C25.8254 24.3242 26.4556 23.9935 27.1386 23.9297H27.2876C28.5346 23.9297 29.4601 24.7141 29.4601 26.6905V33.4121H33.3817L33.4131 25.7886Z" fill="#5B8DEF"/>
</svg>
