<svg width="121" height="52" viewBox="0 0 121 52" fill="none" xmlns="http://www.w3.org/2000/svg">
<rect x="0.5" y="0.5" width="120" height="51" rx="3.5" fill="white"/>
<rect x="0.5" y="0.5" width="120" height="51" rx="3.5" stroke="#6698FA"/>
<path d="M29.4093 26.2471C29.4093 29.6973 26.6314 32.4944 23.2045 32.4944C19.7777 32.4944 17 29.6982 17 26.2471C17 22.796 19.7779 20 23.2045 20C26.6312 20 29.4093 22.7969 29.4093 26.2471ZM36.216 26.2471C36.216 29.4951 34.8269 32.1278 33.1136 32.1278C31.4003 32.1278 30.0112 29.4942 30.0112 26.2471C30.0112 23 31.4003 20.3664 33.1136 20.3664C34.8269 20.3664 36.216 23 36.216 26.2471ZM39 26.2471C39 29.1571 38.5114 31.516 37.9088 31.516C37.3063 31.516 36.8177 29.1563 36.8177 26.2471C36.8177 23.3379 37.3063 20.9782 37.9091 20.9782C38.5118 20.9782 39 23.3373 39 26.2471Z" fill="#5B8DEF"/>
<path d="M48.966 21.004H52.06L54.398 27.878H54.426L56.638 21.004H59.732V31H57.674V23.916H57.646L55.196 31H53.502L51.052 23.986H51.024V31H48.966V21.004ZM66.8292 26.604C66.7358 26.1 66.5678 25.7173 66.3252 25.456C66.0918 25.1947 65.7325 25.064 65.2472 25.064C64.9298 25.064 64.6638 25.12 64.4492 25.232C64.2438 25.3347 64.0758 25.4653 63.9452 25.624C63.8238 25.7827 63.7352 25.9507 63.6792 26.128C63.6325 26.3053 63.6045 26.464 63.5952 26.604H66.8292ZM63.5952 27.864C63.6232 28.508 63.7865 28.9747 64.0852 29.264C64.3838 29.5533 64.8132 29.698 65.3732 29.698C65.7745 29.698 66.1198 29.6 66.4092 29.404C66.6985 29.1987 66.8758 28.984 66.9412 28.76H68.6912C68.4112 29.628 67.9818 30.2487 67.4032 30.622C66.8245 30.9953 66.1245 31.182 65.3032 31.182C64.7338 31.182 64.2205 31.0933 63.7632 30.916C63.3058 30.7293 62.9185 30.468 62.6012 30.132C62.2838 29.796 62.0365 29.3947 61.8592 28.928C61.6912 28.4613 61.6072 27.948 61.6072 27.388C61.6072 26.8467 61.6958 26.3427 61.8732 25.876C62.0505 25.4093 62.3025 25.008 62.6292 24.672C62.9558 24.3267 63.3432 24.056 63.7912 23.86C64.2485 23.664 64.7525 23.566 65.3032 23.566C65.9192 23.566 66.4558 23.6873 66.9132 23.93C67.3705 24.1633 67.7438 24.4807 68.0332 24.882C68.3318 25.2833 68.5465 25.7407 68.6772 26.254C68.8078 26.7673 68.8545 27.304 68.8172 27.864H63.5952ZM75.6342 27.36C75.6342 27.0613 75.6062 26.7767 75.5502 26.506C75.4942 26.226 75.3962 25.9833 75.2562 25.778C75.1256 25.5633 74.9529 25.3907 74.7382 25.26C74.5236 25.1293 74.2529 25.064 73.9262 25.064C73.5996 25.064 73.3242 25.1293 73.1002 25.26C72.8762 25.3907 72.6942 25.5633 72.5542 25.778C72.4236 25.9927 72.3256 26.24 72.2602 26.52C72.2042 26.7907 72.1762 27.0753 72.1762 27.374C72.1762 27.654 72.2089 27.934 72.2742 28.214C72.3396 28.494 72.4422 28.746 72.5822 28.97C72.7316 29.1847 72.9136 29.362 73.1282 29.502C73.3522 29.6327 73.6182 29.698 73.9262 29.698C74.2529 29.698 74.5236 29.6327 74.7382 29.502C74.9622 29.3713 75.1396 29.1987 75.2702 28.984C75.4009 28.76 75.4942 28.508 75.5502 28.228C75.6062 27.948 75.6342 27.6587 75.6342 27.36ZM75.6622 30.076H75.6342C75.4009 30.468 75.0929 30.7527 74.7102 30.93C74.3369 31.098 73.9122 31.182 73.4362 31.182C72.8949 31.182 72.4189 31.0793 72.0082 30.874C71.5976 30.6593 71.2569 30.3747 70.9862 30.02C70.7249 29.656 70.5242 29.2407 70.3842 28.774C70.2536 28.3073 70.1882 27.822 70.1882 27.318C70.1882 26.8327 70.2536 26.366 70.3842 25.918C70.5242 25.4607 70.7249 25.0593 70.9862 24.714C71.2569 24.3687 71.5929 24.0933 71.9942 23.888C72.3956 23.6733 72.8622 23.566 73.3942 23.566C73.8236 23.566 74.2296 23.6593 74.6122 23.846C75.0042 24.0233 75.3122 24.2893 75.5362 24.644H75.5642V21.004H77.5522V31H75.6622V30.076ZM81.5988 22.642H79.6108V21.004H81.5988V22.642ZM79.6108 23.762H81.5988V31H79.6108V23.762ZM90.4542 31H88.5642V29.992H88.5222C88.2702 30.412 87.9435 30.7153 87.5422 30.902C87.1409 31.0887 86.7302 31.182 86.3102 31.182C85.7782 31.182 85.3395 31.112 84.9942 30.972C84.6582 30.832 84.3922 30.636 84.1962 30.384C84.0002 30.1227 83.8602 29.81 83.7762 29.446C83.7015 29.0727 83.6642 28.662 83.6642 28.214V23.762H85.6522V27.85C85.6522 28.4473 85.7455 28.8953 85.9322 29.194C86.1189 29.4833 86.4502 29.628 86.9262 29.628C87.4675 29.628 87.8595 29.4693 88.1022 29.152C88.3449 28.8253 88.4662 28.2933 88.4662 27.556V23.762H90.4542V31ZM92.519 23.762H94.395V24.742H94.423C94.6844 24.3687 94.997 24.0793 95.361 23.874C95.7344 23.6687 96.159 23.566 96.635 23.566C97.0924 23.566 97.5077 23.6547 97.881 23.832C98.2637 24.0093 98.553 24.322 98.749 24.77C98.9637 24.4527 99.253 24.1727 99.617 23.93C99.9904 23.6873 100.429 23.566 100.933 23.566C101.316 23.566 101.67 23.6127 101.997 23.706C102.324 23.7993 102.604 23.9487 102.837 24.154C103.07 24.3593 103.252 24.63 103.383 24.966C103.514 25.2927 103.579 25.6893 103.579 26.156V31H101.591V26.898C101.591 26.6553 101.582 26.4267 101.563 26.212C101.544 25.9973 101.493 25.8107 101.409 25.652C101.325 25.4933 101.199 25.3673 101.031 25.274C100.872 25.1807 100.653 25.134 100.373 25.134C100.093 25.134 99.8644 25.19 99.687 25.302C99.519 25.4047 99.3837 25.5447 99.281 25.722C99.1877 25.89 99.1224 26.086 99.085 26.31C99.057 26.5247 99.043 26.744 99.043 26.968V31H97.055V26.94C97.055 26.7253 97.0504 26.5153 97.041 26.31C97.0317 26.0953 96.9897 25.8993 96.915 25.722C96.8497 25.5447 96.733 25.4047 96.565 25.302C96.4064 25.19 96.1684 25.134 95.851 25.134C95.7577 25.134 95.6317 25.1573 95.473 25.204C95.3237 25.2413 95.1744 25.3207 95.025 25.442C94.885 25.554 94.7637 25.722 94.661 25.946C94.5584 26.1607 94.507 26.4453 94.507 26.8V31H92.519V23.762Z" fill="#6698FA"/>
</svg>
