<svg width="40" height="40" viewBox="0 0 40 40" fill="none" xmlns="http://www.w3.org/2000/svg">
<g id="Group">
<path id="Vector" d="M20.192 39.554C16.363 39.554 12.6199 38.4186 9.4362 36.2912C6.25246 34.1639 3.77105 31.1403 2.30573 27.6027C0.84042 24.0652 0.457027 20.1725 1.20404 16.417C1.95105 12.6616 3.79491 9.21195 6.50245 6.50441C9.21 3.79686 12.6596 1.953 16.4151 1.20599C20.1706 0.45898 24.0632 0.842373 27.6008 2.30769C31.1384 3.773 34.162 6.25442 36.2893 9.43815C38.4166 12.6219 39.552 16.3649 39.552 20.194C39.5424 25.3256 37.4995 30.2443 33.8709 33.8729C30.2423 37.5015 25.3237 39.5443 20.192 39.554ZM20.192 3.58399C16.9069 3.58399 13.6955 4.55815 10.964 6.38328C8.23252 8.20841 6.10357 10.8025 4.8464 13.8376C3.58923 16.8727 3.2603 20.2124 3.9012 23.4344C4.5421 26.6565 6.12405 29.6161 8.447 31.939C10.7699 34.262 13.7296 35.8439 16.9516 36.4848C20.1736 37.1257 23.5133 36.7968 26.5484 35.5396C29.5835 34.2825 32.1776 32.1535 34.0028 29.422C35.8279 26.6905 36.802 23.4791 36.802 20.194C36.802 15.7887 35.0521 11.5639 31.9371 8.44895C28.8221 5.33397 24.5973 3.58399 20.192 3.58399Z" fill="#5B8DEF"/>
<path id="Vector_2" d="M13.0586 27.8926C11.9708 27.8926 10.9074 27.57 10.003 26.9657C9.09849 26.3613 8.39354 25.5023 7.97726 24.4973C7.56098 23.4923 7.45206 22.3865 7.66428 21.3196C7.8765 20.2527 8.40032 19.2727 9.16951 18.5035C9.9387 17.7343 10.9187 17.2105 11.9856 16.9983C13.0525 16.786 14.1584 16.895 15.1634 17.3112C16.1684 17.7275 17.0273 18.4325 17.6317 19.3369C18.236 20.2414 18.5586 21.3048 18.5586 22.3926C18.5586 23.8513 17.9791 25.2502 16.9477 26.2817C15.9162 27.3131 14.5173 27.8926 13.0586 27.8926ZM13.0586 19.6426C12.5147 19.6426 11.983 19.8039 11.5308 20.106C11.0785 20.4082 10.7261 20.8377 10.5179 21.3402C10.3098 21.8427 10.2553 22.3956 10.3614 22.9291C10.4675 23.4625 10.7295 23.9525 11.1141 24.3371C11.4986 24.7217 11.9887 24.9836 12.5221 25.0897C13.0555 25.1959 13.6085 25.1414 14.111 24.9332C14.6135 24.7251 15.043 24.3726 15.3451 23.9204C15.6473 23.4682 15.8086 22.9365 15.8086 22.3926C15.8038 21.6647 15.5125 20.968 14.9978 20.4533C14.4831 19.9387 13.7865 19.6474 13.0586 19.6426Z" fill="#5B8DEF"/>
<path id="Vector_3" d="M27.3242 27.8926C26.2364 27.8926 25.1731 27.57 24.2686 26.9657C23.3641 26.3613 22.6592 25.5023 22.2429 24.4973C21.8266 23.4923 21.7177 22.3865 21.9299 21.3196C22.1421 20.2527 22.6659 19.2727 23.4351 18.5035C24.2043 17.7343 25.1843 17.2105 26.2512 16.9983C27.3181 16.786 28.424 16.895 29.429 17.3112C30.434 17.7275 31.293 18.4325 31.8973 19.3369C32.5017 20.2414 32.8242 21.3048 32.8242 22.3926C32.8242 23.8513 32.2448 25.2502 31.2133 26.2817C30.1819 27.3131 28.7829 27.8926 27.3242 27.8926ZM27.3242 19.6426C26.7803 19.6426 26.2486 19.8039 25.7964 20.106C25.3442 20.4082 24.9917 20.8377 24.7836 21.3402C24.5754 21.8427 24.521 22.3956 24.6271 22.9291C24.7332 23.4625 24.9951 23.9525 25.3797 24.3371C25.7643 24.7217 26.2543 24.9836 26.7877 25.0897C27.3212 25.1959 27.8741 25.1414 28.3766 24.9332C28.8791 24.7251 29.3086 24.3726 29.6108 23.9204C29.9129 23.4682 30.0742 22.9365 30.0742 22.3926C30.0742 21.6632 29.7845 20.9638 29.2688 20.448C28.753 19.9323 28.0536 19.6426 27.3242 19.6426Z" fill="#5B8DEF"/>
<path id="Vector_4" d="M2.62936 17.6456C2.27866 17.6607 1.93548 17.5411 1.67014 17.3113C1.40479 17.0815 1.23739 16.7589 1.20223 16.4096C1.16707 16.0604 1.26682 15.7109 1.48103 15.4328C1.69524 15.1547 2.00769 14.9691 2.35436 14.914C2.55602 14.8773 22.2094 10.624 27.526 3.45564C27.7397 3.1865 28.0464 3.00711 28.3857 2.95282C28.725 2.89853 29.0724 2.97326 29.3594 3.16231C29.625 3.37844 29.8018 3.68483 29.8559 4.023C29.91 4.36117 29.8377 4.70742 29.6527 4.99564C23.8594 13.099 3.69269 17.4256 2.92269 17.609L2.62936 17.6456Z" fill="#5B8DEF"/>
<path id="Vector_5" d="M33.0235 14.6937C28.3946 14.5457 23.8327 13.5451 19.5668 11.742C19.2358 11.5866 18.9791 11.3073 18.8522 10.9643C18.7253 10.6213 18.7383 10.2422 18.8885 9.90871C18.9636 9.74314 19.0707 9.59411 19.2038 9.47023C19.3368 9.34635 19.4931 9.25009 19.6636 9.187C19.8341 9.12392 20.0154 9.09527 20.1971 9.10272C20.3787 9.11016 20.5571 9.15355 20.7218 9.23037C20.7218 9.23037 29.3568 12.8604 36.3968 11.5587C36.5739 11.5244 36.7561 11.5257 36.9327 11.5626C37.1093 11.5995 37.2768 11.6713 37.4253 11.7737C37.5739 11.8762 37.7005 12.0072 37.7977 12.1592C37.895 12.3111 37.961 12.4809 37.9918 12.6587C38.0263 12.8369 38.0252 13.0202 37.9885 13.198C37.9517 13.3758 37.8802 13.5446 37.7779 13.6945C37.6757 13.8445 37.5447 13.9728 37.3926 14.0719C37.2405 14.171 37.0703 14.239 36.8918 14.272C35.6188 14.5358 34.3234 14.677 33.0235 14.6937Z" fill="#5B8DEF"/>
<path id="Vector_6" d="M23.1969 23.8594H17.1836C16.8189 23.8594 16.4692 23.7145 16.2113 23.4566C15.9535 23.1988 15.8086 22.849 15.8086 22.4844C15.8086 22.1197 15.9535 21.77 16.2113 21.5121C16.4692 21.2542 16.8189 21.1094 17.1836 21.1094H23.1969C23.5616 21.1094 23.9113 21.2542 24.1692 21.5121C24.4271 21.77 24.5719 22.1197 24.5719 22.4844C24.5719 22.849 24.4271 23.1988 24.1692 23.4566C23.9113 23.7145 23.5616 23.8594 23.1969 23.8594Z" fill="#5B8DEF"/>
<path id="Vector_7" d="M8.93713 23.8594H2.35547C1.9908 23.8594 1.64106 23.7145 1.3832 23.4566C1.12533 23.1988 0.980469 22.849 0.980469 22.4844C0.980469 22.1197 1.12533 21.77 1.3832 21.5121C1.64106 21.2542 1.9908 21.1094 2.35547 21.1094H8.93713C9.30181 21.1094 9.65154 21.2542 9.90941 21.5121C10.1673 21.77 10.3121 22.1197 10.3121 22.4844C10.3121 22.849 10.1673 23.1988 9.90941 23.4566C9.65154 23.7145 9.30181 23.8594 8.93713 23.8594Z" fill="#5B8DEF"/>
<path id="Vector_8" d="M38.0492 23.8594H31.4492C31.0845 23.8594 30.7348 23.7145 30.4769 23.4566C30.2191 23.1988 30.0742 22.849 30.0742 22.4844C30.0742 22.1197 30.2191 21.77 30.4769 21.5121C30.7348 21.2542 31.0845 21.1094 31.4492 21.1094H38.0492C38.4139 21.1094 38.7636 21.2542 39.0215 21.5121C39.2794 21.77 39.4242 22.1197 39.4242 22.4844C39.4242 22.849 39.2794 23.1988 39.0215 23.4566C38.7636 23.7145 38.4139 23.8594 38.0492 23.8594Z" fill="#5B8DEF"/>
</g>
</svg>
