<svg width="3000" height="1095" viewBox="0 0 3000 1095" fill="none" xmlns="http://www.w3.org/2000/svg" preserveAspectRatio="none">
<rect y="0.234375" width="3000" height="1094.53" fill="#3568D4"/>
<path d="M1649.94 950.624L1650.12 950.632L1650.29 950.587L2128.3 826.399L2773.88 795.936L2774.58 795.903L2774.88 795.278L2998.83 334.622V1093.59H1230.47H662.811L1195.46 928.368L1649.94 950.624Z" fill="#3E7BFA" stroke="#28293D" stroke-width="2.34375"/>
<path d="M2710.73 1068.96L2506.99 1007.96L2711.94 444.372L2789.52 669.863L2905.9 1007.97L2710.73 1068.96Z" fill="#6698FA" stroke="black" stroke-width="2.34375"/>
<path d="M2699.67 883.351V846.477V825.581L2667.72 778.874L2636.99 730.937L2650.51 744.457L2692.3 788.707L2702.13 798.54L2705.82 695.291L2709.51 598.188L2711.97 653.5L2716.88 804.686L2739.01 780.103L2753.76 766.582L2776.13 742.801L2757.44 772.728L2715.65 839.102L2718.11 900.559L2720.57 944.809L2767.28 914.08L2790.63 900.559L2801.69 893.185L2812.76 885.81L2821.36 884.581L2811.53 893.185L2801.69 904.247L2779.57 923.913L2721.8 969.392L2723.03 1059.12L2725.94 1094.77H2691.07L2693.53 968.163L2677.55 954.642L2592.74 879.664L2643.13 909.164L2688.61 938.663L2694.76 941.121L2697.22 942.351V922.684L2699.67 883.351Z" fill="#CCDDFF"/>
<path d="M2696.84 1039.13L2825.33 685.779L2873.79 826.627L2873.79 826.627L2946.94 1039.13L2824.58 1077.37L2696.84 1039.13Z" fill="#6698FA" stroke="black" stroke-width="2.34375"/>
<path d="M2817.61 960.936V937.714V924.554L2797.48 895.139L2778.13 864.95L2786.64 873.465L2812.96 901.332L2819.16 907.525L2821.48 842.501L2823.8 781.349L2825.35 816.182L2828.44 911.395L2842.38 895.913L2851.67 887.398L2865.76 872.422L2853.99 891.269L2827.67 933.069L2829.22 971.774L2830.77 999.641L2860.18 980.289L2874.89 971.774L2881.86 967.129L2888.82 962.485L2894.24 961.71L2888.05 967.129L2881.86 974.096L2867.92 986.481L2831.54 1015.12L2832.31 1071.63L2834.15 1094.08H2812.19L2813.74 1014.35L2803.67 1005.83L2750.26 958.614L2782 977.192L2810.64 995.77L2814.51 997.318L2816.06 998.092V985.707L2817.61 960.936Z" fill="#CCDDFF"/>
<path d="M2670.93 762.846L2670.93 762.846L2761.77 1026.78L2609.6 1074.33L2450.74 1026.77L2610.54 587.341L2670.93 762.846Z" fill="#6698FA" stroke="#28293D" stroke-width="2.34375"/>
<path d="M2600.96 929.573V900.761V884.434L2575.99 847.938L2551.98 810.482L2562.55 821.047L2595.2 855.622L2602.88 863.305L2605.76 782.63L2608.65 706.758L2610.57 749.976L2614.41 868.107L2631.7 848.899L2643.22 838.334L2660.7 819.753L2646.1 843.136L2613.45 894.998L2615.37 943.019L2617.29 977.594L2653.78 953.583L2672.03 943.019L2680.68 937.256L2689.32 931.494L2696.04 930.534L2688.36 937.256L2680.68 945.9L2663.39 961.267L2618.25 996.802L2619.21 1066.91L2621.49 1094.76H2594.24L2596.16 995.842L2583.67 985.277L2517.41 926.692L2556.78 949.742L2592.32 972.792L2597.12 974.712L2599.04 975.673V960.306L2600.96 929.573Z" fill="#CCDDFF"/>
<path d="M1623.81 935.678C1623.74 935.242 1624.08 934.844 1624.52 934.844H1629.86C1630.28 934.844 1630.61 935.201 1630.57 935.617L1630.1 941.271V946.577C1630.1 946.61 1630.1 946.644 1630.11 946.678L1632.12 960.759C1632.18 961.207 1631.82 961.6 1631.37 961.573L1628.36 961.396C1627.98 961.374 1627.69 961.062 1627.69 960.684V954.747C1627.69 954.69 1627.68 954.634 1627.67 954.579L1625.55 945.824L1623.81 935.678Z" fill="#355BAD"/>
<path d="M1595.17 899.014C1594.28 898.228 1593.96 896.967 1594.38 895.851L1596.44 890.43C1596.56 890.106 1596.63 889.763 1596.63 889.417V881.916C1596.63 880.913 1597.15 879.983 1598.01 879.467L1602.25 876.926C1603.59 876.123 1605.32 876.543 1606.14 877.869L1608.87 882.254C1609.25 882.87 1609.92 883.245 1610.65 883.245V883.245C1611.55 883.245 1612.35 883.823 1612.64 884.679L1615.81 894.194C1616.04 894.901 1616.55 895.488 1617.21 895.829L1632.63 903.782C1633.08 904.013 1633.58 904.121 1634.08 904.096L1654.13 903.106C1654.7 903.078 1655.27 903.222 1655.76 903.52L1664.97 909.137C1665.62 909.535 1666.09 910.176 1666.26 910.919L1669.26 923.615C1669.4 924.183 1669.35 924.779 1669.14 925.322L1665.25 935.15C1665.04 935.705 1664.99 936.315 1665.14 936.893L1667.12 944.806C1667.25 945.353 1667.23 945.928 1667.04 946.459L1664.79 952.75C1664.7 953.011 1664.64 953.284 1664.63 953.561L1663.95 966.473C1663.89 967.558 1662.99 968.408 1661.91 968.408V968.408C1660.67 968.408 1659.71 967.313 1659.88 966.084L1660.9 958.767V946.984C1660.9 946.458 1660.75 945.943 1660.48 945.494L1655.84 937.903C1655.45 937.267 1654.54 937.248 1654.12 937.869V937.869C1654 938.049 1653.94 938.263 1653.95 938.479L1654.17 943.451C1654.19 944.008 1654.38 944.547 1654.71 944.999L1656.98 948.147C1657.43 948.773 1657.61 949.555 1657.48 950.316L1656.88 953.679L1655.54 963.052L1655.12 970.286C1655.06 971.337 1654.19 972.158 1653.13 972.158V972.158C1651.98 972.158 1651.06 971.175 1651.15 970.022L1652.01 958.346C1652.05 957.918 1651.98 957.489 1651.82 957.09L1649.3 950.666C1649.18 950.356 1649 950.07 1648.78 949.82L1641.08 941.092L1637.38 935.87C1636.85 935.114 1635.98 934.664 1635.05 934.664H1630.37H1623.17C1622.16 934.664 1621.22 935.204 1620.71 936.082L1618.06 940.609C1617.88 940.928 1617.76 941.28 1617.7 941.645L1615.95 953.895C1615.92 954.107 1615.87 954.316 1615.79 954.516L1614.66 957.457C1614.6 957.616 1614.55 957.78 1614.52 957.948L1613.87 961.347C1613.66 962.492 1612.65 963.32 1611.49 963.32V963.32C1610.1 963.32 1609 962.163 1609.06 960.779L1610.25 935.313C1610.27 934.886 1610.2 934.46 1610.03 934.067L1604.67 921.397C1604.49 920.965 1604.41 920.494 1604.46 920.026L1605.66 906.749C1605.71 906.264 1605.63 905.775 1605.43 905.33L1603.82 901.703C1603.12 900.144 1601.22 899.542 1599.75 900.407V900.407C1598.69 901.031 1597.34 900.909 1596.41 900.098L1595.17 899.014Z" fill="#9DBFF9"/>
<path d="M1607.15 878.4C1606.37 877.033 1606.83 875.286 1608.2 874.498L1612.39 872.084C1612.59 871.967 1612.8 871.876 1613.03 871.811L1619.34 870.008C1619.89 869.85 1620.48 869.863 1621.03 870.045L1627.05 872.053C1627.8 872.302 1628.41 872.85 1628.74 873.566L1631.27 879.037C1631.38 879.282 1631.46 879.543 1631.5 879.81L1632.11 883.909C1632.2 884.466 1632.11 885.035 1631.87 885.545L1628.8 892.103C1628.43 892.881 1627.74 893.454 1626.91 893.662L1623.38 894.545C1623.06 894.625 1622.72 894.548 1622.46 894.338L1622.05 894.003C1621.26 893.346 1621.95 892.071 1622.93 892.382V892.382C1623.23 892.474 1623.55 892.418 1623.79 892.231L1626.23 890.354C1626.66 890.026 1626.98 889.583 1627.17 889.077L1628.35 885.858C1628.61 885.156 1628.59 884.381 1628.28 883.698L1626.92 880.67C1626.56 879.872 1625.85 879.283 1625 879.071L1622.89 878.543C1622.35 878.408 1621.78 878.434 1621.26 878.618L1617.14 880.058C1616.85 880.159 1616.58 880.305 1616.34 880.49L1614 882.296C1613.5 882.68 1612.88 882.888 1612.25 882.888H1611.39C1610.37 882.888 1609.43 882.343 1608.92 881.459L1607.15 878.4Z" fill="#9DBFF9"/>
<path d="M1736.91 934.188C1736.81 933.591 1737.27 933.047 1737.88 933.047H1745.18C1745.75 933.047 1746.2 933.535 1746.15 934.105L1745.51 941.836V949.091C1745.51 949.137 1745.51 949.183 1745.52 949.229L1748.27 968.485C1748.36 969.096 1747.86 969.634 1747.24 969.598L1743.13 969.356C1742.61 969.325 1742.21 968.898 1742.21 968.381V960.263C1742.21 960.186 1742.2 960.108 1742.18 960.033L1739.28 948.062L1736.91 934.188Z" fill="#355BAD"/>
<path d="M1717.38 863.105L1725.75 858.278L1734.76 855.703L1744.41 858.921L1748.28 867.288L1749.24 873.724L1744.41 884.022L1737.98 885.631L1732.51 881.126L1738.62 883.057L1742.81 879.839L1745.06 873.724L1742.16 867.288L1737.01 866.001L1730.58 868.254L1726.39 871.472H1722.21L1717.38 863.105Z" fill="#9DBFF9"/>
<path d="M1702.58 864.069L1703.22 861.495L1706.44 859.242L1710.3 857.955L1713.84 859.564L1717.38 861.817L1706.44 867.931L1705.15 875.976L1699.04 878.551L1694.85 875.976L1694.53 869.862L1697.43 875.011H1699.36L1700.32 874.046L1701.61 871.149L1701.92 867.507L1702.58 864.069Z" fill="#9DBFF9"/>
<path d="M1702.26 890.458L1705.8 881.126V869.541L1715.45 863.748L1721.24 873.081H1724.46L1729.29 887.562L1749.89 898.182L1775.95 896.894L1789.15 904.94L1793.33 922.639L1787.86 936.477L1790.76 948.062L1787.54 957.073L1786.57 975.416H1781.42L1783.03 963.831V948.706L1775.95 937.121L1774.67 939.052L1774.99 946.453L1779.17 952.246L1778.21 957.717L1776.6 968.98L1775.95 979.922H1771.13L1772.41 962.544L1768.87 953.533L1759.22 942.592L1753.75 934.868H1746.35H1735.73L1731.22 942.592L1728.97 958.36L1727.36 962.544L1726.07 969.302H1720.6L1722.21 934.868L1715.13 918.134L1716.74 900.434L1712.88 891.746L1707.41 894.964L1702.26 890.458Z" fill="#9DBFF9"/>
<path d="M1786.88 904.94L1792.03 910.411L1793.32 913.307L1791.07 920.066L1789.46 916.204L1785.92 913.951L1786.24 911.055L1786.88 904.94Z" fill="#5B8DEF"/>
<path d="M1508.18 938.156L1524.47 924.574L1517.53 942.079V948.115L1519.64 968.035L1515.12 969.242L1512.7 964.111L1513.31 958.075L1510.59 949.926L1508.18 938.156Z" fill="#355BAD"/>
<path d="M1468.04 936.045H1485.55L1477.7 943.59L1469.25 948.721V956.266L1470.76 961.095L1473.17 967.735L1468.34 969.244L1466.23 965.32L1466.53 961.095L1462.01 952.644L1460.5 944.797L1468.04 936.045Z" fill="#355BAD"/>
<path d="M1459.28 903.449L1452.04 910.692L1448.72 919.746L1450.83 935.139L1448.12 943.589L1444.19 949.022L1443.59 958.68L1439.06 970.45H1445.4L1446.61 960.49L1452.34 950.531L1458.98 939.666L1467.73 936.648L1479.5 937.251L1495.5 933.931L1500.63 945.4L1501.84 954.152L1503.05 963.509V970.45L1509.69 971.054L1507.87 958.981V948.72L1509.08 938.157L1513.01 932.724L1521.15 927.895L1527.49 922.463L1532.62 913.107L1533.23 906.769V902.543L1533.83 898.318L1535.94 895.3L1539.56 894.998L1545.6 897.111L1548.02 894.998L1549.52 891.376L1541.38 880.813L1539.56 874.777L1536.55 871.457L1528.7 879.002L1523.57 878.097L1519.04 876.286L1519.95 882.624L1515.12 888.056L1500.63 894.093L1484.03 900.129L1470.45 901.336L1459.28 903.449Z" fill="#9DBFF9"/>
<path d="M1535.64 870.852L1528.26 864.559L1521.43 860.59L1512.92 861.876L1508.1 868.95L1506.03 874.745L1507.9 885.135L1512.83 887.757L1518.19 884.544L1512.82 885.259L1510.05 881.541L1509.44 875.48L1513.08 870.025L1517.54 869.737L1520.25 875.48L1524.47 876.586L1528.51 877.407L1531.72 874.745L1535.64 870.852Z" fill="#9DBFF9"/>
</svg>
