<svg width="430" height="499" viewBox="0 0 430 499" fill="none" xmlns="http://www.w3.org/2000/svg">
<g clip-path="url(#clip0_5212_2608)">
<rect width="430" height="408" fill="url(#paint0_linear_5212_2608)"/>
<path d="M0 408L94 401L184.5 408L255.5 405L325.5 403L351 406.5L395.5 405L430 408V499H0V408Z" fill="url(#paint1_linear_5212_2608)"/>
<path d="M340.951 396.057L239.651 365.727L341.552 85.4989L380.165 197.717L437.995 365.73L340.951 396.057Z" fill="#6698FA" stroke="#28293D"/>
<path d="M335.462 303.782V285.467V275.088L319.589 251.889L304.326 228.079L311.041 234.795L331.799 256.773L336.683 261.657L338.514 210.375L340.346 162.145L341.567 189.617L344.009 264.71L354.998 252.5L362.324 245.784L373.438 233.972L364.156 248.836L343.398 281.804L344.619 312.329L345.84 334.307L369.04 319.045L380.639 312.329L386.134 308.666L391.628 305.003L395.902 304.393L391.018 308.666L386.134 314.161L375.145 323.929L346.451 346.518L347.061 391.085L348.51 408.789H331.188L332.409 345.907L324.473 339.191L282.348 301.951L307.378 316.603L329.967 331.255L333.02 332.476L334.241 333.086V323.318L335.462 303.782Z" fill="#CCDDFF"/>
<path d="M401.953 398.324L322.944 374.669L402.42 156.108L432.49 243.499L432.963 243.336L432.49 243.499L477.64 374.672L401.953 398.324Z" fill="#6698FA" stroke="#28293D"/>
<path d="M397.661 326.338V312.027V303.918L385.259 285.791L373.333 267.187L378.58 272.434L394.799 289.607L398.616 293.423L400.047 253.353L401.478 215.668L402.432 237.134L404.34 295.808L412.926 286.268L418.651 281.021L427.334 271.791L420.082 283.406L403.863 309.165L404.817 333.016L405.771 350.189L423.898 338.264L432.961 333.016L437.255 330.154L441.548 327.292L444.887 326.815L441.071 330.154L437.255 334.448L428.668 342.08L406.248 359.73L406.725 394.553L407.856 408.387H394.322L395.276 359.253L389.075 354.006L356.16 324.907L375.718 336.356L393.368 347.804L395.753 348.758L396.707 349.235V341.603L397.661 326.338Z" fill="#CCDDFF"/>
<g filter="url(#filter0_f_5212_2608)">
<rect x="282" y="408" width="148" height="21" fill="#6698FA"/>
</g>
<path d="M351.36 357.758C351.36 357.758 362.977 356.383 370.619 362.344C378.261 368.305 384.834 393.219 384.681 405.141C384.528 417.063 380.095 423.024 368.938 427.915C357.78 432.806 336.993 430.972 325.376 427.304C313.76 423.635 309.939 410.796 310.092 403.918C310.245 397.04 317.887 389.092 320.485 387.411C323.084 385.729 330.42 382.214 334.089 376.711C337.757 371.208 343.107 359.286 351.36 357.758Z" fill="#0F4C81"/>
<mask id="mask0_5212_2608" style="mask-type:luminance" maskUnits="userSpaceOnUse" x="310" y="357" width="75" height="74">
<path d="M351.364 357.757C351.364 357.757 362.98 356.382 370.623 362.343C378.265 368.304 384.838 393.218 384.685 405.14C384.532 417.062 380.099 423.023 368.942 427.914C357.784 432.805 336.996 430.971 325.38 427.303C313.764 423.634 309.943 410.795 310.096 403.917C310.249 397.039 317.891 389.091 320.489 387.41C323.088 385.728 330.424 382.213 334.093 376.71C337.761 371.208 343.111 359.286 351.364 357.757Z" fill="white"/>
</mask>
<g mask="url(#mask0_5212_2608)">
<path opacity="0.13" d="M323.25 426.491C327.642 425.898 332.851 424.706 336.794 422.312C345.118 417.258 347.199 407.744 350.172 404.177C353.145 400.609 358.496 400.907 360.874 397.042C363.252 393.177 359.388 364.637 366.225 362.854C368.062 362.374 369.446 362.219 370.491 362.245C370.535 362.278 370.58 362.309 370.623 362.342C378.265 368.303 384.838 393.217 384.685 405.14C384.532 417.062 380.099 423.023 368.942 427.914C357.784 432.805 336.996 430.971 325.38 427.302C324.638 427.069 323.929 426.796 323.25 426.491Z" fill="black"/>
</g>
<path d="M351.36 357.758C351.36 357.758 362.977 356.383 370.619 362.344C378.261 368.305 384.834 393.219 384.681 405.141C384.528 417.063 380.095 423.024 368.938 427.915C357.78 432.806 336.993 430.972 325.376 427.304C313.76 423.635 309.939 410.796 310.092 403.918C310.245 397.04 317.887 389.092 320.485 387.411C323.084 385.729 330.42 382.214 334.089 376.711C337.757 371.208 343.107 359.286 351.36 357.758Z" stroke="#263238" stroke-width="0.445932" stroke-miterlimit="10" stroke-linecap="round" stroke-linejoin="round"/>
<path d="M355.935 363.146C355.935 363.146 363.516 364.596 364.854 365.933C366.191 367.271 371.766 388.23 371.766 388.23C371.766 388.23 369.313 387.561 367.083 388.453C364.854 389.345 364.631 391.686 364.408 392.801C364.185 393.916 364.073 396.814 364.073 396.814C364.073 396.814 341.539 394.801 336.745 393.686C331.951 392.572 324.656 392.059 324.656 392.059C324.656 392.059 336.983 364.261 338.878 363.258C340.773 362.255 348.689 362.143 349.803 362.366C350.918 362.589 355.935 363.146 355.935 363.146Z" fill="#263238" stroke="#263238" stroke-width="0.445932" stroke-miterlimit="10" stroke-linecap="round" stroke-linejoin="round"/>
<path d="M363.406 388.899L361.511 373.403" stroke="white" stroke-width="0.445932" stroke-miterlimit="10" stroke-linecap="round" stroke-linejoin="round"/>
<path d="M361.957 377.528L359.393 374.184" stroke="white" stroke-width="0.445932" stroke-miterlimit="10" stroke-linecap="round" stroke-linejoin="round"/>
<path d="M354.262 379.535C354.262 379.535 347.015 377.193 342.222 377.193" stroke="white" stroke-width="0.445932" stroke-miterlimit="10" stroke-linecap="round" stroke-linejoin="round"/>
<path d="M347.425 373.143L347.91 376.859C347.91 376.859 346.684 376.859 346.572 377.416C346.461 377.973 347.018 378.531 347.018 378.531C347.018 378.531 343.562 380.426 343.116 382.656" stroke="white" stroke-width="0.445932" stroke-miterlimit="10" stroke-linecap="round" stroke-linejoin="round"/>
<path d="M351.774 358.984C351.774 358.984 355.936 360.322 356.531 361.363C357.125 362.403 356.679 369.687 356.679 370.579C356.679 371.47 356.159 370.058 355.713 369.018C355.267 367.978 353.706 366.417 353.186 366.565C352.665 366.714 352.368 367.309 352.368 368.274C352.368 369.241 351.179 370.579 350.139 371.322C349.098 372.065 348.132 372.808 348.132 372.808C348.132 372.808 345.977 369.686 345.457 368.869C344.936 368.052 345.011 366.342 344.936 365.747C344.862 365.153 343.524 367.383 343.227 366.788C342.929 366.193 343.896 365.673 344.936 364.038C345.976 362.402 345.679 360.693 347.24 359.504C348.801 358.315 350.585 358.687 351.774 358.984Z" fill="white"/>
<mask id="mask1_5212_2608" style="mask-type:luminance" maskUnits="userSpaceOnUse" x="343" y="358" width="14" height="15">
<path d="M351.774 358.984C351.774 358.984 355.936 360.322 356.531 361.363C357.125 362.403 356.679 369.687 356.679 370.579C356.679 371.47 356.159 370.058 355.713 369.018C355.267 367.978 353.706 366.417 353.186 366.565C352.665 366.714 352.368 367.309 352.368 368.274C352.368 369.241 351.179 370.579 350.139 371.322C349.098 372.065 348.132 372.808 348.132 372.808C348.132 372.808 345.977 369.686 345.457 368.869C344.936 368.052 345.011 366.342 344.936 365.747C344.862 365.153 343.524 367.383 343.227 366.788C342.929 366.193 343.896 365.673 344.936 364.038C345.976 362.402 345.679 360.693 347.24 359.504C348.801 358.315 350.585 358.687 351.774 358.984Z" fill="white"/>
</mask>
<g mask="url(#mask1_5212_2608)">
<path d="M356.531 361.363C356.928 362.057 356.861 365.529 356.773 368.03C355.825 366.806 353.868 364.5 352.734 364.936C351.291 365.491 350.735 369.6 350.735 369.6L351.711 358.969C351.732 358.974 351.754 358.979 351.774 358.984C351.774 358.984 355.936 360.322 356.531 361.363Z" fill="#0F4C81"/>
</g>
<mask id="mask2_5212_2608" style="mask-type:luminance" maskUnits="userSpaceOnUse" x="343" y="358" width="14" height="15">
<path d="M351.774 358.984C351.774 358.984 355.936 360.322 356.531 361.363C357.125 362.403 356.679 369.687 356.679 370.579C356.679 371.47 356.159 370.058 355.713 369.018C355.267 367.978 353.706 366.417 353.186 366.565C352.665 366.714 352.368 367.309 352.368 368.274C352.368 369.241 351.179 370.579 350.139 371.322C349.098 372.065 348.132 372.808 348.132 372.808C348.132 372.808 345.977 369.686 345.457 368.869C344.936 368.052 345.011 366.342 344.936 365.747C344.862 365.153 343.524 367.383 343.227 366.788C342.929 366.193 343.896 365.673 344.936 364.038C345.976 362.402 345.679 360.693 347.24 359.504C348.801 358.315 350.585 358.687 351.774 358.984Z" fill="white"/>
</mask>
<g mask="url(#mask2_5212_2608)">
<path opacity="0.5" d="M356.531 361.363C356.928 362.057 356.861 365.529 356.773 368.03C355.825 366.806 353.868 364.5 352.734 364.936C351.291 365.491 350.735 369.6 350.735 369.6L351.711 358.969C351.732 358.974 351.754 358.979 351.774 358.984C351.774 358.984 355.936 360.322 356.531 361.363Z" fill="white"/>
</g>
<path d="M351.774 358.984C351.774 358.984 355.936 360.322 356.531 361.363C357.125 362.403 356.679 369.687 356.679 370.579C356.679 371.47 356.159 370.058 355.713 369.018C355.267 367.978 353.706 366.417 353.186 366.565C352.665 366.714 352.368 367.309 352.368 368.274C352.368 369.241 351.179 370.579 350.139 371.322C349.098 372.065 348.132 372.808 348.132 372.808C348.132 372.808 345.977 369.686 345.457 368.869C344.936 368.052 345.011 366.342 344.936 365.747C344.862 365.153 343.524 367.383 343.227 366.788C342.929 366.193 343.896 365.673 344.936 364.038C345.976 362.402 345.679 360.693 347.24 359.504C348.801 358.315 350.585 358.687 351.774 358.984Z" stroke="#263238" stroke-width="0.445932" stroke-miterlimit="10" stroke-linecap="round" stroke-linejoin="round"/>
<path d="M361.621 389.121C361.621 389.121 364.185 385.442 367.307 385.108C370.428 384.774 374.219 387.338 374.33 388.23C374.442 389.121 375.222 393.915 374.665 394.584C374.107 395.253 371.989 395.81 367.864 394.473C363.739 393.135 362.067 391.463 361.621 389.121Z" fill="white"/>
<mask id="mask3_5212_2608" style="mask-type:luminance" maskUnits="userSpaceOnUse" x="361" y="385" width="14" height="11">
<path d="M361.621 389.12C361.621 389.12 364.185 385.441 367.307 385.107C370.428 384.773 374.219 387.337 374.33 388.229C374.442 389.12 375.222 393.914 374.665 394.583C374.107 395.252 371.989 395.809 367.864 394.472C363.739 393.134 362.067 391.462 361.621 389.12Z" fill="white"/>
</mask>
<g mask="url(#mask3_5212_2608)">
<path d="M372.053 394.47C372.053 394.47 372.941 391.916 372.497 391.028C372.053 390.139 370.276 388.807 369.166 387.475C368.055 386.142 371.766 388.229 371.942 387.475C372.083 386.868 369.987 385.657 369.161 385.207C371.757 385.704 374.24 387.509 374.33 388.229C374.442 389.121 375.222 393.914 374.665 394.583C374.377 394.928 373.669 395.242 372.488 395.282C372.219 394.813 372.053 394.47 372.053 394.47Z" fill="#0F4C81"/>
</g>
<mask id="mask4_5212_2608" style="mask-type:luminance" maskUnits="userSpaceOnUse" x="361" y="385" width="14" height="11">
<path d="M361.621 389.12C361.621 389.12 364.185 385.441 367.307 385.107C370.428 384.773 374.219 387.337 374.33 388.229C374.442 389.12 375.222 393.914 374.665 394.583C374.107 395.252 371.989 395.809 367.864 394.472C363.739 393.134 362.067 391.462 361.621 389.12Z" fill="white"/>
</mask>
<g mask="url(#mask4_5212_2608)">
<path opacity="0.5" d="M372.053 394.47C372.053 394.47 372.941 391.916 372.497 391.028C372.053 390.139 370.276 388.807 369.166 387.475C368.055 386.142 371.766 388.229 371.942 387.475C372.083 386.868 369.987 385.657 369.161 385.207C371.757 385.704 374.24 387.509 374.33 388.229C374.442 389.121 375.222 393.914 374.665 394.583C374.377 394.928 373.669 395.242 372.488 395.282C372.219 394.813 372.053 394.47 372.053 394.47Z" fill="white"/>
</g>
<path d="M361.621 389.121C361.621 389.121 364.185 385.442 367.307 385.108C370.428 384.774 374.219 387.338 374.33 388.23C374.442 389.121 375.222 393.915 374.665 394.584C374.107 395.253 371.989 395.81 367.864 394.473C363.739 393.135 362.067 391.463 361.621 389.121Z" stroke="#263238" stroke-width="0.445932" stroke-miterlimit="10" stroke-linecap="round" stroke-linejoin="round"/>
<path d="M370.314 390.124C370.314 390.124 374.498 391.785 374.662 395.03C374.753 396.825 371.763 397.594 368.642 397.594C365.52 397.594 361.061 393.692 358.163 392.02C355.264 390.347 348.575 386.446 347.795 386.111C347.014 385.777 344.339 386.669 343.224 387.003C342.109 387.337 339.991 387.337 339.991 387.337C339.991 387.337 338.43 389.79 337.65 389.79C336.869 389.79 339.322 386.111 339.656 385.331C339.991 384.55 345.453 382.767 346.122 382.767C346.791 382.767 362.399 386.669 364.74 387.56C367.081 388.452 370.314 390.124 370.314 390.124Z" fill="white"/>
<mask id="mask5_5212_2608" style="mask-type:luminance" maskUnits="userSpaceOnUse" x="337" y="382" width="38" height="16">
<path d="M370.31 390.124C370.31 390.124 374.494 391.784 374.658 395.029C374.749 396.824 371.76 397.593 368.638 397.593C365.517 397.593 361.057 393.691 358.159 392.019C355.26 390.346 348.571 386.445 347.791 386.11C347.01 385.776 344.335 386.668 343.22 387.002C342.105 387.336 339.987 387.336 339.987 387.336C339.987 387.336 338.426 389.789 337.646 389.789C336.865 389.789 339.318 386.11 339.652 385.33C339.987 384.549 345.45 382.766 346.118 382.766C346.787 382.766 362.395 386.668 364.736 387.559C367.077 388.451 370.31 390.124 370.31 390.124Z" fill="white"/>
</mask>
<g mask="url(#mask5_5212_2608)">
<path d="M361.567 389.659C355.192 386.472 346.118 382.766 346.118 382.766C346.787 382.766 362.395 386.668 364.736 387.559C367.077 388.451 370.31 390.124 370.31 390.124C370.31 390.124 374.494 391.784 374.658 395.029C374.749 396.824 371.76 397.593 368.638 397.593C365.517 397.593 361.057 393.691 358.159 392.019C357.667 391.735 357.065 391.386 356.402 391.002C360.661 391.551 366.352 392.052 361.567 389.659Z" fill="#0F4C81"/>
</g>
<mask id="mask6_5212_2608" style="mask-type:luminance" maskUnits="userSpaceOnUse" x="337" y="382" width="38" height="16">
<path d="M370.31 390.124C370.31 390.124 374.494 391.784 374.658 395.029C374.749 396.824 371.76 397.593 368.638 397.593C365.517 397.593 361.057 393.691 358.159 392.019C355.26 390.346 348.571 386.445 347.791 386.11C347.01 385.776 344.335 386.668 343.22 387.002C342.105 387.336 339.987 387.336 339.987 387.336C339.987 387.336 338.426 389.789 337.646 389.789C336.865 389.789 339.318 386.11 339.652 385.33C339.987 384.549 345.45 382.766 346.118 382.766C346.787 382.766 362.395 386.668 364.736 387.559C367.077 388.451 370.31 390.124 370.31 390.124Z" fill="white"/>
</mask>
<g mask="url(#mask6_5212_2608)">
<path opacity="0.5" d="M361.567 389.659C355.192 386.472 346.118 382.766 346.118 382.766C346.787 382.766 362.395 386.668 364.736 387.559C367.077 388.451 370.31 390.124 370.31 390.124C370.31 390.124 374.494 391.784 374.658 395.029C374.749 396.824 371.76 397.593 368.638 397.593C365.517 397.593 361.057 393.691 358.159 392.019C357.667 391.735 357.065 391.386 356.402 391.002C360.661 391.551 366.352 392.052 361.567 389.659Z" fill="white"/>
</g>
<path d="M370.314 390.124C370.314 390.124 374.498 391.785 374.662 395.03C374.753 396.825 371.763 397.594 368.642 397.594C365.52 397.594 361.061 393.692 358.163 392.02C355.264 390.347 348.575 386.446 347.795 386.111C347.014 385.777 344.339 386.669 343.224 387.003C342.109 387.337 339.991 387.337 339.991 387.337C339.991 387.337 338.43 389.79 337.65 389.79C336.869 389.79 339.322 386.111 339.656 385.331C339.991 384.55 345.453 382.767 346.122 382.767C346.791 382.767 362.399 386.669 364.74 387.56C367.081 388.452 370.314 390.124 370.314 390.124Z" stroke="#263238" stroke-width="0.445932" stroke-miterlimit="10" stroke-linecap="round" stroke-linejoin="round"/>
<path d="M337.712 365.331L341.109 384.44L316.583 384.552L312.935 366.431C312.797 365.747 313.308 365.105 314.004 365.084L336.569 364.403C337.128 364.386 337.614 364.781 337.712 365.331Z" fill="white" stroke="#263238" stroke-width="0.445932" stroke-miterlimit="10" stroke-linecap="round" stroke-linejoin="round"/>
<path d="M341.112 384.439L353.055 392.886L325.741 392.106L316.586 384.551L341.112 384.439Z" fill="white"/>
<mask id="mask7_5212_2608" style="mask-type:luminance" maskUnits="userSpaceOnUse" x="316" y="384" width="38" height="9">
<path d="M341.112 384.439L353.055 392.886L325.741 392.106L316.586 384.551L341.112 384.439Z" fill="white"/>
</mask>
<g mask="url(#mask7_5212_2608)">
<path d="M341.112 384.439L353.055 392.886L325.741 392.106L316.586 384.551L341.112 384.439Z" fill="#0F4C81"/>
</g>
<mask id="mask8_5212_2608" style="mask-type:luminance" maskUnits="userSpaceOnUse" x="316" y="384" width="38" height="9">
<path d="M341.112 384.439L353.055 392.886L325.741 392.106L316.586 384.551L341.112 384.439Z" fill="white"/>
</mask>
<g mask="url(#mask8_5212_2608)">
<path opacity="0.5" d="M341.112 384.439L353.055 392.886L325.741 392.106L316.586 384.551L341.112 384.439Z" fill="white"/>
</g>
<path d="M341.112 384.439L353.055 392.886L325.741 392.106L316.586 384.551L341.112 384.439Z" stroke="#263238" stroke-width="0.445932" stroke-miterlimit="10" stroke-linecap="round" stroke-linejoin="round"/>
<path d="M332.078 392.8C332.078 392.8 322.268 384.216 312.569 381.318C302.87 378.419 300.863 378.865 301.086 383.213C301.309 387.561 305.991 410.303 309.113 416.1C312.234 421.897 316.136 432.488 316.025 434.495C315.913 436.502 312.123 442.41 308.778 444.528C305.434 446.647 305.768 449.211 307.886 449.657C310.004 450.103 312.457 450.883 319.704 446.201C326.95 441.518 329.96 434.829 329.514 433.157C329.068 431.485 324.386 429.255 322.491 425.911C320.595 422.566 317.474 410.08 317.251 404.395C317.028 398.709 315.021 393.915 315.021 393.915C315.021 393.915 327.284 396.145 330.852 398.374L332.078 392.8Z" fill="white"/>
<mask id="mask9_5212_2608" style="mask-type:luminance" maskUnits="userSpaceOnUse" x="301" y="379" width="32" height="71">
<path d="M332.078 392.799C332.078 392.799 322.268 384.215 312.569 381.317C302.87 378.418 300.863 378.864 301.086 383.212C301.309 387.56 305.991 410.302 309.113 416.099C312.234 421.896 316.136 432.487 316.025 434.494C315.913 436.501 312.123 442.409 308.778 444.527C305.434 446.646 305.768 449.21 307.886 449.656C310.004 450.102 312.457 450.882 319.704 446.2C326.95 441.517 329.96 434.828 329.514 433.156C329.068 431.484 324.386 429.254 322.491 425.91C320.595 422.565 317.474 410.079 317.251 404.394C317.028 398.708 315.021 393.914 315.021 393.914C315.021 393.914 327.284 396.144 330.852 398.373L332.078 392.799Z" fill="white"/>
</mask>
<g mask="url(#mask9_5212_2608)">
<path d="M332.078 392.799C332.078 392.799 322.268 384.215 312.569 381.317C302.87 378.418 300.863 378.864 301.086 383.212C301.309 387.56 305.991 410.302 309.113 416.099C312.234 421.896 316.136 432.487 316.025 434.494C315.913 436.501 312.123 442.409 308.778 444.527C305.434 446.646 305.768 449.21 307.886 449.656C310.004 450.102 312.457 450.882 319.704 446.2C326.95 441.517 329.96 434.828 329.514 433.156C329.068 431.484 324.386 429.254 322.491 425.91C320.595 422.565 317.474 410.079 317.251 404.394C317.028 398.708 315.021 393.914 315.021 393.914C315.021 393.914 327.284 396.144 330.852 398.373L332.078 392.799Z" fill="#0F4C81"/>
</g>
<mask id="mask10_5212_2608" style="mask-type:luminance" maskUnits="userSpaceOnUse" x="301" y="379" width="32" height="71">
<path d="M332.078 392.799C332.078 392.799 322.268 384.215 312.569 381.317C302.87 378.418 300.863 378.864 301.086 383.212C301.309 387.56 305.991 410.302 309.113 416.099C312.234 421.896 316.136 432.487 316.025 434.494C315.913 436.501 312.123 442.409 308.778 444.527C305.434 446.646 305.768 449.21 307.886 449.656C310.004 450.102 312.457 450.882 319.704 446.2C326.95 441.517 329.96 434.828 329.514 433.156C329.068 431.484 324.386 429.254 322.491 425.91C320.595 422.565 317.474 410.079 317.251 404.394C317.028 398.708 315.021 393.914 315.021 393.914C315.021 393.914 327.284 396.144 330.852 398.373L332.078 392.799Z" fill="white"/>
</mask>
<g mask="url(#mask10_5212_2608)">
<path opacity="0.5" d="M332.078 392.799C332.078 392.799 322.268 384.215 312.569 381.317C302.87 378.418 300.863 378.864 301.086 383.212C301.309 387.56 305.991 410.302 309.113 416.099C312.234 421.896 316.136 432.487 316.025 434.494C315.913 436.501 312.123 442.409 308.778 444.527C305.434 446.646 305.768 449.21 307.886 449.656C310.004 450.102 312.457 450.882 319.704 446.2C326.95 441.517 329.96 434.828 329.514 433.156C329.068 431.484 324.386 429.254 322.491 425.91C320.595 422.565 317.474 410.079 317.251 404.394C317.028 398.708 315.021 393.914 315.021 393.914C315.021 393.914 327.284 396.144 330.852 398.373L332.078 392.799Z" fill="white"/>
</g>
<path d="M332.078 392.8C332.078 392.8 322.268 384.216 312.569 381.318C302.87 378.419 300.863 378.865 301.086 383.213C301.309 387.561 305.991 410.303 309.113 416.1C312.234 421.897 316.136 432.488 316.025 434.495C315.913 436.502 312.123 442.41 308.778 444.528C305.434 446.647 305.768 449.211 307.886 449.657C310.004 450.103 312.457 450.883 319.704 446.201C326.95 441.518 329.96 434.829 329.514 433.157C329.068 431.485 324.386 429.255 322.491 425.911C320.595 422.566 317.474 410.08 317.251 404.395C317.028 398.709 315.021 393.915 315.021 393.915C315.021 393.915 327.284 396.145 330.852 398.374L332.078 392.8Z" stroke="#263238" stroke-width="0.445932" stroke-miterlimit="10" stroke-linecap="round" stroke-linejoin="round"/>
<path d="M322.491 425.912C322.632 426.162 322.794 426.404 322.965 426.643C321.245 426.836 318.763 427.445 316.693 429.256C316.089 429.785 315.591 430.275 315.169 430.73C313.863 426.563 311.298 420.159 309.113 416.101C305.991 410.304 301.309 387.562 301.086 383.214C300.863 378.866 302.87 378.42 312.569 381.319C322.268 384.217 332.078 392.801 332.078 392.801L330.852 398.375C327.284 396.146 315.021 393.916 315.021 393.916C315.021 393.916 317.028 398.71 317.251 404.396C317.474 410.081 320.595 422.567 322.491 425.912Z" fill="white" stroke="#263238" stroke-width="0.445932" stroke-miterlimit="10" stroke-linecap="round" stroke-linejoin="round"/>
<path d="M322.491 425.911C322.632 426.161 322.794 426.404 322.965 426.642C321.245 426.835 318.763 427.444 316.693 429.255C316.089 429.784 315.591 430.274 315.169 430.729C313.031 427.861 310.629 418.801 307.917 415.075C300.909 405.447 301.309 387.561 301.086 383.213C300.863 378.865 302.87 378.419 312.569 381.318C322.268 384.216 332.078 392.8 332.078 392.8L330.852 398.374C327.284 396.145 315.021 393.915 315.021 393.915C315.021 393.915 317.028 398.709 317.251 404.395C317.474 410.08 320.595 422.566 322.491 425.911Z" fill="#263238"/>
<mask id="mask11_5212_2608" style="mask-type:luminance" maskUnits="userSpaceOnUse" x="301" y="379" width="32" height="52">
<path d="M322.491 425.91C322.632 426.16 322.794 426.403 322.965 426.641C321.245 426.834 318.763 427.443 316.693 429.254C316.089 429.783 315.591 430.273 315.169 430.729C313.031 427.86 310.629 418.8 307.917 415.074C300.909 405.446 301.309 387.56 301.086 383.212C300.863 378.864 302.87 378.418 312.569 381.317C322.268 384.215 332.078 392.799 332.078 392.799L330.852 398.373C327.284 396.144 315.021 393.914 315.021 393.914C315.021 393.914 317.028 398.708 317.251 404.394C317.474 410.079 320.595 422.565 322.491 425.91Z" fill="white"/>
</mask>
<g mask="url(#mask11_5212_2608)">
<path opacity="0.53" d="M322.491 425.91C322.632 426.16 322.794 426.403 322.965 426.641C321.245 426.834 318.763 427.443 316.693 429.254C316.089 429.783 315.591 430.273 315.169 430.729C313.031 427.86 310.629 418.8 307.917 415.074C300.909 405.446 301.309 387.56 301.086 383.212C300.863 378.864 302.87 378.418 312.569 381.317C322.268 384.215 332.078 392.799 332.078 392.799L330.852 398.373C327.284 396.144 315.021 393.914 315.021 393.914C315.021 393.914 317.028 398.708 317.251 404.394C317.474 410.079 320.595 422.565 322.491 425.91Z" fill="white"/>
</g>
<mask id="mask12_5212_2608" style="mask-type:luminance" maskUnits="userSpaceOnUse" x="301" y="379" width="32" height="52">
<path d="M322.491 425.91C322.632 426.16 322.794 426.403 322.965 426.641C321.245 426.834 318.763 427.443 316.693 429.254C316.089 429.783 315.591 430.273 315.169 430.729C313.031 427.86 310.629 418.8 307.917 415.074C300.909 405.446 301.309 387.56 301.086 383.212C300.863 378.864 302.87 378.418 312.569 381.317C322.268 384.215 332.078 392.799 332.078 392.799L330.852 398.373C327.284 396.144 315.021 393.914 315.021 393.914C315.021 393.914 317.028 398.708 317.251 404.394C317.474 410.079 320.595 422.565 322.491 425.91Z" fill="white"/>
</mask>
<g mask="url(#mask12_5212_2608)">
<path opacity="0.14" d="M305.798 382.624C305.975 381.041 323.218 388.339 330.49 391.49C331.499 392.294 332.078 392.8 332.078 392.8L330.852 398.374C327.284 396.144 315.021 393.915 315.021 393.915C315.021 393.915 317.028 398.709 317.251 404.394C317.474 410.08 320.595 422.566 322.491 425.91C322.632 426.161 322.794 426.403 322.965 426.641C321.961 426.754 320.697 427.011 319.408 427.563C316.708 421.854 313.846 415.234 312.488 410.049C310.035 400.685 305.575 384.631 305.798 382.624Z" fill="black"/>
</g>
<mask id="mask13_5212_2608" style="mask-type:luminance" maskUnits="userSpaceOnUse" x="301" y="379" width="32" height="52">
<path d="M322.491 425.91C322.632 426.16 322.794 426.403 322.965 426.641C321.245 426.834 318.763 427.443 316.693 429.254C316.089 429.783 315.591 430.273 315.169 430.729C313.031 427.86 310.629 418.8 307.917 415.074C300.909 405.446 301.309 387.56 301.086 383.212C300.863 378.864 302.87 378.418 312.569 381.317C322.268 384.215 332.078 392.799 332.078 392.799L330.852 398.373C327.284 396.144 315.021 393.914 315.021 393.914C315.021 393.914 317.028 398.708 317.251 404.394C317.474 410.079 320.595 422.565 322.491 425.91Z" fill="white"/>
</mask>
<g mask="url(#mask13_5212_2608)">
<path d="M315.02 393.915C315.02 393.915 311.675 387.114 308.776 384.327" stroke="#263238" stroke-width="0.445932" stroke-miterlimit="10" stroke-linecap="round" stroke-linejoin="round"/>
</g>
<path d="M322.491 425.911C322.632 426.161 322.794 426.404 322.965 426.642C321.245 426.835 318.763 427.444 316.693 429.255C316.089 429.784 315.591 430.274 315.169 430.729C313.031 427.861 310.629 418.801 307.917 415.075C300.909 405.447 301.309 387.561 301.086 383.213C300.863 378.865 302.87 378.419 312.569 381.318C322.268 384.216 332.078 392.8 332.078 392.8L330.852 398.374C327.284 396.145 315.021 393.915 315.021 393.915C315.021 393.915 317.028 398.709 317.251 404.395C317.474 410.08 320.595 422.566 322.491 425.911Z" stroke="#263238" stroke-width="0.445932" stroke-miterlimit="10" stroke-linecap="round" stroke-linejoin="round"/>
<path d="M346.776 401.779C346.776 401.779 341.273 401.626 336.229 399.792C331.185 397.958 340.357 394.595 343.872 396.429C347.387 398.264 346.776 401.779 346.776 401.779Z" fill="#263238" stroke="#263238" stroke-width="0.445932" stroke-miterlimit="10" stroke-linecap="round" stroke-linejoin="round"/>
<path d="M361.285 394.585C361.285 394.585 364.852 396.591 366.079 398.821C367.305 401.051 362.028 404.767 356.454 404.544C350.88 404.321 340.661 398.264 340.661 398.264C340.661 398.264 340.549 408.074 338.654 411.642C336.759 415.209 328.063 423.905 324.607 426.134C321.151 428.364 309.557 436.725 307.773 438.063C305.989 439.401 302.645 441.854 301.865 441.965C301.084 442.077 292.946 432.155 291.051 428.81C289.156 425.466 287.483 418.442 288.152 416.881C288.821 415.321 290.159 416.658 291.497 417.773C292.834 418.888 305.098 427.026 306.212 427.584C307.327 428.141 308.108 428.364 308.108 428.364C308.108 428.364 318.141 418.777 323.492 411.419C328.843 404.061 329.289 394.585 331.296 391.017C333.303 387.45 336.201 385.889 340.549 386.335C344.897 386.781 353.927 389.122 361.285 394.585Z" fill="white"/>
<mask id="mask14_5212_2608" style="mask-type:luminance" maskUnits="userSpaceOnUse" x="288" y="386" width="79" height="56">
<path d="M361.281 394.586C361.281 394.586 364.849 396.592 366.075 398.822C367.301 401.052 362.024 404.768 356.45 404.545C350.876 404.322 340.657 398.265 340.657 398.265C340.657 398.265 340.545 408.075 338.65 411.643C336.755 415.21 328.059 423.906 324.603 426.135C321.147 428.365 309.553 436.726 307.769 438.064C305.986 439.402 302.641 441.855 301.861 441.966C301.08 442.078 292.942 432.156 291.047 428.811C289.152 425.467 287.479 418.443 288.148 416.882C288.817 415.322 290.155 416.659 291.493 417.774C292.831 418.889 305.094 427.027 306.209 427.585C307.323 428.142 308.104 428.365 308.104 428.365C308.104 428.365 318.137 418.778 323.488 411.42C328.84 404.062 329.285 394.586 331.292 391.018C333.299 387.451 336.197 385.89 340.545 386.336C344.893 386.782 353.923 389.123 361.281 394.586Z" fill="white"/>
</mask>
<g mask="url(#mask14_5212_2608)">
<path d="M314.109 433.472C311.132 435.605 308.539 437.487 307.77 438.064C305.987 439.402 302.642 441.854 301.862 441.966C301.585 442.006 300.381 440.78 298.86 439.036L311.628 430.824L314.109 433.472Z" fill="#0F4C81"/>
</g>
<mask id="mask15_5212_2608" style="mask-type:luminance" maskUnits="userSpaceOnUse" x="288" y="386" width="79" height="56">
<path d="M361.281 394.586C361.281 394.586 364.849 396.592 366.075 398.822C367.301 401.052 362.024 404.768 356.45 404.545C350.876 404.322 340.657 398.265 340.657 398.265C340.657 398.265 340.545 408.075 338.65 411.643C336.755 415.21 328.059 423.906 324.603 426.135C321.147 428.365 309.553 436.726 307.769 438.064C305.986 439.402 302.641 441.855 301.861 441.966C301.08 442.078 292.942 432.156 291.047 428.811C289.152 425.467 287.479 418.443 288.148 416.882C288.817 415.322 290.155 416.659 291.493 417.774C292.831 418.889 305.094 427.027 306.209 427.585C307.323 428.142 308.104 428.365 308.104 428.365C308.104 428.365 318.137 418.778 323.488 411.42C328.84 404.062 329.285 394.586 331.292 391.018C333.299 387.451 336.197 385.89 340.545 386.336C344.893 386.782 353.923 389.123 361.281 394.586Z" fill="white"/>
</mask>
<g mask="url(#mask15_5212_2608)">
<path opacity="0.5" d="M314.109 433.472C311.132 435.605 308.539 437.487 307.77 438.064C305.987 439.402 302.642 441.854 301.862 441.966C301.585 442.006 300.381 440.78 298.86 439.036L311.628 430.824L314.109 433.472Z" fill="white"/>
</g>
<path d="M361.285 394.585C361.285 394.585 364.852 396.591 366.079 398.821C367.305 401.051 362.028 404.767 356.454 404.544C350.88 404.321 340.661 398.264 340.661 398.264C340.661 398.264 340.549 408.074 338.654 411.642C336.759 415.209 328.063 423.905 324.607 426.134C321.151 428.364 309.557 436.725 307.773 438.063C305.989 439.401 302.645 441.854 301.865 441.965C301.084 442.077 292.946 432.155 291.051 428.81C289.156 425.466 287.483 418.442 288.152 416.881C288.821 415.321 290.159 416.658 291.497 417.773C292.834 418.888 305.098 427.026 306.212 427.584C307.327 428.141 308.108 428.364 308.108 428.364C308.108 428.364 318.141 418.777 323.492 411.419C328.843 404.061 329.289 394.585 331.296 391.017C333.303 387.45 336.201 385.889 340.549 386.335C344.897 386.781 353.927 389.122 361.285 394.585Z" stroke="#263238" stroke-width="0.445932" stroke-miterlimit="10" stroke-linecap="round" stroke-linejoin="round"/>
<path d="M308.801 427.694C311.159 425.394 320.003 413.528 323.493 406.706C328.608 396.709 329.159 393.302 331.165 389.734C333.172 386.167 336.203 385.889 340.551 386.335C344.898 386.781 352.678 387.588 362.222 393.001C362.222 393.001 366.229 395.179 367.455 397.409C368.681 399.638 364.217 405.253 356.455 404.544C350.9 404.036 340.662 398.263 340.662 398.263C340.662 398.263 340.55 408.074 338.655 411.641C336.76 415.209 328.064 423.905 324.608 426.134C322.416 427.548 316.954 431.427 312.794 434.417C311.75 430.684 309.908 428.639 308.801 427.694Z" fill="#263238"/>
<mask id="mask16_5212_2608" style="mask-type:luminance" maskUnits="userSpaceOnUse" x="308" y="386" width="60" height="49">
<path d="M308.805 427.695C311.163 425.395 320.007 413.529 323.497 406.707C328.612 396.71 329.163 393.303 331.169 389.735C333.176 386.168 336.207 385.89 340.554 386.336C344.902 386.782 352.682 387.589 362.226 393.002C362.226 393.002 366.233 395.18 367.459 397.41C368.685 399.639 364.221 405.254 356.459 404.544C350.904 404.037 340.665 398.264 340.665 398.264C340.665 398.264 340.554 408.075 338.659 411.642C336.764 415.21 328.068 423.906 324.612 426.135C322.42 427.549 316.958 431.427 312.798 434.418C311.754 430.685 309.912 428.64 308.805 427.695Z" fill="white"/>
</mask>
<g mask="url(#mask16_5212_2608)">
<path opacity="0.53" d="M308.805 427.695C311.163 425.395 320.007 413.529 323.497 406.707C328.612 396.71 329.163 393.303 331.169 389.735C333.176 386.168 336.207 385.89 340.554 386.336C344.902 386.782 352.682 387.589 362.226 393.002C362.226 393.002 366.233 395.18 367.459 397.41C368.685 399.639 364.221 405.254 356.459 404.544C350.904 404.037 340.665 398.264 340.665 398.264C340.665 398.264 340.554 408.075 338.659 411.642C336.764 415.21 328.068 423.906 324.612 426.135C322.42 427.549 316.958 431.427 312.798 434.418C311.754 430.685 309.912 428.64 308.805 427.695Z" fill="white"/>
</g>
<mask id="mask17_5212_2608" style="mask-type:luminance" maskUnits="userSpaceOnUse" x="308" y="386" width="60" height="49">
<path d="M308.805 427.695C311.163 425.395 320.007 413.529 323.497 406.707C328.612 396.71 329.163 393.303 331.169 389.735C333.176 386.168 336.207 385.89 340.554 386.336C344.902 386.782 352.682 387.589 362.226 393.002C362.226 393.002 366.233 395.18 367.459 397.41C368.685 399.639 364.221 405.254 356.459 404.544C350.904 404.037 340.665 398.264 340.665 398.264C340.665 398.264 340.554 408.075 338.659 411.642C336.764 415.21 328.068 423.906 324.612 426.135C322.42 427.549 316.958 431.427 312.798 434.418C311.754 430.685 309.912 428.64 308.805 427.695Z" fill="white"/>
</mask>
<g mask="url(#mask17_5212_2608)">
<path opacity="0.14" d="M331.219 411.835C334.564 403.362 332.557 386.417 341.922 388.647C348.746 390.272 361.251 396.039 367.535 399.05C366.793 401.608 362.69 405.115 356.459 404.545C350.903 404.038 340.665 398.265 340.665 398.265C340.665 398.265 340.554 408.076 338.658 411.643C336.763 415.211 328.068 423.906 324.612 426.136C322.42 427.55 316.957 431.428 312.797 434.419C312.375 432.91 311.822 431.68 311.24 430.684C319.544 424.55 329.353 416.565 331.219 411.835Z" fill="black"/>
</g>
<mask id="mask18_5212_2608" style="mask-type:luminance" maskUnits="userSpaceOnUse" x="308" y="386" width="60" height="49">
<path d="M308.805 427.695C311.163 425.395 320.007 413.529 323.497 406.707C328.612 396.71 329.163 393.303 331.169 389.735C333.176 386.168 336.207 385.89 340.554 386.336C344.902 386.782 352.682 387.589 362.226 393.002C362.226 393.002 366.233 395.18 367.459 397.41C368.685 399.639 364.221 405.254 356.459 404.544C350.904 404.037 340.665 398.264 340.665 398.264C340.665 398.264 340.554 408.075 338.659 411.642C336.764 415.21 328.068 423.906 324.612 426.135C322.42 427.549 316.958 431.427 312.798 434.418C311.754 430.685 309.912 428.64 308.805 427.695Z" fill="white"/>
</mask>
<g mask="url(#mask18_5212_2608)">
<path d="M340.666 398.265L341 392.468" stroke="#263238" stroke-width="0.445932" stroke-miterlimit="10" stroke-linecap="round" stroke-linejoin="round"/>
</g>
<path d="M308.801 427.694C311.159 425.394 320.003 413.528 323.493 406.706C328.608 396.709 329.159 393.302 331.165 389.734C333.172 386.167 336.203 385.889 340.551 386.335C344.898 386.781 352.678 387.588 362.222 393.001C362.222 393.001 366.229 395.179 367.455 397.409C368.681 399.638 364.217 405.253 356.455 404.544C350.9 404.036 340.662 398.263 340.662 398.263C340.662 398.263 340.55 408.074 338.655 411.641C336.76 415.209 328.064 423.905 324.608 426.134C322.416 427.548 316.954 431.427 312.794 434.417C311.75 430.684 309.908 428.639 308.801 427.694Z" stroke="#263238" stroke-width="0.445932" stroke-miterlimit="10" stroke-linecap="round" stroke-linejoin="round"/>
<path d="M307.776 438.063C305.992 439.401 302.647 441.854 301.867 441.965C301.087 442.076 292.948 432.155 291.053 428.81C289.158 425.466 287.486 418.442 288.155 416.881C288.824 415.321 290.161 416.658 291.499 417.773C292.837 418.888 305.1 427.026 306.215 427.584C306.507 427.73 306.774 427.852 307.012 427.954C307.335 428.564 307.724 429.512 307.441 430.148C306.995 431.151 305.1 432.489 305.1 432.489L308.473 437.548C308.173 437.768 307.934 437.944 307.776 438.063Z" fill="#263238" stroke="#263238" stroke-width="0.445932" stroke-miterlimit="10" stroke-linecap="round" stroke-linejoin="round"/>
<path d="M291.051 428.81C289.155 425.465 287.483 418.442 288.152 416.881C288.54 415.977 289.152 416.048 289.859 416.482C289.39 418.568 289.863 422.586 292.165 426.914C294.22 430.776 300.57 437.602 303.77 440.926C302.901 441.498 302.177 441.92 301.865 441.965C301.084 442.076 292.946 432.154 291.051 428.81Z" fill="white"/>
<mask id="mask19_5212_2608" style="mask-type:luminance" maskUnits="userSpaceOnUse" x="287" y="416" width="17" height="26">
<path d="M291.047 428.81C289.152 425.465 287.479 418.442 288.148 416.881C288.536 415.977 289.148 416.048 289.855 416.482C289.386 418.568 289.859 422.586 292.162 426.914C294.216 430.776 300.566 437.602 303.766 440.926C302.897 441.498 302.173 441.92 301.861 441.965C301.08 442.076 292.942 432.154 291.047 428.81Z" fill="white"/>
</mask>
<g mask="url(#mask19_5212_2608)">
<path d="M301.747 441.936C301.718 441.923 301.687 441.905 301.652 441.884C301.642 441.877 301.632 441.872 301.622 441.865C301.577 441.835 301.527 441.798 301.472 441.756C301.455 441.742 301.437 441.727 301.419 441.712C301.378 441.679 301.335 441.642 301.289 441.603C301.265 441.582 301.242 441.561 301.217 441.538C301.162 441.489 301.104 441.436 301.044 441.379C301.009 441.346 300.972 441.311 300.936 441.275C300.888 441.229 300.84 441.182 300.789 441.132C300.748 441.091 300.706 441.049 300.663 441.006C300.623 440.965 300.582 440.923 300.54 440.88C300.438 440.775 300.332 440.664 300.221 440.547C300.204 440.528 300.188 440.512 300.171 440.493C300.106 440.424 300.039 440.352 299.971 440.279C299.945 440.251 299.919 440.223 299.893 440.194C299.659 439.94 299.412 439.665 299.154 439.373C299.148 439.365 299.141 439.357 299.134 439.35C299.044 439.248 298.953 439.144 298.86 439.038L298.859 439.036L300.806 437.784C301.915 438.989 302.945 440.074 303.766 440.927C303.663 440.995 303.562 441.06 303.464 441.124C303.449 441.133 303.436 441.142 303.422 441.151C303.328 441.211 303.235 441.269 303.146 441.324C303.144 441.326 303.143 441.327 303.141 441.328C302.988 441.423 302.847 441.506 302.713 441.583C302.671 441.606 302.628 441.632 302.588 441.654C302.545 441.678 302.505 441.699 302.463 441.72C302.414 441.746 302.367 441.77 302.322 441.793C302.288 441.809 302.256 441.825 302.224 441.839C302.175 441.861 302.13 441.88 302.088 441.897C302.065 441.905 302.042 441.915 302.021 441.923C301.96 441.944 301.905 441.96 301.861 441.966C301.839 441.969 301.809 441.962 301.776 441.95C301.767 441.945 301.757 441.94 301.747 441.936Z" fill="#0F4C81"/>
</g>
<mask id="mask20_5212_2608" style="mask-type:luminance" maskUnits="userSpaceOnUse" x="287" y="416" width="17" height="26">
<path d="M291.047 428.81C289.152 425.465 287.479 418.442 288.148 416.881C288.536 415.977 289.148 416.048 289.855 416.482C289.386 418.568 289.859 422.586 292.162 426.914C294.216 430.776 300.566 437.602 303.766 440.926C302.897 441.498 302.173 441.92 301.861 441.965C301.08 442.076 292.942 432.154 291.047 428.81Z" fill="white"/>
</mask>
<g mask="url(#mask20_5212_2608)">
<path opacity="0.5" d="M301.747 441.936C301.718 441.923 301.687 441.905 301.652 441.884C301.642 441.877 301.632 441.872 301.622 441.865C301.577 441.835 301.527 441.798 301.472 441.756C301.455 441.742 301.437 441.727 301.419 441.712C301.378 441.679 301.335 441.642 301.289 441.603C301.265 441.582 301.242 441.561 301.217 441.538C301.162 441.489 301.104 441.436 301.044 441.379C301.009 441.346 300.972 441.311 300.936 441.275C300.888 441.229 300.84 441.182 300.789 441.132C300.748 441.091 300.706 441.049 300.663 441.006C300.623 440.965 300.582 440.923 300.54 440.88C300.438 440.775 300.332 440.664 300.221 440.547C300.204 440.528 300.188 440.512 300.171 440.493C300.106 440.424 300.039 440.352 299.971 440.279C299.945 440.251 299.919 440.223 299.893 440.194C299.659 439.94 299.412 439.665 299.154 439.373C299.148 439.365 299.141 439.357 299.134 439.35C299.044 439.248 298.953 439.144 298.86 439.038L298.859 439.036L300.806 437.784C301.915 438.989 302.945 440.074 303.766 440.927C303.663 440.995 303.562 441.06 303.464 441.124C303.449 441.133 303.436 441.142 303.422 441.151C303.328 441.211 303.235 441.269 303.146 441.324C303.144 441.326 303.143 441.327 303.141 441.328C302.988 441.423 302.847 441.506 302.713 441.583C302.671 441.606 302.628 441.632 302.588 441.654C302.545 441.678 302.505 441.699 302.463 441.72C302.414 441.746 302.367 441.77 302.322 441.793C302.288 441.809 302.256 441.825 302.224 441.839C302.175 441.861 302.13 441.88 302.088 441.897C302.065 441.905 302.042 441.915 302.021 441.923C301.96 441.944 301.905 441.96 301.861 441.966C301.839 441.969 301.809 441.962 301.776 441.95C301.767 441.945 301.757 441.94 301.747 441.936Z" fill="white"/>
</g>
<path d="M291.051 428.81C289.155 425.465 287.483 418.442 288.152 416.881C288.54 415.977 289.152 416.048 289.859 416.482C289.39 418.568 289.863 422.586 292.165 426.914C294.22 430.776 300.57 437.602 303.77 440.926C302.901 441.498 302.177 441.92 301.865 441.965C301.084 442.076 292.946 432.154 291.051 428.81Z" stroke="#263238" stroke-width="0.445932" stroke-miterlimit="10" stroke-linecap="round" stroke-linejoin="round"/>
<path d="M308.78 444.529C312.124 442.41 315.915 436.502 316.026 434.495C316.035 434.332 316.015 434.107 315.974 433.838C317.033 433.851 317.81 434.495 317.81 434.495C317.81 434.495 320.263 432.265 322.158 431.039C323.516 430.161 325.269 429.913 326.157 429.842C327.776 431.171 329.273 432.248 329.516 433.157C329.962 434.83 326.952 441.519 319.705 446.201C312.459 450.883 310.006 450.103 307.888 449.657C305.77 449.211 305.435 446.647 308.78 444.529Z" fill="#263238" stroke="#263238" stroke-width="0.445932" stroke-miterlimit="10" stroke-linecap="round" stroke-linejoin="round"/>
<path d="M308.78 444.528C309.767 443.903 310.792 442.944 311.751 441.855C314.052 440.878 317.122 439.609 319.817 437.951C322.715 436.167 322.046 435.052 323.719 433.38C325.002 432.097 327.526 431.93 328.634 431.922C329.092 432.367 329.414 432.777 329.516 433.157C329.962 434.829 326.952 441.518 319.705 446.201C312.459 450.883 310.006 450.103 307.888 449.657C305.77 449.211 305.435 446.647 308.78 444.528Z" fill="white"/>
<mask id="mask21_5212_2608" style="mask-type:luminance" maskUnits="userSpaceOnUse" x="306" y="431" width="24" height="19">
<path d="M308.78 444.527C309.767 443.902 310.792 442.943 311.751 441.854C314.052 440.877 317.122 439.608 319.817 437.95C322.715 436.166 322.046 435.051 323.719 433.379C325.002 432.096 327.526 431.929 328.634 431.921C329.092 432.366 329.414 432.776 329.516 433.156C329.962 434.828 326.952 441.517 319.705 446.2C312.459 450.882 310.006 450.102 307.888 449.656C305.77 449.21 305.435 446.646 308.78 444.527Z" fill="white"/>
</mask>
<g mask="url(#mask21_5212_2608)">
<path d="M308.78 444.527C309.767 443.902 310.792 442.943 311.751 441.854C314.052 440.877 317.122 439.608 319.817 437.95C322.715 436.166 322.046 435.051 323.719 433.379C325.002 432.096 327.526 431.929 328.634 431.921C329.092 432.366 329.414 432.776 329.516 433.156C329.962 434.828 326.952 441.517 319.705 446.2C312.459 450.882 310.006 450.102 307.888 449.656C305.77 449.21 305.435 446.646 308.78 444.527Z" fill="#0F4C81"/>
</g>
<mask id="mask22_5212_2608" style="mask-type:luminance" maskUnits="userSpaceOnUse" x="306" y="431" width="24" height="19">
<path d="M308.78 444.527C309.767 443.902 310.792 442.943 311.751 441.854C314.052 440.877 317.122 439.608 319.817 437.95C322.715 436.166 322.046 435.051 323.719 433.379C325.002 432.096 327.526 431.929 328.634 431.921C329.092 432.366 329.414 432.776 329.516 433.156C329.962 434.828 326.952 441.517 319.705 446.2C312.459 450.882 310.006 450.102 307.888 449.656C305.77 449.21 305.435 446.646 308.78 444.527Z" fill="white"/>
</mask>
<g mask="url(#mask22_5212_2608)">
<path opacity="0.5" d="M308.78 444.527C309.767 443.902 310.792 442.943 311.751 441.854C314.052 440.877 317.122 439.608 319.817 437.95C322.715 436.166 322.046 435.051 323.719 433.379C325.002 432.096 327.526 431.929 328.634 431.921C329.092 432.366 329.414 432.776 329.516 433.156C329.962 434.828 326.952 441.517 319.705 446.2C312.459 450.882 310.006 450.102 307.888 449.656C305.77 449.21 305.435 446.646 308.78 444.527Z" fill="white"/>
</g>
<path d="M308.78 444.528C309.767 443.903 310.792 442.944 311.751 441.855C314.052 440.878 317.122 439.609 319.817 437.951C322.715 436.167 322.046 435.052 323.719 433.38C325.002 432.097 327.526 431.93 328.634 431.922C329.092 432.367 329.414 432.777 329.516 433.157C329.962 434.829 326.952 441.518 319.705 446.201C312.459 450.883 310.006 450.103 307.888 449.657C305.77 449.211 305.435 446.647 308.78 444.528Z" stroke="#263238" stroke-width="0.445932" stroke-miterlimit="10" stroke-linecap="round" stroke-linejoin="round"/>
<path d="M308.221 445.309C311.119 443.637 317.028 442.522 320.818 439.958C324.609 437.393 323.605 435.164 326.392 433.38C327.673 432.56 328.741 432.754 329.522 433.201C329.909 434.94 326.891 441.556 319.703 446.201C312.457 450.883 310.004 450.103 307.886 449.657C306.478 449.36 305.866 448.127 306.591 446.712C307.049 446.162 307.59 445.673 308.221 445.309Z" fill="#263238"/>
<mask id="mask23_5212_2608" style="mask-type:luminance" maskUnits="userSpaceOnUse" x="306" y="432" width="24" height="18">
<path d="M308.221 445.309C311.119 443.637 317.028 442.522 320.818 439.958C324.609 437.393 323.605 435.164 326.392 433.38C327.673 432.56 328.741 432.754 329.522 433.201C329.909 434.94 326.891 441.556 319.703 446.201C312.457 450.883 310.004 450.103 307.886 449.657C306.478 449.36 305.866 448.127 306.591 446.712C307.049 446.162 307.59 445.673 308.221 445.309Z" fill="white"/>
</mask>
<g mask="url(#mask23_5212_2608)">
<path opacity="0.53" d="M308.221 445.309C311.119 443.637 317.028 442.522 320.818 439.958C324.609 437.393 323.605 435.164 326.392 433.38C327.673 432.56 328.741 432.754 329.522 433.201C329.909 434.94 326.891 441.556 319.703 446.201C312.457 450.883 310.004 450.103 307.886 449.657C306.478 449.36 305.866 448.127 306.591 446.712C307.049 446.162 307.59 445.673 308.221 445.309Z" fill="white"/>
</g>
<path d="M308.221 445.309C311.119 443.637 317.028 442.522 320.818 439.958C324.609 437.393 323.605 435.164 326.392 433.38C327.673 432.56 328.741 432.754 329.522 433.201C329.909 434.94 326.891 441.556 319.703 446.201C312.457 450.883 310.004 450.103 307.886 449.657C306.478 449.36 305.866 448.127 306.591 446.712C307.049 446.162 307.59 445.673 308.221 445.309Z" stroke="#263238" stroke-width="0.445932" stroke-miterlimit="10" stroke-linecap="round" stroke-linejoin="round"/>
<path d="M352.973 353.204C352.973 353.204 352.454 358.837 352.235 360.613C352.016 362.39 351.517 367.502 351.004 369.193C350.491 370.883 347.698 373.823 347.427 373.143C347.157 372.463 345.775 367.871 346.329 365.141C346.883 362.411 347.051 360.037 346.706 359.354C346.36 358.671 345.127 357.879 345.127 357.879C345.127 357.879 347.328 356.775 349.314 355.441C351.301 354.106 352.699 352.598 352.973 353.204Z" fill="white"/>
<mask id="mask24_5212_2608" style="mask-type:luminance" maskUnits="userSpaceOnUse" x="345" y="353" width="8" height="21">
<path d="M352.973 353.203C352.973 353.203 352.454 358.836 352.235 360.612C352.016 362.389 351.517 367.501 351.004 369.192C350.491 370.882 347.698 373.822 347.427 373.142C347.157 372.462 345.775 367.87 346.329 365.14C346.883 362.41 347.051 360.036 346.706 359.353C346.36 358.67 345.127 357.878 345.127 357.878C345.127 357.878 347.328 356.774 349.314 355.44C351.301 354.105 352.699 352.597 352.973 353.203Z" fill="white"/>
</mask>
<g mask="url(#mask24_5212_2608)">
<path d="M345.817 358.139L346.273 357.272C347.092 356.822 348.234 356.167 349.315 355.44C351.301 354.105 352.699 352.598 352.973 353.203C352.973 353.203 352.454 358.836 352.235 360.612C352.016 362.389 351.517 367.501 351.004 369.192C350.879 369.604 350.617 370.092 350.29 370.582C350.83 367.219 350.244 361.149 350.244 361.149L345.817 358.139Z" fill="#0F4C81"/>
</g>
<mask id="mask25_5212_2608" style="mask-type:luminance" maskUnits="userSpaceOnUse" x="345" y="353" width="8" height="21">
<path d="M352.973 353.203C352.973 353.203 352.454 358.836 352.235 360.612C352.016 362.389 351.517 367.501 351.004 369.192C350.491 370.882 347.698 373.822 347.427 373.142C347.157 372.462 345.775 367.87 346.329 365.14C346.883 362.41 347.051 360.036 346.706 359.353C346.36 358.67 345.127 357.878 345.127 357.878C345.127 357.878 347.328 356.774 349.314 355.44C351.301 354.105 352.699 352.597 352.973 353.203Z" fill="white"/>
</mask>
<g mask="url(#mask25_5212_2608)">
<path opacity="0.5" d="M345.817 358.139L346.273 357.272C347.092 356.822 348.234 356.167 349.315 355.44C351.301 354.105 352.699 352.598 352.973 353.203C352.973 353.203 352.454 358.836 352.235 360.612C352.016 362.389 351.517 367.501 351.004 369.192C350.879 369.604 350.617 370.092 350.29 370.582C350.83 367.219 350.244 361.149 350.244 361.149L345.817 358.139Z" fill="white"/>
</g>
<path d="M352.973 353.204C352.973 353.204 352.454 358.837 352.235 360.613C352.016 362.39 351.517 367.502 351.004 369.193C350.491 370.883 347.698 373.823 347.427 373.143C347.157 372.463 345.775 367.871 346.329 365.141C346.883 362.411 347.051 360.037 346.706 359.354C346.36 358.671 345.127 357.879 345.127 357.879C345.127 357.879 347.328 356.775 349.314 355.441C351.301 354.106 352.699 352.598 352.973 353.204Z" stroke="#263238" stroke-width="0.445932" stroke-miterlimit="10" stroke-linecap="round" stroke-linejoin="round"/>
<path d="M353.18 354.008C353.18 354.008 349.969 356.696 347.504 357.666C345.04 358.636 341.257 358.585 340.725 357.302C340.193 356.02 341.66 345.887 342.93 343.22C344.199 340.553 345.56 340.509 347.8 340.306C350.04 340.104 354.529 341.93 355.317 344.096C356.105 346.262 355.208 349.332 354.554 351.151C353.9 352.969 353.18 354.008 353.18 354.008Z" fill="white"/>
<mask id="mask26_5212_2608" style="mask-type:luminance" maskUnits="userSpaceOnUse" x="340" y="340" width="16" height="19">
<path d="M353.184 354.007C353.184 354.007 349.973 356.695 347.508 357.665C345.044 358.636 341.261 358.584 340.729 357.301C340.197 356.019 341.664 345.886 342.933 343.219C344.203 340.552 345.564 340.508 347.803 340.305C350.043 340.103 354.533 341.929 355.321 344.095C356.109 346.261 355.212 349.331 354.558 351.15C353.904 352.968 353.184 354.007 353.184 354.007Z" fill="white"/>
</mask>
<g mask="url(#mask26_5212_2608)">
<path d="M347.415 353.889C348.553 350.507 348.831 345.212 348.831 343.795C348.831 342.702 345.986 341.504 344.686 341.014C345.537 340.487 346.527 340.421 347.803 340.305C350.043 340.103 354.533 341.929 355.321 344.095C356.109 346.261 355.212 349.331 354.558 351.15C353.904 352.968 353.184 354.007 353.184 354.007C353.184 354.007 349.973 356.695 347.508 357.666C345.866 358.312 343.644 358.502 342.183 358.179C343.924 357.514 346.657 356.141 347.415 353.889Z" fill="#0F4C81"/>
</g>
<mask id="mask27_5212_2608" style="mask-type:luminance" maskUnits="userSpaceOnUse" x="340" y="340" width="16" height="19">
<path d="M353.184 354.007C353.184 354.007 349.973 356.695 347.508 357.665C345.044 358.636 341.261 358.584 340.729 357.301C340.197 356.019 341.664 345.886 342.933 343.219C344.203 340.552 345.564 340.508 347.803 340.305C350.043 340.103 354.533 341.929 355.321 344.095C356.109 346.261 355.212 349.331 354.558 351.15C353.904 352.968 353.184 354.007 353.184 354.007Z" fill="white"/>
</mask>
<g mask="url(#mask27_5212_2608)">
<path opacity="0.5" d="M347.415 353.889C348.553 350.507 348.831 345.212 348.831 343.795C348.831 342.702 345.986 341.504 344.686 341.014C345.537 340.487 346.527 340.421 347.803 340.305C350.043 340.103 354.533 341.929 355.321 344.095C356.109 346.261 355.212 349.331 354.558 351.15C353.904 352.968 353.184 354.007 353.184 354.007C353.184 354.007 349.973 356.695 347.508 357.666C345.866 358.312 343.644 358.502 342.183 358.179C343.924 357.514 346.657 356.141 347.415 353.889Z" fill="white"/>
</g>
<path d="M353.18 354.008C353.18 354.008 349.969 356.696 347.504 357.666C345.04 358.636 341.257 358.585 340.725 357.302C340.193 356.02 341.66 345.887 342.93 343.22C344.199 340.553 345.56 340.509 347.8 340.306C350.04 340.104 354.529 341.93 355.317 344.096C356.105 346.262 355.208 349.332 354.554 351.151C353.9 352.969 353.18 354.008 353.18 354.008Z" stroke="#263238" stroke-width="0.445932" stroke-miterlimit="10" stroke-linecap="round" stroke-linejoin="round"/>
<path d="M342.687 347.383C342.637 348.667 343.442 349.742 344.485 349.783C345.529 349.824 346.416 348.816 346.467 347.532C346.517 346.248 345.712 345.173 344.669 345.132C343.625 345.091 342.738 346.098 342.687 347.383Z" stroke="#263238" stroke-width="0.445932" stroke-miterlimit="10" stroke-linecap="round" stroke-linejoin="round"/>
<path d="M340.164 346.896C340.114 348.18 340.528 349.239 341.09 349.262C341.652 349.284 342.148 348.261 342.199 346.976C342.249 345.692 341.835 344.633 341.273 344.611C340.711 344.589 340.215 345.612 340.164 346.896Z" stroke="#263238" stroke-width="0.445932" stroke-miterlimit="10" stroke-linecap="round" stroke-linejoin="round"/>
<path d="M342.559 346.921C342.559 346.921 338.875 347.621 339.228 348.509C339.582 349.396 342.074 350.355 342.074 350.355" fill="white"/>
<path d="M342.559 346.921C342.559 346.921 338.875 347.621 339.228 348.509C339.582 349.396 342.074 350.355 342.074 350.355" stroke="#263238" stroke-width="0.445932" stroke-miterlimit="10" stroke-linecap="round" stroke-linejoin="round"/>
<path d="M342.785 346.511C342.785 346.511 342.733 346.056 342.164 346.347" stroke="#263238" stroke-width="0.445932" stroke-miterlimit="10" stroke-linecap="round" stroke-linejoin="round"/>
<path d="M346.572 347.742L353.27 350.378" stroke="#263238" stroke-width="0.445932" stroke-miterlimit="10" stroke-linecap="round" stroke-linejoin="round"/>
<path d="M346.48 345.576C346.48 345.576 346.069 344.513 344.811 344.568" stroke="#263238" stroke-width="0.891864" stroke-miterlimit="10" stroke-linecap="round" stroke-linejoin="round"/>
<path d="M342.02 344.598L343.051 344.987" stroke="#263238" stroke-width="0.891864" stroke-miterlimit="10" stroke-linecap="round" stroke-linejoin="round"/>
<path d="M345.207 352.08C345.207 352.08 343.882 351.731 343.107 352.518" stroke="#263238" stroke-width="0.445932" stroke-miterlimit="10" stroke-linecap="round" stroke-linejoin="round"/>
<path d="M344.34 347.629C344.279 348.076 344.361 348.457 344.524 348.479C344.686 348.502 344.868 348.157 344.929 347.71C344.99 347.263 344.908 346.882 344.745 346.859C344.583 346.837 344.401 347.182 344.34 347.629Z" fill="#263238"/>
<path d="M352.643 350.396C352.643 350.396 353.094 351.287 351.83 351.334C350.566 351.382 349.717 350.766 350.329 350.014C350.941 349.261 351.844 348.521 350.913 347.513C349.982 346.506 348.171 345.659 349.186 344.534C350.201 343.409 353.946 344.43 353.011 343.52C352.076 342.61 347.746 341.663 345.801 341.78C343.855 341.898 340.226 340.396 339.431 338.424C338.635 336.452 339.749 332.808 342.361 333.008C344.974 333.208 346.921 335.517 348.08 335.659C349.239 335.802 351.618 334.537 353.611 335.683C355.604 336.829 355.671 340.034 355.85 340.429C356.029 340.824 358.723 341.415 359.197 344.152C359.672 346.888 358.421 349.071 357.306 350.288C356.191 351.506 355.687 351.972 355.687 351.972L352.643 350.396Z" fill="#263238" stroke="#263238" stroke-width="0.445932" stroke-miterlimit="10" stroke-linecap="round" stroke-linejoin="round"/>
<path d="M358.316 345.457C358.36 346.133 358.028 346.643 358.028 346.643" stroke="white" stroke-width="0.334449" stroke-miterlimit="10" stroke-linecap="round" stroke-linejoin="round"/>
<path d="M346.946 338.398C346.946 338.398 347.922 336.271 345.439 336.271C342.957 336.271 342.602 339.373 345.173 340.526C347.744 341.678 353.33 341.945 356.344 343.274C357.098 343.607 357.58 343.983 357.879 344.362" stroke="white" stroke-width="0.334449" stroke-miterlimit="10" stroke-linecap="round" stroke-linejoin="round"/>
<path d="M351.438 345.952C352.329 346.271 353.485 346.717 354.662 347.264C357.144 348.416 356.612 349.569 356.612 349.569" stroke="white" stroke-width="0.334449" stroke-miterlimit="10" stroke-linecap="round" stroke-linejoin="round"/>
<path d="M349.784 345.401C349.784 345.401 350.001 345.466 350.371 345.587" stroke="white" stroke-width="0.334449" stroke-miterlimit="10" stroke-linecap="round" stroke-linejoin="round"/>
<path d="M352.216 351.35C352.216 351.35 353.656 349.271 355.177 350.107C356.696 350.944 355.512 353.905 354.598 354.937C353.684 355.968 351.916 354.055 351.741 353.563" fill="white"/>
<mask id="mask28_5212_2608" style="mask-type:luminance" maskUnits="userSpaceOnUse" x="351" y="349" width="5" height="7">
<path d="M352.212 351.35C352.212 351.35 353.653 349.271 355.173 350.107C356.692 350.944 355.508 353.905 354.594 354.937C353.68 355.968 351.912 354.055 351.737 353.563" fill="white"/>
</mask>
<g mask="url(#mask28_5212_2608)">
<path d="M352.212 351.35C352.212 351.35 353.653 349.271 355.173 350.107C356.692 350.944 355.508 353.905 354.594 354.937C353.68 355.968 351.912 354.055 351.737 353.563" fill="#0F4C81"/>
</g>
<mask id="mask29_5212_2608" style="mask-type:luminance" maskUnits="userSpaceOnUse" x="351" y="349" width="5" height="7">
<path d="M352.212 351.35C352.212 351.35 353.653 349.271 355.173 350.107C356.692 350.944 355.508 353.905 354.594 354.937C353.68 355.968 351.912 354.055 351.737 353.563" fill="white"/>
</mask>
<g mask="url(#mask29_5212_2608)">
<path opacity="0.5" d="M352.212 351.35C352.212 351.35 353.653 349.271 355.173 350.107C356.692 350.944 355.508 353.905 354.594 354.937C353.68 355.968 351.912 354.055 351.737 353.563" fill="white"/>
</g>
<path d="M352.216 351.35C352.216 351.35 353.656 349.271 355.177 350.107C356.696 350.944 355.512 353.905 354.598 354.937C353.684 355.968 351.916 354.055 351.741 353.563" stroke="#263238" stroke-width="0.445932" stroke-miterlimit="10" stroke-linecap="round" stroke-linejoin="round"/>
</g>
<defs>
<filter id="filter0_f_5212_2608" x="201.9" y="327.9" width="308.2" height="181.2" filterUnits="userSpaceOnUse" color-interpolation-filters="sRGB">
<feFlood flood-opacity="0" result="BackgroundImageFix"/>
<feBlend mode="normal" in="SourceGraphic" in2="BackgroundImageFix" result="shape"/>
<feGaussianBlur stdDeviation="40.05" result="effect1_foregroundBlur_5212_2608"/>
</filter>
<linearGradient id="paint0_linear_5212_2608" x1="215" y1="-2.39047e-06" x2="137.117" y2="519.766" gradientUnits="userSpaceOnUse">
<stop stop-color="#3769D1"/>
<stop offset="1" stop-color="#6698FA"/>
</linearGradient>
<linearGradient id="paint1_linear_5212_2608" x1="215" y1="401" x2="215" y2="499" gradientUnits="userSpaceOnUse">
<stop stop-color="#CCDDFF"/>
<stop offset="1" stop-color="#F8FBFF"/>
</linearGradient>
<clipPath id="clip0_5212_2608">
<rect width="430" height="499" fill="white"/>
</clipPath>
</defs>
</svg>
