<svg width="1440" height="312" viewBox="0 0 1440 312" fill="none" xmlns="http://www.w3.org/2000/svg" preserveAspectRatio="none">
<g clip-path="url(#clip0_6295_3384)">
<path d="M0 219.12L30.375 217.489L110.812 219.12H155.25L200.812 214.772L282.375 219.12L380.25 214.5L491.062 219.12L770.625 214.772L977.625 217.218L1109.81 225.643L1279.12 217.218L1380.94 214.772L1440 217.218V311.25H754.875H0V219.12Z" fill="url(#paint0_linear_6295_3384)"/>
<g filter="url(#filter0_f_6295_3384)">
<rect x="1273.5" y="232.5" width="139.5" height="19.125" fill="#6698FA"/>
</g>
<path d="M1328.02 16.5L1354.79 94.2959L1394.52 209.735L1327.6 230.648L1257.75 209.735L1328.02 16.5Z" fill="#6698FA"/>
<path d="M1323.84 167.071V154.523V147.413L1312.96 131.519L1302.51 115.207L1307.11 119.808L1321.33 134.865L1324.67 138.211L1325.93 103.078L1327.18 70.0352L1328.02 88.8567L1329.69 140.302L1337.22 131.937L1342.24 127.336L1349.85 119.244L1343.5 129.428L1329.27 152.014L1330.11 172.927L1330.95 187.984L1346.84 177.527L1354.79 172.927L1358.55 170.417L1362.32 167.907L1365.25 167.489L1361.9 170.417L1358.55 174.181L1351.02 180.873L1331.37 196.349L1331.78 226.882L1332.78 239.011H1320.91L1321.75 195.931L1316.31 191.33L1287.45 165.816L1304.6 175.854L1320.07 185.892L1322.16 186.729L1323 187.147V180.455L1323.84 167.071Z" fill="#CCDDFF"/>
<path d="M1374.51 64.875L1395.43 125.662L1426.47 215.861L1374.18 232.202L1319.61 215.861L1374.51 64.875Z" fill="#6698FA"/>
<path d="M1371.24 182.527V172.723V167.167L1362.75 154.748L1354.58 142.003L1358.17 145.597L1369.28 157.363L1371.9 159.977L1372.88 132.525L1373.86 106.707L1374.51 121.413L1375.82 161.611L1381.7 155.075L1385.62 151.48L1391.57 145.157L1386.6 153.114L1375.49 170.762L1376.15 187.102L1376.8 198.868L1389.22 190.697L1395.43 187.102L1398.37 185.142L1401.31 183.181L1403.6 182.854L1400.98 185.142L1398.37 188.083L1392.49 193.312L1377.13 205.404L1377.45 229.261L1378.23 238.738H1368.96L1369.61 205.077L1365.36 201.482L1342.81 181.547L1356.21 189.39L1368.3 197.234L1369.94 197.887L1370.59 198.214V192.985L1371.24 182.527Z" fill="#CCDDFF"/>
<path d="M106.957 49.125L127.529 108.911L158.064 197.625L106.636 213.697L52.957 197.625L106.957 49.125Z" fill="#6698FA"/>
<path d="M103.742 164.837V155.194V149.73L95.3845 137.516L87.3488 124.98L90.8845 128.516L101.813 140.087L104.385 142.659L105.349 115.659L106.313 90.2656L106.956 104.73L108.242 144.266L114.027 137.837L117.885 134.301L123.736 128.083L118.849 135.909L107.92 153.266L108.563 169.337L109.206 180.909L121.42 172.873L127.527 169.337L130.42 167.409L133.313 165.48L135.563 165.159L132.992 167.409L130.42 170.302L124.635 175.444L109.527 187.337L109.849 210.802L110.611 220.123H101.492L102.135 187.016L97.956 183.48L75.7773 163.873L88.956 171.587L100.849 179.302L102.456 179.944L103.099 180.266V175.123L103.742 164.837Z" fill="#CCDDFF"/>
<path d="M136.611 112.25L149.567 149.901L168.797 205.771L136.409 215.893L102.604 205.771L136.611 112.25Z" fill="#6698FA"/>
<path d="M134.584 185.123V179.05V175.609L129.321 167.917L124.26 160.022L126.487 162.249L133.369 169.536L134.989 171.156L135.596 154.152L136.203 138.16L136.608 147.269L137.418 172.168L141.062 168.119L143.491 165.893L147.176 161.976L144.098 166.905L137.215 177.836L137.62 187.957L138.025 195.245L145.717 190.184L149.563 187.957L151.385 186.743L153.207 185.528L154.624 185.326L153.005 186.743L151.385 188.565L147.742 191.803L138.228 199.293L138.43 214.07L138.91 219.941H133.167L133.572 199.091L130.94 196.864L116.973 184.516L125.272 189.374L132.762 194.233L133.774 194.637L134.179 194.84V191.601L134.584 185.123Z" fill="#CCDDFF"/>
<path d="M80.4436 86.5117L96.5174 133.226L120.377 202.544L80.1925 215.102L38.25 202.544L80.4436 86.5117Z" fill="#6698FA"/>
<path d="M77.9323 176.924V169.389V165.119L71.4023 155.576L65.1235 145.781L67.8862 148.543L76.4254 157.585L78.4346 159.594L79.1881 138.497L79.9415 118.656L80.4438 129.958L81.4484 160.85L85.9692 155.827L88.983 153.064L93.5549 148.205L89.7365 154.32L81.1973 167.882L81.6996 180.44L82.2019 189.481L91.7457 183.202L96.5176 180.44L98.778 178.933L101.038 177.426L102.796 177.175L100.787 178.933L98.778 181.193L94.2572 185.212L82.4531 194.504L82.7042 212.838L83.3 220.122H76.1742L76.6765 194.253L73.4116 191.491L56.082 176.17L66.3793 182.198L75.6719 188.226L76.9277 188.728L77.43 188.979V184.961L77.9323 176.924Z" fill="#CCDDFF"/>
<g filter="url(#filter1_f_6295_3384)">
<rect x="73.125" y="217.875" width="65.25" height="9" fill="#0053F7"/>
</g>
</g>
<defs>
<filter id="filter0_f_6295_3384" x="1216.69" y="175.688" width="253.125" height="132.75" filterUnits="userSpaceOnUse" color-interpolation-filters="sRGB">
<feFlood flood-opacity="0" result="BackgroundImageFix"/>
<feBlend mode="normal" in="SourceGraphic" in2="BackgroundImageFix" result="shape"/>
<feGaussianBlur stdDeviation="28.4062" result="effect1_foregroundBlur_6295_3384"/>
</filter>
<filter id="filter1_f_6295_3384" x="9.3375" y="154.087" width="192.825" height="136.575" filterUnits="userSpaceOnUse" color-interpolation-filters="sRGB">
<feFlood flood-opacity="0" result="BackgroundImageFix"/>
<feBlend mode="normal" in="SourceGraphic" in2="BackgroundImageFix" result="shape"/>
<feGaussianBlur stdDeviation="31.8938" result="effect1_foregroundBlur_6295_3384"/>
</filter>
<linearGradient id="paint0_linear_6295_3384" x1="720" y1="228.904" x2="720" y2="266.952" gradientUnits="userSpaceOnUse">
<stop stop-color="#CCDDFF"/>
<stop offset="1" stop-color="#F5F8FF"/>
</linearGradient>
<clipPath id="clip0_6295_3384">
<rect width="1440" height="310.5" fill="white" transform="translate(0 0.75)"/>
</clipPath>
</defs>
</svg>
