<svg width="126" height="52" viewBox="0 0 126 52" fill="none" xmlns="http://www.w3.org/2000/svg">
<rect x="0.5" y="0.5" width="125" height="51" rx="3.5" fill="white"/>
<rect x="0.5" y="0.5" width="125" height="51" rx="3.5" stroke="#5B8DEF"/>
<path d="M36.3331 21.6666H30.4999V20H36.3331V21.6666ZM37.7715 29.9999C37.4031 31.0807 36.0806 32.4999 33.5207 32.4999C30.959 32.4999 28.884 31.059 28.884 27.7707C28.884 24.5125 30.8215 22.8375 33.439 22.8375C36.0073 22.8375 37.5756 24.3225 37.9181 26.5258C37.9831 26.9474 38.0089 27.5158 37.9973 28.3091H31.3082C31.4165 30.9849 34.2107 31.069 35.1315 29.9999H37.7715ZM31.3665 26.6666H35.504C35.4165 25.3774 34.5573 24.8174 33.4398 24.8174C32.2182 24.8174 31.5424 25.4574 31.3665 26.6666ZM23.3883 32.4899H18V20.0175H23.7941C28.3574 20.085 28.4441 24.5541 26.0607 25.7724C28.9449 26.8224 29.0415 32.4899 23.3883 32.4899V32.4899ZM20.5 24.9999H23.4866C25.5766 24.9999 25.9082 22.5 23.2266 22.5H20.5V24.9999V24.9999ZM23.3258 27.4999H20.5V30.0132H23.2841C25.8299 30.0132 25.6741 27.4999 23.3258 27.4999V27.4999Z" fill="#6698FA"/>
<path d="M51.164 25.05H53.39C53.782 25.05 54.104 24.9567 54.356 24.77C54.608 24.5833 54.734 24.28 54.734 23.86C54.734 23.6267 54.692 23.4353 54.608 23.286C54.524 23.1367 54.412 23.02 54.272 22.936C54.132 22.852 53.9687 22.796 53.782 22.768C53.6047 22.7307 53.418 22.712 53.222 22.712H51.164V25.05ZM48.966 21.004H53.67C54.146 21.004 54.58 21.046 54.972 21.13C55.364 21.214 55.7 21.354 55.98 21.55C56.26 21.7367 56.4747 21.9887 56.624 22.306C56.7827 22.6233 56.862 23.0153 56.862 23.482C56.862 23.986 56.7453 24.406 56.512 24.742C56.288 25.078 55.952 25.3533 55.504 25.568C56.12 25.7453 56.5773 26.058 56.876 26.506C57.184 26.9447 57.338 27.4767 57.338 28.102C57.338 28.606 57.24 29.0447 57.044 29.418C56.848 29.782 56.582 30.0807 56.246 30.314C55.9193 30.5473 55.5413 30.72 55.112 30.832C54.692 30.944 54.258 31 53.81 31H48.966V21.004ZM51.164 29.292H53.516C53.7307 29.292 53.936 29.2733 54.132 29.236C54.328 29.1893 54.5007 29.1193 54.65 29.026C54.7993 28.9233 54.916 28.788 55 28.62C55.0933 28.452 55.14 28.2373 55.14 27.976C55.14 27.4627 54.9953 27.0987 54.706 26.884C54.4167 26.66 54.034 26.548 53.558 26.548H51.164V29.292ZM63.9854 26.604C63.8921 26.1 63.7241 25.7173 63.4814 25.456C63.2481 25.1947 62.8888 25.064 62.4034 25.064C62.0861 25.064 61.8201 25.12 61.6054 25.232C61.4001 25.3347 61.2321 25.4653 61.1014 25.624C60.9801 25.7827 60.8914 25.9507 60.8354 26.128C60.7888 26.3053 60.7608 26.464 60.7514 26.604H63.9854ZM60.7514 27.864C60.7794 28.508 60.9428 28.9747 61.2414 29.264C61.5401 29.5533 61.9694 29.698 62.5294 29.698C62.9308 29.698 63.2761 29.6 63.5654 29.404C63.8548 29.1987 64.0321 28.984 64.0974 28.76H65.8474C65.5674 29.628 65.1381 30.2487 64.5594 30.622C63.9808 30.9953 63.2808 31.182 62.4594 31.182C61.8901 31.182 61.3768 31.0933 60.9194 30.916C60.4621 30.7293 60.0748 30.468 59.7574 30.132C59.4401 29.796 59.1928 29.3947 59.0154 28.928C58.8474 28.4613 58.7634 27.948 58.7634 27.388C58.7634 26.8467 58.8521 26.3427 59.0294 25.876C59.2068 25.4093 59.4588 25.008 59.7854 24.672C60.1121 24.3267 60.4994 24.056 60.9474 23.86C61.4048 23.664 61.9088 23.566 62.4594 23.566C63.0754 23.566 63.6121 23.6873 64.0694 23.93C64.5268 24.1633 64.9001 24.4807 65.1894 24.882C65.4881 25.2833 65.7028 25.7407 65.8334 26.254C65.9641 26.7673 66.0108 27.304 65.9734 27.864H60.7514ZM67.6525 21.004H69.6405V24.77H69.6825C69.9345 24.35 70.2565 24.0467 70.6485 23.86C71.0405 23.664 71.4232 23.566 71.7965 23.566C72.3285 23.566 72.7625 23.6407 73.0985 23.79C73.4438 23.93 73.7145 24.1307 73.9105 24.392C74.1065 24.644 74.2418 24.9567 74.3165 25.33C74.4005 25.694 74.4425 26.1 74.4425 26.548V31H72.4545V26.912C72.4545 26.3147 72.3612 25.8713 72.1745 25.582C71.9878 25.2833 71.6565 25.134 71.1805 25.134C70.6392 25.134 70.2472 25.2973 70.0045 25.624C69.7618 25.9413 69.6405 26.4687 69.6405 27.206V31H67.6525V21.004ZM76.3673 25.988C76.3953 25.5213 76.512 25.134 76.7173 24.826C76.9226 24.518 77.184 24.2707 77.5013 24.084C77.8186 23.8973 78.1733 23.7667 78.5653 23.692C78.9666 23.608 79.368 23.566 79.7693 23.566C80.1333 23.566 80.502 23.594 80.8753 23.65C81.2486 23.6967 81.5893 23.7947 81.8973 23.944C82.2053 24.0933 82.4573 24.3033 82.6533 24.574C82.8493 24.8353 82.9473 25.1853 82.9473 25.624V29.39C82.9473 29.7167 82.966 30.0293 83.0033 30.328C83.0406 30.6267 83.106 30.8507 83.1993 31H81.1833C81.146 30.888 81.1133 30.776 81.0853 30.664C81.0666 30.5427 81.0526 30.4213 81.0433 30.3C80.726 30.6267 80.3526 30.8553 79.9233 30.986C79.494 31.1167 79.0553 31.182 78.6073 31.182C78.262 31.182 77.94 31.14 77.6413 31.056C77.3426 30.972 77.0813 30.8413 76.8573 30.664C76.6333 30.4867 76.456 30.2627 76.3253 29.992C76.204 29.7213 76.1433 29.3993 76.1433 29.026C76.1433 28.6153 76.2133 28.2793 76.3533 28.018C76.5026 27.7473 76.6893 27.5327 76.9133 27.374C77.1466 27.2153 77.408 27.0987 77.6973 27.024C77.996 26.94 78.2946 26.8747 78.5933 26.828C78.892 26.7813 79.186 26.744 79.4753 26.716C79.7646 26.688 80.0213 26.646 80.2453 26.59C80.4693 26.534 80.6466 26.4547 80.7773 26.352C80.908 26.24 80.9686 26.0813 80.9593 25.876C80.9593 25.6613 80.922 25.4933 80.8473 25.372C80.782 25.2413 80.6886 25.1433 80.5673 25.078C80.4553 25.0033 80.32 24.9567 80.1613 24.938C80.012 24.91 79.8486 24.896 79.6713 24.896C79.2793 24.896 78.9713 24.98 78.7473 25.148C78.5233 25.316 78.3926 25.596 78.3553 25.988H76.3673ZM80.9593 27.458C80.8753 27.5327 80.768 27.5933 80.6373 27.64C80.516 27.6773 80.3806 27.71 80.2313 27.738C80.0913 27.766 79.942 27.7893 79.7833 27.808C79.6246 27.8267 79.466 27.85 79.3073 27.878C79.158 27.906 79.0086 27.9433 78.8593 27.99C78.7193 28.0367 78.5933 28.102 78.4813 28.186C78.3786 28.2607 78.2946 28.3587 78.2293 28.48C78.164 28.6013 78.1313 28.7553 78.1313 28.942C78.1313 29.1193 78.164 29.2687 78.2293 29.39C78.2946 29.5113 78.3833 29.6093 78.4953 29.684C78.6073 29.7493 78.738 29.796 78.8873 29.824C79.0366 29.852 79.1906 29.866 79.3493 29.866C79.7413 29.866 80.0446 29.8007 80.2593 29.67C80.474 29.5393 80.6326 29.3853 80.7353 29.208C80.838 29.0213 80.8986 28.8347 80.9173 28.648C80.9453 28.4613 80.9593 28.312 80.9593 28.2V27.458ZM84.9904 23.762H86.8804V24.77H86.9224C87.1744 24.35 87.501 24.0467 87.9024 23.86C88.3037 23.664 88.7144 23.566 89.1344 23.566C89.6664 23.566 90.1004 23.6407 90.4364 23.79C90.7817 23.93 91.0524 24.1307 91.2484 24.392C91.4444 24.644 91.5797 24.9567 91.6544 25.33C91.7384 25.694 91.7804 26.1 91.7804 26.548V31H89.7924V26.912C89.7924 26.3147 89.699 25.8713 89.5124 25.582C89.3257 25.2833 88.9944 25.134 88.5184 25.134C87.977 25.134 87.585 25.2973 87.3424 25.624C87.0997 25.9413 86.9784 26.4687 86.9784 27.206V31H84.9904V23.762ZM98.7172 26.31C98.5865 25.4793 98.0965 25.064 97.2472 25.064C96.9299 25.064 96.6639 25.1387 96.4492 25.288C96.2345 25.428 96.0572 25.6147 95.9172 25.848C95.7865 26.072 95.6932 26.324 95.6372 26.604C95.5812 26.8747 95.5532 27.1453 95.5532 27.416C95.5532 27.6773 95.5812 27.9433 95.6372 28.214C95.6932 28.4847 95.7819 28.732 95.9032 28.956C96.0339 29.1707 96.2065 29.348 96.4212 29.488C96.6359 29.628 96.8972 29.698 97.2052 29.698C97.6812 29.698 98.0452 29.5673 98.2972 29.306C98.5585 29.0353 98.7219 28.676 98.7872 28.228H100.705C100.575 29.1893 100.201 29.922 99.5852 30.426C98.9692 30.93 98.1805 31.182 97.2192 31.182C96.6779 31.182 96.1785 31.0933 95.7212 30.916C95.2732 30.7293 94.8905 30.4727 94.5732 30.146C94.2559 29.8193 94.0085 29.432 93.8312 28.984C93.6539 28.5267 93.5652 28.0273 93.5652 27.486C93.5652 26.926 93.6445 26.408 93.8032 25.932C93.9712 25.4467 94.2139 25.0313 94.5312 24.686C94.8485 24.3313 95.2359 24.056 95.6932 23.86C96.1505 23.664 96.6732 23.566 97.2612 23.566C97.6905 23.566 98.1012 23.622 98.4932 23.734C98.8945 23.846 99.2492 24.0187 99.5572 24.252C99.8745 24.476 100.131 24.7607 100.327 25.106C100.523 25.442 100.635 25.8433 100.663 26.31H98.7172ZM107.2 26.604C107.107 26.1 106.939 25.7173 106.696 25.456C106.463 25.1947 106.104 25.064 105.618 25.064C105.301 25.064 105.035 25.12 104.82 25.232C104.615 25.3347 104.447 25.4653 104.316 25.624C104.195 25.7827 104.106 25.9507 104.05 26.128C104.004 26.3053 103.976 26.464 103.966 26.604H107.2ZM103.966 27.864C103.994 28.508 104.158 28.9747 104.456 29.264C104.755 29.5533 105.184 29.698 105.744 29.698C106.146 29.698 106.491 29.6 106.78 29.404C107.07 29.1987 107.247 28.984 107.312 28.76H109.062C108.782 29.628 108.353 30.2487 107.774 30.622C107.196 30.9953 106.496 31.182 105.674 31.182C105.105 31.182 104.592 31.0933 104.134 30.916C103.677 30.7293 103.29 30.468 102.972 30.132C102.655 29.796 102.408 29.3947 102.23 28.928C102.062 28.4613 101.978 27.948 101.978 27.388C101.978 26.8467 102.067 26.3427 102.244 25.876C102.422 25.4093 102.674 25.008 103 24.672C103.327 24.3267 103.714 24.056 104.162 23.86C104.62 23.664 105.124 23.566 105.674 23.566C106.29 23.566 106.827 23.6873 107.284 23.93C107.742 24.1633 108.115 24.4807 108.404 24.882C108.703 25.2833 108.918 25.7407 109.048 26.254C109.179 26.7673 109.226 27.304 109.188 27.864H103.966Z" fill="#6698FA"/>
</svg>
