<svg width="40" height="40" viewBox="0 0 40 40" fill="none" xmlns="http://www.w3.org/2000/svg">
<path fill-rule="evenodd" clip-rule="evenodd" d="M19.7185 8.33751C19.0353 7.80105 18.0472 7.91644 17.5059 8.59588C17.2325 8.93901 17.2909 9.4391 17.636 9.71002L21.3422 12.6199L11.1844 12.6836C10.3158 12.689 9.61425 13.3944 9.61357 14.2631C9.61322 14.7018 9.97021 15.0568 10.4089 15.0541L15.9734 15.0192L6.4463 22.1645C5.58513 22.8104 5.41629 24.0348 6.07051 24.8896C6.39316 25.3112 6.99518 25.3943 7.41989 25.0757L13.7869 20.3005C13.7649 20.5214 13.7536 20.7451 13.7536 20.971C13.7536 25.2172 17.7254 28.6593 22.6248 28.6593C27.5242 28.6593 31.4959 25.2172 31.4959 20.971C31.4959 18.5274 30.1805 16.35 28.1299 14.9418L19.7185 8.33751ZM22.6251 22.7444C24.7871 22.7444 26.1736 21.2298 26.1736 19.7874C26.1736 18.3449 24.7871 16.8303 22.6251 16.8303C20.4632 16.8303 19.0767 18.3449 19.0767 19.7874C19.0767 21.2298 20.4632 22.7444 22.6251 22.7444ZM22.6251 24.5187C25.5648 24.5187 27.9478 22.4004 27.9478 19.7874C27.9478 17.1744 25.5648 15.0561 22.6251 15.0561C19.6855 15.0561 17.3025 17.1744 17.3025 19.7874C17.3025 22.4004 19.6855 24.5187 22.6251 24.5187Z" fill="#555770"/>
</svg>
