<svg width="111" height="52" viewBox="0 0 111 52" fill="none" xmlns="http://www.w3.org/2000/svg">
<rect x="0.5" y="0.5" width="110" height="51" rx="3.5" fill="white"/>
<rect x="0.5" y="0.5" width="110" height="51" rx="3.5" stroke="#5B8DEF"/>
<g clip-path="url(#clip0_6401_6248)">
<path d="M22.3152 20.1756C22.0652 19.5376 22.0752 18.8086 22.1862 18.1416C22.9504 18.3705 23.6681 18.7328 24.3062 19.2116C24.5862 19.4256 24.9532 19.4946 25.2952 19.3916C26.1728 19.129 27.0842 18.9969 28.0002 18.9996C28.9612 18.9996 29.8742 19.1396 30.7032 19.3906C31.0452 19.4946 31.4122 19.4246 31.6912 19.2106C32.329 18.7319 33.0464 18.3696 33.8102 18.1406C33.9212 18.8076 33.9302 19.5366 33.6822 20.1736C33.5322 20.5576 33.6072 20.9996 33.8902 21.3136C34.6142 22.1166 35.0002 23.0396 35.0002 23.9996C35.0002 26.1136 33.0302 28.1866 29.8662 28.8176C29.0742 28.9756 28.7652 29.9726 29.3712 30.5436C29.7602 30.9096 30.0002 31.4256 30.0002 31.9996V34.9996C30.0002 35.2648 30.1056 35.5191 30.2931 35.7067C30.4807 35.8942 30.735 35.9996 31.0002 35.9996C31.2654 35.9996 31.5198 35.8942 31.7073 35.7067C31.8949 35.5191 32.0002 35.2648 32.0002 34.9996V31.9996C32.0002 31.4296 31.8802 30.8876 31.6662 30.3966C34.6832 29.3496 37.0002 26.9926 37.0002 23.9996C37.0002 22.6526 36.5162 21.4146 35.7132 20.3776C35.9232 19.5576 35.9042 18.7316 35.8242 18.0976C35.7532 17.5296 35.6542 16.7856 35.2542 16.3416C34.6592 15.6826 33.6742 16.0706 32.9742 16.3096C32.2233 16.5637 31.5089 16.915 30.8492 17.3546C29.9183 17.117 28.961 16.9977 28.0002 16.9996C27.0062 16.9996 26.0472 17.1246 25.1492 17.3556C24.4896 16.916 23.7751 16.5646 23.0242 16.3106C22.3242 16.0706 21.3382 15.6826 20.7432 16.3416C20.3352 16.7936 20.2502 17.4786 20.1772 18.0606L20.1722 18.0986C20.0922 18.7336 20.0742 19.5606 20.2842 20.3816C19.4842 21.4176 19.0002 22.6536 19.0002 23.9996C19.0002 26.9916 21.3172 29.3496 24.3342 30.3966C24.1159 30.8958 24.0022 31.4346 24.0002 31.9796L23.8322 32.0136C23.1152 32.1126 22.6562 32.0236 22.3442 31.8916C21.5842 31.5696 21.1922 30.7586 20.7142 30.1386C20.4162 29.7536 19.9822 29.2726 19.3162 29.0506C19.1916 29.0091 19.06 28.9925 18.929 29.0019C18.798 29.0112 18.6701 29.0463 18.5526 29.1051C18.3154 29.2238 18.135 29.4319 18.0512 29.6836C17.9674 29.9353 17.987 30.2099 18.1057 30.4472C18.2244 30.6844 18.4325 30.8648 18.6842 30.9486C19.2422 31.1346 19.6282 32.0906 19.9822 32.5146C20.3552 32.9626 20.8512 33.4306 21.5622 33.7326C22.2442 34.0226 23.0452 34.1256 24.0002 34.0086V34.9996C24.0002 35.2648 24.1056 35.5191 24.2931 35.7067C24.4807 35.8942 24.735 35.9996 25.0002 35.9996C25.2654 35.9996 25.5198 35.8942 25.7073 35.7067C25.8949 35.5191 26.0002 35.2648 26.0002 34.9996V31.9996C26.0002 31.4256 26.2402 30.9096 26.6292 30.5436C27.2362 29.9716 26.9262 28.9756 26.1342 28.8176C22.9692 28.1866 21.0002 26.1136 21.0002 23.9996C21.0002 23.0416 21.3852 22.1186 22.1082 21.3156C22.3912 21.0016 22.4652 20.5596 22.3152 20.1756Z" fill="#5B8DEF"/>
</g>
<path d="M56.19 29.866C55.798 30.37 55.364 30.7247 54.888 30.93C54.412 31.126 53.9313 31.224 53.446 31.224C52.6807 31.224 51.99 31.0933 51.374 30.832C50.7673 30.5613 50.254 30.1927 49.834 29.726C49.414 29.2593 49.092 28.7133 48.868 28.088C48.644 27.4533 48.532 26.772 48.532 26.044C48.532 25.2973 48.644 24.6067 48.868 23.972C49.092 23.328 49.414 22.768 49.834 22.292C50.254 21.816 50.7673 21.4427 51.374 21.172C51.99 20.9013 52.6807 20.766 53.446 20.766C53.9593 20.766 54.454 20.8453 54.93 21.004C55.4153 21.1533 55.8493 21.3773 56.232 21.676C56.624 21.9747 56.946 22.3433 57.198 22.782C57.45 23.2207 57.604 23.7247 57.66 24.294H55.56C55.4293 23.734 55.1773 23.314 54.804 23.034C54.4307 22.754 53.978 22.614 53.446 22.614C52.9513 22.614 52.5313 22.712 52.186 22.908C51.8407 23.0947 51.5607 23.3513 51.346 23.678C51.1313 23.9953 50.9727 24.3593 50.87 24.77C50.7767 25.1807 50.73 25.6053 50.73 26.044C50.73 26.464 50.7767 26.8747 50.87 27.276C50.9727 27.668 51.1313 28.0227 51.346 28.34C51.5607 28.6573 51.8407 28.914 52.186 29.11C52.5313 29.2967 52.9513 29.39 53.446 29.39C54.174 29.39 54.734 29.208 55.126 28.844C55.5273 28.4707 55.7607 27.934 55.826 27.234H53.614V25.596H57.814V31H56.414L56.19 29.866ZM61.923 22.642H59.935V21.004H61.923V22.642ZM59.935 23.762H61.923V31H59.935V23.762ZM66.5084 23.762H67.9644V25.092H66.5084V28.676C66.5084 29.012 66.5644 29.236 66.6764 29.348C66.7884 29.46 67.0124 29.516 67.3484 29.516C67.4604 29.516 67.5678 29.5113 67.6704 29.502C67.7731 29.4927 67.8711 29.4787 67.9644 29.46V31C67.7964 31.028 67.6098 31.0467 67.4044 31.056C67.1991 31.0653 66.9984 31.07 66.8024 31.07C66.4944 31.07 66.2004 31.0467 65.9204 31C65.6498 30.9627 65.4071 30.8833 65.1924 30.762C64.9871 30.6407 64.8238 30.468 64.7024 30.244C64.5811 30.02 64.5204 29.726 64.5204 29.362V25.092H63.3164V23.762H64.5204V21.592H66.5084V23.762ZM69.4103 21.004H71.3983V24.77H71.4403C71.6923 24.35 72.0143 24.0467 72.4063 23.86C72.7983 23.664 73.181 23.566 73.5543 23.566C74.0863 23.566 74.5203 23.6407 74.8563 23.79C75.2016 23.93 75.4723 24.1307 75.6683 24.392C75.8643 24.644 75.9996 24.9567 76.0743 25.33C76.1583 25.694 76.2003 26.1 76.2003 26.548V31H74.2123V26.912C74.2123 26.3147 74.119 25.8713 73.9323 25.582C73.7456 25.2833 73.4143 25.134 72.9383 25.134C72.397 25.134 72.005 25.2973 71.7623 25.624C71.5196 25.9413 71.3983 26.4687 71.3983 27.206V31H69.4103V21.004ZM84.9991 31H83.1091V29.992H83.0671C82.8151 30.412 82.4885 30.7153 82.0871 30.902C81.6858 31.0887 81.2751 31.182 80.8551 31.182C80.3231 31.182 79.8845 31.112 79.5391 30.972C79.2031 30.832 78.9371 30.636 78.7411 30.384C78.5451 30.1227 78.4051 29.81 78.3211 29.446C78.2465 29.0727 78.2091 28.662 78.2091 28.214V23.762H80.1971V27.85C80.1971 28.4473 80.2905 28.8953 80.4771 29.194C80.6638 29.4833 80.9951 29.628 81.4711 29.628C82.0125 29.628 82.4045 29.4693 82.6471 29.152C82.8898 28.8253 83.0111 28.2933 83.0111 27.556V23.762H84.9991V31ZM92.314 27.388C92.314 27.08 92.2813 26.786 92.216 26.506C92.1506 26.226 92.048 25.9787 91.908 25.764C91.768 25.5493 91.5906 25.3813 91.376 25.26C91.1706 25.1293 90.9186 25.064 90.62 25.064C90.3306 25.064 90.0786 25.1293 89.864 25.26C89.6493 25.3813 89.472 25.5493 89.332 25.764C89.192 25.9787 89.0893 26.226 89.024 26.506C88.9586 26.786 88.926 27.08 88.926 27.388C88.926 27.6867 88.9586 27.976 89.024 28.256C89.0893 28.536 89.192 28.7833 89.332 28.998C89.472 29.2127 89.6493 29.3853 89.864 29.516C90.0786 29.6373 90.3306 29.698 90.62 29.698C90.9186 29.698 91.1706 29.6373 91.376 29.516C91.5906 29.3853 91.768 29.2127 91.908 28.998C92.048 28.7833 92.1506 28.536 92.216 28.256C92.2813 27.976 92.314 27.6867 92.314 27.388ZM87.008 21.004H88.996V24.644H89.024C89.2666 24.2707 89.5933 24 90.004 23.832C90.424 23.6547 90.858 23.566 91.306 23.566C91.67 23.566 92.0293 23.6407 92.384 23.79C92.7386 23.9393 93.056 24.168 93.336 24.476C93.6253 24.784 93.8586 25.1807 94.036 25.666C94.2133 26.142 94.302 26.7113 94.302 27.374C94.302 28.0367 94.2133 28.6107 94.036 29.096C93.8586 29.572 93.6253 29.964 93.336 30.272C93.056 30.58 92.7386 30.8087 92.384 30.958C92.0293 31.1073 91.67 31.182 91.306 31.182C90.774 31.182 90.298 31.098 89.878 30.93C89.458 30.762 89.1406 30.4773 88.926 30.076H88.898V31H87.008V21.004Z" fill="#5B8DEF"/>
<defs>
<clipPath id="clip0_6401_6248">
<rect width="24" height="24" fill="white" transform="translate(16 14)"/>
</clipPath>
</defs>
</svg>
