<svg width="136" height="52" viewBox="0 0 136 52" fill="none" xmlns="http://www.w3.org/2000/svg">
<rect x="0.5" y="0.5" width="135" height="51" rx="3.5" fill="white"/>
<rect x="0.5" y="0.5" width="135" height="51" rx="3.5" stroke="#5B8DEF"/>
<path fill-rule="evenodd" clip-rule="evenodd" d="M28 16C25.284 16 24.944 16.0113 23.8773 16.06C22.8127 16.1087 22.0853 16.278 21.4493 16.5253C20.7827 16.776 20.178 17.1693 19.678 17.6787C19.1695 18.1781 18.7759 18.7823 18.5247 19.4493C18.2787 20.0853 18.1087 20.8133 18.06 21.878C18.012 22.944 18 23.2833 18 26C18 28.7167 18.0113 29.056 18.06 30.1227C18.1087 31.1873 18.278 31.9147 18.5253 32.5507C18.776 33.2173 19.1693 33.822 19.6787 34.322C20.1781 34.8305 20.7823 35.2241 21.4493 35.4753C22.0853 35.722 22.8127 35.8913 23.8773 35.94C24.944 35.9887 25.284 36 28 36C30.716 36 31.056 35.9887 32.1227 35.94C33.1873 35.8913 33.9147 35.722 34.5507 35.4747C35.2173 35.224 35.822 34.8307 36.322 34.3213C36.8305 33.8219 37.2241 33.2177 37.4753 32.5507C37.722 31.9147 37.8913 31.1873 37.94 30.1227C37.9887 29.056 38 28.716 38 26C38 23.284 37.9887 22.944 37.94 21.8773C37.8913 20.8127 37.722 20.0853 37.4747 19.4493C37.2236 18.782 36.83 18.1775 36.3213 17.678C35.8219 17.1695 35.2177 16.7759 34.5507 16.5247C33.9147 16.2787 33.1867 16.1087 32.122 16.06C31.056 16.012 30.7167 16 28 16ZM28 17.802C30.67 17.802 30.9867 17.812 32.0413 17.86C33.016 17.9047 33.5453 18.0667 33.898 18.2047C34.3647 18.3853 34.698 18.6027 35.048 18.952C35.398 19.302 35.6147 19.6353 35.7953 20.102C35.9327 20.4547 36.0953 20.984 36.14 21.9587C36.188 23.0133 36.198 23.33 36.198 26C36.198 28.67 36.188 28.9867 36.14 30.0413C36.0953 31.016 35.9333 31.5453 35.7953 31.898C35.6353 32.3324 35.3799 32.7253 35.048 33.048C34.7254 33.38 34.3324 33.6354 33.898 33.7953C33.5453 33.9327 33.016 34.0953 32.0413 34.14C30.9867 34.188 30.6707 34.198 28 34.198C25.3293 34.198 25.0133 34.188 23.9587 34.14C22.984 34.0953 22.4547 33.9333 22.102 33.7953C21.6676 33.6353 21.2747 33.3799 20.952 33.048C20.6201 32.7253 20.3648 32.3323 20.2047 31.898C20.0673 31.5453 19.9047 31.016 19.86 30.0413C19.812 28.9867 19.802 28.67 19.802 26C19.802 23.33 19.812 23.0133 19.86 21.9587C19.9047 20.984 20.0667 20.4547 20.2047 20.102C20.3853 19.6353 20.6027 19.302 20.952 18.952C21.2746 18.62 21.6676 18.3647 22.102 18.2047C22.4547 18.0673 22.984 17.9047 23.9587 17.86C25.0133 17.812 25.33 17.802 28 17.802Z" fill="#5B8DEF"/>
<path fill-rule="evenodd" clip-rule="evenodd" d="M28 29.3367C27.5618 29.3367 27.128 29.2504 26.7231 29.0827C26.3183 28.915 25.9505 28.6692 25.6406 28.3594C25.3308 28.0495 25.085 27.6817 24.9173 27.2769C24.7497 26.8721 24.6633 26.4382 24.6633 26C24.6633 25.5618 24.7497 25.1279 24.9173 24.7231C25.085 24.3183 25.3308 23.9505 25.6406 23.6406C25.9505 23.3308 26.3183 23.085 26.7231 22.9173C27.128 22.7496 27.5618 22.6633 28 22.6633C28.885 22.6633 29.7336 23.0149 30.3594 23.6406C30.9851 24.2664 31.3367 25.1151 31.3367 26C31.3367 26.8849 30.9851 27.7336 30.3594 28.3594C29.7336 28.9851 28.885 29.3367 28 29.3367ZM28 20.86C26.6368 20.86 25.3294 21.4015 24.3655 22.3655C23.4015 23.3294 22.86 24.6368 22.86 26C22.86 27.3632 23.4015 28.6706 24.3655 29.6345C25.3294 30.5985 26.6368 31.14 28 31.14C29.3632 31.14 30.6706 30.5985 31.6345 29.6345C32.5985 28.6706 33.14 27.3632 33.14 26C33.14 24.6368 32.5985 23.3294 31.6345 22.3655C30.6706 21.4015 29.3632 20.86 28 20.86ZM34.6353 20.7667C34.6353 21.0889 34.5073 21.3979 34.2795 21.6258C34.0516 21.8537 33.7426 21.9817 33.4204 21.9817C33.0981 21.9817 32.7891 21.8537 32.5612 21.6258C32.3334 21.3979 32.2053 21.0889 32.2053 20.7667C32.2053 20.4444 32.3334 20.1354 32.5612 19.9075C32.7891 19.6797 33.0981 19.5517 33.4204 19.5517C33.7426 19.5517 34.0516 19.6797 34.2795 19.9075C34.5073 20.1354 34.6353 20.4444 34.6353 20.7667Z" fill="#5B8DEF"/>
<path d="M48.966 21.004H51.164V31H48.966V21.004ZM53.3849 23.762H55.2749V24.77H55.3169C55.5689 24.35 55.8956 24.0467 56.2969 23.86C56.6982 23.664 57.1089 23.566 57.5289 23.566C58.0609 23.566 58.4949 23.6407 58.8309 23.79C59.1762 23.93 59.4469 24.1307 59.6429 24.392C59.8389 24.644 59.9742 24.9567 60.0489 25.33C60.1329 25.694 60.1749 26.1 60.1749 26.548V31H58.1869V26.912C58.1869 26.3147 58.0936 25.8713 57.9069 25.582C57.7202 25.2833 57.3889 25.134 56.9129 25.134C56.3716 25.134 55.9796 25.2973 55.7369 25.624C55.4942 25.9413 55.3729 26.4687 55.3729 27.206V31H53.3849V23.762ZM63.7237 28.648C63.7237 28.8627 63.7657 29.0493 63.8497 29.208C63.9431 29.3573 64.0597 29.4833 64.1997 29.586C64.3397 29.6793 64.4984 29.7493 64.6757 29.796C64.8624 29.8427 65.0537 29.866 65.2497 29.866C65.3897 29.866 65.5344 29.852 65.6837 29.824C65.8424 29.7867 65.9824 29.7353 66.1037 29.67C66.2344 29.5953 66.3417 29.502 66.4257 29.39C66.5097 29.2687 66.5517 29.1193 66.5517 28.942C66.5517 28.6433 66.3511 28.4193 65.9497 28.27C65.5577 28.1207 65.0071 27.9713 64.2977 27.822C64.0084 27.7567 63.7237 27.682 63.4437 27.598C63.1731 27.5047 62.9304 27.388 62.7157 27.248C62.5011 27.0987 62.3284 26.9167 62.1977 26.702C62.0671 26.478 62.0017 26.2073 62.0017 25.89C62.0017 25.4233 62.0904 25.0407 62.2677 24.742C62.4544 24.4433 62.6971 24.21 62.9957 24.042C63.2944 23.8647 63.6304 23.7433 64.0037 23.678C64.3771 23.6033 64.7597 23.566 65.1517 23.566C65.5437 23.566 65.9217 23.6033 66.2857 23.678C66.6591 23.7527 66.9904 23.8787 67.2797 24.056C67.5691 24.2333 67.8071 24.4713 67.9937 24.77C68.1897 25.0593 68.3064 25.428 68.3437 25.876H66.4537C66.4257 25.4933 66.2811 25.2367 66.0197 25.106C65.7584 24.966 65.4504 24.896 65.0957 24.896C64.9837 24.896 64.8624 24.9053 64.7317 24.924C64.6011 24.9333 64.4797 24.9613 64.3677 25.008C64.2651 25.0547 64.1764 25.1247 64.1017 25.218C64.0271 25.302 63.9897 25.4187 63.9897 25.568C63.9897 25.7453 64.0551 25.89 64.1857 26.002C64.3164 26.114 64.4844 26.2073 64.6897 26.282C64.9044 26.3473 65.1471 26.408 65.4177 26.464C65.6884 26.52 65.9637 26.5807 66.2437 26.646C66.5331 26.7113 66.8131 26.7907 67.0837 26.884C67.3637 26.9773 67.6111 27.1033 67.8257 27.262C68.0404 27.4113 68.2131 27.6027 68.3437 27.836C68.4744 28.06 68.5397 28.34 68.5397 28.676C68.5397 29.152 68.4417 29.5533 68.2457 29.88C68.0591 30.1973 67.8117 30.454 67.5037 30.65C67.1957 30.846 66.8411 30.9813 66.4397 31.056C66.0477 31.14 65.6464 31.182 65.2357 31.182C64.8157 31.182 64.4051 31.14 64.0037 31.056C63.6024 30.972 63.2431 30.832 62.9257 30.636C62.6177 30.44 62.3611 30.1833 62.1557 29.866C61.9597 29.5393 61.8524 29.1333 61.8337 28.648H63.7237ZM72.7233 23.762H74.1793V25.092H72.7233V28.676C72.7233 29.012 72.7793 29.236 72.8913 29.348C73.0033 29.46 73.2273 29.516 73.5633 29.516C73.6753 29.516 73.7826 29.5113 73.8853 29.502C73.9879 29.4927 74.0859 29.4787 74.1793 29.46V31C74.0113 31.028 73.8246 31.0467 73.6193 31.056C73.4139 31.0653 73.2133 31.07 73.0173 31.07C72.7093 31.07 72.4153 31.0467 72.1353 31C71.8646 30.9627 71.6219 30.8833 71.4073 30.762C71.2019 30.6407 71.0386 30.468 70.9173 30.244C70.7959 30.02 70.7353 29.726 70.7353 29.362V25.092H69.5313V23.762H70.7353V21.592H72.7233V23.762ZM75.5411 25.988C75.5691 25.5213 75.6858 25.134 75.8911 24.826C76.0965 24.518 76.3578 24.2707 76.6751 24.084C76.9925 23.8973 77.3471 23.7667 77.7391 23.692C78.1405 23.608 78.5418 23.566 78.9431 23.566C79.3071 23.566 79.6758 23.594 80.0491 23.65C80.4225 23.6967 80.7631 23.7947 81.0711 23.944C81.3791 24.0933 81.6311 24.3033 81.8271 24.574C82.0231 24.8353 82.1211 25.1853 82.1211 25.624V29.39C82.1211 29.7167 82.1398 30.0293 82.1771 30.328C82.2145 30.6267 82.2798 30.8507 82.3731 31H80.3571C80.3198 30.888 80.2871 30.776 80.2591 30.664C80.2405 30.5427 80.2265 30.4213 80.2171 30.3C79.8998 30.6267 79.5265 30.8553 79.0971 30.986C78.6678 31.1167 78.2291 31.182 77.7811 31.182C77.4358 31.182 77.1138 31.14 76.8151 31.056C76.5165 30.972 76.2551 30.8413 76.0311 30.664C75.8071 30.4867 75.6298 30.2627 75.4991 29.992C75.3778 29.7213 75.3171 29.3993 75.3171 29.026C75.3171 28.6153 75.3871 28.2793 75.5271 28.018C75.6765 27.7473 75.8631 27.5327 76.0871 27.374C76.3205 27.2153 76.5818 27.0987 76.8711 27.024C77.1698 26.94 77.4685 26.8747 77.7671 26.828C78.0658 26.7813 78.3598 26.744 78.6491 26.716C78.9385 26.688 79.1951 26.646 79.4191 26.59C79.6431 26.534 79.8205 26.4547 79.9511 26.352C80.0818 26.24 80.1425 26.0813 80.1331 25.876C80.1331 25.6613 80.0958 25.4933 80.0211 25.372C79.9558 25.2413 79.8625 25.1433 79.7411 25.078C79.6291 25.0033 79.4938 24.9567 79.3351 24.938C79.1858 24.91 79.0225 24.896 78.8451 24.896C78.4531 24.896 78.1451 24.98 77.9211 25.148C77.6971 25.316 77.5665 25.596 77.5291 25.988H75.5411ZM80.1331 27.458C80.0491 27.5327 79.9418 27.5933 79.8111 27.64C79.6898 27.6773 79.5545 27.71 79.4051 27.738C79.2651 27.766 79.1158 27.7893 78.9571 27.808C78.7985 27.8267 78.6398 27.85 78.4811 27.878C78.3318 27.906 78.1825 27.9433 78.0331 27.99C77.8931 28.0367 77.7671 28.102 77.6551 28.186C77.5525 28.2607 77.4685 28.3587 77.4031 28.48C77.3378 28.6013 77.3051 28.7553 77.3051 28.942C77.3051 29.1193 77.3378 29.2687 77.4031 29.39C77.4685 29.5113 77.5571 29.6093 77.6691 29.684C77.7811 29.7493 77.9118 29.796 78.0611 29.824C78.2105 29.852 78.3645 29.866 78.5231 29.866C78.9151 29.866 79.2185 29.8007 79.4331 29.67C79.6478 29.5393 79.8065 29.3853 79.9091 29.208C80.0118 29.0213 80.0725 28.8347 80.0911 28.648C80.1191 28.4613 80.1331 28.312 80.1331 28.2V27.458ZM87.5382 29.292C87.8182 29.292 88.0655 29.236 88.2802 29.124C88.4949 29.012 88.6722 28.8627 88.8122 28.676C88.9522 28.4893 89.0549 28.2793 89.1202 28.046C89.1949 27.8033 89.2322 27.5513 89.2322 27.29C89.2322 26.9913 89.2042 26.7113 89.1482 26.45C89.0922 26.1793 88.9989 25.9413 88.8682 25.736C88.7375 25.5307 88.5649 25.3673 88.3502 25.246C88.1355 25.1247 87.8649 25.064 87.5382 25.064C87.2582 25.064 87.0155 25.12 86.8102 25.232C86.6142 25.344 86.4462 25.498 86.3062 25.694C86.1755 25.8807 86.0775 26.1 86.0122 26.352C85.9562 26.5947 85.9282 26.8513 85.9282 27.122C85.9282 27.3833 85.9515 27.6447 85.9982 27.906C86.0542 28.158 86.1429 28.3867 86.2642 28.592C86.3949 28.7973 86.5629 28.9653 86.7682 29.096C86.9735 29.2267 87.2302 29.292 87.5382 29.292ZM91.1222 30.538C91.1222 30.8273 91.0802 31.1587 90.9962 31.532C90.9215 31.9053 90.7535 32.2507 90.4922 32.568C90.2309 32.8947 89.8529 33.17 89.3582 33.394C88.8635 33.618 88.2009 33.73 87.3702 33.73C87.0155 33.73 86.6515 33.6833 86.2782 33.59C85.9142 33.506 85.5782 33.3707 85.2702 33.184C84.9715 32.9973 84.7195 32.7547 84.5142 32.456C84.3182 32.1667 84.2062 31.8167 84.1782 31.406H86.1522C86.2455 31.7793 86.4275 32.036 86.6982 32.176C86.9689 32.3253 87.2815 32.4 87.6362 32.4C88.1962 32.4 88.6022 32.232 88.8542 31.896C89.1155 31.56 89.2415 31.1353 89.2322 30.622V29.67H89.2042C88.9895 30.0527 88.6815 30.3373 88.2802 30.524C87.8882 30.7013 87.4729 30.79 87.0342 30.79C86.4929 30.79 86.0262 30.6967 85.6342 30.51C85.2422 30.314 84.9202 30.0527 84.6682 29.726C84.4162 29.39 84.2295 29.0027 84.1082 28.564C83.9962 28.116 83.9402 27.6447 83.9402 27.15C83.9402 26.6833 84.0055 26.2353 84.1362 25.806C84.2762 25.3673 84.4769 24.9847 84.7382 24.658C84.9995 24.322 85.3215 24.056 85.7042 23.86C86.0962 23.664 86.5442 23.566 87.0482 23.566C87.5242 23.566 87.9395 23.6547 88.2942 23.832C88.6582 24.0093 88.9615 24.308 89.2042 24.728H89.2322V23.762H91.1222V30.538ZM93.2228 23.762H95.1128V25.106H95.1408C95.2341 24.882 95.3601 24.6767 95.5188 24.49C95.6775 24.294 95.8595 24.1307 96.0648 24C96.2701 23.86 96.4895 23.7527 96.7228 23.678C96.9561 23.6033 97.1988 23.566 97.4508 23.566C97.5815 23.566 97.7261 23.5893 97.8848 23.636V25.484C97.7915 25.4653 97.6795 25.4513 97.5488 25.442C97.4181 25.4233 97.2921 25.414 97.1708 25.414C96.8068 25.414 96.4988 25.4747 96.2468 25.596C95.9948 25.7173 95.7895 25.8853 95.6308 26.1C95.4815 26.3053 95.3741 26.548 95.3088 26.828C95.2435 27.108 95.2108 27.4113 95.2108 27.738V31H93.2228V23.762ZM99.0802 25.988C99.1082 25.5213 99.2249 25.134 99.4302 24.826C99.6355 24.518 99.8969 24.2707 100.214 24.084C100.532 23.8973 100.886 23.7667 101.278 23.692C101.68 23.608 102.081 23.566 102.482 23.566C102.846 23.566 103.215 23.594 103.588 23.65C103.962 23.6967 104.302 23.7947 104.61 23.944C104.918 24.0933 105.17 24.3033 105.366 24.574C105.562 24.8353 105.66 25.1853 105.66 25.624V29.39C105.66 29.7167 105.679 30.0293 105.716 30.328C105.754 30.6267 105.819 30.8507 105.912 31H103.896C103.859 30.888 103.826 30.776 103.798 30.664C103.78 30.5427 103.766 30.4213 103.756 30.3C103.439 30.6267 103.066 30.8553 102.636 30.986C102.207 31.1167 101.768 31.182 101.32 31.182C100.975 31.182 100.653 31.14 100.354 31.056C100.056 30.972 99.7942 30.8413 99.5702 30.664C99.3462 30.4867 99.1689 30.2627 99.0382 29.992C98.9169 29.7213 98.8562 29.3993 98.8562 29.026C98.8562 28.6153 98.9262 28.2793 99.0662 28.018C99.2155 27.7473 99.4022 27.5327 99.6262 27.374C99.8595 27.2153 100.121 27.0987 100.41 27.024C100.709 26.94 101.008 26.8747 101.306 26.828C101.605 26.7813 101.899 26.744 102.188 26.716C102.478 26.688 102.734 26.646 102.958 26.59C103.182 26.534 103.36 26.4547 103.49 26.352C103.621 26.24 103.682 26.0813 103.672 25.876C103.672 25.6613 103.635 25.4933 103.56 25.372C103.495 25.2413 103.402 25.1433 103.28 25.078C103.168 25.0033 103.033 24.9567 102.874 24.938C102.725 24.91 102.562 24.896 102.384 24.896C101.992 24.896 101.684 24.98 101.46 25.148C101.236 25.316 101.106 25.596 101.068 25.988H99.0802ZM103.672 27.458C103.588 27.5327 103.481 27.5933 103.35 27.64C103.229 27.6773 103.094 27.71 102.944 27.738C102.804 27.766 102.655 27.7893 102.496 27.808C102.338 27.8267 102.179 27.85 102.02 27.878C101.871 27.906 101.722 27.9433 101.572 27.99C101.432 28.0367 101.306 28.102 101.194 28.186C101.092 28.2607 101.008 28.3587 100.942 28.48C100.877 28.6013 100.844 28.7553 100.844 28.942C100.844 29.1193 100.877 29.2687 100.942 29.39C101.008 29.5113 101.096 29.6093 101.208 29.684C101.32 29.7493 101.451 29.796 101.6 29.824C101.75 29.852 101.904 29.866 102.062 29.866C102.454 29.866 102.758 29.8007 102.972 29.67C103.187 29.5393 103.346 29.3853 103.448 29.208C103.551 29.0213 103.612 28.8347 103.63 28.648C103.658 28.4613 103.672 28.312 103.672 28.2V27.458ZM107.759 23.762H109.635V24.742H109.663C109.925 24.3687 110.237 24.0793 110.601 23.874C110.975 23.6687 111.399 23.566 111.875 23.566C112.333 23.566 112.748 23.6547 113.121 23.832C113.504 24.0093 113.793 24.322 113.989 24.77C114.204 24.4527 114.493 24.1727 114.857 23.93C115.231 23.6873 115.669 23.566 116.173 23.566C116.556 23.566 116.911 23.6127 117.237 23.706C117.564 23.7993 117.844 23.9487 118.077 24.154C118.311 24.3593 118.493 24.63 118.623 24.966C118.754 25.2927 118.819 25.6893 118.819 26.156V31H116.831V26.898C116.831 26.6553 116.822 26.4267 116.803 26.212C116.785 25.9973 116.733 25.8107 116.649 25.652C116.565 25.4933 116.439 25.3673 116.271 25.274C116.113 25.1807 115.893 25.134 115.613 25.134C115.333 25.134 115.105 25.19 114.927 25.302C114.759 25.4047 114.624 25.5447 114.521 25.722C114.428 25.89 114.363 26.086 114.325 26.31C114.297 26.5247 114.283 26.744 114.283 26.968V31H112.295V26.94C112.295 26.7253 112.291 26.5153 112.281 26.31C112.272 26.0953 112.23 25.8993 112.155 25.722C112.09 25.5447 111.973 25.4047 111.805 25.302C111.647 25.19 111.409 25.134 111.091 25.134C110.998 25.134 110.872 25.1573 110.713 25.204C110.564 25.2413 110.415 25.3207 110.265 25.442C110.125 25.554 110.004 25.722 109.901 25.946C109.799 26.1607 109.747 26.4453 109.747 26.8V31H107.759V23.762Z" fill="#5B8DEF"/>
</svg>
