<svg width="133" height="52" viewBox="0 0 133 52" fill="none" xmlns="http://www.w3.org/2000/svg">
<rect x="0.5" y="0.5" width="132" height="51" rx="3.5" fill="white"/>
<rect x="0.5" y="0.5" width="132" height="51" rx="3.5" stroke="#6698FA"/>
<path d="M27.362 14.9157C26.9828 14.9225 26.599 14.9512 26.2117 15.0066C25.6424 15.1305 25.0926 15.3306 24.6011 15.5888C23.9819 15.8701 23.3415 16.1607 22.7627 16.202C22.7334 16.2039 22.7047 16.2088 22.6764 16.216C21.8671 16.4248 21.1691 16.9246 20.7198 17.611L20.6477 17.716C20.6328 17.7381 20.6189 17.7614 20.6073 17.7854C20.2113 18.6139 20.1059 19.5627 20.3195 20.491C20.4568 20.9398 20.6205 21.3709 20.7789 21.7885L20.8277 21.9151C21.1977 22.7834 21.4665 23.6956 21.6273 24.6263C21.6355 24.6734 21.6503 24.7191 21.6714 24.7613C21.8293 25.0743 21.9529 25.4037 22.0427 25.7579C22.0825 25.8966 22.1232 26.0391 22.1673 26.1826C22.1798 26.2234 22.2039 26.2568 22.2255 26.2913C22.2264 26.3417 22.233 26.3924 22.2498 26.4413L22.9164 28.3482C22.9615 28.4778 23.0597 28.5814 23.1864 28.6332C23.3136 28.685 23.4563 28.6801 23.5792 28.6201C24.8378 28.0086 27.7856 26.5767 31.8527 29.1198C31.9304 29.1682 32.0189 29.1929 32.1077 29.1929C32.1725 29.1929 32.237 29.1804 32.298 29.1535C32.4429 29.0906 32.548 28.9607 32.5783 28.8057C32.6767 28.3051 32.7117 27.5015 32.6795 26.8473L32.7095 26.7038C32.7484 26.5142 32.7869 26.322 32.8277 26.132C33.2078 25.2862 33.8802 24.4686 34.5311 23.6776C35.5511 22.4377 36.606 21.156 36.5148 19.7232C36.5105 19.6579 36.4935 19.5938 36.4642 19.5357C36.314 19.24 36.1457 18.9522 35.9373 18.6291L35.897 18.5645C35.8486 18.4886 35.7998 18.4138 35.7498 18.3423C35.7124 18.2885 35.6743 18.2375 35.6364 18.1876L35.5961 18.1332C35.5198 18.0314 35.4437 17.9301 35.3655 17.8341C35.3232 17.7833 35.2815 17.7348 35.2258 17.672C35.1389 17.5721 35.0525 17.4758 34.9642 17.3841L34.848 17.266C34.7457 17.1647 34.6431 17.0684 34.5423 16.9801L34.4683 16.9163C33.192 15.8277 31.8812 15.5414 31.083 15.3666L30.6377 15.2663C29.598 15.0669 28.4998 14.8954 27.362 14.9157ZM27.8383 15.8776C28.2727 15.8904 28.7142 15.9319 29.1714 15.9948C27.6076 18.3232 27.8743 21.472 28.2386 24.2185C27.7615 24.1816 27.2727 24.1711 26.7827 24.1951C26.5052 22.5602 26.2152 20.5078 25.968 18.8907C25.894 18.1625 25.9582 17.4274 26.1564 16.7232C26.3532 16.2994 26.3716 16.0601 26.5483 15.932C26.9772 15.8804 27.4039 15.8648 27.8383 15.8776ZM26.2886 15.9779C26.076 16.1579 25.9208 16.442 25.8152 16.802C25.638 17.534 25.578 18.2886 25.637 19.0398C25.7542 20.7937 26.0727 22.5253 26.5623 24.2101C26.0996 24.2427 25.6394 24.3043 25.1964 24.4032C24.8604 23.245 24.9196 21.9288 24.8111 20.702C24.7012 19.2994 24.2399 17.9707 23.6523 17.1845C23.612 17.0885 23.6169 17.0401 23.6289 17.0007C23.8843 16.9258 24.1359 16.8344 24.3836 16.7307C24.4129 16.747 24.4425 16.763 24.4689 16.7841L24.4783 16.7729C24.4524 16.7547 24.425 16.7409 24.3977 16.7251C24.6098 16.6358 24.8195 16.544 25.022 16.4513C25.432 16.2363 25.8662 16.0797 26.2886 15.9779ZM24.4689 16.7841L24.4633 16.7907H24.4783C24.4754 16.7883 24.4723 16.787 24.4689 16.7841ZM29.1977 15.9976C29.5985 16.0533 30.0107 16.1236 30.4427 16.2066L30.8927 16.3079C31.2253 16.3809 31.6368 16.4738 32.0861 16.6351C31.3085 18.0256 30.7839 19.5447 30.5448 21.122C30.373 22.2624 30.2945 23.4134 30.2955 24.5654C29.7108 24.4056 29.0417 24.2874 28.337 24.227C28.3092 23.615 28.2891 22.9925 28.3145 22.6426C28.3981 21.4834 28.4949 17.8989 29.1977 15.9976ZM32.2089 16.6773C32.7254 16.8755 33.288 17.171 33.8448 17.6457L33.9077 17.701C33.996 17.7783 34.0837 17.8612 34.172 17.9485L34.2733 18.0507C34.3491 18.1299 34.4249 18.2137 34.5161 18.3188C34.5521 18.3601 34.5879 18.4013 34.623 18.4435C34.6758 18.5083 34.7272 18.5778 34.7795 18.647C33.8925 18.9916 32.4199 22.2625 32.2192 25.2198C32.1842 25.2817 32.1478 25.343 32.1152 25.4054C31.7144 25.0684 31.1456 24.8247 30.6339 24.662C30.5533 24.6365 30.4662 24.6138 30.3817 24.5898C30.4585 23.4301 30.5672 22.2146 30.6723 21.1154C31.0131 19.3106 31.8863 18.3851 32.2089 16.6773ZM23.4789 17.0466C23.5024 17.1138 23.5392 17.1771 23.5877 17.2313C24.1694 18.0205 24.2822 19.3042 24.408 20.7038C24.515 21.9379 24.6378 23.2612 25.0933 24.4266C24.705 24.5193 24.3328 24.6415 23.9814 24.7941C23.6944 23.7559 23.5576 22.5854 23.3411 21.527C23.0473 20.0956 23.0089 18.8146 22.5236 18.4238C22.3374 18.167 21.8389 18.1897 22.0745 17.7179C22.1307 17.6171 22.2005 17.5251 22.2677 17.431C22.4577 17.3149 22.6591 17.2163 22.878 17.1563C23.0786 17.1386 23.2792 17.0985 23.4789 17.0466ZM22.1073 17.5276C22.0622 17.589 22.0176 17.6516 21.9855 17.7216C21.8986 17.882 21.8609 18.0643 21.8777 18.2457C21.8925 18.3407 21.9312 18.4309 21.9883 18.5082C22.4678 18.8908 22.7165 20.1065 23.0073 21.5326C23.2267 22.6073 23.4806 23.7964 23.8689 24.8476C23.5329 25.0026 23.2207 25.1888 22.938 25.4082C22.8429 25.0602 22.719 24.7188 22.5602 24.3938C22.3854 23.4137 22.0999 22.4541 21.7173 21.557L21.6761 21.4482C21.5235 21.0455 21.3653 20.6294 21.2458 20.2445C21.0922 19.572 21.1668 18.859 21.4567 18.2335L21.5148 18.1501C21.6747 17.9058 21.876 17.6961 22.1073 17.5276ZM34.8236 18.7051C34.8246 18.706 34.8245 18.7065 34.8255 18.7079L34.8705 18.767C34.9021 18.8078 34.933 18.8494 34.9633 18.8926C35.0055 18.9531 35.0467 19.0172 35.088 19.082L35.1311 19.1495C35.2996 19.4101 35.4376 19.6446 35.5605 19.8788C35.571 20.9036 34.7053 21.956 33.7905 23.0682C33.4343 23.5007 33.073 23.9406 32.7461 24.3976C33.4848 22.5064 34.1982 20.6222 34.8236 18.7051ZM27.1108 25.1513C28.2772 25.1246 29.4502 25.2938 30.3433 25.5779C31.4094 25.9168 31.6635 26.272 31.6736 26.3748C31.6914 26.4928 31.7038 26.6365 31.713 26.7882L31.7102 26.8004C31.6938 26.8786 31.7036 26.9543 31.7242 27.0263C31.7333 27.3191 31.7302 27.6345 31.7139 27.9263C30.0401 27.0134 28.5344 26.7076 27.2514 26.7076C25.6837 26.7076 24.4493 27.1646 23.6477 27.527L23.252 26.3954C24.1225 25.5433 25.6111 25.1857 27.1108 25.1513ZM24.6686 29.5435L24.4511 29.6898C24.5433 29.8443 24.6625 29.981 24.8027 30.0938C24.9131 30.163 25.042 30.1966 25.172 30.1904C25.2388 30.1899 25.3046 30.181 25.3689 30.1623L26.0945 29.8998C26.144 29.8806 26.1964 29.8707 26.2492 29.8707C26.3289 29.8654 26.4084 29.887 26.4752 29.9316C26.5668 30.0065 26.6461 30.0943 26.7105 30.1932L26.9167 30.0779V30.0723C26.8274 29.9335 26.7158 29.8108 26.5867 29.7085C26.483 29.6365 26.3595 29.5983 26.2333 29.6007C26.191 29.5997 26.1484 29.6078 26.1095 29.6241L25.3239 29.8866C25.274 29.902 25.2215 29.9087 25.1692 29.9073C25.0761 29.914 24.983 29.8884 24.9067 29.8341C24.8112 29.7511 24.731 29.653 24.6686 29.5435ZM32.7283 30.0666C32.6534 30.0734 32.5846 30.1103 32.537 30.1688C32.4799 30.2173 32.4435 30.2852 32.4348 30.3601C32.4296 30.3764 32.4296 30.3944 32.4348 30.4107C32.6038 30.5893 32.8197 30.7149 33.0583 30.7745C33.2968 30.8479 33.5356 30.9187 33.7689 30.9845C34.0051 31.0627 34.2056 31.2228 34.3352 31.4354C34.3376 31.445 34.3376 31.4549 34.3352 31.4645C34.3352 31.5091 34.228 31.582 34.0211 31.6866C33.9165 31.7471 33.7591 31.8803 33.497 32.0795C33.3334 32.2134 33.1582 32.3321 32.973 32.4338C32.8155 32.5039 32.6773 32.6121 32.5717 32.7479C32.5693 32.7503 32.5671 32.7525 32.5652 32.7554C32.4816 32.8514 32.4917 32.9981 32.5877 33.0816C32.6376 33.1296 32.7046 33.1557 32.7742 33.1548C32.8237 33.1538 32.8721 33.1412 32.9158 33.1182C33.2537 32.9051 33.5784 32.6709 33.888 32.4179C34.2019 32.1577 34.5297 31.9137 34.8686 31.6866C35.0572 31.5714 35.1489 31.4509 35.1489 31.3276C35.1427 31.245 35.0976 31.1702 35.028 31.126C34.6239 30.7632 34.1472 30.4938 33.6302 30.332L33.2495 30.167C33.1214 30.1089 32.9838 30.0748 32.8436 30.0666C32.8052 30.0614 32.7662 30.0614 32.7283 30.0666ZM22.2723 30.0938C21.9373 30.3454 21.5708 30.5514 21.182 30.707C20.7966 30.8658 20.4315 31.0701 20.0945 31.3154C19.9309 31.4618 19.8354 31.6698 19.832 31.8891C19.8512 31.9722 19.9103 32.0412 19.9895 32.0729C20.0601 32.0964 20.1341 32.1247 20.2052 32.1535C20.9218 32.4574 21.5943 32.7847 22.2236 33.1341C22.3071 33.1946 22.3855 33.2609 22.4589 33.3329C22.5069 33.354 22.5585 33.3648 22.6108 33.3648C22.7399 33.3657 22.8658 33.3212 22.9652 33.2391C23.0664 33.1671 23.1197 33.0456 23.1039 32.9223C23.1082 32.8315 23.0538 32.7477 22.9698 32.7141L21.8852 32.237C21.5252 32.0843 21.174 31.9092 20.8361 31.7129C21.0732 31.4177 21.3929 31.199 21.7539 31.0838C22.1125 30.9682 22.4434 30.7798 22.7261 30.5307C22.7669 30.4918 22.7894 30.4378 22.7889 30.3816C22.787 30.3024 22.7496 30.2281 22.6867 30.1801C22.6118 30.1225 22.5197 30.0919 22.4252 30.0938H22.2723ZM29.8577 30.8354C29.6465 30.8277 29.4404 30.9042 29.2839 31.0473C29.1077 31.2215 29.0338 31.4738 29.087 31.7157C29.111 31.9442 29.2027 32.1606 29.3495 32.3373C29.4734 32.5024 29.6672 32.5988 29.8736 32.5988C30.009 32.5969 30.1413 32.5615 30.2589 32.4948C30.5167 32.3104 30.6522 31.9992 30.6123 31.6848C30.5994 31.331 30.5159 31.0922 30.3508 30.977C30.2049 30.88 30.0329 30.8306 29.8577 30.8354ZM25.7898 30.8532C25.5786 30.845 25.3726 30.9206 25.2161 31.0632C25.039 31.237 24.9636 31.4892 25.0164 31.7316C25.0418 31.9596 25.1335 32.1756 25.2789 32.3532C25.4023 32.5183 25.5966 32.6152 25.803 32.6148C25.9383 32.6124 26.0702 32.5769 26.1883 32.5107C26.424 32.3691 26.5398 32.1015 26.5398 31.7007C26.5701 31.4377 26.475 31.1753 26.283 30.9929C26.137 30.8964 25.9646 30.8479 25.7898 30.8532ZM25.7795 31.4166C25.9245 31.4166 26.042 31.5342 26.042 31.6791C26.042 31.8241 25.9245 31.9416 25.7795 31.9416C25.6346 31.9416 25.517 31.8241 25.517 31.6791C25.517 31.5342 25.6346 31.4166 25.7795 31.4166ZM29.7742 31.4466C29.9187 31.4462 30.0367 31.5632 30.0367 31.7082C30.0367 31.8532 29.9187 31.9707 29.7742 31.9707C29.6293 31.9707 29.5127 31.8532 29.5127 31.7082C29.5127 31.5632 29.6293 31.4466 29.7742 31.4466ZM27.2345 33.287C27.2288 33.2927 27.2252 33.2994 27.2223 33.3076V33.3291C27.2583 33.4295 27.3036 33.5253 27.3583 33.617C27.4077 33.7048 27.47 33.7859 27.542 33.856C27.6068 33.9237 27.6826 33.9797 27.767 34.021C27.8501 34.0561 27.9393 34.0753 28.0295 34.0782L28.0398 34.0895C28.1123 34.0899 28.184 34.0765 28.2517 34.0501C28.3165 34.0237 28.3779 33.9896 28.4345 33.9488C28.4883 33.9056 28.5389 33.8586 28.5845 33.8073C28.6277 33.7583 28.6658 33.7059 28.6989 33.6498C28.7306 33.6003 28.7593 33.5488 28.7833 33.4951C28.802 33.4562 28.8172 33.4164 28.8283 33.3751V33.3516C28.823 33.3444 28.8185 33.3364 28.8152 33.3282C28.747 33.4333 28.6623 33.5256 28.5639 33.6029C28.4885 33.6739 28.3988 33.7286 28.3014 33.7632C28.203 33.7973 28.099 33.8139 27.9948 33.8129C27.906 33.8143 27.8173 33.8018 27.7323 33.7763C27.6594 33.7533 27.5913 33.7174 27.5308 33.6713C27.4693 33.6219 27.4138 33.5664 27.3658 33.5045C27.3154 33.4363 27.271 33.3633 27.2345 33.287ZM26.5398 34.2929C25.4915 34.3481 24.8805 35.6945 23.418 34.4523C23.0196 36.8374 25.9343 37.0739 27.1323 35.9963C27.9608 35.2571 27.7274 34.2271 26.5398 34.2929ZM28.9417 34.2929C27.9406 34.3546 27.7844 35.3038 28.5611 35.9963C29.7592 37.0735 32.6729 36.8374 32.2745 34.4523C30.812 35.6945 30.2015 34.3476 29.1527 34.2929C29.0784 34.2888 29.0085 34.2888 28.9417 34.2929Z" fill="#6698FA"/>
<path d="M55.63 24.364C55.5927 24.112 55.5087 23.8833 55.378 23.678C55.2473 23.4633 55.084 23.2767 54.888 23.118C54.692 22.9593 54.468 22.838 54.216 22.754C53.9733 22.6607 53.7167 22.614 53.446 22.614C52.9513 22.614 52.5313 22.712 52.186 22.908C51.8407 23.0947 51.5607 23.3513 51.346 23.678C51.1313 23.9953 50.9727 24.3593 50.87 24.77C50.7767 25.1807 50.73 25.6053 50.73 26.044C50.73 26.464 50.7767 26.8747 50.87 27.276C50.9727 27.668 51.1313 28.0227 51.346 28.34C51.5607 28.6573 51.8407 28.914 52.186 29.11C52.5313 29.2967 52.9513 29.39 53.446 29.39C54.118 29.39 54.6407 29.1847 55.014 28.774C55.3967 28.3633 55.63 27.822 55.714 27.15H57.842C57.786 27.7753 57.6413 28.34 57.408 28.844C57.1747 29.348 56.8667 29.7773 56.484 30.132C56.1013 30.4867 55.6533 30.7573 55.14 30.944C54.6267 31.1307 54.062 31.224 53.446 31.224C52.6807 31.224 51.99 31.0933 51.374 30.832C50.7673 30.5613 50.254 30.1927 49.834 29.726C49.414 29.2593 49.092 28.7133 48.868 28.088C48.644 27.4533 48.532 26.772 48.532 26.044C48.532 25.2973 48.644 24.6067 48.868 23.972C49.092 23.328 49.414 22.768 49.834 22.292C50.254 21.816 50.7673 21.4427 51.374 21.172C51.99 20.9013 52.6807 20.766 53.446 20.766C53.9967 20.766 54.5147 20.8453 55 21.004C55.4947 21.1627 55.9333 21.396 56.316 21.704C56.708 22.0027 57.03 22.376 57.282 22.824C57.534 23.272 57.6927 23.7853 57.758 24.364H55.63ZM61.397 27.388C61.397 27.6773 61.425 27.962 61.481 28.242C61.537 28.5127 61.6303 28.76 61.761 28.984C61.901 29.1987 62.083 29.3713 62.307 29.502C62.531 29.6327 62.811 29.698 63.147 29.698C63.483 29.698 63.763 29.6327 63.987 29.502C64.2203 29.3713 64.4023 29.1987 64.533 28.984C64.673 28.76 64.771 28.5127 64.827 28.242C64.883 27.962 64.911 27.6773 64.911 27.388C64.911 27.0987 64.883 26.814 64.827 26.534C64.771 26.254 64.673 26.0067 64.533 25.792C64.4023 25.5773 64.2203 25.4047 63.987 25.274C63.763 25.134 63.483 25.064 63.147 25.064C62.811 25.064 62.531 25.134 62.307 25.274C62.083 25.4047 61.901 25.5773 61.761 25.792C61.6303 26.0067 61.537 26.254 61.481 26.534C61.425 26.814 61.397 27.0987 61.397 27.388ZM59.409 27.388C59.409 26.8093 59.4976 26.2867 59.675 25.82C59.8523 25.344 60.1043 24.9427 60.431 24.616C60.7576 24.28 61.1496 24.0233 61.607 23.846C62.0643 23.6593 62.5776 23.566 63.147 23.566C63.7163 23.566 64.2296 23.6593 64.687 23.846C65.1536 24.0233 65.5503 24.28 65.877 24.616C66.2036 24.9427 66.4556 25.344 66.633 25.82C66.8103 26.2867 66.899 26.8093 66.899 27.388C66.899 27.9667 66.8103 28.4893 66.633 28.956C66.4556 29.4227 66.2036 29.824 65.877 30.16C65.5503 30.4867 65.1536 30.7387 64.687 30.916C64.2296 31.0933 63.7163 31.182 63.147 31.182C62.5776 31.182 62.0643 31.0933 61.607 30.916C61.1496 30.7387 60.7576 30.4867 60.431 30.16C60.1043 29.824 59.8523 29.4227 59.675 28.956C59.4976 28.4893 59.409 27.9667 59.409 27.388ZM73.8295 27.36C73.8295 27.0613 73.8015 26.7767 73.7455 26.506C73.6895 26.226 73.5915 25.9833 73.4515 25.778C73.3209 25.5633 73.1482 25.3907 72.9335 25.26C72.7189 25.1293 72.4482 25.064 72.1215 25.064C71.7949 25.064 71.5195 25.1293 71.2955 25.26C71.0715 25.3907 70.8895 25.5633 70.7495 25.778C70.6189 25.9927 70.5209 26.24 70.4555 26.52C70.3995 26.7907 70.3715 27.0753 70.3715 27.374C70.3715 27.654 70.4042 27.934 70.4695 28.214C70.5349 28.494 70.6375 28.746 70.7775 28.97C70.9269 29.1847 71.1089 29.362 71.3235 29.502C71.5475 29.6327 71.8135 29.698 72.1215 29.698C72.4482 29.698 72.7189 29.6327 72.9335 29.502C73.1575 29.3713 73.3349 29.1987 73.4655 28.984C73.5962 28.76 73.6895 28.508 73.7455 28.228C73.8015 27.948 73.8295 27.6587 73.8295 27.36ZM73.8575 30.076H73.8295C73.5962 30.468 73.2882 30.7527 72.9055 30.93C72.5322 31.098 72.1075 31.182 71.6315 31.182C71.0902 31.182 70.6142 31.0793 70.2035 30.874C69.7929 30.6593 69.4522 30.3747 69.1815 30.02C68.9202 29.656 68.7195 29.2407 68.5795 28.774C68.4489 28.3073 68.3835 27.822 68.3835 27.318C68.3835 26.8327 68.4489 26.366 68.5795 25.918C68.7195 25.4607 68.9202 25.0593 69.1815 24.714C69.4522 24.3687 69.7882 24.0933 70.1895 23.888C70.5909 23.6733 71.0575 23.566 71.5895 23.566C72.0189 23.566 72.4249 23.6593 72.8075 23.846C73.1995 24.0233 73.5075 24.2893 73.7315 24.644H73.7595V21.004H75.7475V31H73.8575V30.076ZM82.6221 26.604C82.5288 26.1 82.3608 25.7173 82.1181 25.456C81.8848 25.1947 81.5255 25.064 81.0401 25.064C80.7228 25.064 80.4568 25.12 80.2421 25.232C80.0368 25.3347 79.8688 25.4653 79.7381 25.624C79.6168 25.7827 79.5281 25.9507 79.4721 26.128C79.4255 26.3053 79.3975 26.464 79.3881 26.604H82.6221ZM79.3881 27.864C79.4161 28.508 79.5795 28.9747 79.8781 29.264C80.1768 29.5533 80.6061 29.698 81.1661 29.698C81.5675 29.698 81.9128 29.6 82.2021 29.404C82.4915 29.1987 82.6688 28.984 82.7341 28.76H84.4841C84.2041 29.628 83.7748 30.2487 83.1961 30.622C82.6175 30.9953 81.9175 31.182 81.0961 31.182C80.5268 31.182 80.0135 31.0933 79.5561 30.916C79.0988 30.7293 78.7115 30.468 78.3941 30.132C78.0768 29.796 77.8295 29.3947 77.6521 28.928C77.4841 28.4613 77.4001 27.948 77.4001 27.388C77.4001 26.8467 77.4888 26.3427 77.6661 25.876C77.8435 25.4093 78.0955 25.008 78.4221 24.672C78.7488 24.3267 79.1361 24.056 79.5841 23.86C80.0415 23.664 80.5455 23.566 81.0961 23.566C81.7121 23.566 82.2488 23.6873 82.7061 23.93C83.1635 24.1633 83.5368 24.4807 83.8261 24.882C84.1248 25.2833 84.3395 25.7407 84.4701 26.254C84.6008 26.7673 84.6475 27.304 84.6101 27.864H79.3881ZM91.2172 26.31C91.0865 25.4793 90.5965 25.064 89.7472 25.064C89.4299 25.064 89.1639 25.1387 88.9492 25.288C88.7345 25.428 88.5572 25.6147 88.4172 25.848C88.2865 26.072 88.1932 26.324 88.1372 26.604C88.0812 26.8747 88.0532 27.1453 88.0532 27.416C88.0532 27.6773 88.0812 27.9433 88.1372 28.214C88.1932 28.4847 88.2819 28.732 88.4032 28.956C88.5339 29.1707 88.7065 29.348 88.9212 29.488C89.1359 29.628 89.3972 29.698 89.7052 29.698C90.1812 29.698 90.5452 29.5673 90.7972 29.306C91.0585 29.0353 91.2219 28.676 91.2872 28.228H93.2052C93.0745 29.1893 92.7012 29.922 92.0852 30.426C91.4692 30.93 90.6805 31.182 89.7192 31.182C89.1779 31.182 88.6785 31.0933 88.2212 30.916C87.7732 30.7293 87.3905 30.4727 87.0732 30.146C86.7559 29.8193 86.5085 29.432 86.3312 28.984C86.1539 28.5267 86.0652 28.0273 86.0652 27.486C86.0652 26.926 86.1445 26.408 86.3032 25.932C86.4712 25.4467 86.7139 25.0313 87.0312 24.686C87.3485 24.3313 87.7359 24.056 88.1932 23.86C88.6505 23.664 89.1732 23.566 89.7612 23.566C90.1905 23.566 90.6012 23.622 90.9932 23.734C91.3945 23.846 91.7492 24.0187 92.0572 24.252C92.3745 24.476 92.6312 24.7607 92.8272 25.106C93.0232 25.442 93.1352 25.8433 93.1632 26.31H91.2172ZM94.8283 21.004H96.8163V24.77H96.8583C97.1103 24.35 97.4323 24.0467 97.8243 23.86C98.2163 23.664 98.5989 23.566 98.9723 23.566C99.5043 23.566 99.9383 23.6407 100.274 23.79C100.62 23.93 100.89 24.1307 101.086 24.392C101.282 24.644 101.418 24.9567 101.492 25.33C101.576 25.694 101.618 26.1 101.618 26.548V31H99.6303V26.912C99.6303 26.3147 99.5369 25.8713 99.3503 25.582C99.1636 25.2833 98.8323 25.134 98.3563 25.134C97.8149 25.134 97.4229 25.2973 97.1803 25.624C96.9376 25.9413 96.8163 26.4687 96.8163 27.206V31H94.8283V21.004ZM108.499 26.604C108.406 26.1 108.238 25.7173 107.995 25.456C107.762 25.1947 107.402 25.064 106.917 25.064C106.6 25.064 106.334 25.12 106.119 25.232C105.914 25.3347 105.746 25.4653 105.615 25.624C105.494 25.7827 105.405 25.9507 105.349 26.128C105.302 26.3053 105.274 26.464 105.265 26.604H108.499ZM105.265 27.864C105.293 28.508 105.456 28.9747 105.755 29.264C106.054 29.5533 106.483 29.698 107.043 29.698C107.444 29.698 107.79 29.6 108.079 29.404C108.368 29.1987 108.546 28.984 108.611 28.76H110.361C110.081 29.628 109.652 30.2487 109.073 30.622C108.494 30.9953 107.794 31.182 106.973 31.182C106.404 31.182 105.89 31.0933 105.433 30.916C104.976 30.7293 104.588 30.468 104.271 30.132C103.954 29.796 103.706 29.3947 103.529 28.928C103.361 28.4613 103.277 27.948 103.277 27.388C103.277 26.8467 103.366 26.3427 103.543 25.876C103.72 25.4093 103.972 25.008 104.299 24.672C104.626 24.3267 105.013 24.056 105.461 23.86C105.918 23.664 106.422 23.566 106.973 23.566C107.589 23.566 108.126 23.6873 108.583 23.93C109.04 24.1633 109.414 24.4807 109.703 24.882C110.002 25.2833 110.216 25.7407 110.347 26.254C110.478 26.7673 110.524 27.304 110.487 27.864H105.265ZM112.6 25.092H111.41V23.762H112.6V23.202C112.6 22.558 112.801 22.0307 113.202 21.62C113.603 21.2093 114.21 21.004 115.022 21.004C115.199 21.004 115.377 21.0133 115.554 21.032C115.731 21.0413 115.904 21.0507 116.072 21.06V22.544C115.839 22.516 115.596 22.502 115.344 22.502C115.073 22.502 114.877 22.5673 114.756 22.698C114.644 22.8193 114.588 23.0293 114.588 23.328V23.762H115.96V25.092H114.588V31H112.6V25.092Z" fill="#6698FA"/>
</svg>
