<svg width="40" height="40" viewBox="0 0 40 40" fill="none" xmlns="http://www.w3.org/2000/svg">
<path fill-rule="evenodd" clip-rule="evenodd" d="M12.4473 17.7305H9.3309C8.76447 17.7305 8.45256 18.3887 8.81125 18.8271L19.5746 31.9822C19.8437 32.3111 20.2462 32.5019 20.6712 32.5019C21.5192 32.5019 22.3206 32.1135 22.8461 31.4479L32.0855 19.7448V19.0733C32.0855 18.5766 31.8158 18.1429 31.4148 17.9106V19.7443H30.3749L21.7921 30.6158C21.5213 30.9589 21.1083 31.159 20.6712 31.159C20.649 31.159 20.6279 31.1491 20.6139 31.1319L10.7478 19.0733H13.4544L12.4473 17.7305Z" fill="#555770"/>
<path fill-rule="evenodd" clip-rule="evenodd" d="M12.2612 13.6992H9.34068C8.77276 13.6992 8.46134 14.3604 8.82303 14.7983L19.791 28.0752L20.6723 29.1421L21.342 28.2359V25.9767L20.6135 26.9624L10.7662 15.0421H13.2683L12.2612 13.6992Z" fill="#555770"/>
<path d="M8.82197 10.099C8.46028 9.66121 8.7717 9 9.33962 9H30.7426C31.4843 9 32.0855 9.60122 32.0855 10.3429V19.7429L22.8462 31.446C22.3207 32.1117 21.5193 32.5 20.6712 32.5V32.5V24.4429L8.82197 10.099Z" fill="#555770"/>
</svg>
