<svg width="450" height="976" viewBox="0 0 450 976" fill="none" xmlns="http://www.w3.org/2000/svg">
<g clip-path="url(#clip0_5521_3413)">
<path d="M-66.5618 610.52L-141.159 630.434C-141.237 630.455 -141.311 630.49 -141.376 630.538L-220.548 688.735C-220.714 688.857 -220.812 689.052 -220.812 689.259V1034.22C-220.812 1034.58 -220.522 1034.87 -220.163 1034.87H100.516C100.875 1034.87 101.166 1034.58 101.166 1034.22V682.645C101.166 682.376 101 682.134 100.749 682.038L12.3511 648.129C12.2949 648.107 12.2421 648.078 12.1939 648.042L-15.2244 627.478C-15.4064 627.342 -15.6467 627.31 -15.8577 627.396L-32.3709 634.071C-32.576 634.154 -32.8092 634.127 -32.9898 633.999L-66.0188 610.617C-66.1764 610.506 -66.3753 610.47 -66.5618 610.52Z" fill="url(#paint0_linear_5521_3413)"/>
<path d="M172.473 645.082L157.89 636.332C157.483 636.088 157.279 635.966 157.062 635.99C156.844 636.014 156.672 636.177 156.327 636.504L118.288 672.566C118.18 672.668 118.126 672.72 118.062 672.757C117.999 672.795 117.927 672.817 117.785 672.862L77.3026 685.646C76.8648 685.784 76.6459 685.853 76.5202 686.025C76.3945 686.196 76.3945 686.426 76.3945 686.885V1037.93C76.3945 1038.54 76.3945 1038.84 76.5848 1039.03C76.7751 1039.23 77.0814 1039.23 77.6939 1039.23H725.203C725.816 1039.23 726.122 1039.23 726.312 1039.03C726.502 1038.84 726.502 1038.54 726.502 1037.93V686.826V574.177C726.502 571.967 726.502 570.863 726 570.746C725.497 570.629 725.01 571.621 724.037 573.604L700.725 621.091L700.725 621.091C700.471 621.608 700.344 621.866 700.105 621.957C699.865 622.048 699.599 621.939 699.066 621.72L681.216 614.405C680.809 614.238 680.605 614.155 680.406 614.2C680.206 614.245 680.058 614.408 679.762 614.733L625.507 674.414C625.331 674.608 625.242 674.704 625.127 674.759C625.012 674.814 624.881 674.822 624.62 674.837L523.069 680.696C522.92 680.704 522.845 680.709 522.772 680.696C522.699 680.684 522.63 680.655 522.492 680.597L432.551 642.88C432.346 642.794 432.243 642.75 432.134 642.744C432.025 642.737 431.918 642.766 431.703 642.826L310.576 676.285C310.315 676.357 310.185 676.393 310.054 676.376C309.924 676.359 309.807 676.29 309.573 676.153L270.395 653.22C270.244 653.131 270.168 653.087 270.085 653.064C270.001 653.042 269.913 653.042 269.738 653.042H252.335C252.119 653.042 252.011 653.042 251.91 653.008C251.81 652.974 251.724 652.909 251.551 652.778L251.551 652.778L205.966 618.273C205.561 617.966 205.359 617.813 205.128 617.822C204.897 617.83 204.706 617.997 204.325 618.332L173.998 644.945C173.655 645.246 173.483 645.397 173.272 645.416C173.061 645.435 172.865 645.318 172.473 645.082Z" fill="url(#paint1_linear_5521_3413)"/>
</g>
<g clip-path="url(#clip1_5521_3413)">
<path d="M-130.098 594.929L-219.861 619.894C-220.319 620.021 -220.548 620.085 -220.68 620.259C-220.812 620.433 -220.812 620.671 -220.812 621.146V974.898C-220.812 975.511 -220.812 975.817 -220.622 976.007C-220.432 976.198 -220.126 976.198 -219.513 976.198H66.455H216.23H469.362H553.083H625.913H670.563C671.175 976.198 671.481 976.198 671.672 976.007C671.862 975.817 671.862 975.511 671.862 974.898V765.326V690.337C671.862 690.073 671.862 689.94 671.813 689.821C671.764 689.702 671.67 689.608 671.484 689.421L626.465 644.16C626.196 643.89 626.062 643.754 625.887 643.71C625.712 643.666 625.529 643.722 625.165 643.833L570.613 660.446C570.521 660.474 570.474 660.488 570.427 660.496C570.379 660.503 570.331 660.503 570.234 660.503H536.674C536.593 660.503 536.553 660.503 536.513 660.508C536.473 660.513 536.433 660.522 536.355 660.542L491.811 671.815L406.108 682.028C405.923 682.05 405.83 682.061 405.739 682.046C405.649 682.031 405.564 681.991 405.396 681.911L405.396 681.911L351.934 656.477C351.513 656.277 351.302 656.177 351.091 656.219C350.88 656.261 350.724 656.434 350.411 656.78L323.748 686.313C323.502 686.585 323.379 686.722 323.213 686.775C323.047 686.829 322.868 686.79 322.509 686.712L216.632 663.845C216.433 663.802 216.333 663.78 216.233 663.79C216.133 663.799 216.039 663.839 215.851 663.919L162.205 686.673C161.974 686.771 161.859 686.82 161.736 686.823C161.614 686.827 161.496 686.784 161.26 686.7L97.5222 663.851C97.3935 663.804 97.3291 663.781 97.2713 663.746C97.2135 663.71 97.164 663.663 97.0649 663.569L52.08 620.753C51.7769 620.465 51.6254 620.321 51.4323 620.287C51.2391 620.253 51.0474 620.336 50.664 620.504L-47.6078 663.433C-47.9697 663.591 -48.1506 663.67 -48.3349 663.643C-48.5192 663.616 -48.6695 663.488 -48.9702 663.232L-128.908 595.191L-128.908 595.191C-129.165 594.972 -129.294 594.863 -129.452 594.828C-129.61 594.793 -129.773 594.839 -130.098 594.929Z" fill="url(#paint2_linear_5521_3413)"/>
</g>
<g clip-path="url(#clip2_5521_3413)">
<path d="M-29.3404 701.275L-111.584 731.519C-112.062 731.695 -112.301 731.783 -112.52 731.707C-112.74 731.631 -112.873 731.413 -113.14 730.979L-167.677 642.076C-167.78 641.909 -167.832 641.825 -167.904 641.76C-167.977 641.696 -168.067 641.655 -168.246 641.574L-224.673 615.846C-224.809 615.784 -224.877 615.753 -224.936 615.707C-224.995 615.662 -225.042 615.604 -225.137 615.489L-261.416 571.382C-262.377 570.213 -262.858 569.629 -263.288 569.783C-263.719 569.937 -263.719 570.694 -263.719 572.207V976.469C-263.719 977.081 -263.719 977.388 -263.528 977.578C-263.338 977.768 -263.032 977.768 -262.419 977.768H-77.6428H107.406C107.899 977.768 108.145 977.768 108.322 977.628C108.5 977.488 108.556 977.248 108.67 976.769L166.353 733.777C166.557 732.922 166.658 732.494 166.422 732.24C166.186 731.985 165.752 732.055 164.883 732.194L54.0598 749.966C53.8297 750.003 53.7146 750.021 53.6025 750C53.4904 749.978 53.3902 749.919 53.1899 749.799L-28.2277 701.378C-28.4891 701.222 -28.6198 701.144 -28.766 701.131C-28.9122 701.117 -29.0549 701.17 -29.3404 701.275Z" fill="#3568D4"/>
<path d="M177.931 709.903L-31.3574 974.14C-32.0828 975.056 -32.4455 975.514 -32.2679 975.881C-32.0902 976.248 -31.5061 976.247 -30.3379 976.246H-30.3378L671.026 975.677C671.638 975.676 671.944 975.676 672.135 975.486C672.325 975.295 672.325 974.989 672.325 974.377V607.192C672.325 606.713 672.325 606.473 672.19 606.299C672.056 606.124 671.825 606.061 671.362 605.937L588.408 583.668C587.824 583.511 587.532 583.433 587.3 583.564C587.068 583.696 586.986 583.986 586.821 584.568V584.568L549.224 717.013C549.026 717.711 548.927 718.061 548.648 718.184C548.368 718.307 548.044 718.145 547.394 717.821L490.674 689.503C490.325 689.328 490.15 689.241 489.966 689.258C489.783 689.274 489.627 689.391 489.314 689.625L412.092 747.489C411.921 747.617 411.835 747.682 411.735 747.715C411.635 747.748 411.528 747.748 411.313 747.748H258.912C258.764 747.748 258.69 747.748 258.619 747.732C258.547 747.716 258.481 747.683 258.348 747.619L258.347 747.619L179.515 709.54C179.065 709.323 178.841 709.214 178.618 709.265C178.396 709.316 178.241 709.512 177.931 709.903Z" fill="#3E7BFA"/>
<path d="M138.538 898.811L24.2433 974.841L24.2432 974.841C22.7617 975.826 22.0209 976.319 22.1632 976.782C22.3054 977.245 23.1951 977.237 24.9745 977.222L671.033 971.5C671.64 971.495 671.944 971.492 672.132 971.302C672.32 971.112 672.32 970.809 672.32 970.201V719.273C672.32 718.57 672.32 718.219 672.094 718.024C671.868 717.83 671.521 717.883 670.826 717.988L625.035 724.935C624.913 724.954 624.852 724.963 624.79 724.961C624.729 724.958 624.668 724.944 624.548 724.917L569.837 712.274C569.709 712.244 569.646 712.229 569.587 712.202C569.527 712.176 569.474 712.137 569.368 712.061L524.858 679.904C524.239 679.457 523.929 679.233 523.625 679.321C523.321 679.409 523.178 679.763 522.892 680.471L486.728 770.105C486.657 770.28 486.622 770.368 486.564 770.441C486.506 770.514 486.429 770.568 486.276 770.678L416.847 820.052C416.62 820.214 416.507 820.295 416.374 820.323C416.242 820.351 416.105 820.322 415.832 820.266L306.468 797.74C306.221 797.69 306.098 797.664 305.977 797.685C305.856 797.706 305.749 797.771 305.533 797.901L138.538 898.811Z" fill="#3568D4"/>
</g>
<defs>
<linearGradient id="paint0_linear_5521_3413" x1="-64.5055" y1="610.441" x2="-64.5055" y2="663.085" gradientUnits="userSpaceOnUse">
<stop stop-color="#A9C5FF"/>
<stop offset="1" stop-color="white"/>
</linearGradient>
<linearGradient id="paint1_linear_5521_3413" x1="401.449" y1="568.581" x2="401.86" y2="939.569" gradientUnits="userSpaceOnUse">
<stop stop-color="#568DFF"/>
<stop offset="0.335304" stop-color="#FDFEFF"/>
<stop offset="1" stop-color="white"/>
</linearGradient>
<linearGradient id="paint2_linear_5521_3413" x1="225.525" y1="594.744" x2="225.525" y2="765.326" gradientUnits="userSpaceOnUse">
<stop stop-color="#6698FA"/>
<stop offset="1" stop-color="#A1C1FF"/>
</linearGradient>
<clipPath id="clip0_5521_3413">
<rect width="450" height="975.349" fill="white" transform="translate(0 0.325195)"/>
</clipPath>
<clipPath id="clip1_5521_3413">
<rect width="450" height="975.349" fill="white" transform="translate(0 0.325195)"/>
</clipPath>
<clipPath id="clip2_5521_3413">
<rect width="450" height="975.349" fill="white" transform="translate(0 0.325195)"/>
</clipPath>
</defs>
</svg>
