<svg width="33" height="33" viewBox="0 0 33 33" fill="none" xmlns="http://www.w3.org/2000/svg">
<g clip-path="url(#clip0_5627_17569)">
<circle cx="0.5" cy="0.5" r="0.5" fill="#D1D1D1"/>
<circle cx="0.5" cy="0.5" r="0.5" fill="#D1D1D1"/>
<circle cx="0.5" cy="0.5" r="0.5" fill="#D1D1D1"/>
<circle cx="11.5" cy="0.5" r="0.5" fill="#D1D1D1"/>
<circle cx="11.5" cy="0.5" r="0.5" fill="#D1D1D1"/>
<circle cx="11.5" cy="0.5" r="0.5" fill="#D1D1D1"/>
<circle cx="11.5" cy="11.5" r="0.5" fill="#D1D1D1"/>
<circle cx="11.5" cy="11.5" r="0.5" fill="#D1D1D1"/>
<circle cx="11.5" cy="11.5" r="0.5" fill="#D1D1D1"/>
<circle cx="0.5" cy="11.5" r="0.5" fill="#D1D1D1"/>
<circle cx="0.5" cy="11.5" r="0.5" fill="#D1D1D1"/>
<circle cx="0.5" cy="11.5" r="0.5" fill="#D1D1D1"/>
<circle cx="22.5" cy="0.5" r="0.5" fill="#D1D1D1"/>
<circle cx="22.5" cy="0.5" r="0.5" fill="#D1D1D1"/>
<circle cx="22.5" cy="0.5" r="0.5" fill="#D1D1D1"/>
<circle cx="22.5" cy="11.5" r="0.5" fill="#D1D1D1"/>
<circle cx="22.5" cy="11.5" r="0.5" fill="#D1D1D1"/>
<circle cx="22.5" cy="11.5" r="0.5" fill="#D1D1D1"/>
<circle cx="0.5" cy="22.5" r="0.5" fill="#D1D1D1"/>
<circle cx="0.5" cy="22.5" r="0.5" fill="#D1D1D1"/>
<circle cx="0.5" cy="22.5" r="0.5" fill="#D1D1D1"/>
<circle cx="11.5" cy="22.5" r="0.5" fill="#D1D1D1"/>
<circle cx="11.5" cy="22.5" r="0.5" fill="#D1D1D1"/>
<circle cx="11.5" cy="22.5" r="0.5" fill="#D1D1D1"/>
<circle cx="22.5" cy="22.5" r="0.5" fill="#D1D1D1"/>
<circle cx="22.5" cy="22.5" r="0.5" fill="#D1D1D1"/>
<circle cx="22.5" cy="22.5" r="0.5" fill="#D1D1D1"/>
</g>
<defs>
<clipPath id="clip0_5627_17569">
<rect width="33" height="33" fill="white"/>
</clipPath>
</defs>
</svg>
