<svg width="1280" height="199" viewBox="0 0 1280 199" fill="none" xmlns="http://www.w3.org/2000/svg">
<path d="M243.131 63.3312L142.671 90.1492C141.908 90.3529 141.767 91.3749 142.446 91.7774L215.904 135.288C216.081 135.393 216.289 135.434 216.493 135.403L349.184 115.206C349.965 115.087 350.216 114.085 349.584 113.611L313.566 86.5978C313.317 86.4105 312.987 86.3675 312.697 86.4845L290.041 95.6434C289.76 95.7572 289.44 95.7199 289.192 95.5445L243.876 63.4649C243.66 63.3119 243.387 63.2629 243.131 63.3312Z" fill="url(#paint0_linear_4093_4547)"/>
<path d="M604.55 105.634L584.542 93.629C583.983 93.2938 583.704 93.1262 583.406 93.1589C583.107 93.1916 582.871 93.4157 582.398 93.8639L530.208 143.341C530.06 143.482 529.986 143.552 529.898 143.604C529.811 143.655 529.714 143.686 529.519 143.747L474.849 161.011C473.871 161.32 473.382 161.475 473.227 161.873C473.072 162.272 473.329 162.716 473.843 163.604L493.275 197.213C493.529 197.653 493.657 197.873 493.867 197.993C494.077 198.112 494.331 198.109 494.84 198.103L1298.84 188.314C1299 188.312 1299.08 188.311 1299.16 188.296C1299.24 188.281 1299.31 188.252 1299.46 188.194L1363.54 163.347C1364.09 163.134 1364.37 163.027 1364.52 162.799C1364.68 162.572 1364.68 162.276 1364.68 161.685V8.35114C1364.68 5.32002 1364.68 3.80447 1363.99 3.64429C1363.3 3.48412 1362.63 4.84459 1361.3 7.56552L1329.31 72.7173C1328.96 73.4264 1328.79 73.781 1328.46 73.9058C1328.13 74.0306 1327.77 73.8808 1327.04 73.5813L1302.55 63.5444C1301.99 63.3155 1301.71 63.2011 1301.43 63.263C1301.16 63.3249 1300.96 63.5482 1300.55 63.9948L1226.11 145.877C1225.87 146.143 1225.75 146.276 1225.59 146.351C1225.43 146.426 1225.26 146.437 1224.9 146.457L1085.57 154.495C1085.36 154.507 1085.26 154.513 1085.16 154.496C1085.06 154.479 1084.97 154.439 1084.78 154.36L961.378 102.612C961.096 102.494 960.955 102.435 960.806 102.425C960.656 102.415 960.509 102.456 960.214 102.538L794.028 148.443C793.67 148.542 793.491 148.592 793.312 148.568C793.133 148.545 792.973 148.451 792.652 148.264L738.899 116.798C738.692 116.677 738.588 116.616 738.473 116.585C738.359 116.554 738.239 116.554 737.998 116.554H714.122C713.825 116.554 713.677 116.554 713.539 116.508C713.4 116.461 713.282 116.372 713.046 116.193L650.502 68.851C649.947 68.4308 649.67 68.2207 649.353 68.2322C649.036 68.2437 648.774 68.4733 648.251 68.9324L606.643 105.445C606.172 105.859 605.936 106.066 605.646 106.092C605.357 106.118 605.088 105.957 604.55 105.634Z" fill="url(#paint1_linear_4093_4547)"/>
<defs>
<linearGradient id="paint0_linear_4093_4547" x1="245.952" y1="63.2234" x2="245.952" y2="135.451" gradientUnits="userSpaceOnUse">
<stop stop-color="#A9C5FF"/>
<stop offset="1" stop-color="white"/>
</linearGradient>
<linearGradient id="paint1_linear_4093_4547" x1="918.705" y1="0.674011" x2="918.705" y2="198.116" gradientUnits="userSpaceOnUse">
<stop stop-color="#568DFF"/>
<stop offset="1" stop-color="white"/>
</linearGradient>
</defs>
</svg>
