<svg width="766" height="248" viewBox="0 0 766 248" fill="none" xmlns="http://www.w3.org/2000/svg">
<path d="M352.141 75.9531L354.289 10.1328L370.988 10.6211L368.84 74.7812L377.434 74.1953L378.605 90.7969L368.254 91.5781L367.082 128.102L350.383 127.516L351.555 92.6523L330.363 94.1172L331.047 118.336L314.445 118.824L313.762 95.1914L305.949 95.6797L304.875 79.0781L313.273 78.4922L311.711 21.5586L328.312 21.0703L329.973 77.418L352.141 75.9531ZM389.25 44.2148H384.367V30.9336L407.609 30.8359L407.707 44.2148H402.629L402.434 87.3789H407.316L407.414 100.758H384.074V87.4766H389.055L389.25 44.2148ZM170.842 158.422H162.834V141.82L195.744 141.723L195.842 158.324L187.541 158.422L187.248 221.703H195.354V238.402L162.443 238.5L162.346 221.801H170.549L170.842 158.422ZM214.787 171.801L197.893 171.605L198.088 158.324L244.279 158.91L244.084 172.191L228.068 171.996L227.385 225.023L214.006 224.828L214.787 171.801ZM295.158 182.445L281.877 181.371C281.975 180.395 281.975 179.516 281.975 178.637C281.975 173.559 280.803 170.141 278.459 168.09C276.994 166.723 275.041 166.137 273.088 166.137C271.721 166.137 270.451 166.43 269.182 166.918C266.447 167.992 264.104 170.238 264.104 173.461C264.104 178.344 267.229 180.98 270.842 183.324C274.455 185.57 278.557 187.426 282.365 189.477C291.057 194.262 297.6 200.316 297.6 210.277C297.6 224.242 286.564 231.664 275.334 231.664C268.01 231.664 260.49 228.539 255.803 222.094C252.971 218.188 251.018 213.012 251.018 206.566H264.396C264.396 214.477 270.061 218.383 275.529 218.383C276.311 218.383 277.092 218.383 277.873 218.188C281.389 217.406 284.318 214.77 284.318 210.277C284.318 207.152 282.268 205.297 279.924 203.539C277.287 201.781 274.162 200.219 271.135 198.656C260.49 193.188 250.725 186.645 250.725 173.461C250.725 164.574 256.584 157.641 264.299 154.516C267.131 153.441 270.061 152.855 273.088 152.855C278.166 152.855 283.146 154.516 287.248 158.129C291.74 162.035 295.354 168.676 295.354 178.734C295.354 179.906 295.256 181.176 295.158 182.445Z" fill="#28293D"/>
<path d="M407.268 209.691L409.221 128.539L425.92 129.027L423.088 247.387L406.389 246.996L374.846 180.004L375.236 239.281L358.537 239.379L357.854 139.77L374.553 139.672L407.268 209.691ZM442.814 171.215H437.932V157.934L461.174 157.836L461.271 171.215H456.193L455.998 214.379H460.881L460.979 227.758H437.639V214.477H442.619L442.814 171.215ZM470.744 227.074L472.795 158.324L486.076 158.715L484.416 213.891H507.756V227.172L470.744 227.074ZM544.768 155.59L564.787 233.617L551.896 236.938L546.818 217.211H529.826L525.529 234.008L512.541 230.688L531.486 156.957L544.768 155.59ZM538.322 184.105L533.244 203.832H543.4L538.322 184.105ZM582.365 189.77L595.549 152.27L607.854 157.445L589.689 200.707L590.471 227.758L577.092 228.148L576.311 201.586L556.975 162.816L568.889 156.859L582.365 189.77Z" fill="#6698FA"/>
<mask id="path-2-outside-1_4043_4075" maskUnits="userSpaceOnUse" x="352" y="124" width="261" height="128" fill="black">
<rect fill="white" x="352" y="124" width="261" height="128"/>
<path d="M406.234 209.691L408.188 128.539L424.887 129.027L422.055 247.387L405.355 246.996L373.812 180.004L374.203 239.281L357.504 239.379L356.82 139.77L373.52 139.672L406.234 209.691ZM441.781 171.215H436.898V157.934L460.141 157.836L460.238 171.215H455.16L454.965 214.379H459.848L459.945 227.758H436.605V214.477H441.586L441.781 171.215ZM469.711 227.074L471.762 158.324L485.043 158.715L483.383 213.891H506.723V227.172L469.711 227.074ZM543.734 155.59L563.754 233.617L550.863 236.938L545.785 217.211H528.793L524.496 234.008L511.508 230.688L530.453 156.957L543.734 155.59ZM537.289 184.105L532.211 203.832H542.367L537.289 184.105ZM581.332 189.77L594.516 152.27L606.82 157.445L588.656 200.707L589.438 227.758L576.059 228.148L575.277 201.586L555.941 162.816L567.855 156.859L581.332 189.77Z"/>
</mask>
<path d="M406.234 209.691L408.188 128.539L424.887 129.027L422.055 247.387L405.355 246.996L373.812 180.004L374.203 239.281L357.504 239.379L356.82 139.77L373.52 139.672L406.234 209.691ZM441.781 171.215H436.898V157.934L460.141 157.836L460.238 171.215H455.16L454.965 214.379H459.848L459.945 227.758H436.605V214.477H441.586L441.781 171.215ZM469.711 227.074L471.762 158.324L485.043 158.715L483.383 213.891H506.723V227.172L469.711 227.074ZM543.734 155.59L563.754 233.617L550.863 236.938L545.785 217.211H528.793L524.496 234.008L511.508 230.688L530.453 156.957L543.734 155.59ZM537.289 184.105L532.211 203.832H542.367L537.289 184.105ZM581.332 189.77L594.516 152.27L606.82 157.445L588.656 200.707L589.438 227.758L576.059 228.148L575.277 201.586L555.941 162.816L567.855 156.859L581.332 189.77Z" fill="#6698FA"/>
<path d="M406.234 209.691L402.61 211.385L410.233 209.788L406.234 209.691ZM408.188 128.539L408.304 124.541L404.285 124.423L404.189 128.443L408.188 128.539ZM424.887 129.027L428.886 129.123L428.981 125.145L425.004 125.029L424.887 129.027ZM422.055 247.387L421.961 251.386L425.958 251.479L426.054 247.482L422.055 247.387ZM405.355 246.996L401.737 248.7L402.79 250.937L405.262 250.995L405.355 246.996ZM373.812 180.004L377.431 178.3L369.813 180.03L373.812 180.004ZM374.203 239.281L374.227 243.281L378.229 243.258L378.203 239.255L374.203 239.281ZM357.504 239.379L353.504 239.406L353.531 243.402L357.527 243.379L357.504 239.379ZM356.82 139.77L356.797 135.77L352.793 135.793L352.82 139.797L356.82 139.77ZM373.52 139.672L377.143 137.979L376.059 135.657L373.496 135.672L373.52 139.672ZM410.233 209.788L412.186 128.635L404.189 128.443L402.236 209.595L410.233 209.788ZM408.071 132.537L424.77 133.026L425.004 125.029L408.304 124.541L408.071 132.537ZM420.888 128.932L418.056 247.291L426.054 247.482L428.886 129.123L420.888 128.932ZM422.148 243.388L405.449 242.997L405.262 250.995L421.961 251.386L422.148 243.388ZM408.974 245.292L377.431 178.3L370.194 181.708L401.737 248.7L408.974 245.292ZM369.813 180.03L370.203 239.308L378.203 239.255L377.812 179.978L369.813 180.03ZM374.18 235.281L357.481 235.379L357.527 243.379L374.227 243.281L374.18 235.281ZM361.504 239.351L360.82 139.742L352.82 139.797L353.504 239.406L361.504 239.351ZM356.844 143.769L373.543 143.672L373.496 135.672L356.797 135.77L356.844 143.769ZM369.896 141.365L402.61 211.385L409.858 207.998L377.143 137.979L369.896 141.365ZM441.781 171.215L445.781 171.233L445.799 167.215H441.781V171.215ZM436.898 171.215H432.898V175.215H436.898V171.215ZM436.898 157.934L436.882 153.934L432.898 153.95V157.934H436.898ZM460.141 157.836L464.141 157.807L464.111 153.819L460.124 153.836L460.141 157.836ZM460.238 171.215V175.215H464.268L464.238 171.186L460.238 171.215ZM455.16 171.215V167.215H451.178L451.16 171.197L455.16 171.215ZM454.965 214.379L450.965 214.361L450.947 218.379H454.965V214.379ZM459.848 214.379L463.848 214.35L463.819 210.379H459.848V214.379ZM459.945 227.758V231.758H463.975L463.945 227.729L459.945 227.758ZM436.605 227.758H432.605V231.758H436.605V227.758ZM436.605 214.477V210.477H432.605V214.477H436.605ZM441.586 214.477V218.477H445.568L445.586 214.495L441.586 214.477ZM441.781 167.215H436.898V175.215H441.781V167.215ZM440.898 171.215V157.934H432.898V171.215H440.898ZM436.915 161.934L460.157 161.836L460.124 153.836L436.882 153.934L436.915 161.934ZM456.141 157.865L456.238 171.244L464.238 171.186L464.141 157.807L456.141 157.865ZM460.238 167.215H455.16V175.215H460.238V167.215ZM451.16 171.197L450.965 214.361L458.965 214.397L459.16 171.233L451.16 171.197ZM454.965 218.379H459.848V210.379H454.965V218.379ZM455.848 214.408L455.945 227.787L463.945 227.729L463.848 214.35L455.848 214.408ZM459.945 223.758H436.605V231.758H459.945V223.758ZM440.605 227.758V214.477H432.605V227.758H440.605ZM436.605 218.477H441.586V210.477H436.605V218.477ZM445.586 214.495L445.781 171.233L437.781 171.197L437.586 214.459L445.586 214.495ZM469.711 227.074L465.713 226.955L465.59 231.063L469.7 231.074L469.711 227.074ZM471.762 158.324L471.879 154.326L467.883 154.208L467.763 158.205L471.762 158.324ZM485.043 158.715L489.041 158.835L489.162 154.834L485.161 154.717L485.043 158.715ZM483.383 213.891L479.385 213.77L479.261 217.891H483.383V213.891ZM506.723 213.891H510.723V209.891H506.723V213.891ZM506.723 227.172L506.712 231.172L510.723 231.182V227.172H506.723ZM473.709 227.193L475.76 158.443L467.763 158.205L465.713 226.955L473.709 227.193ZM471.644 162.322L484.925 162.713L485.161 154.717L471.879 154.326L471.644 162.322ZM481.045 158.595L479.385 213.77L487.381 214.011L489.041 158.835L481.045 158.595ZM483.383 217.891H506.723V209.891H483.383V217.891ZM502.723 213.891V227.172H510.723V213.891H502.723ZM506.733 223.172L469.721 223.074L469.7 231.074L506.712 231.172L506.733 223.172ZM543.734 155.59L547.609 154.596L546.753 151.258L543.325 151.611L543.734 155.59ZM563.754 233.617L564.752 237.491L568.622 236.494L567.628 232.623L563.754 233.617ZM550.863 236.938L546.99 237.935L547.987 241.809L551.861 240.811L550.863 236.938ZM545.785 217.211L549.659 216.214L548.886 213.211H545.785V217.211ZM528.793 217.211V213.211H525.687L524.918 216.22L528.793 217.211ZM524.496 234.008L523.505 237.883L527.38 238.874L528.371 234.999L524.496 234.008ZM511.508 230.688L507.634 229.692L506.637 233.571L510.517 234.563L511.508 230.688ZM530.453 156.957L530.044 152.978L527.272 153.263L526.579 155.962L530.453 156.957ZM537.289 184.105L541.163 183.108H533.415L537.289 184.105ZM532.211 203.832L528.337 202.835L527.051 207.832H532.211V203.832ZM542.367 203.832V207.832H547.527L546.241 202.835L542.367 203.832ZM539.86 156.584L559.879 234.611L567.628 232.623L547.609 154.596L539.86 156.584ZM562.756 229.744L549.866 233.064L551.861 240.811L564.752 237.491L562.756 229.744ZM554.737 235.94L549.659 216.214L541.911 218.208L546.99 237.935L554.737 235.94ZM545.785 213.211H528.793V221.211H545.785V213.211ZM524.918 216.22L520.621 233.016L528.371 234.999L532.668 218.202L524.918 216.22ZM525.487 230.132L512.499 226.812L510.517 234.563L523.505 237.883L525.487 230.132ZM515.382 231.683L534.327 157.953L526.579 155.962L507.634 229.692L515.382 231.683ZM530.863 160.936L544.144 159.569L543.325 151.611L530.044 152.978L530.863 160.936ZM533.415 183.108L528.337 202.835L536.085 204.829L541.163 185.103L533.415 183.108ZM532.211 207.832H542.367V199.832H532.211V207.832ZM546.241 202.835L541.163 183.108L533.415 185.103L538.493 204.829L546.241 202.835ZM581.332 189.77L577.63 191.285L581.617 201.02L585.106 191.096L581.332 189.77ZM594.516 152.27L596.067 148.582L592.151 146.935L590.742 150.943L594.516 152.27ZM606.82 157.445L610.508 158.994L612.056 155.308L608.371 153.758L606.82 157.445ZM588.656 200.707L584.968 199.159L584.633 199.957L584.658 200.823L588.656 200.707ZM589.438 227.758L589.554 231.756L593.551 231.639L593.436 227.642L589.438 227.758ZM576.059 228.148L572.06 228.266L572.178 232.263L576.175 232.147L576.059 228.148ZM575.277 201.586L579.276 201.468L579.25 200.588L578.857 199.801L575.277 201.586ZM555.941 162.816L554.153 159.239L550.578 161.026L552.362 164.602L555.941 162.816ZM567.855 156.859L571.557 155.344L569.923 151.353L566.067 153.282L567.855 156.859ZM585.106 191.096L598.289 153.596L590.742 150.943L577.558 188.443L585.106 191.096ZM592.965 155.957L605.269 161.132L608.371 153.758L596.067 148.582L592.965 155.957ZM603.132 155.897L584.968 199.159L592.344 202.256L610.508 158.994L603.132 155.897ZM584.658 200.823L585.439 227.873L593.436 227.642L592.655 200.592L584.658 200.823ZM589.321 223.76L575.942 224.15L576.175 232.147L589.554 231.756L589.321 223.76ZM580.057 228.031L579.276 201.468L571.279 201.704L572.06 228.266L580.057 228.031ZM578.857 199.801L559.521 161.031L552.362 164.602L571.698 203.371L578.857 199.801ZM557.73 166.394L569.644 160.437L566.067 153.282L554.153 159.239L557.73 166.394ZM564.154 158.375L577.63 191.285L585.034 188.254L571.557 155.344L564.154 158.375Z" fill="white" mask="url(#path-2-outside-1_4043_4075)"/>
</svg>
