<svg width="1280" height="352" viewBox="0 0 1280 352" fill="none" xmlns="http://www.w3.org/2000/svg">
<path d="M320.753 119.685L207.685 147.124C207.191 147.244 206.944 147.304 206.714 147.234C206.483 147.165 206.31 146.979 205.964 146.607L131.377 66.3706C131.214 66.1952 131.133 66.1075 131.032 66.045C130.932 65.9824 130.817 65.9479 130.588 65.8789L130.588 65.8789L53.3507 42.6387C53.1858 42.5891 53.1034 42.5643 53.0277 42.5245C52.9521 42.4847 52.8849 42.4308 52.7507 42.3231L52.7507 42.3231L2.88884 2.31778C1.63514 1.31191 1.00829 0.808971 0.504143 1.05084C0 1.2927 0 2.09637 0 3.70371V350.223C0 351.061 0 351.48 0.260217 351.74C0.520434 352 0.939249 352 1.77688 352H507.69C508.278 352 508.572 352 508.798 351.845C509.025 351.69 509.132 351.416 509.345 350.869L587.661 150.089C588.136 148.873 588.373 148.264 588.07 147.867C587.767 147.471 587.118 147.539 585.819 147.677L434.347 163.706L434.346 163.706C434.132 163.729 434.024 163.74 433.918 163.726C433.812 163.712 433.712 163.672 433.51 163.593L321.821 119.757C321.562 119.656 321.432 119.605 321.295 119.595C321.159 119.586 321.023 119.619 320.753 119.685Z" fill="#3568D4"/>
<path d="M604.08 127.369L319.545 348.818C317.849 350.138 317 350.799 317.207 351.399C317.413 351.999 318.488 351.998 320.638 351.997L1278.22 351.484C1279.06 351.483 1279.48 351.483 1279.74 351.223C1280 350.963 1280 350.544 1280 349.707V35.4319C1280 34.7199 1280 34.3639 1279.79 34.1163C1279.59 33.8686 1279.23 33.8065 1278.53 33.6823L1164.94 13.5587C1164.28 13.4408 1163.94 13.3819 1163.67 13.5287C1163.4 13.6755 1163.27 13.9858 1163 14.6062L1111.72 133.812C1111.42 134.522 1111.27 134.877 1110.95 135.019C1110.64 135.16 1110.27 135.04 1109.53 134.798L1031.31 109.025C1030.97 108.912 1030.8 108.856 1030.62 108.868C1030.45 108.881 1030.29 108.96 1029.97 109.119L1029.97 109.119L924.041 161.498L924.04 161.499C923.855 161.59 923.763 161.636 923.663 161.659C923.563 161.682 923.46 161.682 923.253 161.682H714.544C714.406 161.682 714.337 161.682 714.269 161.672C714.201 161.661 714.135 161.64 714.004 161.599L605.711 127.078C605.274 126.939 605.056 126.869 604.839 126.908C604.623 126.946 604.442 127.087 604.08 127.369Z" fill="#3E7BFA"/>
<path d="M550.071 298.005L399.16 348.532C395.23 349.848 393.265 350.506 393.387 351.252C393.508 351.997 395.581 351.996 399.725 351.994L1278.22 351.514C1279.06 351.514 1279.48 351.514 1279.74 351.254C1280 350.993 1280 350.575 1280 349.738V136.586C1280 135.669 1280 135.21 1279.71 134.945C1279.41 134.681 1278.96 134.727 1278.05 134.818L1215.23 141.107C1215.11 141.119 1215.06 141.124 1215 141.123C1214.95 141.121 1214.89 141.113 1214.78 141.096L1139.77 129.656C1139.64 129.636 1139.57 129.627 1139.51 129.607C1139.45 129.588 1139.39 129.56 1139.27 129.504L1139.27 129.504L1077.96 100.272C1077.27 99.9439 1076.93 99.7801 1076.6 99.8772C1076.27 99.9743 1076.07 100.299 1075.68 100.949L1026.29 181.721C1026.15 181.947 1026.08 182.06 1025.99 182.147C1025.89 182.234 1025.77 182.291 1025.53 182.403L930.494 227.005C930.258 227.116 930.14 227.171 930.013 227.19C929.886 227.21 929.757 227.192 929.499 227.157L779.49 206.767C779.26 206.736 779.145 206.721 779.031 206.735C778.917 206.749 778.809 206.792 778.593 206.878L550.071 298.005Z" fill="#3568D4"/>
</svg>
