<svg width="1280" height="199" viewBox="0 0 1280 199" fill="none" xmlns="http://www.w3.org/2000/svg">
<path d="M242.852 63.3312L142.391 90.1492C141.628 90.3529 141.487 91.3749 142.167 91.7774L215.625 135.288C215.802 135.393 216.01 135.434 216.214 135.403L348.904 115.206C349.685 115.087 349.937 114.085 349.305 113.611L313.287 86.5978C313.037 86.4105 312.708 86.3675 312.418 86.4845L289.762 95.6434C289.481 95.7572 289.161 95.7199 288.913 95.5445L243.597 63.4649C243.381 63.3119 243.108 63.2629 242.852 63.3312Z" fill="url(#paint0_linear_4093_4547)"/>
<path d="M604.271 105.634L584.263 93.629C583.704 93.2938 583.425 93.1262 583.126 93.1589C582.828 93.1916 582.592 93.4157 582.119 93.8639L529.929 143.341C529.781 143.482 529.707 143.552 529.619 143.604C529.532 143.655 529.434 143.686 529.239 143.747L474.57 161.011C473.592 161.32 473.103 161.475 472.948 161.873C472.793 162.272 473.05 162.716 473.563 163.604L492.995 197.213C493.25 197.653 493.377 197.873 493.587 197.993C493.797 198.112 494.052 198.109 494.56 198.103L1298.56 188.314C1298.72 188.312 1298.8 188.311 1298.88 188.296C1298.96 188.281 1299.03 188.252 1299.18 188.194L1363.26 163.347C1363.81 163.134 1364.09 163.027 1364.24 162.799C1364.4 162.572 1364.4 162.276 1364.4 161.685V8.35114C1364.4 5.32002 1364.4 3.80447 1363.71 3.64429C1363.02 3.48412 1362.35 4.84459 1361.02 7.56552L1329.03 72.7173C1328.69 73.4264 1328.51 73.781 1328.18 73.9058C1327.85 74.0306 1327.49 73.8808 1326.76 73.5813L1302.27 63.5444C1301.71 63.3155 1301.43 63.2011 1301.16 63.263C1300.88 63.3249 1300.68 63.5482 1300.27 63.9948L1225.83 145.877C1225.59 146.143 1225.47 146.276 1225.31 146.351C1225.16 146.426 1224.98 146.437 1224.62 146.457L1085.29 154.495C1085.08 154.507 1084.98 154.513 1084.88 154.496C1084.78 154.479 1084.69 154.439 1084.5 154.36L961.099 102.612C960.817 102.494 960.676 102.435 960.526 102.425C960.377 102.415 960.229 102.456 959.935 102.538L793.748 148.443C793.39 148.542 793.211 148.592 793.033 148.568C792.854 148.545 792.693 148.451 792.373 148.264L738.62 116.798C738.412 116.677 738.309 116.616 738.194 116.585C738.079 116.554 737.959 116.554 737.719 116.554H713.842C713.546 116.554 713.397 116.554 713.259 116.508C713.121 116.461 713.003 116.372 712.766 116.193L650.223 68.851C649.668 68.4308 649.391 68.2207 649.073 68.2322C648.756 68.2437 648.495 68.4733 647.971 68.9324L606.364 105.445C605.892 105.859 605.657 106.066 605.367 106.092C605.078 106.118 604.809 105.957 604.271 105.634Z" fill="url(#paint1_linear_4093_4547)"/>
<defs>
<linearGradient id="paint0_linear_4093_4547" x1="245.673" y1="63.2234" x2="245.673" y2="135.451" gradientUnits="userSpaceOnUse">
<stop stop-color="#A9C5FF"/>
<stop offset="1" stop-color="white"/>
</linearGradient>
<linearGradient id="paint1_linear_4093_4547" x1="918.426" y1="0.674011" x2="918.426" y2="198.116" gradientUnits="userSpaceOnUse">
<stop stop-color="#568DFF"/>
<stop offset="1" stop-color="white"/>
</linearGradient>
</defs>
</svg>
