<svg width="1280" height="234" viewBox="0 0 1280 234" fill="none" xmlns="http://www.w3.org/2000/svg">
<path d="M156.193 0.257876L36.5808 33.803C34.9966 34.2472 34.2045 34.4694 34.1112 35.0285C34.0179 35.5877 34.6948 36.055 36.0488 36.9898L233.259 173.142C233.55 173.343 233.696 173.444 233.864 173.482C234.032 173.52 234.207 173.492 234.556 173.436L347.116 155.338L347.116 155.338C347.364 155.298 347.488 155.278 347.611 155.292C347.734 155.307 347.85 155.355 348.082 155.451L536.284 233.389C536.744 233.579 536.974 233.674 537.209 233.644C537.444 233.614 537.642 233.465 538.04 233.166L578.119 202.998C578.414 202.777 578.561 202.666 578.735 202.621C578.909 202.577 579.092 202.605 579.457 202.659L661.935 215.009C662.04 215.025 662.093 215.033 662.146 215.034C662.199 215.036 662.252 215.031 662.358 215.022L916.256 192.304C916.351 192.296 916.399 192.292 916.446 192.292C916.494 192.293 916.542 192.299 916.637 192.311L1044.04 208.292C1044.26 208.32 1044.38 208.334 1044.49 208.321C1044.6 208.307 1044.7 208.267 1044.91 208.186L1243.61 131.255C1244.75 130.812 1245.33 130.59 1245.43 130.12C1245.53 129.649 1245.1 129.212 1244.24 128.338L1184.46 67.7335C1184.09 67.3583 1183.9 67.1707 1183.66 67.1097C1183.42 67.0487 1183.17 67.126 1182.66 67.2807L1108.54 90.0421C1108.42 90.0813 1108.35 90.101 1108.29 90.1108C1108.22 90.1207 1108.15 90.1207 1108.02 90.1207H1062.42C1062.3 90.1207 1062.25 90.1207 1062.19 90.1277C1062.14 90.1346 1062.08 90.1485 1061.98 90.1761L1001.44 105.624L884.971 119.62C884.715 119.651 884.586 119.666 884.461 119.645C884.335 119.625 884.219 119.569 883.986 119.457L811.354 84.6133C810.773 84.3344 810.482 84.1949 810.19 84.253C809.898 84.3112 809.683 84.5515 809.253 85.032L773.036 125.484C772.698 125.862 772.529 126.05 772.299 126.125C772.07 126.199 771.822 126.145 771.327 126.037L627.457 94.7035C627.181 94.6433 627.043 94.6132 626.904 94.6264C626.766 94.6396 626.636 94.6952 626.376 94.8064L553.487 125.982C553.168 126.118 553.008 126.187 552.839 126.191C552.669 126.196 552.506 126.137 552.179 126.019L465.57 94.7108C465.393 94.6467 465.304 94.6147 465.225 94.5653C465.145 94.5159 465.077 94.4506 464.941 94.3201L403.818 35.6568C403.4 35.256 403.191 35.0555 402.924 35.0083C402.657 34.9611 402.393 35.0778 401.863 35.3112L268.338 94.129C267.838 94.3493 267.588 94.4594 267.333 94.4216C267.079 94.3839 266.871 94.2059 266.457 93.85L157.837 0.621979C157.482 0.317507 157.305 0.165271 157.087 0.116897C156.868 0.0685222 156.643 0.13164 156.193 0.257876Z" fill="url(#paint0_linear_4093_4552)"/>
<defs>
<linearGradient id="paint0_linear_4093_4552" x1="639.533" y1="0" x2="639.533" y2="233.779" gradientUnits="userSpaceOnUse">
<stop stop-color="#6698FA"/>
<stop offset="1" stop-color="#A1C1FF"/>
</linearGradient>
</defs>
</svg>
