<svg width="3063" height="739" viewBox="0 0 3063 739" fill="none" xmlns="http://www.w3.org/2000/svg">
<path d="M0 546.344L63.2812 542.947L230.859 546.344H323.438L418.359 537.285L588.281 546.344L792.188 536.719L1023.05 546.344L1605.47 537.285L2036.72 542.381L2312.11 559.932L2664.84 542.381L2876.95 537.285L3000 542.381V738.281H1572.66H0V546.344Z" fill="url(#paint0_linear_6504_15004)"/>
<g filter="url(#filter0_f_6504_15004)">
<rect x="2653.12" y="574.219" width="290.625" height="39.8438" fill="#6698FA"/>
</g>
<path d="M2766.7 124.219L2822.47 286.294L2905.25 526.792L2765.83 570.36L2620.31 526.792L2766.7 124.219Z" fill="#6698FA"/>
<path d="M2757.99 437.908V411.767V396.953L2735.34 363.841L2713.55 329.858L2723.14 339.443L2752.76 370.812L2759.74 377.783L2762.35 304.588L2764.96 235.75L2766.71 274.962L2770.19 382.14L2785.88 364.713L2796.33 355.128L2812.2 338.269L2798.95 359.485L2769.32 406.538L2771.06 450.107L2772.81 481.476L2805.92 459.692L2822.47 450.107L2830.32 444.879L2838.16 439.651L2844.26 438.779L2837.29 444.879L2830.32 452.721L2814.63 466.663L2773.68 498.904L2774.55 562.514L2776.62 587.783H2751.89L2753.64 498.032L2742.31 488.447L2682.18 435.294L2717.91 456.207L2750.15 477.119L2754.51 478.862L2756.25 479.734V465.792L2757.99 437.908Z" fill="#CCDDFF"/>
<path d="M2863.57 225L2907.14 351.639L2971.82 539.555L2862.88 573.598L2749.18 539.555L2863.57 225Z" fill="#6698FA"/>
<path d="M2856.76 470.107V449.681V438.107L2839.05 412.234L2822.03 385.681L2829.52 393.17L2852.67 417.681L2858.12 423.128L2860.16 365.936L2862.2 312.148L2863.56 342.787L2866.29 426.532L2878.54 412.915L2886.71 405.426L2899.11 392.253L2888.76 408.83L2865.61 445.596L2866.97 479.639L2868.33 504.15L2894.2 487.128L2907.14 479.639L2913.27 475.554L2919.39 471.469L2924.16 470.788L2918.71 475.554L2913.27 481.681L2901.01 492.575L2869.01 517.767L2869.69 567.469L2871.31 587.214H2851.99L2853.35 517.086L2844.5 509.596L2797.52 468.064L2825.44 484.405L2850.63 500.745L2854.03 502.107L2855.39 502.788V491.894L2856.76 470.107Z" fill="#CCDDFF"/>
<path d="M222.83 192.188L265.688 316.741L329.304 501.563L222.161 535.046L110.33 501.563L222.83 192.188Z" fill="#6698FA"/>
<path d="M216.132 433.256V413.167V401.783L198.721 376.336L181.98 350.22L189.346 357.586L212.114 381.693L217.471 387.051L219.48 330.8L221.489 277.898L222.829 308.032L225.507 390.399L237.561 377.006L245.596 369.64L257.787 356.684L247.605 372.988L224.838 409.149L226.177 442.631L227.516 466.738L252.963 449.997L265.686 442.631L271.713 438.613L277.739 434.595L282.427 433.926L277.07 438.613L271.713 444.64L259.659 455.354L228.186 480.131L228.855 529.015L230.444 548.435H211.445L212.784 479.461L204.079 472.095L157.873 431.247L185.328 447.319L210.105 463.39L213.454 464.729L214.793 465.399V454.685L216.132 433.256Z" fill="#CCDDFF"/>
<path d="M284.607 323.703L311.598 402.144L351.661 518.54L284.186 539.626L213.758 518.54L284.607 323.703Z" fill="#6698FA"/>
<path d="M280.385 475.524V462.872V455.703L269.42 439.677L258.877 423.23L263.516 427.869L277.855 443.051L281.229 446.425L282.494 411L283.759 377.684L284.603 396.661L286.289 448.533L293.88 440.099L298.941 435.46L306.618 427.3L300.206 437.568L285.868 460.341L286.711 481.428L287.555 496.61L303.58 486.067L311.593 481.428L315.388 478.897L319.184 476.367L322.136 475.945L318.762 478.897L315.388 482.693L307.797 489.44L287.976 505.044L288.398 535.83L289.398 548.06H277.433L278.277 504.622L272.794 499.984L243.695 474.258L260.986 484.38L276.59 494.501L278.698 495.345L279.542 495.766V489.019L280.385 475.524Z" fill="#CCDDFF"/>
<path d="M167.591 270.078L201.078 367.4L250.785 511.813L167.068 537.974L79.6875 511.813L167.591 270.078Z" fill="#6698FA"/>
<path d="M162.361 458.441V442.744V433.849L148.757 413.966L135.676 393.56L141.432 399.316L159.222 418.152L163.408 422.338L164.977 378.386L166.547 337.051L167.594 360.596L169.687 424.954L179.105 414.49L185.384 408.734L194.908 398.611L186.953 411.35L169.163 439.605L170.21 465.767L171.256 484.603L191.139 471.522L201.081 465.767L205.79 462.627L210.499 459.488L214.161 458.964L209.976 462.627L205.79 467.336L196.372 475.708L171.779 495.068L172.303 533.264L173.544 548.438H158.699L159.745 494.544L152.943 488.789L116.84 456.872L138.292 469.429L157.652 481.987L160.268 483.033L161.315 483.556V475.185L162.361 458.441Z" fill="#CCDDFF"/>
<g filter="url(#filter1_f_6504_15004)">
<rect x="152.344" y="543.75" width="135.938" height="18.75" fill="#0053F7"/>
</g>
<defs>
<filter id="filter0_f_6504_15004" x="2534.77" y="455.859" width="527.344" height="276.562" filterUnits="userSpaceOnUse" color-interpolation-filters="sRGB">
<feFlood flood-opacity="0" result="BackgroundImageFix"/>
<feBlend mode="normal" in="SourceGraphic" in2="BackgroundImageFix" result="shape"/>
<feGaussianBlur stdDeviation="59.1797" result="effect1_foregroundBlur_6504_15004"/>
</filter>
<filter id="filter1_f_6504_15004" x="19.4531" y="410.859" width="401.719" height="284.531" filterUnits="userSpaceOnUse" color-interpolation-filters="sRGB">
<feFlood flood-opacity="0" result="BackgroundImageFix"/>
<feBlend mode="normal" in="SourceGraphic" in2="BackgroundImageFix" result="shape"/>
<feGaussianBlur stdDeviation="66.4453" result="effect1_foregroundBlur_6504_15004"/>
</filter>
<linearGradient id="paint0_linear_6504_15004" x1="1500" y1="566.727" x2="1500" y2="645.993" gradientUnits="userSpaceOnUse">
<stop stop-color="#CCDDFF"/>
<stop offset="1" stop-color="#F5F8FF"/>
</linearGradient>
</defs>
</svg>
