<svg width="45" height="44" viewBox="0 0 45 44" fill="none" xmlns="http://www.w3.org/2000/svg">
<path d="M21.5862 1.67782C20.891 1.69025 20.1873 1.74289 19.4773 1.84453C18.4337 2.07157 17.4257 2.43844 16.5245 2.91188C15.3893 3.42756 14.2153 3.96026 13.1541 4.03594C13.1004 4.03946 13.0479 4.04852 12.9959 4.06172C11.5123 4.44452 10.2326 5.36082 9.40891 6.61922L9.27656 6.81172C9.24928 6.8522 9.22378 6.89491 9.20266 6.93891C8.47666 8.45779 8.2834 10.1973 8.675 11.8992C8.92668 12.722 9.22679 13.5124 9.51719 14.278L9.60656 14.51C10.285 16.1019 10.7779 17.7743 11.0727 19.4806C11.0876 19.5669 11.1147 19.6507 11.1534 19.7281C11.443 20.3019 11.6695 20.9057 11.8341 21.5552C11.9071 21.8095 11.9817 22.0706 12.0627 22.3338C12.0855 22.4086 12.1296 22.4698 12.1692 22.5331C12.171 22.6255 12.1831 22.7184 12.2139 22.8081L13.4359 26.3041C13.5187 26.5417 13.6986 26.7315 13.9309 26.8266C14.1641 26.9216 14.4258 26.9125 14.6511 26.8025C16.9585 25.6814 22.3628 23.0564 29.8191 27.7186C29.9616 27.8075 30.1238 27.8527 30.2866 27.8527C30.4054 27.8527 30.5237 27.8298 30.6355 27.7805C30.9012 27.6652 31.0939 27.4271 31.1494 27.1428C31.3298 26.225 31.394 24.7518 31.335 23.5523L31.39 23.2894C31.4613 22.9418 31.5318 22.5894 31.6066 22.2409C32.3035 20.6904 33.5363 19.1915 34.7295 17.7413C36.5995 15.4682 38.5336 13.1184 38.3664 10.4916C38.3585 10.3719 38.3273 10.2543 38.2736 10.1478C37.9982 9.60574 37.6896 9.07802 37.3077 8.48578L37.2337 8.36719C37.1449 8.22815 37.0554 8.09097 36.9639 7.95985C36.8953 7.86129 36.8255 7.76777 36.7559 7.67625L36.682 7.57657C36.5421 7.39001 36.4027 7.20428 36.2592 7.02828C36.1818 6.935 36.1052 6.84622 36.0031 6.73094C35.8438 6.5479 35.6855 6.37136 35.5236 6.20328L35.3105 5.98672C35.123 5.80104 34.935 5.62442 34.7502 5.4625L34.6144 5.34563C32.2745 3.34979 29.8714 2.82485 28.408 2.50453L27.5916 2.32063C25.6855 1.95499 23.6721 1.64053 21.5862 1.67782ZM22.4594 3.44125C23.2558 3.46468 24.0652 3.54082 24.9034 3.6561C22.0364 7.92498 22.5254 13.6976 23.1933 18.733C22.3186 18.6652 21.4225 18.646 20.5241 18.69C20.0154 15.6927 19.4837 11.93 19.0305 8.96532C18.8949 7.63036 19.0125 6.28253 19.3759 4.99157C19.7367 4.21453 19.7705 3.7759 20.0944 3.54094C20.8807 3.44634 21.663 3.41782 22.4594 3.44125ZM19.6183 3.62516C19.2284 3.95516 18.9439 4.47594 18.7503 5.13594C18.4256 6.47794 18.3155 7.8614 18.4237 9.2386C18.6385 12.4541 19.2226 15.6287 20.1202 18.7175C19.2718 18.7773 18.4282 18.8903 17.6159 19.0716C16.9999 16.9481 17.1084 14.5352 16.9095 12.2859C16.708 9.71458 15.8623 7.27863 14.7852 5.83719C14.7112 5.66119 14.7202 5.57248 14.7422 5.50032C15.2103 5.36304 15.6717 5.1954 16.1258 5.00532C16.1795 5.03524 16.2338 5.06456 16.2822 5.10328L16.2994 5.08266C16.2519 5.04922 16.2017 5.02404 16.1516 4.995C16.5405 4.83132 16.9249 4.66297 17.2962 4.49313C18.0478 4.09889 18.8439 3.81172 19.6183 3.62516ZM16.2822 5.10328L16.2719 5.11532H16.2994C16.2941 5.11092 16.2883 5.10856 16.2822 5.10328ZM24.9516 3.66125C25.6864 3.76333 26.4421 3.89229 27.2341 4.04453L28.0591 4.23016C28.6689 4.36392 29.4234 4.53432 30.247 4.83C28.8214 7.37936 27.8596 10.1643 27.4214 13.0559C27.1064 15.1468 26.9625 17.2569 26.9642 19.3689C25.8924 19.0759 24.6656 18.8593 23.3737 18.7484C23.3227 17.6264 23.2859 16.4853 23.3325 15.8438C23.4856 13.7186 23.6632 7.14693 24.9516 3.66125ZM30.4722 4.90735C31.4191 5.27079 32.4506 5.8125 33.4714 6.68282L33.5866 6.78422C33.7485 6.9259 33.9093 7.07781 34.0712 7.23797L34.2569 7.42532C34.3959 7.57052 34.5348 7.72416 34.702 7.91688C34.768 7.99256 34.8337 8.06803 34.898 8.14547C34.9948 8.26427 35.0891 8.39172 35.185 8.51844C33.5588 9.15028 30.8589 15.1469 30.4911 20.5686C30.4269 20.6821 30.3602 20.7945 30.3003 20.9089C29.5655 20.2911 28.5228 19.8443 27.5847 19.5459C27.4368 19.4993 27.2772 19.4576 27.1223 19.4136C27.2631 17.2875 27.4624 15.0591 27.6552 13.0439C28.28 9.73511 29.8808 8.03839 30.4722 4.90735ZM14.4672 5.58453C14.5103 5.70773 14.5777 5.82369 14.6666 5.92313C15.7331 7.36985 15.9399 9.7233 16.1705 12.2894C16.3667 14.5519 16.5918 16.9779 17.4269 19.1145C16.715 19.2844 16.0326 19.5084 15.3884 19.7883C14.8622 17.8848 14.6114 15.7388 14.2145 13.7984C13.676 11.1743 13.6055 8.8257 12.7158 8.10938C12.3743 7.63858 11.4604 7.6802 11.8925 6.81516C11.9955 6.63036 12.1234 6.4617 12.2466 6.28922C12.595 6.07626 12.9642 5.89563 13.3655 5.78563C13.7333 5.75307 14.1011 5.67957 14.4672 5.58453ZM11.9527 6.46625C11.8699 6.57889 11.7882 6.69355 11.7292 6.82203C11.5699 7.11595 11.5008 7.45018 11.5316 7.78282C11.5588 7.95706 11.6297 8.12239 11.7344 8.26407C12.6135 8.96543 13.0694 11.1943 13.6027 13.8088C14.0048 15.7791 14.4703 17.9591 15.1822 19.8863C14.5662 20.1705 13.9938 20.5119 13.4755 20.9141C13.3012 20.2761 13.0741 19.6501 12.7828 19.0544C12.4625 17.2574 11.939 15.4982 11.2377 13.8534L11.162 13.6541C10.8822 12.9157 10.5922 12.153 10.3731 11.4472C10.0915 10.2143 10.2283 8.90711 10.7598 7.76047L10.8664 7.6075C11.1594 7.15958 11.5285 6.77513 11.9527 6.46625ZM35.2658 8.625C35.2675 8.62676 35.2675 8.62752 35.2692 8.63016L35.3517 8.73844C35.4098 8.81324 35.4664 8.88955 35.5219 8.96875C35.5993 9.07963 35.6748 9.19714 35.7505 9.31594L35.8295 9.43969C36.1384 9.91753 36.3914 10.3474 36.6167 10.7769C36.6361 12.6557 35.049 14.5851 33.3717 16.6241C32.7188 17.4169 32.0563 18.2235 31.457 19.0613C32.8114 15.5941 34.1191 12.1397 35.2658 8.625ZM21.1256 20.4431C23.264 20.3941 25.4145 20.7043 27.0519 21.2252C29.0064 21.8464 29.4723 22.4978 29.4908 22.6861C29.5233 22.9026 29.5462 23.166 29.563 23.4441L29.5578 23.4664C29.5279 23.6098 29.5458 23.7486 29.5836 23.8806C29.6003 24.4174 29.5946 24.9956 29.5647 25.5306C26.4961 23.8569 23.7357 23.2963 21.3834 23.2963C18.5094 23.2963 16.2462 24.134 14.7766 24.7984L14.0512 22.7239C15.6471 21.1617 18.3763 20.5061 21.1256 20.4431ZM16.6483 28.4955L16.2495 28.7636C16.4185 29.047 16.6371 29.2976 16.8941 29.5044C17.0965 29.6311 17.3328 29.6928 17.5712 29.6814C17.6936 29.6805 17.8143 29.6642 17.9322 29.6298L19.2625 29.1486C19.3531 29.1134 19.4493 29.0953 19.5461 29.0953C19.6922 29.0856 19.838 29.1252 19.9603 29.207C20.1284 29.3443 20.2738 29.5053 20.3917 29.6866L20.7698 29.4752V29.4648C20.6062 29.2105 20.4016 28.9854 20.1648 28.798C19.9748 28.666 19.7483 28.5959 19.5169 28.6003C19.4394 28.5986 19.3613 28.6134 19.29 28.6433L17.8497 29.1245C17.7582 29.1527 17.662 29.165 17.5661 29.1623C17.3954 29.1747 17.2248 29.1277 17.0848 29.0283C16.9097 28.876 16.7627 28.6961 16.6483 28.4955ZM31.4244 29.4545C31.2871 29.4669 31.1609 29.5345 31.0737 29.6419C30.969 29.7308 30.9022 29.8552 30.8864 29.9925C30.8767 30.0224 30.8767 30.0554 30.8864 30.0853C31.1962 30.4127 31.592 30.6431 32.0294 30.7522C32.4667 30.8868 32.9045 31.0166 33.3322 31.1372C33.7651 31.2806 34.1327 31.5741 34.3703 31.9639C34.3747 31.9815 34.3747 31.9996 34.3703 32.0172C34.3703 32.099 34.1738 32.2327 33.7945 32.4245C33.6027 32.5354 33.3142 32.7795 32.8337 33.1447C32.5337 33.3902 32.2126 33.6078 31.873 33.7944C31.5843 33.9229 31.3309 34.1211 31.1373 34.3702C31.1329 34.3746 31.1288 34.3786 31.1253 34.3839C30.9722 34.5599 30.9906 34.8289 31.1666 34.982C31.2581 35.07 31.381 35.1179 31.5086 35.1161C31.5992 35.1143 31.688 35.0913 31.7681 35.0491C32.3876 34.6583 32.9829 34.2289 33.5505 33.7652C34.126 33.2882 34.727 32.8408 35.3483 32.4245C35.6941 32.2133 35.8622 31.9924 35.8622 31.7663C35.8507 31.6149 35.7681 31.4777 35.6405 31.3967C34.8997 30.7315 34.0256 30.2376 33.0778 29.9409L32.38 29.6384C32.145 29.532 31.8927 29.4695 31.6358 29.4545C31.5654 29.4449 31.4939 29.4449 31.4244 29.4545ZM12.2552 29.5044C11.6409 29.9655 10.969 30.3433 10.2562 30.6284C9.54961 30.9197 8.88026 31.2942 8.2625 31.7439C7.96242 32.0123 7.78741 32.3936 7.78125 32.7958C7.81645 32.948 7.9248 33.0746 8.07 33.1327C8.19936 33.1758 8.33507 33.2277 8.46531 33.2805C9.77915 33.8375 11.0121 34.4376 12.1658 35.0783C12.3189 35.1892 12.4625 35.3107 12.5972 35.4427C12.6852 35.4814 12.7797 35.5011 12.8756 35.5011C13.1123 35.5029 13.3432 35.4213 13.5253 35.2708C13.711 35.1388 13.8087 34.916 13.7797 34.6898C13.7876 34.5235 13.6879 34.3699 13.5339 34.3083L11.5453 33.4334C10.8853 33.1536 10.2416 32.8326 9.62203 32.4727C10.0568 31.9315 10.6429 31.5306 11.3047 31.3194C11.962 31.1073 12.5687 30.762 13.087 30.3053C13.1618 30.234 13.2031 30.135 13.2022 30.032C13.1987 29.8868 13.1301 29.7505 13.0148 29.6625C12.8776 29.5569 12.7087 29.5009 12.5353 29.5044H12.2552ZM26.1616 30.8639C25.7744 30.8498 25.3966 30.9901 25.1097 31.2523C24.7867 31.5718 24.6511 32.0343 24.7487 32.4778C24.7927 32.8967 24.9607 33.2935 25.23 33.6173C25.457 33.9201 25.8124 34.0969 26.1908 34.0969C26.4389 34.0934 26.6816 34.0284 26.8972 33.9061C27.3697 33.5682 27.6182 32.9975 27.5452 32.4211C27.5214 31.7725 27.3683 31.3346 27.0656 31.1234C26.7981 30.9457 26.4828 30.8551 26.1616 30.8639ZM18.7039 30.8966C18.3167 30.8816 17.9389 31.0202 17.652 31.2816C17.3273 31.6001 17.1891 32.0626 17.2859 32.507C17.3326 32.925 17.5005 33.321 17.7672 33.6466C17.9933 33.9493 18.3496 34.127 18.728 34.1261C18.9761 34.1217 19.2179 34.0568 19.4344 33.9353C19.8665 33.6757 20.0789 33.1851 20.0789 32.4503C20.1343 31.9681 19.96 31.4871 19.608 31.1527C19.3404 30.9758 19.0242 30.8869 18.7039 30.8966ZM18.685 31.9295C18.9508 31.9295 19.1662 32.145 19.1662 32.4108C19.1662 32.6765 18.9508 32.892 18.685 32.892C18.4192 32.892 18.2037 32.6765 18.2037 32.4108C18.2037 32.145 18.4192 31.9295 18.685 31.9295ZM26.0086 31.9845C26.2735 31.9837 26.4898 32.1983 26.4898 32.4641C26.4898 32.7298 26.2735 32.9453 26.0086 32.9453C25.7428 32.9453 25.5291 32.7298 25.5291 32.4641C25.5291 32.1983 25.7428 31.9845 26.0086 31.9845ZM21.3525 35.3584C21.3419 35.369 21.3354 35.3813 21.3302 35.3963V35.4358C21.3962 35.6197 21.4791 35.7954 21.5794 35.9634C21.67 36.1245 21.7842 36.2732 21.9162 36.4017C22.035 36.5258 22.1739 36.6285 22.3287 36.7042C22.481 36.7685 22.6446 36.8038 22.81 36.8091L22.8289 36.8297C22.9618 36.8306 23.0933 36.8059 23.2173 36.7575C23.3361 36.7091 23.4487 36.6467 23.5525 36.5719C23.6511 36.4927 23.7439 36.4065 23.8275 36.3123C23.9067 36.2226 23.9765 36.1266 24.0372 36.0236C24.0953 35.933 24.1479 35.8386 24.1919 35.74C24.2262 35.6687 24.2541 35.5957 24.2744 35.52V35.477C24.2647 35.4638 24.2565 35.449 24.2503 35.4341C24.1254 35.6268 23.9701 35.796 23.7897 35.9377C23.6515 36.0679 23.4871 36.1682 23.3084 36.2316C23.128 36.294 22.9374 36.3244 22.7464 36.3227C22.5836 36.3253 22.4209 36.3023 22.2652 36.2556C22.1314 36.2134 22.0065 36.1476 21.8956 36.0631C21.783 35.9725 21.6811 35.8707 21.5931 35.7572C21.5007 35.6322 21.4194 35.4984 21.3525 35.3584ZM20.0789 37.2027C18.157 37.3039 17.0368 39.7723 14.3555 37.4948C13.6251 41.8676 18.9687 42.3012 21.1652 40.3256C22.684 38.9704 22.256 37.0821 20.0789 37.2027ZM24.4823 37.2027C22.647 37.3159 22.3606 39.056 23.7845 40.3256C25.981 42.3003 31.3229 41.8676 30.5925 37.4948C27.9111 39.7723 26.7919 37.303 24.8691 37.2027C24.733 37.1951 24.6047 37.1951 24.4823 37.2027Z" fill="#6698fa"/>
</svg>
