<svg width="49" height="44" viewBox="0 0 49 44" fill="none" xmlns="http://www.w3.org/2000/svg">
<path fill-rule="evenodd" clip-rule="evenodd" d="M48.9746 17.4122V19.7075C48.9915 19.327 49 18.9444 49 18.5598C49 18.1752 48.9915 17.7926 48.9746 17.4122ZM24.7074 43.9746H22.4122C22.7927 43.9915 23.1752 44 23.5598 44C23.9444 44 24.327 43.9915 24.7074 43.9746ZM5.59829 36.4959V12.5642H13.077V36.4959H5.59829ZM13.4336 2.68684C13.6465 3.21099 13.754 3.77193 13.75 4.33763V4.47224C13.7365 5.03799 13.6115 5.59552 13.3824 6.11297C13.1533 6.63042 12.8244 7.09765 12.4147 7.48797C12.0049 7.87829 11.5222 8.18404 10.9943 8.38776C10.4663 8.59148 9.90337 8.68917 9.33763 8.67526C8.18722 8.67526 7.08392 8.21826 6.27046 7.40479C5.457 6.59133 5 5.48804 5 4.33763C5 3.18722 5.457 2.08393 6.27046 1.27046C7.08392 0.456999 8.18722 2.42435e-08 9.33763 0H9.47224C10.0379 0.00391484 10.5973 0.119218 11.1185 0.339326C11.6396 0.559433 12.1123 0.880034 12.5095 1.28282C12.9068 1.68561 13.2208 2.1627 13.4336 2.68684ZM32.3719 11.9659C36.919 11.9659 41.4959 14.7629 41.4959 21.9574L41.4361 36.4959H33.9574V23.6775C33.9574 19.9082 32.1924 18.4125 29.8142 18.4125H29.53C28.2276 18.5341 27.0257 19.1647 26.1856 20.1673C25.3454 21.1699 24.9347 22.4636 25.0428 23.7672V36.4959H17.5642V12.5642H24.5941V15.8249H24.8035C25.6176 14.5761 26.7448 13.5627 28.0728 12.8855C29.4008 12.2084 30.8831 11.8913 32.3719 11.9659Z" fill="#6698fa"/>
</svg>
