<svg width="44" height="44" viewBox="0 0 44 44" fill="none" xmlns="http://www.w3.org/2000/svg">
<path d="M34.2298 34.2277L38.2998 32.1927V27.096M26.0715 17.9293L22.0015 19.9643L26.0715 17.9293ZM22.0015 19.9643L17.9315 17.9293L22.0015 19.9643ZM22.0015 19.9643V25.061V19.9643ZM38.2998 11.806L34.2298 13.841L38.2998 11.806ZM38.2998 11.806L34.2298 9.77102L38.2998 11.806ZM38.2998 11.806V16.9027V11.806ZM26.0715 5.70102L22.0015 3.66602L17.9315 5.70102H26.0715ZM5.70312 11.806L9.77313 9.77102L5.70312 11.806ZM5.70312 11.806L9.77313 13.841L5.70312 11.806ZM5.70312 11.806V16.9027V11.806ZM22.0015 40.3327L17.9315 38.2977L22.0015 40.3327ZM22.0015 40.3327L26.0715 38.2977L22.0015 40.3327ZM22.0015 40.3327V35.236V40.3327ZM9.77313 34.2277L5.70312 32.1927V27.096L9.77313 34.2277Z" stroke="#6698FA" stroke-width="2.5" stroke-linecap="round" stroke-linejoin="round"/>
</svg>
