<svg width="44" height="44" viewBox="0 0 44 44" fill="none" xmlns="http://www.w3.org/2000/svg">
<path d="M6.5 5.5C5.94771 5.5 5.5 5.94772 5.5 6.5V37.5C5.5 38.0523 5.94772 38.5 6.5 38.5H37.5C38.0523 38.5 38.5 38.0523 38.5 37.5V6.5C38.5 5.94771 38.0523 5.5 37.5 5.5H6.5ZM33.8333 9.16667C34.3856 9.16667 34.8333 9.61438 34.8333 10.1667V33.8333C34.8333 34.3856 34.3856 34.8333 33.8333 34.8333H10.1667C9.61438 34.8333 9.16667 34.3856 9.16667 33.8333V10.1667C9.16667 9.61438 9.61438 9.16667 10.1667 9.16667H33.8333ZM12.8333 13.8333C12.8333 13.281 13.281 12.8333 13.8333 12.8333H22.8333C23.3856 12.8333 23.8333 13.281 23.8333 13.8333V23.8333H17.5C16.9477 23.8333 16.5 24.281 16.5 24.8333V26.5C16.5 27.0523 16.0523 27.5 15.5 27.5H13.8333C13.281 27.5 12.8333 27.0523 12.8333 26.5V13.8333ZM27.5 23.8333H23.8333V27.5H21.1667C20.6144 27.5 20.1667 27.9477 20.1667 28.5V30.1667C20.1667 30.719 20.6144 31.1667 21.1667 31.1667H22.8333C23.3856 31.1667 23.8333 30.719 23.8333 30.1667V27.5H27.5V30.1667C27.5 30.719 27.9477 31.1667 28.5 31.1667H30.1667C30.719 31.1667 31.1667 30.719 31.1667 30.1667V28.5C31.1667 27.9477 30.719 27.5 30.1667 27.5H27.5V23.8333ZM27.5 23.8333H30.1667C30.719 23.8333 31.1667 23.3856 31.1667 22.8333V21.1667C31.1667 20.6144 30.719 20.1667 30.1667 20.1667H28.5C27.9477 20.1667 27.5 20.6144 27.5 21.1667V23.8333ZM17.5 16.5C16.9477 16.5 16.5 16.9477 16.5 17.5V19.1667C16.5 19.719 16.9477 20.1667 17.5 20.1667H19.1667C19.719 20.1667 20.1667 19.719 20.1667 19.1667V17.5C20.1667 16.9477 19.719 16.5 19.1667 16.5H17.5Z" fill="#6698FA"/>
</svg>
