<svg width="44" height="44" viewBox="0 0 44 44" fill="none" xmlns="http://www.w3.org/2000/svg">
<path d="M34.8349 30.7993V18.1493L34.1811 15.9944C33.7496 14.5721 32.7077 13.4155 31.338 12.8384L25.6682 10.4493L20.9016 8.06602C19.9849 7.69935 18.7016 7.69935 17.7849 8.06602L5.86823 13.7493C4.5849 14.2993 3.85156 15.5827 3.85156 17.0493V30.7993C3.85156 32.266 4.5849 33.5493 5.86823 34.0993L17.7849 39.7827C18.7016 40.1493 19.9849 40.1493 20.9016 39.7827L32.8182 34.0993C34.1016 33.5493 34.8349 32.266 34.8349 30.7993Z" stroke="#6698FA" stroke-width="3" stroke-miterlimit="10" stroke-linejoin="round"/>
<path d="M12.832 19.25V24.75C12.832 26.7667 14.482 28.4167 16.4987 28.4167C18.5154 28.4167 20.1654 26.7667 20.1654 24.75V19.25" stroke="#6698FA" stroke-width="3" stroke-miterlimit="10" stroke-linecap="round"/>
<path d="M25.6641 19.25V28.2333" stroke="#6698FA" stroke-width="3" stroke-miterlimit="10" stroke-linecap="round"/>
</svg>
