<svg width="80" height="80" viewBox="0 0 80 80" fill="none" xmlns="http://www.w3.org/2000/svg">
<rect width="80" height="80" rx="7" fill="#FAFAFC"/>
<g clip-path="url(#clip0_4480_1829)">
<g filter="url(#filter0_d_4480_1829)">
<path d="M17.5969 34.6124C15.191 31.6051 14.1782 27.7163 14.8113 23.9174L15.9733 16.9455C16.0983 16.1953 16.6338 15.5786 17.3591 15.3496L19.8306 14.5691C21.4313 14.0636 22.5537 16.139 21.2546 17.2019V17.2019C21.0223 17.392 20.8513 17.6464 20.763 17.9332L19.3778 22.4353C18.8708 24.083 19.4221 25.873 20.7682 26.9499V26.9499C21.2428 27.3295 21.6293 27.8076 21.9011 28.3512L26.2098 36.9688L33.458 54.3643C34.4295 56.6959 36.7076 58.2147 39.2335 58.2147L43.8563 58.2147C45.4131 58.2147 46.5807 59.6389 46.2754 61.1655V61.1655V61.1655C45.9323 62.8813 44.4258 64.1163 42.676 64.1163L38.1216 64.1163C34.4682 64.1163 31.159 61.9606 29.6824 58.619L21.932 41.0784C21.2458 39.5255 20.3614 38.068 19.3008 36.7423L17.5969 34.6124Z" fill="#555770"/>
<path d="M62.5594 34.6124C64.9652 31.6051 65.9781 27.7163 65.3449 23.9174L64.183 16.9455C64.0579 16.1953 63.5225 15.5786 62.7972 15.3496L60.3257 14.5691C58.725 14.0636 57.6025 16.139 58.9017 17.2019V17.2019C59.134 17.392 59.305 17.6464 59.3932 17.9332L60.7785 22.4353C61.2854 24.083 60.7341 25.873 59.388 26.9499V26.9499C58.9135 27.3295 58.527 27.8076 58.2552 28.3512L53.9464 36.9688L46.6983 54.3643C45.7268 56.6959 43.4486 58.2147 40.9227 58.2147L36.2999 58.2147C34.7431 58.2147 33.5755 59.6389 33.8808 61.1655V61.1655V61.1655C34.224 62.8813 35.7305 64.1163 37.4803 64.1163L42.0347 64.1163C45.688 64.1163 48.9973 61.9606 50.4738 58.619L58.2243 41.0784C58.9105 39.5255 59.7949 38.068 60.8554 36.7423L62.5594 34.6124Z" fill="#555770"/>
<path d="M23.202 35.0661C22.4415 31.7202 25.5938 28.8089 28.8688 29.8323V29.8323C30.1709 30.2392 31.2144 31.2208 31.7 32.4956L32.4811 34.5459C35.3512 42.0801 45.9308 42.2965 49.1068 34.886L50.3232 32.0478C50.7537 31.0433 51.5718 30.2554 52.5919 29.8631V29.8631C55.3923 28.786 58.3508 31.0217 58.0792 34.0099L57.6123 39.1456C57.5303 40.0469 57.2806 40.9249 56.8758 41.7344L47.2753 60.9355C46.2604 62.9652 44.4526 64.4858 42.279 65.1378L41.9955 65.2229C40.556 65.6548 39.0182 65.6315 37.5923 65.1562V65.1562C35.6082 64.4948 34.0034 63.0137 33.1853 61.0888L24.694 41.1093C24.5244 40.7102 24.3908 40.2968 24.2947 39.8739L23.202 35.0661Z" fill="#6698FA"/>
<path d="M31.8598 65.1318C32.0089 64.5351 32.5451 64.1165 33.1602 64.1165L33.886 64.1165C34.2718 64.1165 34.6512 64.2148 34.9885 64.4021L36.224 65.0885C38.453 66.3268 41.1494 66.3854 43.43 65.2451L45.1972 64.3615C45.5195 64.2004 45.875 64.1165 46.2354 64.1165L47.0096 64.1165C47.6199 64.1165 48.1519 64.5318 48.2999 65.1239V65.1239C48.4841 65.8606 48.0151 66.6017 47.2704 66.7507L45.6874 67.0673L41.168 67.9711C40.2562 68.1535 39.3166 68.1471 38.4074 67.9522L32.8793 66.7677C32.138 66.6088 31.6759 65.8673 31.8598 65.1318V65.1318Z" fill="#CCDDFF"/>
</g>
</g>
<defs>
<filter id="filter0_d_4480_1829" x="9.81641" y="12.1819" width="60.5234" height="64.0657" filterUnits="userSpaceOnUse" color-interpolation-filters="sRGB">
<feFlood flood-opacity="0" result="BackgroundImageFix"/>
<feColorMatrix in="SourceAlpha" type="matrix" values="0 0 0 0 0 0 0 0 0 0 0 0 0 0 0 0 0 0 127 0" result="hardAlpha"/>
<feOffset dy="4"/>
<feGaussianBlur stdDeviation="2"/>
<feComposite in2="hardAlpha" operator="out"/>
<feColorMatrix type="matrix" values="0 0 0 0 0 0 0 0 0 0 0 0 0 0 0 0 0 0 0.25 0"/>
<feBlend mode="normal" in2="BackgroundImageFix" result="effect1_dropShadow_4480_1829"/>
<feBlend mode="normal" in="SourceGraphic" in2="effect1_dropShadow_4480_1829" result="shape"/>
</filter>
<clipPath id="clip0_4480_1829">
<rect width="72" height="72" fill="white" transform="translate(4 4)"/>
</clipPath>
</defs>
</svg>
